<svg width="91" height="91" viewBox="0 0 91 91" fill="none" xmlns="http://www.w3.org/2000/svg">
<path fill-rule="evenodd" clip-rule="evenodd" d="M15.0518 27.3958V19.1666C15.0518 18.0738 15.4863 17.0303 16.2565 16.2568C17.03 15.4865 18.0735 15.052 19.1663 15.052H27.3955C28.7583 15.052 29.8643 13.946 29.8643 12.5833C29.8643 11.2205 28.7583 10.1145 27.3955 10.1145H19.1663C16.7667 10.1145 14.4625 11.0691 12.764 12.7643C11.0688 14.4628 10.1143 16.767 10.1143 19.1666V27.3958C10.1143 28.7585 11.2203 29.8645 12.583 29.8645C13.9458 29.8645 15.0518 28.7585 15.0518 27.3958Z" fill="#2D6AFF"/>
<path fill-rule="evenodd" clip-rule="evenodd" d="M75.9473 63.604V71.8332C75.9473 72.926 75.5128 73.9695 74.7425 74.743C73.969 75.5133 72.9255 75.9478 71.8327 75.9478H63.6035C62.2408 75.9478 61.1348 77.0538 61.1348 78.4165C61.1348 79.7793 62.2408 80.8853 63.6035 80.8853H71.8327C74.2323 80.8853 76.5365 79.9307 78.235 78.2355C79.9302 76.537 80.8848 74.2328 80.8848 71.8332V63.604C80.8848 62.2413 79.7788 61.1353 78.416 61.1353C77.0533 61.1353 75.9473 62.2413 75.9473 63.604Z" fill="#2D6AFF"/>
<path fill-rule="evenodd" clip-rule="evenodd" d="M58.666 10.1145C46.4046 10.1145 36.4473 20.0718 36.4473 32.3333C36.4473 44.5947 46.4046 54.552 58.666 54.552C70.9275 54.552 80.8848 44.5947 80.8848 32.3333C80.8848 20.0718 70.9275 10.1145 58.666 10.1145ZM58.666 15.052C68.2053 15.052 75.9473 22.794 75.9473 32.3333C75.9473 41.8725 68.2053 49.6145 58.666 49.6145C49.1268 49.6145 41.3848 41.8725 41.3848 32.3333C41.3848 22.794 49.1268 15.052 58.666 15.052Z" fill="#2D6AFF"/>
<path fill-rule="evenodd" clip-rule="evenodd" d="M42.2671 44.0155C41.4146 44.9602 41.4212 46.3953 42.2803 47.3335C46.3455 51.7706 52.1816 54.5521 58.6662 54.5521C65.1574 54.5521 71.0001 51.7641 75.0653 47.3203C75.9541 46.3493 75.9212 44.8483 74.9929 43.9134C74.8382 43.7587 74.6835 43.6007 74.5288 43.4427C70.4932 39.3281 64.8776 36.7771 58.6662 36.7771C52.4549 36.7771 46.8393 39.3281 42.8037 43.4427C42.6259 43.6271 42.4449 43.818 42.2671 44.0155Z" fill="#2D6AFF"/>
<path fill-rule="evenodd" clip-rule="evenodd" d="M15.9471 70.3323C15.0814 71.2737 15.0814 72.722 15.9471 73.6667C20.009 78.1006 25.8485 80.8854 32.333 80.8854C38.8242 80.8854 44.6669 78.0973 48.7321 73.6536C49.6209 72.6825 49.588 71.1815 48.6597 70.2467C48.505 70.092 48.3503 69.934 48.1956 69.776C44.16 65.6614 38.5444 63.1104 32.333 63.1104C26.1217 63.1104 20.5061 65.6614 16.4705 69.776C16.2928 69.957 16.1183 70.1414 15.9471 70.3323Z" fill="#2D6AFF"/>
<path d="M58.6667 37.2708C63.2115 37.2708 66.8958 33.5865 66.8958 29.0417C66.8958 24.4968 63.2115 20.8125 58.6667 20.8125C54.1218 20.8125 50.4375 24.4968 50.4375 29.0417C50.4375 33.5865 54.1218 37.2708 58.6667 37.2708Z" fill="#2D6AFF"/>
<path d="M32.3327 63.6041C36.8775 63.6041 40.5618 59.9198 40.5618 55.3749C40.5618 50.8301 36.8775 47.1458 32.3327 47.1458C27.7878 47.1458 24.1035 50.8301 24.1035 55.3749C24.1035 59.9198 27.7878 63.6041 32.3327 63.6041Z" fill="#2D6AFF"/>
<path fill-rule="evenodd" clip-rule="evenodd" d="M54.5221 57.5078C54.5419 57.893 54.5518 58.2781 54.5518 58.6665C54.5518 70.928 44.5945 80.8853 32.333 80.8853C20.0716 80.8853 10.1143 70.928 10.1143 58.6665C10.1143 46.405 20.0716 36.4478 32.333 36.4478C32.7214 36.4478 33.1066 36.4576 33.4917 36.4774C33.7813 38.245 34.252 39.9501 34.884 41.5729C34.0513 41.4478 33.1987 41.3853 32.333 41.3853C22.7938 41.3853 15.0518 49.1273 15.0518 58.6665C15.0518 68.2058 22.7938 75.9478 32.333 75.9478C41.8723 75.9478 49.6143 68.2058 49.6143 58.6665C49.6143 57.8008 49.5517 56.9483 49.4266 56.1155C51.0527 56.7475 52.7578 57.2182 54.5221 57.5078Z" fill="#2D6AFF"/>
</svg>
