<svg width="91" height="91" viewBox="0 0 91 91" fill="none" xmlns="http://www.w3.org/2000/svg">
<path d="M47.0167 22.75V30.394C47.011 32.0301 47.3846 33.6453 48.108 35.1129C48.8313 36.5804 49.8849 37.8604 51.186 38.8525L58.2552 44.2988C58.439 44.4405 58.5878 44.6225 58.6902 44.8307C58.7926 45.039 58.8459 45.2679 58.8459 45.5C58.8459 45.7321 58.7926 45.961 58.6902 46.1693C58.5878 46.3775 58.439 46.5595 58.2552 46.7012L51.1875 52.146C49.8859 53.1384 48.8319 54.4188 48.1083 55.8869C47.3846 57.355 47.011 58.9708 47.0167 60.6075V68.25H50.05V62.5989C50.0441 61.4247 50.3116 60.2653 50.8312 59.2123C51.3508 58.1594 52.1084 57.2418 53.0439 56.5322L62.0089 49.6223C62.9281 48.9137 64.056 48.5293 65.2167 48.5293C66.3773 48.5293 67.5052 48.9137 68.4244 49.6223L77.3955 56.5368C78.3296 57.2463 79.0858 58.1634 79.6043 59.2155C80.1229 60.2676 80.3896 61.4259 80.3833 62.5989V68.25H83.4167V60.606C83.4223 58.9699 83.0488 57.3547 82.3254 55.8871C81.602 54.4196 80.5484 53.1396 79.2473 52.1475L72.1782 46.7027C71.9944 46.561 71.8455 46.3791 71.7431 46.1708C71.6407 45.9626 71.5875 45.7336 71.5875 45.5015C71.5875 45.2694 71.6407 45.0405 71.7431 44.8322C71.8455 44.624 71.9944 44.442 72.1782 44.3003L79.2458 38.8555C80.5472 37.8633 81.6011 36.5831 82.3247 35.1153C83.0484 33.6475 83.4221 32.032 83.4167 30.3955V22.75H80.3833V28.4041C80.3895 29.5784 80.1221 30.7379 79.6025 31.7909C79.0828 32.8438 78.3251 33.7614 77.3894 34.4708L68.4244 41.3747C67.505 42.0828 66.3772 42.4668 65.2167 42.4668C64.0562 42.4668 62.9283 42.0828 62.0089 41.3747L53.0378 34.4602C52.1046 33.7516 51.3489 32.8358 50.8304 31.785C50.3119 30.7343 50.0447 29.5774 50.05 28.4057V22.75H47.0167Z" fill="#2D6AFF"/>
<path d="M66.5814 52.0307C66.1922 51.7314 65.715 51.5691 65.224 51.5691C64.733 51.5691 64.2557 51.7314 63.8666 52.0307L54.8879 58.9452C54.3243 59.3725 53.8678 59.9251 53.5545 60.5592C53.2413 61.1933 53.0799 61.8916 53.0831 62.5989V68.25H77.3497V62.5989C77.3534 61.8926 77.1927 61.1952 76.8802 60.5619C76.5678 59.9285 76.1121 59.3766 75.5494 58.9498L66.5814 52.0307Z" fill="#2D6AFF"/>
<path d="M63.859 38.9783C64.2479 39.2784 64.7252 39.4412 65.2164 39.4412C65.7076 39.4412 66.1849 39.2784 66.5738 38.9783L75.5449 32.0639C76.1092 31.6362 76.5662 31.0829 76.8794 30.4479C77.1927 29.813 77.3537 29.1137 77.3497 28.4057V22.75H53.0831V28.4041C53.0796 29.1101 53.2404 29.8072 53.5529 30.4403C53.8654 31.0734 54.3209 31.6251 54.8833 32.0517L63.859 38.9783Z" fill="#2D6AFF"/>
<path d="M84.9335 71.2834H45.5001C44.6956 71.2834 43.9241 71.603 43.3552 72.1719C42.7864 72.7407 42.4668 73.5123 42.4668 74.3168V77.3501H87.9668V74.3168C87.9668 73.5123 87.6472 72.7407 87.0784 72.1719C86.5095 71.603 85.738 71.2834 84.9335 71.2834Z" fill="#2D6AFF"/>
<path d="M42.4668 16.6832C42.4668 17.4877 42.7864 18.2593 43.3552 18.8281C43.9241 19.397 44.6956 19.7166 45.5001 19.7166H84.9335C85.738 19.7166 86.5095 19.397 87.0784 18.8281C87.6472 18.2593 87.9668 17.4877 87.9668 16.6832V13.6499H42.4668V16.6832Z" fill="#2D6AFF"/>
<path d="M4.54987 71.2833H9.09987C9.50211 71.2833 9.88788 71.1235 10.1723 70.8391C10.4567 70.5547 10.6165 70.1689 10.6165 69.7667C10.6165 69.3644 10.4567 68.9787 10.1723 68.6942C9.88788 68.4098 9.50211 68.25 9.09987 68.25H4.54987C4.14762 68.25 3.76185 68.4098 3.47742 68.6942C3.19299 68.9787 3.0332 69.3644 3.0332 69.7667C3.0332 70.1689 3.19299 70.5547 3.47742 70.8391C3.76185 71.1235 4.14762 71.2833 4.54987 71.2833Z" fill="#2D6AFF"/>
<path d="M4.54987 22.7499H9.09987C9.50211 22.7499 9.88788 22.5901 10.1723 22.3057C10.4567 22.0212 10.6165 21.6355 10.6165 21.2332C10.6165 20.831 10.4567 20.4452 10.1723 20.1608C9.88788 19.8763 9.50211 19.7166 9.09987 19.7166H4.54987C4.14762 19.7166 3.76185 19.8763 3.47742 20.1608C3.19299 20.4452 3.0332 20.831 3.0332 21.2332C3.0332 21.6355 3.19299 22.0212 3.47742 22.3057C3.76185 22.5901 4.14762 22.7499 4.54987 22.7499Z" fill="#2D6AFF"/>
<path d="M4.54987 47.0166H22.7499C23.9503 47.0368 25.0958 47.5227 25.9448 48.3717C26.7937 49.2206 27.2796 50.3662 27.2999 51.5666C27.2999 52.7733 26.8205 53.9306 25.9672 54.7839C25.1139 55.6372 23.9566 56.1166 22.7499 56.1166H10.6165C10.218 56.1284 9.83909 56.292 9.55718 56.5739C9.27527 56.8558 9.11168 57.2347 9.09987 57.6332C9.09987 58.0355 9.25966 58.4212 9.54409 58.7057C9.82852 58.9901 10.2143 59.1499 10.6165 59.1499H30.3332C31.5399 59.1499 32.6972 59.6293 33.5505 60.4826C34.4038 61.3358 34.8832 62.4932 34.8832 63.6999C34.8832 64.9066 34.4038 66.0639 33.5505 66.9172C32.6972 67.7705 31.5399 68.2499 30.3332 68.2499H21.2332C20.8334 68.2577 20.4521 68.4199 20.1694 68.7027C19.8866 68.9855 19.7243 69.3667 19.7165 69.7666C19.7165 70.1688 19.8763 70.5546 20.1608 70.839C20.4452 71.1234 20.831 71.2832 21.2332 71.2832H40.2765C40.6784 70.5928 41.2128 69.9886 41.8489 69.5053C42.485 69.022 43.2103 68.6691 43.9832 68.4668V60.6074C43.9764 58.5066 44.4563 56.4328 45.3852 54.5485C46.314 52.6642 47.6667 51.0206 49.337 49.7466L54.8441 45.4999L49.3355 41.2532C47.6656 39.9796 46.3133 38.3364 45.3847 36.4527C44.4561 34.5689 43.9764 32.4956 43.9832 30.3954V22.536C43.2098 22.334 42.4841 21.9809 41.8479 21.497C41.2117 21.013 40.6776 20.4079 40.2765 19.7166H21.2332C20.8351 19.7294 20.4567 19.8934 20.175 20.1751C19.8934 20.4567 19.7294 20.8351 19.7165 21.2332C19.7165 21.6355 19.8763 22.0212 20.1608 22.3057C20.4452 22.5901 20.831 22.7499 21.2332 22.7499H30.3332C31.5317 22.7762 32.6738 23.264 33.5215 24.1116C34.3691 24.9593 34.8569 26.1014 34.8832 27.2999C34.8832 28.5066 34.4038 29.6639 33.5505 30.5172C32.6972 31.3705 31.5399 31.8499 30.3332 31.8499H10.6165C10.2166 31.8573 9.83511 32.0194 9.55227 32.3023C9.26942 32.5851 9.10726 32.9666 9.09987 33.3666C9.09987 33.7688 9.25966 34.1546 9.54409 34.439C9.82852 34.7234 10.2143 34.8832 10.6165 34.8832H22.7499C23.9469 34.9139 25.0865 35.4032 25.9332 36.2499C26.7799 37.0966 27.2692 38.2362 27.2999 39.4332C27.2999 40.64 26.8205 41.7973 25.9672 42.6506C25.1139 43.5038 23.9566 43.9832 22.7499 43.9832H4.54987C4.14921 43.9883 3.7664 44.1498 3.48307 44.4331C3.19974 44.7164 3.03831 45.0992 3.0332 45.4999C3.0332 45.9021 3.19299 46.2879 3.47742 46.5723C3.76185 46.8568 4.14762 47.0166 4.54987 47.0166Z" fill="#2D6AFF"/>
</svg>
