<svg width="91" height="91" viewBox="0 0 91 91" fill="none" xmlns="http://www.w3.org/2000/svg">
<g clip-path="url(#clip0_2027_207)">
<path d="M25.7503 58.6667C25.7503 60.4847 24.2766 61.9583 22.4587 61.9583C20.6407 61.9583 19.167 60.4847 19.167 58.6667C19.167 56.8487 20.6407 55.375 22.4587 55.375C24.2766 55.375 25.7503 56.8487 25.7503 58.6667Z" fill="#2D6AFF"/>
<path d="M35.6247 22.4583C33.8067 22.4583 32.333 23.932 32.333 25.7499C32.333 27.5678 33.8067 29.0416 35.6247 29.0416H68.5413C70.3593 29.0416 71.833 27.5678 71.833 25.7499C71.833 23.932 70.3593 22.4583 68.5413 22.4583H35.6247Z" fill="#2D6AFF"/>
<path d="M25.7503 25.7499C25.7503 27.5678 24.2766 29.0416 22.4587 29.0416C20.6407 29.0416 19.167 27.5678 19.167 25.7499C19.167 23.932 20.6407 22.4583 22.4587 22.4583C24.2766 22.4583 25.7503 23.932 25.7503 25.7499Z" fill="#2D6AFF"/>
<path fill-rule="evenodd" clip-rule="evenodd" d="M25.75 6C14.8424 6 6 14.8424 6 25.75C6 32.6196 9.5073 38.6701 14.8289 42.2083C9.5073 45.7465 6 51.797 6 58.6667C6 69.5743 14.8424 78.4167 25.75 78.4167H41.2485C45.8904 82.5138 51.9882 85 58.6667 85C73.2102 85 85 73.2102 85 58.6667C85 51.7775 82.3545 45.5063 78.024 40.8133C82.2916 37.1905 85 31.7866 85 25.75C85 14.8424 76.1576 6 65.25 6H25.75ZM32.3333 58.6667C32.3333 63.463 33.6157 67.96 35.8563 71.8333H25.75C18.4782 71.8333 12.5833 65.9383 12.5833 58.6667C12.5833 51.395 18.4782 45.5 25.75 45.5H35.8563C33.6157 49.3733 32.3333 53.8704 32.3333 58.6667ZM58.6667 32.3333C51.9882 32.3333 45.8904 34.8194 41.2485 38.9167H25.75C18.4782 38.9167 12.5833 33.0218 12.5833 25.75C12.5833 18.4782 18.4782 12.5833 25.75 12.5833H65.25C72.5216 12.5833 78.4167 18.4782 78.4167 25.75C78.4167 30.1819 76.2271 34.1024 72.8705 36.4886C68.7724 33.8586 63.8978 32.3333 58.6667 32.3333ZM61.9583 48.7917C61.9583 46.9737 60.4847 45.5 58.6667 45.5C56.8487 45.5 55.375 46.9737 55.375 48.7917V58.6667C55.375 59.823 55.9817 60.8945 56.9731 61.4893L65.2023 66.4268C66.7612 67.3619 68.7829 66.8567 69.7184 65.2977C70.6536 63.7388 70.1483 61.7171 68.5894 60.7816L61.9583 56.8029V48.7917Z" fill="#2D6AFF"/>
</g>
<defs>
<clipPath id="clip0_2027_207">
<rect width="79" height="79" fill="white" transform="translate(6 6)"/>
</clipPath>
</defs>
</svg>
