<svg width="91" height="91" viewBox="0 0 91 91" fill="none" xmlns="http://www.w3.org/2000/svg">
<g clip-path="url(#clip0_2027_211)">
<path fill-rule="evenodd" clip-rule="evenodd" d="M46.0442 39.0999C46.2639 39.2756 46.4763 39.4731 46.6785 39.67C46.8412 39.8253 46.9983 39.9914 47.15 40.168L57.3094 26.0204C56.8591 25.7816 56.444 25.4817 56.0759 25.1291L46.0442 39.1004V39.0999ZM49.0799 46.2722H57.2959C57.2845 45.7643 57.2845 45.2468 57.2959 44.7383H49.081C49.1277 45.2486 49.1274 45.762 49.0799 46.2722ZM54.6654 67.3019L44.3309 52.9677C44.7958 52.7521 45.2405 52.4954 45.6597 52.2007L55.7328 66.1722C55.3846 66.5557 55.0281 66.9288 54.6654 67.3019ZM80.3073 53.092C81.7451 51.3155 82.6504 49.1681 82.9185 46.8984C83.1867 44.6288 82.8066 42.3295 81.8224 40.2669C80.8382 38.2042 79.29 36.4623 77.3571 35.2429C75.4241 34.0235 73.1853 33.3764 70.8999 33.3764C68.6144 33.3764 66.3757 34.0235 64.4427 35.2429C62.5097 36.4623 60.9616 38.2042 59.9773 40.2669C58.9931 42.3295 58.6131 44.6288 58.8812 46.8984C59.1493 49.1681 60.0547 51.3155 61.4924 53.092C62.1053 51.815 62.9724 50.6764 64.0407 49.7461C65.1089 48.8158 66.3558 48.1134 67.705 47.6818C66.7532 47.0046 66.0413 46.0424 65.672 44.9342C65.3028 43.826 65.2954 42.6291 65.6508 41.5163C66.0063 40.4036 66.7062 39.4327 67.6495 38.7437C68.5928 38.0548 69.7307 37.6835 70.8989 37.6835C72.067 37.6835 73.2049 38.0548 74.1482 38.7437C75.0915 39.4327 75.7914 40.4036 76.1469 41.5163C76.5023 42.6291 76.4949 43.826 76.1257 44.9342C75.7564 46.0424 75.0445 47.0046 74.0927 47.6818C75.4423 48.1132 76.6895 48.8155 77.7581 49.7458C78.8267 50.6761 79.6942 51.8148 80.3073 53.092ZM66.916 43.1939C66.9175 42.4065 67.1524 41.6372 67.591 40.9832C68.0295 40.3292 68.6521 39.8199 69.38 39.5195C70.1079 39.2192 70.9086 39.1414 71.6807 39.2959C72.4528 39.4505 73.1618 39.8304 73.7181 40.3877C74.2744 40.945 74.653 41.6547 74.8061 42.4271C74.9592 43.1995 74.8799 44 74.5783 44.7274C74.2766 45.4547 73.7662 46.0764 73.1114 46.5137C72.4566 46.9511 71.6868 47.1846 70.8994 47.1846C70.3756 47.1847 69.857 47.0815 69.3732 46.8809C68.8894 46.6803 68.4499 46.3862 68.0799 46.0156C67.7099 45.6449 67.4166 45.2048 67.2169 44.7207C67.0172 44.2365 66.915 43.7177 66.916 43.1939ZM62.624 54.315C63.2849 52.6602 64.4267 51.2414 65.9021 50.242C67.3774 49.2426 69.1184 48.7084 70.9004 48.7084C72.6824 48.7084 74.4234 49.2426 75.8987 50.242C77.374 51.2414 78.5159 52.6602 79.1768 54.315C76.9377 56.4252 73.9771 57.6005 70.9004 57.6005C67.8236 57.6005 64.8631 56.4252 62.624 54.315ZM41.6606 52.1488V38.8513C43.2934 39.0377 44.8004 39.8184 45.8946 41.0446C46.9887 42.2708 47.5934 43.8567 47.5934 45.5C47.5934 47.1434 46.9887 48.7293 45.8946 49.9555C44.8004 51.1817 43.2934 51.9624 41.6606 52.1488ZM62.7702 64.9699C61.1076 64.9691 59.4777 65.4324 58.0639 66.3074C56.6502 67.1825 55.5087 68.4347 54.7678 69.9232C54.027 71.4117 53.7162 73.0774 53.8704 74.7328C54.0246 76.3883 54.6377 77.968 55.6407 79.294C56.5631 77.5323 58.1077 76.1765 59.9741 75.4902C59.2933 74.9168 58.8052 74.148 58.576 73.2878C58.3468 72.4277 58.3876 71.5179 58.6928 70.6818C58.998 69.8456 59.5529 69.1235 60.2823 68.6133C61.0117 68.103 61.8803 67.8294 62.7704 67.8294C63.6606 67.8294 64.5292 68.103 65.2586 68.6133C65.9879 69.1235 66.5428 69.8456 66.8481 70.6818C67.1533 71.5179 67.194 72.4277 66.9648 73.2878C66.7357 74.148 66.2476 74.9168 65.5667 75.4902C67.433 76.1768 68.9775 77.5325 69.9002 79.294C70.9032 77.9679 71.5162 76.3882 71.6703 74.7326C71.8244 73.0771 71.5135 71.4114 70.7725 69.9229C70.0315 68.4344 68.8899 67.1823 67.476 66.3073C66.0622 65.4323 64.4322 64.9692 62.7695 64.9702L62.7702 64.9699ZM59.9551 72.1732C59.9558 71.6165 60.1215 71.0725 60.4313 70.6099C60.7411 70.1473 61.1811 69.787 61.6957 69.5745C62.2103 69.3619 62.7763 69.3067 63.3223 69.4157C63.8682 69.5248 64.3696 69.7933 64.763 70.1872C65.1564 70.5812 65.4241 71.0829 65.5324 71.629C65.6407 72.1751 65.5847 72.7411 65.3714 73.2553C65.1582 73.7696 64.7972 74.2091 64.3342 74.5183C63.8712 74.8275 63.327 74.9924 62.7702 74.9923C62.0233 74.9911 61.3074 74.6935 60.7796 74.165C60.2519 73.6365 59.9553 72.9202 59.9551 72.1732ZM56.7515 80.5063C57.2517 79.3232 58.0895 78.3138 59.1601 77.6041C60.2307 76.8944 61.4867 76.5159 62.7712 76.5159C64.0556 76.5159 65.3117 76.8944 66.3823 77.6041C67.4529 78.3138 68.2906 79.3232 68.7909 80.5063C67.1481 82.0129 65.0002 82.8487 62.7712 82.8487C60.5422 82.8487 58.3942 82.0129 56.7515 80.5063ZM40.1363 60.596C40.1453 60.9038 40.0689 61.2081 39.9156 61.4752C39.7624 61.7422 39.5381 61.9617 39.2678 62.1092C39.0056 62.2669 38.7053 62.3502 38.3992 62.3502C38.0932 62.3502 37.7929 62.2669 37.5307 62.1092L32.82 59.3938V31.6057L37.5312 28.8908C37.796 28.7379 38.0964 28.6577 38.402 28.6581C38.7077 28.6585 39.0079 28.7395 39.2722 28.893C39.5366 29.0466 39.7557 29.2671 39.9075 29.5324C40.0593 29.7977 40.1385 30.0984 40.1369 30.4041V60.596H40.1363ZM20.6945 53.6622C22.1464 53.6516 23.574 54.0349 24.8253 54.7712L31.295 58.5127V32.4873L24.8253 36.2289C23.574 36.9652 22.1464 37.3485 20.6945 37.3379H16.8586V53.6622H20.6945ZM18.7936 66.877C18.7883 67.589 18.5018 68.2702 17.9964 68.7718C17.491 69.2735 16.8078 69.555 16.0957 69.555C15.3836 69.555 14.7004 69.2735 14.195 68.7718C13.6896 68.2702 13.403 67.589 13.3978 66.877V55.1857H18.7936V66.877ZM8 49.2158V41.7843C8.0005 40.605 8.46926 39.4742 9.30324 38.6405C10.1372 37.8067 11.2681 37.3382 12.4474 37.3379H15.3339V53.6622H12.4474C11.2681 53.6619 10.1372 53.1934 9.30324 52.3596C8.46926 51.5259 8.0005 50.3951 8 49.2158ZM62.7695 8.15137C60.3993 8.15644 58.1278 9.10078 56.4526 10.7775C54.7773 12.4542 53.835 14.7266 53.832 17.0967C53.8283 19.0397 54.4638 20.9299 55.6407 22.4759C56.5661 20.7164 58.1096 19.3613 59.9741 18.6714C59.2933 18.098 58.8052 17.3292 58.576 16.469C58.3468 15.6089 58.3876 14.6991 58.6928 13.863C58.998 13.0268 59.5529 12.3047 60.2823 11.7945C61.0117 11.2842 61.8803 11.0106 62.7704 11.0106C63.6606 11.0106 64.5292 11.2842 65.2586 11.7945C65.9879 12.3047 66.5428 13.0268 66.8481 13.863C67.1533 14.6991 67.194 15.6089 66.9648 16.469C66.7357 17.3292 66.2476 18.098 65.5667 18.6714C67.431 19.3614 68.9743 20.7162 69.9002 22.4752C71.0765 20.9292 71.712 19.0394 71.7088 17.0967C71.7057 14.7263 70.7631 12.4537 69.0875 10.7769C67.4119 9.10021 65.1399 8.15606 62.7695 8.15137ZM59.9543 15.3547C59.955 14.798 60.1208 14.254 60.4306 13.7914C60.7404 13.3288 61.1804 12.9685 61.695 12.7559C62.2095 12.5434 62.7756 12.4882 63.3215 12.5972C63.8675 12.7063 64.3688 12.9748 64.7622 13.3687C65.1556 13.7627 65.4234 14.2644 65.5317 14.8105C65.64 15.3566 65.584 15.9226 65.3707 16.4368C65.1574 16.9511 64.7965 17.3906 64.3335 17.6998C63.8705 18.0089 63.3262 18.1739 62.7695 18.1738C62.0226 18.1726 61.3066 17.8751 60.7789 17.3465C60.2511 16.818 59.9545 16.1017 59.9543 15.3547ZM56.7507 23.6885C57.2509 22.5054 58.0886 21.4959 59.1593 20.7862C60.2299 20.0764 61.4859 19.6979 62.7704 19.6979C64.0549 19.6979 65.311 20.0764 66.3816 20.7862C67.4522 21.4959 68.29 22.5054 68.7901 23.6885C67.1474 25.1951 64.9994 26.0309 62.7704 26.0309C60.5415 26.0309 58.3935 25.1951 56.7507 23.6885Z" fill="#2D6AFF"/>
</g>
<defs>
<clipPath id="clip0_2027_211">
<rect width="75" height="75" fill="white" transform="translate(8 8)"/>
</clipPath>
</defs>
</svg>
