<svg width="91" height="91" viewBox="0 0 91 91" fill="none" xmlns="http://www.w3.org/2000/svg">
<path fill-rule="evenodd" clip-rule="evenodd" d="M19.1605 49.7179C20.8798 49.7179 22.2734 51.1116 22.2734 52.8309C22.2734 54.5501 20.8798 55.9438 19.1605 55.9438C17.4412 55.9438 16.0476 54.5501 16.0476 52.8309C16.0476 51.1116 17.4412 49.7179 19.1605 49.7179ZM40.9837 59.4741C40.9837 55.3896 40.9837 50.7213 40.9837 46.6371C40.9837 45.2579 42.112 44.13 43.491 44.13C44.87 44.13 45.998 45.2591 45.998 46.6371V55.7762C46.2463 54.6265 47.2739 53.7588 48.4952 53.7588C49.8802 53.7588 51.0216 54.8783 51.0478 56.2633C51.4263 55.4935 52.2187 54.9609 53.1301 54.9609C54.4051 54.9609 55.4476 56.0036 55.4476 57.278V57.6541C55.8616 57.1015 56.5216 56.7418 57.2609 56.7418C58.5066 56.7418 59.525 57.7605 59.525 59.0055C59.525 64.7307 59.5251 65.569 59.5251 69.5065C59.5251 70.5249 59.3088 71.4057 58.839 72.292H42.1191C41.9495 72.0459 41.7225 71.8357 41.445 71.6742L38.9006 70.192C37.4617 69.3539 36.3961 68.0755 36.2743 66.4145L35.8839 61.0924C35.8839 58.599 37.6256 56.9856 40.118 56.9856L40.9837 59.4741ZM58.4962 74.6358V78.4262H42.4738V74.6358H58.4962ZM43.1415 35.386C41.4135 35.386 39.8129 35.9305 38.5013 36.8572L30.9863 28.9482C32.4276 27.2169 33.2946 24.9909 33.2946 22.5622C33.2946 17.0459 28.8223 12.5737 23.306 12.5737C17.7897 12.5737 13.3174 17.046 13.3174 22.5622C13.3174 28.0785 17.7896 32.5507 23.306 32.5507C25.5515 32.5507 27.6236 31.8096 29.2919 30.5588L36.8064 38.4673C35.7311 39.8359 35.0898 41.5618 35.0898 43.4373C35.0898 44.3478 35.2411 45.2229 35.5197 46.039L27.4527 50.1813C25.6591 47.516 22.6143 45.7624 19.1602 45.7624C13.6442 45.7627 9.17188 50.235 9.17188 55.7513C9.17188 61.2676 13.6442 65.7399 19.1605 65.7399C24.6768 65.7399 29.1491 61.2676 29.1491 55.7513C29.1491 54.522 28.9265 53.3447 28.5203 52.2571L36.5875 48.1147C37.1467 48.8969 37.8425 49.5747 38.6401 50.1136V46.6369C38.6401 43.9643 40.8185 41.7861 43.4911 41.7861C46.1631 41.7861 48.3419 43.9649 48.3419 46.6369V49.5835C49.8037 48.3452 50.8183 46.5949 51.1079 44.6093H61.92C62.5002 49.5733 66.72 53.426 71.8398 53.426C77.3561 53.426 81.8284 48.9537 81.8284 43.4374C81.8284 37.9211 77.3561 33.4489 71.8398 33.4489C66.72 33.4489 62.5004 37.3016 61.92 42.2657H51.1079C50.9186 40.968 50.4201 39.7706 49.689 38.7512L58.1864 30.5627C59.9098 31.9773 62.115 32.8264 64.5185 32.8264C70.0348 32.8264 74.5071 28.3541 74.5071 22.8377C74.5071 17.3214 70.0348 12.8491 64.5185 12.8491C59.0022 12.8491 54.5299 17.3214 54.5299 22.8377C54.5299 25.1084 55.2881 27.2017 56.5644 28.8793L48.0666 37.0681C46.7051 36.0139 44.9967 35.386 43.1415 35.386ZM71.8396 37.404C73.5589 37.404 74.9526 38.7978 74.9526 40.5169C74.9526 42.2362 73.5589 43.6299 71.8396 43.6299C70.1204 43.6299 68.7267 42.2362 68.7267 40.5169C68.7267 38.7978 70.1204 37.404 71.8396 37.404ZM77.6511 48.4047C76.8031 45.9829 74.4937 44.2877 71.8396 44.2877C69.1542 44.2877 66.8705 46.0072 66.0286 48.4054C64.8853 47.0693 64.1948 45.3341 64.1948 43.4375C64.1948 39.2153 67.6172 35.7927 71.8396 35.7927C76.0621 35.7927 79.4845 39.2151 79.4845 43.4375C79.4844 45.3338 78.7941 47.0687 77.6511 48.4047ZM64.5184 16.8045C66.2375 16.8045 67.6313 18.1983 67.6313 19.9174C67.6313 21.6367 66.2376 23.0304 64.5184 23.0304C62.7991 23.0304 61.4054 21.6367 61.4054 19.9174C61.4054 18.1981 62.7992 16.8045 64.5184 16.8045ZM70.3298 27.8052C69.4818 25.3833 67.1724 23.6882 64.5184 23.6882C61.8329 23.6882 59.5492 25.4077 58.7073 27.8059C57.564 26.4698 56.8735 24.7346 56.8735 22.838C56.8735 18.6158 60.2961 15.1932 64.5184 15.1932C68.7408 15.1932 72.1632 18.6156 72.1632 22.838C72.1632 24.7341 71.4729 26.4691 70.3298 27.8052ZM23.3062 16.5288C25.0254 16.5288 26.4191 17.9225 26.4191 19.6417C26.4191 21.361 25.0254 22.7547 23.3062 22.7547C21.5869 22.7547 20.1932 21.3609 20.1932 19.6417C20.1932 17.9225 21.587 16.5288 23.3062 16.5288ZM29.1176 27.5295C28.2696 25.1077 25.9602 23.4125 23.3062 23.4125C20.6207 23.4125 18.337 25.132 17.4951 27.5302C16.3518 26.1941 15.6613 24.4589 15.6613 22.5624C15.6613 18.3401 19.0837 14.9175 23.3062 14.9175C27.5286 14.9175 30.951 18.3399 30.951 22.5624C30.951 24.4584 30.2606 26.1934 29.1176 27.5295ZM24.972 60.7186C26.115 59.3825 26.8052 57.6476 26.8052 55.7513C26.8052 51.5289 23.3828 48.1064 19.1604 48.1064C14.9381 48.1064 11.5156 51.5291 11.5156 55.7513C11.5156 57.6479 12.2062 59.3831 13.3495 60.7192C14.1912 58.3209 16.475 56.6015 19.1605 56.6015C21.8145 56.6015 24.1238 58.2968 24.972 60.7186Z" fill="#2D6AFF"/>
</svg>
