<svg width="50" height="50" fill="none" xmlns="http://www.w3.org/2000/svg"><g clip-path="url(#clip0_216_464)" fill="#2D6AFF"><path d="M14.41 18.805l-.002.018v12.305c.041 5.538 21.143 5.538 21.184 0V18.813c-.07-5.523-21.097-5.522-21.183-.008zm19.717 8.221c0 1.102-3.556 2.702-9.127 2.702-5.572 0-9.127-1.6-9.127-2.702v-1.878c3.906 2.585 14.348 2.585 18.254 0v1.878zm0-4.101c0 1.101-3.556 2.701-9.127 2.701-5.572 0-9.127-1.6-9.127-2.701v-1.88c3.906 2.585 14.348 2.585 18.254 0v1.88zM25 33.829c-5.572 0-9.127-1.6-9.127-2.7v-1.88c3.906 2.585 14.348 2.585 18.254 0v1.88c0 1.1-3.556 2.7-9.127 2.7zm0-17.707c5.571 0 9.127 1.6 9.127 2.701s-3.556 2.7-9.127 2.7c-5.571 0-9.127-1.599-9.127-2.7 0-1.101 3.556-2.7 9.127-2.7z"/><path d="M28.049 39.845C11.685 42.938 2.88 21.68 16.635 12.312a.732.732 0 00-.809-1.222 16.777 16.777 0 00-2.064 1.611l-1.917-1.916c1.919-2.68-.084-6.551-3.404-6.52a4.155 4.155 0 00-4.15 4.151c-.032 3.32 3.839 5.324 6.519 3.405l1.915 1.916a16.595 16.595 0 00-4.348 10.506H6.261C5.327 20.63.09 21.206 0 24.976c.09 3.77 5.328 4.344 6.261.732h2.115a16.577 16.577 0 004.357 10.5L10.81 38.13c-2.68-1.918-6.552.084-6.52 3.405a4.155 4.155 0 004.15 4.15c3.321.032 5.324-3.84 3.406-6.52l1.922-1.922a16.577 16.577 0 0010.5 4.356v2.115c-3.613.934-3.037 6.172.732 6.262 3.77-.09 4.345-5.328.732-6.262V41.6c.88-.038 1.755-.144 2.61-.319a.733.733 0 00-.293-1.435zM5.755 8.416a2.689 2.689 0 012.686-2.685c3.557.135 3.557 5.236 0 5.37a2.689 2.689 0 01-2.686-2.685zM3.174 26.685a1.711 1.711 0 01-1.71-1.71c.087-2.264 3.333-2.263 3.419 0 0 .943-.767 1.71-1.71 1.71zM8.44 44.22a2.689 2.689 0 01-2.686-2.685c.135-3.558 5.237-3.557 5.371 0A2.689 2.689 0 018.44 44.22zm18.268 2.582c0 .942-.767 1.709-1.709 1.709-2.264-.086-2.264-3.333 0-3.418a1.71 1.71 0 011.709 1.709zm20.118-25a3.179 3.179 0 00-3.087 2.441h-2.115a16.578 16.578 0 00-4.356-10.499l1.922-1.923c2.68 1.919 6.552-.084 6.52-3.405a4.155 4.155 0 00-4.15-4.15c-3.321-.032-5.324 3.84-3.405 6.52l-1.923 1.922a16.577 16.577 0 00-10.5-4.356V6.286C29.347 5.352 28.77.114 25 .024c-3.77.09-4.345 5.328-.732 6.262V8.35c-1.81.078-3.576.446-5.262 1.097a.733.733 0 00.527 1.366c9.714-3.904 20.792 3.68 20.643 14.162 0 5.99-3.538 11.435-9.013 13.871a.732.732 0 10.596 1.339 16.608 16.608 0 004.478-2.937l1.917 1.917c-1.918 2.68.085 6.551 3.405 6.52a4.155 4.155 0 004.15-4.151c.032-3.32-3.839-5.324-6.519-3.405l-1.918-1.918a16.659 16.659 0 004.352-10.504h2.115c.934 3.613 6.171 3.036 6.261-.732a3.177 3.177 0 00-3.174-3.174zM41.56 5.73a2.689 2.689 0 012.686 2.685c-.135 3.558-5.236 3.557-5.371 0A2.689 2.689 0 0141.56 5.73zM23.291 3.198c0-.942.767-1.709 1.71-1.709 2.263.086 2.263 3.333 0 3.418a1.711 1.711 0 01-1.71-1.709zm20.954 38.337a2.689 2.689 0 01-2.685 2.685c-3.558-.135-3.557-5.236 0-5.37a2.689 2.689 0 012.685 2.685zm2.581-14.85a1.711 1.711 0 01-1.709-1.71c.086-2.264 3.333-2.263 3.418 0 0 .943-.766 1.71-1.709 1.71z"/></g><defs><clipPath id="clip0_216_464"><path fill="#fff" d="M0 0h50v50H0z"/></clipPath></defs></svg>