<svg width="49" height="49" fill="none" xmlns="http://www.w3.org/2000/svg"><g clip-path="url(#clip0_216_447)" fill="#2D6AFF"><path d="M20.417 32.667h8.166a2.45 2.45 0 002.45-2.45v-7.35a2.45 2.45 0 00-2.45-2.45v-1.634a4.083 4.083 0 00-8.166 0v1.634a2.45 2.45 0 00-2.45 2.45v7.35a2.45 2.45 0 002.45 2.45zm1.633-13.884a2.45 2.45 0 114.9 0v1.634h-4.9v-1.634zm-2.45 4.084c0-.451.366-.817.817-.817h8.166c.452 0 .817.366.817.817v7.35a.817.817 0 01-.816.817h-8.167a.817.817 0 01-.817-.817v-7.35z"/><path d="M23.683 28.433v.15a.817.817 0 101.634 0v-.15a2.45 2.45 0 10-1.634 0zm.817-3.116a.817.817 0 110 1.633.817.817 0 010-1.633z"/><path d="M10.617 24.5c0 7.668 6.215 13.883 13.883 13.883 7.668 0 13.883-6.215 13.883-13.883 0-7.668-6.215-13.883-13.883-13.883-7.664.008-13.875 6.219-13.883 13.883zM24.5 12.25c6.765 0 12.25 5.485 12.25 12.25S31.265 36.75 24.5 36.75 12.25 31.265 12.25 24.5c.008-6.762 5.488-12.242 12.25-12.25zm16.334 30.217a3.267 3.267 0 00-3.151 2.45H31.85V39.98a17.066 17.066 0 004.9-3.475.817.817 0 10-1.166-1.143 15.484 15.484 0 01-4.849 3.352.8.8 0 00-.289.197c-.009.01-.014.023-.023.034a.807.807 0 00-.142.225.784.784 0 00-.032.157.759.759 0 00-.032.143v5.447c0 .902.731 1.633 1.633 1.633h5.833a3.26 3.26 0 103.15-4.083zm0 4.9a1.633 1.633 0 110-3.267 1.633 1.633 0 010 3.267zM6.417 33.484h3.947c.006 0 .012-.004.02-.004a.783.783 0 00.237-.049.82.82 0 00.11-.045c.01-.005.02-.007.03-.013.008-.005.022-.022.035-.031a.765.765 0 00.34-.456c0-.012.004-.025.007-.037a.775.775 0 00.037-.182.696.696 0 00-.019-.091c0-.011 0-.02-.005-.032a.793.793 0 00-.093-.273l-.004-.013a15.383 15.383 0 01-1.765-4.655.817.817 0 00-1.601.326A17.022 17.022 0 009 31.85H6.417a3.267 3.267 0 100 1.635zm-3.15.816a1.633 1.633 0 110-3.266 1.633 1.633 0 010 3.266z"/><path d="M0 16.333a3.26 3.26 0 006.417.817h3.969a.84.84 0 00.236-.048.712.712 0 00.227-.124.769.769 0 00.176-.187c.01-.016.024-.027.034-.044a15.49 15.49 0 014.131-4.66.817.817 0 00-.98-1.307 17.126 17.126 0 00-4.301 4.737H6.417A3.26 3.26 0 000 16.333zm4.9 0a1.633 1.633 0 11-3.267 0 1.633 1.633 0 013.267 0zM45.733 29.4a3.267 3.267 0 00-3.15 2.45h-2.584a16.96 16.96 0 001.307-3.92.817.817 0 00-1.601-.326 15.38 15.38 0 01-1.764 4.655v.01a.791.791 0 00-.095.28c0 .009 0 .017-.006.026a.91.91 0 00-.02.092.808.808 0 00.037.189.782.782 0 00.127.277l.024.036a.792.792 0 00.196.173c.013.009.02.023.035.03.014.009.02.008.028.013a.749.749 0 00.113.047.817.817 0 00.236.047c.007 0 .013.004.02.004h3.947a3.26 3.26 0 103.15-4.083zm0 4.9a1.633 1.633 0 110-3.266 1.633 1.633 0 010 3.266zm-26.95 5.184v-.014a.824.824 0 00-.027-.136.85.85 0 00-.033-.163.8.8 0 00-.14-.221c-.011-.013-.016-.027-.027-.039a.805.805 0 00-.29-.197 15.645 15.645 0 01-5.558-4.127.817.817 0 10-1.24 1.062 17.28 17.28 0 005.682 4.343v4.925h-5.833a3.267 3.267 0 100 1.633h5.833c.902 0 1.633-.731 1.633-1.633v-5.433zM8.167 47.367a1.633 1.633 0 110-3.267 1.633 1.633 0 010 3.267zm19.436-7.66a15.76 15.76 0 01-6.206 0 .817.817 0 10-.327 1.6c.862.167 1.736.268 2.613.303v6.574a.817.817 0 101.634 0V41.61a17.218 17.218 0 002.613-.303.817.817 0 00-.327-1.6zM17.15 2.45h-5.833a3.267 3.267 0 100 1.634h5.833v5.448c0 .033.015.065.02.098.008.084.03.167.064.245a.766.766 0 00.223.28.84.84 0 00.246.14c.058.019.119.03.18.036a.708.708 0 00.081.017.807.807 0 00.337-.081 15.49 15.49 0 013.096-.972.817.817 0 00-.327-1.602c-.776.16-1.54.372-2.287.637V4.084c0-.902-.731-1.634-1.633-1.634zM8.167 4.9a1.633 1.633 0 110-3.266 1.633 1.633 0 010 3.266zm29.516-.816a3.267 3.267 0 100-1.634H31.85c-.902 0-1.633.732-1.633 1.634V9.53a.749.749 0 00.028.142.777.777 0 00.032.158.808.808 0 00.143.224c.01.01.014.025.023.034a.8.8 0 00.29.197 15.485 15.485 0 014.848 3.349.817.817 0 101.17-1.139 17.068 17.068 0 00-4.9-3.475V4.084h5.832zm3.15-2.45a1.633 1.633 0 110 3.266 1.633 1.633 0 010-3.266zM24.5 0a.817.817 0 00-.816.817v7.35c0 .45.365.816.816.816 1.043 0 2.082.104 3.104.31a.817.817 0 00.327-1.6 17.2 17.2 0 00-2.614-.302V.817A.817.817 0 0024.5 0zm18.083 17.15a3.267 3.267 0 100-1.633h-3.947c-.015 0-.027.008-.042.008a.755.755 0 00-.14.029.784.784 0 00-.193.065c-.007 0-.015 0-.022.008a.2.2 0 01-.035.031.792.792 0 00-.196.174c-.01.011-.016.023-.024.035a.782.782 0 00-.12.245c0 .011 0 .022-.007.032a.807.807 0 00-.037.19c.004.031.01.062.018.093 0 .009.004.017.005.026a.79.79 0 00.095.28v.01a15.506 15.506 0 012.079 7.758c0 .45.365.816.816.816h7.35a.817.817 0 100-1.633h-6.56a17.14 17.14 0 00-1.633-6.534h2.593zm3.15-2.45a1.633 1.633 0 110 3.267 1.633 1.633 0 010-3.266zM.817 25.317h7.35a.817.817 0 00.816-.817c-.001-1.65.26-3.29.775-4.857a.817.817 0 00-1.551-.51 17.104 17.104 0 00-.825 4.55H.817a.817.817 0 000 1.634z"/></g><defs><clipPath id="clip0_216_447"><path fill="#fff" d="M0 0h49v49H0z"/></clipPath></defs></svg>