<svg width="50" height="51" fill="none" xmlns="http://www.w3.org/2000/svg"><path d="M33.856 41.412a1.335 1.335 0 001.889 0l6.53-6.531a1.336 1.336 0 00-1.888-1.889L34.8 38.578l-2.321-2.321a1.336 1.336 0 00-1.89 1.889l3.267 3.266zm6.209-39.141a1.339 1.339 0 00-1.017-.17c-3.922.908-8 .908-11.923-.001A27.184 27.184 0 0121.523.132a1.339 1.339 0 00-1.159 0 27.078 27.078 0 01-5.6 1.968 26.4 26.4 0 01-11.915 0 1.342 1.342 0 00-1.61 1.013c-3.453 15.667.452 30.867 9.948 38.725a24.342 24.342 0 009.326 4.777 1.336 1.336 0 00.684-2.583C5.65 39.396.467 22.704 3.58 4.982c3.907.711 7.918.616 11.787-.28a29.7 29.7 0 005.576-1.891 29.937 29.937 0 005.577 1.891 29.15 29.15 0 0011.795.279 46.75 46.75 0 01.542 14.877 1.336 1.336 0 002.65.342 49.788 49.788 0 00-.85-17.086 1.335 1.335 0 00-.592-.843z" fill="#2D6AFF"/><path d="M22.87 37.201a13.579 13.579 0 0013.563 13.564c17.994-.745 17.99-26.385 0-27.127A13.578 13.578 0 0022.87 37.201zm24.455 0a10.905 10.905 0 01-10.892 10.892c-14.448-.598-14.445-21.187 0-21.783a10.903 10.903 0 0110.892 10.891z" fill="#2D6AFF"/></svg>