<svg width="57" height="57" fill="none" xmlns="http://www.w3.org/2000/svg"><g clip-path="url(#clip0_216_409)" fill="#2D6AFF"><path d="M15.14 18.703h1.782v1.781H15.14v-1.78zm7.126 0h1.78v1.781h-1.78v-1.78zm-3.563 0h1.781v1.781h-1.78v-1.78zm1.781-7.125h1.782v1.781h-1.782v-1.78zm7.126 0h1.78v1.781h-1.78v-1.78zm-3.563 0h1.781v1.781h-1.781v-1.78zM15.14 4.453h1.782v1.781H15.14v-1.78zm3.563 0h1.781v1.781h-1.78v-1.78zm3.563 0h1.78v1.781h-1.78v-1.78z"/><path d="M54.741 48.138L40.97 34.366l-.89.89-3.057-3.056a17.71 17.71 0 003.056-9.934c0-5.584-2.658-10.861-7.125-14.224v-4.48a2.675 2.675 0 00-2.673-2.67H14.25a2.675 2.675 0 00-2.672 2.671v4.48c-4.467 3.363-7.125 8.64-7.125 14.224 0 3.33.958 6.588 2.701 9.395a2.679 2.679 0 00-1.452.743l-1.797 1.798a2.697 2.697 0 00-.4 3.298.92.92 0 01.045.834.92.92 0 01-.631.536A2.69 2.69 0 00.89 41.48v2.54c0 1.233.834 2.306 2.049 2.616.265.067.48.248.598.498l.02.052a.92.92 0 01-.063.834 2.69 2.69 0 00.41 3.28l1.798 1.797a2.696 2.696 0 003.298.4.918.918 0 01.834-.045l.014.005c.26.114.447.334.522.626a2.689 2.689 0 002.608 2.026h2.542a2.698 2.698 0 002.615-2.049.902.902 0 01.498-.598l.052-.02a.92.92 0 01.834.063 2.69 2.69 0 003.28-.41l1.797-1.798a2.697 2.697 0 00.4-3.298.92.92 0 01-.045-.834l.005-.014a.914.914 0 01.626-.522 2.689 2.689 0 002.026-2.608v-2.542a2.68 2.68 0 00-.89-1.995 17.676 17.676 0 005.486-2.457l3.051 3.051-.89.89 13.773 13.775a4.643 4.643 0 003.302 1.366 4.675 4.675 0 004.668-4.668 4.64 4.64 0 00-1.368-3.303zM38.297 22.266c0 7.86-5.726 14.524-13.416 15.789a.93.93 0 01.125-.573c.248-.417.367-.877.374-1.336 6.502-1.442 11.136-7.134 11.136-13.88 0-3.464-1.27-6.778-3.563-9.386v-2.539c3.372 3.026 5.344 7.363 5.344 11.925zm-26.15 7.26a12.304 12.304 0 01-2.35-7.26c0-2.27.626-4.465 1.781-6.385v5.494a2.675 2.675 0 002.672 2.672h16.031a2.675 2.675 0 002.672-2.672V15.88a12.367 12.367 0 011.781 6.386c0 5.967-4.145 10.99-9.933 12.18-.066-.083-.13-.168-.206-.244l-1.798-1.797a2.696 2.696 0 00-3.297-.4.934.934 0 01-.835.045l-.014-.005a.914.914 0 01-.522-.626 2.688 2.688 0 00-2.608-2.028h-2.542c-.29 0-.568.05-.833.136zm1.212-12.604h17.813v4.453c0 .492-.4.89-.89.89H14.25a.89.89 0 01-.89-.89v-4.453zm17.813-1.781H13.359V9.797h17.813v5.344zM14.25 2.67h16.031c.492 0 .89.4.89.892v4.453H13.36V3.562a.89.89 0 01.891-.89zm-2.672 7.67v2.54c-2.293 2.608-3.562 5.922-3.562 9.385 0 2.991.966 5.919 2.716 8.34-.164.249-.29.53-.367.834a.902.902 0 01-.499.598l-.05.02a.886.886 0 01-.185.053 16.05 16.05 0 01-3.397-9.845c0-4.562 1.972-8.9 5.344-11.925zm14.25 33.68c0 .417-.282.78-.706.889a2.702 2.702 0 00-1.817 1.57l-.022.057a2.707 2.707 0 00.192 2.391.912.912 0 01-.139 1.11l-1.797 1.798a.917.917 0 01-1.128.13 2.7 2.7 0 00-2.374-.182l-.057.022a2.715 2.715 0 00-1.576 1.836.912.912 0 01-.883.686h-2.542a.919.919 0 01-.889-.706 2.702 2.702 0 00-1.57-1.817l-.057-.022a2.699 2.699 0 00-2.391.192.91.91 0 01-1.11-.139L5.163 50.04a.917.917 0 01-.13-1.128c.426-.715.493-1.6.182-2.374l-.022-.057a2.715 2.715 0 00-1.836-1.576.912.912 0 01-.686-.883V41.48c0-.417.282-.78.706-.889A2.703 2.703 0 005.2 39.006a2.705 2.705 0 00-.174-2.433.912.912 0 01.139-1.111l1.797-1.797a.918.918 0 011.128-.13c.727.433 1.63.494 2.332.195l.099-.035a2.715 2.715 0 001.575-1.837.91.91 0 01.883-.686h2.542c.417 0 .78.282.889.706a2.706 2.706 0 001.585 1.822c.784.33 1.688.27 2.432-.174a.913.913 0 011.111.139l1.797 1.797a.917.917 0 01.13 1.127 2.705 2.705 0 00-.16 2.431 2.707 2.707 0 001.837 1.576.91.91 0 01.686.883v2.542zm7.813-8.077a17.917 17.917 0 002.302-2.304l2.876 2.876-2.303 2.303-2.875-2.875zm17.8 18.384c-.77 0-1.497-.3-2.043-.845L36.885 40.969l4.085-4.085 12.513 12.514a2.89 2.89 0 01-2.041 4.93z"/><path d="M14.25 34.734c-4.42 0-8.016 3.596-8.016 8.016s3.596 8.016 8.016 8.016 8.016-3.596 8.016-8.016-3.596-8.016-8.016-8.016zm0 14.25a6.242 6.242 0 01-6.234-6.234 6.242 6.242 0 016.234-6.234 6.242 6.242 0 016.234 6.234 6.242 6.242 0 01-6.234 6.234z"/><path d="M12.469 44.162l-1.152-1.151-1.26 1.26 2.412 2.41 5.973-5.973-1.26-1.26-4.713 4.714zm39.187 8.385a.89.89 0 100-1.782.89.89 0 000 1.782zM44.531 8.906h1.782v1.781H44.53v-1.78zm0 3.563h1.782v1.781H44.53v-1.781zm1.782-1.781h1.78v1.78h-1.78v-1.78zm-3.563 0h1.781v1.78H42.75v-1.78zm8.016-8.016h1.78v1.781h-1.78V2.672zm0 3.562h1.78v1.782h-1.78V6.234zm1.781-1.781h1.781v1.781h-1.781v-1.78zm-3.563 0h1.782v1.781h-1.782v-1.78zm.891 21.375h1.781v1.781h-1.781v-1.78zm0 3.562h1.781v1.782h-1.781V29.39zm1.781-1.78h1.782v1.78h-1.782v-1.78zm-3.562 0h1.781v1.78h-1.781v-1.78zM30.281 47.203h1.782v1.781H30.28v-1.78zm0 3.563h1.782v1.78H30.28v-1.78zm1.782-1.782h1.78v1.782h-1.78v-1.782zm-3.563 0h1.781v1.782H28.5v-1.782z"/></g><defs><clipPath id="clip0_216_409"><path fill="#fff" d="M0 0h57v57H0z"/></clipPath></defs></svg>