<svg width="63" height="63" fill="none" xmlns="http://www.w3.org/2000/svg"><path d="M13.636 37.214l2.945.527c.303 1.03.706 2.027 1.206 2.98l-1.663 2.4c-.29.419-.281.976.023 1.385a19.321 19.321 0 004.39 4.282c.415.292.97.288 1.382-.008l2.205-1.595c.918.509 1.884.918 2.886 1.223l.453 2.627c.086.502.482.892.985.972a19.8 19.8 0 003.09.242c1.015 0 2.033-.082 3.025-.243.5-.081.894-.471.98-.971l.453-2.626c1-.304 1.967-.714 2.89-1.225l2.227 1.598c.41.293.96.297 1.374.009a18.994 18.994 0 004.383-4.262c.304-.409.314-.966.024-1.385l-1.674-2.423c.499-.952.902-1.95 1.205-2.98l2.946-.527a1.19 1.19 0 00.965-.983 19.09 19.09 0 00.242-3.022c0-1.036-.082-2.076-.242-3.09a1.19 1.19 0 00-.972-.985l-2.932-.506a15.675 15.675 0 00-1.213-2.99l1.653-2.4c.287-.415.28-.966-.018-1.374a18.836 18.836 0 00-4.385-4.29 1.19 1.19 0 00-1.382.008l-2.208 1.597a15.132 15.132 0 00-2.882-1.215l-.453-2.648a1.19 1.19 0 00-.981-.972c-2.057-.335-4.252-.32-6.143.026a1.19 1.19 0 00-.957.968l-.453 2.627c-.997.303-1.962.71-2.885 1.215l-2.198-1.578a1.19 1.19 0 00-1.382-.003 19.604 19.604 0 00-4.386 4.278 1.19 1.19 0 00-.022 1.388l1.65 2.375c-.518.98-.924 1.98-1.213 2.989l-2.91.505a1.19 1.19 0 00-.966.958 17.484 17.484 0 00-.269 3.117c0 1.005.079 1.993.242 3.021.08.5.467.895.965.984zm1.279-5.884l2.822-.49c.473-.083.85-.44.956-.909.287-1.265.797-2.53 1.517-3.76a1.19 1.19 0 00-.049-1.279L18.59 22.63a17.205 17.205 0 012.658-2.588l2.117 1.52a1.19 1.19 0 001.317.046 12.854 12.854 0 013.659-1.543c.458-.114.805-.487.885-.952l.435-2.525a16.515 16.515 0 013.687-.01l.434 2.534c.08.466.428.84.888.953a12.78 12.78 0 013.656 1.543c.41.252.93.233 1.32-.049l2.13-1.54a16.48 16.48 0 012.648 2.585l-1.58 2.293c-.262.38-.28.877-.047 1.275.72 1.23 1.231 2.495 1.517 3.76.106.468.484.827.957.909l2.829.488c.067.623.101 1.252.101 1.88 0 .607-.033 1.208-.1 1.819l-2.837.507a1.189 1.189 0 00-.946.89 13.943 13.943 0 01-1.521 3.767c-.235.4-.215.901.052 1.282l1.593 2.303a16.601 16.601 0 01-2.643 2.571l-2.156-1.546a1.192 1.192 0 00-1.324-.042 12.494 12.494 0 01-3.649 1.55 1.188 1.188 0 00-.887.952l-.433 2.512c-1.222.133-2.47.129-3.692-.003l-.432-2.509a1.189 1.189 0 00-.885-.952 12.564 12.564 0 01-3.652-1.55 1.188 1.188 0 00-1.327.044l-2.13 1.54a16.97 16.97 0 01-2.654-2.588l1.582-2.282c.266-.381.287-.881.052-1.282a13.958 13.958 0 01-1.522-3.767 1.189 1.189 0 00-.946-.89l-2.836-.507a16.372 16.372 0 01.008-3.697z" fill="#000"/><path d="M31.503 42.902c5.364 0 9.728-4.363 9.728-9.727 0-5.363-4.364-9.727-9.728-9.727s-9.727 4.364-9.727 9.727c0 5.364 4.363 9.727 9.727 9.727zm0-17.077c4.053 0 7.35 3.297 7.35 7.35 0 4.053-3.297 7.35-7.35 7.35-4.052 0-7.35-3.297-7.35-7.35 0-4.053 3.298-7.35 7.35-7.35z" fill="#000"/><path d="M27.052 59.612c10.938 1.936 21.752-3.08 27.505-12.072l.426 1.992a1.19 1.19 0 002.326-.496l-1.082-5.059a1.19 1.19 0 00-1.411-.914l-5.047 1.08a1.19 1.19 0 00.497 2.324l2.496-.533c-5.247 8.494-15.297 13.105-25.295 11.337a24.704 24.704 0 01-11.083-5.007 1.188 1.188 0 10-1.485 1.856 27.079 27.079 0 0012.153 5.492zm7.222-56.226a1.187 1.187 0 00-1.677-.12l-3.514 3.042c-.497.43-.55 1.18-.12 1.676l3.034 3.507a1.188 1.188 0 101.797-1.556l-1.383-1.598a24.7 24.7 0 013.673.362c13.067 2.318 22.074 14.872 20.078 27.985a1.189 1.189 0 002.35.358C60.87 21.553 49.232 6.782 33.1 5.975l1.054-.912c.497-.43.55-1.18.12-1.677zM5.086 47.447l5.034 1.25c.68.173 1.279-.278 1.43-.85.08-.307-.254 1.034 1.254-5.036a1.19 1.19 0 00-2.308-.573l-.547 2.204A24.496 24.496 0 017.49 28.677C9 20.163 14.717 13.189 22.781 10.018a1.188 1.188 0 10-.87-2.212C13.072 11.28 6.806 18.928 5.15 28.26A26.866 26.866 0 007.92 45.7l-2.26-.562a1.188 1.188 0 10-.574 2.308z" fill="#2D6AFF"/></svg>