<svg width="63" height="63" fill="none" xmlns="http://www.w3.org/2000/svg"><path d="M60.493 11.408v-.2h-28.1V8.901h29.254c.636 0 1.153.517 1.153 1.154v30.09c0 .422-.231.811-.603 1.013h0a1.152 1.152 0 01-1.18-.047l-9.28-6.035-.05-.033H40.565a1.154 1.154 0 01-1.153-1.153v-7.17H2.507v27.088l.31-.201 7.525-4.894s0 0 0 0c.187-.122.406-.187.629-.187h22.878v2.307H11.312l-.049.032-9.28 6.036a1.153 1.153 0 01-1.18.047l-.095.176.095-.176A1.153 1.153 0 01.2 55.934V25.566c0-.637.516-1.153 1.154-1.153h39.211c.637 0 1.154.516 1.154 1.153v7.17h10.31c.223 0 .442.065.629.187l.11-.168-.11.168 7.526 4.894.309.201V11.41z" fill="#000" stroke="#fff" stroke-width=".4"/><path d="M48.587 60.011c-.217 0-.433-.052-.632-.156l-7.408-3.909-7.42 3.887a1.353 1.353 0 01-1.961-1.43l1.427-8.253-5.989-5.855a1.353 1.353 0 01.754-2.308l8.29-1.192 3.718-7.506a1.354 1.354 0 011.213-.753h.002c.515 0 .985.294 1.212.756l3.697 7.517 8.287 1.216a1.353 1.353 0 01.746 2.31l-6.006 5.838 1.404 8.257a1.354 1.354 0 01-1.334 1.581zm-8.038-6.948c.217 0 .434.053.632.157l5.612 2.96-1.064-6.255a1.353 1.353 0 01.391-1.197l4.55-4.423-6.278-.921a1.353 1.353 0 01-1.018-.742l-2.8-5.694-2.816 5.686c-.198.4-.58.675-1.02.739l-6.28.903 4.537 4.436c.318.311.463.76.387 1.198l-1.081 6.252 5.62-2.944c.197-.103.413-.155.628-.155zM20.926 24.21a1.35 1.35 0 01-.877-.324l-9.183-7.816c-2.335-1.964-3.151-4.99-2.126-7.894 1.09-3.085 3.878-5.12 7.102-5.184A7.752 7.752 0 0120.926 4.7a7.763 7.763 0 015.093-1.71c3.215.065 6.003 2.1 7.093 5.187 1.027 2.907.21 5.938-2.135 7.909l-9.174 7.8a1.35 1.35 0 01-.877.322zM16.048 5.695a5.05 5.05 0 00-4.755 3.382c-.65 1.841-.156 3.682 1.322 4.926l8.312 7.075 8.2-6.972c.037-.032.075-.061.111-.089l-.003-.003c1.482-1.245 1.977-3.09 1.325-4.936-.71-2.012-2.518-3.339-4.604-3.38a5.06 5.06 0 00-4.002 1.761 1.354 1.354 0 01-2.055 0 5.05 5.05 0 00-3.851-1.764z" fill="#2D6AFF"/></svg>