<svg width="64" height="64" fill="none" xmlns="http://www.w3.org/2000/svg"><g clip-path="url(#clip0_32_303)"><path d="M54.537 29.493a1.37 1.37 0 00-1.37 1.37v2.187c0 .618-.503 1.12-1.12 1.12H34.49c-.39 0-.766.058-1.12.166V22.77a1.37 1.37 0 00-2.74 0v11.568a3.85 3.85 0 00-1.12-.167H11.953a1.12 1.12 0 01-1.12-1.12v-2.188a1.37 1.37 0 00-2.74 0v2.188a3.864 3.864 0 003.86 3.86H29.51c.618 0 1.12.502 1.12 1.12v2.188a1.37 1.37 0 102.74 0V38.03c0-.618.502-1.12 1.12-1.12h17.556a3.864 3.864 0 003.86-3.86v-2.188a1.37 1.37 0 00-1.37-1.37z" fill="#000"/><path d="M32 24.139a1.37 1.37 0 01-1.032-.47c-.225-.258-.466-.531-.719-.818-3.071-3.485-7.712-8.75-7.712-13.388C22.537 4.245 26.782 0 32 0c5.218 0 9.463 4.245 9.463 9.463 0 4.637-4.64 9.903-7.712 13.388-.253.287-.494.56-.719.818a1.37 1.37 0 01-1.032.47zm0-21.4a6.731 6.731 0 00-6.724 6.724c0 3.467 4.075 8.22 6.724 11.232 2.65-3.012 6.724-7.765 6.724-11.232A6.731 6.731 0 0032 2.739z" fill="#2D6AFF"/><path d="M32 13.723a4.265 4.265 0 01-4.26-4.26c0-2.35 1.911-4.26 4.26-4.26a4.265 4.265 0 014.26 4.26 4.265 4.265 0 01-4.26 4.26zm0-5.781c-.838 0-1.52.682-1.52 1.521a1.521 1.521 0 003.041 0c0-.839-.682-1.52-1.52-1.52z" fill="#000"/><path d="M9.463 32.232a1.37 1.37 0 01-1.032-.47c-.225-.258-.466-.531-.72-.818C4.641 27.459 0 22.194 0 17.556c0-5.218 4.245-9.463 9.463-9.463 5.218 0 9.463 4.245 9.463 9.463 0 4.637-4.64 9.903-7.712 13.388-.253.287-.494.56-.719.818-.26.299-.636.47-1.032.47zm0-21.4a6.731 6.731 0 00-6.724 6.724c0 3.467 4.075 8.22 6.724 11.232 2.65-3.011 6.724-7.765 6.724-11.232a6.731 6.731 0 00-6.724-6.723z" fill="#2D6AFF"/><path d="M9.463 21.817a4.265 4.265 0 01-4.26-4.26 4.265 4.265 0 014.26-4.26 4.265 4.265 0 014.26 4.26 4.265 4.265 0 01-4.26 4.26zm0-5.782a1.521 1.521 0 000 3.042 1.521 1.521 0 000-3.042z" fill="#000"/><path d="M54.537 32.232a1.37 1.37 0 01-1.032-.47l-.72-.818c-3.07-3.485-7.711-8.75-7.711-13.388 0-5.218 4.245-9.463 9.463-9.463 5.218 0 9.463 4.245 9.463 9.463 0 4.637-4.64 9.903-7.711 13.388-.254.287-.495.56-.72.819a1.37 1.37 0 01-1.032.469zm0-21.4a6.731 6.731 0 00-6.724 6.724c0 3.467 4.075 8.22 6.724 11.232 2.65-3.011 6.724-7.765 6.724-11.232a6.731 6.731 0 00-6.724-6.723z" fill="#2D6AFF"/><path d="M54.537 21.817a4.265 4.265 0 01-4.26-4.26 4.265 4.265 0 014.26-4.26 4.265 4.265 0 014.26 4.26 4.265 4.265 0 01-4.26 4.26zm0-5.782a1.521 1.521 0 000 3.042 1.521 1.521 0 000-3.042z" fill="#000"/><path d="M42.377 64c-.132 0-.265-.019-.395-.058L32 60.938l-9.982 3.004a1.37 1.37 0 01-1.638-1.887l10.377-22.413a1.37 1.37 0 012.486 0L43.62 62.055A1.37 1.37 0 0142.377 64zM32 58.138c.133 0 .266.02.395.058l7.459 2.245L32 43.478 24.146 60.44l7.46-2.245c.128-.039.261-.058.394-.058z" fill="#2D6AFF"/></g><defs><clipPath id="clip0_32_303"><path fill="#fff" d="M0 0h64v64H0z"/></clipPath></defs></svg>