<svg width="50" height="50" fill="none" xmlns="http://www.w3.org/2000/svg"><g clip-path="url(#clip0_32_359)"><path d="M35.391 26.838a1.07 1.07 0 01-.76-.314l-3.066-3.068a1.075 1.075 0 01-.315-.76v-3.244a1.074 1.074 0 012.148 0v2.8l2.753 2.753c.677.673.183 1.84-.76 1.833z" fill="#000"/><path d="M5.487 38.953c-1.353 0-2.046-.189-2.197-.236l.637-2.052-.015-.004c.03.008 3.072.807 10.356-1.611 2.873-.954 5.52-1.04 8.093-.263a1.074 1.074 0 01-.62 2.057c-2.135-.645-4.358-.564-6.796.245-4.57 1.517-7.622 1.864-9.458 1.864z" fill="#2D6AFF"/><path d="M36.862 5.667V2.148h1.589a1.074 1.074 0 100-2.148H26.246a1.074 1.074 0 000 2.148h1.588v3.519a17.647 17.647 0 00-6.406 3.197H1.114a1.074 1.074 0 000 2.148h1.42v10.16c-.027 3.27 1.687 6.46 4.399 8.26-2.712 1.8-4.426 4.989-4.399 8.259v10.16h-1.42c-1.417.054-1.432 2.088 0 2.149H28.11c1.418-.054 1.433-2.088 0-2.148h-1.42v-8.313a17.63 17.63 0 005.658.928c20.793-.532 24.276-29.128 4.514-34.8zm-6.88-3.519h4.732v3.093a17.79 17.79 0 00-4.731 0V2.148zm-5.44 45.704H4.681V37.69a7.759 7.759 0 014.943-7.26 1.074 1.074 0 000-1.998 7.759 7.759 0 01-4.942-7.26v-10.16h14.462c-7.83 8.53-4.92 22.734 5.396 27.635v9.204zm7.806-9.534c-8.57 0-15.543-6.973-15.543-15.544.854-20.62 30.236-20.615 31.087 0 0 8.571-6.973 15.544-15.544 15.544z" fill="#000"/><path d="M33.34 11.708c-.27-.696-1.236-.887-1.752-.349-.672.671-.19 1.836.76 1.834.745.017 1.294-.802.992-1.485zm0 21.311c-.275-.698-1.229-.887-1.751-.349-.672.67-.19 1.837.76 1.834.745.017 1.293-.803.992-1.485zM22.685 22.363c-.272-.699-1.231-.884-1.75-.348-.674.67-.191 1.836.758 1.834.75.013 1.293-.798.992-1.486zm21.371.201c-.133-.738-1.033-1.109-1.65-.683-.79.524-.545 1.765.388 1.946.732.162 1.422-.531 1.262-1.263zM23.96 15.65c.274.7 1.23.889 1.752.349.604-.591.281-1.657-.55-1.813-.83-.173-1.536.686-1.202 1.464zm17.052 14.248c-.267-.697-1.235-.886-1.75-.35-.673.67-.19 1.838.76 1.835.747.013 1.293-.799.99-1.485zm-15.068 0c-.272-.698-1.232-.888-1.75-.35-.674.67-.191 1.836.758 1.835.745.016 1.296-.803.992-1.485zm13.085-14.247c.267.697 1.237.887 1.75.349.606-.591.283-1.658-.549-1.813-.826-.176-1.537.688-1.201 1.464z" fill="#2D6AFF"/></g><defs><clipPath id="clip0_32_359"><path fill="#fff" d="M0 0h50v50H0z"/></clipPath></defs></svg>