<svg width="70" height="70" fill="none" xmlns="http://www.w3.org/2000/svg"><path d="M60.156 44.79a1.095 1.095 0 01-.59-2.012 13.073 13.073 0 006.059-11.06c0-7.24-5.884-13.124-13.125-13.124-.995 0-2.002.12-3.063.372-.317.076-.645 0-.907-.186a1.103 1.103 0 01-.438-.82c-.339-7-6.081-12.491-13.092-12.491-7.01 0-12.753 5.49-13.092 12.49a1.064 1.064 0 01-.438.82c-.262.198-.59.263-.907.187a13.16 13.16 0 00-3.063-.372c-7.24 0-13.125 5.884-13.125 13.125 0 4.495 2.264 8.63 6.06 11.058.502.328.656 1.006.327 1.509a1.095 1.095 0 01-1.509.328A15.242 15.242 0 012.187 31.72c0-8.444 6.87-15.313 15.313-15.313.777 0 1.542.066 2.33.186.984-7.558 7.415-13.31 15.17-13.31s14.186 5.752 15.17 13.31a14.121 14.121 0 012.33-.186c8.444 0 15.313 6.869 15.313 15.313 0 5.239-2.647 10.062-7.066 12.895-.186.12-.383.175-.59.175z" fill="#2D6AFF"/><path d="M51.406 31.719H18.594a5.47 5.47 0 00-5.469 5.468V61.25a5.47 5.47 0 005.469 5.469h32.812a5.47 5.47 0 005.469-5.469V37.187a5.47 5.47 0 00-5.469-5.468zm3.282 29.531a3.29 3.29 0 01-3.282 3.281H18.594a3.29 3.29 0 01-3.282-3.281V37.187a3.291 3.291 0 013.282-3.28h32.812a3.291 3.291 0 013.282 3.28V61.25z" fill="#0A0F26"/><path d="M39.375 41.563h-5.469c-.601 0-1.093.492-1.093 1.093v13.125c0 .602.492 1.094 1.093 1.094.602 0 1.094-.492 1.094-1.094v-5.468h4.375a4.374 4.374 0 004.375-4.376 4.374 4.374 0 00-4.375-4.374zm0 6.562H35V43.75h4.375c1.203 0 2.188.984 2.188 2.188a2.194 2.194 0 01-2.188 2.187zm7.656-6.562c-.601 0-1.093.492-1.093 1.093v13.125c0 .602.492 1.094 1.093 1.094.602 0 1.094-.492 1.094-1.094V42.656c0-.601-.492-1.093-1.094-1.093zm-20.836.743a1.094 1.094 0 00-1.039-.743c-.47 0-.886.306-1.039.743l-4.375 13.125c-.186.569.12 1.192.69 1.378a1.08 1.08 0 001.377-.689l1.575-4.725h3.533l1.575 4.725c.153.46.58.744 1.04.744.109 0 .229-.022.35-.055.568-.186.885-.809.688-1.378l-4.375-13.125zm-2.067 6.913l1.04-3.107 1.038 3.107H24.13z" fill="#0A0F26"/></svg>