<svg width="58" height="58" fill="none" xmlns="http://www.w3.org/2000/svg"><path d="M48.333 18.125H9.667a2.42 2.42 0 01-2.417-2.417V6.042a2.42 2.42 0 012.417-2.417h38.666a2.42 2.42 0 012.417 2.417v9.666a2.42 2.42 0 01-2.417 2.417zM9.667 6.042v9.666h38.668l-.002-9.666H9.667z" fill="#232323"/><path d="M45.917 25.375H12.083a1.208 1.208 0 01-1.208-1.208v-7.25a1.208 1.208 0 011.208-1.209h33.834a1.208 1.208 0 011.208 1.209v7.25a1.208 1.208 0 01-1.208 1.208zm-32.625-2.417h31.416v-4.833H13.292v4.833z" fill="#232323"/><path d="M48.333 37.458H9.667a2.42 2.42 0 01-2.417-2.416v-9.667a2.42 2.42 0 012.417-2.417h38.666a2.419 2.419 0 012.417 2.417v9.667a2.419 2.419 0 01-2.417 2.416zM9.667 25.375v9.667h38.668l-.002-9.667H9.667zm19.333 29a4.833 4.833 0 110-9.667 4.833 4.833 0 010 9.667zm0-7.25a2.417 2.417 0 100 4.834 2.417 2.417 0 000-4.834zM12.083 53.77a4.23 4.23 0 110-8.458 4.23 4.23 0 010 8.459zm0-6.04a1.813 1.813 0 100 3.625 1.813 1.813 0 000-3.626zm33.834 6.04a4.23 4.23 0 110-8.457 4.23 4.23 0 010 8.458zm0-6.04a1.813 1.813 0 100 3.625 1.813 1.813 0 000-3.626z" fill="#232323"/><path d="M44.708 12.083h-9.666a1.208 1.208 0 110-2.416h9.666a1.209 1.209 0 010 2.416z" fill="#2D6AFF"/><path d="M14.5 12.688a1.813 1.813 0 100-3.626 1.813 1.813 0 000 3.626zm6.042 0a1.812 1.812 0 100-3.625 1.812 1.812 0 000 3.624zm6.041 0a1.813 1.813 0 100-3.626 1.813 1.813 0 000 3.626z" fill="#232323"/><path d="M44.708 31.417h-9.666a1.208 1.208 0 110-2.417h9.666a1.208 1.208 0 010 2.417z" fill="#2D6AFF"/><path d="M14.5 32.02a1.813 1.813 0 100-3.624 1.813 1.813 0 000 3.625zm6.042 0a1.812 1.812 0 100-3.624 1.812 1.812 0 000 3.625zm6.041 0a1.813 1.813 0 100-3.624 1.813 1.813 0 000 3.625zM29 47.125a1.208 1.208 0 01-1.208-1.208V36.25a1.209 1.209 0 012.416 0v9.667A1.208 1.208 0 0129 47.125zm-3.625 3.625h-10.27a1.208 1.208 0 110-2.417h10.27a1.208 1.208 0 110 2.417zm17.521 0h-10.27a1.208 1.208 0 110-2.417h10.27a1.208 1.208 0 110 2.417z" fill="#232323"/></svg>