<svg width="32" height="32" viewBox="0 0 32 32" fill="none" xmlns="http://www.w3.org/2000/svg">
<path d="M15.5898 15.5898C15.04 16.1299 14.8599 16.9404 15.1201 17.6699L19.8799 31H5C2.79004 31 1 29.21 1 27V7H7V10H9V7H15V10H17V7H23V17.0195L17.6699 15.1201C17.4502 15.04 17.23 15 17 15C16.48 15 15.9702 15.2002 15.5898 15.5898ZM12 1C9.24023 1 7 3.24023 7 6V7H9V6C9 4.34961 10.3501 3 12 3C13.6499 3 15 4.34961 15 6V7H17V6C17 3.24023 14.7598 1 12 1ZM27 24L31 22L17 17L22 31L24 27L28 31L31 28L27 24Z" fill="#D09FFF"/>
</svg>
