<svg width="36" height="36" viewBox="0 0 36 36" fill="none" xmlns="http://www.w3.org/2000/svg">
<path d="M7.16193 20.1744H27.7003C35.7185 19.8455 35.7315 8.41422 27.7003 8.08077C27.3822 8.07951 27.0644 8.10397 26.7502 8.15389C25.6107 1.55183 16.7861 0.0626121 13.5489 5.96683C12.2498 6.00024 10.9964 6.45307 9.97597 7.25767C8.9555 8.06227 8.22275 9.17546 7.8872 10.4309C7.22079 10.3314 6.54101 10.3704 5.89036 10.5455C5.23971 10.7206 4.63218 11.0281 4.10576 11.4487C3.57934 11.8693 3.14535 12.3939 2.83092 12.9899C2.5165 13.5858 2.32839 14.2402 2.27838 14.9122C2.22836 15.5841 2.3175 16.2592 2.54024 16.8951C2.76297 17.531 3.1145 18.1142 3.57285 18.608C4.03119 19.1019 4.5865 19.496 5.20406 19.7655C5.82161 20.035 6.48813 20.1742 7.16193 20.1744ZM23.3487 11.6453C23.3515 11.4981 23.412 11.3579 23.5172 11.2548C23.6223 11.1517 23.7637 11.094 23.9109 11.094C24.0581 11.094 24.1995 11.1517 24.3046 11.2548C24.4097 11.3579 24.4702 11.4981 24.4731 11.6454V17.1046C24.4706 17.2521 24.4103 17.3927 24.3051 17.4961C24.2 17.5996 24.0584 17.6575 23.9109 17.6575C23.7634 17.6575 23.6218 17.5995 23.5166 17.4961C23.4114 17.3927 23.3511 17.2521 23.3487 17.1046V11.6453ZM17.4452 11.5835C17.4457 11.4345 17.505 11.2917 17.6104 11.1864C17.7157 11.0811 17.8585 11.0217 18.0075 11.0212H20.054C20.5617 11.027 21.0466 11.2327 21.4036 11.5937C21.7605 11.9548 21.9607 12.442 21.9607 12.9497C21.9607 13.4574 21.7605 13.9446 21.4036 14.3057C21.0466 14.6667 20.5617 14.8724 20.054 14.8782H18.5697V17.0428C18.5669 17.1901 18.5065 17.3305 18.4014 17.4337C18.2962 17.5369 18.1548 17.5947 18.0074 17.5947C17.8601 17.5947 17.7186 17.5369 17.6135 17.4337C17.5083 17.3304 17.4479 17.1901 17.4452 17.0428L17.4452 11.5835ZM11.5418 12.9497C11.5426 12.4385 11.746 11.9485 12.1075 11.587C12.469 11.2255 12.959 11.0221 13.4702 11.0212H14.1505C14.6617 11.0221 15.1517 11.2255 15.5132 11.587C15.8747 11.9485 16.0781 12.4385 16.079 12.9497V17.0428C16.0763 17.1901 16.0159 17.3305 15.9107 17.4338C15.8056 17.537 15.6641 17.5949 15.5167 17.5949C15.3693 17.5949 15.2279 17.537 15.1227 17.4338C15.0176 17.3305 14.9572 17.1901 14.9545 17.0428V14.8782H12.6662V17.0428C12.6662 17.1919 12.607 17.3349 12.5015 17.4403C12.3961 17.5458 12.2531 17.605 12.104 17.605C11.9548 17.605 11.8118 17.5458 11.7064 17.4403C11.601 17.3349 11.5417 17.1919 11.5417 17.0428L11.5418 12.9497Z" fill="#D09FFF"/>
<path d="M14.9545 12.9497C14.9545 12.8441 14.9337 12.7395 14.8934 12.642C14.853 12.5444 14.7937 12.4558 14.7191 12.3811C14.6444 12.3065 14.5558 12.2472 14.4582 12.2068C14.3607 12.1664 14.2561 12.1457 14.1505 12.1457H13.4702C13.3646 12.1457 13.26 12.1664 13.1625 12.2068C13.0649 12.2472 12.9763 12.3065 12.9016 12.3811C12.827 12.4558 12.7677 12.5444 12.7274 12.642C12.687 12.7395 12.6662 12.8441 12.6662 12.9497V13.7537H14.9545L14.9545 12.9497Z" fill="#D09FFF"/>
<path d="M20.858 12.9497C20.858 12.8441 20.8372 12.7395 20.7968 12.642C20.7564 12.5444 20.6972 12.4558 20.6225 12.3811C20.5479 12.3065 20.4592 12.2472 20.3617 12.2068C20.2641 12.1664 20.1596 12.1457 20.054 12.1457H18.5697V13.7537H20.054C20.2669 13.7528 20.4709 13.6678 20.6215 13.5172C20.7721 13.3666 20.8571 13.1626 20.858 12.9497Z" fill="#D09FFF"/>
<path d="M27.7004 21.2989H26.3679C25.7049 22.9754 24.5532 24.4138 23.0623 25.4275C21.5714 26.4411 19.8102 26.9831 18.0074 26.9831C16.2046 26.9831 14.4434 26.4411 12.9525 25.4275C11.4617 24.4138 10.31 22.9754 9.64698 21.2989H7.16191C6.2034 21.2996 5.25866 21.0708 4.40669 20.6316C3.55472 20.1924 2.8203 19.5556 2.26484 18.7744C2.21937 19.0178 2.22475 19.2679 2.28063 19.5091C2.33652 19.7503 2.4417 19.9773 2.58956 20.1758C2.73743 20.3744 2.92477 20.5402 3.13982 20.6628C3.35487 20.7854 3.59297 20.8623 3.83915 20.8884C3.95987 20.8972 4.07477 20.9438 4.16759 21.0215C4.2604 21.0992 4.32644 21.2041 4.35635 21.3214C4.69286 22.7204 5.24685 24.0579 5.99811 25.2851C6.0588 25.3892 6.08547 25.5096 6.07438 25.6296C6.0633 25.7495 6.01501 25.863 5.93627 25.9542C5.65724 26.2827 5.51263 26.7045 5.53139 27.1351C5.55016 27.5657 5.73092 27.9733 6.03746 28.2762L7.71854 29.9573C8.02151 30.2638 8.42911 30.4446 8.85971 30.4634C9.2903 30.4821 9.71208 30.3375 10.0406 30.0585C10.1317 29.9798 10.2452 29.9315 10.3652 29.9204C10.4852 29.9093 10.6056 29.936 10.7096 29.9967C11.9368 30.7479 13.2744 31.3019 14.6734 31.6384C14.7915 31.6687 14.8969 31.7356 14.9747 31.8295C15.0524 31.9235 15.0985 32.0396 15.1063 32.1612C15.1418 32.5897 15.3373 32.9891 15.6541 33.2798C15.9709 33.5705 16.3855 33.7312 16.8155 33.7299H19.1994C19.6302 33.731 20.0455 33.5695 20.3624 33.2776C20.6793 32.9858 20.8743 32.5851 20.9085 32.1556C20.9173 32.0349 20.9639 31.92 21.0416 31.8272C21.1193 31.7343 21.2242 31.6683 21.3415 31.6384C22.7405 31.3019 24.078 30.7479 25.3052 29.9966C25.4093 29.9361 25.5297 29.9095 25.6496 29.9205C25.7696 29.9316 25.8831 29.9798 25.9743 30.0585C26.3028 30.3375 26.7246 30.4821 27.1552 30.4633C27.5857 30.4446 27.9933 30.2638 28.2963 29.9573L29.9774 28.2762C30.2839 27.9732 30.4647 27.5656 30.4835 27.135C30.5022 26.7044 30.3576 26.2827 30.0786 25.9542C29.9998 25.863 29.9516 25.7495 29.9405 25.6295C29.9294 25.5096 29.9561 25.3892 30.0168 25.2851C30.768 24.0579 31.322 22.7204 31.6585 21.3214C31.6889 21.2033 31.7558 21.0978 31.8497 21.02C31.9436 20.9423 32.0597 20.8962 32.1814 20.8884C32.6098 20.853 33.0092 20.6574 33.2999 20.3406C33.5906 20.0239 33.7513 19.6092 33.75 19.1793V17.9761C33.1024 18.9939 32.2085 19.832 31.1511 20.4128C30.0936 20.9937 28.9068 21.2984 27.7004 21.2989Z" fill="#D09FFF"/>
</svg>
