<svg width="33" height="33" viewBox="0 0 33 33" fill="none" xmlns="http://www.w3.org/2000/svg">
<g clip-path="url(#clip0_5_1409)">
<path d="M11.0618 14.5507C10.5242 14.5507 10.0869 14.988 10.0869 15.5256V16.5037H12.0366V15.5256C12.0366 14.988 11.5993 14.5507 11.0618 14.5507Z" fill="#D09FFF"/>
<path d="M18.44 14.5507H17.4668V16.5037H18.44C18.9785 16.5037 19.4165 16.0656 19.4165 15.5272C19.4165 14.9889 18.9784 14.5507 18.44 14.5507Z" fill="#D09FFF"/>
<path d="M23.5785 6.0613L24.8277 3.87524H27.3489C27.7484 5.00504 28.8267 5.81689 30.0916 5.81689C31.6953 5.81689 33 4.51217 33 2.90845C33 1.30472 31.6953 0 30.0916 0C28.8267 0 27.7484 0.811852 27.3489 1.94165H23.7055L21.901 5.09947C21.1116 4.72396 20.2773 4.42806 19.4084 4.22226V0H17.4749V3.92068C17.1531 3.896 16.828 3.8833 16.5 3.8833C16.172 3.8833 15.8469 3.89593 15.5251 3.92068V0H13.5916V4.22226C12.7227 4.42806 11.8884 4.7239 11.099 5.09947L9.29446 1.94165H5.65106C5.25158 0.811852 4.17328 0 2.90845 0C1.30472 0 0 1.30472 0 2.90845C0 4.51217 1.30472 5.81689 2.90845 5.81689C4.17328 5.81689 5.25158 5.00504 5.65106 3.87524H8.17233L9.4215 6.0613C8.00643 7.02391 6.79626 8.26611 5.87149 9.70825H0V11.6418H4.85667C4.34852 12.8552 4.02426 14.1638 3.91997 15.5332H0V17.4668H3.91997C4.02426 18.8362 4.34846 20.1448 4.85661 21.3582H0V23.2917H5.87149C6.79626 24.7339 8.0065 25.9761 9.4215 26.9387L8.17233 29.1248H5.65106C5.25158 27.995 4.17334 27.1831 2.90845 27.1831C1.30472 27.1831 0 28.4878 0 30.0916C0 31.6953 1.30472 33 2.90845 33C4.17328 33 5.25158 32.1881 5.65106 31.0583H9.29446L11.099 27.9005C11.8884 28.276 12.7227 28.5719 13.5916 28.7777V33H15.5251V29.0793C15.8469 29.104 16.172 29.1167 16.5 29.1167C16.828 29.1167 17.1531 29.1041 17.4749 29.0793V33H19.4084V28.7777C20.2773 28.5719 21.1116 28.2761 21.901 27.9005L23.7055 31.0583H27.3489C27.7484 32.1881 28.8267 33 30.0916 33C31.6953 33 33 31.6953 33 30.0916C33 28.4878 31.6953 27.1831 30.0916 27.1831C28.8267 27.1831 27.7484 27.995 27.3489 29.1248H24.8277L23.5785 26.9387C24.9936 25.9761 26.2037 24.7339 27.1285 23.2917H33V21.3582H28.1433C28.6515 20.1448 28.9757 18.8362 29.08 17.4668H33V15.5332H29.08C28.9757 14.1638 28.6515 12.8552 28.1434 11.6418H33V9.70825H27.1285C26.2037 8.26611 24.9935 7.02391 23.5785 6.0613ZM13.9702 20.3833H12.0366V18.4373H10.0869V20.3829H8.15332V15.5257C8.15332 13.9219 9.45805 12.6172 11.0618 12.6172C12.6655 12.6172 13.9702 13.9219 13.9702 15.5256V20.3833ZM18.44 18.4373H17.4668V20.3829H15.5332V12.6172H18.44C20.0447 12.6172 21.3501 13.9226 21.3501 15.5272C21.3501 17.1318 20.0446 18.4373 18.44 18.4373ZM24.5476 20.3833H22.614V12.6167H24.5476V20.3833Z" fill="#D09FFF"/>
</g>
<defs>
<clipPath id="clip0_5_1409">
<rect width="33" height="33" fill="white"/>
</clipPath>
</defs>
</svg>
