<svg width="76" height="76" viewBox="0 0 76 76" fill="none" xmlns="http://www.w3.org/2000/svg">
<path d="M65.0268 10.9708C60.3895 6.33333 52.9254 6.33333 37.9977 6.33333C23.0699 6.33333 15.606 6.33333 10.9685 10.9708C8.56981 13.3695 7.41183 16.5244 6.85278 21.0773C8.53324 19.2068 10.5524 17.6487 12.8197 16.4935C15.2944 15.2325 17.9443 14.7212 20.8783 14.4815C23.7128 14.2499 27.2007 14.2499 31.4654 14.25H44.5299C48.7948 14.2499 52.2825 14.2499 55.117 14.4815C58.0513 14.7212 60.7011 15.2325 63.1756 16.4935C65.4429 17.6487 67.4623 19.2068 69.1425 21.0773C68.5836 16.5244 67.4255 13.3695 65.0268 10.9708Z" fill="url(#paint0_linear_37_2834)"/>
<path fill-rule="evenodd" clip-rule="evenodd" d="M6.33325 44.3333C6.33325 35.4657 6.33325 31.0321 8.05899 27.6452C9.57696 24.6659 11.9992 22.2437 14.9784 20.7257C18.3654 19 22.7991 19 31.6666 19H44.3333C53.2009 19 57.6345 19 61.0216 20.7257C64.0008 22.2437 66.423 24.6659 67.9408 27.6452C69.6666 31.0321 69.6666 35.4657 69.6666 44.3333C69.6666 53.201 69.6666 57.6346 67.9408 61.0217C66.423 64.0009 64.0008 66.423 61.0216 67.9408C57.6345 69.6667 53.2009 69.6667 44.3333 69.6667H31.6666C22.7991 69.6667 18.3654 69.6667 14.9784 67.9408C11.9992 66.423 9.57696 64.0009 8.05899 61.0217C6.33325 57.6346 6.33325 53.201 6.33325 44.3333ZM39.6792 55.5126C39.234 55.9582 38.6298 56.2083 37.9999 56.2083C37.3701 56.2083 36.7659 55.9582 36.3206 55.5126L28.4039 47.596C27.4764 46.6684 27.4764 45.1649 28.4039 44.2374C29.3314 43.3099 30.8351 43.3099 31.7625 44.2374L35.6249 48.0994V34.8333C35.6249 33.5217 36.6883 32.4583 37.9999 32.4583C39.3116 32.4583 40.3749 33.5217 40.3749 34.8333V48.0994L44.2373 44.2374C45.1648 43.3099 46.6684 43.3099 47.5959 44.2374C48.5234 45.1649 48.5234 46.6684 47.5959 47.596L39.6792 55.5126Z" fill="url(#paint1_linear_37_2834)"/>
<defs>
<linearGradient id="paint0_linear_37_2834" x1="-15.2244" y1="33.7999" x2="72.6354" y2="13.0515" gradientUnits="userSpaceOnUse">
<stop stop-color="#2780E6"/>
<stop offset="1" stop-color="#781896"/>
</linearGradient>
<linearGradient id="paint1_linear_37_2834" x1="-16.1138" y1="113.387" x2="77.7417" y2="106.829" gradientUnits="userSpaceOnUse">
<stop stop-color="#2780E6"/>
<stop offset="1" stop-color="#781896"/>
</linearGradient>
</defs>
</svg>
