<svg width="74" height="74" viewBox="0 0 74 74" fill="none" xmlns="http://www.w3.org/2000/svg">
<path d="M14.7217 41.4697H56.9396C73.4214 40.7935 73.4481 17.2959 56.9396 16.6105C56.2855 16.6079 55.6324 16.6582 54.9864 16.7608C52.6442 3.18988 34.5048 0.128716 27.8506 12.2652C25.1802 12.3338 22.6038 13.2646 20.5061 14.9186C18.4085 16.5725 16.9023 18.8607 16.2126 21.4413C14.8427 21.2367 13.4454 21.3169 12.1079 21.6769C10.7705 22.0368 9.52167 22.6688 8.43959 23.5334C7.3575 24.3979 6.46541 25.4764 5.81909 26.7014C5.17277 27.9264 4.78611 29.2716 4.6833 30.6528C4.58049 32.034 4.76373 33.4216 5.22156 34.7288C5.6794 36.036 6.40199 37.2347 7.34415 38.2499C8.28631 39.2651 9.42778 40.075 10.6972 40.6291C11.9666 41.1831 13.3367 41.4693 14.7217 41.4697ZM47.9944 23.9376C48.0003 23.635 48.1247 23.3468 48.3408 23.1349C48.5569 22.923 48.8475 22.8043 49.1501 22.8043C49.4528 22.8043 49.7434 22.923 49.9595 23.1349C50.1755 23.3469 50.2999 23.6351 50.3058 23.9377V35.1595C50.3007 35.4627 50.1767 35.7517 49.9605 35.9643C49.7443 36.1769 49.4533 36.296 49.1501 36.296C48.8469 36.296 48.5558 36.1768 48.3396 35.9642C48.1235 35.7516 47.9995 35.4626 47.9944 35.1595V23.9376ZM35.8596 23.8105C35.8605 23.5043 35.9825 23.2108 36.1991 22.9943C36.4156 22.7778 36.7091 22.6557 37.0153 22.6548H41.2221C42.2656 22.6666 43.2624 23.0895 43.9962 23.8316C44.7299 24.5737 45.1415 25.5752 45.1415 26.6189C45.1415 27.6625 44.7299 28.664 43.9962 29.4061C43.2624 30.1482 42.2656 30.5711 41.2221 30.5829H38.1709V35.0324C38.1653 35.3352 38.0411 35.6238 37.825 35.8359C37.6088 36.0481 37.3181 36.167 37.0152 36.167C36.7123 36.167 36.4216 36.0481 36.2054 35.8359C35.9893 35.6237 35.8651 35.3352 35.8595 35.0323L35.8596 23.8105ZM23.7247 26.6189C23.7264 25.5681 24.1446 24.5608 24.8876 23.8178C25.6306 23.0747 26.6379 22.6565 27.6887 22.6548H29.0871C30.1379 22.6565 31.1452 23.0747 31.8882 23.8177C32.6313 24.5608 33.0495 25.568 33.0512 26.6189V35.0324C33.0456 35.3353 32.9215 35.6239 32.7053 35.8361C32.4892 36.0484 32.1983 36.1673 31.8954 36.1673C31.5925 36.1673 31.3017 36.0483 31.0856 35.8361C30.8694 35.6238 30.7453 35.3352 30.7398 35.0323V30.5829H26.036V35.0324C26.036 35.3389 25.9143 35.6329 25.6975 35.8496C25.4808 36.0664 25.1868 36.1881 24.8803 36.1881C24.5738 36.1881 24.2799 36.0664 24.0631 35.8496C23.8464 35.6329 23.7246 35.3389 23.7246 35.0324L23.7247 26.6189Z" fill="url(#paint0_linear_37_2838)"/>
<path d="M30.7399 26.6189C30.7399 26.4018 30.6972 26.1869 30.6142 25.9864C30.5311 25.7858 30.4094 25.6036 30.2559 25.4501C30.1025 25.2967 29.9203 25.1749 29.7197 25.0919C29.5192 25.0089 29.3043 24.9662 29.0872 24.9662H27.6888C27.4717 24.9662 27.2568 25.0089 27.0563 25.0919C26.8558 25.1749 26.6735 25.2967 26.5201 25.4501C26.3666 25.6036 26.2449 25.7858 26.1618 25.9864C26.0788 26.1869 26.0361 26.4018 26.0361 26.6189V28.2715H30.7399L30.7399 26.6189Z" fill="#5941B6"/>
<path d="M42.8746 26.6189C42.8747 26.4018 42.832 26.1869 42.7489 25.9864C42.6659 25.7858 42.5442 25.6036 42.3907 25.4501C42.2372 25.2967 42.055 25.1749 41.8545 25.0919C41.6539 25.0089 41.439 24.9662 41.222 24.9662H38.1709V28.2715H41.222C41.6597 28.2696 42.079 28.0949 42.3885 27.7854C42.698 27.4758 42.8727 27.0566 42.8746 26.6189Z" fill="#5941B6"/>
<path d="M56.9396 43.7811H54.2006C52.8378 47.2272 50.4704 50.184 47.4059 52.2676C44.3413 54.3512 40.7211 55.4654 37.0153 55.4654C33.3095 55.4654 29.6893 54.3512 26.6247 52.2676C23.5601 50.184 21.1927 47.2272 19.8299 43.7811H14.7217C12.7515 43.7826 10.8095 43.3122 9.05821 42.4094C7.30694 41.5066 5.79729 40.1977 4.65552 38.5919C4.56206 39.0922 4.57311 39.6063 4.68798 40.1021C4.80286 40.5978 5.01906 41.0644 5.323 41.4725C5.62695 41.8807 6.01205 42.2215 6.4541 42.4736C6.89614 42.7257 7.38557 42.8836 7.8916 42.9373C8.13975 42.9555 8.37593 43.0511 8.56672 43.2109C8.75751 43.3706 8.89325 43.5862 8.95474 43.8273C9.64645 46.7031 10.7852 49.4524 12.3295 51.975C12.4542 52.1889 12.509 52.4365 12.4863 52.6831C12.4635 52.9296 12.3642 53.1629 12.2024 53.3503C11.6288 54.0256 11.3315 54.8926 11.3701 55.7777C11.4087 56.6628 11.7802 57.5006 12.4104 58.1234L15.8659 61.5789C16.4887 62.2091 17.3265 62.5806 18.2116 62.6192C19.0967 62.6578 19.9637 62.3605 20.639 61.787C20.8264 61.6251 21.0597 61.5259 21.3063 61.5031C21.5528 61.4803 21.8004 61.5351 22.0143 61.6598C24.5369 63.2041 27.2862 64.3428 30.162 65.0344C30.4047 65.0968 30.6215 65.2344 30.7813 65.4274C30.9411 65.6205 31.0358 65.8591 31.0519 66.1092C31.1247 66.99 31.5268 67.811 32.1779 68.4086C32.829 69.0062 33.6814 69.3365 34.5652 69.3337H39.4654C40.3509 69.336 41.2047 69.004 41.856 68.404C42.5074 67.8041 42.9083 66.9805 42.9787 66.0977C42.9968 65.8496 43.0924 65.6134 43.2521 65.4225C43.4118 65.2317 43.6275 65.096 43.8686 65.0344C46.7443 64.3428 49.4937 63.2041 52.0163 61.6598C52.2303 61.5353 52.4778 61.4806 52.7243 61.5034C52.9708 61.5262 53.2041 61.6253 53.3916 61.7869C54.0668 62.3605 54.9338 62.6577 55.8189 62.6192C56.704 62.5806 57.5419 62.209 58.1647 61.5789L61.6202 58.1234C62.2503 57.5006 62.6219 56.6627 62.6605 55.7776C62.699 54.8925 62.4018 54.0255 61.8282 53.3503C61.6664 53.1629 61.5671 52.9296 61.5443 52.683C61.5215 52.4364 61.5764 52.1889 61.7011 51.975C63.2454 49.4524 64.3841 46.703 65.0758 43.8273C65.1382 43.5845 65.2758 43.3678 65.4688 43.2079C65.6619 43.0481 65.9005 42.9534 66.1506 42.9374C67.0314 42.8645 67.8523 42.4624 68.4499 41.8113C69.0475 41.1602 69.3778 40.3078 69.375 39.4241V36.9509C68.0438 39.0432 66.2063 40.7659 64.0327 41.9598C61.8591 43.1537 59.4195 43.7801 56.9396 43.7811Z" fill="url(#paint1_linear_37_2838)"/>
<defs>
<linearGradient id="paint0_linear_37_2838" x1="-18.2601" y1="73.2275" x2="77.1028" y2="63.8629" gradientUnits="userSpaceOnUse">
<stop stop-color="#2780E6"/>
<stop offset="1" stop-color="#781896"/>
</linearGradient>
<linearGradient id="paint1_linear_37_2838" x1="-18.3678" y1="97.277" x2="76.9121" y2="86.6225" gradientUnits="userSpaceOnUse">
<stop stop-color="#2780E6"/>
<stop offset="1" stop-color="#781896"/>
</linearGradient>
</defs>
</svg>
