<svg width="64" height="64" fill="none" xmlns="http://www.w3.org/2000/svg"><path d="M14.988 21.6L10.4 23.813 13.516 48.2 32 59.819 50.484 48.2 53.6 23.813 49.012 21.6a1.936 1.936 0 01-1.644 1.258l-2.222.185c0 .02-.012.041-.017.061l4.53 2.189a1 1 0 01.557 1.027l-2.5 19.6a1 1 0 01-.46.72l-14.72 9.25a1 1 0 01-1.064 0l-14.72-9.25a1 1 0 01-.46-.72l-2.5-19.6a1 1 0 01.558-1.027l4.493-2.171c-.012-.037-.028-.072-.039-.109l-2.164-.155a1.936 1.936 0 01-1.652-1.258z" fill="#5D3CB2"/><path d="M32 27.059a7.923 7.923 0 100-15.846 7.923 7.923 0 000 15.846z" fill="url(#paint0_linear_135_3388)"/><path d="M19.941 25.671c-.133-.217-.237-.461-.354-.693l-3.728 1.8L18.212 45.2 32 53.862 45.788 45.2l2.353-18.419L44.45 25c-.116.249-.239.5-.372.738l1.423 1.634a1.938 1.938 0 01-.108 2.607l-2.546 2.546a1.937 1.937 0 01-2.608.109l-1.7-1.44c-.832.497-1.726.882-2.659 1.146l-.157 2.16a1.94 1.94 0 01-1.922 1.771h-3.6a1.937 1.937 0 01-1.92-1.771l-.18-2.219a11.03 11.03 0 01-2.7-1.067l-1.638 1.42a1.939 1.939 0 01-2.61-.109l-2.542-2.546a1.938 1.938 0 01-.108-2.607l1.44-1.701z" fill="url(#paint1_linear_135_3388)"/><path d="M20.716 15.822a1.932 1.932 0 01-1.7 1.4l-2.221.184.048 2.557a.897.897 0 010 .127l.016.844 2.156.112a1.934 1.934 0 011.7 1.4c.235.808.558 1.587.962 2.325a1.935 1.935 0 01-.21 2.191l-1.44 1.7 2.542 2.447 1.6-1.444a1.932 1.932 0 012.19-.208c.738.403 1.518.725 2.325.962a1.926 1.926 0 011.4 1.693l.18 2.157H33.8l.11-2.155a1.933 1.933 0 011.4-1.7 11.727 11.727 0 002.325-.961 1.93 1.93 0 012.189.208l1.7 1.44 2.448-2.542-1.445-1.6a1.935 1.935 0 01-.21-2.189c.405-.737.728-1.517.963-2.324a1.934 1.934 0 011.7-1.4l2.156-.179v-3.531l-2.156-.112a1.933 1.933 0 01-1.7-1.4 11.505 11.505 0 00-.961-2.323 1.936 1.936 0 01.209-2.192l1.439-1.7L41.43 7.16 39.828 8.6a1.93 1.93 0 01-2.19.209 11.794 11.794 0 00-2.325-.962 1.931 1.931 0 01-1.4-1.694l-.184-2.224L30.268 4l-.18 2.157a1.928 1.928 0 01-1.4 1.7 11.81 11.81 0 00-2.324.962 1.93 1.93 0 01-2.19-.208l-1.7-1.44-2.45 2.535 1.445 1.6a1.932 1.932 0 01.209 2.189 11.622 11.622 0 00-.962 2.327zM32 9.213a9.923 9.923 0 11-9.923 9.923A9.934 9.934 0 0132 9.213z" fill="#5D3CB2"/><defs><linearGradient id="paint0_linear_135_3388" x1="18.461" y1="40.733" x2="41.985" y2="39.418" gradientUnits="userSpaceOnUse"><stop stop-color="#2780E6"/><stop offset="1" stop-color="#781896"/></linearGradient><linearGradient id="paint1_linear_135_3388" x1="4.418" y1="78.786" x2="52.304" y2="75.794" gradientUnits="userSpaceOnUse"><stop stop-color="#2780E6"/><stop offset="1" stop-color="#781896"/></linearGradient></defs></svg>