<svg width="72" height="72" fill="none" xmlns="http://www.w3.org/2000/svg"><path d="M36 66.857h-.514c-.257 0-25.2-5.914-25.2-33.428V18c0-1.029.514-2.057 1.543-2.314L34.972 5.4c.771-.257 1.543-.257 2.057 0l23.143 10.286c1.028.257 1.543 1.285 1.543 2.314v15.429c0 27.514-24.943 33.428-25.2 33.428H36zm0-28.286c-7.457 0-12.857 3.343-12.857 7.715C23.143 50.657 28.543 54 36 54c7.458 0 12.858-3.343 12.858-7.714 0-4.372-5.4-7.715-12.858-7.715zM36 18c-4.371 0-7.714 3.343-7.714 7.714 0 4.372 3.343 7.715 7.714 7.715 4.372 0 7.715-3.343 7.715-7.715C43.715 21.343 40.372 18 36 18z" fill="url(#paint0_linear_135_3376)"/><defs><linearGradient id="paint0_linear_135_3376" x1="-7.942" y1="120.055" x2="68.478" y2="116.492" gradientUnits="userSpaceOnUse"><stop stop-color="#2780E6"/><stop offset="1" stop-color="#781896"/></linearGradient></defs></svg>