<svg width="71" height="71" fill="none" xmlns="http://www.w3.org/2000/svg"><g clip-path="url(#clip0_131_3374)"><path d="M56.712 39.055c0 1.203-.886 1.912-1.814 1.912h-.315V37.24h.315c1 0 1.814.814 1.814 1.815zM0 16.032v-4.58A6.87 6.87 0 016.871 4.58h57.258A6.87 6.87 0 0171 11.45v4.581a2.29 2.29 0 01-2.29 2.29H2.29A2.29 2.29 0 010 16.033zm20.613-3.722c0 2.161 2.735 3.102 4.06 1.452a2.292 2.292 0 00-.317-3.222c-1.525-1.227-3.743-.138-3.743 1.77zm-6.871 0c0 2.17 2.711 3.09 4.061 1.454a2.292 2.292 0 00-.318-3.224c-1.526-1.229-3.743-.136-3.743 1.77zm-6.871 0c0 2.075 2.53 3.036 3.91 1.62.903-.905.884-2.377 0-3.238-1.388-1.425-3.91-.448-3.91 1.618zM71 25.194v34.354a6.87 6.87 0 01-6.871 6.871H6.871A6.87 6.87 0 010 59.55V25.193a2.29 2.29 0 012.29-2.29h66.42a2.29 2.29 0 012.29 2.29zM20.9 34.95a2.29 2.29 0 00-4.581 0v4.129h-2.004v-4.13a2.29 2.29 0 00-4.581 0v12.84a2.29 2.29 0 004.58 0v-4.13h2.005v4.13a2.29 2.29 0 004.58 0v-12.84zm13.598-.023a2.29 2.29 0 00-2.29-2.29h-6.871a2.29 2.29 0 000 4.58h1.145V47.81a2.29 2.29 0 104.58 0V37.218h1.146a2.29 2.29 0 002.29-2.29zm13.456 0a2.29 2.29 0 00-2.29-2.29h-6.872a2.29 2.29 0 000 4.58h1.145V47.81a2.29 2.29 0 104.581 0V37.218h1.145a2.29 2.29 0 002.29-2.29zm13.34 4.128a6.402 6.402 0 00-6.396-6.396h-2.606a2.29 2.29 0 00-2.29 2.29v12.84a2.29 2.29 0 004.58 0v-2.242c4.172 0 6.711-3.049 6.711-6.492z" fill="url(#paint0_linear_131_3374)"/></g><defs><linearGradient id="paint0_linear_131_3374" x1="-25.164" y1="119.78" x2="80.133" y2="113.022" gradientUnits="userSpaceOnUse"><stop stop-color="#2780E6"/><stop offset="1" stop-color="#781896"/></linearGradient><clipPath id="clip0_131_3374"><path fill="#fff" d="M0 0h71v71H0z"/></clipPath></defs></svg>