<svg width="60" height="60" fill="none" xmlns="http://www.w3.org/2000/svg"><path d="M19.506 26.286a11.073 11.073 0 01-2.162-6.599c0-7.039 6.505-12.363 13.442-10.89a13.74 13.74 0 012.812-6.94C18.985-1.437 5.156 9.75 5.156 24.608c0 4.096 1.068 8.091 3.092 11.608a23.47 23.47 0 0111.258-9.93z" fill="url(#paint0_linear_135_3380)"/><path d="M30.87 12.456c-4.899-1.633-10.01 2.04-10.01 7.232 0 2.063.817 3.998 2.27 5.424a23.363 23.363 0 0110.694 0 7.565 7.565 0 002.13-3.96 13.827 13.827 0 01-5.085-8.696z" fill="url(#paint1_linear_135_3380)"/><path d="M11.433 37.734H45.52c-3.453-5.818-9.8-9.726-17.044-9.726-7.243 0-13.59 3.908-17.043 9.726z" fill="url(#paint2_linear_135_3380)"/><path d="M39.1 23.029a11.004 11.004 0 01-1.653 3.257 23.47 23.47 0 0111.258 9.93 23.298 23.298 0 002.963-14.063 13.803 13.803 0 01-12.567.876z" fill="url(#paint3_linear_135_3380)"/><path d="M44.531 0C38.836 0 34.22 4.617 34.22 10.313c0 5.695 4.617 10.312 10.312 10.312 5.696 0 10.313-4.617 10.313-10.313C54.844 4.617 50.227 0 44.53 0zm4.994 9.798l-3.75 3.75a1.76 1.76 0 01-2.487 0l-1.875-1.875a1.76 1.76 0 010-2.487 1.76 1.76 0 012.487 0l.631.633 2.507-2.508a1.76 1.76 0 012.487 0 1.76 1.76 0 010 2.487z" fill="#4956C6"/><path d="M47.46 41.25H9.493a3.516 3.516 0 00-3.515 3.516v11.718A3.516 3.516 0 009.492 60h37.969a3.516 3.516 0 003.516-3.516V44.766a3.516 3.516 0 00-3.516-3.516zM13.478 52.266a1.759 1.759 0 110-3.517 1.759 1.759 0 010 3.517zm7.5 0a1.759 1.759 0 110-3.517 1.759 1.759 0 010 3.517zm7.5 0a1.759 1.759 0 110-3.517 1.759 1.759 0 010 3.517zm7.5 0a1.759 1.759 0 110-3.517 1.759 1.759 0 010 3.517zm7.5 0a1.759 1.759 0 110-3.517 1.759 1.759 0 010 3.517z" fill="url(#paint4_linear_135_3380)"/><defs><linearGradient id="paint0_linear_135_3380" x1="-4.924" y1="66.366" x2="37.342" y2="64.443" gradientUnits="userSpaceOnUse"><stop stop-color="#2780E6"/><stop offset="1" stop-color="#781896"/></linearGradient><linearGradient id="paint1_linear_135_3380" x1="15.509" y1="36.371" x2="37.895" y2="34.924" gradientUnits="userSpaceOnUse"><stop stop-color="#2780E6"/><stop offset="1" stop-color="#781896"/></linearGradient><linearGradient id="paint2_linear_135_3380" x1="-.649" y1="46.127" x2="48.237" y2="36.551" gradientUnits="userSpaceOnUse"><stop stop-color="#2780E6"/><stop offset="1" stop-color="#781896"/></linearGradient><linearGradient id="paint3_linear_135_3380" x1="32.361" y1="48.352" x2="53.662" y2="47.137" gradientUnits="userSpaceOnUse"><stop stop-color="#2780E6"/><stop offset="1" stop-color="#781896"/></linearGradient><linearGradient id="paint4_linear_135_3380" x1="-9.973" y1="76.179" x2="55.855" y2="67.348" gradientUnits="userSpaceOnUse"><stop stop-color="#2780E6"/><stop offset="1" stop-color="#781896"/></linearGradient></defs></svg>