<svg width="40" height="40" fill="none" xmlns="http://www.w3.org/2000/svg"><path d="M19.821 5a20.567 20.567 0 00-3.457.297c-3.063.542-3.619 1.679-3.619 3.775v2.768h7.237v.922H10.03c-2.103 0-3.945 1.27-4.52 3.683-.665 2.766-.694 4.492 0 7.38.514 2.15 1.742 3.683 3.845 3.683h2.488V24.19c0-2.397 2.067-4.512 4.52-4.512h7.228c2.012 0 3.618-1.663 3.618-3.69V9.071c0-1.968-1.654-3.447-3.618-3.775A22.49 22.49 0 0019.821 5zm-3.913 2.227c.748 0 1.358.622 1.358 1.388 0 .763-.61 1.38-1.358 1.38-.75 0-1.358-.617-1.358-1.38 0-.766.608-1.388 1.358-1.388z" fill="url(#paint0_linear_216_176)"/><path d="M28.111 12.763v3.225c0 2.5-2.112 4.605-4.52 4.605h-7.228c-1.98 0-3.618 1.7-3.618 3.69V31.2c0 1.969 1.706 3.126 3.618 3.691 2.29.676 4.487.798 7.228 0 1.822-.53 3.618-1.595 3.618-3.69V28.43h-7.228v-.922h10.846c2.103 0 2.887-1.473 3.618-3.682.756-2.275.724-4.463 0-7.382-.52-2.1-1.512-3.682-3.618-3.682h-2.716zm-4.065 17.514c.75 0 1.358.617 1.358 1.38 0 .765-.607 1.388-1.358 1.388-.747 0-1.357-.623-1.357-1.389 0-.762.61-1.38 1.357-1.38z" fill="url(#paint1_linear_216_176)"/><defs><linearGradient id="paint0_linear_216_176" x1="5" y1="5" x2="21.737" y2="19.21" gradientUnits="userSpaceOnUse"><stop stop-color="#5A9FD4"/><stop offset="1" stop-color="#306998"/></linearGradient><linearGradient id="paint1_linear_216_176" x1="23.872" y1="31.424" x2="17.857" y2="23.025" gradientUnits="userSpaceOnUse"><stop stop-color="#FFD43B"/><stop offset="1" stop-color="#FFE873"/></linearGradient></defs></svg>