<svg width="40" height="40" fill="none" xmlns="http://www.w3.org/2000/svg"><g clip-path="url(#clip0_216_180)"><mask id="a" style="mask-type:luminance" maskUnits="userSpaceOnUse" x="0" y="0" width="40" height="40"><path d="M40 0H0v40h40V0z" fill="#fff"/></mask><g mask="url(#a)" fill="#689F63"><path d="M20.505 35c-.407 0-.812-.105-1.17-.308l-3.723-2.173c-.556-.306-.285-.415-.101-.477.741-.256.892-.314 1.683-.757.083-.047.192-.03.277.02l2.86 1.672c.104.055.25.055.347 0l11.153-6.345a.346.346 0 00.17-.297V13.649a.352.352 0 00-.172-.302l-11.15-6.34a.347.347 0 00-.343 0L9.19 13.347a.35.35 0 00-.177.3v12.685c0 .12.067.236.173.294l3.054 1.74c1.659.817 2.672-.146 2.672-1.115V14.73c0-.18.143-.317.324-.317h1.413c.175 0 .32.138.32.317v12.525c0 2.18-1.205 3.432-3.302 3.432-.645 0-1.153 0-2.571-.688L8.17 28.338a2.341 2.341 0 01-.856-.85A2.299 2.299 0 017 26.332V13.646c0-.825.447-1.596 1.17-2.003l11.164-6.348a2.477 2.477 0 012.346 0l11.15 6.351c.356.204.651.496.856.848.206.351.314.75.314 1.155v12.686c0 .822-.45 1.59-1.17 2.003l-11.15 6.348a2.37 2.37 0 01-1.176.308"/><path d="M23.672 25.987c-4.689 0-5.672-2.174-5.672-3.997a.31.31 0 01.31-.312h1.385a.31.31 0 01.305.265c.21 1.425.832 2.143 3.667 2.143 2.259 0 3.22-.515 3.22-1.725 0-.696-.274-1.214-3.783-1.56-2.935-.293-4.748-.946-4.748-3.317 0-2.184 1.824-3.484 4.88-3.484 3.43 0 5.13 1.203 5.345 3.788a.318.318 0 01-.185.315.31.31 0 01-.126.026h-1.392a.308.308 0 01-.3-.244c-.336-1.498-1.146-1.978-3.348-1.978-2.465 0-2.752.867-2.752 1.518 0 .788.338 1.018 3.664 1.463C27.436 19.329 29 19.953 29 22.29c0 2.358-1.948 3.71-5.343 3.71"/></g></g><defs><clipPath id="clip0_216_180"><path fill="#fff" d="M0 0h40v40H0z"/></clipPath></defs></svg>