<svg width="40" height="40" fill="none" xmlns="http://www.w3.org/2000/svg"><g clip-path="url(#clip0_216_162)"><mask id="a" style="mask-type:luminance" maskUnits="userSpaceOnUse" x="0" y="0" width="40" height="40"><path d="M40 0H0v40h40V0z" fill="#fff"/></mask><g mask="url(#a)"><path d="M35.126 20.336c0-1.983-2.5-3.863-6.331-5.029.884-3.882.491-6.97-1.24-7.96-.4-.231-.866-.34-1.376-.34v1.36c.282 0 .51.055.7.159.835.476 1.197 2.289.915 4.62a18.67 18.67 0 01-.313 1.795 29.919 29.919 0 00-3.9-.666 29.815 29.815 0 00-2.554-3.051c2.002-1.85 3.88-2.863 5.158-2.863V7c-1.689 0-3.9 1.196-6.134 3.271-2.236-2.062-4.446-3.247-6.135-3.247v1.362c1.271 0 3.156 1.007 5.158 2.844a28.86 28.86 0 00-2.536 3.045 28.83 28.83 0 00-3.905.672 18.27 18.27 0 01-.32-1.77c-.288-2.332.068-4.144.897-4.627.184-.11.424-.158.706-.158V7.03c-.516 0-.982.11-1.388.341-1.725.99-2.112 4.071-1.222 7.941C7.486 16.485 5 18.36 5 20.336c0 1.984 2.5 3.864 6.331 5.03-.884 3.882-.491 6.97 1.24 7.959.4.232.866.342 1.382.342 1.689 0 3.9-1.197 6.134-3.272 2.236 2.063 4.446 3.247 6.135 3.247.516 0 .982-.11 1.388-.342 1.725-.988 2.112-4.07 1.222-7.94 3.807-1.166 6.294-3.046 6.294-5.024zm-7.995-4.07a27.15 27.15 0 01-.83 2.41 32.92 32.92 0 00-1.689-2.893c.873.128 1.714.287 2.519.482zm-2.813 6.5c-.479.824-.97 1.605-1.48 2.331a32.16 32.16 0 01-5.538.006 33.648 33.648 0 01-1.486-2.32c-.467-.799-.89-1.61-1.278-2.428a32.48 32.48 0 012.75-4.767 32.123 32.123 0 015.54-.006 33.67 33.67 0 011.486 2.319c.467.8.89 1.611 1.277 2.43a34.23 34.23 0 01-1.27 2.435zm1.984-.794c.331.818.614 1.636.847 2.43a27.72 27.72 0 01-2.53.488 33.37 33.37 0 001.683-2.917zm-6.227 6.513a25.173 25.173 0 01-1.707-1.953 38.11 38.11 0 001.689.042c.577 0 1.148-.012 1.707-.043a23.84 23.84 0 01-1.689 1.954zm-4.568-3.595a27.87 27.87 0 01-2.518-.483c.227-.787.51-1.599.829-2.41.252.488.516.976.804 1.464.289.489.584.965.885 1.429zm4.537-12.702a25.232 25.232 0 011.708 1.953 38.268 38.268 0 00-1.69-.043c-.576 0-1.147.013-1.706.043a23.856 23.856 0 011.688-1.953zM15.5 15.783a33.67 33.67 0 00-1.682 2.912 26.044 26.044 0 01-.848-2.43 30.053 30.053 0 012.53-.482zm-5.557 7.642c-2.174-.922-3.58-2.13-3.58-3.089 0-.958 1.406-2.172 3.58-3.088a18.978 18.978 0 011.701-.617 29.2 29.2 0 001.382 3.718 28.766 28.766 0 00-1.363 3.698 18.725 18.725 0 01-1.72-.622zm3.304 8.722c-.835-.476-1.198-2.289-.915-4.62.067-.574.178-1.179.313-1.795a29.94 29.94 0 003.9.665 29.836 29.836 0 002.554 3.052c-2.002 1.85-3.881 2.863-5.158 2.863a1.473 1.473 0 01-.694-.165zm14.565-4.651c.289 2.332-.067 4.144-.896 4.627-.184.11-.424.158-.706.158-1.271 0-3.157-1.007-5.159-2.844a28.88 28.88 0 002.537-3.046 28.845 28.845 0 003.905-.671c.141.616.252 1.208.32 1.776zm2.364-4.071a18.92 18.92 0 01-1.7.616 29.193 29.193 0 00-1.382-3.717 28.802 28.802 0 001.363-3.699c.608.19 1.185.397 1.726.623 2.173.922 3.58 2.13 3.58 3.088-.007.959-1.413 2.173-3.586 3.089z" fill="#61DAFB"/><path d="M20.057 23.126a2.798 2.798 0 002.806-2.79c0-1.54-1.256-2.79-2.806-2.79a2.798 2.798 0 00-2.806 2.79c0 1.54 1.256 2.79 2.806 2.79z" fill="#61DAFB"/><mask id="b" style="mask-type:luminance" maskUnits="userSpaceOnUse" x="5" y="5" width="30" height="30"><path d="M35 5H5v30h30V5z" fill="#fff"/></mask><g mask="url(#b)"><path d="M5 5h30v30H5V5z" fill="#F0DB4F"/><path d="M32.544 27.845c-.22-1.369-1.112-2.518-3.755-3.59-.919-.422-1.942-.725-2.247-1.42-.109-.405-.123-.634-.055-.879.197-.795 1.147-1.043 1.9-.815.485.162.944.536 1.22 1.132 1.295-.839 1.292-.833 2.196-1.409-.33-.513-.508-.75-.724-.97-.779-.87-1.84-1.317-3.536-1.283l-.884.114c-.847.214-1.654.659-2.128 1.255-1.42 1.611-1.015 4.432.713 5.592 1.703 1.278 4.204 1.569 4.523 2.764.31 1.463-1.075 1.936-2.453 1.768-1.015-.211-1.58-.728-2.19-1.666-1.123.65-1.123.65-2.278 1.315.274.599.562.87 1.02 1.389 2.174 2.204 7.612 2.096 8.587-1.24.04-.115.302-.88.091-2.057zM21.31 18.788h-2.806c0 2.424-.012 4.83-.012 7.255 0 1.543.08 2.957-.17 3.39-.412.853-1.475.748-1.96.582-.493-.242-.744-.587-1.035-1.075-.08-.14-.14-.248-.16-.257-.761.465-1.52.933-2.281 1.398.38.778.938 1.454 1.654 1.893 1.07.642 2.506.839 4.01.494.977-.286 1.822-.876 2.264-1.774.638-1.178.501-2.604.496-4.18.014-2.573 0-5.145 0-7.726z" fill="#323330"/></g></g></g><defs><clipPath id="clip0_216_162"><path fill="#fff" d="M0 0h40v40H0z"/></clipPath></defs></svg>