<svg width="40" height="40" fill="none" xmlns="http://www.w3.org/2000/svg"><path d="M32.67 27.501c.203-.362.33-.77.33-1.137V13.638c0-.366-.127-.774-.33-1.136L20 20.002l12.67 7.5z" fill="#00599C"/><path d="M21.126 34.725l10.748-6.363c.31-.183.591-.5.795-.862L20 20 7.332 27.5c.204.363.485.68.795.863l10.748 6.362c.62.367 1.633.367 2.252 0z" fill="#004482"/><path d="M32.67 12.5c-.205-.363-.486-.68-.796-.862L21.126 5.275c-.62-.367-1.633-.367-2.252 0L8.126 11.638C7.506 12.004 7 12.904 7 13.637v12.725c0 .367.127.775.33 1.138L20 20l12.67-7.5z" fill="#659AD2"/><path d="M20 28.887c-4.78 0-8.667-3.986-8.667-8.886 0-4.9 3.888-8.886 8.667-8.886 3.083 0 5.96 1.701 7.505 4.44l-3.75 2.225c-.774-1.37-2.213-2.222-3.755-2.222-2.39 0-4.334 1.993-4.334 4.443 0 2.45 1.944 4.443 4.334 4.443 1.542 0 2.98-.852 3.755-2.223l3.75 2.225c-1.546 2.74-4.421 4.441-7.505 4.441z" fill="#fff"/><path d="M27.704 18.52h-.963v.987h-.963v.987h.963v.988h.963v-.988h.963v-.987h-.963v-.988zm3.61 0h-.962v.987h-.963v.987h.963v.988h.963v-.988h.963v-.987h-.963v-.988z" fill="#fff"/></svg>