<svg width="40" height="40" fill="none" xmlns="http://www.w3.org/2000/svg"><mask id="a" style="mask-type:luminance" maskUnits="userSpaceOnUse" x="7" y="5" width="27" height="30"><path d="M34 5H7v30h27V5z" fill="#fff"/></mask><g mask="url(#a)"><path d="M33.955 13.797c0-.503-.11-.948-.33-1.33-.216-.374-.54-.689-.975-.938-3.589-2.043-7.18-4.08-10.768-6.126-.967-.552-1.905-.532-2.865.028-1.428.832-8.58 4.878-10.71 6.097-.878.502-1.305 1.27-1.306 2.268L7 26.126c0 .492.105.928.315 1.304.217.386.545.71.99.964 2.131 1.219 9.283 5.265 10.712 6.097.96.56 1.898.58 2.865.028 3.588-2.046 7.18-4.083 10.769-6.127.445-.254.773-.577.99-.963.21-.376.315-.812.315-1.304 0 0 0-8.218-.002-12.328z" fill="#A179DC"/><path d="M20.519 19.92L7.315 27.43c.216.386.545.71.99.964 2.131 1.219 9.283 5.265 10.711 6.097.96.56 1.898.58 2.866.028 3.587-2.046 7.18-4.083 10.769-6.127.444-.254.773-.577.99-.963L20.519 19.92z" fill="#280068"/><path d="M33.954 13.797c0-.503-.109-.948-.33-1.33L20.52 19.922l13.122 7.508c.21-.376.315-.812.315-1.304 0 0 0-8.218-.002-12.328z" fill="#390091"/><path d="M28.293 17.114v1.403h1.421v-1.403h.71v1.403h1.422v.702h-1.421v1.403h1.42v.702h-1.42v1.404h-.71v-1.404h-1.422v1.404h-.71v-1.404h-1.421v-.702h1.42V19.22h-1.42v-.702h1.42v-1.403h.711zm1.421 2.105h-1.42v1.403h1.42V19.22z" fill="#fff"/><path d="M20.548 10.065c3.707 0 6.943 1.989 8.677 4.944l-.018-.029-4.36 2.48a4.998 4.998 0 00-4.242-2.426h-.057c-2.755 0-4.989 2.206-4.989 4.927 0 .89.24 1.724.658 2.445a4.997 4.997 0 004.331 2.483 4.997 4.997 0 004.348-2.512l-.02.036 4.354 2.492a10.037 10.037 0 01-8.57 4.951l-.112.001c-3.718 0-6.963-2-8.692-4.971a9.758 9.758 0 01-1.327-4.925c0-5.465 4.486-9.896 10.02-9.896z" fill="#fff"/></g></svg>