<svg width="61" height="40" fill="none" xmlns="http://www.w3.org/2000/svg"><path d="M10.58 16.6c-.092 0-.115-.045-.069-.113l.48-.607c.046-.067.16-.112.251-.112h8.156c.092 0 .114.067.069.135l-.389.584c-.045.068-.16.135-.228.135l-8.27-.023zm-3.45 2.067c-.091 0-.114-.045-.069-.112l.48-.607c.046-.068.16-.113.252-.113H18.21c.092 0 .137.068.114.135l-.182.54c-.023.09-.114.134-.206.134l-10.806.023zm5.529 2.067c-.092 0-.115-.067-.069-.135l.32-.561c.046-.068.137-.135.229-.135h4.569c.091 0 .137.067.137.157l-.046.54c0 .09-.091.157-.16.157l-4.98-.023zm23.714-4.539c-1.44.36-2.422.63-3.838.989-.343.09-.366.112-.663-.225-.342-.382-.594-.63-1.073-.854-1.44-.697-2.833-.494-4.136.337-1.553.989-2.353 2.45-2.33 4.27.023 1.798 1.28 3.28 3.084 3.528 1.554.202 2.856-.337 3.884-1.483.206-.247.389-.517.617-.832h-4.41c-.479 0-.593-.292-.433-.674.297-.697.845-1.865 1.165-2.45a.617.617 0 01.571-.359h8.316c-.046.607-.046 1.214-.137 1.82a9.5 9.5 0 01-1.873 4.405c-1.645 2.135-3.793 3.46-6.512 3.82-2.239.292-4.318-.135-6.145-1.483-1.69-1.259-2.65-2.921-2.902-4.989-.297-2.45.434-4.651 1.942-6.584 1.622-2.09 3.77-3.416 6.397-3.888 2.148-.382 4.204-.134 6.054 1.102 1.211.786 2.08 1.865 2.65 3.168.138.202.046.315-.228.382z" fill="#00ACD7"/><path d="M43.935 28.622c-2.079-.045-3.975-.63-5.574-1.978-1.348-1.146-2.194-2.606-2.468-4.337-.41-2.54.297-4.786 1.85-6.786 1.669-2.157 3.68-3.281 6.398-3.753 2.33-.404 4.523-.18 6.511 1.146 1.805 1.214 2.924 2.854 3.221 5.011.389 3.034-.502 5.506-2.627 7.618-1.508 1.506-3.358 2.45-5.483 2.877-.617.112-1.234.134-1.828.202zm5.438-9.079c-.023-.292-.023-.517-.069-.741-.411-2.225-2.49-3.483-4.66-2.989-2.125.472-3.496 1.798-3.999 3.91-.41 1.753.457 3.528 2.102 4.247 1.257.54 2.513.472 3.724-.135 1.805-.921 2.787-2.36 2.902-4.292z" fill="#00ACD7"/></svg>