<svg width="40" height="40" fill="none" xmlns="http://www.w3.org/2000/svg"><g clip-path="url(#clip0_216_206)"><mask id="a" style="mask-type:luminance" maskUnits="userSpaceOnUse" x="0" y="0" width="40" height="40"><path d="M40 0H0v40h40V0z" fill="#fff"/></mask><g mask="url(#a)"><mask id="b" style="mask-type:luminance" maskUnits="userSpaceOnUse" x="7" y="7" width="26" height="26"><path d="M33 7H7v26h26V7z" fill="#fff"/></mask><g mask="url(#b)" fill-rule="evenodd" clip-rule="evenodd"><path d="M27.143 24.161L12.3 33.001l19.22-1.309L33 12.257l-5.856 11.904z" fill="url(#paint0_linear_216_206)"/><path d="M31.551 31.679L29.9 20.245l-4.5 5.958 6.152 5.476z" fill="url(#paint1_linear_216_206)"/><path d="M31.573 31.679l-12.102-.953-7.108 2.25 19.21-1.297z" fill="url(#paint2_linear_216_206)"/><path d="M12.38 32.977l3.024-9.932L8.75 24.47l3.63 8.506z" fill="url(#paint3_linear_216_206)"/><path d="M25.398 26.236l-2.782-10.927-7.962 7.483 10.744 3.444z" fill="url(#paint4_linear_216_206)"/><path d="M32.369 15.463l-7.526-6.164-2.096 6.794 9.622-.63z" fill="url(#paint5_linear_216_206)"/><path d="M28.85 7.101l-4.427 2.453-2.793-2.486 7.22.033z" fill="url(#paint6_linear_216_206)"/><path d="M7 27.804l1.854-3.392-1.5-4.04L7 27.805z" fill="url(#paint7_linear_216_206)"/><path d="M7.254 20.245l1.51 4.292 6.557-1.475 7.486-6.977 2.113-6.73L21.593 7l-5.655 2.123c-1.782 1.662-5.24 4.95-5.365 5.012-.123.063-2.283 4.157-3.319 6.11z" fill="#fff"/><path d="M12.553 12.533c3.863-3.84 8.841-6.108 10.752-4.175 1.91 1.933-.116 6.63-3.977 10.47-3.862 3.838-8.78 6.232-10.689 4.299-1.91-1.932.053-6.755 3.915-10.594z" fill="url(#paint8_linear_216_206)"/><path d="M12.38 32.973l3-9.964 9.963 3.21c-3.602 3.387-7.609 6.25-12.963 6.754z" fill="url(#paint9_linear_216_206)"/><path d="M22.82 16.065l2.558 10.16c3.01-3.173 5.71-6.584 7.033-10.803l-9.59.643z" fill="url(#paint10_linear_216_206)"/><path d="M32.385 15.473c1.023-3.098 1.26-7.541-3.567-8.367L24.858 9.3l7.527 6.173z" fill="url(#paint11_linear_216_206)"/><path d="M7 27.759c.142 5.112 3.82 5.188 5.387 5.233l-3.62-8.476L7 27.76z" fill="#9E1209"/><path d="M22.835 16.081a2211 2211 0 007.067 4.34c.146.083 2.009-3.149 2.431-4.975l-9.498.635z" fill="url(#paint12_radial_216_206)"/><path d="M15.376 23.01l4.01 7.758c2.372-1.29 4.228-2.86 5.93-4.544l-9.94-3.215z" fill="url(#paint13_radial_216_206)"/><path d="M8.752 24.527l-.568 6.784c1.072 1.47 2.547 1.597 4.094 1.482-1.12-2.793-3.356-8.38-3.526-8.266z" fill="url(#paint14_linear_216_206)"/><path d="M24.834 9.318l7.967 1.12c-.425-1.806-1.731-2.972-3.957-3.336l-4.01 2.216z" fill="url(#paint15_linear_216_206)"/></g></g></g><defs><linearGradient id="paint0_linear_216_206" x1="29.843" y1="35.365" x2="24.335" y2="25.667" gradientUnits="userSpaceOnUse"><stop stop-color="#FB7655"/><stop offset=".41" stop-color="#E42B1E"/><stop offset=".99" stop-color="#900"/><stop offset="1" stop-color="#900"/></linearGradient><linearGradient id="paint1_linear_216_206" x1="32.576" y1="27.207" x2="25.495" y2="22.468" gradientUnits="userSpaceOnUse"><stop stop-color="#871101"/><stop offset=".99" stop-color="#911209"/><stop offset="1" stop-color="#911209"/></linearGradient><linearGradient id="paint2_linear_216_206" x1="26.92" y1="35.659" x2="19.839" y2="30.92" gradientUnits="userSpaceOnUse"><stop stop-color="#871101"/><stop offset=".99" stop-color="#911209"/><stop offset="1" stop-color="#911209"/></linearGradient><linearGradient id="paint3_linear_216_206" x1="12.078" y1="23.764" x2="13.18" y2="30.904" gradientUnits="userSpaceOnUse"><stop stop-color="#fff"/><stop offset=".23" stop-color="#E57252"/><stop offset=".46" stop-color="#DE3B20"/><stop offset=".99" stop-color="#A60003"/><stop offset="1" stop-color="#A60003"/></linearGradient><linearGradient id="paint4_linear_216_206" x1="19.615" y1="17.095" x2="20.021" y2="24.383" gradientUnits="userSpaceOnUse"><stop stop-color="#fff"/><stop offset=".23" stop-color="#E4714E"/><stop offset=".56" stop-color="#BE1A0D"/><stop offset=".99" stop-color="#A80D00"/><stop offset="1" stop-color="#A80D00"/></linearGradient><linearGradient id="paint5_linear_216_206" x1="26.304" y1="10.358" x2="27.519" y2="15.58" gradientUnits="userSpaceOnUse"><stop stop-color="#fff"/><stop offset=".18" stop-color="#E46342"/><stop offset=".4" stop-color="#C82410"/><stop offset=".99" stop-color="#A80D00"/><stop offset="1" stop-color="#A80D00"/></linearGradient><linearGradient id="paint6_linear_216_206" x1="22.613" y1="8.519" x2="27.827" y2="5.919" gradientUnits="userSpaceOnUse"><stop stop-color="#fff"/><stop offset=".54" stop-color="#C81F11"/><stop offset=".99" stop-color="#BF0905"/><stop offset="1" stop-color="#BF0905"/></linearGradient><linearGradient id="paint7_linear_216_206" x1="7.512" y1="21.943" x2="7.943" y2="26.247" gradientUnits="userSpaceOnUse"><stop stop-color="#fff"/><stop offset=".31" stop-color="#DE4024"/><stop offset=".99" stop-color="#BF190B"/><stop offset="1" stop-color="#BF190B"/></linearGradient><linearGradient id="paint8_linear_216_206" x1="4.565" y1="27.41" x2="24.775" y2="6.686" gradientUnits="userSpaceOnUse"><stop stop-color="#BD0012"/><stop offset=".07" stop-color="#fff"/><stop offset=".17" stop-color="#fff"/><stop offset=".27" stop-color="#C82F1C"/><stop offset=".33" stop-color="#820C01"/><stop offset=".46" stop-color="#A31601"/><stop offset=".72" stop-color="#B31301"/><stop offset=".99" stop-color="#E82609"/><stop offset="1" stop-color="#E82609"/></linearGradient><linearGradient id="paint9_linear_216_206" x1="20.001" y1="29.506" x2="13.929" y2="28.012" gradientUnits="userSpaceOnUse"><stop stop-color="#8C0C01"/><stop offset=".54" stop-color="#990C00"/><stop offset=".99" stop-color="#A80D0E"/><stop offset="1" stop-color="#A80D0E"/></linearGradient><linearGradient id="paint10_linear_216_206" x1="30.427" y1="22.201" x2="25.022" y2="17.369" gradientUnits="userSpaceOnUse"><stop stop-color="#7E110B"/><stop offset=".99" stop-color="#9E0C00"/><stop offset="1" stop-color="#9E0C00"/></linearGradient><linearGradient id="paint11_linear_216_206" x1="32.409" y1="13.308" x2="29.715" y2="10.436" gradientUnits="userSpaceOnUse"><stop stop-color="#79130D"/><stop offset=".99" stop-color="#9E120B"/><stop offset="1" stop-color="#9E120B"/></linearGradient><linearGradient id="paint14_linear_216_206" x1="10.5" y1="32.968" x2="8.299" y2="25.524" gradientUnits="userSpaceOnUse"><stop stop-color="#8B2114"/><stop offset=".43" stop-color="#9E100A"/><stop offset=".99" stop-color="#B3100C"/><stop offset="1" stop-color="#B3100C"/></linearGradient><linearGradient id="paint15_linear_216_206" x1="27.293" y1="8.29" x2="32.205" y2="10.452" gradientUnits="userSpaceOnUse"><stop stop-color="#B31000"/><stop offset=".44" stop-color="#910F08"/><stop offset=".99" stop-color="#791C12"/><stop offset="1" stop-color="#791C12"/></linearGradient><radialGradient id="paint12_radial_216_206" cx="0" cy="0" r="1" gradientUnits="userSpaceOnUse" gradientTransform="matrix(6.60828 0 0 6.62667 25.875 17.447)"><stop stop-color="#A80D00"/><stop offset=".99" stop-color="#7E0E08"/><stop offset="1" stop-color="#7E0E08"/></radialGradient><radialGradient id="paint13_radial_216_206" cx="0" cy="0" r="1" gradientUnits="userSpaceOnUse" gradientTransform="matrix(8.78482 0 0 8.80927 16.723 26.18)"><stop stop-color="#A30C00"/><stop offset=".99" stop-color="#800E08"/><stop offset="1" stop-color="#800E08"/></radialGradient><clipPath id="clip0_216_206"><path fill="#fff" d="M0 0h40v40H0z"/></clipPath></defs></svg>