<svg width="47" height="47" fill="none" xmlns="http://www.w3.org/2000/svg"><g clip-path="url(#clip0_47_207)"><path d="M43.083 31.334a.783.783 0 00-.783.783v13.316h-5.483a.783.783 0 100 1.567h6.266a.783.783 0 00.784-.783v-14.1a.783.783 0 00-.784-.783z" fill="#000"/><path d="M40.733 38.383v-6.266a.783.783 0 00-.783-.783h-4.7a.783.783 0 00-.783.783v6.266c0 .433.35.784.783.784h4.7a.783.783 0 00.783-.784zm-1.566-.783h-3.134v-4.7h3.133v4.7zM30.55 13.317c.433 0 .783-.35.783-.783V8.617a.783.783 0 00-.783-.783H7.05a.783.783 0 00-.783.783v27.416a.783.783 0 101.566 0v-1.566h.784a.783.783 0 100-1.567h-.784v-4.7h3.134v3.134a.783.783 0 101.566 0V28.2h3.134a.783.783 0 00.783-.783.783.783 0 00.783-.783v-4.7h3.133a.783.783 0 101.567 0 .783.783 0 100-1.567v-4.7h3.133v1.567a.783.783 0 101.567 0v-1.567H28.2a.783.783 0 100-1.567h-1.567V9.4h3.133v3.134c0 .432.35.783.784.783zM10.967 26.634H7.833v-4.7h3.134v4.7zm0-6.267H7.833v-4.7h3.134v4.7zm0-6.267H7.833V9.4h3.134v4.7zm4.7 12.534h-3.133v-4.7h3.133v4.7zm0-6.267h-3.133v-4.7h3.133v4.7zm0-6.267h-3.133V9.4h3.133v4.7zm4.7 6.267h-3.134v-4.7h3.134v4.7zm0-6.267h-3.134V9.4h3.134v4.7zm4.7 0h-3.134V9.4h3.134v4.7z" fill="#2D6AFF"/><path d="M3.917 39.95a.783.783 0 00.783-.783v-32.9h5.483c.434 0 .784-.35.784-.783v-2.35h5.483a.783.783 0 00.783-.784v-.783h3.133v.783c0 .433.35.784.784.784h5.483V4.7H13.317a.783.783 0 100 1.567H32.9V9.4a.783.783 0 101.567 0V5.484a.783.783 0 00-.784-.784H28.2V2.35a.783.783 0 00-.783-.783h-5.484V.784A.783.783 0 0021.15 0h-4.7a.783.783 0 00-.783.784v.783h-5.483a.783.783 0 00-.784.783V4.7H3.917a.783.783 0 00-.783.784v33.683c0 .432.35.783.783.783zm42.3-22.716h-5.484v-.784a.783.783 0 00-.783-.783h-3.133a.783.783 0 00-.784.783v1.567a.783.783 0 101.567 0v-.783h1.567v.783c0 .432.35.783.783.783h5.483v10.643l-11.98-11.98a.782.782 0 10-1.107 1.108l13.317 13.316A.784.784 0 0047 31.333V18.017a.783.783 0 00-.783-.783zM33.683 43.867H25.85a.783.783 0 00-.783.783v.783h-7.834V34.467a.783.783 0 10-1.566 0v11.75c0 .432.35.783.783.783h9.4a.783.783 0 00.783-.783v-.784H32.9v.784a.783.783 0 101.567 0V44.65a.783.783 0 00-.784-.783zM46.77.23a.783.783 0 00-1.107 0L.23 45.663a.783.783 0 101.107 1.108L46.77 1.338a.783.783 0 000-1.108z" fill="#000"/><path d="M32.117 42.3c.433 0 .783-.35.783-.783v-9.4a.783.783 0 00-.783-.783h-4.7a.783.783 0 00-.784.783v9.4a.783.783 0 101.567 0V32.9h3.133v3.133h-.783a.783.783 0 100 1.567h.783v3.917c0 .432.35.783.784.783z" fill="#000"/><path d="M19.584 31.334a.783.783 0 00-.784.783v6.266c0 .433.35.784.784.784h4.7a.783.783 0 00.783-.784v-6.266a.783.783 0 00-.784-.783h-4.7zM23.5 37.6h-3.133v-4.7H23.5v4.7z" fill="#2D6AFF"/></g><defs><clipPath id="clip0_47_207"><path fill="#fff" d="M0 0h47v47H0z"/></clipPath></defs></svg>