<svg width="66" height="66" fill="none" xmlns="http://www.w3.org/2000/svg"><g clip-path="url(#clip0_47_106)"><path d="M47.645 16.365a20.534 20.534 0 00-14.615-6.052h-.006c-5.528.001-10.72 2.15-14.62 6.051-3.899 3.901-6.046 9.094-6.045 14.622a20.626 20.626 0 009.344 17.29 5.812 5.812 0 012.497 3.678v8.729a1.29 1.29 0 001.29 1.289 2.742 2.742 0 012.739 2.739c0 .712.576 1.289 1.288 1.289h7.026a1.29 1.29 0 001.289-1.29 2.742 2.742 0 012.74-2.738c.711 0 1.288-.577 1.288-1.29v-8.729a5.732 5.732 0 012.458-3.65 20.623 20.623 0 009.384-17.32 20.536 20.536 0 00-6.057-14.618zm-8.363 43.187a5.336 5.336 0 00-3.87 3.87h-4.764a5.336 5.336 0 00-3.87-3.87v-1.286h6.268a1.289 1.289 0 100-2.578h-6.268v-2.579h12.504v6.443zm3.626-13.408a8.304 8.304 0 00-3.337 4.387h-5.236v-5.2a1.289 1.289 0 10-2.578 0v5.2h-5.27a8.417 8.417 0 00-3.37-4.41 18.056 18.056 0 01-8.18-15.135c-.002-9.975 8.113-18.093 18.088-18.095h.005a17.97 17.97 0 0112.792 5.297 17.974 17.974 0 015.301 12.796 18.053 18.053 0 01-8.215 15.16zM33.03 7.734a1.29 1.29 0 001.29-1.289V1.29a1.289 1.289 0 10-2.579 0v5.156c0 .712.577 1.29 1.29 1.29zM8.508 29.711H3.352a1.289 1.289 0 100 2.579h5.156a1.29 1.29 0 000-2.579zm54.233-.032h-5.156a1.289 1.289 0 100 2.578h5.156a1.29 1.29 0 000-2.578zM14.795 47.435l-3.646 3.646a1.29 1.29 0 001.823 1.823l3.646-3.646a1.288 1.288 0 10-1.823-1.823zM50.386 14.91c.33 0 .66-.126.912-.378l3.646-3.645a1.29 1.29 0 10-1.824-1.824l-3.645 3.646a1.289 1.289 0 00.911 2.2zm-35.614-.355a1.285 1.285 0 001.823 0 1.29 1.29 0 000-1.823L12.95 9.086a1.29 1.29 0 00-1.823 1.824l3.646 3.645zM51.32 47.412a1.289 1.289 0 10-1.822 1.823l3.646 3.646a1.285 1.285 0 001.823 0 1.289 1.289 0 000-1.822l-3.646-3.647z" fill="#000"/><path d="M36.377 23.71h-1.07A1.29 1.29 0 0034.018 25v9.281c0 .712.577 1.29 1.29 1.29h1.07a5.937 5.937 0 005.929-5.93c0-3.27-2.66-5.93-5.93-5.93zm.22 9.275v-6.69a3.356 3.356 0 013.132 3.345 3.356 3.356 0 01-3.133 3.345zm-4.831.885l-3.123-9.282a1.29 1.29 0 00-2.444 0l-3.123 9.282a1.29 1.29 0 002.428.862h3.833a1.29 1.29 0 002.429-.862zm-4.345-4.828l1.047 3.111h-2.094l1.047-3.11z" fill="#2D6AFF"/><path d="M33.047 38.886a1.293 1.293 0 00-1.29 1.289c0 .339.139.672.378.912.24.24.573.377.912.377.339 0 .67-.138.911-.377.24-.242.378-.573.378-.912a1.293 1.293 0 00-1.289-1.289z" fill="#000"/></g><defs><clipPath id="clip0_47_106"><path fill="#fff" d="M0 0h66v66H0z"/></clipPath></defs></svg>