<svg width="58" height="58" fill="none" xmlns="http://www.w3.org/2000/svg"><mask id="a" style="mask-type:luminance" maskUnits="userSpaceOnUse" x="0" y="0" width="58" height="58"><path d="M0 0h58v58H0V0z" fill="#fff"/></mask><g mask="url(#a)" stroke-width="2" stroke-miterlimit="10" stroke-linecap="round" stroke-linejoin="round"><path d="M42.027.85H30.122c-3.048 0-5.52 2.463-5.52 5.502V16.54m2.284 13.933a5.506 5.506 0 003.236 1.044h10.34v5.014l6.555-5.014h2.828c3.048 0 5.52-2.463 5.52-5.502V6.352c0-3.039-2.472-5.502-5.52-5.502h-2.493" stroke="#000"/><path d="M35.73 23.452l.57.46a5.066 5.066 0 003.187 1.129h8.076c.765 0 1.382-.639 1.345-1.412-.034-.725.002-7.324.002-8.067 0-.744-.603-1.348-1.347-1.348l-5.477-.016.671-1.588a5.747 5.747 0 00-.304-5.086.896.896 0 00-1.675.445c0 1.424-.52 2.799-1.462 3.867l-3.492 3.951m-.197 8.88h-4.57V14.385h4.57v10.282z" stroke="#2D6AFF"/><path d="M2.636 27.414v8.573a4.346 4.346 0 004.352 4.34h8.545v3.99l5.168-3.99m6.063-3.284a4.32 4.32 0 00.13-1.056V20.482a4.346 4.346 0 00-4.353-4.34H6.988a4.346 4.346 0 00-4.352 4.34v1.834m6.425 4.271H20.47M9.061 30.36H20.47m-2.876-7.59l-1.886 11.407M13.822 22.77l-1.886 11.407m26.466 10.229v-4.17a3.085 3.085 0 00-3.089-3.08H24.276a3.084 3.084 0 00-3.088 3.08v11.003c0 1.7 1.382 3.08 3.088 3.08h6.064v2.831l3.668-2.832h1.305a3.084 3.084 0 003.09-3.08V49.73" stroke="#000"/><path d="M29.795 49.476c2.656-1.408 4.032-2.606 4.032-4.462 0-2.56-3.136-3.2-4.032-1.28-1.024-1.984-4.032-1.28-4.032 1.28 0 1.856 1.376 3.054 4.032 4.462z" stroke="#2D6AFF"/></g></svg>