<svg width="61" height="61" fill="none" xmlns="http://www.w3.org/2000/svg"><path d="M42.057 40.998a1.192 1.192 0 00-1.685.017l-.034.035a1.192 1.192 0 001.702 1.668l.034-.035c.46-.47.453-1.224-.017-1.685z" fill="#000"/><path d="M54.873 28.508h-3.166v-3.166a1.191 1.191 0 10-2.383 0v3.166h-3.166a1.191 1.191 0 100 2.382h3.166v3.166a1.191 1.191 0 102.383 0V30.89h3.166a1.191 1.191 0 100-2.382z" fill="#2D6AFF"/><path d="M54.41 19.965c-1.112-8.224-7.987-14.377-16.148-14.377-4.12 0-7.973 1.535-10.979 4.35-3.005-2.815-6.859-4.35-10.979-4.35C7.315 5.588 0 13.076 0 22.28c0 1.819.53 3.857 1.586 6.107h-.395a1.191 1.191 0 100 2.383h1.664c2.225 3.768 5.744 8.052 10.542 12.823C19.9 50.058 26.494 55.117 26.56 55.167a1.189 1.189 0 001.447 0c.05-.038 5.093-3.905 10.682-9.174a1.191 1.191 0 10-1.635-1.734 155.69 155.69 0 01-9.77 8.45c-1.87-1.48-7.078-5.704-12.224-10.823-4.12-4.098-7.273-7.833-9.406-11.116H16.32c.532 0 1-.352 1.146-.863l2.081-7.255 5.765 18.469a1.192 1.192 0 002.274 0L30.78 30.89h5.319a1.191 1.191 0 100-2.383h-6.196c-.52 0-.982.339-1.137.836l-2.316 7.423-5.813-18.622a1.192 1.192 0 00-2.283.027l-2.93 10.217H4.243c-1.231-2.326-1.861-4.375-1.861-6.108 0-7.89 6.245-14.31 13.921-14.31 3.859 0 7.447 1.586 10.104 4.466a1.191 1.191 0 001.75 0c2.658-2.88 6.246-4.466 10.104-4.466 6.637 0 12.28 4.787 13.62 11.334-.447-.059-.903-.09-1.366-.09-5.782 0-10.485 4.704-10.485 10.485s4.703 10.484 10.485 10.484C56.296 40.183 61 35.48 61 29.7c0-4.405-2.731-8.184-6.59-9.734zm-3.894 17.836c-4.468 0-8.102-3.635-8.102-8.102 0-4.467 3.634-8.102 8.102-8.102 4.467 0 8.101 3.635 8.101 8.102 0 4.467-3.634 8.102-8.101 8.102z" fill="#000"/></svg>