<svg width="52" height="52" fill="none" xmlns="http://www.w3.org/2000/svg"><g clip-path="url(#clip0_47_195)"><path d="M39 52c-.143 0-.286-.028-.42-.085C38.064 51.697 26 46.484 26 35.828v-9.055c0-.465.297-.877.737-1.027l11.916-4.023c.226-.076.47-.076.694 0l11.916 4.023c.44.148.737.562.737 1.027v9.055c0 10.656-12.064 15.869-12.58 16.087A1.087 1.087 0 0139 52zM28.167 27.553v8.275c0 8.199 8.785 12.909 10.833 13.895 2.045-.988 10.833-5.718 10.833-13.895v-8.275L39 23.893l-10.833 3.66z" fill="#2D6AFF"/><path d="M37.917 41.167c-.02 0-.042 0-.059-.003a1.075 1.075 0 01-.786-.405l-4.334-5.416a1.084 1.084 0 01.17-1.524 1.092 1.092 0 011.522.17l3.575 4.47 6.728-6.726a1.084 1.084 0 011.532 1.532l-7.584 7.583a1.08 1.08 0 01-.764.319z" fill="#2D6AFF"/><path d="M40.083 17.333h-32.5C3.402 17.333 0 13.932 0 9.75s3.402-7.583 7.583-7.583h32.5c4.182 0 7.584 3.401 7.584 7.583s-3.402 7.583-7.584 7.583zm-32.5-13A5.421 5.421 0 002.167 9.75a5.421 5.421 0 005.416 5.417h32.5A5.421 5.421 0 0045.5 9.75a5.421 5.421 0 00-5.417-5.417h-32.5z" fill="#000"/><path d="M9.75 13A3.254 3.254 0 016.5 9.75 3.254 3.254 0 019.75 6.5 3.254 3.254 0 0113 9.75 3.254 3.254 0 019.75 13zm0-4.333c-.596 0-1.083.487-1.083 1.083s.487 1.083 1.083 1.083 1.083-.487 1.083-1.083-.487-1.083-1.083-1.083zM20.583 13a3.254 3.254 0 01-3.25-3.25 3.254 3.254 0 013.25-3.25 3.254 3.254 0 013.25 3.25 3.254 3.254 0 01-3.25 3.25zm0-4.333c-.596 0-1.083.487-1.083 1.083s.487 1.083 1.083 1.083 1.084-.487 1.084-1.083-.488-1.083-1.084-1.083zm0 21.666h-13C3.402 30.333 0 26.932 0 22.75a7.53 7.53 0 012.223-5.36 7.53 7.53 0 015.36-2.223h32.5a7.43 7.43 0 014.611 1.573 1.083 1.083 0 11-1.333 1.71 5.276 5.276 0 00-3.278-1.117h-32.5a5.39 5.39 0 00-3.828 1.589 5.377 5.377 0 00-1.588 3.828 5.421 5.421 0 005.416 5.417h13a1.084 1.084 0 010 2.166z" fill="#000"/><path d="M9.75 26a3.254 3.254 0 01-3.25-3.25 3.254 3.254 0 013.25-3.25A3.254 3.254 0 0113 22.75 3.254 3.254 0 019.75 26zm0-4.333c-.596 0-1.083.487-1.083 1.083s.487 1.083 1.083 1.083 1.083-.487 1.083-1.083-.487-1.083-1.083-1.083zM20.583 26a3.254 3.254 0 01-3.25-3.25 3.254 3.254 0 013.25-3.25 3.254 3.254 0 013.25 3.25 3.254 3.254 0 01-3.25 3.25zm0-4.333c-.596 0-1.083.487-1.083 1.083s.487 1.083 1.083 1.083 1.084-.487 1.084-1.083-.488-1.083-1.084-1.083zm0 21.666h-13C3.402 43.333 0 39.932 0 35.75a7.53 7.53 0 012.223-5.36 7.53 7.53 0 015.36-2.223h13a1.084 1.084 0 010 2.166h-13a5.39 5.39 0 00-3.828 1.589 5.377 5.377 0 00-1.588 3.828 5.421 5.421 0 005.416 5.417h13a1.084 1.084 0 010 2.166z" fill="#000"/><path d="M9.75 39a3.254 3.254 0 01-3.25-3.25 3.254 3.254 0 013.25-3.25A3.254 3.254 0 0113 35.75 3.254 3.254 0 019.75 39zm0-4.333c-.596 0-1.083.487-1.083 1.083s.487 1.083 1.083 1.083 1.083-.487 1.083-1.083-.487-1.083-1.083-1.083zM20.583 39a3.254 3.254 0 01-3.25-3.25 3.254 3.254 0 013.25-3.25 3.254 3.254 0 013.25 3.25 3.254 3.254 0 01-3.25 3.25zm0-4.333c-.596 0-1.083.487-1.083 1.083s.487 1.083 1.083 1.083 1.084-.487 1.084-1.083-.488-1.083-1.084-1.083z" fill="#000"/></g><defs><clipPath id="clip0_47_195"><path fill="#fff" d="M0 0h52v52H0z"/></clipPath></defs></svg>