<svg width="63" height="63" fill="none" xmlns="http://www.w3.org/2000/svg"><path d="M54.199 19.734c-.371-7.69-7.968-12.878-15.102-10.84-1.945-4.169-6.207-6.948-10.84-6.948-5.836 0-10.932 4.354-11.766 10.098a9.533 9.533 0 00-8.153 7.968c-3.984 1.297-6.67 4.91-6.67 9.172 0 5.28 4.261 9.635 9.635 9.635h4.725c.556 0 .927-.37.927-.926s-.371-.927-.927-.927h-4.725c-4.262 0-7.782-3.52-7.782-7.782 0-3.52 2.408-6.67 5.836-7.505.371-.092.649-.463.742-.833.37-3.799 3.52-6.764 7.319-6.949a.83.83 0 00.834-.834c.463-5.095 4.817-9.172 10.005-9.172 4.17 0 7.968 2.687 9.45 6.578.186.463.742.741 1.205.556 6.485-2.409 13.526 2.501 13.526 9.45v.185c0 .463.37.834.741.927 3.706.648 6.393 3.798 6.393 7.597 0 4.262-3.52 7.782-7.782 7.782h-4.725c-.556 0-.927.37-.927.927 0 .556.37.926.927.926h4.725c5.28 0 9.635-4.262 9.635-9.635-.093-4.54-3.057-8.338-7.226-9.45z" fill="#000"/><path d="M23.718 11.303c.648-1.853 2.409-3.057 4.354-3.057 1.483 0 2.78.648 3.706 1.852.278.371.927.464 1.297.186.37-.278.463-.927.185-1.297-1.204-1.668-3.15-2.594-5.188-2.594-2.687 0-5.188 1.76-6.114 4.261-.186.464.092 1.02.555 1.205.464.185 1.02-.093 1.205-.556zM7.875 28.72c0-.555-.37-.926-.926-.926s-.927.37-.927.927a5.812 5.812 0 005.837 5.836c.556 0 .927-.37.927-.926s-.371-.926-.927-.926c-2.224 0-3.984-1.853-3.984-3.984z" fill="#000"/><path d="M18.807 20.846v20.752h-7.782a3.717 3.717 0 00-3.706 3.706v3.891c-1.297.371-2.316 1.668-2.316 3.058 0 1.76 1.482 3.242 3.243 3.242 1.76 0 3.242-1.482 3.242-3.242 0-1.483-1.019-2.687-2.316-3.058v-3.89c0-1.02.834-1.854 1.853-1.854h7.782v1.39c0 3.15 5.466 4.91 11.303 5.096v3.89c-1.575.371-2.78 1.854-2.78 3.521a3.717 3.717 0 003.707 3.706 3.717 3.717 0 003.706-3.706c0-1.76-1.205-3.15-2.78-3.613v-3.891c6.208-.093 12.322-1.853 12.322-5.188v-1.39h7.783c1.019 0 1.853.834 1.853 1.853v3.891c-1.297.37-2.317 1.668-2.317 3.058 0 1.76 1.483 3.242 3.243 3.242 1.76 0 3.243-1.482 3.243-3.242 0-1.483-1.02-2.687-2.317-3.058v-3.89a3.717 3.717 0 00-3.705-3.706h-7.783V20.66c0-3.428-6.392-5.188-12.692-5.188s-12.786 1.946-12.786 5.374zM9.543 52.252c0 .741-.649 1.39-1.39 1.39-.741 0-1.39-.649-1.39-1.39 0-.741.649-1.39 1.39-1.39.834 0 1.39.649 1.39 1.39zm46.601 0c0 .741-.648 1.39-1.39 1.39-.74 0-1.39-.649-1.39-1.39 0-.741.65-1.39 1.39-1.39.834 0 1.39.649 1.39 1.39zM42.34 37.059c0 1.39-4.262 3.335-10.84 3.335-6.67 0-10.84-1.946-10.84-3.335v-5.837c2.317 1.575 6.67 2.316 10.84 2.316 4.262 0 8.523-.834 10.84-2.316v5.837zm0-8.524c0 1.39-4.262 3.335-10.84 3.335-6.67 0-10.84-1.945-10.84-3.335v-4.91c2.317 1.575 6.578 2.316 10.84 2.316s8.523-.834 10.84-2.316v4.91zm-9.45 28.813c0 1.02-.834 1.853-1.853 1.853a1.858 1.858 0 01-1.853-1.853c0-1.019.834-1.852 1.853-1.852 1.019 0 1.853.833 1.853 1.852zm9.45-12.6c0 1.39-4.262 3.336-10.84 3.336-6.67 0-10.84-1.946-10.84-3.336v-4.91c2.317 1.575 6.67 2.316 10.84 2.316 4.262 0 8.523-.834 10.84-2.316v4.91zM31.5 17.51c6.67 0 10.84 1.946 10.84 3.335 0 1.39-4.262 3.336-10.84 3.336-6.67 0-10.84-1.946-10.84-3.335 0-1.39 4.17-3.336 10.84-3.336z" fill="#2D6AFF"/><path d="M25.57 27.33a9.48 9.48 0 01-1.945-.74c-.463-.186-1.02 0-1.204.463-.186.463 0 1.019.463 1.204.648.278 1.39.556 2.223.834.464.093 1.02-.185 1.112-.649.185-.463-.093-.926-.648-1.111zm0 8.061a9.48 9.48 0 01-1.945-.741c-.463-.185-1.02 0-1.204.463-.186.463 0 1.02.463 1.205.648.278 1.39.555 2.223.833.464.093 1.02-.185 1.112-.648a.822.822 0 00-.648-1.112zm0 7.968a9.474 9.474 0 01-1.945-.741c-.463-.186-1.02 0-1.204.463-.186.463 0 1.019.463 1.204.648.278 1.39.556 2.223.834.464.093 1.02-.185 1.112-.648.185-.464-.093-.927-.648-1.112z" fill="#000"/></svg>