<svg width="62" height="62" fill="none" xmlns="http://www.w3.org/2000/svg"><g clip-path="url(#clip0_47_99)"><path d="M58.67 7.88H42.333l-.051.003a16.7 16.7 0 00-1.928-1.559.909.909 0 00-1.034 1.494 14.853 14.853 0 016.407 12.21c0 8.182-6.657 14.839-14.838 14.839S16.052 28.21 16.052 20.029 22.707 5.19 30.889 5.19c1.624 0 3.22.26 4.744.775a.908.908 0 10.58-1.721 16.629 16.629 0 00-5.324-.87c-9.183 0-16.654 7.47-16.654 16.654 0 9.183 7.47 16.654 16.654 16.654 9.183 0 16.654-7.471 16.654-16.654 0-3.796-1.297-7.425-3.596-10.332H58.67c.835 0 1.514.679 1.514 1.513v28.585H53a.908.908 0 100 1.816h7.184v4.77c0 .835-.68 1.514-1.514 1.514H3.33a1.515 1.515 0 01-1.514-1.514v-4.77h46.61a.908.908 0 100-1.816H1.816V11.21c0-.834.68-1.513 1.514-1.513h10.83a.908.908 0 100-1.817H3.33A3.334 3.334 0 000 11.21v35.17a3.334 3.334 0 003.33 3.33h19.907v7.099h-2.741a.908.908 0 100 1.816h20.786a.908.908 0 100-1.816h-2.741V49.71H58.67A3.334 3.334 0 0062 46.38V11.21a3.334 3.334 0 00-3.33-3.33zM36.724 56.81h-11.67v-7.1h11.67v7.098z" fill="#000"/><path d="M24.418 12.774a2.177 2.177 0 00-2.138-1.772h-.971a.908.908 0 100 1.817h.971a.36.36 0 01.353.292l2.688 14.237c.08.429.456.74.892.74h.613a1.695 1.695 0 102.524 0h3.736a1.695 1.695 0 102.524 0h.818a.908.908 0 100-1.817h-9.462l-.37-1.963h10.149c.436 0 .81-.31.892-.739l1.612-8.504.003-.016a1.09 1.09 0 00-1.076-1.276h-13.57l-.188-.999zm1.354 7.175h2.478l.186 2.543h-2.183l-.48-2.543zm6.486 0l-.186 2.543h-1.815l-.186-2.543h2.187zm-2.32-1.817l-.185-2.542h2.824l-.186 2.542h-2.452zm3.955 4.36l.186-2.543h2.396l-.482 2.543h-2.1zm2.926-4.36h-2.607l.186-2.542h2.903l-.482 2.542zm-8.888-2.542l.186 2.542H25.43l-.48-2.542h2.982z" fill="#2D6AFF"/><path d="M5.916 33.313h5.371a.908.908 0 100-1.816H5.916a.908.908 0 100 1.816zm0 4.097h10.023a.908.908 0 100-1.817H5.916a.908.908 0 100 1.817z" fill="#000"/><path d="M53.878 13.123a.908.908 0 00-.908.908v2.273h-2.273a.908.908 0 100 1.817h2.273v2.273a.908.908 0 101.816 0V18.12h2.273a.908.908 0 100-1.817h-2.273V14.03a.908.908 0 00-.908-.908z" fill="#2D6AFF"/></g><defs><clipPath id="clip0_47_99"><path fill="#fff" d="M0 0h62v62H0z"/></clipPath></defs></svg>