<svg width="67" height="67" fill="none" xmlns="http://www.w3.org/2000/svg"><path d="M57.248 35.474h-7.7c-.578 0-1.047.469-1.047 1.047v28.385c0 .578.469 1.047 1.047 1.047h7.7c.578 0 1.047-.469 1.047-1.047V36.521c0-.578-.47-1.047-1.047-1.047zM56.2 63.859h-5.606V37.568H56.2v26.291zm-6.097-38.42a1.047 1.047 0 01.989-1.102l4.863-.264a1.044 1.044 0 011.093 1.197l-.702 4.82a1.047 1.047 0 01-2.072-.302l.276-1.897c-8.906 7.85-19.512 13.952-31.557 18.147a1.047 1.047 0 01-.689-1.977c11.787-4.105 22.159-10.07 30.86-17.74l-1.959.107a1.046 1.046 0 01-1.102-.988zm-8.65-4.146c0-.578-.47-1.047-1.047-1.047h-14.28V5.966c0-.578-.47-1.047-1.047-1.047-9.03 0-16.374 7.346-16.374 16.374 0 9.029 7.345 16.374 16.373 16.374 9.03 0 16.374-7.345 16.374-16.374zm-30.655 0c0-7.521 5.847-13.704 13.234-14.242v14.242c0 .578.468 1.047 1.046 1.047h14.243c-.538 7.388-6.72 13.234-14.243 13.234-7.874 0-14.28-6.407-14.28-14.28zm18.153-2.825h15.327c.578 0 1.047-.47 1.047-1.047 0-9.029-7.346-16.374-16.374-16.374-.578 0-1.047.469-1.047 1.047V17.42c0 .578.469 1.047 1.047 1.047zm1.047-15.29c7.042.513 12.683 6.154 13.195 13.196H30V3.179z" fill="#000"/><path d="M35.25 44.055h7.7c.303 0 .547.245.547.547v20.304a.547.547 0 01-.546.547h-7.7a.547.547 0 01-.547-.547V44.602c0-.302.245-.547.547-.547zm-14.296 7.74h7.7c.302 0 .546.244.546.546v12.565a.547.547 0 01-.546.547h-7.7a.547.547 0 01-.547-.547V52.341c0-.302.245-.546.547-.546z" stroke="#2D6AFF"/></svg>