<svg width="65" height="65" fill="none" xmlns="http://www.w3.org/2000/svg"><g clip-path="url(#clip0_47_148)"><path d="M57.111 35.529v-3.01a.954.954 0 10-1.908 0v2.224a14.176 14.176 0 00-4.772-.704V20.664a.954.954 0 00-.954-.954H49.1l3.717-3.952 3.718 3.952h-.378a.954.954 0 00-.954.954v8.132a.954.954 0 101.908 0v-7.178h1.63c.812.027 1.27-1.035.696-1.607l-5.925-6.299c-.358-.397-1.032-.397-1.39 0l-5.924 6.299c-.575.572-.116 1.634.695 1.607h1.63v7.158a13.956 13.956 0 00-5.064-4.983v-11.59h1.63c.811.026 1.27-1.037.695-1.608L39.86 4.296c-.358-.397-1.032-.397-1.39 0l-5.925 6.299c-.575.572-.116 1.634.695 1.607h1.63v9.872a13.819 13.819 0 00-5.063 1.659v-4.808h1.63c.811.027 1.27-1.036.695-1.608l-5.925-6.298c-.357-.397-1.032-.397-1.39 0l-5.924 6.298c-.575.572-.116 1.635.695 1.608h1.63v13.082a12.272 12.272 0 00-5.064.49V10.703h1.63c.812.027 1.27-1.036.696-1.608l-5.925-6.298c-.358-.397-1.032-.397-1.39 0L5.24 9.095c-.575.572-.116 1.635.695 1.608h1.63v7.825a.954.954 0 101.909 0v-8.78a.954.954 0 00-.954-.953h-.378l3.718-3.953 3.717 3.953H15.2a.954.954 0 00-.954.954V33.28a12.404 12.404 0 00-4.772 4.337V22.344a.954.954 0 10-1.908 0V43.36l-.01.13C3.196 44.443 0 48.345 0 52.883c0 5.303 4.315 9.618 9.618 9.618h29.338a.954.954 0 100-1.908H9.618c-4.251 0-7.71-3.459-7.71-7.71 0-3.859 2.882-7.145 6.704-7.643a.954.954 0 00.83-1.004c.004-5.735 4.67-10.398 10.406-10.398 1.265 0 2.505.226 3.684.672.539.22 1.192-.153 1.278-.729a11.926 11.926 0 0111.78-9.905c6.314 0 11.557 4.933 11.935 11.232.096 1.186 1.433.828 2.242.834 6.796 0 12.325 5.53 12.325 12.326s-5.529 12.325-12.325 12.325h-7.995a.954.954 0 100 1.908h7.994C58.615 62.501 65 56.116 65 48.268c0-5.57-3.216-10.402-7.889-12.739zM39.165 6.342l3.717 3.952h-.377a.954.954 0 00-.954.954v11.638a13.798 13.798 0 00-4.772-.915V11.248a.954.954 0 00-.954-.954h-.378l3.718-3.952zm-16.006 26.04l-.033-.009V17.971a.954.954 0 00-.954-.954h-.377l3.717-3.952 3.718 3.952h-.378a.954.954 0 00-.954.954v7.049a13.803 13.803 0 00-4.74 7.362z" fill="#000"/><path d="M35.95 43.29a.954.954 0 100-1.908h-4.467a.954.954 0 00-.954.954v10.602c0 .527.427.954.954.954h4.467a.954.954 0 100-1.908h-3.513v-3.393h3.184a.954.954 0 100-1.908h-3.184V43.29h3.513zm-11.308 8.743c-1.17 0-2.3-.476-3.022-1.273a.954.954 0 00-1.414 1.282c1.078 1.19 2.736 1.9 4.436 1.9 2.035 0 3.809-1.336 4.125-3.106.364-2.042-1.241-3.41-2.866-4.01a57.4 57.4 0 01-2.977-1.203 1.116 1.116 0 01-.445-1.084c.078-.545.497-.983 1.12-1.17 1.716-.518 3.268.726 3.298.751a.954.954 0 001.225-1.463c-.095-.08-2.347-1.936-5.074-1.115-1.332.401-2.274 1.446-2.458 2.726a3.021 3.021 0 001.347 2.99.948.948 0 00.132.073c.062.027 1.524.678 3.171 1.286 1.183.436 1.784 1.123 1.648 1.884-.132.742-.965 1.532-2.246 1.532zm25.81-4.396a6.311 6.311 0 00-6.304-6.304 6.311 6.311 0 00-6.305 6.304 6.311 6.311 0 006.305 6.304 6.311 6.311 0 006.304-6.304zm-10.7 0a4.4 4.4 0 014.395-4.396 4.4 4.4 0 014.397 4.396 4.401 4.401 0 01-4.396 4.396 4.4 4.4 0 01-4.397-4.396z" fill="#2D6AFF"/></g><defs><clipPath id="clip0_47_148"><path fill="#fff" d="M0 0h65v65H0z"/></clipPath></defs></svg>