<svg width="40" height="40" fill="none" xmlns="http://www.w3.org/2000/svg"><rect width="40" height="40" rx="20" fill="#1C66FB"/><path d="M18.872 18.553c.383-.575.575-1.245.575-2.01 0-2.011-1.724-3.543-3.638-3.543h-5.553c-.288 0-.48.191-.48.479v12.159c0 .287.192.478.48.478h6.127c2.298 0 4.213-1.819 4.213-4.116 0-1.436-.67-2.681-1.724-3.447zm-6.702-3.064h3.639c.67 0 1.148.575 1.148 1.15 0 .67-.574 1.148-1.148 1.148H12.17V15.49zm4.309 8.234H12.17v-3.447h4.309c.957 0 1.723.766 1.723 1.724 0 .957-.766 1.723-1.723 1.723zm14.744-2.585c0-2.872-2.202-5.17-4.979-5.17-2.776 0-4.978 2.298-4.978 5.17s2.202 5.17 4.978 5.17c1.628 0 3.16-.862 4.117-2.298l.287-.574c.096-.096 0-.287-.191-.287h-2.394c-.095 0-.095 0-.191.095a2.243 2.243 0 01-1.628.67c-1.244 0-2.202-.861-2.489-2.106h6.99c.286 0 .478-.191.478-.479v-.191zm-4.979-2.68c.862 0 1.628.478 2.107 1.244h-4.213c.383-.766 1.245-1.245 2.106-1.245zm2.011-3.065H23.85a.412.412 0 01-.383-.382v-1.054c0-.191.191-.383.383-.383h4.404c.191 0 .383.192.383.383v1.15c0 .095-.096.287-.383.287z" fill="#fff"/></svg>