<svg width="40" height="40" fill="none" xmlns="http://www.w3.org/2000/svg"><rect width="40" height="40" rx="20" fill="#2878B7"/><path d="M28 20.744v5.516h-3.229v-5.18c0-1.277-.47-2.152-1.614-2.152-.875 0-1.413.606-1.614 1.144-.068.201-.135.47-.135.807v5.381H18.18s.068-8.744 0-9.619h3.23v1.346c.403-.673 1.21-1.615 2.891-1.615 2.086 0 3.7 1.413 3.7 4.372zM14.816 12C13.74 12 13 12.74 13 13.682c0 .941.673 1.681 1.749 1.681 1.143 0 1.816-.74 1.816-1.681.067-1.01-.605-1.682-1.749-1.682zm-1.614 14.26h3.228v-9.619h-3.228v9.62z" fill="#fff"/></svg>