<svg width="50" height="50" fill="none" xmlns="http://www.w3.org/2000/svg"><path d="M24.742 49.98a1.688 1.688 0 00.514 0c2.106-.33 20.577-3.947 20.577-29.117V9.205a1.65 1.65 0 00-.503-1.19 1.779 1.779 0 00-1.224-.472C32.566 7.904 27.849 2.891 26.37.724a1.657 1.657 0 00-2.74 0c-1.48 2.165-6.18 7.182-17.736 6.819a1.751 1.751 0 00-1.224.472 1.643 1.643 0 00-.503 1.19v11.658c0 25.17 18.47 28.787 20.575 29.116v.001zM5.843 9.21c12.371.367 17.53-5.154 19.15-7.548 1.634 2.395 6.794 7.912 19.164 7.547l.01-.005v11.659c0 23.784-17.206 27.163-19.166 27.47-1.962-.307-19.168-3.686-19.168-27.47l.01-11.654z" fill="#000"/><path d="M24.167 24.167c.919 0 1.666-.746 1.666-1.663V6.164c0-.44-.259-.84-.66-1.019a1.131 1.131 0 00-1.212.193c-2.527 2.277-7.159 5.08-14.876 5.503A1.67 1.67 0 007.5 12.5v8.365c0 .583.012 1.155.035 1.71a1.66 1.66 0 001.67 1.59h14.962zm-15-3.3l.01-8.362c7.362-.403 12.121-2.88 14.99-5.158v15.154L9.2 22.51a40.647 40.647 0 01-.033-1.643zM23.73 46.348a1.657 1.657 0 001.45-.285c.415-.317.654-.8.654-1.324V27.5c0-.919-.748-1.666-1.667-1.666H9.724a1.67 1.67 0 00-1.645 1.952C10.5 41.365 19.83 45.291 23.73 46.347v.001zm.437-18.85l-.002 17.242c-3.592-.974-12.19-4.605-14.44-17.24l14.442-.002z" fill="#000"/></svg>