<svg width="54" height="54" fill="none" xmlns="http://www.w3.org/2000/svg"><g clip-path="url(#clip0_189_4034)"><path d="M23.23 8.651a2.577 2.577 0 00-1.834-.76c-.693 0-1.345.27-1.835.76l-7.221 7.222-2.045-2.573a2.579 2.579 0 00-2.029-.979 2.6 2.6 0 00-1.611.563 2.574 2.574 0 00-.962 1.735 2.573 2.573 0 00.546 1.906l3.77 4.745a2.6 2.6 0 002.114 1.085c.691 0 1.342-.27 1.832-.76l9.275-9.275a2.597 2.597 0 000-3.669zm-1.268 2.401l-9.275 9.276a.793.793 0 01-.564.235.796.796 0 01-.661-.345.975.975 0 00-.034-.044l-3.786-4.765a.792.792 0 01-.168-.587.792.792 0 01.297-.534.796.796 0 011.121.128l2.67 3.36a.896.896 0 001.335.075L20.83 9.92a.796.796 0 01.567-.235.802.802 0 01.566 1.368zm24.055 19.713c-4.998-4.999-11.618-7.786-18.673-7.873a14.773 14.773 0 002.217-7.768C29.56 7.003 22.954.396 14.833.396 6.713.396.105 7.003.105 15.124c0 3.38 1.175 6.682 3.307 9.298a14.813 14.813 0 006.504 4.585 27.407 27.407 0 00-1.933 1.758C2.903 35.845.105 42.598.105 49.782c0 .495.402.896.897.896h8.636a.896.896 0 00.896-.896c0-9.08 7.387-16.466 16.466-16.466 9.08 0 16.466 7.387 16.466 16.466 0 .495.401.896.896.896h8.636a.897.897 0 00.897-.896c0-7.184-2.798-13.938-7.878-19.017zm-19.914-6.067v6.847c-2.67.13-5.192.837-7.444 1.998l-3.423-5.93a24.93 24.93 0 0110.867-2.915zm1.793 0a24.931 24.931 0 0110.868 2.914l-3.424 5.93a18.13 18.13 0 00-7.444-1.997v-6.847zM1.898 15.124c0-7.133 5.803-12.935 12.935-12.935 7.132 0 12.935 5.802 12.935 12.935 0 2.824-.935 5.588-2.64 7.829a26.636 26.636 0 00-13.447 4.717c-5.692-1.427-9.783-6.64-9.783-12.546zm6.865 33.761H1.914a24.927 24.927 0 012.917-10.867l5.93 3.423a18.126 18.126 0 00-1.998 7.444zm2.896-8.995L5.73 36.466a25.299 25.299 0 017.954-7.955l3.424 5.93a18.406 18.406 0 00-5.449 5.449zm25.233-5.449l3.424-5.93a25.303 25.303 0 017.954 7.955l-5.93 3.424a18.403 18.403 0 00-5.448-5.449zm8.345 14.444a18.127 18.127 0 00-1.998-7.444l5.93-3.423a24.926 24.926 0 012.917 10.867h-6.849zm-13.02-7.536l-4.653 4.653a3.826 3.826 0 00-4.386 3.78A3.826 3.826 0 0027 53.604a3.826 3.826 0 003.78-4.386l4.653-4.654a2.277 2.277 0 000-3.215 2.277 2.277 0 00-3.216 0zM27 51.81c-1.119 0-2.03-.91-2.03-2.03 0-1.118.911-2.028 2.03-2.028 1.119 0 2.029.91 2.029 2.029 0 1.119-.91 2.029-2.029 2.029zm7.165-8.514l-4.146 4.146a3.86 3.86 0 00-.68-.68l4.146-4.146a.482.482 0 01.68.68z" fill="#000"/></g><defs><clipPath id="clip0_189_4034"><path fill="#fff" d="M0 0h54v54H0z"/></clipPath></defs></svg>