<svg width="34" height="34" fill="none" xmlns="http://www.w3.org/2000/svg"><g clip-path="url(#clip0_107_5188)"><path d="M17 34c9.389 0 17-7.611 17-17S26.389 0 17 0 0 7.611 0 17s7.611 17 17 17z" fill="#F7931A"/><path d="M24.638 14.896c.334-2.227-1.363-3.424-3.681-4.223l.752-3.018-1.836-.457-.733 2.938c-.483-.12-.978-.233-1.472-.346l.739-2.957-1.836-.458-.753 3.016c-.4-.09-.792-.18-1.173-.276l.003-.01-2.533-.632-.49 1.962s1.364.312 1.335.331c.744.186.878.678.856 1.07l-.857 3.436c.051.013.117.032.191.06l-.194-.047-1.2 4.815c-.092.226-.322.565-.843.436.019.027-1.335-.333-1.335-.333l-.911 2.102 2.39.596c.444.112.88.229 1.308.338l-.76 3.052 1.836.456.752-3.017c.501.135.988.26 1.464.38l-.75 3.004 1.836.457.76-3.045c3.132.593 5.486.354 6.478-2.48.799-2.28-.04-3.596-1.688-4.453 1.2-.276 2.104-1.066 2.345-2.697zm-4.197 5.884c-.566 2.282-4.407 1.048-5.652.739l1.01-4.043c1.245.311 5.236.927 4.642 3.304zm.569-5.917c-.518 2.075-3.714 1.02-4.75.762l.914-3.665c1.036.258 4.376.739 3.836 2.903z" fill="#fff"/></g><defs><clipPath id="clip0_107_5188"><path fill="#fff" d="M0 0h34v34H0z"/></clipPath></defs></svg>