<svg width="34" height="34" fill="none" xmlns="http://www.w3.org/2000/svg"><g clip-path="url(#clip0_107_5178)"><path d="M17 34c9.389 0 17-7.611 17-17S26.389 0 17 0 0 7.611 0 17s7.611 17 17 17z" fill="#627EEA"/><path d="M17.53 4.25v9.424l7.965 3.56L17.529 4.25z" fill="#fff" fill-opacity=".602"/><path d="M17.53 4.25L9.561 17.234l7.967-3.56V4.25z" fill="#fff"/><path d="M17.53 23.341v6.404l7.97-11.028-7.97 4.624z" fill="#fff" fill-opacity=".602"/><path d="M17.53 29.745V23.34l-7.968-4.623 7.967 11.028z" fill="#fff"/><path d="M17.53 21.859l7.965-4.625-7.966-3.557v8.182z" fill="#fff" fill-opacity=".2"/><path d="M9.563 17.234l7.966 4.625v-8.182l-7.966 3.557z" fill="#fff" fill-opacity=".602"/></g><defs><clipPath id="clip0_107_5178"><path fill="#fff" d="M0 0h34v34H0z"/></clipPath></defs></svg>