<svg width="34" height="34" fill="none" xmlns="http://www.w3.org/2000/svg"><g clip-path="url(#clip0_107_5177)"><path d="M17 34c9.389 0 17-7.611 17-17S26.389 0 17 0 0 7.611 0 17s7.611 17 17 17z" fill="#26A17B"/><path fill-rule="evenodd" clip-rule="evenodd" d="M19.042 18.47v-.002c-.117.008-.72.044-2.063.044-1.073 0-1.829-.032-2.094-.044v.003c-4.131-.182-7.215-.901-7.215-1.762 0-.86 3.084-1.579 7.215-1.764v2.81c.27.019 1.043.065 2.112.065 1.282 0 1.925-.054 2.045-.064v-2.809c4.123.184 7.199.904 7.199 1.762 0 .86-3.076 1.578-7.199 1.76zm0-3.815v-2.513h5.753V8.308H9.132v3.834h5.753v2.512c-4.675.215-8.191 1.141-8.191 2.25 0 1.11 3.516 2.035 8.19 2.251v8.056h4.158v-8.058c4.668-.215 8.175-1.14 8.175-2.248 0-1.109-3.507-2.034-8.175-2.25z" fill="#fff"/></g><defs><clipPath id="clip0_107_5177"><path fill="#fff" d="M0 0h34v34H0z"/></clipPath></defs></svg>