<svg width="543" height="300" viewBox="0 0 543 300" fill="none" xmlns="http://www.w3.org/2000/svg">
<circle cx="365.5" cy="168.5" r="90.5" fill="#D9D9D9" fill-opacity="0.2"/>
<circle cx="212.5" cy="109.5" r="109.5" fill="#D9D9D9" fill-opacity="0.2"/>
<path d="M386.801 156.625C380.746 156.625 376.391 153.031 376.215 147.934H381.664C381.996 150.316 384.105 151.957 386.84 151.957C389.926 151.957 392.055 149.809 392.055 146.742C392.055 143.617 389.926 141.43 386.879 141.43C384.75 141.43 382.914 142.406 381.938 144.027H376.664L378.051 127.816H395.98V132.504H382.68L382.035 140.219H382.152C383.305 138.324 385.551 137.133 388.422 137.133C393.812 137.133 397.68 141.098 397.68 146.586C397.68 152.562 393.266 156.625 386.801 156.625Z" fill="#741F9B"/>
<path d="M363.461 156V150.98H349.438V145.961C351.898 141.273 354.965 136.332 360.746 127.816H369.066V146.254H372.738V150.98H369.066V156H363.461ZM354.613 146.273V146.43H363.578V131.996H363.461C359.359 138.012 356.898 141.859 354.613 146.273Z" fill="#741F9B"/>
<path d="M337.855 156V133.227H337.738L330.551 138.188V132.875L337.836 127.816H343.695V156H337.855Z" fill="#741F9B"/>
<path d="M325.316 156.234C323.559 156.234 322.172 154.828 322.172 153.09C322.172 151.332 323.559 149.945 325.316 149.945C327.055 149.945 328.461 151.332 328.461 153.09C328.461 154.828 327.055 156.234 325.316 156.234Z" fill="#741F9B"/>
<path d="M309.242 156V150.98H295.219V145.961C297.68 141.273 300.746 136.332 306.527 127.816H314.848V146.254H318.52V150.98H314.848V156H309.242ZM300.395 146.273V146.43H309.359V131.996H309.242C305.141 138.012 302.68 141.859 300.395 146.273Z" fill="#741F9B"/>
<path d="M281.645 156.625C275.59 156.625 271.234 153.031 271.059 147.934H276.508C276.84 150.316 278.949 151.957 281.684 151.957C284.77 151.957 286.898 149.809 286.898 146.742C286.898 143.617 284.77 141.43 281.723 141.43C279.594 141.43 277.758 142.406 276.781 144.027H271.508L272.895 127.816H290.824V132.504H277.523L276.879 140.219H276.996C278.148 138.324 280.395 137.133 283.266 137.133C288.656 137.133 292.523 141.098 292.523 146.586C292.523 152.562 288.109 156.625 281.645 156.625Z" fill="#741F9B"/>
<path d="M263.402 156.234C261.645 156.234 260.258 154.828 260.258 153.09C260.258 151.332 261.645 149.945 263.402 149.945C265.141 149.945 266.547 151.332 266.547 153.09C266.547 154.828 265.141 156.234 263.402 156.234Z" fill="#741F9B"/>
<path d="M245.102 156.625C238.266 156.625 233.676 153.246 233.676 148.363C233.676 144.652 236.371 141.781 240.297 141.137V141.02C237.016 140.258 234.809 137.738 234.809 134.633C234.809 130.336 239.066 127.191 245.102 127.191C251.156 127.191 255.375 130.316 255.375 134.652C255.375 137.719 253.188 140.238 249.906 141.02V141.137C253.852 141.801 256.527 144.672 256.527 148.383C256.527 153.266 251.879 156.625 245.102 156.625ZM245.102 152.328C248.207 152.328 250.355 150.473 250.355 147.934C250.355 145.395 248.207 143.539 245.102 143.539C241.996 143.539 239.828 145.395 239.828 147.934C239.828 150.473 241.996 152.328 245.102 152.328ZM245.102 139.242C247.699 139.242 249.555 137.602 249.555 135.355C249.555 133.09 247.699 131.449 245.102 131.449C242.484 131.449 240.648 133.109 240.648 135.355C240.648 137.602 242.484 139.242 245.102 139.242Z" fill="#741F9B"/>
<path d="M219.672 156.645C215.629 156.645 212.289 154.809 210.316 151.449C208.754 149.066 207.953 145.883 207.953 142.133C207.953 132.797 212.484 127.172 219.77 127.172C225.141 127.172 229.34 130.355 230.121 134.965H224.32C223.754 133.09 221.938 131.84 219.73 131.84C215.805 131.84 213.422 135.609 213.559 141.977H213.676C214.809 139.223 217.582 137.387 221.176 137.387C226.527 137.387 230.492 141.332 230.492 146.684C230.492 152.484 225.98 156.645 219.672 156.645ZM219.613 151.938C222.484 151.938 224.75 149.691 224.75 146.859C224.75 143.949 222.582 141.82 219.633 141.82C216.703 141.82 214.477 143.949 214.477 146.801C214.477 149.672 216.723 151.938 219.613 151.938Z" fill="#741F9B"/>
<path d="M201.332 156.234C199.574 156.234 198.188 154.828 198.188 153.09C198.188 151.332 199.574 149.945 201.332 149.945C203.07 149.945 204.477 151.332 204.477 153.09C204.477 154.828 203.07 156.234 201.332 156.234Z" fill="#741F9B"/>
<path d="M173.285 136.293C173.285 130.961 177.543 127.191 183.695 127.191C189.633 127.191 193.715 130.629 193.715 135.336C193.715 138.852 191.371 141.488 188.266 144.574L181.391 151.195V151.312H194.105V156H173.617V152.035L184.242 141.801C187.094 138.949 187.973 137.523 187.973 135.57C187.973 133.461 186.117 131.781 183.5 131.781C180.766 131.781 178.754 133.695 178.754 136.293V136.391H173.285V136.293Z" fill="#741F9B"/>
<path d="M158.324 156.625C152.934 156.625 148.695 153.422 147.914 148.812H153.734C154.301 150.707 156.156 151.957 158.422 151.957C162.309 151.957 164.672 148.266 164.516 141.801C164.496 141.801 164.457 141.801 164.457 141.801H164.418H164.398C163.383 144.555 160.609 146.41 156.898 146.41C151.586 146.41 147.543 142.465 147.543 137.113C147.543 131.312 152.113 127.172 158.402 127.172C162.465 127.172 165.844 128.988 167.797 132.328C169.359 134.73 170.16 137.895 170.16 141.664C170.16 151 165.746 156.625 158.324 156.625ZM158.441 141.977C161.371 141.977 163.598 139.828 163.598 136.977C163.598 134.105 161.352 131.879 158.48 131.879C155.59 131.879 153.305 134.105 153.305 136.938C153.305 139.828 155.512 141.977 158.441 141.977Z" fill="#741F9B"/>
<path d="M430.48 246.375C426.848 246.375 424.234 244.219 424.129 241.16H427.398C427.598 242.59 428.863 243.574 430.504 243.574C432.355 243.574 433.633 242.285 433.633 240.445C433.633 238.57 432.355 237.258 430.527 237.258C429.25 237.258 428.148 237.844 427.562 238.816H424.398L425.23 229.09H435.988V231.902H428.008L427.621 236.531H427.691C428.383 235.395 429.73 234.68 431.453 234.68C434.688 234.68 437.008 237.059 437.008 240.352C437.008 243.938 434.359 246.375 430.48 246.375Z" fill="#CFCFCF"/>
<path d="M416.477 246V242.988H408.062V239.977C409.539 237.164 411.379 234.199 414.848 229.09H419.84V240.152H422.043V242.988H419.84V246H416.477ZM411.168 240.164V240.258H416.547V231.598H416.477C414.016 235.207 412.539 237.516 411.168 240.164Z" fill="#CFCFCF"/>
<path d="M401.113 246V232.336H401.043L396.73 235.312V232.125L401.102 229.09H404.617V246H401.113Z" fill="#CFCFCF"/>
<path d="M393.59 246.141C392.535 246.141 391.703 245.297 391.703 244.254C391.703 243.199 392.535 242.367 393.59 242.367C394.633 242.367 395.477 243.199 395.477 244.254C395.477 245.297 394.633 246.141 393.59 246.141Z" fill="#CFCFCF"/>
<path d="M383.945 246V242.988H375.531V239.977C377.008 237.164 378.848 234.199 382.316 229.09H387.309V240.152H389.512V242.988H387.309V246H383.945ZM378.637 240.164V240.258H384.016V231.598H383.945C381.484 235.207 380.008 237.516 378.637 240.164Z" fill="#CFCFCF"/>
<path d="M367.387 246.375C363.754 246.375 361.141 244.219 361.035 241.16H364.305C364.504 242.59 365.77 243.574 367.41 243.574C369.262 243.574 370.539 242.285 370.539 240.445C370.539 238.57 369.262 237.258 367.434 237.258C366.156 237.258 365.055 237.844 364.469 238.816H361.305L362.137 229.09H372.895V231.902H364.914L364.527 236.531H364.598C365.289 235.395 366.637 234.68 368.359 234.68C371.594 234.68 373.914 237.059 373.914 240.352C373.914 243.938 371.266 246.375 367.387 246.375Z" fill="#CFCFCF"/>
<path d="M356.441 246.141C355.387 246.141 354.555 245.297 354.555 244.254C354.555 243.199 355.387 242.367 356.441 242.367C357.484 242.367 358.328 243.199 358.328 244.254C358.328 245.297 357.484 246.141 356.441 246.141Z" fill="#CFCFCF"/>
<path d="M345.461 246.375C341.359 246.375 338.605 244.348 338.605 241.418C338.605 239.191 340.223 237.469 342.578 237.082V237.012C340.609 236.555 339.285 235.043 339.285 233.18C339.285 230.602 341.84 228.715 345.461 228.715C349.094 228.715 351.625 230.59 351.625 233.191C351.625 235.031 350.312 236.543 348.344 237.012V237.082C350.711 237.48 352.316 239.203 352.316 241.43C352.316 244.359 349.527 246.375 345.461 246.375ZM345.461 243.797C347.324 243.797 348.613 242.684 348.613 241.16C348.613 239.637 347.324 238.523 345.461 238.523C343.598 238.523 342.297 239.637 342.297 241.16C342.297 242.684 343.598 243.797 345.461 243.797ZM345.461 235.945C347.02 235.945 348.133 234.961 348.133 233.613C348.133 232.254 347.02 231.27 345.461 231.27C343.891 231.27 342.789 232.266 342.789 233.613C342.789 234.961 343.891 235.945 345.461 235.945Z" fill="#CFCFCF"/>
<path d="M330.203 246.387C327.777 246.387 325.773 245.285 324.59 243.27C323.652 241.84 323.172 239.93 323.172 237.68C323.172 232.078 325.891 228.703 330.262 228.703C333.484 228.703 336.004 230.613 336.473 233.379H332.992C332.652 232.254 331.562 231.504 330.238 231.504C327.883 231.504 326.453 233.766 326.535 237.586H326.605C327.285 235.934 328.949 234.832 331.105 234.832C334.316 234.832 336.695 237.199 336.695 240.41C336.695 243.891 333.988 246.387 330.203 246.387ZM330.168 243.562C331.891 243.562 333.25 242.215 333.25 240.516C333.25 238.77 331.949 237.492 330.18 237.492C328.422 237.492 327.086 238.77 327.086 240.48C327.086 242.203 328.434 243.562 330.168 243.562Z" fill="#CFCFCF"/>
<path d="M319.199 246.141C318.145 246.141 317.312 245.297 317.312 244.254C317.312 243.199 318.145 242.367 319.199 242.367C320.242 242.367 321.086 243.199 321.086 244.254C321.086 245.297 320.242 246.141 319.199 246.141Z" fill="#CFCFCF"/>
<path d="M302.371 234.176C302.371 230.977 304.926 228.715 308.617 228.715C312.18 228.715 314.629 230.777 314.629 233.602C314.629 235.711 313.223 237.293 311.359 239.145L307.234 243.117V243.188H314.863V246H302.57V243.621L308.945 237.48C310.656 235.77 311.184 234.914 311.184 233.742C311.184 232.477 310.07 231.469 308.5 231.469C306.859 231.469 305.652 232.617 305.652 234.176V234.234H302.371V234.176Z" fill="#CFCFCF"/>
<path d="M293.395 246.375C290.16 246.375 287.617 244.453 287.148 241.688H290.641C290.98 242.824 292.094 243.574 293.453 243.574C295.785 243.574 297.203 241.359 297.109 237.48C297.098 237.48 297.074 237.48 297.074 237.48H297.051H297.039C296.43 239.133 294.766 240.246 292.539 240.246C289.352 240.246 286.926 237.879 286.926 234.668C286.926 231.188 289.668 228.703 293.441 228.703C295.879 228.703 297.906 229.793 299.078 231.797C300.016 233.238 300.496 235.137 300.496 237.398C300.496 243 297.848 246.375 293.395 246.375ZM293.465 237.586C295.223 237.586 296.559 236.297 296.559 234.586C296.559 232.863 295.211 231.527 293.488 231.527C291.754 231.527 290.383 232.863 290.383 234.562C290.383 236.297 291.707 237.586 293.465 237.586Z" fill="#CFCFCF"/>
<path d="M196.48 87.375C192.848 87.375 190.234 85.2188 190.129 82.1602H193.398C193.598 83.5898 194.863 84.5742 196.504 84.5742C198.355 84.5742 199.633 83.2852 199.633 81.4453C199.633 79.5703 198.355 78.2578 196.527 78.2578C195.25 78.2578 194.148 78.8438 193.562 79.8164H190.398L191.23 70.0898H201.988V72.9023H194.008L193.621 77.5312H193.691C194.383 76.3945 195.73 75.6797 197.453 75.6797C200.688 75.6797 203.008 78.0586 203.008 81.3516C203.008 84.9375 200.359 87.375 196.48 87.375Z" fill="#CFCFCF"/>
<path d="M182.477 87V83.9883H174.062V80.9766C175.539 78.1641 177.379 75.1992 180.848 70.0898H185.84V81.1523H188.043V83.9883H185.84V87H182.477ZM177.168 81.1641V81.2578H182.547V72.5977H182.477C180.016 76.207 178.539 78.5156 177.168 81.1641Z" fill="#CFCFCF"/>
<path d="M167.113 87V73.3359H167.043L162.73 76.3125V73.125L167.102 70.0898H170.617V87H167.113Z" fill="#CFCFCF"/>
<path d="M159.59 87.1406C158.535 87.1406 157.703 86.2969 157.703 85.2539C157.703 84.1992 158.535 83.3672 159.59 83.3672C160.633 83.3672 161.477 84.1992 161.477 85.2539C161.477 86.2969 160.633 87.1406 159.59 87.1406Z" fill="#CFCFCF"/>
<path d="M149.945 87V83.9883H141.531V80.9766C143.008 78.1641 144.848 75.1992 148.316 70.0898H153.309V81.1523H155.512V83.9883H153.309V87H149.945ZM144.637 81.1641V81.2578H150.016V72.5977H149.945C147.484 76.207 146.008 78.5156 144.637 81.1641Z" fill="#CFCFCF"/>
<path d="M133.387 87.375C129.754 87.375 127.141 85.2188 127.035 82.1602H130.305C130.504 83.5898 131.77 84.5742 133.41 84.5742C135.262 84.5742 136.539 83.2852 136.539 81.4453C136.539 79.5703 135.262 78.2578 133.434 78.2578C132.156 78.2578 131.055 78.8438 130.469 79.8164H127.305L128.137 70.0898H138.895V72.9023H130.914L130.527 77.5312H130.598C131.289 76.3945 132.637 75.6797 134.359 75.6797C137.594 75.6797 139.914 78.0586 139.914 81.3516C139.914 84.9375 137.266 87.375 133.387 87.375Z" fill="#CFCFCF"/>
<path d="M122.441 87.1406C121.387 87.1406 120.555 86.2969 120.555 85.2539C120.555 84.1992 121.387 83.3672 122.441 83.3672C123.484 83.3672 124.328 84.1992 124.328 85.2539C124.328 86.2969 123.484 87.1406 122.441 87.1406Z" fill="#CFCFCF"/>
<path d="M111.461 87.375C107.359 87.375 104.605 85.3477 104.605 82.418C104.605 80.1914 106.223 78.4688 108.578 78.082V78.0117C106.609 77.5547 105.285 76.043 105.285 74.1797C105.285 71.6016 107.84 69.7148 111.461 69.7148C115.094 69.7148 117.625 71.5898 117.625 74.1914C117.625 76.0312 116.312 77.543 114.344 78.0117V78.082C116.711 78.4805 118.316 80.2031 118.316 82.4297C118.316 85.3594 115.527 87.375 111.461 87.375ZM111.461 84.7969C113.324 84.7969 114.613 83.6836 114.613 82.1602C114.613 80.6367 113.324 79.5234 111.461 79.5234C109.598 79.5234 108.297 80.6367 108.297 82.1602C108.297 83.6836 109.598 84.7969 111.461 84.7969ZM111.461 76.9453C113.02 76.9453 114.133 75.9609 114.133 74.6133C114.133 73.2539 113.02 72.2695 111.461 72.2695C109.891 72.2695 108.789 73.2656 108.789 74.6133C108.789 75.9609 109.891 76.9453 111.461 76.9453Z" fill="#CFCFCF"/>
<path d="M96.2031 87.3867C93.7773 87.3867 91.7734 86.2852 90.5898 84.2695C89.6523 82.8398 89.1719 80.9297 89.1719 78.6797C89.1719 73.0781 91.8906 69.7031 96.2617 69.7031C99.4844 69.7031 102.004 71.6133 102.473 74.3789H98.9922C98.6523 73.2539 97.5625 72.5039 96.2383 72.5039C93.8828 72.5039 92.4531 74.7656 92.5352 78.5859H92.6055C93.2852 76.9336 94.9492 75.832 97.1055 75.832C100.316 75.832 102.695 78.1992 102.695 81.4102C102.695 84.8906 99.9883 87.3867 96.2031 87.3867ZM96.168 84.5625C97.8906 84.5625 99.25 83.2148 99.25 81.5156C99.25 79.7695 97.9492 78.4922 96.1797 78.4922C94.4219 78.4922 93.0859 79.7695 93.0859 81.4805C93.0859 83.2031 94.4336 84.5625 96.168 84.5625Z" fill="#CFCFCF"/>
<path d="M85.1992 87.1406C84.1445 87.1406 83.3125 86.2969 83.3125 85.2539C83.3125 84.1992 84.1445 83.3672 85.1992 83.3672C86.2422 83.3672 87.0859 84.1992 87.0859 85.2539C87.0859 86.2969 86.2422 87.1406 85.1992 87.1406Z" fill="#CFCFCF"/>
<path d="M68.3711 75.1758C68.3711 71.9766 70.9258 69.7148 74.6172 69.7148C78.1797 69.7148 80.6289 71.7773 80.6289 74.6016C80.6289 76.7109 79.2227 78.293 77.3594 80.1445L73.2344 84.1172V84.1875H80.8633V87H68.5703V84.6211L74.9453 78.4805C76.6562 76.7695 77.1836 75.9141 77.1836 74.7422C77.1836 73.4766 76.0703 72.4688 74.5 72.4688C72.8594 72.4688 71.6523 73.6172 71.6523 75.1758V75.2344H68.3711V75.1758Z" fill="#CFCFCF"/>
<path d="M59.3945 87.375C56.1602 87.375 53.6172 85.4531 53.1484 82.6875H56.6406C56.9805 83.8242 58.0938 84.5742 59.4531 84.5742C61.7852 84.5742 63.2031 82.3594 63.1094 78.4805C63.0977 78.4805 63.0742 78.4805 63.0742 78.4805H63.0508H63.0391C62.4297 80.1328 60.7656 81.2461 58.5391 81.2461C55.3516 81.2461 52.9258 78.8789 52.9258 75.668C52.9258 72.1875 55.668 69.7031 59.4414 69.7031C61.8789 69.7031 63.9062 70.793 65.0781 72.7969C66.0156 74.2383 66.4961 76.1367 66.4961 78.3984C66.4961 84 63.8477 87.375 59.3945 87.375ZM59.4648 78.5859C61.2227 78.5859 62.5586 77.2969 62.5586 75.5859C62.5586 73.8633 61.2109 72.5273 59.4883 72.5273C57.7539 72.5273 56.3828 73.8633 56.3828 75.5625C56.3828 77.2969 57.707 78.5859 59.4648 78.5859Z" fill="#CFCFCF"/>
<path d="M168.28 232.219C166.161 232.219 164.637 230.961 164.575 229.177H166.482C166.599 230.011 167.337 230.585 168.294 230.585C169.374 230.585 170.119 229.833 170.119 228.76C170.119 227.666 169.374 226.9 168.308 226.9C167.562 226.9 166.92 227.242 166.578 227.81H164.732L165.218 222.136H171.493V223.776H166.838L166.612 226.477H166.653C167.057 225.813 167.843 225.396 168.848 225.396C170.734 225.396 172.088 226.784 172.088 228.705C172.088 230.797 170.543 232.219 168.28 232.219Z" fill="#CFCFCF"/>
<path d="M160.111 232V230.243H155.203V228.486C156.064 226.846 157.138 225.116 159.161 222.136H162.073V228.589H163.358V230.243H162.073V232H160.111ZM157.015 228.596V228.65H160.152V223.599H160.111C158.676 225.704 157.814 227.051 157.015 228.596Z" fill="#CFCFCF"/>
<path d="M151.149 232V224.029H151.108L148.593 225.766V223.906L151.143 222.136H153.193V232H151.149Z" fill="#CFCFCF"/>
<path d="M146.761 232.082C146.146 232.082 145.66 231.59 145.66 230.981C145.66 230.366 146.146 229.881 146.761 229.881C147.369 229.881 147.861 230.366 147.861 230.981C147.861 231.59 147.369 232.082 146.761 232.082Z" fill="#CFCFCF"/>
<path d="M141.135 232V230.243H136.227V228.486C137.088 226.846 138.161 225.116 140.185 222.136H143.097V228.589H144.382V230.243H143.097V232H141.135ZM138.038 228.596V228.65H141.176V223.599H141.135C139.699 225.704 138.838 227.051 138.038 228.596Z" fill="#CFCFCF"/>
<path d="M131.476 232.219C129.356 232.219 127.832 230.961 127.771 229.177H129.678C129.794 230.011 130.532 230.585 131.489 230.585C132.569 230.585 133.314 229.833 133.314 228.76C133.314 227.666 132.569 226.9 131.503 226.9C130.758 226.9 130.115 227.242 129.773 227.81H127.928L128.413 222.136H134.688V223.776H130.033L129.808 226.477H129.849C130.252 225.813 131.038 225.396 132.043 225.396C133.93 225.396 135.283 226.784 135.283 228.705C135.283 230.797 133.738 232.219 131.476 232.219Z" fill="#CFCFCF"/>
<path d="M125.091 232.082C124.476 232.082 123.99 231.59 123.99 230.981C123.99 230.366 124.476 229.881 125.091 229.881C125.699 229.881 126.191 230.366 126.191 230.981C126.191 231.59 125.699 232.082 125.091 232.082Z" fill="#CFCFCF"/>
<path d="M118.686 232.219C116.293 232.219 114.687 231.036 114.687 229.327C114.687 228.028 115.63 227.023 117.004 226.798V226.757C115.855 226.49 115.083 225.608 115.083 224.521C115.083 223.018 116.573 221.917 118.686 221.917C120.805 221.917 122.281 223.011 122.281 224.528C122.281 225.602 121.516 226.483 120.367 226.757V226.798C121.748 227.03 122.685 228.035 122.685 229.334C122.685 231.043 121.058 232.219 118.686 232.219ZM118.686 230.715C119.772 230.715 120.524 230.065 120.524 229.177C120.524 228.288 119.772 227.639 118.686 227.639C117.599 227.639 116.84 228.288 116.84 229.177C116.84 230.065 117.599 230.715 118.686 230.715ZM118.686 226.135C119.595 226.135 120.244 225.561 120.244 224.774C120.244 223.981 119.595 223.407 118.686 223.407C117.77 223.407 117.127 223.988 117.127 224.774C117.127 225.561 117.77 226.135 118.686 226.135Z" fill="#CFCFCF"/>
<path d="M109.785 232.226C108.37 232.226 107.201 231.583 106.511 230.407C105.964 229.573 105.684 228.459 105.684 227.146C105.684 223.879 107.27 221.91 109.819 221.91C111.699 221.91 113.169 223.024 113.442 224.638H111.412C111.214 223.981 110.578 223.544 109.806 223.544C108.432 223.544 107.598 224.863 107.646 227.092H107.687C108.083 226.128 109.054 225.485 110.312 225.485C112.185 225.485 113.572 226.866 113.572 228.739C113.572 230.77 111.993 232.226 109.785 232.226ZM109.765 230.578C110.77 230.578 111.562 229.792 111.562 228.801C111.562 227.782 110.804 227.037 109.771 227.037C108.746 227.037 107.967 227.782 107.967 228.78C107.967 229.785 108.753 230.578 109.765 230.578Z" fill="#CFCFCF"/>
<path d="M103.366 232.082C102.751 232.082 102.266 231.59 102.266 230.981C102.266 230.366 102.751 229.881 103.366 229.881C103.975 229.881 104.467 230.366 104.467 230.981C104.467 231.59 103.975 232.082 103.366 232.082Z" fill="#CFCFCF"/>
<path d="M93.5498 225.103C93.5498 223.236 95.04 221.917 97.1934 221.917C99.2715 221.917 100.7 223.12 100.7 224.768C100.7 225.998 99.8799 226.921 98.793 228.001L96.3867 230.318V230.359H100.837V232H93.666V230.612L97.3848 227.03C98.3828 226.032 98.6904 225.533 98.6904 224.85C98.6904 224.111 98.041 223.523 97.125 223.523C96.168 223.523 95.4639 224.193 95.4639 225.103V225.137H93.5498V225.103Z" fill="#CFCFCF"/>
<path d="M88.3135 232.219C86.4268 232.219 84.9434 231.098 84.6699 229.484H86.707C86.9053 230.147 87.5547 230.585 88.3477 230.585C89.708 230.585 90.5352 229.293 90.4805 227.03C90.4736 227.03 90.46 227.03 90.46 227.03H90.4463H90.4395C90.084 227.994 89.1133 228.644 87.8145 228.644C85.9551 228.644 84.54 227.263 84.54 225.39C84.54 223.359 86.1396 221.91 88.3408 221.91C89.7627 221.91 90.9453 222.546 91.6289 223.715C92.1758 224.556 92.4561 225.663 92.4561 226.982C92.4561 230.25 90.9111 232.219 88.3135 232.219ZM88.3545 227.092C89.3799 227.092 90.1592 226.34 90.1592 225.342C90.1592 224.337 89.373 223.558 88.3682 223.558C87.3564 223.558 86.5566 224.337 86.5566 225.328C86.5566 226.34 87.3291 227.092 88.3545 227.092Z" fill="#CFCFCF"/>
<path d="M441.28 56.2188C439.161 56.2188 437.637 54.9609 437.575 53.1768H439.482C439.599 54.0107 440.337 54.585 441.294 54.585C442.374 54.585 443.119 53.833 443.119 52.7598C443.119 51.666 442.374 50.9004 441.308 50.9004C440.562 50.9004 439.92 51.2422 439.578 51.8096H437.732L438.218 46.1357H444.493V47.7764H439.838L439.612 50.4766H439.653C440.057 49.8135 440.843 49.3965 441.848 49.3965C443.734 49.3965 445.088 50.7842 445.088 52.7051C445.088 54.7969 443.543 56.2188 441.28 56.2188Z" fill="#CFCFCF"/>
<path d="M433.111 56V54.2432H428.203V52.4863C429.064 50.8457 430.138 49.1162 432.161 46.1357H435.073V52.5889H436.358V54.2432H435.073V56H433.111ZM430.015 52.5957V52.6504H433.152V47.5986H433.111C431.676 49.7041 430.814 51.0508 430.015 52.5957Z" fill="#CFCFCF"/>
<path d="M424.149 56V48.0293H424.108L421.593 49.7656V47.9062L424.143 46.1357H426.193V56H424.149Z" fill="#CFCFCF"/>
<path d="M419.761 56.082C419.146 56.082 418.66 55.5898 418.66 54.9814C418.66 54.3662 419.146 53.8809 419.761 53.8809C420.369 53.8809 420.861 54.3662 420.861 54.9814C420.861 55.5898 420.369 56.082 419.761 56.082Z" fill="#CFCFCF"/>
<path d="M414.135 56V54.2432H409.227V52.4863C410.088 50.8457 411.161 49.1162 413.185 46.1357H416.097V52.5889H417.382V54.2432H416.097V56H414.135ZM411.038 52.5957V52.6504H414.176V47.5986H414.135C412.699 49.7041 411.838 51.0508 411.038 52.5957Z" fill="#CFCFCF"/>
<path d="M404.476 56.2188C402.356 56.2188 400.832 54.9609 400.771 53.1768H402.678C402.794 54.0107 403.532 54.585 404.489 54.585C405.569 54.585 406.314 53.833 406.314 52.7598C406.314 51.666 405.569 50.9004 404.503 50.9004C403.758 50.9004 403.115 51.2422 402.773 51.8096H400.928L401.413 46.1357H407.688V47.7764H403.033L402.808 50.4766H402.849C403.252 49.8135 404.038 49.3965 405.043 49.3965C406.93 49.3965 408.283 50.7842 408.283 52.7051C408.283 54.7969 406.738 56.2188 404.476 56.2188Z" fill="#CFCFCF"/>
<path d="M398.091 56.082C397.476 56.082 396.99 55.5898 396.99 54.9814C396.99 54.3662 397.476 53.8809 398.091 53.8809C398.699 53.8809 399.191 54.3662 399.191 54.9814C399.191 55.5898 398.699 56.082 398.091 56.082Z" fill="#CFCFCF"/>
<path d="M391.686 56.2188C389.293 56.2188 387.687 55.0361 387.687 53.3271C387.687 52.0283 388.63 51.0234 390.004 50.7979V50.7568C388.855 50.4902 388.083 49.6084 388.083 48.5215C388.083 47.0176 389.573 45.917 391.686 45.917C393.805 45.917 395.281 47.0107 395.281 48.5283C395.281 49.6016 394.516 50.4834 393.367 50.7568V50.7979C394.748 51.0303 395.685 52.0352 395.685 53.334C395.685 55.043 394.058 56.2188 391.686 56.2188ZM391.686 54.7148C392.772 54.7148 393.524 54.0654 393.524 53.1768C393.524 52.2881 392.772 51.6387 391.686 51.6387C390.599 51.6387 389.84 52.2881 389.84 53.1768C389.84 54.0654 390.599 54.7148 391.686 54.7148ZM391.686 50.1348C392.595 50.1348 393.244 49.5605 393.244 48.7744C393.244 47.9814 392.595 47.4072 391.686 47.4072C390.77 47.4072 390.127 47.9883 390.127 48.7744C390.127 49.5605 390.77 50.1348 391.686 50.1348Z" fill="#CFCFCF"/>
<path d="M382.785 56.2256C381.37 56.2256 380.201 55.583 379.511 54.4072C378.964 53.5732 378.684 52.459 378.684 51.1465C378.684 47.8789 380.27 45.9102 382.819 45.9102C384.699 45.9102 386.169 47.0244 386.442 48.6377H384.412C384.214 47.9814 383.578 47.5439 382.806 47.5439C381.432 47.5439 380.598 48.8633 380.646 51.0918H380.687C381.083 50.1279 382.054 49.4854 383.312 49.4854C385.185 49.4854 386.572 50.8662 386.572 52.7393C386.572 54.7695 384.993 56.2256 382.785 56.2256ZM382.765 54.5781C383.77 54.5781 384.562 53.792 384.562 52.8008C384.562 51.7822 383.804 51.0371 382.771 51.0371C381.746 51.0371 380.967 51.7822 380.967 52.7803C380.967 53.7852 381.753 54.5781 382.765 54.5781Z" fill="#CFCFCF"/>
<path d="M376.366 56.082C375.751 56.082 375.266 55.5898 375.266 54.9814C375.266 54.3662 375.751 53.8809 376.366 53.8809C376.975 53.8809 377.467 54.3662 377.467 54.9814C377.467 55.5898 376.975 56.082 376.366 56.082Z" fill="#CFCFCF"/>
<path d="M366.55 49.1025C366.55 47.2363 368.04 45.917 370.193 45.917C372.271 45.917 373.7 47.1201 373.7 48.7676C373.7 49.998 372.88 50.9209 371.793 52.001L369.387 54.3184V54.3594H373.837V56H366.666V54.6123L370.385 51.0303C371.383 50.0322 371.69 49.5332 371.69 48.8496C371.69 48.1113 371.041 47.5234 370.125 47.5234C369.168 47.5234 368.464 48.1934 368.464 49.1025V49.1367H366.55V49.1025Z" fill="#CFCFCF"/>
<path d="M361.313 56.2188C359.427 56.2188 357.943 55.0977 357.67 53.4844H359.707C359.905 54.1475 360.555 54.585 361.348 54.585C362.708 54.585 363.535 53.293 363.48 51.0303C363.474 51.0303 363.46 51.0303 363.46 51.0303H363.446H363.439C363.084 51.9941 362.113 52.6436 360.814 52.6436C358.955 52.6436 357.54 51.2627 357.54 49.3896C357.54 47.3594 359.14 45.9102 361.341 45.9102C362.763 45.9102 363.945 46.5459 364.629 47.7148C365.176 48.5557 365.456 49.6631 365.456 50.9824C365.456 54.25 363.911 56.2188 361.313 56.2188ZM361.354 51.0918C362.38 51.0918 363.159 50.3398 363.159 49.3418C363.159 48.3369 362.373 47.5576 361.368 47.5576C360.356 47.5576 359.557 48.3369 359.557 49.3281C359.557 50.3398 360.329 51.0918 361.354 51.0918Z" fill="#CFCFCF"/>
<path d="M539.24 149.188C537.424 149.188 536.117 148.109 536.064 146.58H537.699C537.799 147.295 538.432 147.787 539.252 147.787C540.178 147.787 540.816 147.143 540.816 146.223C540.816 145.285 540.178 144.629 539.264 144.629C538.625 144.629 538.074 144.922 537.781 145.408H536.199L536.615 140.545H541.994V141.951H538.004L537.811 144.266H537.846C538.191 143.697 538.865 143.34 539.727 143.34C541.344 143.34 542.504 144.529 542.504 146.176C542.504 147.969 541.18 149.188 539.24 149.188Z" fill="#CFCFCF"/>
<path d="M532.238 149V147.494H528.031V145.988C528.77 144.582 529.689 143.1 531.424 140.545H533.92V146.076H535.021V147.494H533.92V149H532.238ZM529.584 146.082V146.129H532.273V141.799H532.238C531.008 143.604 530.27 144.758 529.584 146.082Z" fill="#CFCFCF"/>
<path d="M524.557 149V142.168H524.521L522.365 143.656V142.062L524.551 140.545H526.309V149H524.557Z" fill="#CFCFCF"/>
<path d="M520.795 149.07C520.268 149.07 519.852 148.648 519.852 148.127C519.852 147.6 520.268 147.184 520.795 147.184C521.316 147.184 521.738 147.6 521.738 148.127C521.738 148.648 521.316 149.07 520.795 149.07Z" fill="#CFCFCF"/>
<path d="M515.973 149V147.494H511.766V145.988C512.504 144.582 513.424 143.1 515.158 140.545H517.654V146.076H518.756V147.494H517.654V149H515.973ZM513.318 146.082V146.129H516.008V141.799H515.973C514.742 143.604 514.004 144.758 513.318 146.082Z" fill="#CFCFCF"/>
<path d="M507.693 149.188C505.877 149.188 504.57 148.109 504.518 146.58H506.152C506.252 147.295 506.885 147.787 507.705 147.787C508.631 147.787 509.27 147.143 509.27 146.223C509.27 145.285 508.631 144.629 507.717 144.629C507.078 144.629 506.527 144.922 506.234 145.408H504.652L505.068 140.545H510.447V141.951H506.457L506.264 144.266H506.299C506.645 143.697 507.318 143.34 508.18 143.34C509.797 143.34 510.957 144.529 510.957 146.176C510.957 147.969 509.633 149.188 507.693 149.188Z" fill="#CFCFCF"/>
<path d="M502.221 149.07C501.693 149.07 501.277 148.648 501.277 148.127C501.277 147.6 501.693 147.184 502.221 147.184C502.742 147.184 503.164 147.6 503.164 148.127C503.164 148.648 502.742 149.07 502.221 149.07Z" fill="#CFCFCF"/>
<path d="M496.73 149.188C494.68 149.188 493.303 148.174 493.303 146.709C493.303 145.596 494.111 144.734 495.289 144.541V144.506C494.305 144.277 493.643 143.521 493.643 142.59C493.643 141.301 494.92 140.357 496.73 140.357C498.547 140.357 499.812 141.295 499.812 142.596C499.812 143.516 499.156 144.271 498.172 144.506V144.541C499.355 144.74 500.158 145.602 500.158 146.715C500.158 148.18 498.764 149.188 496.73 149.188ZM496.73 147.898C497.662 147.898 498.307 147.342 498.307 146.58C498.307 145.818 497.662 145.262 496.73 145.262C495.799 145.262 495.148 145.818 495.148 146.58C495.148 147.342 495.799 147.898 496.73 147.898ZM496.73 143.973C497.51 143.973 498.066 143.48 498.066 142.807C498.066 142.127 497.51 141.635 496.73 141.635C495.945 141.635 495.395 142.133 495.395 142.807C495.395 143.48 495.945 143.973 496.73 143.973Z" fill="#CFCFCF"/>
<path d="M489.102 149.193C487.889 149.193 486.887 148.643 486.295 147.635C485.826 146.92 485.586 145.965 485.586 144.84C485.586 142.039 486.945 140.352 489.131 140.352C490.742 140.352 492.002 141.307 492.236 142.689H490.496C490.326 142.127 489.781 141.752 489.119 141.752C487.941 141.752 487.227 142.883 487.268 144.793H487.303C487.643 143.967 488.475 143.416 489.553 143.416C491.158 143.416 492.348 144.6 492.348 146.205C492.348 147.945 490.994 149.193 489.102 149.193ZM489.084 147.781C489.945 147.781 490.625 147.107 490.625 146.258C490.625 145.385 489.975 144.746 489.09 144.746C488.211 144.746 487.543 145.385 487.543 146.24C487.543 147.102 488.217 147.781 489.084 147.781Z" fill="#CFCFCF"/>
<path d="M483.6 149.07C483.072 149.07 482.656 148.648 482.656 148.127C482.656 147.6 483.072 147.184 483.6 147.184C484.121 147.184 484.543 147.6 484.543 148.127C484.543 148.648 484.121 149.07 483.6 149.07Z" fill="#CFCFCF"/>
<path d="M475.186 143.088C475.186 141.488 476.463 140.357 478.309 140.357C480.09 140.357 481.314 141.389 481.314 142.801C481.314 143.855 480.611 144.646 479.68 145.572L477.617 147.559V147.594H481.432V149H475.285V147.811L478.473 144.74C479.328 143.885 479.592 143.457 479.592 142.871C479.592 142.238 479.035 141.734 478.25 141.734C477.43 141.734 476.826 142.309 476.826 143.088V143.117H475.186V143.088Z" fill="#CFCFCF"/>
<path d="M470.697 149.188C469.08 149.188 467.809 148.227 467.574 146.844H469.32C469.49 147.412 470.047 147.787 470.727 147.787C471.893 147.787 472.602 146.68 472.555 144.74C472.549 144.74 472.537 144.74 472.537 144.74H472.525H472.52C472.215 145.566 471.383 146.123 470.27 146.123C468.676 146.123 467.463 144.939 467.463 143.334C467.463 141.594 468.834 140.352 470.721 140.352C471.939 140.352 472.953 140.896 473.539 141.898C474.008 142.619 474.248 143.568 474.248 144.699C474.248 147.5 472.924 149.188 470.697 149.188ZM470.732 144.793C471.611 144.793 472.279 144.148 472.279 143.293C472.279 142.432 471.605 141.764 470.744 141.764C469.877 141.764 469.191 142.432 469.191 143.281C469.191 144.148 469.854 144.793 470.732 144.793Z" fill="#CFCFCF"/>
<path d="M72.2402 172.188C70.4238 172.188 69.1172 171.109 69.0645 169.58H70.6992C70.7988 170.295 71.4316 170.787 72.252 170.787C73.1777 170.787 73.8164 170.143 73.8164 169.223C73.8164 168.285 73.1777 167.629 72.2637 167.629C71.625 167.629 71.0742 167.922 70.7812 168.408H69.1992L69.6152 163.545H74.9941V164.951H71.0039L70.8105 167.266H70.8457C71.1914 166.697 71.8652 166.34 72.7266 166.34C74.3438 166.34 75.5039 167.529 75.5039 169.176C75.5039 170.969 74.1797 172.188 72.2402 172.188Z" fill="#CFCFCF"/>
<path d="M65.2383 172V170.494H61.0312V168.988C61.7695 167.582 62.6895 166.1 64.4238 163.545H66.9199V169.076H68.0215V170.494H66.9199V172H65.2383ZM62.584 169.082V169.129H65.2734V164.799H65.2383C64.0078 166.604 63.2695 167.758 62.584 169.082Z" fill="#CFCFCF"/>
<path d="M57.5566 172V165.168H57.5215L55.3652 166.656V165.062L57.5508 163.545H59.3086V172H57.5566Z" fill="#CFCFCF"/>
<path d="M53.7949 172.07C53.2676 172.07 52.8516 171.648 52.8516 171.127C52.8516 170.6 53.2676 170.184 53.7949 170.184C54.3164 170.184 54.7383 170.6 54.7383 171.127C54.7383 171.648 54.3164 172.07 53.7949 172.07Z" fill="#CFCFCF"/>
<path d="M48.9727 172V170.494H44.7656V168.988C45.5039 167.582 46.4238 166.1 48.1582 163.545H50.6543V169.076H51.7559V170.494H50.6543V172H48.9727ZM46.3184 169.082V169.129H49.0078V164.799H48.9727C47.7422 166.604 47.0039 167.758 46.3184 169.082Z" fill="#CFCFCF"/>
<path d="M40.6934 172.188C38.877 172.188 37.5703 171.109 37.5176 169.58H39.1523C39.252 170.295 39.8848 170.787 40.7051 170.787C41.6309 170.787 42.2695 170.143 42.2695 169.223C42.2695 168.285 41.6309 167.629 40.7168 167.629C40.0781 167.629 39.5273 167.922 39.2344 168.408H37.6523L38.0684 163.545H43.4473V164.951H39.457L39.2637 167.266H39.2988C39.6445 166.697 40.3184 166.34 41.1797 166.34C42.7969 166.34 43.957 167.529 43.957 169.176C43.957 170.969 42.6328 172.188 40.6934 172.188Z" fill="#CFCFCF"/>
<path d="M35.2207 172.07C34.6934 172.07 34.2773 171.648 34.2773 171.127C34.2773 170.6 34.6934 170.184 35.2207 170.184C35.7422 170.184 36.1641 170.6 36.1641 171.127C36.1641 171.648 35.7422 172.07 35.2207 172.07Z" fill="#CFCFCF"/>
<path d="M29.7305 172.188C27.6797 172.188 26.3027 171.174 26.3027 169.709C26.3027 168.596 27.1113 167.734 28.2891 167.541V167.506C27.3047 167.277 26.6426 166.521 26.6426 165.59C26.6426 164.301 27.9199 163.357 29.7305 163.357C31.5469 163.357 32.8125 164.295 32.8125 165.596C32.8125 166.516 32.1562 167.271 31.1719 167.506V167.541C32.3555 167.74 33.1582 168.602 33.1582 169.715C33.1582 171.18 31.7637 172.188 29.7305 172.188ZM29.7305 170.898C30.6621 170.898 31.3066 170.342 31.3066 169.58C31.3066 168.818 30.6621 168.262 29.7305 168.262C28.7988 168.262 28.1484 168.818 28.1484 169.58C28.1484 170.342 28.7988 170.898 29.7305 170.898ZM29.7305 166.973C30.5098 166.973 31.0664 166.48 31.0664 165.807C31.0664 165.127 30.5098 164.635 29.7305 164.635C28.9453 164.635 28.3945 165.133 28.3945 165.807C28.3945 166.48 28.9453 166.973 29.7305 166.973Z" fill="#CFCFCF"/>
<path d="M22.1016 172.193C20.8887 172.193 19.8867 171.643 19.2949 170.635C18.8262 169.92 18.5859 168.965 18.5859 167.84C18.5859 165.039 19.9453 163.352 22.1309 163.352C23.7422 163.352 25.002 164.307 25.2363 165.689H23.4961C23.3262 165.127 22.7812 164.752 22.1191 164.752C20.9414 164.752 20.2266 165.883 20.2676 167.793H20.3027C20.6426 166.967 21.4746 166.416 22.5527 166.416C24.1582 166.416 25.3477 167.6 25.3477 169.205C25.3477 170.945 23.9941 172.193 22.1016 172.193ZM22.084 170.781C22.9453 170.781 23.625 170.107 23.625 169.258C23.625 168.385 22.9746 167.746 22.0898 167.746C21.2109 167.746 20.543 168.385 20.543 169.24C20.543 170.102 21.2168 170.781 22.084 170.781Z" fill="#CFCFCF"/>
<path d="M16.5996 172.07C16.0723 172.07 15.6562 171.648 15.6562 171.127C15.6562 170.6 16.0723 170.184 16.5996 170.184C17.1211 170.184 17.543 170.6 17.543 171.127C17.543 171.648 17.1211 172.07 16.5996 172.07Z" fill="#CFCFCF"/>
<path d="M8.18555 166.088C8.18555 164.488 9.46289 163.357 11.3086 163.357C13.0898 163.357 14.3145 164.389 14.3145 165.801C14.3145 166.855 13.6113 167.646 12.6797 168.572L10.6172 170.559V170.594H14.4316V172H8.28516V170.811L11.4727 167.74C12.3281 166.885 12.5918 166.457 12.5918 165.871C12.5918 165.238 12.0352 164.734 11.25 164.734C10.4297 164.734 9.82617 165.309 9.82617 166.088V166.117H8.18555V166.088Z" fill="#CFCFCF"/>
<path d="M3.69727 172.188C2.08008 172.188 0.808594 171.227 0.574219 169.844H2.32031C2.49023 170.412 3.04688 170.787 3.72656 170.787C4.89258 170.787 5.60156 169.68 5.55469 167.74C5.54883 167.74 5.53711 167.74 5.53711 167.74H5.52539H5.51953C5.21484 168.566 4.38281 169.123 3.26953 169.123C1.67578 169.123 0.462891 167.939 0.462891 166.334C0.462891 164.594 1.83398 163.352 3.7207 163.352C4.93945 163.352 5.95312 163.896 6.53906 164.898C7.00781 165.619 7.24805 166.568 7.24805 167.699C7.24805 170.5 5.92383 172.188 3.69727 172.188ZM3.73242 167.793C4.61133 167.793 5.2793 167.148 5.2793 166.293C5.2793 165.432 4.60547 164.764 3.74414 164.764C2.87695 164.764 2.19141 165.432 2.19141 166.281C2.19141 167.148 2.85352 167.793 3.73242 167.793Z" fill="#CFCFCF"/>
<circle cx="113" cy="207" r="93" fill="#D9D9D9" fill-opacity="0.2"/>
<circle cx="426.5" cy="71.5" r="57.5" fill="#D9D9D9" fill-opacity="0.2"/>
</svg>
