<svg width="52" height="52" viewBox="0 0 52 52" fill="none" xmlns="http://www.w3.org/2000/svg">
<g clip-path="url(#clip0_2013_195)">
<path d="M40.2061 29.164C40.7302 29.688 41.056 30.4137 41.056 31.214C41.056 32.0161 40.7302 32.74 40.2061 33.2658C39.6804 33.7898 38.9564 34.1132 38.1561 34.1132C37.354 34.1132 36.6301 33.7898 36.1043 33.2658C35.5803 32.74 35.2569 32.0161 35.2569 31.214C35.2569 30.4145 35.5811 29.688 36.1043 29.164C36.6301 28.6399 37.354 28.3141 38.1561 28.3141C38.9564 28.3141 39.6804 28.6399 40.2061 29.164ZM48.0007 30.6043V31.8254C48.0007 32.1899 47.7748 32.5015 47.4271 32.6132L46.5604 32.8937C46.2891 32.9819 46.0959 33.1818 46.0203 33.4556C45.8465 34.0653 45.6038 34.6456 45.3014 35.189C45.1637 35.4368 45.1587 35.7148 45.2872 35.9676L45.7012 36.7814C45.8675 37.1047 45.8062 37.4835 45.5492 37.743L44.685 38.6072C44.428 38.8642 44.0492 38.9238 43.7234 38.7592L42.9096 38.3451C42.6576 38.2141 42.3788 38.2192 42.131 38.3594C41.5885 38.6618 41.0073 38.9045 40.3976 39.0758C40.1238 39.1548 39.9239 39.3471 39.8383 39.6184L39.5552 40.4851C39.4435 40.8328 39.1336 41.0562 38.7675 41.0562H37.5463C37.1818 41.0562 36.8703 40.8319 36.7586 40.4851L36.478 39.6184C36.3899 39.3471 36.19 39.1539 35.9162 39.0758C35.3065 38.9045 34.7261 38.6618 34.1828 38.3594C33.935 38.2217 33.657 38.2141 33.4042 38.3451L32.5904 38.7592C32.2662 38.9238 31.8883 38.8642 31.6288 38.6072L30.7646 37.743C30.5076 37.4835 30.448 37.1047 30.6126 36.7814L31.0266 35.9676C31.1576 35.7156 31.1526 35.4368 31.0123 35.189C30.71 34.6465 30.4673 34.0653 30.296 33.4556C30.217 33.1818 30.0247 32.9819 29.7534 32.8937L28.8867 32.6132C28.539 32.5015 28.3156 32.1891 28.3156 31.8254V30.6043C28.3156 30.2373 28.539 29.9282 28.8867 29.8165L29.7559 29.5335C30.0247 29.4453 30.2179 29.248 30.296 28.9742C30.4698 28.3644 30.71 27.7841 31.0123 27.2407C31.1526 26.993 31.1576 26.715 31.0266 26.4622L30.6126 25.6484C30.448 25.3225 30.5076 24.9438 30.7646 24.6868L31.6288 23.8226C31.8883 23.5656 32.2671 23.5034 32.5904 23.6706L33.4042 24.0846C33.6562 24.2131 33.935 24.2081 34.1828 24.0703C34.7253 23.768 35.3065 23.5253 35.9162 23.3514C36.19 23.275 36.3899 23.0827 36.478 22.8114L36.7586 21.9447C36.8703 21.597 37.1827 21.3711 37.5463 21.3711H38.7675C39.1345 21.3711 39.4435 21.597 39.5552 21.9447L39.8383 22.8114C39.9239 23.0827 40.1238 23.2758 40.3976 23.3514C41.0073 23.5253 41.5877 23.768 42.131 24.0703C42.3788 24.2081 42.6568 24.2131 42.9096 24.0846L43.7234 23.6706C44.0492 23.5043 44.428 23.5656 44.685 23.8226L45.5492 24.6868C45.8062 24.9438 45.8683 25.3225 45.7012 25.6484L45.2872 26.4622C45.1587 26.7142 45.1637 26.993 45.3014 27.2407C45.6038 27.7833 45.8465 28.3644 46.0203 28.9742C46.0968 29.248 46.2891 29.4478 46.5604 29.5335L47.4271 29.8165C47.7748 29.9282 48.0007 30.2373 48.0007 30.6043ZM42.4418 31.214C42.4418 30.0307 41.9631 28.9599 41.187 28.1839C40.411 27.4079 39.3394 26.9266 38.1561 26.9266C36.9702 26.9266 35.8994 27.4079 35.1234 28.1839C34.3474 28.9599 33.8687 30.0315 33.8687 31.214C33.8687 32.3999 34.3474 33.4707 35.1234 34.2467C35.8994 35.0227 36.971 35.5014 38.1561 35.5014C39.3394 35.5014 40.4102 35.0227 41.187 34.2467C41.9631 33.4707 42.4418 32.3991 42.4418 31.214ZM28.8363 40.3843H25.8053L24.8815 37.8085H18.2702L17.3489 40.3843H14.3179C13.935 40.3843 13.6225 40.6942 13.6225 41.0772C13.6225 41.4601 13.9341 41.7726 14.3179 41.7726H28.8355C29.2184 41.7726 29.5309 41.461 29.5309 41.0772C29.5317 40.6934 29.2201 40.3843 28.8363 40.3843ZM26.9559 30.223H4.99902V13.3993C4.99902 12.2042 5.97744 11.2283 7.17254 11.2283H35.9834C37.1785 11.2283 38.1569 12.2042 38.1569 13.3993V19.982H37.5455C36.5788 19.982 35.7365 20.5959 35.4383 21.5155L35.2452 22.1034C34.7379 22.2655 34.2449 22.4704 33.7712 22.7157L33.2186 22.4343C32.3595 21.9959 31.3281 22.158 30.6453 22.8416L29.7811 23.7058C29.0975 24.3869 28.9362 25.4174 29.3738 26.2791L29.6543 26.8317C29.4116 27.3054 29.2067 27.7984 29.0446 28.3057L28.4542 28.4963C27.6605 28.7541 27.0936 29.421 26.9559 30.223ZM13.7309 21.0721L18.3257 18.5055C18.6591 18.3199 18.78 17.8983 18.5944 17.5649C18.4088 17.2315 17.9872 17.1105 17.6538 17.2961L11.9832 20.4624C11.8715 20.5245 11.774 20.6169 11.7069 20.7361C11.5212 21.0696 11.6422 21.4912 11.9756 21.6768L17.6538 24.848C17.9872 25.0336 18.4088 24.9144 18.5944 24.5793C18.78 24.2459 18.6591 23.8242 18.3257 23.6386L13.7309 21.0721ZM22.9179 15.2276C22.5442 15.1419 22.173 15.3754 22.0873 15.7492L19.719 26.0885C19.6333 26.4597 19.8668 26.8309 20.238 26.9166C20.6117 27.0022 20.9829 26.7687 21.0686 26.395L23.437 16.0582C23.5226 15.6845 23.2891 15.3133 22.9179 15.2276ZM25.5013 24.848L31.1795 21.6768C31.5129 21.4912 31.6338 21.0696 31.4482 20.7361C31.3819 20.6169 31.2836 20.5245 31.1719 20.4624L25.5013 17.2961C25.1679 17.1105 24.7463 17.2315 24.5607 17.5649C24.3751 17.8983 24.496 18.3199 24.8294 18.5055L29.4242 21.0721L24.8294 23.6386C24.496 23.8242 24.3751 24.2459 24.5607 24.5793C24.7463 24.9144 25.1679 25.0336 25.5013 24.848ZM28.4559 33.9326C27.5371 33.6353 26.9248 32.7921 26.9248 31.8254V31.6113H4.99902V34.2492C4.99902 35.4418 5.97744 36.4202 7.17254 36.4202H29.2579C29.2915 36.3295 29.3293 36.2397 29.3746 36.1515L29.6552 35.5989C29.4124 35.1252 29.2075 34.6322 29.0429 34.1249L28.4559 33.9326Z" fill="#2D6AFF"/>
</g>
<defs>
<clipPath id="clip0_2013_195">
<rect width="43" height="43" fill="white" transform="translate(5 5)"/>
</clipPath>
</defs>
</svg>
