<svg width="52" height="52" viewBox="0 0 52 52" fill="none" xmlns="http://www.w3.org/2000/svg">
<g clip-path="url(#clip0_2013_189)">
<path d="M37.5312 17.9121C37.4011 17.9121 37.2713 17.9168 37.142 17.926C36.7524 16.6834 36.02 15.5624 35.0213 14.7001C33.6788 13.5409 31.9403 12.9293 30.1619 12.9951C28.4189 9.93867 25.1603 8 21.6719 8C17.2899 8 13.4124 11.0117 12.2483 15.2367C9.72635 16.3578 8.06836 18.8763 8.06836 21.6719C8.06836 24.3976 9.62524 26.7664 11.8965 27.9361V25.3633C11.8965 23.6671 13.2765 22.2871 14.9727 22.2871H36.0273C37.7236 22.2871 39.1035 23.6671 39.1035 25.3633V28.4783C41.3167 27.8034 42.9316 25.7436 42.9316 23.3125C42.9316 20.3347 40.509 17.9121 37.5312 17.9121Z" fill="#2D6AFF"/>
<path d="M36.0273 24.3379H14.9727C14.4064 24.3379 13.9473 24.797 13.9473 25.3633V32.6055H37.0527V25.3633C37.0527 24.797 36.5936 24.3379 36.0273 24.3379ZM22.7393 29.6016H17.2969C16.7306 29.6016 16.2715 29.1425 16.2715 28.5762C16.2715 28.0099 16.7306 27.5508 17.2969 27.5508H22.7393C23.3055 27.5508 23.7647 28.0099 23.7647 28.5762C23.7647 29.1425 23.3055 29.6016 22.7393 29.6016ZM29.3281 29.5917C28.7618 29.5917 28.3027 29.1326 28.3027 28.5663C28.3027 28 28.7618 27.5409 29.3281 27.5409C29.8943 27.5409 30.3535 28 30.3535 28.5663C30.3535 29.1326 29.8943 29.5917 29.3281 29.5917ZM33.7031 29.5917C33.1368 29.5917 32.6777 29.1326 32.6777 28.5663C32.6777 28 33.1368 27.5409 33.7031 27.5409C34.2693 27.5409 34.7285 28 34.7285 28.5663C34.7285 29.1326 34.2693 29.5917 33.7031 29.5917Z" fill="#2D6AFF"/>
<path d="M13.9473 41.9745C13.9473 42.5408 14.4064 42.9999 14.9727 42.9999H36.0273C36.5936 42.9999 37.0527 42.5408 37.0527 41.9745V34.6562H13.9473V41.9745ZM33.7031 37.5312C34.2693 37.5312 34.7285 37.9903 34.7285 38.5566C34.7285 39.1229 34.2693 39.582 33.7031 39.582C33.1368 39.582 32.6777 39.1229 32.6777 38.5566C32.6777 37.9903 33.1368 37.5312 33.7031 37.5312ZM29.3281 37.5312C29.8943 37.5312 30.3535 37.9903 30.3535 38.5566C30.3535 39.1229 29.8943 39.582 29.3281 39.582C28.7618 39.582 28.3027 39.1229 28.3027 38.5566C28.3027 37.9903 28.7618 37.5312 29.3281 37.5312ZM17.2969 37.5312H22.7393C23.3055 37.5312 23.7647 37.9903 23.7647 38.5566C23.7647 39.1229 23.3055 39.582 22.7393 39.582H17.2969C16.7306 39.582 16.2715 39.1229 16.2715 38.5566C16.2715 37.9903 16.7306 37.5312 17.2969 37.5312Z" fill="#2D6AFF"/>
</g>
<defs>
<clipPath id="clip0_2013_189">
<rect width="35" height="35" fill="white" transform="translate(8 8)"/>
</clipPath>
</defs>
</svg>
