<svg width="52" height="52" viewBox="0 0 52 52" fill="none" xmlns="http://www.w3.org/2000/svg">
<path d="M44.1716 33.7522L42.0753 32.5334L28.3156 40.4188C27.7598 40.7397 27.1293 40.9086 26.4875 40.9086C25.8457 40.9086 25.2152 40.7397 24.6594 40.4188L10.9241 32.5578L8.8278 33.7766C8.64024 33.8829 8.48423 34.037 8.37569 34.2233C8.26715 34.4096 8.20996 34.6213 8.20996 34.8369C8.20996 35.0525 8.26715 35.2642 8.37569 35.4505C8.48423 35.6368 8.64024 35.7909 8.8278 35.8972L25.8903 45.6472C26.0756 45.7542 26.2857 45.8105 26.4997 45.8105C26.7136 45.8105 26.9238 45.7542 27.1091 45.6472L44.1716 35.8972C44.3591 35.7909 44.5151 35.6368 44.6237 35.4505C44.7322 35.2642 44.7894 35.0525 44.7894 34.8369C44.7894 34.6213 44.7322 34.4096 44.6237 34.2233C44.5151 34.037 44.3591 33.8829 44.1716 33.7766V33.7522Z" fill="#2D6AFF"/>
<path d="M44.1716 26.4397L42.0753 25.2209L28.3156 33.1063C27.7598 33.4272 27.1293 33.5961 26.4875 33.5961C25.8457 33.5961 25.2152 33.4272 24.6594 33.1063L10.9241 25.2453L8.8278 26.4641C8.64024 26.5704 8.48423 26.7245 8.37569 26.9108C8.26715 27.0971 8.20996 27.3088 8.20996 27.5244C8.20996 27.74 8.26715 27.9517 8.37569 28.138C8.48423 28.3243 8.64024 28.4784 8.8278 28.5847L25.8903 38.3347C26.0756 38.4417 26.2857 38.498 26.4997 38.498C26.7136 38.498 26.9238 38.4417 27.1091 38.3347L44.1716 28.5847C44.3591 28.4784 44.5151 28.3243 44.6237 28.138C44.7322 27.9517 44.7894 27.74 44.7894 27.5244C44.7894 27.3088 44.7322 27.0971 44.6237 26.9108C44.5151 26.7245 44.3591 26.5704 44.1716 26.4641V26.4397Z" fill="#2D6AFF"/>
<path d="M8.8278 21.2478L25.8903 30.9978C26.0756 31.1047 26.2857 31.1611 26.4997 31.1611C26.7136 31.1611 26.9238 31.1047 27.1091 30.9978L44.1716 21.2478C44.3591 21.1415 44.5151 20.9873 44.6237 20.8011C44.7322 20.6148 44.7894 20.4031 44.7894 20.1875C44.7894 19.9719 44.7322 19.7601 44.6237 19.5739C44.5151 19.3876 44.3591 19.2334 44.1716 19.1271L27.1091 9.37715C26.9238 9.27018 26.7136 9.21387 26.4997 9.21387C26.2857 9.21387 26.0756 9.27018 25.8903 9.37715L8.8278 19.1271C8.64024 19.2334 8.48423 19.3876 8.37569 19.5739C8.26715 19.7601 8.20996 19.9719 8.20996 20.1875C8.20996 20.4031 8.26715 20.6148 8.37569 20.8011C8.48423 20.9873 8.64024 21.1415 8.8278 21.2478ZM31.07 17.945L32.7884 16.2265L35.8962 19.3221C36.0105 19.4354 36.1011 19.5702 36.163 19.7188C36.2249 19.8673 36.2567 20.0266 36.2567 20.1875C36.2567 20.3484 36.2249 20.5076 36.163 20.6562C36.1011 20.8047 36.0105 20.9395 35.8962 21.0528L32.7884 24.1484L31.07 22.43L33.3125 20.1875L31.07 17.945ZM26.4997 15.1296L28.9372 15.7146L26.4997 25.2453L24.1353 24.6603L26.4997 15.1296ZM17.1031 19.3221L20.2109 16.2265L21.9294 17.945L19.6869 20.1875L21.9294 22.43L20.2109 24.1484L17.1031 21.0528C16.9889 20.9395 16.8982 20.8047 16.8363 20.6562C16.7745 20.5076 16.7426 20.3484 16.7426 20.1875C16.7426 20.0266 16.7745 19.8673 16.8363 19.7188C16.8982 19.5702 16.9889 19.4354 17.1031 19.3221Z" fill="#2D6AFF"/>
</svg>
