<svg width="52" height="52" viewBox="0 0 52 52" fill="none" xmlns="http://www.w3.org/2000/svg">
<g clip-path="url(#clip0_258_2110)">
<mask id="mask0_258_2110" style="mask-type:alpha" maskUnits="userSpaceOnUse" x="22" y="22" width="8" height="8">
<rect x="22.7344" y="22.7344" width="6.53125" height="6.53125" rx="3.26562" fill="#EDEDED"/>
</mask>
<g mask="url(#mask0_258_2110)">
</g>
<g clip-path="url(#clip1_258_2110)">
<path d="M26.0003 39.8541C25.1263 39.8541 24.417 39.1448 24.417 38.2708V31.5416C24.417 30.6676 25.1263 29.9583 26.0003 29.9583C26.8743 29.9583 27.5837 30.6676 27.5837 31.5416V38.2708C27.5837 39.1448 26.8743 39.8541 26.0003 39.8541Z" fill="#2D6AFF"/>
<path d="M27.9788 43.4166H24.0205C23.365 43.4166 22.833 42.8846 22.833 42.2291V38.2708C22.833 37.6153 23.365 37.0833 24.0205 37.0833H27.9788C28.6343 37.0833 29.1663 37.6153 29.1663 38.2708V42.2291C29.1663 42.8846 28.6343 43.4166 27.9788 43.4166Z" fill="#2D6AFF"/>
<path d="M24.0208 41.8334H13.3333C12.4593 41.8334 11.75 41.1241 11.75 40.2501C11.75 39.3761 12.4593 38.6667 13.3333 38.6667H24.0208C24.8948 38.6667 25.6042 39.3761 25.6042 40.2501C25.6042 41.1241 24.8948 41.8334 24.0208 41.8334Z" fill="#2D6AFF"/>
<path d="M38.6663 41.8334H27.9788C27.1048 41.8334 26.3955 41.1241 26.3955 40.2501C26.3955 39.3761 27.1048 38.6667 27.9788 38.6667H38.6663C39.5403 38.6667 40.2497 39.3761 40.2497 40.2501C40.2497 41.1241 39.5403 41.8334 38.6663 41.8334Z" fill="#2D6AFF"/>
<path d="M39.4583 8.58325H12.5417C9.48583 8.58325 7 11.0691 7 14.1249C7 17.1808 9.48583 19.6666 12.5417 19.6666H39.4583C42.5142 19.6666 45 17.1808 45 14.1249C45 11.0691 42.5142 8.58325 39.4583 8.58325ZM12.5417 16.4999C11.2307 16.4999 10.1667 15.4359 10.1667 14.1249C10.1667 12.8139 11.2307 11.7499 12.5417 11.7499C13.8527 11.7499 14.9167 12.8139 14.9167 14.1249C14.9167 15.4359 13.8527 16.4999 12.5417 16.4999ZM20.4583 16.4999C19.1473 16.4999 18.0833 15.4359 18.0833 14.1249C18.0833 12.8139 19.1473 11.7499 20.4583 11.7499C21.7693 11.7499 22.8333 12.8139 22.8333 14.1249C22.8333 15.4359 21.7693 16.4999 20.4583 16.4999Z" fill="#2D6AFF"/>
<path d="M39.4583 22.8333H12.5417C9.48583 22.8333 7 25.3191 7 28.3749C7 31.4308 9.48583 33.9166 12.5417 33.9166H39.4583C42.5142 33.9166 45 31.4308 45 28.3749C45 25.3191 42.5142 22.8333 39.4583 22.8333ZM12.5417 30.7499C11.2307 30.7499 10.1667 29.6859 10.1667 28.3749C10.1667 27.0639 11.2307 25.9999 12.5417 25.9999C13.8527 25.9999 14.9167 27.0639 14.9167 28.3749C14.9167 29.6859 13.8527 30.7499 12.5417 30.7499ZM20.4583 30.7499C19.1473 30.7499 18.0833 29.6859 18.0833 28.3749C18.0833 27.0639 19.1473 25.9999 20.4583 25.9999C21.7693 25.9999 22.8333 27.0639 22.8333 28.3749C22.8333 29.6859 21.7693 30.7499 20.4583 30.7499Z" fill="#2D6AFF"/>
</g>
<g filter="url(#filter0_f_258_2110)">
<circle cx="28.7461" cy="21.6953" r="2.96875" fill="#2D6AFF" fill-opacity="0.34"/>
</g>
</g>
<defs>
<filter id="filter0_f_258_2110" x="-54.8227" y="-61.8734" width="167.137" height="167.137" filterUnits="userSpaceOnUse" color-interpolation-filters="sRGB">
<feFlood flood-opacity="0" result="BackgroundImageFix"/>
<feBlend mode="normal" in="SourceGraphic" in2="BackgroundImageFix" result="shape"/>
<feGaussianBlur stdDeviation="40.3" result="effect1_foregroundBlur_258_2110"/>
</filter>
<clipPath id="clip0_258_2110">
<rect width="52" height="52" fill="white"/>
</clipPath>
<clipPath id="clip1_258_2110">
<rect width="38" height="38" fill="white" transform="translate(7 7)"/>
</clipPath>
</defs>
</svg>
