<svg width="52" height="52" viewBox="0 0 52 52" fill="none" xmlns="http://www.w3.org/2000/svg">
<g clip-path="url(#clip0_256_2029)">
<path d="M39.8667 11H12.1333C10.96 11 10 11.96 10 13.1333V16.3333H42V13.1333C42 11.96 41.04 11 39.8667 11ZM13.2 14.7333C12.6133 14.7333 12.1333 14.2533 12.1333 13.6666C12.1333 13.0799 12.6133 12.5999 13.2 12.5999C13.7867 12.5999 14.2667 13.0799 14.2667 13.6666C14.2667 14.2533 13.7867 14.7333 13.2 14.7333ZM16.4 14.7333C15.8133 14.7333 15.3333 14.2533 15.3333 13.6666C15.3333 13.0799 15.8133 12.5999 16.4 12.5999C16.9867 12.5999 17.4667 13.0799 17.4667 13.6666C17.4667 14.2533 16.9867 14.7333 16.4 14.7333ZM19.6 14.7333C19.0133 14.7333 18.5333 14.2533 18.5333 13.6666C18.5333 13.0799 19.0133 12.5999 19.6 12.5999C20.1867 12.5999 20.6667 13.0799 20.6667 13.6666C20.6667 14.2533 20.1867 14.7333 19.6 14.7333Z" fill="#2D6AFF"/>
<path d="M18 35.73C18.5523 35.73 19 35.2823 19 34.73C19 34.1777 18.5523 33.73 18 33.73C17.4477 33.73 17 34.1777 17 34.73C17 35.2823 17.4477 35.73 18 35.73Z" fill="#2D6AFF"/>
<path d="M26 29.73C25.45 29.73 25 30.18 25 30.73C25 31.29 25.45 31.73 26 31.73C26.55 31.73 27 31.29 27 30.73C27 30.18 26.55 29.73 26 29.73ZM26 29.73C25.45 29.73 25 30.18 25 30.73C25 31.29 25.45 31.73 26 31.73C26.55 31.73 27 31.29 27 30.73C27 30.18 26.55 29.73 26 29.73ZM26 29.73C25.45 29.73 25 30.18 25 30.73C25 31.29 25.45 31.73 26 31.73C26.55 31.73 27 31.29 27 30.73C27 30.18 26.55 29.73 26 29.73ZM26 29.73C25.45 29.73 25 30.18 25 30.73C25 31.29 25.45 31.73 26 31.73C26.55 31.73 27 31.29 27 30.73C27 30.18 26.55 29.73 26 29.73ZM10 18.47V40.87C10 42.04 10.96 43 12.13 43H39.87C41.04 43 42 42.04 42 40.87V18.47H10ZM19 37.56V38.73C19 39.29 18.55 39.73 18 39.73C17.45 39.73 17 39.29 17 38.73V37.56C15.84 37.14 15 36.04 15 34.73C15 33.43 15.84 32.32 17 31.91V22.73C17 22.18 17.45 21.73 18 21.73C18.55 21.73 19 22.18 19 22.73V31.91C20.16 32.32 21 33.43 21 34.73C21 36.04 20.16 37.14 19 37.56ZM26.98 33.57C27 33.62 27 33.68 27 33.73V38.73C27 39.29 26.55 39.73 26 39.73C25.45 39.73 25 39.29 25 38.73V33.73C25 33.68 25 33.62 25.02 33.57C23.85 33.16 23 32.04 23 30.73C23 29.43 23.84 28.32 25 27.91V22.73C25 22.18 25.45 21.73 26 21.73C26.55 21.73 27 22.18 27 22.73V27.91C28.16 28.32 29 29.43 29 30.73C29 32.04 28.15 33.16 26.98 33.57ZM35 30.56V38.73C35 39.29 34.55 39.73 34 39.73C33.45 39.73 33 39.29 33 38.73V30.56C31.84 30.14 31 29.04 31 27.73C31 26.43 31.84 25.32 33 24.91V22.73C33 22.18 33.45 21.73 34 21.73C34.55 21.73 35 22.18 35 22.73V24.91C36.16 25.32 37 26.43 37 27.73C37 29.04 36.16 30.14 35 30.56ZM34 26.73C33.45 26.73 33 27.18 33 27.73C33 28.29 33.45 28.73 34 28.73C34.55 28.73 35 28.29 35 27.73C35 27.18 34.55 26.73 34 26.73ZM26 29.73C25.45 29.73 25 30.18 25 30.73C25 31.29 25.45 31.73 26 31.73C26.55 31.73 27 31.29 27 30.73C27 30.18 26.55 29.73 26 29.73ZM26 29.73C25.45 29.73 25 30.18 25 30.73C25 31.29 25.45 31.73 26 31.73C26.55 31.73 27 31.29 27 30.73C27 30.18 26.55 29.73 26 29.73ZM26 29.73C25.45 29.73 25 30.18 25 30.73C25 31.29 25.45 31.73 26 31.73C26.55 31.73 27 31.29 27 30.73C27 30.18 26.55 29.73 26 29.73Z" fill="#2D6AFF"/>
</g>
<defs>
<clipPath id="clip0_256_2029">
<rect width="32" height="32" fill="white" transform="translate(10 11)"/>
</clipPath>
</defs>
</svg>
