<svg width="52" height="52" viewBox="0 0 52 52" fill="none" xmlns="http://www.w3.org/2000/svg">
<path fill-rule="evenodd" clip-rule="evenodd" d="M22.1513 40.1666L20.4847 43.4999H18.4997C18.0397 43.4999 17.6663 43.8733 17.6663 44.3333C17.6663 44.7933 18.0397 45.1666 18.4997 45.1666H33.4997C33.9597 45.1666 34.333 44.7933 34.333 44.3333C34.333 43.8733 33.9597 43.4999 33.4997 43.4999H31.5147L29.848 40.1666H42.6663C44.0472 40.1666 45.1663 39.0474 45.1663 37.6666C45.1663 32.8783 45.1663 19.1216 45.1663 14.3333C45.1663 12.9524 44.0472 11.8333 42.6663 11.8333H9.33301C7.95217 11.8333 6.83301 12.9524 6.83301 14.3333V37.6666C6.83301 39.0474 7.95217 40.1666 9.33301 40.1666H22.1513ZM24.0147 40.1666H27.9847L29.6513 43.4999H22.348L24.0147 40.1666ZM43.4997 35.1666V37.6666C43.4997 38.1266 43.1263 38.4999 42.6663 38.4999H9.33301C8.87301 38.4999 8.49967 38.1266 8.49967 37.6666V35.1666H43.4997ZM31.833 21.9258V30.9999C31.833 31.4599 32.2063 31.8333 32.6663 31.8333C33.1263 31.8333 33.4997 31.4599 33.4997 30.9999V21.9258C33.4997 21.4658 33.1263 21.0924 32.6663 21.0924C32.2063 21.0924 31.833 21.4658 31.833 21.9258ZM28.4997 23.9424V30.9999C28.4997 31.4599 28.873 31.8333 29.333 31.8333C29.793 31.8333 30.1663 31.4599 30.1663 30.9999V23.9424C30.1663 23.4824 29.793 23.1091 29.333 23.1091C28.873 23.1091 28.4997 23.4824 28.4997 23.9424ZM38.4997 15.9999V30.9999C38.4997 31.4599 38.873 31.8333 39.333 31.8333C39.793 31.8333 40.1663 31.4599 40.1663 30.9999V15.9999C40.1663 15.5399 39.793 15.1666 39.333 15.1666C38.873 15.1666 38.4997 15.5399 38.4997 15.9999ZM35.1663 19.3333V30.9999C35.1663 31.4599 35.5397 31.8333 35.9997 31.8333C36.4597 31.8333 36.833 31.4599 36.833 30.9999V19.3333C36.833 18.8733 36.4597 18.4999 35.9997 18.4999C35.5397 18.4999 35.1663 18.8733 35.1663 19.3333ZM17.6663 15.1666C13.5272 15.1666 10.1663 18.5274 10.1663 22.6666C10.1663 26.8058 13.5272 30.1666 17.6663 30.1666C21.8055 30.1666 25.1663 26.8058 25.1663 22.6666C25.1663 18.5274 21.8055 15.1666 17.6663 15.1666ZM16.833 16.8924C14.0072 17.2974 11.833 19.7299 11.833 22.6666C11.833 25.8858 14.4472 28.4999 17.6663 28.4999C20.603 28.4999 23.0355 26.3258 23.4405 23.4999H19.333C17.9522 23.4999 16.833 22.3808 16.833 20.9999V16.8924ZM18.4997 16.8924V20.9999C18.4997 21.4599 18.873 21.8333 19.333 21.8333H23.4405C23.0747 19.2799 21.0522 17.2583 18.4997 16.8924Z" fill="#2D6AFF"/>
</svg>
