<svg width="52" height="52" viewBox="0 0 52 52" fill="none" xmlns="http://www.w3.org/2000/svg">
<g clip-path="url(#clip0_2013_193)">
<path d="M22.7511 24.0638C17.8934 23.9868 13.3474 23.1505 10.0031 20.3984L10.002 25.3608C14.8108 30.0661 30.7409 30.0817 35.5002 25.307L35.499 20.3984C32.1528 23.1511 27.6106 23.9862 22.7511 24.0638Z" fill="#2D6AFF"/>
<path d="M22.7265 31.2191C17.7602 31.1371 13.6764 30.4837 10.0009 28.3408L10 31.992C10.826 35.7483 17.8401 37.0349 23.2008 37.0065C21.7639 35.4055 22.4553 32.8092 24.5343 32.2027C25.6828 31.8632 26.8039 31.4077 27.8923 30.8408C26.2548 31.0894 24.5127 31.2191 22.7265 31.2191Z" fill="#2D6AFF"/>
<path d="M14.1079 20.1754C18.6967 22.2199 26.8039 22.22 31.3928 20.1753C36.8536 17.9429 36.8552 13.2664 31.3927 11.0338C26.8038 8.9894 18.6968 8.98932 14.1079 11.0339C8.6471 13.2664 8.64554 17.9429 14.1079 20.1754Z" fill="#2D6AFF"/>
<path d="M48.7371 18.5123C47.3764 17.5327 45.4722 17.8428 44.4926 19.2035L38.8359 27.0606C39.1937 27.2281 39.5382 27.4294 39.8651 27.6647C40.5687 28.2077 43.2214 29.9733 43.7729 30.6122L49.4283 22.7568C50.4079 21.3961 50.0979 19.492 48.7371 18.5123Z" fill="#2D6AFF"/>
<path d="M41.5035 31.732L38.496 29.5666C36.99 28.4823 34.9582 28.5731 33.5548 29.787C30.9988 31.9978 28.1877 33.5668 25.1991 34.4503C25.0149 34.5047 24.8691 34.6461 24.8088 34.8285C24.7486 35.0109 24.7817 35.2112 24.8972 35.3647C25.6936 36.4221 26.4452 37.3458 27.1951 38.1887C27.3267 38.3366 27.5242 38.4078 27.7193 38.3788L30.4664 37.9689L29.101 39.3242C28.9882 39.4361 28.9257 39.5891 28.9279 39.748C28.93 39.9069 28.9967 40.0581 29.1124 40.167C30.4931 41.4647 31.9411 42.5531 33.5393 43.4941C33.756 43.6216 34.0299 43.5968 34.2202 43.4322L35.7658 42.0941L35.3412 43.9604C35.2805 44.2275 35.4128 44.5009 35.6599 44.619C37.0252 45.2715 38.549 45.8761 40.3187 46.4673C40.6901 46.6033 41.1162 46.2864 41.0899 45.8899C40.9851 43.0919 41.3232 40.864 42.1217 38.6223C42.4005 37.7729 42.6208 37.1021 42.8849 36.4312C43.5646 34.7046 43.0095 32.8162 41.5035 31.732Z" fill="#2D6AFF"/>
</g>
<defs>
<clipPath id="clip0_2013_193">
<rect width="40" height="40" fill="white" transform="translate(10 8)"/>
</clipPath>
</defs>
</svg>
