<svg width="52" height="52" viewBox="0 0 52 52" fill="none" xmlns="http://www.w3.org/2000/svg">
<path d="M8.1709 44.9571C8.1709 45.6242 8.43594 46.2641 8.90771 46.7359C9.37948 47.2076 10.0193 47.4727 10.6865 47.4727H41.3143C41.9814 47.4727 42.6213 47.2076 43.0931 46.7359C43.5648 46.2641 43.8299 45.6242 43.8299 44.9571V35.8101H8.1709V44.9571ZM29.1189 42.1926C29.0717 42.1971 29.0241 42.1971 28.9769 42.1926C28.9273 42.1881 28.8781 42.1803 28.8296 42.1692C28.421 42.1203 28.0302 41.9737 27.6902 41.7419C27.3502 41.5101 27.0709 41.1999 26.8761 40.8375C26.6812 40.475 26.5764 40.071 26.5706 39.6596C26.5648 39.2481 26.6581 38.8413 26.8426 38.4735C27.0271 38.1057 27.2974 37.7877 27.6307 37.5463C27.964 37.305 28.3505 37.1475 28.7576 37.087C29.1646 37.0265 29.5802 37.0648 29.9693 37.1988C30.3584 37.3328 30.7095 37.5584 30.993 37.8567C31.0439 37.9075 31.0841 37.9681 31.1112 38.0347C31.1383 38.1013 31.1519 38.1727 31.151 38.2446C31.1501 38.3165 31.1349 38.3875 31.1061 38.4535C31.0774 38.5194 31.0357 38.5789 30.9836 38.6285C30.9315 38.6781 30.87 38.7168 30.8027 38.7422C30.7354 38.7677 30.6637 38.7794 30.5919 38.7767C30.52 38.774 30.4494 38.757 30.3842 38.7266C30.319 38.6962 30.2605 38.653 30.2123 38.5997C30.0479 38.4269 29.8444 38.2961 29.6189 38.2185C29.3934 38.1409 29.1525 38.1187 28.9167 38.1538C28.6808 38.1889 28.4568 38.2803 28.2636 38.4202C28.0705 38.56 27.9139 38.7444 27.807 38.9576C27.7001 39.1707 27.646 39.4065 27.6495 39.645C27.6529 39.8834 27.7137 40.1176 27.8266 40.3276C27.9396 40.5376 28.1015 40.7174 28.2986 40.8517C28.4956 40.986 28.7221 41.0709 28.9589 41.0992H28.9751L29.1548 41.1081H29.1845C29.8324 41.1871 30.4258 41.5102 30.8438 42.0114C31.2619 42.5127 31.4732 43.1544 31.4346 43.806C31.396 44.4576 31.1104 45.0699 30.6361 45.5183C30.1618 45.9667 29.5344 46.2174 28.8817 46.2194C28.8278 46.2194 28.773 46.2194 28.7182 46.214C28.2884 46.1876 27.8723 46.0531 27.5084 45.823C27.1445 45.5929 26.8446 45.2747 26.6365 44.8978C26.567 44.7728 26.5501 44.6253 26.5893 44.4878C26.6286 44.3503 26.7208 44.2341 26.8458 44.1646C26.9708 44.0952 27.1182 44.0782 27.2557 44.1175C27.3932 44.1567 27.5095 44.249 27.5789 44.374C27.7008 44.5943 27.8767 44.7801 28.0901 44.9138C28.3034 45.0475 28.5473 45.1248 28.7987 45.1385C29.0502 45.1521 29.3009 45.1016 29.5275 44.9918C29.7541 44.8819 29.9491 44.7163 30.0941 44.5105C30.2391 44.3046 30.3294 44.0653 30.3566 43.8149C30.3838 43.5646 30.3469 43.3115 30.2494 43.0793C30.1519 42.8471 29.997 42.6435 29.7992 42.4876C29.6015 42.3318 29.3674 42.2287 29.1189 42.1881V42.1926ZM20.5568 43.1539C20.5568 43.0109 20.6136 42.8738 20.7146 42.7727C20.8157 42.6716 20.9529 42.6148 21.0958 42.6148C21.2388 42.6148 21.3759 42.6716 21.477 42.7727C21.5781 42.8738 21.6349 43.0109 21.6349 43.1539V43.7289C21.6425 44.0985 21.7943 44.4504 22.0579 44.7097C22.3215 44.9689 22.6759 45.1148 23.0456 45.1164C23.4152 45.1179 23.7709 44.9749 24.0366 44.7178C24.3022 44.4608 24.4569 44.1101 24.4677 43.7406V37.5988C24.4677 37.4559 24.5245 37.3188 24.6255 37.2177C24.7266 37.1166 24.8638 37.0598 25.0067 37.0598C25.1497 37.0598 25.2868 37.1166 25.3879 37.2177C25.489 37.3188 25.5458 37.4559 25.5458 37.5988V43.9221C25.5459 43.9775 25.5374 44.0327 25.5206 44.0856C25.4297 44.7095 25.106 45.2758 24.6146 45.6707C24.1231 46.0657 23.5004 46.2599 22.8716 46.2144C22.2427 46.1689 21.6545 45.887 21.225 45.4253C20.7956 44.9637 20.5568 44.3567 20.5568 43.7262V43.1539Z" fill="#2D6AFF"/>
<path d="M34.3118 16.6634C33.5872 16.6627 32.8925 16.3745 32.3801 15.8622C31.8677 15.3498 31.5795 14.655 31.5788 13.9304V4.52734H10.6865C10.0193 4.52734 9.37948 4.79238 8.90771 5.26415C8.43594 5.73592 8.1709 6.37578 8.1709 7.04297V34.7319H43.8299V16.6634H34.3118ZM19.9243 19.525C19.9239 19.6313 19.8823 19.7334 19.8082 19.8098C19.7342 19.8862 19.6335 19.9309 19.5271 19.9346C19.2966 19.9324 19.0668 19.9602 18.8434 20.0173C18.6878 20.0654 18.5547 20.1681 18.4688 20.3066C18.3891 20.4408 18.3493 20.6878 18.3493 21.0478C18.3493 21.6965 18.3193 22.4197 18.2595 23.2175C18.2267 23.71 18.081 24.1884 17.8336 24.6155C17.7277 24.787 17.5982 24.9427 17.4491 25.0782C17.3919 25.1306 17.346 25.1942 17.3143 25.2651C17.2826 25.3359 17.2657 25.4125 17.2647 25.4901C17.2637 25.5676 17.2785 25.6446 17.3084 25.7163C17.3383 25.7879 17.3825 25.8527 17.4383 25.9066C17.5705 26.0327 17.6883 26.1731 17.7896 26.3252C18.0283 26.7063 18.1785 27.1362 18.2289 27.583C18.2607 27.8041 18.2966 28.5228 18.3367 29.7393C18.3529 30.1885 18.3807 30.4643 18.4266 30.5721C18.5006 30.7363 18.6356 30.8652 18.803 30.9315C18.9408 30.9914 19.186 31.0301 19.5388 31.0474C19.6446 31.0518 19.7445 31.0969 19.8179 31.1732C19.8912 31.2496 19.9322 31.3513 19.9323 31.4571V32.4984C19.9337 32.5538 19.9238 32.6089 19.9032 32.6603C19.8827 32.7118 19.8519 32.7585 19.8128 32.7978C19.7736 32.837 19.727 32.8679 19.6755 32.8885C19.6241 32.9092 19.5691 32.9192 19.5137 32.918C18.7662 32.918 18.2118 32.8581 17.8507 32.7383C17.5175 32.6353 17.2146 32.4524 16.9684 32.2055C16.7325 31.9557 16.5635 31.6504 16.477 31.3179C16.3763 30.9585 16.326 30.3419 16.326 29.468C16.326 28.4905 16.2733 27.8316 16.1679 27.4914C16.0885 27.1896 15.9155 26.9206 15.6737 26.7232C15.582 26.6559 15.4809 26.6023 15.3737 26.5642C15.1573 26.4844 14.9706 26.3403 14.8386 26.1513C14.7066 25.9623 14.6356 25.7373 14.6352 25.5068C14.6376 25.2736 14.7113 25.0467 14.8464 24.8566C14.9814 24.6664 15.1714 24.5221 15.3907 24.443C15.4829 24.4091 15.5702 24.3631 15.6504 24.3064C15.8684 24.1465 16.0355 23.8968 16.1517 23.5571C16.2679 23.2175 16.326 22.6434 16.326 21.8348C16.326 20.8166 16.3724 20.1203 16.4653 19.746C16.5363 19.4141 16.6892 19.1052 16.91 18.8475C17.1608 18.5942 17.469 18.405 17.8084 18.2959C18.2026 18.1521 18.7716 18.08 19.5155 18.0794C19.6244 18.0794 19.7288 18.1226 19.8058 18.1996C19.8828 18.2766 19.9261 18.3811 19.9261 18.49L19.9243 19.525ZM22.4327 26.3531C22.2639 26.5217 22.0489 26.6366 21.8149 26.6831C21.5808 26.7295 21.3383 26.7056 21.1179 26.6142C20.8974 26.5229 20.709 26.3682 20.5765 26.1698C20.444 25.9714 20.3732 25.7382 20.3732 25.4996C20.3732 25.261 20.444 25.0277 20.5765 24.8293C20.709 24.6309 20.8974 24.4763 21.1179 24.3849C21.3383 24.2936 21.5808 24.2696 21.8149 24.3161C22.0489 24.3626 22.2639 24.4774 22.4327 24.6461C22.5483 24.7558 22.6399 24.8883 22.7017 25.0352C22.7636 25.1821 22.7943 25.3402 22.7921 25.4996C22.793 25.6582 22.7617 25.8154 22.6999 25.9615C22.6381 26.1077 22.5472 26.2397 22.4327 26.3495V26.3531ZM26.8575 26.3531C26.6879 26.5217 26.4721 26.6364 26.2374 26.6826C26.0028 26.7289 25.7597 26.7046 25.5387 26.613C25.3178 26.5214 25.1289 26.3664 24.9959 26.1676C24.8628 25.9689 24.7916 25.7352 24.7911 25.496C24.7888 25.3366 24.8195 25.1785 24.8814 25.0316C24.9432 24.8847 25.0349 24.7522 25.1505 24.6425C25.3789 24.4173 25.6868 24.2911 26.0076 24.2911C26.3283 24.2911 26.6362 24.4173 26.8647 24.6425C26.9793 24.7527 27.07 24.8854 27.1311 25.0322C27.1921 25.1791 27.2222 25.337 27.2196 25.496C27.2207 25.6554 27.1891 25.8134 27.1269 25.9602C27.0646 26.107 26.9729 26.2395 26.8575 26.3495V26.3531ZM31.2823 26.3531C31.1125 26.5213 30.8968 26.6355 30.6623 26.6815C30.4277 26.7276 30.1848 26.7032 29.9641 26.6117C29.7433 26.5201 29.5545 26.3654 29.4214 26.1669C29.2883 25.9684 29.2168 25.735 29.2159 25.496C29.2136 25.3366 29.2444 25.1785 29.3063 25.0316C29.3681 24.8847 29.4597 24.7522 29.5753 24.6425C29.8037 24.4173 30.1116 24.2911 30.4324 24.2911C30.7532 24.2911 31.061 24.4173 31.2895 24.6425C31.4041 24.7527 31.4948 24.8854 31.5559 25.0322C31.6169 25.1791 31.6471 25.337 31.6444 25.496C31.6455 25.6554 31.6139 25.8134 31.5517 25.9602C31.4894 26.107 31.3977 26.2395 31.2823 26.3495V26.3531ZM36.6091 26.5651C36.5174 26.5987 36.4304 26.644 36.3504 26.6999C36.1318 26.8574 35.9632 27.1072 35.8446 27.4492C35.726 27.7912 35.6661 28.3665 35.6649 29.1751C35.6649 30.1933 35.6197 30.8881 35.5292 31.2595C35.4602 31.5893 35.3088 31.8962 35.089 32.1516C34.8383 32.4054 34.5301 32.5949 34.1905 32.7041C33.797 32.8479 33.228 32.9198 32.4835 32.9198C32.3751 32.9198 32.2711 32.8767 32.1945 32.8C32.1178 32.7234 32.0747 32.6194 32.0747 32.511V31.4661C32.0747 31.3598 32.116 31.2577 32.19 31.1814C32.2639 31.1051 32.3647 31.0606 32.4709 31.0573C32.7006 31.0592 32.9295 31.0314 33.152 30.9746C33.3067 30.9252 33.4391 30.8228 33.5257 30.6854C33.6084 30.5515 33.6497 30.3053 33.6497 29.945C33.6497 29.2916 33.6796 28.5668 33.7395 27.7708C33.7665 27.2816 33.9094 26.8058 34.1564 26.3827C34.2627 26.2116 34.3921 26.0559 34.5409 25.92C34.5983 25.8676 34.6443 25.8041 34.6762 25.7332C34.7081 25.6624 34.7251 25.5858 34.7263 25.5081C34.7275 25.4305 34.7128 25.3534 34.6831 25.2816C34.6533 25.2098 34.6093 25.1449 34.5535 25.0908C34.4214 24.9651 34.3039 24.825 34.2031 24.673C33.9625 24.2885 33.812 23.8545 33.7629 23.4035C33.7323 23.1873 33.6964 22.4685 33.6551 21.2473C33.6389 20.798 33.6084 20.5159 33.5652 20.4126C33.5306 20.3296 33.4797 20.2544 33.4155 20.1914C33.3513 20.1285 33.2751 20.079 33.1915 20.0461C33.0549 19.9862 32.8138 19.949 32.4682 19.9346C32.3627 19.9302 32.263 19.8853 32.1898 19.8091C32.1167 19.7329 32.0758 19.6315 32.0756 19.5259V18.4846C32.0756 18.3761 32.1187 18.272 32.1953 18.1952C32.2719 18.1184 32.3759 18.0751 32.4844 18.0749C33.2313 18.0749 33.7836 18.1369 34.1411 18.2609C34.473 18.3687 34.7747 18.5534 35.0216 18.7999C35.2586 19.0493 35.4286 19.3547 35.5157 19.6876C35.6158 20.047 35.6658 20.6636 35.6658 21.5375C35.6658 22.515 35.7185 23.1738 35.8239 23.514C35.9038 23.8138 36.0753 24.0811 36.3145 24.2786C36.4062 24.3471 36.5081 24.4011 36.6163 24.4385C36.8334 24.5182 37.0208 24.6626 37.1532 24.8522C37.2856 25.0418 37.3566 25.2674 37.3566 25.4987C37.3542 25.7307 37.2815 25.9565 37.148 26.1462C37.0146 26.336 36.8266 26.4808 36.6091 26.5615V26.5651Z" fill="#2D6AFF"/>
<path d="M34.3112 15.5854H43.0593L32.6562 5.28125V13.9305C32.6567 14.3693 32.8312 14.7899 33.1415 15.1002C33.4517 15.4104 33.8724 15.585 34.3112 15.5854Z" fill="#2D6AFF"/>
</svg>
