<svg width="41" height="41" viewBox="0 0 41 41" fill="none" xmlns="http://www.w3.org/2000/svg">
<path fill-rule="evenodd" clip-rule="evenodd" d="M10.25 16.7382V12.3C10.25 7.77153 13.9215 4.09998 18.45 4.09998C22.9784 4.09998 26.65 7.77153 26.65 12.3C26.65 13.4316 25.7316 14.35 24.6 14.35C23.4684 14.35 22.55 13.4316 22.55 12.3C22.55 10.0347 20.7152 8.19998 18.45 8.19998C16.1847 8.19998 14.35 10.0347 14.35 12.3V16.4H24.6369C28.0132 16.4 30.75 19.1367 30.75 22.5131V30.7869C30.75 32.4084 30.1063 33.9644 28.9603 35.1103C27.8144 36.2563 26.2584 36.9 24.6369 36.9H14.35C13.2184 36.9 12.3 35.9816 12.3 34.85C12.3 32.5868 10.4632 30.75 8.19999 30.75C7.06839 30.75 6.14999 29.8316 6.14999 28.7V22.5131C6.14999 19.8419 7.86174 17.5705 10.25 16.7382ZM10.25 34.85C10.25 35.9816 9.33159 36.9 8.19999 36.9C7.06839 36.9 6.14999 35.9816 6.14999 34.85C6.14999 33.7184 7.06839 32.8 8.19999 32.8C9.33159 32.8 10.25 33.7184 10.25 34.85ZM16.4 24.6V28.7C16.4 29.8316 17.3184 30.75 18.45 30.75C19.5816 30.75 20.5 29.8316 20.5 28.7V24.6C20.5 23.4684 19.5816 22.55 18.45 22.55C17.3184 22.55 16.4 23.4684 16.4 24.6ZM30.75 16.4H32.8C33.9316 16.4 34.85 15.4816 34.85 14.35C34.85 13.2184 33.9316 12.3 32.8 12.3H30.75C29.6184 12.3 28.7 13.2184 28.7 14.35C28.7 15.4816 29.6184 16.4 30.75 16.4ZM32.1993 9.64932L34.2493 7.59933C35.0488 6.79983 35.0488 5.50013 34.2493 4.70063C33.4498 3.90113 32.1501 3.90113 31.3506 4.70063L29.3006 6.75063C28.5011 7.55013 28.5011 8.84982 29.3006 9.64932C30.1001 10.4488 31.3998 10.4488 32.1993 9.64932Z" fill="#D09FFF"/>
</svg>
