<svg width="32" height="32" viewBox="0 0 32 32" fill="none" xmlns="http://www.w3.org/2000/svg">
<g clip-path="url(#clip0_4_1327)">
<path d="M31.0625 1.9375H24.4375V5.6875H27.875C28.3928 5.6875 28.8125 6.10725 28.8125 6.625C28.8125 7.14275 28.3928 7.5625 27.875 7.5625H24.4375V9.4375H27.875C28.3928 9.4375 28.8125 9.85725 28.8125 10.375C28.8125 10.8927 28.3928 11.3125 27.875 11.3125H24.4375V13.1875H27.875C28.3928 13.1875 28.8125 13.6073 28.8125 14.125C28.8125 14.6427 28.3928 15.0625 27.875 15.0625H24.4375V16.9375H27.875C28.3928 16.9375 28.8125 17.3573 28.8125 17.875C28.8125 18.3927 28.3928 18.8125 27.875 18.8125H24.4375V22.5625H31.0625C31.5802 22.5625 32 22.1427 32 21.625V2.875C32 2.35725 31.5802 1.9375 31.0625 1.9375Z" fill="#D09FFF"/>
<path d="M0.9375 22.5625H7.5625V18.8125H4.125C3.60725 18.8125 3.1875 18.3927 3.1875 17.875C3.1875 17.3573 3.60725 16.9375 4.125 16.9375H7.5625V15.0625H4.125C3.60725 15.0625 3.1875 14.6427 3.1875 14.125C3.1875 13.6073 3.60725 13.1875 4.125 13.1875H7.5625V11.3125H4.125C3.60725 11.3125 3.1875 10.8927 3.1875 10.375C3.1875 9.85725 3.60725 9.4375 4.125 9.4375H7.5625V7.5625H4.125C3.60725 7.5625 3.1875 7.14275 3.1875 6.625C3.1875 6.10725 3.60725 5.6875 4.125 5.6875H7.5625V1.9375H0.9375C0.41975 1.9375 0 2.35725 0 2.875V21.625C0 22.1427 0.41975 22.5625 0.9375 22.5625Z" fill="#D09FFF"/>
<path d="M31.0625 28.25H28.1011C27.8178 27.4099 27.1525 26.7447 26.3125 26.4614V24.4375H24.4375V26.4826C23.6269 26.7772 22.9877 27.4308 22.7114 28.25H18.7261C18.4428 27.4099 17.7775 26.7447 16.9375 26.4614V24.375H21.625C22.1427 24.375 22.5625 23.9552 22.5625 23.4375V0.9375C22.5625 0.41975 22.1427 0 21.625 0H10.375C9.85725 0 9.4375 0.41975 9.4375 0.9375V23.4375C9.4375 23.9552 9.85725 24.375 10.375 24.375H15.0625V26.4826C14.2519 26.7772 13.6127 27.4308 13.3364 28.25H9.28856C9.01231 27.4308 8.37313 26.7772 7.5625 26.4826V24.4375H5.6875V26.4614C4.84744 26.7447 4.18219 27.4099 3.89894 28.25H0.9375C0.41975 28.25 0 28.6698 0 29.1875C0 29.7052 0.41975 30.125 0.9375 30.125H3.92013C4.31719 31.2175 5.36575 32 6.59375 32C7.82175 32 8.87031 31.2175 9.26737 30.125H13.3576C13.7547 31.2175 14.8033 32 16.0312 32C17.2593 32 18.3078 31.2175 18.7049 30.125H22.7326C23.1297 31.2175 24.1782 32 25.4062 32C26.6343 32 27.6828 31.2175 28.0799 30.125H31.0625C31.5802 30.125 32 29.7052 32 29.1875C32 28.6698 31.5802 28.25 31.0625 28.25ZM16 20.6875C15.4823 20.6875 15.0625 20.2677 15.0625 19.75C15.0625 19.2323 15.4823 18.8125 16 18.8125C16.5177 18.8125 16.9375 19.2323 16.9375 19.75C16.9375 20.2677 16.5177 20.6875 16 20.6875ZM12.875 3.8125H19.1875C19.7052 3.8125 20.125 4.23225 20.125 4.75C20.125 5.26775 19.7052 5.6875 19.1875 5.6875H12.875C12.3573 5.6875 11.9375 5.26775 11.9375 4.75C11.9375 4.23225 12.3573 3.8125 12.875 3.8125ZM12.875 7.5625H19.1875C19.7052 7.5625 20.125 7.98225 20.125 8.5C20.125 9.01775 19.7052 9.4375 19.1875 9.4375H12.875C12.3573 9.4375 11.9375 9.01775 11.9375 8.5C11.9375 7.98225 12.3573 7.5625 12.875 7.5625ZM12.875 11.3125H19.125C19.6427 11.3125 20.0625 11.7323 20.0625 12.25C20.0625 12.7677 19.6427 13.1875 19.125 13.1875H12.875C12.3573 13.1875 11.9375 12.7677 11.9375 12.25C11.9375 11.7323 12.3573 11.3125 12.875 11.3125ZM11.9375 16C11.9375 15.4823 12.3573 15.0625 12.875 15.0625H19.125C19.6427 15.0625 20.0625 15.4823 20.0625 16C20.0625 16.5177 19.6427 16.9375 19.125 16.9375H12.875C12.3573 16.9375 11.9375 16.5177 11.9375 16Z" fill="#D09FFF"/>
</g>
<defs>
<clipPath id="clip0_4_1327">
<rect width="32" height="32" fill="white"/>
</clipPath>
</defs>
</svg>
