<svg width="44" height="44" viewBox="0 0 44 44" fill="none" xmlns="http://www.w3.org/2000/svg">
<path fill-rule="evenodd" clip-rule="evenodd" d="M12.9794 7.87157L12.9795 19.2579H16.3066V7.87152C16.3066 7.50489 16.4517 7.15718 16.7154 6.8934C16.9795 6.63036 17.3262 6.48516 17.6936 6.48516L26.3067 6.48511C26.674 6.48511 27.0208 6.63041 27.2846 6.8934C27.5484 7.1571 27.6936 7.50495 27.6936 7.87157V19.2579H31.0207V7.87152C31.0207 6.61625 30.5291 5.43399 29.6366 4.54139C28.7449 3.64955 27.5617 3.15813 26.3064 3.15813L17.6939 3.15808C16.4383 3.15808 15.2553 3.64957 14.3634 4.54139C13.4709 5.43394 12.9794 6.61628 12.9794 7.87157Z" fill="#D09FFF"/>
<path fill-rule="evenodd" clip-rule="evenodd" d="M22.9332 27.9648V30.05H24.3778C25.3652 30.05 25.8079 29.5264 25.8079 29.0075C25.8082 28.4885 25.3651 27.9649 24.3775 27.9649L22.9332 27.9648Z" fill="#D09FFF"/>
<path fill-rule="evenodd" clip-rule="evenodd" d="M19.6716 23.8597C19.4703 24.6426 18.7584 25.2227 17.9136 25.2227C17.7449 25.2227 17.5815 25.1995 17.4265 25.1562L15.0976 29.1904C15.4336 29.52 15.6423 29.9788 15.6423 30.4856C15.6424 30.9926 15.4335 31.4515 15.0972 31.7811L17.4428 35.8436C17.5929 35.8032 17.7507 35.7816 17.9134 35.7816C18.7465 35.7815 19.4499 36.3454 19.6626 37.1114L24.3376 37.1114C24.5504 36.3454 25.2537 35.7816 26.0865 35.7816C26.2494 35.7816 26.4072 35.8032 26.5575 35.8436L28.9028 31.781C28.5667 31.4515 28.3577 30.9925 28.3577 30.4856C28.3577 29.9788 28.5665 29.52 28.9025 29.1904L26.5736 25.1562C26.4186 25.1995 26.2552 25.2227 26.0865 25.2227C25.2418 25.2227 24.53 24.6426 24.3285 23.8597H19.6716ZM22.4809 27.0605L24.3778 27.0604C25.9099 27.0604 26.7123 28.0402 26.7123 29.0074C26.7126 29.9753 25.9099 30.9543 24.3778 30.9542H22.9331L22.9332 33.4915C22.9332 33.7412 22.7305 33.9438 22.481 33.9437C22.2313 33.9437 22.0287 33.7412 22.0287 33.4916L22.0289 30.5145L22.0287 30.5021L22.0289 27.5126C22.0289 27.263 22.2312 27.0605 22.4809 27.0605ZM19.3839 33.0394L20.1234 33.0393C20.3731 33.0393 20.5755 33.2411 20.5755 33.4916C20.5759 33.7412 20.373 33.943 20.1234 33.9429H18.9317H17.7402C17.4904 33.9429 17.2877 33.7412 17.2877 33.4916C17.288 33.2411 17.4903 33.0394 17.7399 33.0394L18.4795 33.0394L18.4795 27.9648H17.7402C17.4904 27.9648 17.2877 27.7631 17.2877 27.5126C17.288 27.263 17.4903 27.0605 17.7399 27.0605L20.1234 27.0604C20.3731 27.0604 20.5755 27.263 20.5755 27.5126C20.5759 27.763 20.373 27.9648 20.1234 27.9648H19.3838L19.3839 33.0394Z" fill="#D09FFF"/>
<path fill-rule="evenodd" clip-rule="evenodd" d="M26.0866 22.4969C25.5843 22.4969 25.1759 22.906 25.1759 23.4077C25.1762 23.91 25.5842 24.3183 26.0866 24.3183C26.5882 24.3183 26.9973 23.9101 26.9973 23.4077C26.9973 22.9059 26.5882 22.497 26.0866 22.4969Z" fill="#D09FFF"/>
<path fill-rule="evenodd" clip-rule="evenodd" d="M26.0866 21.5926C27.0878 21.5925 27.9016 22.4067 27.9016 23.4076C27.9017 23.9146 27.6927 24.3736 27.3565 24.7032L29.6855 28.7371C29.8406 28.6938 30.004 28.6706 30.1728 28.6706C31.174 28.6705 31.9878 29.4847 31.9878 30.4856C31.9879 31.4865 31.1738 32.3007 30.1729 32.3006C30.0042 32.3006 29.8408 32.2774 29.6857 32.2341L27.3443 36.289C27.6877 36.6194 27.9016 37.0834 27.9016 37.5966C27.9017 38.5975 27.0875 39.4116 26.0866 39.4115C25.23 39.4115 24.5102 38.8152 24.3205 38.0158H19.6797C19.4901 38.8152 18.7702 39.4116 17.9136 39.4115C16.9128 39.4115 16.0984 38.5975 16.0984 37.5966C16.0985 37.0836 16.3123 36.6199 16.6554 36.2895L14.3144 32.2342C14.1593 32.2774 13.996 32.3006 13.8274 32.3006C12.8265 32.3006 12.0123 31.4866 12.0123 30.4856C12.0126 29.4846 12.8263 28.6706 13.8273 28.6706C13.9961 28.6706 14.1596 28.6938 14.3147 28.7371L16.6436 24.7031C16.3074 24.3735 16.0984 23.9146 16.0984 23.4076C16.0985 22.4066 16.9125 21.5926 17.9135 21.5926C18.7584 21.5925 19.4701 22.1726 19.6715 22.9554L24.3287 22.9554C24.5303 22.1726 25.2418 21.5926 26.0866 21.5926ZM31.7523 20.1623L16.7602 20.1622L16.7587 20.1623L12.6047 20.1622H12.2479C10.7052 20.1622 9.44989 21.4175 9.44989 22.9609L9.44997 38.0432C9.44997 39.5867 10.7052 40.842 12.2478 40.842L31.7523 40.842C33.2951 40.842 34.5502 39.5867 34.5502 38.0433L34.5502 22.9609C34.5502 21.4175 33.2949 20.1623 31.7523 20.1623Z" fill="#D09FFF"/>
<path fill-rule="evenodd" clip-rule="evenodd" d="M29.7175 29.6975C29.4457 29.8554 29.2622 30.1498 29.2622 30.4857C29.2622 30.988 29.6712 31.3963 30.1729 31.3963C30.6753 31.3963 31.0835 30.9881 31.0835 30.4857C31.0837 29.984 30.6753 29.575 30.173 29.575C30.0084 29.575 29.8537 29.619 29.7202 29.6959L29.7175 29.6975Z" fill="#D09FFF"/>
<path fill-rule="evenodd" clip-rule="evenodd" d="M26.0866 36.6858C25.5843 36.6858 25.1759 37.0941 25.1759 37.5965C25.1762 38.0981 25.5842 38.5072 26.0866 38.5072C26.5882 38.5071 26.9973 38.0981 26.9973 37.5965C26.9973 37.094 26.5882 36.6858 26.0866 36.6858Z" fill="#D09FFF"/>
<path fill-rule="evenodd" clip-rule="evenodd" d="M17.9136 36.6858C17.412 36.6858 17.0028 37.0941 17.0028 37.5965C17.0029 38.0981 17.4118 38.5072 17.9134 38.5072C18.416 38.5071 18.8241 38.0981 18.8241 37.5965C18.8244 37.094 18.4159 36.6858 17.9136 36.6858Z" fill="#D09FFF"/>
<path fill-rule="evenodd" clip-rule="evenodd" d="M13.8273 29.575C13.325 29.575 12.9166 29.984 12.9166 30.4857C12.9169 30.988 13.3249 31.3963 13.8272 31.3963C14.329 31.3963 14.738 30.9881 14.738 30.4857C14.738 30.1498 14.5546 29.8554 14.2826 29.6975L14.28 29.6959C14.1465 29.619 13.9919 29.575 13.8273 29.575Z" fill="#D09FFF"/>
<path fill-rule="evenodd" clip-rule="evenodd" d="M17.9136 22.4969C17.412 22.4969 17.0028 22.906 17.0028 23.4077C17.0029 23.91 17.4118 24.3183 17.9134 24.3183C18.416 24.3183 18.8241 23.9101 18.8241 23.4077C18.8244 22.9059 18.4159 22.497 17.9136 22.4969Z" fill="#D09FFF"/>
</svg>
