<svg width="33" height="33" viewBox="0 0 33 33" fill="none" xmlns="http://www.w3.org/2000/svg">
<g clip-path="url(#clip0_4_1297)">
<path d="M19.5009 0H13.499L12.4635 6.21328H20.5365L19.5009 0Z" fill="#D09FFF"/>
<path d="M30.8793 0.660967C30.7478 0.266256 30.3783 0 29.9622 0H21.4613L22.4968 6.21328H32.73L30.8793 0.660967Z" fill="#D09FFF"/>
<path d="M20.7114 8.14685H12.2893V14.3601H20.7114V8.14685Z" fill="#D09FFF"/>
<path d="M22.6446 8.14685V14.36H28.9953V20.7109H4.00467V14.36H10.3554V8.14685H0V13.3933C0 13.9273 0.432867 14.3601 0.966797 14.3601H2.07107V21.6778V31.3886V32.0332C2.07107 32.567 2.50394 33 3.03787 33H29.9621C30.4961 33 30.9289 32.567 30.9289 32.0332V31.3886V21.6778V14.3601H32.0332C32.5671 14.3601 33 13.9273 33 13.3933V8.14685H22.6446Z" fill="#D09FFF"/>
<path d="M3.0379 0C2.62179 0 2.25234 0.266256 2.12073 0.661031L0.269958 6.21328H10.5032L11.5387 0H3.0379Z" fill="#D09FFF"/>
</g>
<defs>
<clipPath id="clip0_4_1297">
<rect width="33" height="33" fill="white"/>
</clipPath>
</defs>
</svg>
