<svg width="43" height="43" viewBox="0 0 43 43" fill="none" xmlns="http://www.w3.org/2000/svg">
<path d="M33.7466 10.8196C35.8516 10.8196 37.5641 9.1071 37.5641 7.00211V5.37122C37.5641 3.26624 35.8516 1.55371 33.7466 1.55371H9.25355C7.14856 1.55371 5.43604 3.26624 5.43604 5.37122V7.00211C5.43604 9.1071 7.14856 10.8196 9.25355 10.8196H20.4503V12.5949H9.25355C7.14856 12.5949 5.43604 14.3075 5.43604 16.4125V18.0433C5.43604 20.1483 7.14856 21.8609 9.25355 21.8609H20.4503V23.6361H9.25355C7.14856 23.6361 5.43604 25.3487 5.43604 27.4537V29.0845C5.43604 31.1895 7.14856 32.9021 9.25355 32.9021H20.4503V34.7132C19.3918 35.0523 18.5546 35.8895 18.2154 36.948H11.9513C11.3715 36.948 10.9015 37.4181 10.9015 37.9978C10.9015 38.5775 11.3715 39.0476 11.9513 39.0476H18.2154C18.6606 40.4373 19.9645 41.4464 21.5001 41.4464C23.0356 41.4464 24.3395 40.4373 24.7847 39.0476H31.0488C31.6286 39.0476 32.0986 38.5775 32.0986 37.9978C32.0986 37.4181 31.6286 36.948 31.0488 36.948H24.7847C24.4456 35.8895 23.6083 35.0523 22.5499 34.7132V32.9021H33.7466C35.8516 32.9021 37.5641 31.1895 37.5641 29.0845V27.4537C37.5641 25.3487 35.8516 23.6361 33.7466 23.6361H22.5499V21.8609H33.7466C35.8516 21.8609 37.5641 20.1483 37.5641 18.0433V16.4125C37.5641 14.3075 35.8516 12.5949 33.7466 12.5949H22.5499V10.8196H33.7466ZM21.5001 39.3467C20.7563 39.3467 20.1511 38.7416 20.1511 37.9977C20.1511 37.2539 20.7562 36.6488 21.5001 36.6488C22.2439 36.6488 22.849 37.2539 22.849 37.9977C22.849 38.7416 22.2438 39.3467 21.5001 39.3467ZM35.4645 27.4537V29.0845C35.4645 30.0318 34.6938 30.8024 33.7466 30.8024H9.25355C8.30629 30.8024 7.53564 30.0318 7.53564 29.0845V27.4537C7.53564 26.5064 8.30629 25.7358 9.25355 25.7358H33.7467C34.6939 25.7358 35.4645 26.5063 35.4645 27.4537ZM35.4645 16.4125V18.0433C35.4645 18.9905 34.6938 19.7613 33.7466 19.7613H9.25355C8.30629 19.7613 7.53564 18.9905 7.53564 18.0433V16.4125C7.53564 15.4652 8.30629 14.6945 9.25355 14.6945H33.7467C34.6939 14.6945 35.4645 15.4652 35.4645 16.4125ZM7.53564 7.00211V5.37122C7.53564 4.42396 8.30629 3.65332 9.25355 3.65332H33.7467C34.6939 3.65332 35.4646 4.42396 35.4646 5.37122V7.00211C35.4646 7.94937 34.6939 8.72001 33.7467 8.72001H9.25355C8.3062 8.72001 7.53564 7.94937 7.53564 7.00211ZM14.0852 6.18671C14.0852 6.76645 13.6151 7.23651 13.0354 7.23651H10.8674C10.2876 7.23651 9.81758 6.76645 9.81758 6.18671C9.81758 5.60697 10.2876 5.1369 10.8674 5.1369H13.0354C13.6151 5.1369 14.0852 5.60697 14.0852 6.18671ZM22.584 7.23651H20.4161C19.8363 7.23651 19.3663 6.76645 19.3663 6.18671C19.3663 5.60697 19.8363 5.1369 20.4161 5.1369H22.584C23.1638 5.1369 23.6339 5.60697 23.6339 6.18671C23.6339 6.76645 23.1639 7.23651 22.584 7.23651ZM28.915 6.18671C28.915 5.60697 29.385 5.1369 29.9648 5.1369H32.1327C32.7125 5.1369 33.1825 5.60697 33.1825 6.18671C33.1825 6.76645 32.7125 7.23651 32.1327 7.23651H29.9648C29.385 7.23651 28.915 6.76645 28.915 6.18671ZM14.0852 17.2279C14.0852 17.8076 13.6151 18.2777 13.0354 18.2777H10.8674C10.2876 18.2777 9.81758 17.8076 9.81758 17.2279C9.81758 16.6481 10.2876 16.1781 10.8674 16.1781H13.0354C13.6151 16.1781 14.0852 16.6481 14.0852 17.2279ZM20.4161 16.1781H22.584C23.1638 16.1781 23.6339 16.6481 23.6339 17.2279C23.6339 17.8076 23.1638 18.2777 22.584 18.2777H20.4161C19.8363 18.2777 19.3663 17.8076 19.3663 17.2279C19.3663 16.6481 19.8362 16.1781 20.4161 16.1781ZM28.915 17.2279C28.915 16.6481 29.385 16.1781 29.9648 16.1781H32.1327C32.7125 16.1781 33.1825 16.6481 33.1825 17.2279C33.1825 17.8076 32.7125 18.2777 32.1327 18.2777H29.9648C29.385 18.2777 28.915 17.8076 28.915 17.2279ZM14.0852 28.2691C14.0852 28.8489 13.6151 29.3189 13.0354 29.3189H10.8674C10.2876 29.3189 9.81758 28.8489 9.81758 28.2691C9.81758 27.6894 10.2876 27.2193 10.8674 27.2193H13.0354C13.6151 27.2193 14.0852 27.6893 14.0852 28.2691ZM20.4161 27.2193H22.584C23.1638 27.2193 23.6339 27.6894 23.6339 28.2691C23.6339 28.8489 23.1638 29.3189 22.584 29.3189H20.4161C19.8363 29.3189 19.3663 28.8489 19.3663 28.2691C19.3663 27.6894 19.8362 27.2193 20.4161 27.2193ZM28.915 28.2691C28.915 27.6894 29.385 27.2193 29.9648 27.2193H32.1327C32.7125 27.2193 33.1825 27.6894 33.1825 28.2691C33.1825 28.8489 32.7125 29.3189 32.1327 29.3189H29.9648C29.385 29.3189 28.915 28.8489 28.915 28.2691Z" fill="#2D6AFF"/>
</svg>
