<svg width="44" height="44" viewBox="0 0 44 44" fill="none" xmlns="http://www.w3.org/2000/svg">
<path fill-rule="evenodd" clip-rule="evenodd" d="M23.9773 5.76424C22.6977 5.3141 21.3027 5.3141 20.023 5.76424L8.12356 9.95003C7.9346 10.0165 7.83019 10.1861 7.83786 10.3552C7.91887 12.1411 8.13117 15.526 8.66099 19.0822C9.19735 22.6825 10.0356 26.2826 11.2927 28.6049C12.3875 30.6275 14.3892 32.7085 16.4978 34.5209C18.5835 36.3137 20.6683 37.7555 21.8215 38.5139C21.9346 38.5882 22.0657 38.5882 22.1788 38.5139C23.332 37.7555 25.4169 36.3137 27.5025 34.5209C29.6112 32.7085 31.6128 30.6275 32.7077 28.6049C33.9648 26.2826 34.803 22.6825 35.3392 19.0822C35.8691 15.526 36.0814 12.1411 36.1624 10.3552C36.1701 10.1861 36.0658 10.0165 35.8768 9.95003L23.9773 5.76424ZM19.1104 3.17007C20.9808 2.51216 23.0196 2.51216 24.8898 3.17007L36.7892 7.35586C38.0929 7.81445 38.9736 9.06812 38.9097 10.4798C38.8264 12.3135 38.6084 15.8016 38.0594 19.4874C37.5167 23.1293 36.6275 27.1403 35.126 29.9141C33.7888 32.3843 31.4797 34.7286 29.2951 36.6063C27.0878 38.5038 24.8975 40.0174 23.6899 40.8114C22.6597 41.489 21.3406 41.489 20.3105 40.8114C19.1029 40.0174 16.9125 38.5038 14.7051 36.6063C12.5207 34.7286 10.2115 32.3843 8.87428 29.9141C7.37281 27.1403 6.48354 23.1293 5.941 19.4874C5.3919 15.8016 5.17388 12.3135 5.09068 10.4798C5.02664 9.06812 5.90734 7.81445 7.21102 7.35586L19.1104 3.17007Z" fill="#2D6AFF"/>
<path d="M19.25 18.3333C19.25 16.8145 20.4813 15.5833 22 15.5833C23.5187 15.5833 24.75 16.8145 24.75 18.3333C24.75 19.3512 24.1971 20.24 23.375 20.7154V25.2083C23.375 25.9677 22.7594 26.5833 22 26.5833C21.2406 26.5833 20.625 25.9677 20.625 25.2083V20.7154C19.8029 20.24 19.25 19.3512 19.25 18.3333Z" fill="#2D6AFF"/>
</svg>
