<svg width="60" height="60" fill="none" xmlns="http://www.w3.org/2000/svg"><path d="M20.726 19.07a6.775 6.775 0 00-6.767 6.767 6.775 6.775 0 006.767 6.768 6.776 6.776 0 006.769-6.768 6.776 6.776 0 00-6.769-6.768z" fill="#524ABD"/><path d="M57.847 4.125H2.152A2.152 2.152 0 000 6.277v34.5c0 1.188.964 2.152 2.152 2.152h1.022l9.618-9.619a.658.658 0 00.046-.885 10.239 10.239 0 01-2.388-6.944c.184-5.433 4.64-9.82 10.075-9.925 5.84-.112 10.612 4.67 10.482 10.513-.12 5.44-4.524 9.881-9.963 10.046-1.63.05-3.179-.283-4.565-.914a.657.657 0 00-.738.132l-7.597 7.596h49.703A2.155 2.155 0 0060 40.776V6.278a2.156 2.156 0 00-2.153-2.153zM37.29 34.639a1.757 1.757 0 11-3.515 0v-6.782a1.758 1.758 0 013.515 0v6.782zm5.507 0a1.757 1.757 0 11-3.515 0V16.14a1.758 1.758 0 013.515 0v18.5zm5.598 0a1.757 1.757 0 11-3.515 0V20.827a1.757 1.757 0 113.515 0v13.812zm5.602 0a1.757 1.757 0 11-3.515 0v-9.126a1.757 1.757 0 013.515 0v9.126z" fill="url(#paint0_linear_20_1658)"/><path d="M44.071 52.498l-.012-.005a35.498 35.498 0 00-8.462-2.447v-3.335a.657.657 0 00-.657-.658h-9.88a.658.658 0 00-.657.658v3.34a35.49 35.49 0 00-8.416 2.433c-.871.373-1.33 1.368-.994 2.254a1.758 1.758 0 002.338.994 31.952 31.952 0 0112.67-2.61h.037c4.345 0 8.644.885 12.635 2.6l.022.01a1.762 1.762 0 002.43-1.333c.141-.797-.31-1.583-1.054-1.901z" fill="#5942B6"/><path d="M3.174 42.929L.536 45.572a1.756 1.756 0 102.485 2.485l5.123-5.128h-4.97z" fill="#4956C6"/><defs><linearGradient id="paint0_linear_20_1658" x1="-21.266" y1="76.413" x2="67.422" y2="68.747" gradientUnits="userSpaceOnUse"><stop stop-color="#2780E6"/><stop offset="1" stop-color="#781896"/></linearGradient></defs></svg>