<svg width="55" height="55" fill="none" xmlns="http://www.w3.org/2000/svg"><g clip-path="url(#clip0_20_1623)"><path d="M46.61 27.16h6.779a1.611 1.611 0 100-3.222h-6.14c.773-4.868.414-8.16.394-8.338a1.61 1.61 0 00-1.13-1.357 80.638 80.638 0 01-6.437-2.256V8.004h5.533a4.842 4.842 0 004.557 3.223A4.84 4.84 0 0055 6.393a4.84 4.84 0 00-4.834-4.834 4.842 4.842 0 00-4.557 3.222h-7.144c-.891 0-1.612.721-1.612 1.612v4.192c-5.972-2.82-7.952-5.132-8.072-5.276a1.568 1.568 0 00-2.563 0c-.119.144-2.099 2.457-8.071 5.276V6.393c0-.89-.721-1.612-1.612-1.612H9.391A4.842 4.842 0 004.834 1.56 4.84 4.84 0 000 6.393a4.84 4.84 0 004.834 4.834c2.1 0 3.892-1.347 4.557-3.223h5.533v3.983a80.641 80.641 0 01-6.438 2.256A1.61 1.61 0 007.357 15.6c-.02.177-.379 3.47.393 8.338H1.611a1.612 1.612 0 000 3.223h6.78a41.897 41.897 0 001.311 4.41H5.275a1.611 1.611 0 100 3.222h5.727a42.283 42.283 0 005.114 8.494H9.391a4.842 4.842 0 00-4.557-3.223A4.84 4.84 0 000 44.898a4.84 4.84 0 004.834 4.834c2.1 0 3.892-1.347 4.557-3.223h9.473a48.852 48.852 0 007.714 6.642 1.61 1.61 0 001.844 0 48.82 48.82 0 007.714-6.642h9.473a4.842 4.842 0 004.557 3.223A4.84 4.84 0 0055 44.898a4.84 4.84 0 00-4.834-4.834 4.842 4.842 0 00-4.557 3.223h-6.726a42.281 42.281 0 005.115-8.494h5.727a1.612 1.612 0 000-3.223h-4.427a41.94 41.94 0 001.311-4.41zm-10.243 8.255a2.94 2.94 0 01-2.937 2.937H21.57a2.94 2.94 0 01-2.937-2.937v-9.228c0-1.28.823-2.37 1.968-2.772v-1.049a6.907 6.907 0 016.899-6.898 6.907 6.907 0 016.899 6.898v1.049a2.941 2.941 0 011.968 2.772v9.228z" fill="url(#paint0_linear_20_1623)"/><path d="M21.856 26.473v8.656h11.288v-8.656H21.856zm7.255 4.896a1.611 1.611 0 11-3.222 0v-1.136a1.611 1.611 0 113.222 0v1.136z" fill="#6433AB"/><path d="M31.176 22.366v.884h-7.352v-.884A3.68 3.68 0 0127.5 18.69a3.68 3.68 0 013.676 3.676z" fill="#5B3FB4"/></g><defs><linearGradient id="paint0_linear_20_1623" x1="-19.494" y1="98.211" x2="62.124" y2="93.375" gradientUnits="userSpaceOnUse"><stop stop-color="#2780E6"/><stop offset="1" stop-color="#781896"/></linearGradient><clipPath id="clip0_20_1623"><path fill="#fff" d="M0 0h55v55H0z"/></clipPath></defs></svg>