<svg width="58" height="58" fill="none" xmlns="http://www.w3.org/2000/svg"><path d="M29.227 16.03v-2.946H1.699A1.7 1.7 0 000 14.784v30.812c0 .938.76 1.699 1.7 1.699h1.359V19.428a3.398 3.398 0 013.398-3.399h22.77z" fill="#4C52C3"/><path d="M29.906 38.76l5.944-5.45a20.194 20.194 0 01-6.593-13.882H8.817l21.09 19.331z" fill="#5645B9"/><path d="M6.457 21.875v29.309l16.132-14.52-16.132-14.79z" fill="#4C52C3"/><path d="M31.055 42.317a1.701 1.701 0 01-2.297 0l-3.651-3.347L8.809 53.639h42.195l-16.298-14.67-3.651 3.348z" fill="#5448BB"/><path d="M43.92 37.796a20.28 20.28 0 01-5.328-2.388l-1.369 1.255 16.133 14.52v-16.69a20.136 20.136 0 01-6.643 3.302 5.104 5.104 0 01-2.794.002z" fill="#6631A9"/><path d="M56.3 8.378c-3.48 0-6.922-1.157-9.9-3.625a1.706 1.706 0 00-2.175 0c-2.974 2.465-6.41 3.625-9.9 3.625a1.7 1.7 0 00-1.7 1.7v8.247a16.849 16.849 0 0012.22 16.202c.304.086.63.086.934 0A16.85 16.85 0 0058 18.325v-8.248a1.7 1.7 0 00-1.7-1.699zm-4.461 7.947l-7.024 7.023a1.7 1.7 0 01-2.404 0l-3.625-3.625a1.702 1.702 0 010-2.403 1.702 1.702 0 012.404 0l2.423 2.424 5.822-5.823a1.702 1.702 0 012.404 0c.662.664.662 1.74 0 2.404z" fill="url(#paint0_linear_20_1628)"/><defs><linearGradient id="paint0_linear_20_1628" x1="23.631" y1="60.677" x2="61.336" y2="58.908" gradientUnits="userSpaceOnUse"><stop stop-color="#2780E6"/><stop offset="1" stop-color="#781896"/></linearGradient></defs></svg>