<svg width="51" height="51" fill="none" xmlns="http://www.w3.org/2000/svg"><g clip-path="url(#clip0_20_1636)"><mask id="a" style="mask-type:alpha" maskUnits="userSpaceOnUse" x="0" y="0" width="51" height="51"><path d="M22.023 50.987A25.329 25.329 0 01.012 28.977a1.494 1.494 0 011.483-1.68h6.04c.73 0 1.351.527 1.474 1.245a16.424 16.424 0 0013.45 13.448 1.496 1.496 0 011.244 1.474v6.04c0 .89-.77 1.591-1.68 1.483zM7.535 23.91h-6.04c-.9 0-1.595-.79-1.483-1.68C1.594 9.558 12.422 0 25.198 0c5.675 0 11.056 1.85 15.56 5.352.717.559.77 1.607.14 2.237l-4.27 4.271a1.493 1.493 0 01-1.923.16 16.3 16.3 0 00-9.507-3.053A16.38 16.38 0 009.009 22.665a1.496 1.496 0 01-1.474 1.245zM27.09 49.506v-6.04c0-.73.527-1.352 1.245-1.474a16.38 16.38 0 0013.699-16.189 16.3 16.3 0 00-3.055-9.508 1.494 1.494 0 01.16-1.923l4.272-4.27a1.497 1.497 0 012.238.14C49.149 14.747 51 20.128 51 25.803c0 12.775-9.557 23.603-22.23 25.185a1.493 1.493 0 01-1.68-1.482z" fill="#000"/><path d="M19.519 19.527c0-.826-.67-1.495-1.495-1.495h-2.988c-.826 0-1.495.67-1.495 1.495v11.955c0 .825.67 1.494 1.495 1.494h2.988c.826 0 1.495-.669 1.495-1.494V19.527zm8.966 11.955V16.538c0-.825-.67-1.494-1.494-1.494H24c-.825 0-1.494.669-1.494 1.494v14.944c0 .825.67 1.494 1.495 1.494h2.989c.825 0 1.494-.669 1.494-1.494zm8.966 0v-5.978c0-.825-.669-1.494-1.494-1.494h-2.989c-.825 0-1.494.669-1.494 1.494v5.978c0 .825.669 1.494 1.494 1.494h2.989c.825 0 1.494-.669 1.494-1.494z" fill="#000"/></mask><g mask="url(#a)"><path fill="url(#paint0_linear_20_1636)" d="M-2-2h58v56H-2z"/></g></g><defs><linearGradient id="paint0_linear_20_1636" x1="-22.557" y1="102.323" x2="63.526" y2="97.339" gradientUnits="userSpaceOnUse"><stop stop-color="#2780E6"/><stop offset="1" stop-color="#781896"/></linearGradient><clipPath id="clip0_20_1636"><path fill="#fff" d="M0 0h51v51H0z"/></clipPath></defs></svg>