<svg width="52" height="52" fill="none" xmlns="http://www.w3.org/2000/svg"><g clip-path="url(#clip0_20_1686)"><path d="M31.41 11.086l3.05-2.974a1.625 1.625 0 00-.9-2.772l-4.217-.612L27.458.906a1.693 1.693 0 00-2.916 0l-1.885 3.821-4.217.613a1.625 1.625 0 00-.9 2.772l3.05 2.974-.72 4.2A1.626 1.626 0 0022.228 17L26 15.016 29.772 17a1.625 1.625 0 002.358-1.713l-.72-4.2z" fill="url(#paint0_linear_20_1686)"/><path d="M51.92 11.25a1.626 1.626 0 00-1.312-1.106l-4.216-.613-1.887-3.821a1.692 1.692 0 00-2.914 0l-1.885 3.82-4.217.614a1.624 1.624 0 00-.901 2.771l3.051 2.974-.72 4.2a1.624 1.624 0 002.357 1.714l3.771-1.982 3.773 1.982a1.625 1.625 0 002.358-1.713l-.72-4.2 3.05-2.974a1.625 1.625 0 00.413-1.666z" fill="url(#paint1_linear_20_1686)"/><path d="M16.511 10.144l-4.216-.613L10.41 5.71a1.625 1.625 0 00-2.915 0L5.608 9.53l-4.216.613a1.625 1.625 0 00-.9 2.772l3.05 2.974-.72 4.2a1.625 1.625 0 002.358 1.713l3.772-1.982 3.772 1.982a1.624 1.624 0 002.358-1.713l-.72-4.2 3.05-2.974a1.625 1.625 0 00-.901-2.772z" fill="url(#paint2_linear_20_1686)"/><path d="M42.25 24.375H9.75a4.88 4.88 0 00-4.875 4.875v13a4.88 4.88 0 004.875 4.875h10.702l4.4 4.399a1.624 1.624 0 002.297 0l4.399-4.399H42.25a4.88 4.88 0 004.875-4.875v-13a4.88 4.88 0 00-4.875-4.875zM39 40.625H13a1.625 1.625 0 110-3.25h26a1.625 1.625 0 110 3.25zm0-6.5H13a1.625 1.625 0 110-3.25h26a1.625 1.625 0 110 3.25z" fill="url(#paint3_linear_20_1686)"/></g><defs><linearGradient id="paint0_linear_20_1686" x1="10.703" y1="31.953" x2="37.273" y2="30.399" gradientUnits="userSpaceOnUse"><stop stop-color="#2780E6"/><stop offset="1" stop-color="#781896"/></linearGradient><linearGradient id="paint1_linear_20_1686" x1="27.752" y1="36.757" x2="54.321" y2="35.204" gradientUnits="userSpaceOnUse"><stop stop-color="#2780E6"/><stop offset="1" stop-color="#781896"/></linearGradient><linearGradient id="paint2_linear_20_1686" x1="-6.346" y1="36.821" x2="20.226" y2="35.273" gradientUnits="userSpaceOnUse"><stop stop-color="#2780E6"/><stop offset="1" stop-color="#781896"/></linearGradient><linearGradient id="paint3_linear_20_1686" x1="-10.1" y1="75.838" x2="52.361" y2="70.498" gradientUnits="userSpaceOnUse"><stop stop-color="#2780E6"/><stop offset="1" stop-color="#781896"/></linearGradient><clipPath id="clip0_20_1686"><path fill="#fff" d="M0 0h52v52H0z"/></clipPath></defs></svg>