<svg width="51" height="51" fill="none" xmlns="http://www.w3.org/2000/svg"><path fill-rule="evenodd" clip-rule="evenodd" d="M37.719 8.073a2.265 2.265 0 00-3.919-1.55 21.378 21.378 0 01-15.595 6.758h-7.58c-2.114 0-4.14.84-5.636 2.333a7.973 7.973 0 00-2.333 5.636v2.125c0 2.114.84 4.14 2.333 5.636a7.973 7.973 0 005.636 2.333h7.58A21.378 21.378 0 0133.8 38.1a2.266 2.266 0 003.919-1.549V8.072z" fill="url(#paint0_linear_20_1597)"/><path fill-rule="evenodd" clip-rule="evenodd" d="M46.75 20.719h-3.188a1.594 1.594 0 000 3.187h3.188a1.594 1.594 0 000-3.187zm-5.973 10.094l2.254 2.254a1.6 1.6 0 002.255 0 1.6 1.6 0 000-2.255l-2.255-2.254a1.598 1.598 0 00-2.254 0 1.598 1.598 0 000 2.255zm2.254-14.746l2.255-2.255c.62-.622.62-1.631 0-2.254a1.598 1.598 0 00-2.255 0l-2.254 2.255a1.598 1.598 0 000 2.254c.622.62 1.632.62 2.254 0z" fill="#73209C"/><path fill-rule="evenodd" clip-rule="evenodd" d="M9.448 33.4l1.436 8.68a3.717 3.717 0 003.668 3.112h4.979a2.655 2.655 0 002.376-3.844l-1.25-2.5a.543.543 0 01-.042-.111L19.323 33.5c-.372-.022-9.486-.056-9.875-.1z" fill="#4D51C2"/><defs><linearGradient id="paint0_linear_20_1597" x1="-9.771" y1="67.301" x2="42.26" y2="64.211" gradientUnits="userSpaceOnUse"><stop stop-color="#2780E6"/><stop offset="1" stop-color="#781896"/></linearGradient></defs></svg>