<svg width="51" height="51" fill="none" xmlns="http://www.w3.org/2000/svg"><g clip-path="url(#clip0_20_1653)"><path d="M25.5 0C11.417 0 0 11.417 0 25.5S11.417 51 25.5 51 51 39.583 51 25.5 39.583 0 25.5 0zm14.16 21.783h-3.103v-4.284l-8.859 8.848 11.406 11.405-2.199 2.191L25.5 28.545 14.095 39.943l-2.199-2.191 11.406-11.405-8.854-8.849v4.284H11.34v-9.595h9.364v3.109h-4.06l8.857 8.853 8.857-8.853H30.3v-3.109h9.363l-.002 9.596z" fill="url(#paint0_linear_20_1653)"/></g><defs><linearGradient id="paint0_linear_20_1653" x1="-18.076" y1="95.008" x2="57.635" y2="90.776" gradientUnits="userSpaceOnUse"><stop stop-color="#2780E6"/><stop offset="1" stop-color="#781896"/></linearGradient><clipPath id="clip0_20_1653"><path fill="#fff" d="M0 0h51v51H0z"/></clipPath></defs></svg>