<svg width="52" height="52" fill="none" xmlns="http://www.w3.org/2000/svg"><g clip-path="url(#clip0_20_1693)"><path d="M39.244 35.953a2.237 2.237 0 002.234-2.234v-4.875a2.235 2.235 0 10-4.469 0v4.875a2.237 2.237 0 002.235 2.234z" fill="#682EA7"/><path d="M0 46.516A5.503 5.503 0 005.484 52h41.032A5.503 5.503 0 0052 46.516V12.188H0v34.328zm34.166-17.672a5.078 5.078 0 1110.156 0v4.875a5.078 5.078 0 11-10.156 0v-4.875zm-13.244-1.219a3.864 3.864 0 013.86-3.86h4.874a1.422 1.422 0 110 2.844h-4.875a1.016 1.016 0 00-1.015 1.016v2.234h5.89a1.422 1.422 0 110 2.844h-5.89v2.234a1.016 1.016 0 001.015 1.016h4.875a1.422 1.422 0 110 2.844h-4.875a3.864 3.864 0 01-3.86-3.86v-7.312zm-7.556 5.078h-1.22a4.469 4.469 0 110-8.937h1.829a3.864 3.864 0 013.86 3.859 1.422 1.422 0 11-2.844 0 1.016 1.016 0 00-1.016-1.016h-1.828a1.625 1.625 0 000 3.25h1.219a4.469 4.469 0 110 8.938h-1.829a3.864 3.864 0 01-3.859-3.86 1.422 1.422 0 012.844 0 1.016 1.016 0 001.015 1.016h1.829a1.625 1.625 0 000-3.25z" fill="url(#paint0_linear_20_1693)"/><path d="M46.516 0H5.484A5.5 5.5 0 000 5.484v5.485h52V5.484A5.5 5.5 0 0046.516 0zM6.296 7.516a1.219 1.219 0 110-2.438 1.219 1.219 0 010 2.438zm6.5 0a1.219 1.219 0 110-2.437 1.219 1.219 0 010 2.437zm6.5 0a1.219 1.219 0 110-2.437 1.219 1.219 0 010 2.437zm26 0h-6.5a1.219 1.219 0 110-2.438h6.5a1.219 1.219 0 010 2.438z" fill="#4F4EC0"/></g><defs><linearGradient id="paint0_linear_20_1693" x1="-18.43" y1="86.354" x2="58.596" y2="80.731" gradientUnits="userSpaceOnUse"><stop stop-color="#2780E6"/><stop offset="1" stop-color="#781896"/></linearGradient><clipPath id="clip0_20_1693"><path fill="#fff" d="M0 0h52v52H0z"/></clipPath></defs></svg>