<svg width="52" height="52" fill="none" xmlns="http://www.w3.org/2000/svg"><g clip-path="url(#clip0_20_1699)"><mask id="a" style="mask-type:alpha" maskUnits="userSpaceOnUse" x="0" y="0" width="52" height="52"><path d="M16.25 25.188h19.5v1.625h-19.5v-1.625zm21.938 4.875c0-.898-.728-1.625-1.626-1.625H15.439c-.898 0-1.626.727-1.626 1.625v4.875c0 .897.728 1.624 1.626 1.624h21.124c.898 0 1.626-.727 1.626-1.624v-4.876zm-14.626 3.25h-4.875a.813.813 0 010-1.626h4.875a.813.813 0 010 1.625zm3.25 0a.813.813 0 110-1.626.813.813 0 010 1.625zm3.25 0a.813.813 0 110-1.626.813.813 0 010 1.625zm-14.624-9.75h21.124c.898 0 1.626-.728 1.626-1.625v-4.875c0-.898-.728-1.625-1.626-1.625H15.439c-.898 0-1.626.727-1.626 1.624v4.875c0 .898.728 1.625 1.626 1.625zm14.624-4.875a.813.813 0 110 1.625.813.813 0 010-1.625zm-3.25 0a.813.813 0 110 1.625.813.813 0 010-1.625zm-8.125 0h4.875a.813.813 0 010 1.625h-4.875a.813.813 0 010-1.625zM2.438 9.75h4.874a2.41 2.41 0 001.046-.245l.005.007 4.062 4.062a.81.81 0 001.15 0 .812.812 0 000-1.149L9.511 8.363l-.007-.005a2.41 2.41 0 00.245-1.046V2.438A2.44 2.44 0 007.312 0H2.438A2.44 2.44 0 000 2.438v4.874A2.44 2.44 0 002.438 9.75zM49.563 0h-4.876a2.44 2.44 0 00-2.437 2.438v4.874c0 .376.093.728.245 1.046l-.007.005-4.063 4.063a.812.812 0 101.15 1.149l4.062-4.063.005-.007c.318.152.67.245 1.045.245h4.876A2.44 2.44 0 0052 7.312V2.438A2.44 2.44 0 0049.562 0zm0 42.25h-4.876a2.41 2.41 0 00-1.045.245l-.005-.007-4.063-4.063a.812.812 0 10-1.15 1.15l4.064 4.062.007.005a2.41 2.41 0 00-.245 1.045v4.876A2.44 2.44 0 0044.688 52h4.874A2.44 2.44 0 0052 49.562v-4.874a2.44 2.44 0 00-2.438-2.438zm-37.138-3.825l-4.062 4.063-.005.007a2.41 2.41 0 00-1.046-.245H2.438A2.44 2.44 0 000 44.688v4.874A2.44 2.44 0 002.438 52h4.874a2.44 2.44 0 002.438-2.438v-4.874a2.41 2.41 0 00-.245-1.046l.007-.005 4.063-4.063a.812.812 0 10-1.15-1.148zm11.95-29.487h.813V13a.813.813 0 001.625 0V8.937h.812A2.44 2.44 0 0030.063 6.5V3.25A2.44 2.44 0 0027.625.812h-3.25a2.44 2.44 0 00-2.438 2.438V6.5a2.44 2.44 0 002.438 2.438zm-17.875 13H3.25a2.44 2.44 0 00-2.438 2.437v3.25a2.44 2.44 0 002.438 2.438H6.5a2.44 2.44 0 002.438-2.438v-.813h2.437a.813.813 0 000-1.625H8.937v-.812A2.44 2.44 0 006.5 21.937zm21.125 21.125h-.813V39a.813.813 0 00-1.625 0v4.063h-.812a2.44 2.44 0 00-2.438 2.437v3.25a2.44 2.44 0 002.438 2.438h3.25a2.44 2.44 0 002.438-2.438V45.5a2.44 2.44 0 00-2.438-2.438zm17.875-13h3.25a2.44 2.44 0 002.438-2.438v-3.25a2.44 2.44 0 00-2.438-2.438H45.5a2.44 2.44 0 00-2.438 2.438v.813h-2.438a.812.812 0 100 1.625h2.438v.812a2.44 2.44 0 002.438 2.438z" fill="#000"/></mask><g mask="url(#a)"><path fill="url(#paint0_linear_20_1699)" d="M-12-10h76v72h-76z"/></g></g><defs><linearGradient id="paint0_linear_20_1699" x1="-38.937" y1="124.129" x2="73.847" y2="117.475" gradientUnits="userSpaceOnUse"><stop stop-color="#2780E6"/><stop offset="1" stop-color="#781896"/></linearGradient><clipPath id="clip0_20_1699"><path fill="#fff" d="M0 0h52v52H0z"/></clipPath></defs></svg>