<svg width="45" height="45" fill="none" xmlns="http://www.w3.org/2000/svg"><path d="M41.389 11.583c-.054-1.184-.054-2.314-.054-3.444 0-.915-.7-1.614-1.614-1.614-6.727 0-11.839-1.938-16.09-6.081a1.66 1.66 0 00-2.26 0c-4.251 4.143-9.363 6.08-16.09 6.08-.915 0-1.614.7-1.614 1.615 0 1.13 0 2.26-.054 3.444-.215 11.3-.538 26.798 18.35 33.31L22.5 45l.538-.108c18.834-6.51 18.565-21.955 18.35-33.309zm-20.18 15.66c-.322.268-.7.43-1.13.43h-.053c-.431 0-.861-.216-1.13-.538l-5.005-5.543 2.421-2.152 3.929 4.358 8.717-8.287 2.207 2.368-9.956 9.363z" fill="url(#paint0_linear_20_1604)"/><defs><linearGradient id="paint0_linear_20_1604" x1="-9.859" y1="83.831" x2="46.414" y2="81.183" gradientUnits="userSpaceOnUse"><stop stop-color="#2780E6"/><stop offset="1" stop-color="#781896"/></linearGradient></defs></svg>