<svg width="48" height="44" viewBox="0 0 48 44" fill="none" xmlns="http://www.w3.org/2000/svg">
<path d="M44.2009 8.65826C38.068 3.94329 32.1196 7.78582 25.4846 6.42729C18.8017 5.05882 16.1392 0.502195 8.5275 2.60557C1.78481 4.46866 -2.30644 11.9385 1.40025 18.1923C2.45653 19.9743 4.25597 21.3188 4.99134 23.3128C6.17756 26.5294 4.37194 28.999 4.72416 32.1602C6.18778 45.2946 26.2467 40.2071 33.6276 36.1206C45.2029 29.7119 53.0336 15.449 44.2009 8.65826Z" fill="url(#paint0_linear_139_1927)"/>
<path opacity="0.1" d="M38.8398 32.2068C40.884 29.3291 42.0859 25.8112 42.0859 22.0125C42.0859 18.7283 41.1866 15.6547 39.6223 13.0225C40.0839 12.7145 40.3883 12.1893 40.3883 11.5927C40.3883 10.644 39.6192 9.87485 38.6704 9.87485C38.2614 9.87485 37.8862 10.0184 37.5914 10.2573C34.3646 6.65594 29.6786 4.38916 24.4625 4.38916C22.1496 4.38916 19.9413 4.8355 17.9177 5.64541C17.6465 5.05375 17.0508 4.6421 16.3573 4.6421C15.4085 4.6421 14.6394 5.41122 14.6394 6.35997C14.6394 6.67553 14.7259 6.97019 14.8744 7.22435C10.0383 10.3664 6.83922 15.8155 6.83922 22.0125C6.83922 22.7403 6.88357 23.4576 6.96935 24.1623C6.15776 24.2992 5.53882 25.0036 5.53882 25.8542C5.53882 26.8029 6.30794 27.572 7.25669 27.572C7.41541 27.572 7.56841 27.5488 7.71429 27.5085C8.30932 29.3222 9.19001 31.0064 10.3042 32.5071C9.49872 33.4803 9.01441 34.7292 9.01441 36.0913C9.01441 39.1979 11.5328 41.7163 14.6394 41.7163C16.7122 41.7163 18.5219 40.5944 19.4975 38.9254C21.0724 39.3871 22.7383 39.6358 24.4624 39.6358C25.2439 39.6358 26.0133 39.5843 26.7679 39.4857C26.9114 40.2895 27.6124 40.9002 28.4573 40.9002C29.4061 40.9002 30.1752 40.1311 30.1752 39.1823C30.1752 39.0189 30.1515 38.8613 30.1086 38.7119C32.5549 37.8851 34.7601 36.5356 36.5923 34.7967C36.9007 35.0916 37.3179 35.2739 37.7784 35.2739C38.7272 35.2739 39.4963 34.5048 39.4963 33.556C39.4964 33.0082 39.239 32.5215 38.8398 32.2068Z" fill="#0000CB"/>
<path d="M7.25724 23.5949C6.98349 22.3612 6.83911 21.0787 6.83911 19.7624C6.83911 12.9512 10.7029 7.04316 16.358 4.11084L23.9606 3.5625L27.72 8.53959L14.4488 19.5515L7.25724 23.5949Z" fill="#B2B2FF"/>
<path d="M36.0639 27.6482C36.0639 26.908 35.5947 26.2789 34.9382 26.0374C34.947 25.7957 34.953 25.5535 34.953 25.3103C34.953 20.269 33.031 15.49 29.5412 11.8536C29.446 11.7545 29.3497 11.657 29.2528 11.5602C29.3445 11.3772 29.4059 11.1764 29.4269 10.9633C30.2293 10.8566 31.0475 10.8005 31.8786 10.8005C33.6111 10.8005 35.3127 11.0379 36.9568 11.5066C36.9554 11.5353 36.9525 11.5637 36.9525 11.5928C36.9525 12.5416 37.7216 13.3107 38.6704 13.3107C39.4545 13.3107 40.1146 12.7847 40.3205 12.0667C39.959 11.3233 39.5471 10.6088 39.0887 9.92837C38.9545 9.89471 38.8149 9.87493 38.6704 9.87493C38.0841 9.87493 37.5669 10.1692 37.2569 10.6176C35.5161 10.117 33.7137 9.86303 31.8786 9.86303C30.9907 9.86303 30.1169 9.92415 29.2602 10.0399C28.9811 9.46881 28.3962 9.0744 27.7177 9.0744C27.3368 9.0744 26.986 9.19993 26.7011 9.40965C24.1379 7.60065 21.178 6.44368 18.0437 6.03709C17.8925 5.24284 17.1954 4.64209 16.3571 4.64209C15.4084 4.64209 14.6393 5.41121 14.6393 6.35996C14.6393 7.30871 15.4084 8.07784 16.3571 8.07784C17.0902 8.07784 17.7142 7.6179 17.9609 6.97159C20.9145 7.36103 23.7042 8.45153 26.1247 10.151C26.0472 10.3433 26.0034 10.5526 26.0007 10.7719C21.1536 12.3129 17.1247 15.7065 14.7498 20.1174C14.6519 20.1001 14.5518 20.0894 14.4489 20.0894C13.5002 20.0894 12.7311 20.8585 12.7311 21.8072C12.7311 21.8404 12.7342 21.8728 12.736 21.9056C11.1354 22.5419 9.61932 23.3914 8.22938 24.4389C7.98657 24.2717 7.69885 24.165 7.3877 24.1413C7.64991 25.167 8.0027 26.1562 8.43601 27.1009C8.76695 26.7878 8.97451 26.3457 8.97451 25.8542C8.97451 25.6075 8.92154 25.3735 8.82798 25.1614C10.13 24.185 11.5475 23.3909 13.0431 22.7924C13.1488 22.943 13.2785 23.0751 13.4261 23.185C12.7865 25.1094 12.439 27.166 12.439 29.3024C12.439 30.5402 12.5545 31.7613 12.7826 32.958C13.16 33.2922 13.5512 33.611 13.9564 33.9123C13.572 32.416 13.3766 30.8734 13.3766 29.3023C13.3766 27.2828 13.703 25.3384 14.3038 23.5176C14.3518 23.5217 14.4001 23.5249 14.4492 23.5249C15.3826 23.5249 16.1405 22.7801 16.1648 21.8526C17.3906 21.5993 18.648 21.4689 19.9195 21.4689C23.8058 21.4689 27.5247 22.6602 30.6743 24.9138C31.4607 25.4766 32.1962 26.0942 32.8772 26.7604C32.7202 27.0197 32.6282 27.3227 32.6282 27.6479C32.6282 28.332 33.0291 28.9209 33.6078 29.1972C33.3433 30.4347 32.9512 31.6423 32.4322 32.8112C31.8668 34.0847 31.1664 35.277 30.3402 36.3802C30.8824 36.1885 31.4123 35.971 31.9286 35.7291C32.4418 34.9219 32.8966 34.0755 33.289 33.1917C33.84 31.9508 34.2553 30.6689 34.5333 29.3551C34.6957 29.3374 34.8511 29.2969 34.9968 29.2373C35.6599 30.1678 36.2364 31.1602 36.7188 32.2054C36.482 32.3915 36.2956 32.6385 36.1824 32.9225C36.6384 32.516 37.0739 32.0868 37.4856 31.6355C36.9894 30.5885 36.4043 29.5922 35.7343 28.6567C35.9406 28.3736 36.0639 28.0257 36.0639 27.6482ZM34.0028 25.9648C33.8473 25.9963 33.7001 26.05 33.563 26.1204C32.8394 25.4095 32.0573 24.751 31.2198 24.1517C27.9101 21.7835 24.0026 20.5318 19.9195 20.5318C18.569 20.5318 17.2335 20.6714 15.9322 20.9433C15.8412 20.7876 15.7266 20.6479 15.5931 20.5284C17.8496 16.3569 21.6624 13.1462 26.2477 11.6777C26.5484 12.176 27.0934 12.5102 27.7178 12.5102C28.0488 12.5102 28.3569 12.415 28.6192 12.2527C28.7016 12.3354 28.7838 12.4183 28.8649 12.5027C32.1864 15.9636 34.0155 20.5121 34.0155 25.3103C34.0154 25.5291 34.0104 25.7472 34.0028 25.9648Z" fill="#9393FF"/>
<path d="M34.3414 25.3965C35.8207 27.1252 36.9935 29.123 37.7782 31.3064C35.3816 34.0695 32.1397 36.0791 28.4539 36.9324C31.6282 33.9709 33.7854 29.9321 34.3414 25.3965Z" fill="#4D4DFF"/>
<path d="M36.1822 32.923C36.6384 32.5163 37.0733 32.0864 37.4851 31.6348C36.989 30.5882 36.404 29.5922 35.7343 28.6571C35.9222 28.399 36.04 28.0871 36.0598 27.7485C35.5468 26.92 34.9723 26.1335 34.3414 25.3962C34.1832 26.6874 33.8947 27.9381 33.4905 29.1354C33.5287 29.1574 33.5677 29.1784 33.6078 29.1975C33.3433 30.435 32.9511 31.6426 32.4321 32.8116C31.8665 34.0854 31.1659 35.2781 30.3394 36.3817C30.8816 36.19 31.4116 35.9725 31.9279 35.7306C32.4414 34.923 32.8964 34.0764 33.289 33.1921C33.84 31.9512 34.2553 30.6693 34.5333 29.3555C34.6956 29.3379 34.8511 29.2974 34.9968 29.2377C35.6599 30.1682 36.2363 31.1606 36.7188 32.2059C36.4819 32.392 36.2955 32.6389 36.1822 32.923Z" fill="#2C27FF"/>
<path d="M12.9074 27.0529C12.9074 29.5607 13.394 31.956 14.279 34.1479C10.7746 31.6626 8.21802 27.9285 7.25708 23.5945C9.30177 21.7598 11.7486 20.3629 14.4486 19.551C13.4568 21.8517 12.9074 24.3885 12.9074 27.0529Z" fill="#D8D8FF"/>
<path d="M13.5868 32.1002C13.1442 30.4928 12.9073 28.8004 12.9073 27.053C12.9073 26.08 12.9814 25.1243 13.1227 24.1907C12.6777 25.8202 12.439 27.534 12.439 29.3027C12.439 30.5409 12.5546 31.7625 12.7827 32.9594C13.1601 33.2936 13.5514 33.6126 13.9566 33.9139C13.803 33.3163 13.6796 32.7114 13.5868 32.1002Z" fill="#B2B2FF"/>
<path d="M13.3204 23.1001C13.539 22.0686 13.8419 21.0684 14.2207 20.1064C13.3801 20.2184 12.7311 20.9362 12.7311 21.8074C12.7311 21.8406 12.7342 21.873 12.7361 21.9058C11.1354 22.5421 9.61936 23.3916 8.22942 24.4391C7.9868 24.272 7.69945 24.1654 7.38867 24.1416C7.65089 25.1672 8.00217 26.1572 8.43539 27.1018C8.7667 26.7887 8.97445 26.3463 8.97445 25.8544C8.97445 25.6078 8.92148 25.3738 8.82792 25.1617C10.1299 24.1853 11.5474 23.3912 13.043 22.7927C13.1227 22.9063 13.2161 23.0092 13.3204 23.1001Z" fill="#B2B2FF"/>
<path d="M34.3415 25.3955V25.3964C33.7856 29.9321 31.6284 33.9708 28.454 36.9324C27.1715 37.2295 25.8356 37.3861 24.4631 37.3861C20.669 37.3861 17.1553 36.187 14.279 34.148C13.394 31.9561 12.9075 29.5608 12.9075 27.053C12.9075 24.3886 13.4568 21.8517 14.4487 19.5511C16.1812 19.0299 18.0178 18.7505 19.92 18.7505C25.6912 18.7505 30.8615 21.3286 34.3415 25.3955Z" fill="#6C6CFF"/>
<path d="M34.0155 25.3103C34.0155 25.5292 34.0103 25.7471 34.0028 25.9647C33.8473 25.9962 33.7001 26.0499 33.5629 26.1204C32.8394 25.4094 32.0572 24.7509 31.2198 24.1517C27.9101 21.7835 24.0026 20.5317 19.9195 20.5317C18.5689 20.5317 17.2335 20.6713 15.9321 20.9433C15.8412 20.7876 15.7265 20.6479 15.593 20.5284C15.8653 20.025 16.1608 19.536 16.477 19.062C16.0425 19.1416 15.6132 19.2364 15.1895 19.3451C15.0375 19.599 14.8907 19.8564 14.75 20.1175C14.6522 20.1002 14.552 20.0895 14.4492 20.0895C14.3716 20.0895 14.2958 20.0964 14.2209 20.1064C13.8421 21.0684 13.5393 22.0686 13.3206 23.1C13.3547 23.1296 13.3899 23.1581 13.4262 23.1851C13.3161 23.5164 13.2153 23.8518 13.1228 24.1906C12.9815 25.1243 12.9075 26.0799 12.9075 27.0529C12.9075 28.8003 13.1443 30.4928 13.587 32.1001C13.4475 31.1804 13.3767 30.2467 13.3767 29.3026C13.3767 27.2831 13.703 25.3388 14.3039 23.5179C14.3519 23.522 14.4002 23.5253 14.4493 23.5253C15.3827 23.5253 16.1405 22.7804 16.1648 21.8529C17.3907 21.5996 18.6481 21.4692 19.9196 21.4692C23.8058 21.4692 27.5248 22.6605 30.6743 24.9142C31.4608 25.4769 32.1963 26.0945 32.8773 26.7608C32.7202 27.0201 32.6283 27.323 32.6283 27.6482C32.6283 28.2849 32.9758 28.8389 33.4906 29.1354C33.8949 27.9382 34.1833 26.6875 34.3415 25.3963V25.3954C34.2333 25.269 34.1236 25.144 34.0122 25.0206C34.0135 25.117 34.0155 25.2135 34.0155 25.3103Z" fill="#4D4DFF"/>
<path d="M38.6709 9.33423C36.5624 8.5261 34.2712 8.08173 31.8787 8.08173C30.4499 8.08173 29.0587 8.23923 27.7199 8.53923C24.6215 5.93204 20.6765 4.29892 16.3574 4.11048C18.7837 2.85048 21.5409 2.13892 24.463 2.13892C30.2943 2.13892 35.4637 4.9711 38.6709 9.33423Z" fill="#D8D8FF"/>
<path d="M42.0862 19.763C42.0862 24.1787 40.4625 28.2137 37.7784 31.3065C36.9937 29.123 35.8209 27.1252 34.3415 25.3965V25.3955C34.4353 24.6305 34.484 23.8515 34.484 23.0602C34.484 17.2327 31.8553 12.0183 27.72 8.53929C29.0587 8.23929 30.45 8.08179 31.8787 8.08179C34.2712 8.08179 36.5625 8.52616 38.6709 9.33429C40.8178 12.2546 42.0862 15.8612 42.0862 19.763Z" fill="#6C6CFF"/>
<path d="M34.3416 25.3964C34.9725 26.1336 35.547 26.9201 36.06 27.7487C36.0619 27.7154 36.0641 27.6821 36.0641 27.6483C36.0641 26.9081 35.595 26.279 34.9384 26.0375C34.9472 25.7958 34.9532 25.5536 34.9532 25.3104C34.9532 23.544 34.7164 21.8102 34.2598 20.1462C34.4063 21.0964 34.4841 22.0691 34.4841 23.0603C34.4841 23.8515 34.4354 24.6306 34.3416 25.3956V25.3964Z" fill="#4D4DFF"/>
<path d="M30.0635 10.8904C30.6608 10.8317 31.2663 10.8008 31.8788 10.8008C33.6113 10.8008 35.313 11.0382 36.9571 11.5068C36.9557 11.5356 36.9528 11.564 36.9528 11.5931C36.9528 12.5418 37.7219 13.3109 38.6706 13.3109C39.4548 13.3109 40.1148 12.7851 40.3207 12.0672C39.9592 11.3236 39.5474 10.6092 39.089 9.92863C38.9548 9.89497 38.8152 9.87519 38.6706 9.87519C38.0843 9.87519 37.5672 10.1695 37.2572 10.6179C35.5163 10.1173 33.714 9.86328 31.8788 9.86328C31.0054 9.86328 30.1457 9.92272 29.3025 10.0349C29.5646 10.3123 29.8183 10.5976 30.0635 10.8904Z" fill="#4D4DFF"/>
<path d="M34.484 23.0602C34.484 23.8515 34.4353 24.6306 34.3415 25.3956C30.8615 21.3287 25.6912 18.7506 19.92 18.7506C18.0178 18.7506 16.1812 19.0299 14.4487 19.5512C16.8244 14.0387 21.7387 9.87712 27.72 8.53931C31.8553 12.0184 34.484 17.2327 34.484 23.0602Z" fill="#9393FF"/>
<path d="M29.253 11.5603C29.3447 11.3773 29.4061 11.1765 29.4271 10.9634C29.6381 10.9354 29.8503 10.9113 30.0634 10.8903C29.8183 10.5975 29.5646 10.3122 29.3024 10.0348C29.2885 10.0366 29.2744 10.0382 29.2604 10.0401C29.2405 9.99922 29.2185 9.95957 29.1955 9.92057C28.9936 9.71047 28.7861 9.50591 28.5748 9.30519C28.3227 9.15903 28.0304 9.07457 27.7179 9.07457C27.337 9.07457 26.9863 9.2001 26.7014 9.40982C26.4948 9.26404 26.2847 9.12407 26.0732 8.98682C25.6914 9.10944 25.3152 9.24444 24.9443 9.39013C25.3463 9.62882 25.7407 9.88147 26.125 10.1512C26.0475 10.3435 26.0037 10.5527 26.001 10.7721C21.4409 12.2218 17.6054 15.3115 15.1897 19.3452C15.6134 19.2364 16.0426 19.1416 16.4772 19.062C18.7816 15.6077 22.2158 12.9688 26.2478 11.6777C26.5485 12.176 27.0935 12.5102 27.7179 12.5102C28.0489 12.5102 28.3571 12.415 28.6193 12.2527C28.7017 12.3354 28.7839 12.4183 28.865 12.5027C32.1195 15.8938 33.9401 20.3293 34.0123 25.0206C34.1236 25.1441 34.2334 25.269 34.3416 25.3954C34.4354 24.6304 34.4841 23.8513 34.4841 23.0601C34.4841 22.069 34.4063 21.0962 34.2598 20.1461C33.4131 17.0607 31.8086 14.2158 29.5414 11.8536C29.4463 11.7547 29.3499 11.6572 29.253 11.5603Z" fill="#8282FF"/>
<path d="M27.7176 10.2602C28.6664 10.2602 29.4355 9.49109 29.4355 8.54234C29.4355 7.59358 28.6664 6.82446 27.7176 6.82446C26.7689 6.82446 25.9998 7.59358 25.9998 8.54234C25.9998 9.49109 26.7689 10.2602 27.7176 10.2602Z" fill="#FF9C33"/>
<path d="M38.6703 11.0608C39.619 11.0608 40.3881 10.2916 40.3881 9.34287C40.3881 8.39412 39.619 7.625 38.6703 7.625C37.7215 7.625 36.9524 8.39412 36.9524 9.34287C36.9524 10.2916 37.7215 11.0608 38.6703 11.0608Z" fill="#FF6C6C"/>
<path d="M16.3573 5.82808C17.306 5.82808 18.0752 5.05896 18.0752 4.11021C18.0752 3.16145 17.306 2.39233 16.3573 2.39233C15.4085 2.39233 14.6394 3.16145 14.6394 4.11021C14.6394 5.05896 15.4085 5.82808 16.3573 5.82808Z" fill="#FF9C33"/>
<path d="M14.3114 35.8659C15.2601 35.8659 16.0293 35.0968 16.0293 34.1481C16.0293 33.1993 15.2601 32.4302 14.3114 32.4302C13.3626 32.4302 12.5935 33.1993 12.5935 34.1481C12.5935 35.0968 13.3626 35.8659 14.3114 35.8659Z" fill="#FF6C6C"/>
<path d="M7.25669 25.3225C8.20545 25.3225 8.97457 24.5534 8.97457 23.6046C8.97457 22.6558 8.20545 21.8867 7.25669 21.8867C6.30794 21.8867 5.53882 22.6558 5.53882 23.6046C5.53882 24.5534 6.30794 25.3225 7.25669 25.3225Z" fill="#FF6C6C"/>
<path d="M14.4491 21.2754C15.3978 21.2754 16.167 20.5062 16.167 19.5575C16.167 18.6087 15.3978 17.8396 14.4491 17.8396C13.5003 17.8396 12.7312 18.6087 12.7312 19.5575C12.7312 20.5062 13.5003 21.2754 14.4491 21.2754Z" fill="#FF6C6C"/>
<path d="M34.346 27.1162C35.2948 27.1162 36.0639 26.3471 36.0639 25.3983C36.0639 24.4495 35.2948 23.6804 34.346 23.6804C33.3973 23.6804 32.6282 24.4495 32.6282 25.3983C32.6282 26.3471 33.3973 27.1162 34.346 27.1162Z" fill="#FF9C33"/>
<path d="M37.7784 33.0241C38.7272 33.0241 39.4963 32.255 39.4963 31.3063C39.4963 30.3575 38.7272 29.5884 37.7784 29.5884C36.8297 29.5884 36.0605 30.3575 36.0605 31.3063C36.0605 32.255 36.8297 33.0241 37.7784 33.0241Z" fill="#FF6C6C"/>
<path d="M28.4576 38.6503C29.4064 38.6503 30.1755 37.8812 30.1755 36.9325C30.1755 35.9837 29.4064 35.2146 28.4576 35.2146C27.5089 35.2146 26.7397 35.9837 26.7397 36.9325C26.7397 37.8812 27.5089 38.6503 28.4576 38.6503Z" fill="#FF9C33"/>
<path d="M14.6394 39.4666C17.746 39.4666 20.2644 36.9482 20.2644 33.8416C20.2644 30.735 17.746 28.2166 14.6394 28.2166C11.5328 28.2166 9.0144 30.735 9.0144 33.8416C9.0144 36.9482 11.5328 39.4666 14.6394 39.4666Z" fill="#FF6C6C"/>
<path d="M40.2246 10.8791C40.6153 10.4839 40.857 9.94113 40.857 9.34291C40.857 8.13719 39.8761 7.15629 38.6703 7.15629C38.31 7.15629 37.9699 7.2445 37.6699 7.39957C34.2559 3.754 29.4658 1.67041 24.4621 1.67041C23.2197 1.67041 21.9736 1.79828 20.7584 2.05047C20.5049 2.10307 20.342 2.35122 20.3947 2.60472C20.4473 2.85813 20.6951 3.02135 20.949 2.96838C22.1016 2.72922 23.2836 2.60791 24.4622 2.60791C29.1878 2.60791 33.713 4.56747 36.9475 7.99891C36.8882 8.07475 36.8352 8.15557 36.7861 8.23882C35.1899 7.82388 33.5412 7.61322 31.8787 7.61322C31.1678 7.61322 30.4533 7.65438 29.7477 7.73125C29.4248 6.92613 28.6369 6.35575 27.7177 6.35575C27.1742 6.35575 26.6766 6.55563 26.2938 6.88507C23.9636 5.33041 21.2925 4.28857 18.5288 3.85704C18.4029 2.7701 17.4773 1.92344 16.3573 1.92344C15.1516 1.92344 14.1707 2.90435 14.1707 4.11007C14.1707 4.35316 14.2112 4.58678 14.2847 4.80532C9.32547 8.18547 6.37029 13.7589 6.37029 19.7622C6.37029 20.366 6.40197 20.9714 6.46132 21.5681C5.64785 21.8869 5.07007 22.6792 5.07007 23.6043C5.07007 24.8101 6.05097 25.791 7.25669 25.791C7.30413 25.791 7.3511 25.7889 7.39779 25.7859C7.95954 27.3772 8.73897 28.8765 9.72007 30.2517C8.98244 31.2591 8.54557 32.4998 8.54557 33.8415C8.54557 37.2016 11.2792 39.9352 14.6393 39.9352C16.7493 39.9352 18.6117 38.857 19.7059 37.223C21.249 37.6424 22.8472 37.855 24.4621 37.855C25.121 37.855 25.7803 37.8173 26.4287 37.7468C26.7524 38.5503 27.5395 39.119 28.4574 39.119C29.6631 39.119 30.644 38.1381 30.644 36.9324C30.644 36.8785 30.6414 36.8253 30.6376 36.7723C32.8309 35.9743 34.8849 34.7337 36.6199 33.1593C36.956 33.3702 37.3531 33.4927 37.7784 33.4927C38.9841 33.4927 39.965 32.5118 39.965 31.3061C39.965 30.1004 38.9841 29.1195 37.7784 29.1195C37.6407 29.1195 37.5062 29.1329 37.3755 29.1573C36.976 28.3457 36.5189 27.5598 36.0113 26.813C36.3361 26.4314 36.5327 25.9375 36.5327 25.3983C36.5327 24.4024 35.8634 23.5607 34.9512 23.2975C34.9522 23.2177 34.9529 23.1387 34.9529 23.0605C34.9529 18.0329 33.0529 13.2911 29.5953 9.66166C29.7729 9.36485 29.8824 9.02294 29.9014 8.65732C30.5563 8.58785 31.2193 8.55082 31.8788 8.55082C33.4425 8.55082 34.9929 8.74666 36.4949 9.13207C36.4881 9.20154 36.4839 9.27175 36.4839 9.343C36.4839 10.5487 37.4648 11.5296 38.6705 11.5296C38.9403 11.5296 39.1986 11.4802 39.4374 11.3905C40.864 13.937 41.6176 16.8213 41.6176 19.7624C41.6176 22.3591 41.0518 24.8542 39.936 27.1786C39.8239 27.412 39.9223 27.692 40.1556 27.804C40.2211 27.8354 40.2902 27.8503 40.3582 27.8503C40.5329 27.8503 40.7005 27.7523 40.7811 27.5843C41.9583 25.1323 42.5551 22.5006 42.5551 19.7624C42.5549 16.6401 41.749 13.5784 40.2246 10.8791ZM27.7176 7.29325C28.4064 7.29325 28.9668 7.8536 28.9668 8.54238C28.9668 9.23116 28.4064 9.7915 27.7176 9.7915C27.0289 9.7915 26.4685 9.23116 26.4685 8.54238C26.4685 7.8536 27.0289 7.29325 27.7176 7.29325ZM16.3572 2.86103C17.046 2.86103 17.6063 3.42138 17.6063 4.11016C17.6063 4.79894 17.046 5.35929 16.3572 5.35929C15.6684 5.35929 15.1081 4.79894 15.1081 4.11016C15.1081 3.42138 15.6684 2.86103 16.3572 2.86103ZM14.7685 5.61016C15.1674 6.03241 15.7319 6.29669 16.3572 6.29669C17.3251 6.29669 18.1476 5.66435 18.4346 4.79125C21.0288 5.20375 23.5362 6.1811 25.729 7.63488C25.6023 7.91154 25.531 8.21875 25.531 8.54238C25.531 8.58616 25.5327 8.62947 25.5352 8.6726C21.0567 10.2151 17.3328 13.3072 14.9808 17.4364C14.8104 17.3937 14.6324 17.3707 14.449 17.3707C13.2433 17.3707 12.2624 18.3516 12.2624 19.5573C12.2624 19.654 12.2687 19.7493 12.2809 19.8426C10.9945 20.393 9.76807 21.0832 8.62479 21.9004C8.28213 21.6247 7.85463 21.4515 7.38851 21.4234C7.33554 20.8743 7.30769 20.3177 7.30769 19.7622C7.30769 14.0879 10.0925 8.81847 14.7685 5.61016ZM15.6981 19.5574C15.6981 20.2462 15.1378 20.8066 14.449 20.8066C13.7602 20.8066 13.1999 20.2462 13.1999 19.5574C13.1999 18.8687 13.7602 18.3083 14.449 18.3083C15.1378 18.3083 15.6981 18.8687 15.6981 19.5574ZM7.2566 24.8536C6.56782 24.8536 6.00747 24.2932 6.00747 23.6044C6.00747 22.9157 6.56782 22.3553 7.2566 22.3553C7.94538 22.3553 8.50572 22.9157 8.50572 23.6044C8.50572 24.2932 7.94538 24.8536 7.2566 24.8536ZM8.30041 25.5254C8.98066 25.1543 9.44322 24.4324 9.44322 23.6044C9.44322 23.2549 9.36035 22.9247 9.21401 22.6314C10.2754 21.8774 11.4115 21.2382 12.6017 20.7249C12.7736 20.9957 13.003 21.2266 13.273 21.3995C12.7192 23.2265 12.4386 25.1262 12.4386 27.0523C12.4386 27.4162 12.4492 27.7836 12.4697 28.1485C11.669 28.4547 10.9493 28.9253 10.3512 29.5184C9.49366 28.2815 8.80572 26.9423 8.30041 25.5254ZM14.6393 38.9978C11.7962 38.9978 9.48307 36.6847 9.48307 33.8416C9.48307 30.9984 11.7962 28.6853 14.6393 28.6853C17.4825 28.6853 19.7956 30.9984 19.7956 33.8416C19.7956 36.6847 17.4825 38.9978 14.6393 38.9978ZM28.4574 38.1816C27.7686 38.1816 27.2083 37.6213 27.2083 36.9325C27.2083 36.2437 27.7686 35.6834 28.4574 35.6834C29.1462 35.6834 29.7065 36.2437 29.7065 36.9325C29.7065 37.6213 29.1462 38.1816 28.4574 38.1816ZM29.5909 35.0638C29.2602 34.8623 28.8723 34.7458 28.4574 34.7458C27.289 34.7458 26.3317 35.6669 26.2736 36.8211C25.6762 36.8841 25.0691 36.9175 24.4621 36.9175C23.009 36.9175 21.5706 36.736 20.1779 36.3781C20.5333 35.6052 20.7331 34.7464 20.7331 33.8416C20.7331 30.4815 17.9994 27.7478 14.6393 27.7478C14.213 27.7478 13.7969 27.7923 13.3951 27.876C13.383 27.6012 13.3761 27.3258 13.3761 27.0523C13.3761 25.2368 13.6383 23.4465 14.1548 21.7237C14.2511 21.7368 14.3492 21.7441 14.4489 21.7441C15.6546 21.7441 16.6355 20.7632 16.6355 19.5574C16.6355 19.5416 16.6345 19.526 16.6341 19.5102C17.7118 19.3173 18.8146 19.2194 19.9188 19.2194C24.6338 19.2194 29.0951 20.9792 32.5307 24.1837C32.2971 24.5315 32.1591 24.9486 32.1591 25.3982C32.1591 26.3034 32.7121 27.0818 33.4979 27.4137C32.8204 30.223 31.4766 32.8543 29.5909 35.0638ZM37.7784 30.057C38.4672 30.057 39.0275 30.6173 39.0275 31.3061C39.0275 31.9949 38.4672 32.5552 37.7784 32.5552C37.0896 32.5552 36.5293 31.9949 36.5293 31.3061C36.5292 30.6173 37.0896 30.057 37.7784 30.057ZM36.512 29.5251C35.9556 29.922 35.5917 30.572 35.5917 31.306C35.5917 31.7474 35.7236 32.1583 35.9493 32.5024C34.3264 33.9656 32.4123 35.122 30.3693 35.8728C30.3386 35.8177 30.3048 35.7647 30.2696 35.7125C32.2803 33.3696 33.7088 30.5711 34.4211 27.5827C34.7213 27.5724 35.0064 27.5017 35.2644 27.3818C35.7266 28.0659 36.1447 28.784 36.512 29.5251ZM35.5951 25.3983C35.5951 26.087 35.0347 26.6474 34.3459 26.6474C33.6572 26.6474 33.0968 26.087 33.0968 25.3983C33.0968 24.7095 33.6572 24.1491 34.3459 24.1491C35.0347 24.1491 35.5951 24.7095 35.5951 25.3983ZM34.0152 23.0604C34.0152 23.1187 34.0148 23.1775 34.0143 23.2368C33.7222 23.2814 33.4502 23.3857 33.208 23.5341C29.5932 20.1444 24.8904 18.282 19.919 18.282C18.7405 18.282 17.5634 18.3888 16.4135 18.5981C16.2718 18.3093 16.0683 18.0562 15.8203 17.856C18.0518 13.9629 21.5669 11.0437 25.7912 9.5756C26.1605 10.2616 26.8855 10.729 27.7177 10.729C28.1757 10.729 28.6008 10.5871 28.9524 10.3455C32.2204 13.7949 34.0152 18.2928 34.0152 23.0604ZM38.6703 10.592C37.9815 10.592 37.4211 10.0317 37.4211 9.34291C37.4211 8.65413 37.9815 8.09379 38.6703 8.09379C39.359 8.09379 39.9194 8.65413 39.9194 9.34291C39.9195 10.0317 39.3591 10.592 38.6703 10.592Z" fill="#0000CB"/>
<path d="M18.7811 32.3911L18.0298 33.3985C17.0109 32.8049 15.8494 32.4895 14.6393 32.4895C13.4293 32.4895 12.267 32.8049 11.2481 33.3978L10.4976 32.3911C11.734 31.6405 13.156 31.2402 14.6393 31.2402C16.1227 31.2402 17.5447 31.6405 18.7811 32.3911Z" fill="white"/>
<path d="M17.3878 34.2591L16.6322 35.2723C16.0214 34.9662 15.3429 34.8035 14.6394 34.8035C13.9359 34.8035 13.2573 34.9655 12.6467 35.2723L11.8904 34.2591C12.7231 33.7989 13.662 33.5542 14.6394 33.5542C15.6162 33.5542 16.5558 33.7989 17.3878 34.2591Z" fill="white"/>
<path d="M15.9815 36.1455L15.1996 37.1929C15.0191 37.1429 14.8314 37.118 14.6395 37.118C14.4468 37.118 14.2592 37.1429 14.0787 37.1929L13.2974 36.1447C13.7155 35.9635 14.17 35.8687 14.6394 35.8687C15.1088 35.8687 15.5634 35.9635 15.9815 36.1455Z" fill="white"/>
<path d="M13.5968 14.6592H12.5674C12.3085 14.6592 12.0986 14.4493 12.0986 14.1904C12.0986 13.9316 12.3085 13.7217 12.5674 13.7217H13.5968C13.8556 13.7217 14.0655 13.9316 14.0655 14.1904C14.0655 14.4493 13.8556 14.6592 13.5968 14.6592Z" fill="#FF6C6C"/>
<path d="M13.5967 16.3291H11.1365C10.8776 16.3291 10.6677 16.1192 10.6677 15.8604C10.6677 15.6015 10.8776 15.3916 11.1365 15.3916H13.5967C13.8555 15.3916 14.0654 15.6015 14.0654 15.8604C14.0654 16.1192 13.8555 16.3291 13.5967 16.3291Z" fill="#FF6C6C"/>
<path d="M37.5775 14.0911H36.5481C36.2893 14.0911 36.0793 13.8812 36.0793 13.6223C36.0793 13.3635 36.2893 13.1536 36.5481 13.1536H37.5775C37.8363 13.1536 38.0462 13.3635 38.0462 13.6223C38.0462 13.8812 37.8363 14.0911 37.5775 14.0911Z" fill="#FF6C6C"/>
<path d="M39.0083 15.761H36.5481C36.2893 15.761 36.0793 15.5511 36.0793 15.2922C36.0793 15.0334 36.2893 14.8235 36.5481 14.8235H39.0083C39.2671 14.8235 39.477 15.0334 39.477 15.2922C39.477 15.5511 39.2672 15.761 39.0083 15.761Z" fill="#FF6C6C"/>
<path d="M29.9741 27.7021H28.9448C28.686 27.7021 28.4761 27.4922 28.4761 27.2334C28.4761 26.9746 28.686 26.7646 28.9448 26.7646H29.9741C30.2329 26.7646 30.4429 26.9746 30.4429 27.2334C30.4429 27.4922 30.2329 27.7021 29.9741 27.7021Z" fill="#FFAA66"/>
<path d="M29.974 29.3721H27.5139C27.2551 29.3721 27.0452 29.1622 27.0452 28.9033C27.0452 28.6445 27.2551 28.4346 27.5139 28.4346H29.974C30.2329 28.4346 30.4428 28.6445 30.4428 28.9033C30.4428 29.1622 30.2329 29.3721 29.974 29.3721Z" fill="#FFAA66"/>
<path d="M5.521 33.2385C5.26215 33.2385 5.05225 33.0286 5.05225 32.7698C5.05225 32.4854 4.82096 32.2542 4.53662 32.2542C4.27778 32.2542 4.06787 32.0442 4.06787 31.7854C4.06787 31.5266 4.27778 31.3167 4.53662 31.3167C4.82096 31.3167 5.05225 31.0854 5.05225 30.801C5.05225 30.5422 5.26215 30.3323 5.521 30.3323C5.77984 30.3323 5.98975 30.5422 5.98975 30.801C5.98975 31.0854 6.22103 31.3167 6.50537 31.3167C6.76421 31.3167 6.97412 31.5266 6.97412 31.7854C6.97412 32.0442 6.76421 32.2542 6.50537 32.2542C6.22103 32.2542 5.98975 32.4854 5.98975 32.7698C5.98975 33.0286 5.77984 33.2385 5.521 33.2385Z" fill="#FF9C33"/>
<path d="M42.5549 35.6011C42.2961 35.6011 42.0862 35.3912 42.0862 35.1323C42.0862 34.848 41.8549 34.6167 41.5706 34.6167C41.3117 34.6167 41.1018 34.4068 41.1018 34.1479C41.1018 33.8891 41.3117 33.6792 41.5706 33.6792C41.8549 33.6792 42.0862 33.4479 42.0862 33.1636C42.0862 32.9047 42.2961 32.6948 42.5549 32.6948C42.8138 32.6948 43.0237 32.9047 43.0237 33.1636C43.0237 33.4479 43.255 33.6792 43.5393 33.6792C43.7982 33.6792 44.0081 33.8891 44.0081 34.1479C44.0081 34.4068 43.7982 34.6167 43.5393 34.6167C43.255 34.6167 43.0237 34.848 43.0237 35.1323C43.0237 35.3912 42.8138 35.6011 42.5549 35.6011Z" fill="#FF6C6C"/>
<path d="M36.064 2.90625C35.8051 2.90625 35.5952 2.69634 35.5952 2.4375C35.5952 2.15316 35.3639 1.92188 35.0796 1.92188C34.8207 1.92188 34.6108 1.71197 34.6108 1.45313C34.6108 1.19428 34.8207 0.984375 35.0796 0.984375C35.3639 0.984375 35.5952 0.753094 35.5952 0.46875C35.5952 0.209906 35.8051 0 36.064 0C36.3228 0 36.5327 0.209906 36.5327 0.46875C36.5327 0.753094 36.764 0.984375 37.0483 0.984375C37.3072 0.984375 37.5171 1.19428 37.5171 1.45313C37.5171 1.71197 37.3072 1.92188 37.0483 1.92188C36.764 1.92188 36.5327 2.15316 36.5327 2.4375C36.5327 2.69634 36.3228 2.90625 36.064 2.90625Z" fill="#FF6C6C"/>
<path d="M41.6173 3.37491C41.4973 3.37491 41.3774 3.32916 41.2858 3.23766C41.1027 3.05456 41.1027 2.75775 41.2858 2.57475L42.2233 1.63725C42.4064 1.45425 42.7031 1.45425 42.8862 1.63725C43.0693 1.82034 43.0693 2.11716 42.8862 2.30016L41.9487 3.23766C41.8572 3.32916 41.7373 3.37491 41.6173 3.37491Z" fill="#6C6CFF"/>
<path d="M19.7957 43.123C19.6757 43.123 19.5558 43.0772 19.4642 42.9857C19.2811 42.8026 19.2811 42.5058 19.4642 42.3228L20.4017 41.3853C20.5848 41.2023 20.8815 41.2023 21.0646 41.3853C21.2477 41.5684 21.2477 41.8652 21.0646 42.0482L20.1271 42.9857C20.0356 43.0771 19.9157 43.123 19.7957 43.123Z" fill="#6C6CFF"/>
<defs>
<linearGradient id="paint0_linear_139_1927" x1="4.21481" y1="35.9987" x2="38.9672" y2="1.24638" gradientUnits="userSpaceOnUse">
<stop stop-color="white" stop-opacity="0"/>
<stop offset="0.2617" stop-color="#EDEDFF" stop-opacity="0.416"/>
<stop offset="0.629" stop-color="#D8D8FF"/>
</linearGradient>
</defs>
</svg>
