<svg width="48" height="44" viewBox="0 0 48 44" fill="none" xmlns="http://www.w3.org/2000/svg">
<path d="M44.2009 8.97764C38.068 4.26268 32.1196 8.10521 25.4846 6.74668C18.8017 5.37821 16.1392 0.821582 8.5275 2.92486C1.78481 4.78805 -2.30644 12.2579 1.40025 18.5116C2.45653 20.2937 4.25597 21.6382 4.99134 23.6322C6.17756 26.8488 4.37194 29.3184 4.72416 32.4795C6.18778 45.614 26.2467 40.5265 33.6276 36.44C45.2029 30.0313 53.0336 15.7684 44.2009 8.97764Z" fill="url(#paint0_linear_139_2076)"/>
<path opacity="0.1" d="M44.8375 21.9815C44.8375 21.2727 44.3602 20.6767 43.7099 20.4937V16.1425C43.7099 15.3671 43.0791 14.7362 42.3037 14.7362H38.7203C38.5499 12.9183 37.4 11.3858 35.8034 10.6707C35.4113 6.21415 31.6698 2.71887 27.1114 2.71887C24.1808 2.71887 21.5878 4.16356 20.0052 6.37953C17.3721 6.45762 15.1098 8.01115 14.0162 10.2419C11.5034 10.321 9.46157 12.2651 9.2301 14.7363H5.64697C4.87157 14.7363 4.24072 15.3672 4.24072 16.1426V20.5075C3.61569 20.7061 3.1626 21.2907 3.1626 21.9816C3.1626 22.6724 3.61569 23.2571 4.24072 23.4557V27.8206C4.24072 28.596 4.87157 29.2269 5.64697 29.2269H8.88163V31.1806C8.88163 31.4272 9.07288 31.6316 9.3185 31.6484L12.2988 31.8481C12.5857 32.975 13.0319 34.0381 13.6113 35.0131L11.6444 37.2622C11.4823 37.4487 11.4916 37.7281 11.666 37.9025L14.9388 41.1753C15.1132 41.3506 15.3935 41.36 15.5791 41.1969L17.8291 39.23C18.8032 39.8094 19.8663 40.2556 20.9932 40.5425L21.1929 43.5228C21.2098 43.7684 21.4141 43.9597 21.6607 43.9597H26.2901C26.5366 43.9597 26.741 43.7684 26.7579 43.5228L26.9576 40.5425C28.0844 40.2556 29.1476 39.8094 30.1216 39.23L32.3716 41.1969C32.5573 41.36 32.8376 41.3506 33.0119 41.1753L36.2848 37.9025C36.4591 37.7281 36.4685 37.4487 36.3063 37.2622L34.3394 35.0131C34.9188 34.0381 35.3651 32.975 35.6519 31.8481L38.6323 31.6484C38.8779 31.6316 39.0691 31.4272 39.0691 31.1806V29.2269H42.3038C43.0792 29.2269 43.71 28.596 43.71 27.8206V23.4694C44.3602 23.2862 44.8375 22.6902 44.8375 21.9815ZM5.64697 28.2893C5.3885 28.2893 5.17822 28.079 5.17822 27.8205V23.4556C5.80325 23.257 6.25635 22.6723 6.25635 21.9815C6.25635 21.2907 5.80325 20.706 5.17822 20.5074V16.1425C5.17822 15.884 5.3885 15.6737 5.64697 15.6737H9.23038C9.39107 17.3901 10.425 18.8517 11.8836 19.6117L11.666 19.8293C11.4916 20.0037 11.4823 20.284 11.6444 20.4696L13.6113 22.7196C13.0319 23.6946 12.5857 24.7577 12.2988 25.8846L9.3185 26.0843C9.07288 26.1002 8.88163 26.3046 8.88163 26.5521V28.2893H5.64697ZM42.3037 28.2893H39.069V26.5521C39.069 26.3046 38.8778 26.1002 38.6322 26.0843L35.6518 25.8846C35.365 24.7577 34.9187 23.6946 34.3393 22.7196L36.3062 20.4696C36.4684 20.284 36.459 20.0037 36.2847 19.8293L36.0671 19.6117C37.5255 18.8517 38.5595 17.3901 38.7202 15.6737H42.3036C42.5621 15.6737 42.7723 15.884 42.7723 16.1425V20.5255C42.1733 20.7387 41.7436 21.3092 41.7436 21.9815C41.7436 22.6538 42.1733 23.2242 42.7723 23.4375V27.8205C42.7724 28.079 42.5622 28.2893 42.3037 28.2893Z" fill="#0000CB"/>
<path d="M35.8035 8.42075C35.4114 3.96415 31.6699 0.468872 27.1115 0.468872C24.1809 0.468872 21.5878 1.91356 20.0052 4.12953C17.3722 4.20762 15.1099 5.76115 14.0163 7.99193C11.3466 8.07584 9.20776 10.265 9.20776 12.9551C9.20776 15.6984 11.4316 17.9222 14.1749 17.9222H33.7759C36.5192 17.9222 38.743 15.6984 38.743 12.9551C38.743 10.9342 37.5356 9.19653 35.8035 8.42075Z" fill="#D8D8FF"/>
<path d="M14.1749 16.0471C12.4699 16.0471 11.0828 14.66 11.0828 12.955C11.0828 11.2755 12.3972 9.91868 14.0753 9.8659L15.2032 9.83047L15.6999 8.81722C16.5235 7.13712 18.1945 6.059 20.0608 6.00368L20.9905 5.97612L21.5311 5.21918C22.817 3.41872 24.9031 2.34387 27.1115 2.34387C28.8355 2.34387 30.4827 2.98643 31.7499 4.15297C33.01 5.31312 33.7863 6.88718 33.9357 8.58509L34.0322 9.68197L35.0371 10.132C36.1494 10.6301 36.868 11.7382 36.868 12.955C36.868 14.66 35.4809 16.0471 33.7759 16.0471H14.1749Z" fill="#B2B2FF"/>
<path d="M32.2527 10.5778H30.8484C30.5895 10.5778 30.3796 10.3679 30.3796 10.109C30.3796 9.85017 30.5895 9.64026 30.8484 9.64026H32.2527C32.5115 9.64026 32.7214 9.85017 32.7214 10.109C32.7214 10.3679 32.5116 10.5778 32.2527 10.5778Z" fill="white"/>
<path d="M32.2526 12.2477H29.4175C29.1586 12.2477 28.9487 12.0378 28.9487 11.7789C28.9487 11.5201 29.1586 11.3102 29.4175 11.3102H32.2526C32.5114 11.3102 32.7213 11.5201 32.7213 11.7789C32.7213 12.0378 32.5115 12.2477 32.2526 12.2477Z" fill="white"/>
<path d="M38.6322 23.8343L35.6519 23.6346C35.365 22.5077 34.9188 21.4446 34.3394 20.4696L36.3063 18.2196C36.4685 18.034 36.4591 17.7537 36.2847 17.5793L33.0119 14.3065C32.8375 14.1321 32.5572 14.1227 32.3716 14.2849L30.1216 16.2527C29.1475 15.6733 28.0844 15.2271 26.9575 14.9402L26.7578 11.9599C26.741 11.7133 26.5366 11.5221 26.29 11.5221H21.6607C21.4141 11.5221 21.2097 11.7133 21.1928 11.9599L20.9932 14.9402C19.8663 15.2271 18.8032 15.6733 17.8291 16.2527L15.5791 14.2849C15.3935 14.1227 15.1132 14.1321 14.9388 14.3065L11.666 17.5793C11.4916 17.7537 11.4822 18.034 11.6444 18.2196L13.6113 20.4696C13.0319 21.4446 12.5857 22.5077 12.2988 23.6346L9.31847 23.8343C9.07284 23.8502 8.88159 24.0546 8.88159 24.3021V28.9305C8.88159 29.1771 9.07284 29.3815 9.31847 29.3983L12.2988 29.598C12.5857 30.7249 13.0319 31.788 13.6113 32.763L11.6444 35.0121C11.4822 35.1987 11.4916 35.478 11.666 35.6524L14.9388 38.9252C15.1132 39.1005 15.3935 39.1099 15.5791 38.9468L17.8291 36.9799C18.8032 37.5593 19.8663 38.0055 20.9932 38.2924L21.1928 41.2727C21.2097 41.5183 21.4141 41.7096 21.6607 41.7096H26.29C26.5366 41.7096 26.741 41.5183 26.7578 41.2727L26.9575 38.2924C28.0844 38.0055 29.1475 37.5593 30.1216 36.9799L32.3716 38.9468C32.5572 39.1099 32.8375 39.1005 33.0119 38.9252L36.2847 35.6524C36.4591 35.478 36.4685 35.1987 36.3063 35.0121L34.3394 32.763C34.9188 31.788 35.365 30.7249 35.6519 29.598L38.6322 29.3983C38.8778 29.3815 39.0691 29.1771 39.0691 28.9305V24.3021C39.0691 24.0546 38.8778 23.8502 38.6322 23.8343Z" fill="#FFC498"/>
<path d="M22.5372 40.3033L22.3281 37.1812L21.34 36.9296C20.3602 36.6801 19.4208 36.2904 18.5479 35.7712L17.6713 35.2499L15.3134 37.3112L13.2802 35.2778L15.3411 32.9212L14.8202 32.0447C14.3006 31.1705 13.9109 30.2305 13.6616 29.2511L13.4101 28.2631L10.2878 28.0539V25.1788L13.4101 24.9697L13.6616 23.9816C13.9109 23.0022 14.3007 22.0624 14.8202 21.1881L15.341 20.3117L13.28 17.9542L15.3132 15.9209L17.6711 17.983L18.5479 17.4616C19.4208 16.9424 20.3602 16.5527 21.34 16.3032L22.3281 16.0517L22.5373 12.9286H25.4134L25.6226 16.0517L26.6107 16.3032C27.5904 16.5527 28.5299 16.9424 29.4028 17.4616L30.2796 17.983L32.6375 15.9209L34.6707 17.9542L32.6097 20.3117L33.1305 21.1881C33.6501 22.0624 34.0398 23.0022 34.2891 23.9816L34.5406 24.9697L37.6628 25.1788V28.0539L34.5406 28.2631L34.2891 29.2511C34.0398 30.2305 33.65 31.1705 33.1305 32.0447L32.6096 32.9212L34.6705 35.2778L32.6373 37.3112L30.2794 35.2499L29.4028 35.7712C28.5299 36.2904 27.5905 36.6801 26.6107 36.9296L25.6226 37.1812L25.4135 40.3033H22.5372Z" fill="#FFAA66"/>
<path d="M23.9754 18.8069C19.6627 18.8069 16.1665 22.303 16.1665 26.6158C16.1665 30.9286 19.6626 34.4247 23.9754 34.4247C28.2882 34.4247 31.7843 30.9286 31.7843 26.6158C31.7843 22.303 28.2881 18.8069 23.9754 18.8069Z" fill="#FF6C6C"/>
<path d="M23.9808 14.788H23.97C23.7111 14.788 23.5012 14.5781 23.5012 14.3192C23.5012 14.0604 23.7111 13.8505 23.97 13.8505H23.9808C24.2396 13.8505 24.4495 14.0604 24.4495 14.3192C24.4495 14.5781 24.2396 14.788 23.9808 14.788Z" fill="#FF6C6C"/>
<path d="M23.9808 16.2574H23.97C23.7111 16.2574 23.5012 16.0475 23.5012 15.7887C23.5012 15.5299 23.7111 15.3199 23.97 15.3199H23.9808C24.2396 15.3199 24.4495 15.5299 24.4495 15.7887C24.4495 16.0475 24.2396 16.2574 23.9808 16.2574Z" fill="#FF6C6C"/>
<path d="M23.9808 37.9116H23.97C23.7111 37.9116 23.5012 37.7017 23.5012 37.4429C23.5012 37.184 23.7111 36.9741 23.97 36.9741H23.9808C24.2396 36.9741 24.4495 37.184 24.4495 37.4429C24.4495 37.7017 24.2396 37.9116 23.9808 37.9116Z" fill="#FF6C6C"/>
<path d="M23.9808 39.3812H23.97C23.7111 39.3812 23.5012 39.1713 23.5012 38.9125C23.5012 38.6536 23.7111 38.4437 23.97 38.4437H23.9808C24.2396 38.4437 24.4495 38.6536 24.4495 38.9125C24.4495 39.1713 24.2396 39.3812 23.9808 39.3812Z" fill="#FF6C6C"/>
<path d="M32.674 18.3935C32.554 18.3935 32.4341 18.3477 32.3425 18.2562L32.3348 18.2485C32.1517 18.0654 32.1517 17.7686 32.3348 17.5856C32.5179 17.4026 32.8146 17.4026 32.9977 17.5856L33.0054 17.5933C33.1885 17.7764 33.1885 18.0732 33.0054 18.2562C32.9139 18.3476 32.794 18.3935 32.674 18.3935Z" fill="white"/>
<path d="M31.6349 19.4326C31.5153 19.4326 31.3959 19.3872 31.3044 19.2963L31.2967 19.2887C31.1132 19.1063 31.1122 18.8094 31.2948 18.6258C31.4773 18.4422 31.774 18.4414 31.9577 18.6238L31.9653 18.6314C32.1489 18.8138 32.1498 19.1107 31.9673 19.2943C31.8757 19.3864 31.7553 19.4326 31.6349 19.4326Z" fill="white"/>
<path d="M16.3232 34.7443C16.2032 34.7443 16.0833 34.6985 15.9917 34.607L15.984 34.5994C15.8009 34.4163 15.8009 34.1194 15.984 33.9364C16.1671 33.7534 16.4638 33.7534 16.6469 33.9364L16.6546 33.9441C16.8377 34.1272 16.8377 34.424 16.6546 34.607C16.5631 34.6985 16.4432 34.7443 16.3232 34.7443Z" fill="white"/>
<path d="M15.284 35.7834C15.1645 35.7834 15.0451 35.7381 14.9536 35.6471L14.9459 35.6395C14.7623 35.4571 14.7614 35.1603 14.9439 34.9766C15.1265 34.7931 15.4232 34.7922 15.6068 34.9746L15.6145 34.9822C15.7981 35.1647 15.799 35.4615 15.6165 35.6451C15.5249 35.7373 15.4045 35.7834 15.284 35.7834Z" fill="white"/>
<path d="M36.2717 27.0899C36.0129 27.0899 35.803 26.88 35.803 26.6211V26.6104C35.803 26.3515 36.0129 26.1416 36.2717 26.1416C36.5306 26.1416 36.7405 26.3515 36.7405 26.6104V26.6211C36.7405 26.8801 36.5307 27.0899 36.2717 27.0899Z" fill="#FF6C6C"/>
<path d="M34.8022 27.0899C34.5434 27.0899 34.3335 26.88 34.3335 26.6211V26.6104C34.3335 26.3515 34.5434 26.1416 34.8022 26.1416C35.0611 26.1416 35.271 26.3515 35.271 26.6104V26.6211C35.271 26.8801 35.0611 27.0899 34.8022 27.0899Z" fill="#FF6C6C"/>
<path d="M13.1482 27.0899C12.8893 27.0899 12.6794 26.88 12.6794 26.6211V26.6104C12.6794 26.3515 12.8893 26.1416 13.1482 26.1416C13.407 26.1416 13.6169 26.3515 13.6169 26.6104V26.6211C13.6169 26.8801 13.407 27.0899 13.1482 27.0899Z" fill="#FF6C6C"/>
<path d="M11.6787 27.0899C11.4199 27.0899 11.21 26.88 11.21 26.6211V26.6104C11.21 26.3515 11.4199 26.1416 11.6787 26.1416C11.9376 26.1416 12.1475 26.3515 12.1475 26.6104V26.6211C12.1475 26.8801 11.9376 27.0899 11.6787 27.0899Z" fill="#FF6C6C"/>
<path d="M32.6665 35.7834C32.5461 35.7834 32.4257 35.7373 32.3341 35.6451C32.1516 35.4615 32.1524 35.1646 32.3361 34.9822L32.3437 34.9746C32.5273 34.7921 32.8242 34.7929 33.0067 34.9766C33.1892 35.1601 33.1883 35.457 33.0047 35.6395L32.997 35.6471C32.9056 35.738 32.786 35.7834 32.6665 35.7834Z" fill="white"/>
<path d="M31.6273 34.7443C31.5073 34.7443 31.3874 34.6985 31.2958 34.607C31.1127 34.4239 31.1127 34.1271 31.2958 33.9441L31.3035 33.9364C31.4865 33.7534 31.7833 33.7534 31.9664 33.9364C32.1495 34.1195 32.1495 34.4164 31.9664 34.5994L31.9587 34.607C31.8672 34.6985 31.7473 34.7443 31.6273 34.7443Z" fill="white"/>
<path d="M16.3155 19.4325C16.195 19.4325 16.0746 19.3864 15.983 19.2943C15.8005 19.1107 15.8013 18.8138 15.985 18.6314L15.9927 18.6238C16.1762 18.4412 16.4731 18.4421 16.6556 18.6257C16.8381 18.8093 16.8373 19.1062 16.6536 19.2886L16.6459 19.2962C16.5545 19.3871 16.435 19.4325 16.3155 19.4325Z" fill="white"/>
<path d="M15.2764 18.3935C15.1564 18.3935 15.0365 18.3477 14.9449 18.2562C14.7618 18.0731 14.7618 17.7763 14.9449 17.5933L14.9526 17.5856C15.1357 17.4026 15.4324 17.4026 15.6155 17.5856C15.7986 17.7687 15.7986 18.0655 15.6155 18.2485L15.6078 18.2562C15.5163 18.3476 15.3964 18.3935 15.2764 18.3935Z" fill="white"/>
<path d="M43.2905 21.2783C44.1448 21.2783 44.8374 20.5858 44.8374 19.7314C44.8374 18.8771 44.1448 18.1846 43.2905 18.1846C42.4362 18.1846 41.7437 18.8771 41.7437 19.7314C41.7437 20.5858 42.4362 21.2783 43.2905 21.2783Z" fill="#FF6C6C"/>
<path d="M4.70947 21.2783C5.56379 21.2783 6.25635 20.5858 6.25635 19.7314C6.25635 18.8771 5.56379 18.1846 4.70947 18.1846C3.85516 18.1846 3.1626 18.8771 3.1626 19.7314C3.1626 20.5858 3.85516 21.2783 4.70947 21.2783Z" fill="#FF6C6C"/>
<path d="M45.3062 19.7315C45.3062 18.764 44.6207 17.9541 43.71 17.7604V13.892C43.71 13.1166 43.0792 12.4857 42.3038 12.4857H39.1905C39.0289 10.6252 37.9156 8.96447 36.2428 8.11144C35.9867 5.93344 34.9615 3.924 33.3372 2.42859C31.6361 0.8625 29.4251 0 27.1113 0C24.2243 0 21.4935 1.36809 19.7597 3.67134C17.2077 3.8265 14.9319 5.28544 13.7217 7.53919C12.4123 7.647 11.1971 8.21972 10.2745 9.1695C9.39397 10.076 8.86625 11.2396 8.75985 12.4858H5.6466C4.87119 12.4858 4.24035 13.1167 4.24035 13.8921V17.7733C3.35479 17.9856 2.69385 18.7819 2.69385 19.7316C2.69385 20.6812 3.35488 21.4776 4.24035 21.6898V25.5704C4.24035 26.3458 4.87119 26.9767 5.6466 26.9767H8.41269V28.9302C8.41269 29.4219 8.79697 29.8327 9.28747 29.8657L11.9338 30.043C12.1969 30.9691 12.5673 31.8622 13.0382 32.7061L11.2915 34.7038C10.9678 35.0739 10.9867 35.6362 11.3343 35.9838L14.6074 39.257C14.9551 39.6047 15.5174 39.6233 15.8874 39.2998L17.8851 37.5531C18.7289 38.024 19.6219 38.3944 20.5482 38.6575L20.7255 41.3038C20.7584 41.7943 21.1693 42.1786 21.661 42.1786H26.2899C26.7816 42.1786 27.1924 41.7943 27.2253 41.3038L27.4027 38.6575C28.3289 38.3943 29.2219 38.024 30.0657 37.5531L32.0634 39.2997C32.4335 39.6235 32.9957 39.6045 33.3434 39.2569L36.6165 35.9838C36.9642 35.6362 36.983 35.0738 36.6594 34.7037L34.9126 32.706C35.3835 31.8622 35.7539 30.9693 36.0171 30.043L38.6633 29.8657C39.1538 29.8328 39.5382 29.4219 39.5382 28.9302V26.9767H42.304C43.0794 26.9767 43.7102 26.3458 43.7102 25.5704V21.7025C44.6207 21.5089 45.3062 20.699 45.3062 19.7315ZM3.63135 19.7315C3.63135 19.1376 4.11407 18.6544 4.70769 18.6534C4.70816 18.6534 4.70863 18.6535 4.7091 18.6535C4.70966 18.6535 4.71013 18.6533 4.71069 18.6533C5.3046 18.654 5.7876 19.1374 5.7876 19.7314C5.7876 20.3258 5.30394 20.8095 4.70947 20.8095C4.115 20.8095 3.63135 20.3259 3.63135 19.7315ZM5.6466 26.0392C5.38813 26.0392 5.17785 25.8289 5.17785 25.5704V21.6899C6.06369 21.4779 6.7251 20.6813 6.7251 19.7315C6.7251 18.7816 6.06369 17.985 5.17785 17.773V13.892C5.17785 13.6335 5.38813 13.4232 5.6466 13.4232H8.75985C8.82979 14.232 9.07944 15.0173 9.49363 15.7177C9.62525 15.9404 9.91279 16.0143 10.1357 15.8826C10.3586 15.7508 10.4324 15.4633 10.3006 15.2405C9.89225 14.5499 9.67644 13.7595 9.67644 12.9549C9.67644 10.5113 11.5892 8.53706 14.031 8.46037C14.2046 8.45494 14.3608 8.35406 14.4373 8.19816C15.4912 6.04828 17.63 4.66884 20.0191 4.59806C20.1656 4.59375 20.3016 4.52119 20.3867 4.40194C21.9359 2.23266 24.4498 0.937594 27.1115 0.937594C31.3524 0.937594 34.9653 4.24266 35.3366 8.46187C35.3515 8.63119 35.4568 8.77912 35.6119 8.84859C37.2293 9.573 38.2743 11.1848 38.2743 12.955C38.2743 14.5124 37.4623 15.9584 36.1453 16.7768L33.3433 13.9748C32.9957 13.6272 32.4335 13.6085 32.0634 13.932L30.0657 15.6788C29.2219 15.2078 28.3289 14.8374 27.4027 14.5743L27.2253 11.9281C27.1925 11.4375 26.7816 11.0532 26.2899 11.0532H21.661C21.1693 11.0532 20.7584 11.4375 20.7255 11.9281L20.5482 14.5743C19.622 14.8375 18.7289 15.2078 17.8851 15.6788L15.8874 13.932C15.5173 13.6085 14.9551 13.6272 14.6074 13.9748L11.3343 17.248C10.9867 17.5957 10.9678 18.158 11.2915 18.528L13.0382 20.5257C12.5674 21.3695 12.1969 22.2625 11.9338 23.1888L9.28747 23.3662C8.79697 23.3991 8.41269 23.81 8.41269 24.3016V26.0392H5.6466ZM42.3038 26.0392H39.538V24.3013C39.538 23.8097 39.1537 23.3989 38.6632 23.3659L35.6828 23.1662C35.4249 23.1486 35.201 23.3443 35.1838 23.6025C35.1664 23.8608 35.3618 24.0843 35.6201 24.1015L38.6005 24.3012V28.9301L35.6201 29.1299C35.4178 29.1435 35.2471 29.2855 35.1972 29.4819C34.9255 30.5488 34.5012 31.5719 33.936 32.5228C33.8324 32.6971 33.8526 32.9182 33.9861 33.0709L35.9533 35.3208L32.6803 38.5939L30.4303 36.6266C30.2778 36.4931 30.0566 36.473 29.8823 36.5766C28.9315 37.1417 27.9084 37.566 26.8414 37.8377C26.645 37.8877 26.503 38.0584 26.4894 38.2606L26.2896 41.241H21.6607L21.461 38.2606C21.4474 38.0584 21.3054 37.8877 21.109 37.8377C20.0421 37.566 19.019 37.1417 18.0681 36.5766C17.8937 36.473 17.6727 36.4931 17.52 36.6266L15.2701 38.5939L11.997 35.3207L13.9643 33.0708C14.0977 32.9182 14.1179 32.697 14.0143 32.5227C13.4491 31.5718 13.0249 30.5487 12.7533 29.4818C12.7033 29.2853 12.5326 29.1433 12.3304 29.1298L9.35 28.9301V24.3012L12.3304 24.1015C12.5326 24.0879 12.7033 23.9459 12.7533 23.7495C13.025 22.6825 13.4493 21.6594 14.0144 20.7086C14.118 20.5343 14.0979 20.3132 13.9644 20.1606L11.9971 17.9107L15.2702 14.6375L17.5201 16.6047C17.6728 16.7381 17.8938 16.7584 18.0682 16.6548C19.0191 16.0897 20.0422 15.6653 21.1091 15.3937C21.3055 15.3437 21.4475 15.173 21.4611 14.9708L21.6609 11.9903H26.2898L26.4896 14.9707C26.5032 15.1729 26.6452 15.3436 26.8416 15.3936C27.9085 15.6652 28.9316 16.0896 29.8825 16.6547C30.0567 16.7584 30.278 16.7381 30.4305 16.6046L32.6804 14.6374L35.9535 17.9106L33.9863 20.1605C33.8529 20.313 33.8326 20.5342 33.9362 20.7084C34.0168 20.8442 34.0957 20.9832 34.1705 21.1216C34.2935 21.3493 34.5778 21.4342 34.8057 21.3112C35.0335 21.1882 35.1183 20.9037 34.9952 20.676C34.9681 20.6258 34.9406 20.5756 34.9125 20.5254L36.6593 18.5277C36.9176 18.2323 36.957 17.8147 36.7859 17.4813C38.1618 16.5646 39.0482 15.0665 39.1908 13.423H42.3039C42.5623 13.423 42.7726 13.6333 42.7726 13.8918V17.7856C41.9119 18.0151 41.2751 18.7992 41.2751 19.7313C41.2751 20.6633 41.9119 21.4474 42.7726 21.677V25.5704C42.7725 25.8289 42.5623 26.0392 42.3038 26.0392ZM43.2906 20.8096C42.6961 20.8096 42.2125 20.3259 42.2125 19.7315C42.2125 19.137 42.6961 18.6533 43.2906 18.6533C43.8851 18.6533 44.3687 19.137 44.3687 19.7315C44.3687 20.3259 43.8851 20.8096 43.2906 20.8096Z" fill="#0000CB"/>
<path d="M30.0037 26.6213C30.0037 28.081 29.4853 29.4198 28.6218 30.4623H19.3284C18.465 29.4198 17.9465 28.081 17.9465 26.6213L23.9447 26.1526L30.0037 26.6213Z" fill="#8282FF"/>
<path d="M26.3727 26.6213C26.3727 28.081 26.1665 29.4198 25.8234 30.4623H22.1277C21.7846 29.4198 21.5784 28.081 21.5784 26.6213C21.5784 26.5257 21.5793 26.431 21.5812 26.3373L23.9446 26.1526L26.3699 26.3401C26.3718 26.4338 26.3727 26.5267 26.3727 26.6213Z" fill="#6C6CFF"/>
<path d="M30.0037 26.6213H26.3728L24 26.1526L21.5784 26.6213H17.9465C17.9465 25.1626 18.4659 23.8238 19.3284 22.7804H28.6218C29.4843 23.8238 30.0037 25.1626 30.0037 26.6213Z" fill="#9393FF"/>
<path d="M26.3727 26.6213H21.5784C21.5784 25.1626 21.7846 23.8238 22.1277 22.7804H25.8234C26.1665 23.8238 26.3727 25.1626 26.3727 26.6213Z" fill="#8282FF"/>
<path d="M26.1662 29.072C27.1302 29.3664 27.9734 29.8494 28.6215 30.4628C27.5156 31.7989 25.8451 32.6495 23.9752 32.6495C22.1064 32.6495 20.4348 31.7989 19.3289 30.4628C19.9776 29.8494 20.8206 29.3665 21.7842 29.0721L26.1662 29.072Z" fill="#6C6CFF"/>
<path d="M26.1662 24.171C27.1302 23.8767 27.9734 23.3937 28.6215 22.7802C27.5167 21.4441 25.8451 20.5924 23.9752 20.5924C22.1053 20.5924 20.4348 21.444 19.3289 22.7802C19.9776 23.3937 20.8206 23.8766 21.7842 24.1709L26.1662 24.171Z" fill="#8282FF"/>
<path d="M21.7842 29.0718C22.4638 28.8646 23.2025 28.7506 23.9753 28.7506C24.7481 28.7506 25.488 28.8646 26.1664 29.0718C25.7926 31.1796 24.952 32.6495 23.9753 32.6495C22.9986 32.6495 22.158 31.1796 21.7842 29.0718Z" fill="#4D4DFF"/>
<path d="M21.7842 24.1712C22.158 22.0623 22.9986 20.5925 23.9753 20.5925C24.9519 20.5925 25.7926 22.0624 26.1664 24.1712C25.488 24.3784 24.7481 24.4924 23.9753 24.4924C23.2025 24.4924 22.4638 24.3783 21.7842 24.1712Z" fill="#6C6CFF"/>
<path d="M7.24072 37.7898C6.98188 37.7898 6.77197 37.5799 6.77197 37.321C6.77197 37.0367 6.54069 36.8054 6.25635 36.8054C5.9975 36.8054 5.7876 36.5955 5.7876 36.3367C5.7876 36.0778 5.9975 35.8679 6.25635 35.8679C6.54069 35.8679 6.77197 35.6366 6.77197 35.3523C6.77197 35.0935 6.98188 34.8835 7.24072 34.8835C7.49957 34.8835 7.70947 35.0935 7.70947 35.3523C7.70947 35.6366 7.94075 35.8679 8.2251 35.8679C8.48394 35.8679 8.69385 36.0778 8.69385 36.3367C8.69385 36.5955 8.48394 36.8054 8.2251 36.8054C7.94075 36.8054 7.70947 37.0367 7.70947 37.321C7.70947 37.5799 7.49957 37.7898 7.24072 37.7898Z" fill="#FF9C33"/>
<path d="M36.8679 2.90686C36.6091 2.90686 36.3992 2.69695 36.3992 2.43811C36.3992 2.15377 36.1679 1.92249 35.8835 1.92249C35.6247 1.92249 35.4148 1.71258 35.4148 1.45374C35.4148 1.19489 35.6247 0.984985 35.8835 0.984985C36.1679 0.984985 36.3992 0.753704 36.3992 0.46936C36.3992 0.210517 36.6091 0.000610352 36.8679 0.000610352C37.1268 0.000610352 37.3367 0.210517 37.3367 0.46936C37.3367 0.753704 37.568 0.984985 37.8523 0.984985C38.1111 0.984985 38.321 1.19489 38.321 1.45374C38.321 1.71258 38.1111 1.92249 37.8523 1.92249C37.568 1.92249 37.3367 2.15377 37.3367 2.43811C37.3367 2.69695 37.1269 2.90686 36.8679 2.90686Z" fill="#FF6C6C"/>
<path d="M40.5806 37.8805C40.3217 37.8805 40.1118 37.6706 40.1118 37.4117C40.1118 37.1274 39.8805 36.8961 39.5962 36.8961C39.3373 36.8961 39.1274 36.6862 39.1274 36.4274C39.1274 36.1685 39.3373 35.9586 39.5962 35.9586C39.8805 35.9586 40.1118 35.7273 40.1118 35.443C40.1118 35.1841 40.3217 34.9742 40.5806 34.9742C40.8394 34.9742 41.0493 35.1841 41.0493 35.443C41.0493 35.7273 41.2806 35.9586 41.5649 35.9586C41.8238 35.9586 42.0337 36.1685 42.0337 36.4274C42.0337 36.6862 41.8238 36.8961 41.5649 36.8961C41.2806 36.8961 41.0493 37.1274 41.0493 37.4117C41.0493 37.6706 40.8395 37.8805 40.5806 37.8805Z" fill="#6C6CFF"/>
<path d="M40.5804 4.75552C40.4604 4.75552 40.3405 4.70977 40.2489 4.61827C40.0658 4.43518 40.0658 4.13837 40.2489 3.95537L41.1864 3.01787C41.3695 2.83487 41.6662 2.83487 41.8493 3.01787C42.0324 3.20096 42.0324 3.49777 41.8493 3.68077L40.9118 4.61827C40.8203 4.70977 40.7004 4.75552 40.5804 4.75552Z" fill="#6C6CFF"/>
<path d="M7.94392 7.37344C7.82392 7.37344 7.70401 7.32769 7.61242 7.23619C7.42932 7.0531 7.42932 6.75629 7.61242 6.57329L8.54992 5.63579C8.73301 5.45279 9.02973 5.45279 9.21282 5.63579C9.39592 5.81888 9.39592 6.11569 9.21282 6.29869L8.27532 7.23619C8.18382 7.32769 8.06392 7.37344 7.94392 7.37344Z" fill="#6C6CFF"/>
<defs>
<linearGradient id="paint0_linear_139_2076" x1="-1.75566" y1="42.2886" x2="27.8412" y2="12.6917" gradientUnits="userSpaceOnUse">
<stop stop-color="#FFD8D8" stop-opacity="0"/>
<stop offset="0.9981" stop-color="#FFB2B2"/>
</linearGradient>
</defs>
</svg>
