<svg width="43" height="48" viewBox="0 0 43 48" fill="none" xmlns="http://www.w3.org/2000/svg">
<path d="M42.759 14.0019C42.124 4.97614 29.7314 -3.12245 22.0707 1.1952C16.8285 4.14973 13.2452 4.60058 7.38648 6.06945C-1.44702 8.28401 -2.78914 19.3084 5.7137 22.3208C10.5834 24.0461 19.4305 21.8932 21.3817 27.2592C22.992 31.6876 18.9127 36.0585 22.5042 41.9846C27.1269 49.6118 34.9623 48.9834 37.3922 45.6046C39.4934 42.6829 36.6395 37.6183 36.0751 34.5567C34.6945 27.0668 42.9793 21.3512 42.759 14.0019Z" fill="url(#paint0_linear_139_1843)"/>
<path opacity="0.1" d="M25.484 35.1103C25.0827 35.401 24.8087 35.8352 24.7192 36.3226L23.4461 43.252C23.3932 43.54 23.6143 43.8055 23.9072 43.8055H40.5657C40.8627 43.8055 41.0848 43.5329 41.0248 43.242L39.3402 35.0806C39.2592 34.688 38.9999 34.3554 38.6389 34.1811L33.9212 31.9027L37.3768 28.7728C37.6226 28.5502 37.5339 28.1447 37.2175 28.045L31.3117 26.1851C31.3847 25.8608 31.4244 25.5243 31.4244 25.1783C31.4244 23.69 30.7114 22.3654 29.6096 21.5267C32.1848 20.6017 34.124 19.6113 35.1429 19.0452C35.466 18.8658 35.4273 18.3897 35.0793 18.2653L29.3195 16.2068L26.1676 7.18256C25.9268 6.49321 25.2764 6.03149 24.5462 6.03149H18.2174C17.4872 6.03149 16.8368 6.49321 16.5961 7.18265L16.2308 8.22843C15.2892 7.34643 14.0173 6.81262 12.6199 6.83587C9.79853 6.88274 7.51646 9.23521 7.55162 12.0569C7.58078 14.3999 9.17322 16.3652 11.3337 16.9612L7.68428 18.2654C7.33628 18.3898 7.29765 18.8659 7.62071 19.0453C8.63968 19.6113 10.5788 20.6018 13.154 21.5268C12.0522 22.3655 11.3392 23.6901 11.3392 25.1784C11.3392 25.5244 11.379 25.861 11.4519 26.1852L5.54612 28.0451C5.22971 28.1448 5.14103 28.5502 5.38684 28.7729L8.84237 31.9027L4.12468 34.1812C3.76365 34.3555 3.50443 34.6881 3.42343 35.0807L1.73884 43.242C1.67884 43.5328 1.90093 43.8055 2.19793 43.8055H18.8565C19.1492 43.8055 19.3704 43.54 19.3175 43.252L18.0444 36.3226C17.9549 35.8352 17.6809 35.401 17.2796 35.1103L14.7869 33.3047L13.6344 29.1497C14.3095 29.5409 15.0922 29.7662 15.927 29.7662C18.3287 29.7662 20.304 27.9106 20.4977 25.5579C20.5502 25.4323 20.7619 25.0448 21.3819 25.0448C21.977 25.0448 22.1956 25.3944 22.2664 25.5635C22.4627 27.9135 24.4368 29.7662 26.8367 29.7662C27.6715 29.7662 28.4542 29.541 29.1293 29.1497L27.9768 33.3047L25.484 35.1103ZM15.927 28.0487C14.3443 28.0487 13.0567 26.7611 13.0567 25.1784C13.0567 23.698 14.1833 22.4761 15.6241 22.3242C16.2501 22.504 16.9007 22.6744 17.5744 22.8301C18.3132 23.3499 18.7973 24.2084 18.7973 25.1783C18.7972 26.7611 17.5096 28.0487 15.927 28.0487ZM26.8366 28.0487C25.254 28.0487 23.9664 26.7611 23.9664 25.1784C23.9664 24.2085 24.4505 23.35 25.1892 22.8302C25.8631 22.6745 26.5135 22.5041 27.1396 22.3243C28.5803 22.4762 29.7069 23.6981 29.7069 25.1785C29.707 26.7611 28.4193 28.0487 26.8366 28.0487Z" fill="#0000CB"/>
<path d="M11.0809 28.5715L4.12475 31.9312C3.76372 32.1055 3.5045 32.438 3.4235 32.8307L1.62256 41.5555H7.9984L8.46715 41.0868L8.9359 41.5555H19.4191L11.0809 28.5715Z" fill="#FFAA66"/>
<path d="M7.22217 30.4352L10.6848 33.5716L8.30311 34.9295C8.03273 35.0837 8.01107 35.4654 8.26232 35.6492L16.3415 41.5557H19.4191L11.0809 28.5718L7.22217 30.4352Z" fill="#FF9C33"/>
<path d="M31.6827 28.5715L38.6389 31.9312C38.9999 32.1055 39.2591 32.438 39.3401 32.8307L41.141 41.5555H34.7652L34.2965 41.0868L33.8277 41.5555H23.3445L31.6827 28.5715Z" fill="#FFAA66"/>
<path d="M34.4605 34.9295L32.0788 33.5715L35.5415 30.4352L31.6827 28.5715L23.3445 41.5554H26.4221L34.5013 35.6489C34.7525 35.4653 34.731 35.0837 34.4605 34.9295Z" fill="#FF9C33"/>
<path d="M30.0607 23.5413L27.9766 31.0547L25.4839 32.8603C25.0826 33.151 24.8086 33.5852 24.7191 34.0726L23.3442 41.5555L34.5011 33.399C34.7523 33.2152 34.7307 32.8336 34.4603 32.6794L32.0786 31.3214L37.3765 26.5228C37.6223 26.3001 37.5336 25.8947 37.2172 25.795L30.0607 23.5413Z" fill="#FFC498"/>
<path d="M31.2471 23.9149L30.0612 23.5417L28.4121 29.4874C30.168 28.8433 31.4243 27.1549 31.4243 25.1786C31.4243 24.7408 31.3624 24.3161 31.2471 23.9149Z" fill="#FFAA66"/>
<path d="M12.7029 23.5413L14.7869 31.0547L17.2797 32.8603C17.681 33.151 17.9549 33.5852 18.0445 34.0726L19.4193 41.5555L8.2625 33.399C8.01125 33.2152 8.03282 32.8336 8.30329 32.6794L10.685 31.3214L5.38691 26.5229C5.1411 26.3002 5.22979 25.8948 5.54619 25.7951L12.7029 23.5413Z" fill="#FFC498"/>
<path d="M12.7025 23.5417L11.5165 23.9149C11.4012 24.3161 11.3394 24.7408 11.3394 25.1786C11.3394 27.1549 12.5956 28.8433 14.3515 29.4874L12.7025 23.5417Z" fill="#FFAA66"/>
<path d="M23.9345 22.8841C23.7595 22.2591 23.0007 21.0771 21.3818 21.0771C19.7629 21.0771 19.0041 22.2591 18.8291 22.8841L20.4828 23.3473C20.4844 23.3418 20.6461 22.7946 21.3818 22.7946C22.0459 22.7946 22.2417 23.2308 22.2859 23.3645L22.2808 23.3473L23.9345 22.8841Z" fill="#2C27FF"/>
<path d="M15.9269 20.0581C14.3442 20.0581 13.0566 21.3457 13.0566 22.9284C13.0566 24.511 14.3443 25.7986 15.9269 25.7986C17.5095 25.7986 18.7971 24.511 18.7971 22.9284C18.7971 21.3457 17.5095 20.0581 15.9269 20.0581Z" fill="#B2B2FF"/>
<path d="M15.9266 20.0579C14.8203 20.0579 13.8585 20.6869 13.3794 21.6066C14.9713 22.1682 16.7966 22.6997 18.7925 23.0907C18.7953 23.0372 18.7972 22.9829 18.7972 22.9285C18.7972 21.346 17.51 20.0579 15.9266 20.0579Z" fill="#9393FF"/>
<path d="M26.8368 20.0581C25.2541 20.0581 23.9666 21.3457 23.9666 22.9284C23.9666 24.511 25.2542 25.7986 26.8368 25.7986C28.4195 25.7986 29.7071 24.511 29.7071 22.9284C29.7071 21.3457 28.4195 20.0581 26.8368 20.0581Z" fill="#B2B2FF"/>
<path d="M26.8372 20.0579C25.2537 20.0579 23.9666 21.346 23.9666 22.9285C23.9666 22.9829 23.9684 23.0372 23.9712 23.0907C25.9672 22.6997 27.7925 22.1682 29.3844 21.6066C28.9053 20.6869 27.9434 20.0579 26.8372 20.0579Z" fill="#9393FF"/>
<path d="M15.927 27.5161C13.3974 27.5161 11.3394 25.4581 11.3394 22.9285C11.3394 20.3988 13.3974 18.3408 15.927 18.3408C18.4567 18.3408 20.5147 20.3988 20.5147 22.9285C20.5147 25.4581 18.4567 27.5161 15.927 27.5161ZM15.927 20.0581C14.3443 20.0581 13.0568 21.3457 13.0568 22.9284C13.0568 24.5111 14.3444 25.7986 15.927 25.7986C17.5096 25.7986 18.7973 24.5111 18.7973 22.9284C18.7973 21.3457 17.5096 20.0581 15.927 20.0581Z" fill="#6C6CFF"/>
<path d="M15.9265 18.3403C14.0852 18.3403 12.4943 19.4306 11.7649 21C12.2711 21.2025 12.8102 21.4069 13.3793 21.6066C13.8583 20.6869 14.8202 20.0578 15.9265 20.0578C17.5099 20.0578 18.7971 21.346 18.7971 22.9285C18.7971 22.9828 18.7952 23.0372 18.7924 23.0906C19.3465 23.1994 19.9136 23.2969 20.493 23.3803C20.5071 23.2313 20.5146 23.0813 20.5146 22.9285C20.5146 20.3991 18.4568 18.3403 15.9265 18.3403Z" fill="#4D4DFF"/>
<path d="M26.8367 27.5161C24.307 27.5161 22.249 25.4581 22.249 22.9285C22.249 20.3988 24.307 18.3408 26.8367 18.3408C29.3663 18.3408 31.4243 20.3988 31.4243 22.9285C31.4243 25.4581 29.3663 27.5161 26.8367 27.5161ZM26.8367 20.0581C25.254 20.0581 23.9664 21.3457 23.9664 22.9284C23.9664 24.5111 25.2541 25.7986 26.8367 25.7986C28.4194 25.7986 29.7069 24.5111 29.7069 22.9284C29.7069 21.3457 28.4194 20.0581 26.8367 20.0581Z" fill="#6C6CFF"/>
<path d="M26.8371 18.3403C24.3068 18.3403 22.249 20.3991 22.249 22.9285C22.249 23.0813 22.2565 23.2313 22.2706 23.3803C22.85 23.2969 23.4171 23.1994 23.9712 23.0906C23.9684 23.0372 23.9665 22.9828 23.9665 22.9285C23.9665 21.346 25.2537 20.0578 26.8371 20.0578C27.9434 20.0578 28.9053 20.6869 29.3843 21.6066C29.9534 21.4069 30.4925 21.2025 30.9987 21C30.2693 19.4306 28.6784 18.3403 26.8371 18.3403Z" fill="#4D4DFF"/>
<path d="M29.3195 13.957H13.4441L7.6843 16.0155C7.3363 16.1399 7.29767 16.616 7.62074 16.7954C9.50821 17.8438 14.5487 20.3493 20.9525 21.1951C21.2375 21.2328 21.5263 21.2328 21.8113 21.1951C28.2151 20.3493 33.2556 17.8438 35.143 16.7954C35.4661 16.616 35.4275 16.1399 35.0795 16.0155L29.3195 13.957Z" fill="#FFAA66"/>
<path d="M13.4441 13.957L8.98022 15.5524C9.91904 16.5348 11.2413 17.1478 12.7074 17.1478C14.859 17.1478 16.702 15.8296 17.4749 13.957H13.4441Z" fill="#FF9C33"/>
<path d="M31.4796 14.729L30.2149 15.4162C30.0536 15.5044 26.2005 17.5772 21.6039 18.1247L21.3817 18.1519L21.1596 18.1247C16.563 17.5772 12.7099 15.5044 12.5486 15.4162L11.2839 14.729L13.4439 13.9565H29.3196L31.4796 14.729Z" fill="#FF9C33"/>
<path d="M24.5462 3.78149H18.2174C17.4872 3.78149 16.8368 4.24321 16.5961 4.93256L13.4441 13.9568C13.4441 13.9568 17.09 15.9392 21.3818 16.4508C25.6736 15.9392 29.3195 13.9568 29.3195 13.9568L26.1676 4.93256C25.9268 4.24331 25.2765 3.78149 24.5462 3.78149Z" fill="#FFC498"/>
<path d="M17.8637 11.9913C17.8637 10.2234 16.9734 8.66374 15.6173 7.73486L13.4441 13.9569C13.4441 13.9569 14.7169 14.6488 16.6435 15.3206C17.4041 14.4221 17.8637 13.2607 17.8637 11.9913Z" fill="#FFAA66"/>
<path d="M29.3199 13.9566C29.3199 13.9566 25.6739 15.9393 21.382 16.4511C17.0902 15.9393 13.4441 13.9566 13.4441 13.9566L14.0357 12.2615C15.2362 12.8342 18.1232 14.0699 21.382 14.4589C24.6407 14.0699 27.5278 12.8342 28.7282 12.2615L29.3199 13.9566Z" fill="#FF6C6C"/>
<path d="M17.593 13.6395C16.0082 13.1542 14.7353 12.5955 14.0357 12.2617L13.4441 13.9568C13.4441 13.9568 14.7169 14.6489 16.6434 15.3208C17.0586 14.8304 17.3833 14.2615 17.593 13.6395Z" fill="#FF4D4D"/>
<path d="M8.46704 37.4062C8.2081 37.4062 7.99829 37.6162 7.99829 37.875V41.5553H8.93579V37.875C8.93579 37.6162 8.72598 37.4062 8.46704 37.4062Z" fill="#FF9C33"/>
<path d="M34.2964 37.4062C34.0374 37.4062 33.8276 37.6162 33.8276 37.875V41.5553H34.7651V37.875C34.7651 37.6162 34.5553 37.4062 34.2964 37.4062Z" fill="#FF9C33"/>
<path d="M16.0359 35.1224C15.777 35.1224 15.5671 34.9124 15.5671 34.6536V34.6428C15.5671 34.384 15.777 34.1741 16.0359 34.1741C16.2948 34.1741 16.5046 34.384 16.5046 34.6428V34.6536C16.5046 34.9124 16.2947 35.1224 16.0359 35.1224Z" fill="white"/>
<path d="M16.4663 36.8999C16.2074 36.8999 15.9976 36.69 15.9976 36.4312V36.4204C15.9976 36.1616 16.2074 35.9517 16.4663 35.9517C16.7252 35.9517 16.9351 36.1616 16.9351 36.4204V36.4312C16.9351 36.69 16.7252 36.8999 16.4663 36.8999Z" fill="white"/>
<path d="M26.728 35.1224C26.4691 35.1224 26.2593 34.9124 26.2593 34.6536V34.6428C26.2593 34.384 26.4691 34.1741 26.728 34.1741C26.987 34.1741 27.1968 34.384 27.1968 34.6428V34.6536C27.1968 34.9124 26.987 35.1224 26.728 35.1224Z" fill="white"/>
<path d="M26.2976 36.8999C26.0387 36.8999 25.8289 36.69 25.8289 36.4312V36.4204C25.8289 36.1616 26.0387 35.9517 26.2976 35.9517C26.5565 35.9517 26.7664 36.1616 26.7664 36.4204V36.4312C26.7664 36.69 26.5565 36.8999 26.2976 36.8999Z" fill="white"/>
<path d="M12.7073 14.8977C15.555 14.8977 17.8635 12.5892 17.8635 9.74145C17.8635 6.89374 15.555 4.58521 12.7073 4.58521C9.85956 4.58521 7.55103 6.89374 7.55103 9.74145C7.55103 12.5892 9.85956 14.8977 12.7073 14.8977Z" fill="#8282FF"/>
<path d="M12.7074 14.8977C13.8398 14.8977 14.7578 12.5892 14.7578 9.74145C14.7578 6.89374 13.8398 4.58521 12.7074 4.58521C11.575 4.58521 10.657 6.89374 10.657 9.74145C10.657 12.5892 11.575 14.8977 12.7074 14.8977Z" fill="#6C6CFF"/>
<path d="M10.6569 9.74145H14.7577H17.8635C17.8635 6.8937 15.555 4.58521 12.7073 4.58521C9.85953 4.58521 7.55103 6.8937 7.55103 9.74145H10.6569Z" fill="#9393FF"/>
<path d="M14.7578 9.74145C14.7578 6.8937 13.8398 4.58521 12.7074 4.58521C11.575 4.58521 10.657 6.8937 10.657 9.74145H14.7578Z" fill="#8282FF"/>
<path d="M8.73315 13.0269C9.67909 12.1325 11.1078 11.5625 12.7072 11.5625C14.3066 11.5625 15.7363 12.1325 16.6813 13.0269C15.7353 14.1697 14.3066 14.8972 12.7072 14.8972C11.1088 14.8972 9.67909 14.1697 8.73315 13.0269Z" fill="#6C6CFF"/>
<path d="M8.73315 6.45597C9.67909 5.31315 11.1078 4.58472 12.7072 4.58472C14.3066 4.58472 15.7363 5.31315 16.6813 6.45597C15.7363 7.35034 14.3066 7.92034 12.7072 7.92034C11.1078 7.92034 9.67909 7.35025 8.73315 6.45597Z" fill="#8282FF"/>
<path d="M10.8333 11.8372C11.4145 11.66 12.0464 11.5625 12.7073 11.5625C13.3683 11.5625 14.0011 11.66 14.5814 11.8372C14.2617 13.64 13.5426 14.8972 12.7073 14.8972C11.872 14.8972 11.1529 13.64 10.8333 11.8372Z" fill="#4D4DFF"/>
<path d="M10.8333 7.64565C11.1529 5.8419 11.872 4.58472 12.7073 4.58472C13.5426 4.58472 14.2617 5.8419 14.5814 7.64565C14.0011 7.82284 13.3683 7.92034 12.7073 7.92034C12.0464 7.92034 11.4145 7.82284 10.8333 7.64565Z" fill="#6C6CFF"/>
<path d="M41.6 41.4608L39.7991 32.7359C39.6893 32.204 39.3318 31.7454 38.8427 31.5091L34.7511 29.533L37.6915 26.87C37.933 26.6507 38.0354 26.3297 37.9653 26.0114C37.8954 25.6936 37.6681 25.4456 37.3579 25.3483L31.8455 23.6121C31.8759 23.3884 31.8931 23.1604 31.8931 22.9285C31.8931 21.6111 31.3923 20.3798 30.4993 19.4462C32.7467 18.5905 34.4438 17.72 35.3718 17.2048C35.6838 17.0307 35.8594 16.7015 35.8301 16.3456C35.8008 15.9902 35.5738 15.6946 35.2374 15.574L29.6884 13.5907L28.3289 9.69864C28.2434 9.45423 27.9761 9.32542 27.7317 9.41073C27.4874 9.49614 27.3585 9.76342 27.4438 10.0078L28.7422 13.7245C27.7428 14.215 24.7522 15.5663 21.382 15.9783C19.1669 15.7076 17.1136 15.0274 15.7328 14.4798C17.2945 13.4792 18.3325 11.7297 18.3325 9.74139C18.3325 8.23567 17.7367 6.86739 16.7699 5.85676L17.0385 5.08689C17.2133 4.58673 17.6873 4.25064 18.2178 4.25064H24.546C25.0765 4.25064 25.5505 4.58664 25.7253 5.0867L26.4724 7.22701C26.5399 7.42033 26.7212 7.54145 26.915 7.54145C26.9663 7.54145 27.0184 7.53301 27.0694 7.51511C27.3139 7.42979 27.4429 7.16242 27.3575 6.91801L26.6102 4.77761C26.304 3.9017 25.4744 3.31323 24.5458 3.31323H18.2177C17.2892 3.31323 16.4595 3.9017 16.1532 4.77789L16.0089 5.19151C15.0809 4.51623 13.9401 4.11648 12.7072 4.11648C9.6056 4.11648 7.08222 6.63986 7.08222 9.74148C7.08222 11.8706 8.27144 13.7272 10.0205 14.6821L7.52566 15.5742C7.18976 15.6947 6.96288 15.9903 6.93354 16.3457C6.90419 16.7015 7.07979 17.0307 7.39263 17.2053C8.32019 17.7202 10.0171 18.5906 12.2643 19.4462C11.3712 20.3799 10.8705 21.6112 10.8705 22.9285C10.8705 24.7294 11.8176 26.3123 13.2391 27.208L14.3351 31.1799C14.3635 31.2823 14.4258 31.372 14.5118 31.4343L17.0045 33.2398C17.3097 33.4609 17.5152 33.7867 17.5833 34.1573L18.7454 40.4822L8.58813 33.0564L10.917 31.7287C11.0476 31.6542 11.1344 31.5218 11.1508 31.3724C11.1671 31.2231 11.1108 31.0749 10.9995 30.974L5.75247 26.2215L8.89507 25.2318C9.14201 25.154 9.27916 24.8908 9.20144 24.6439C9.12354 24.3969 8.86057 24.2598 8.61354 24.3376L5.40522 25.348C5.09454 25.4458 4.86747 25.6944 4.79782 26.0126C4.72826 26.3309 4.83082 26.6514 5.07232 26.8703L8.01222 29.533L3.92097 31.5089C3.43179 31.7453 3.07432 32.2039 2.96454 32.7357L1.1636 41.4606C1.11119 41.7142 1.27441 41.962 1.52791 42.0145C1.55988 42.021 1.59176 42.0242 1.62316 42.0242C1.84085 42.0242 2.03604 41.8717 2.08179 41.6501L3.88272 32.9253C3.93391 32.6772 4.10069 32.4633 4.32888 32.3531L8.76204 30.2121L9.89088 31.2345L8.07119 32.272C7.80551 32.4235 7.63657 32.6962 7.61941 33.0015C7.60207 33.3068 7.73913 33.5968 7.98597 33.7773L19.1428 41.9337C19.225 41.9938 19.3221 42.0241 19.4194 42.0241C19.5058 42.0241 19.5923 42.0003 19.6686 41.9524C19.8312 41.8503 19.9152 41.6594 19.8805 41.4707L18.5057 33.9879C18.3938 33.379 18.0561 32.8437 17.5548 32.4805L15.195 30.7713L14.352 27.732C14.8479 27.895 15.3769 27.9844 15.9268 27.9844C18.5435 27.9844 20.7022 25.9868 20.9581 23.4368C21.0071 23.3648 21.122 23.2635 21.3821 23.2635C21.634 23.2635 21.7514 23.3553 21.8063 23.4399C22.0636 25.9884 24.2216 27.9844 26.8373 27.9844C27.3873 27.9844 27.9165 27.8949 28.4126 27.7318L27.5695 30.7713L25.2095 32.4806C24.7074 32.8445 24.3696 33.3798 24.2584 33.9878L22.8831 41.4709C22.8484 41.6597 22.9323 41.8506 23.095 41.9526C23.1713 42.0006 23.2579 42.0244 23.3442 42.0244C23.4415 42.0244 23.5387 41.9941 23.6208 41.934L34.7771 33.7776C35.0244 33.5977 35.1618 33.3078 35.1448 33.0021C35.1276 32.6963 34.9588 32.4234 34.6933 32.2723L32.873 31.2342L34.0017 30.212L38.4348 32.3532C38.663 32.4634 38.8297 32.6773 38.881 32.9254L40.6819 41.6502C40.7276 41.8719 40.9228 42.0243 41.1406 42.0243C41.172 42.0243 41.2038 42.0211 41.2358 42.0145C41.4892 41.9622 41.6524 41.7143 41.6 41.4608ZM8.01982 9.74139C8.01982 7.1567 10.1226 5.05389 12.7073 5.05389C15.292 5.05389 17.3948 7.1567 17.3948 9.74139C17.3948 12.3261 15.292 14.4289 12.7073 14.4289C10.1226 14.4289 8.01982 12.3262 8.01982 9.74139ZM7.92354 16.4275L11.3541 15.2008C11.7878 15.3084 12.2408 15.3664 12.7072 15.3664C13.3775 15.3664 14.0207 15.2481 14.6173 15.032C16.2305 15.7322 18.6507 16.5977 21.3262 16.9159C21.3446 16.918 21.3632 16.9192 21.3816 16.9192C21.4001 16.9192 21.4187 16.918 21.437 16.9159C25.2698 16.4596 28.5456 14.882 29.355 14.4672L34.8397 16.4275C32.9298 17.4798 27.9882 19.9066 21.7498 20.7304C21.5055 20.7625 21.2577 20.7625 21.0135 20.7304C14.7739 19.9064 9.83182 17.479 7.92354 16.4275ZM29.238 22.9285C29.238 24.253 28.161 25.3304 26.837 25.3304C25.5127 25.3304 24.4353 24.253 24.4353 22.9285C24.4353 22.1771 24.7913 21.4682 25.3905 21.0145C26.0051 20.8707 26.6 20.7146 27.1753 20.5509C28.3569 20.7173 29.238 21.7247 29.238 22.9285ZM18.3283 22.9285C18.3283 24.253 17.2508 25.3304 15.9265 25.3304C14.6026 25.3304 13.5256 24.253 13.5256 22.9285C13.5256 21.7247 14.4066 20.7173 15.5883 20.5508C16.1625 20.7143 16.7575 20.8693 17.371 21.0129C17.9714 21.4666 18.3283 22.1762 18.3283 22.9285ZM15.9265 27.047C13.6555 27.047 11.808 25.1994 11.808 22.9285C11.808 21.7153 12.3287 20.5905 13.2449 19.8055C13.5342 19.9074 13.8319 20.0079 14.136 20.1071C13.1988 20.7015 12.5881 21.7471 12.5881 22.9285C12.5881 24.7699 14.0857 26.2679 15.9265 26.2679C17.7678 26.2679 19.2658 24.7699 19.2658 22.9285C19.2658 22.3622 19.1197 21.8138 18.8545 21.3292C19.1618 21.388 19.4728 21.4437 19.7876 21.4955C19.9586 21.9526 20.0458 22.4334 20.0458 22.9285C20.0458 25.1994 18.1979 27.047 15.9265 27.047ZM21.8101 22.3794C21.6809 22.3458 21.5388 22.326 21.3817 22.326C21.2226 22.326 21.0798 22.346 20.9515 22.3799C20.9247 22.1328 20.8818 21.8889 20.8191 21.6497C20.8432 21.653 20.8669 21.6566 20.8911 21.6598C21.0539 21.6812 21.2177 21.6919 21.3815 21.6919C21.5455 21.6919 21.7095 21.6812 21.8723 21.6597C21.8965 21.6565 21.9202 21.6528 21.9444 21.6496C21.882 21.8889 21.8368 22.1322 21.8101 22.3794ZM26.8369 27.047C24.5655 27.047 22.7177 25.1994 22.7177 22.9285C22.7177 22.4334 22.8048 21.9526 22.9758 21.4955C23.2908 21.4436 23.6017 21.3878 23.9091 21.3288C23.6438 21.8135 23.4977 22.362 23.4977 22.9284C23.4977 24.7698 24.9957 26.2678 26.8369 26.2678C28.6778 26.2678 30.1754 24.7698 30.1754 22.9284C30.1754 21.7471 29.5648 20.7016 28.6278 20.1072C28.9319 20.0079 29.2293 19.9073 29.5186 19.8055C30.4347 20.5904 30.9554 21.7152 30.9554 22.9284C30.9555 25.1994 29.1079 27.047 26.8369 27.047ZM31.6126 31.3719C31.629 31.5213 31.7159 31.6538 31.8464 31.7282L34.1751 33.0562L24.0177 40.4823L25.1803 34.1568C25.2479 33.787 25.4534 33.4615 25.7591 33.2399L28.2519 31.4343C28.338 31.372 28.4003 31.2823 28.4287 31.1799L29.5319 27.2032C30.5086 26.5853 31.2594 25.6426 31.6323 24.5277L37.0105 26.2217L31.7639 30.9735C31.6526 31.0744 31.5963 31.2226 31.6126 31.3719Z" fill="#0000CB"/>
<path d="M6.22998 5.00269C5.97104 5.00269 5.76123 4.79278 5.76123 4.53394C5.76123 4.24959 5.52986 4.01831 5.24561 4.01831C4.98667 4.01831 4.77686 3.8084 4.77686 3.54956C4.77686 3.29072 4.98667 3.08081 5.24561 3.08081C5.52986 3.08081 5.76123 2.84953 5.76123 2.56519C5.76123 2.30634 5.97104 2.09644 6.22998 2.09644C6.48892 2.09644 6.69873 2.30634 6.69873 2.56519C6.69873 2.84953 6.93011 3.08081 7.21436 3.08081C7.47329 3.08081 7.68311 3.29072 7.68311 3.54956C7.68311 3.8084 7.47329 4.01831 7.21436 4.01831C6.93011 4.01831 6.69873 4.24959 6.69873 4.53394C6.69873 4.79278 6.48892 5.00269 6.22998 5.00269Z" fill="#FF9C33"/>
<path d="M40.6033 29.9536C40.3443 29.9536 40.1345 29.7437 40.1345 29.4849C40.1345 29.2005 39.9031 28.9692 39.6189 28.9692C39.36 28.9692 39.1501 28.7593 39.1501 28.5005C39.1501 28.2416 39.36 28.0317 39.6189 28.0317C39.9031 28.0317 40.1345 27.8005 40.1345 27.5161C40.1345 27.2573 40.3443 27.0474 40.6033 27.0474C40.8622 27.0474 41.072 27.2573 41.072 27.5161C41.072 27.8005 41.3034 28.0317 41.5876 28.0317C41.8466 28.0317 42.0564 28.2416 42.0564 28.5005C42.0564 28.7593 41.8466 28.9692 41.5876 28.9692C41.3034 28.9692 41.072 29.2005 41.072 29.4849C41.072 29.7438 40.8622 29.9536 40.6033 29.9536Z" fill="#6C6CFF"/>
<path d="M37.5179 13.0156C37.259 13.0156 37.0492 12.8057 37.0492 12.5469C37.0492 12.2625 36.8178 12.0312 36.5334 12.0312C36.2745 12.0312 36.0647 11.8213 36.0647 11.5625C36.0647 11.3037 36.2745 11.0938 36.5334 11.0938C36.8178 11.0938 37.0492 10.8625 37.0492 10.5781C37.0492 10.3193 37.259 10.1094 37.5179 10.1094C37.7769 10.1094 37.9867 10.3193 37.9867 10.5781C37.9867 10.8625 38.2179 11.0938 38.5022 11.0938C38.7611 11.0938 38.9709 11.3037 38.9709 11.5625C38.9709 11.8213 38.7611 12.0312 38.5022 12.0312C38.2179 12.0312 37.9867 12.2625 37.9867 12.5469C37.9867 12.8057 37.7769 13.0156 37.5179 13.0156Z" fill="#FF6C6C"/>
<path d="M5.75488 22.6763C5.49595 22.6763 5.28613 22.4664 5.28613 22.2075C5.28613 21.9232 5.05476 21.6919 4.77051 21.6919C4.51157 21.6919 4.30176 21.482 4.30176 21.2231C4.30176 20.9643 4.51157 20.7544 4.77051 20.7544C5.05476 20.7544 5.28613 20.5231 5.28613 20.2388C5.28613 19.9799 5.49595 19.77 5.75488 19.77C6.01382 19.77 6.22363 19.9799 6.22363 20.2388C6.22363 20.5231 6.45501 20.7544 6.73926 20.7544C6.9982 20.7544 7.20801 20.9643 7.20801 21.2231C7.20801 21.482 6.9982 21.6919 6.73926 21.6919C6.45501 21.6919 6.22363 21.9232 6.22363 22.2075C6.22363 22.4665 6.01382 22.6763 5.75488 22.6763Z" fill="#FF6C6C"/>
<path d="M32.4409 11.0536C32.321 11.0536 32.2009 11.0079 32.1095 10.9164C31.9264 10.7333 31.9264 10.4365 32.1095 10.2535L33.047 9.31596C33.2299 9.13296 33.5269 9.13296 33.7098 9.31596C33.8929 9.49905 33.8929 9.79587 33.7098 9.97887L32.7723 10.9164C32.6808 11.0079 32.5608 11.0536 32.4409 11.0536Z" fill="#6C6CFF"/>
<defs>
<linearGradient id="paint0_linear_139_1843" x1="13.5413" y1="33.6485" x2="40.1555" y2="7.03424" gradientUnits="userSpaceOnUse">
<stop stop-color="#FFD8D8" stop-opacity="0"/>
<stop offset="0.9981" stop-color="#FFB2B2"/>
</linearGradient>
</defs>
</svg>
