<svg width="46" height="48" viewBox="0 0 46 48" fill="none" xmlns="http://www.w3.org/2000/svg">
<path d="M45.0234 36.741C41.7989 27.119 33.2163 23.4421 41.2381 12.461C49.5246 1.11731 34.038 -2.63841 25.488 1.84003C22.3365 3.49078 19.3937 5.49703 16.2892 7.23609C13.1193 9.01181 4.47906 3.40021 3.63597 9.37199C3.24963 12.1088 6.42794 14.2722 6.56781 17.1891C6.73122 20.5956 3.9355 21.9893 1.7365 23.8823C-1.60784 26.7614 0.148751 35.5889 4.69778 36.5434C6.84822 36.9946 8.83084 35.3782 10.8921 34.6183C19.1415 31.5769 23.1456 40.6857 27.9284 45.5703C33.5483 51.3096 47.8364 46.2844 45.0234 36.741Z" fill="url(#paint0_linear_139_2508)"/>
<path d="M13.6025 5.25513C13.3437 5.25513 13.1338 5.04531 13.1338 4.78638C13.1338 4.50213 12.9025 4.27075 12.6182 4.27075C12.3593 4.27075 12.1494 4.06094 12.1494 3.802C12.1494 3.54306 12.3593 3.33325 12.6182 3.33325C12.9025 3.33325 13.1338 3.10188 13.1338 2.81763C13.1338 2.55869 13.3437 2.34888 13.6025 2.34888C13.8614 2.34888 14.0713 2.55869 14.0713 2.81763C14.0713 3.10188 14.3026 3.33325 14.5869 3.33325C14.8458 3.33325 15.0557 3.54306 15.0557 3.802C15.0557 4.06094 14.8458 4.27075 14.5869 4.27075C14.3027 4.27075 14.0713 4.50213 14.0713 4.78638C14.0713 5.04522 13.8614 5.25513 13.6025 5.25513Z" fill="#FF9C33"/>
<path d="M4.71094 32.8472C4.45209 32.8472 4.24219 32.6374 4.24219 32.3784C4.24219 32.0942 4.01091 31.8628 3.72656 31.8628C3.46772 31.8628 3.25781 31.653 3.25781 31.394C3.25781 31.1351 3.46772 30.9253 3.72656 30.9253C4.01091 30.9253 4.24219 30.6939 4.24219 30.4097C4.24219 30.1507 4.45209 29.9409 4.71094 29.9409C4.96978 29.9409 5.17969 30.1507 5.17969 30.4097C5.17969 30.6939 5.41097 30.9253 5.69531 30.9253C5.95416 30.9253 6.16406 31.1351 6.16406 31.394C6.16406 31.653 5.95416 31.8628 5.69531 31.8628C5.41097 31.8628 5.17969 32.0942 5.17969 32.3784C5.17969 32.6374 4.96988 32.8472 4.71094 32.8472Z" fill="#6C6CFF"/>
<path d="M40.4043 33.8315C40.1455 33.8315 39.9355 33.6217 39.9355 33.3628C39.9355 33.0785 39.7043 32.8472 39.4199 32.8472C39.1611 32.8472 38.9512 32.6374 38.9512 32.3784C38.9512 32.1195 39.1611 31.9097 39.4199 31.9097C39.7043 31.9097 39.9355 31.6783 39.9355 31.394C39.9355 31.1351 40.1455 30.9253 40.4043 30.9253C40.6631 30.9253 40.873 31.1351 40.873 31.394C40.873 31.6783 41.1043 31.9097 41.3887 31.9097C41.6475 31.9097 41.8574 32.1195 41.8574 32.3784C41.8574 32.6374 41.6475 32.8472 41.3887 32.8472C41.1043 32.8472 40.873 33.0785 40.873 33.3628C40.873 33.6217 40.6631 33.8315 40.4043 33.8315Z" fill="#FF6C6C"/>
<path d="M37.046 10.2876C36.926 10.2876 36.8061 10.2418 36.7145 10.1502C36.5314 9.96723 36.5314 9.67042 36.7145 9.48742L37.652 8.54992C37.8351 8.36682 38.1318 8.36682 38.3149 8.54992C38.498 8.73292 38.498 9.02973 38.3149 9.21273L37.3774 10.1502C37.2859 10.2418 37.166 10.2876 37.046 10.2876Z" fill="#6C6CFF"/>
<path d="M3.25788 27.9458C3.13788 27.9458 3.01798 27.9 2.92638 27.8084C2.74329 27.6254 2.74329 27.3286 2.92638 27.1456L3.86388 26.2081C4.04698 26.025 4.3437 26.025 4.52679 26.2081C4.70988 26.3911 4.70988 26.6879 4.52679 26.8709L3.58929 27.8084C3.49788 27.9 3.37788 27.9458 3.25788 27.9458Z" fill="#FF6C6C"/>
<g opacity="0.1">
<path d="M39.7378 38.8556H36.3321V36.79C36.3321 36.2722 35.9123 35.8525 35.3946 35.8525H34.992L39.4022 24.946C39.5953 24.4685 39.3647 23.9249 38.8872 23.7318C38.4358 23.5492 37.9199 23.7447 37.7028 24.1806L31.8896 35.8525H31.495C30.9772 35.8525 30.5575 36.2722 30.5575 36.79V37.207C30.4854 37.1892 30.4104 37.1788 30.3328 37.1788H25.2986V36.3621C25.2986 35.8444 24.8789 35.4246 24.3611 35.4246H23.1619V32.6185C23.1619 32.6153 23.161 32.6123 23.1609 32.6091C30.1096 32.3628 35.6674 26.6529 35.6674 19.6442C35.6674 12.4787 29.8586 6.66992 22.6931 6.66992C15.5276 6.66992 9.71887 12.4787 9.71887 19.6442C9.71887 26.653 15.2767 32.3628 22.2253 32.6091C22.2252 32.6123 22.2244 32.6152 22.2244 32.6185V35.4246H21.025C20.5072 35.4246 20.0875 35.8444 20.0875 36.3621V37.1788H15.0533C14.9757 37.1788 14.9008 37.1893 14.8286 37.207V36.79C14.8286 36.2722 14.4089 35.8525 13.8911 35.8525H13.4965L7.68338 24.1806C7.46625 23.7448 6.95044 23.5492 6.49894 23.7318C6.02147 23.9249 5.79084 24.4685 5.98397 24.946L10.3942 35.8525H9.9915C9.47372 35.8525 9.054 36.2722 9.054 36.79V38.8556H5.64844C5.13066 38.8556 4.71094 39.2753 4.71094 39.7931V43.7677C4.71094 44.2855 5.13066 44.7052 5.64844 44.7052H39.7378C40.2556 44.7052 40.6753 44.2855 40.6753 43.7677V39.7931C40.6753 39.2753 40.2556 38.8556 39.7378 38.8556Z" fill="#0000CB"/>
<path d="M7.43447 16.6968C7.69331 16.6968 7.90322 16.487 7.90322 16.228C7.90322 15.9691 7.69331 15.7593 7.43447 15.7593C4.47159 15.7593 2.06128 18.1697 2.06128 21.1325C2.06128 21.3914 2.27119 21.6012 2.53003 21.6012C2.78887 21.6012 2.99878 21.3914 2.99878 21.1325C2.99878 18.6866 4.98862 16.6968 7.43447 16.6968Z" fill="#0000CB"/>
<path d="M4.87378 21.1325C4.87378 19.7204 6.0225 18.5718 7.43447 18.5718C7.69331 18.5718 7.90322 18.362 7.90322 18.103C7.90322 17.8441 7.69331 17.6343 7.43447 17.6343C5.50556 17.6343 3.93628 19.2036 3.93628 21.1325C3.93628 21.3914 4.14619 21.6012 4.40503 21.6012C4.66387 21.6012 4.87378 21.3914 4.87378 21.1325Z" fill="#0000CB"/>
<path d="M7.43456 19.5093C6.53953 19.5093 5.81128 20.2375 5.81128 21.1326C5.81128 21.3915 6.02119 21.6013 6.28003 21.6013C6.53887 21.6013 6.74878 21.3915 6.74878 21.1326C6.74878 20.7544 7.05637 20.4468 7.43456 20.4468C7.6934 20.4468 7.90331 20.237 7.90331 19.978C7.90331 19.7191 7.6934 19.5093 7.43456 19.5093Z" fill="#0000CB"/>
<path d="M37.9519 15.7593C37.6931 15.7593 37.4832 15.9691 37.4832 16.228C37.4832 16.487 37.6931 16.6968 37.9519 16.6968C40.3977 16.6968 42.3876 18.6867 42.3876 21.1325C42.3876 21.3914 42.5975 21.6012 42.8563 21.6012C43.1152 21.6012 43.3251 21.3914 43.3251 21.1325C43.3251 18.1697 40.9147 15.7593 37.9519 15.7593Z" fill="#0000CB"/>
<path d="M37.9519 17.6343C37.6931 17.6343 37.4832 17.8441 37.4832 18.103C37.4832 18.362 37.6931 18.5718 37.9519 18.5718C39.3639 18.5718 40.5126 19.7205 40.5126 21.1325C40.5126 21.3914 40.7225 21.6012 40.9813 21.6012C41.2402 21.6012 41.4501 21.3914 41.4501 21.1325C41.4501 19.2036 39.8808 17.6343 37.9519 17.6343Z" fill="#0000CB"/>
<path d="M38.6377 21.1326C38.6377 21.3915 38.8476 21.6013 39.1064 21.6013C39.3653 21.6013 39.5752 21.3915 39.5752 21.1326C39.5752 20.2374 38.8469 19.5093 37.9519 19.5093C37.6931 19.5093 37.4832 19.7191 37.4832 19.978C37.4832 20.237 37.6931 20.4468 37.9519 20.4468C38.3301 20.4468 38.6377 20.7544 38.6377 21.1326Z" fill="#0000CB"/>
</g>
<path d="M39.7378 42.4553H5.64844C5.13066 42.4553 4.71094 42.0356 4.71094 41.5178V37.5432C4.71094 37.0254 5.13066 36.6057 5.64844 36.6057H39.7378C40.2556 36.6057 40.6753 37.0254 40.6753 37.5432V41.5178C40.6753 42.0356 40.2556 42.4553 39.7378 42.4553Z" fill="#6C6CFF"/>
<path d="M34.4866 34.8522L31.8069 33.7686L37.7027 21.9306C37.9199 21.4948 38.4358 21.2992 38.8872 21.4817C39.3646 21.6749 39.5953 22.2184 39.4021 22.696L34.4866 34.8522Z" fill="#FF9C33"/>
<path d="M38.4909 24.95L38.1393 25.8191L36.1631 25.0203L36.5831 24.1785L38.4909 24.95Z" fill="#FFD5BA"/>
<path d="M39.119 23.3957L38.7675 24.2648L36.9131 23.5157L37.3321 22.6738L39.119 23.3957Z" fill="#FFD5BA"/>
<path d="M36.3321 36.6054H30.5576V34.5398C30.5576 34.022 30.9773 33.6023 31.4951 33.6023H35.3946C35.9124 33.6023 36.3321 34.022 36.3321 34.5398V36.6054Z" fill="#FFC498"/>
<path d="M10.8996 34.8523L13.5794 33.7687L7.68345 21.9306C7.46632 21.4948 6.95042 21.2992 6.49901 21.4817C6.02154 21.6749 5.79092 22.2184 5.98404 22.696L10.8996 34.8523Z" fill="#FF9C33"/>
<path d="M6.89551 24.9503L7.24707 25.8193L9.22332 25.0206L8.80332 24.1787L6.89551 24.9503Z" fill="#FFD5BA"/>
<path d="M6.26733 23.3959L6.6189 24.265L8.47327 23.5159L8.05421 22.6741L6.26733 23.3959Z" fill="#FFD5BA"/>
<path d="M9.0542 36.6056H14.8287V34.54C14.8287 34.0223 14.409 33.6025 13.8912 33.6025H9.9917C9.47392 33.6025 9.0542 34.0223 9.0542 34.54V36.6056Z" fill="#FFC498"/>
<path d="M22.6932 30.3684C29.8587 30.3684 35.6675 24.5597 35.6675 17.3942C35.6675 10.2287 29.8587 4.41992 22.6932 4.41992C15.5278 4.41992 9.71899 10.2287 9.71899 17.3942C9.71899 24.5597 15.5278 30.3684 22.6932 30.3684Z" fill="#8282FF"/>
<path d="M22.6933 28.4699C28.8102 28.4699 33.7689 23.5111 33.7689 17.3942C33.7689 11.2773 28.8102 6.3186 22.6933 6.3186C16.5764 6.3186 11.6177 11.2773 11.6177 17.3942C11.6177 23.5111 16.5764 28.4699 22.6933 28.4699Z" fill="#6C6CFF"/>
<path d="M21.2928 10.7806V14.9164C21.2928 15.1073 21.4476 15.2621 21.6385 15.2621H23.7483C23.9393 15.2621 24.094 15.1073 24.094 14.9164V10.7806H25.0025C25.3105 10.7806 25.4648 10.4082 25.247 10.1903L22.938 7.88128C22.803 7.74628 22.5841 7.74628 22.449 7.88128L20.14 10.1903C19.9223 10.4081 20.0765 10.7806 20.3845 10.7806H21.2928Z" fill="white"/>
<path d="M24.094 24.0079V19.8721C24.094 19.6811 23.9392 19.5264 23.7482 19.5264H21.6385C21.4475 19.5264 21.2927 19.6811 21.2927 19.8721V24.0079H20.3843C20.0762 24.0079 19.922 24.3803 20.1398 24.5981L22.4489 26.9071C22.5839 27.0421 22.8028 27.0421 22.9379 26.9071L25.2468 24.5981C25.4646 24.3803 25.3104 24.0078 25.0023 24.0078H24.094V24.0079Z" fill="white"/>
<path d="M27.4461 15.9936H31.5819C31.7729 15.9936 31.9277 16.1483 31.9277 16.3393V18.4491C31.9277 18.64 31.7729 18.7948 31.5819 18.7948H27.4461V19.7033C27.4461 20.0113 27.0737 20.1655 26.8559 19.9478L24.5468 17.6387C24.4118 17.5037 24.4118 17.2848 24.5468 17.1497L26.8559 14.8407C27.0737 14.6229 27.4461 14.7772 27.4461 15.0852V15.9936Z" fill="white"/>
<path d="M17.9405 18.7949H13.8047C13.6138 18.7949 13.459 18.6401 13.459 18.4492V16.3394C13.459 16.1484 13.6138 15.9937 13.8047 15.9937H17.9405V15.0852C17.9405 14.7772 18.3129 14.6229 18.5308 14.8407L20.8398 17.1498C20.9748 17.2848 20.9748 17.5037 20.8398 17.6388L18.5308 19.9478C18.313 20.1655 17.9405 20.0113 17.9405 19.7033V18.7949Z" fill="white"/>
<path d="M30.333 42.4551H15.0535C14.5357 42.4551 14.116 42.0354 14.116 41.5176V35.8662C14.116 35.3484 14.5357 34.9287 15.0535 34.9287H30.333C30.8508 34.9287 31.2705 35.3484 31.2705 35.8662V41.5176C31.2705 42.0354 30.8508 42.4551 30.333 42.4551Z" fill="#B2B2FF"/>
<path d="M23.749 40.9603H16.7134C16.4545 40.9603 16.2446 40.7504 16.2446 40.4915V38.8015C16.2446 38.5427 16.4545 38.3328 16.7134 38.3328H23.749C24.0079 38.3328 24.2178 38.5427 24.2178 38.8015V40.4915C24.2178 40.7504 24.0079 40.9603 23.749 40.9603Z" fill="#8282FF"/>
<path d="M27.1485 39.2891H25.7441C25.4853 39.2891 25.2754 39.0792 25.2754 38.8203C25.2754 38.5614 25.4853 38.3516 25.7441 38.3516H27.1485C27.4074 38.3516 27.6173 38.5614 27.6173 38.8203C27.6173 39.0792 27.4075 39.2891 27.1485 39.2891Z" fill="#FF6C6C"/>
<path d="M29.1418 40.959H25.7441C25.4853 40.959 25.2754 40.7492 25.2754 40.4902C25.2754 40.2313 25.4853 40.0215 25.7441 40.0215H29.1418C29.4007 40.0215 29.6106 40.2313 29.6106 40.4902C29.6106 40.7492 29.4007 40.959 29.1418 40.959Z" fill="#FF6C6C"/>
<path d="M16.7693 37.3455C16.5104 37.3455 16.3005 37.1357 16.3005 36.8767V36.866C16.3005 36.607 16.5104 36.3972 16.7693 36.3972C17.0281 36.3972 17.238 36.607 17.238 36.866V36.8767C17.238 37.1356 17.0281 37.3455 16.7693 37.3455Z" fill="white"/>
<path d="M18.2388 37.3455C17.9799 37.3455 17.77 37.1357 17.77 36.8767V36.866C17.77 36.607 17.9799 36.3972 18.2388 36.3972C18.4976 36.3972 18.7075 36.607 18.7075 36.866V36.8767C18.7075 37.1356 18.4977 37.3455 18.2388 37.3455Z" fill="white"/>
<path d="M19.7085 37.3455C19.4497 37.3455 19.2397 37.1357 19.2397 36.8767V36.866C19.2397 36.607 19.4497 36.3972 19.7085 36.3972C19.9673 36.3972 20.1772 36.607 20.1772 36.866V36.8767C20.1772 37.1356 19.9673 37.3455 19.7085 37.3455Z" fill="white"/>
<path d="M25.2988 34.9287H20.0876V34.1121C20.0876 33.5943 20.5074 33.1746 21.0251 33.1746H24.3613C24.8791 33.1746 25.2988 33.5943 25.2988 34.1121V34.9287Z" fill="#8282FF"/>
<path d="M7.97512 39.1643H7.15405C6.89521 39.1643 6.6853 38.9545 6.6853 38.6956C6.6853 38.4366 6.89521 38.2268 7.15405 38.2268H7.97512C8.23396 38.2268 8.44387 38.4366 8.44387 38.6956C8.44387 38.9545 8.23396 39.1643 7.97512 39.1643Z" fill="#B2B2FF"/>
<path d="M11.7251 40.8342H7.15405C6.89521 40.8342 6.6853 40.6244 6.6853 40.3655C6.6853 40.1065 6.89521 39.8967 7.15405 39.8967H11.7251C11.984 39.8967 12.1939 40.1065 12.1939 40.3655C12.1939 40.6244 11.984 40.8342 11.7251 40.8342Z" fill="#B2B2FF"/>
<path d="M38.2322 39.1643H37.4111C37.1523 39.1643 36.9424 38.9545 36.9424 38.6956C36.9424 38.4366 37.1523 38.2268 37.4111 38.2268H38.2322C38.491 38.2268 38.7009 38.4366 38.7009 38.6956C38.7009 38.9545 38.4911 39.1643 38.2322 39.1643Z" fill="#B2B2FF"/>
<path d="M38.2322 40.8342H33.6611C33.4023 40.8342 33.1924 40.6244 33.1924 40.3655C33.1924 40.1065 33.4023 39.8967 33.6611 39.8967H38.2322C38.491 39.8967 38.7009 40.1065 38.7009 40.3655C38.7009 40.6244 38.4911 40.8342 38.2322 40.8342Z" fill="#B2B2FF"/>
<path d="M39.738 36.1369H36.801V34.54C36.801 33.8609 36.3172 33.2929 35.6762 33.1622L39.8371 22.8717C40.1267 22.1555 39.7797 21.3372 39.0635 21.0475C38.3896 20.775 37.6078 21.071 37.2838 21.7217L31.5992 33.1338H31.4952C30.7468 33.1338 30.1348 33.7219 30.093 34.4601H25.7677V34.1121C25.7677 33.3367 25.1368 32.7059 24.3614 32.7059H23.162V30.8282C26.3276 30.7186 29.3441 29.5018 31.7011 27.3725C34.156 25.1546 35.703 22.1295 36.057 18.8545C36.0847 18.5972 35.8988 18.366 35.6413 18.3381C35.3838 18.3089 35.1528 18.4964 35.1249 18.7538C34.4381 25.108 29.0936 29.8998 22.6932 29.8998C15.7976 29.8998 10.1877 24.2898 10.1877 17.3942C10.1877 10.4986 15.7976 4.88867 22.6932 4.88867C29.0259 4.88867 34.3639 9.6238 35.1098 15.9029C35.1404 16.16 35.3736 16.3445 35.6306 16.313C35.8877 16.2826 36.0713 16.0494 36.0408 15.7923C35.2388 9.0417 29.5006 3.95117 22.6932 3.95117C15.2807 3.95117 9.25022 9.98164 9.25022 17.3943C9.25022 24.6499 15.0282 30.5803 22.2245 30.8283V32.706H21.0251C20.2497 32.706 19.6189 33.3368 19.6189 34.1122V34.4601H15.2935C15.2517 33.722 14.6397 33.1339 13.8913 33.1339H13.7873L8.10272 21.7219C7.77862 21.0711 6.99694 20.7748 6.32306 21.0476C5.60681 21.3373 5.25975 22.1555 5.54944 22.8718L9.71034 33.1623C9.06928 33.293 8.58553 33.8611 8.58553 34.5401V36.137H5.64844C4.87303 36.137 4.24219 36.7678 4.24219 37.5432V41.5178C4.24219 42.2932 4.87303 42.9241 5.64844 42.9241H39.7379C40.5133 42.9241 41.1442 42.2932 41.1442 41.5178V37.5432C41.1442 36.7677 40.5134 36.1369 39.738 36.1369ZM38.1229 22.1396C38.2302 21.9243 38.4889 21.8266 38.7119 21.9165C38.9489 22.0124 39.0637 22.2832 38.9679 22.5202L34.6764 33.1337H32.6466L38.1229 22.1396ZM20.5564 34.1121C20.5564 33.8537 20.7667 33.6434 21.0251 33.6434H24.3613C24.6198 33.6434 24.8301 33.8537 24.8301 34.1121V34.4601H20.5564V34.1121ZM6.4185 22.5203C6.32269 22.2833 6.43753 22.0125 6.67453 21.9166C6.89747 21.8267 7.15631 21.9244 7.26347 22.1398L12.7398 33.1339H10.7101L6.4185 22.5203ZM13.6472 35.8663V41.5177C13.6472 41.6823 13.6771 41.8396 13.7292 41.9865H5.64844C5.38997 41.9865 5.17969 41.7762 5.17969 41.5177V37.5431C5.17969 37.2846 5.38997 37.0744 5.64844 37.0744H11.1143C11.3732 37.0744 11.5831 36.8646 11.5831 36.6056C11.5831 36.3467 11.3732 36.1369 11.1143 36.1369H9.52294V34.54C9.52294 34.2815 9.73322 34.0713 9.99169 34.0713H13.8912C14.1497 34.0713 14.36 34.2815 14.36 34.54C14.36 34.5737 14.3638 34.6064 14.3706 34.638C13.9397 34.8786 13.6472 35.3387 13.6472 35.8663ZM30.8018 41.5177C30.8018 41.7762 30.5915 41.9865 30.333 41.9865H15.0534C14.795 41.9865 14.5847 41.7762 14.5847 41.5177V35.8663C14.5847 35.6078 14.795 35.3976 15.0534 35.3976H30.3329C30.5914 35.3976 30.8017 35.6078 30.8017 35.8663V41.5177H30.8018ZM31.0158 34.638C31.0225 34.6063 31.0264 34.5737 31.0264 34.54C31.0264 34.2815 31.2367 34.0713 31.4951 34.0713H35.3947C35.6531 34.0713 35.8634 34.2815 35.8634 34.54V36.1369H31.7392V35.8663C31.7393 35.3387 31.4467 34.8786 31.0158 34.638ZM40.2067 41.5177C40.2067 41.7762 39.9965 41.9865 39.738 41.9865H31.6572C31.7093 41.8396 31.7393 41.6823 31.7393 41.5177V37.0744H39.738C39.9965 37.0744 40.2067 37.2846 40.2067 37.5431V41.5177Z" fill="#0000CB"/>
<path d="M7.43447 14.4468C7.69331 14.4468 7.90322 14.237 7.90322 13.978C7.90322 13.7191 7.69331 13.5093 7.43447 13.5093C4.47159 13.5093 2.06128 15.9197 2.06128 18.8825C2.06128 19.1414 2.27119 19.3512 2.53003 19.3512C2.78887 19.3512 2.99878 19.1414 2.99878 18.8825C2.99878 16.4366 4.98862 14.4468 7.43447 14.4468Z" fill="#0000CB"/>
<path d="M4.87378 18.8825C4.87378 17.4704 6.0225 16.3218 7.43447 16.3218C7.69331 16.3218 7.90322 16.112 7.90322 15.853C7.90322 15.5941 7.69331 15.3843 7.43447 15.3843C5.50556 15.3843 3.93628 16.9536 3.93628 18.8825C3.93628 19.1414 4.14619 19.3512 4.40503 19.3512C4.66387 19.3512 4.87378 19.1414 4.87378 18.8825Z" fill="#0000CB"/>
<path d="M7.43456 17.2593C6.53953 17.2593 5.81128 17.9875 5.81128 18.8826C5.81128 19.1415 6.02119 19.3513 6.28003 19.3513C6.53887 19.3513 6.74878 19.1415 6.74878 18.8826C6.74878 18.5044 7.05637 18.1968 7.43456 18.1968C7.6934 18.1968 7.90331 17.987 7.90331 17.728C7.90331 17.4691 7.6934 17.2593 7.43456 17.2593Z" fill="#0000CB"/>
<path d="M37.9519 13.5093C37.6931 13.5093 37.4832 13.7191 37.4832 13.978C37.4832 14.237 37.6931 14.4468 37.9519 14.4468C40.3977 14.4468 42.3876 16.4367 42.3876 18.8825C42.3876 19.1414 42.5975 19.3512 42.8563 19.3512C43.1152 19.3512 43.3251 19.1414 43.3251 18.8825C43.3251 15.9197 40.9147 13.5093 37.9519 13.5093Z" fill="#0000CB"/>
<path d="M37.9519 15.3843C37.6931 15.3843 37.4832 15.5941 37.4832 15.853C37.4832 16.112 37.6931 16.3218 37.9519 16.3218C39.3639 16.3218 40.5126 17.4705 40.5126 18.8825C40.5126 19.1414 40.7225 19.3512 40.9813 19.3512C41.2402 19.3512 41.4501 19.1414 41.4501 18.8825C41.4501 16.9536 39.8808 15.3843 37.9519 15.3843Z" fill="#0000CB"/>
<path d="M37.9519 18.1968C38.3301 18.1968 38.6377 18.5044 38.6377 18.8826C38.6377 19.1415 38.8476 19.3513 39.1064 19.3513C39.3653 19.3513 39.5752 19.1415 39.5752 18.8826C39.5752 17.9874 38.8469 17.2593 37.9519 17.2593C37.6931 17.2593 37.4832 17.4691 37.4832 17.728C37.4832 17.987 37.6931 18.1968 37.9519 18.1968Z" fill="#0000CB"/>
<defs>
<linearGradient id="paint0_linear_139_2508" x1="8.47506" y1="41.2937" x2="44.4945" y2="5.27428" gradientUnits="userSpaceOnUse">
<stop stop-color="white" stop-opacity="0"/>
<stop offset="0.2617" stop-color="#EDEDFF" stop-opacity="0.416"/>
<stop offset="0.629" stop-color="#D8D8FF"/>
</linearGradient>
</defs>
</svg>
