<svg width="48" height="42" viewBox="0 0 48 42" fill="none" xmlns="http://www.w3.org/2000/svg">
<path d="M47.0506 10.4716C44.9547 5.1383 38.4982 1.94002 33.0298 4.05652C26.7877 6.47237 28.8573 16.4009 23.1876 18.4085C20.1249 19.493 15.5973 15.4419 12.503 14.8207C6.80104 13.676 1.63916 17.6993 0.3681 23.2708C-0.92865 28.9548 1.15119 36.5467 7.39626 38.0895C14.8353 39.9271 18.7103 33.2399 24.9508 31.3197C31.3549 29.3491 38.4755 34.003 43.7772 28.3407C47.694 24.1575 49.1261 15.7527 47.0506 10.4716Z" fill="url(#paint0_linear_139_1999)"/>
<path opacity="0.1" d="M43.3282 39.7612H42.3491V26.0232C42.3491 25.5054 41.9293 25.0857 41.4116 25.0857H39.9658C41.1259 24.0553 41.8576 22.5532 41.8576 20.8796C41.8576 17.773 39.3392 15.2546 36.2326 15.2546C36.1266 15.2546 36.0213 15.2582 35.9167 15.264C35.7319 13.9915 35.3446 12.7427 34.7517 11.571C34.8415 11.5201 34.9265 11.4574 35.0031 11.3808C35.4608 10.9232 35.4608 10.1812 35.0031 9.72353C34.5927 9.31309 33.9542 9.27193 33.4966 9.59762C33.198 9.21634 32.8738 8.84865 32.5227 8.49756C29.5336 5.50843 25.3621 4.42309 21.5137 5.24021C21.4627 5.04606 21.3623 4.86212 21.2101 4.70996C20.7524 4.25228 20.0105 4.25228 19.5528 4.70996C19.2183 5.04446 19.1294 5.53046 19.2838 5.94671C17.9172 6.53218 16.6366 7.38203 15.5211 8.49765C13.0051 11.0136 11.8381 14.3673 12.0188 17.6609C11.7613 17.6881 11.5111 17.7998 11.3139 17.9971C10.8562 18.4547 10.8562 19.1967 11.3139 19.6544C11.6017 19.9422 12.0018 20.0487 12.3731 19.9745C12.8442 21.826 13.7633 23.5863 15.1286 25.0857H6.58841C6.07063 25.0857 5.65091 25.5054 5.65091 26.0232V39.7612H4.67188C4.41303 39.7612 4.20312 39.9711 4.20312 40.23V41.467C4.20312 41.7258 4.41303 41.9357 4.67188 41.9357H43.3283C43.5871 41.9357 43.797 41.7258 43.797 41.467V40.23C43.7969 39.971 43.5871 39.7612 43.3282 39.7612Z" fill="#0000CB"/>
<path d="M24.022 26.7706C30.6616 26.7706 36.0441 21.3882 36.0441 14.7486C36.0441 8.10901 30.6616 2.72656 24.022 2.72656C17.3824 2.72656 12 8.10901 12 14.7486C12 21.3882 17.3824 26.7706 24.022 26.7706Z" fill="#B2B2FF"/>
<path d="M33.4435 14.2349C32.3865 13.1779 31.1955 12.3348 29.9246 11.7052C29.9248 11.6857 29.9237 11.6662 29.9228 11.6467C30.9473 11.2032 32.0314 10.8977 33.1487 10.7422C33.2008 10.8366 33.2659 10.9256 33.346 11.0057C33.8037 11.4634 34.5456 11.4634 35.0033 11.0057C35.1377 10.8713 35.2316 10.7119 35.2871 10.5428C35.1041 10.0516 34.8877 9.57 34.6382 9.10144C34.2104 8.91722 33.6955 8.99897 33.346 9.34838C33.2125 9.48188 33.1191 9.63985 33.0635 9.80766C31.8325 9.97481 30.6385 10.3111 29.5122 10.8027C29.0518 10.41 28.3598 10.4303 27.9245 10.8656C27.9137 10.8765 27.9042 10.8883 27.8939 10.8996C24.5488 9.87938 20.8808 10.192 17.7343 11.8391C17.7027 11.8158 17.6703 11.7943 17.6372 11.7745C17.9787 9.77925 18.8017 7.90078 20.0486 6.28716C20.447 6.40481 20.8957 6.30647 21.2101 5.99203C21.6677 5.53435 21.6677 4.79241 21.2101 4.33472C20.7525 3.87703 20.0104 3.87703 19.5527 4.33472C19.1882 4.69931 19.115 5.244 19.3314 5.682C17.9676 7.43588 17.0715 9.48291 16.7064 11.6575C16.525 11.7112 16.3541 11.8095 16.2109 11.9527C15.9242 12.2394 15.8172 12.6379 15.8898 13.0081C15.3984 13.379 14.9264 13.7873 14.4789 14.2347C13.5955 15.1181 12.8498 16.1075 12.2488 17.1843C12.3996 17.9167 12.6189 18.6376 12.9073 19.3369C12.9288 19.3182 12.9506 19.2998 12.971 19.2792C13.4056 18.8447 13.4267 18.1544 13.0361 17.694C13.6001 16.6718 14.3052 15.7342 15.1416 14.8976C15.5492 14.4901 15.9785 14.1175 16.4253 13.7783C16.4564 13.7975 16.488 13.8152 16.5202 13.8311C16.5197 13.9459 16.5204 14.0607 16.5227 14.1758C16.5942 17.6519 17.9879 20.9205 20.4469 23.3797C20.5793 23.512 20.7148 23.6407 20.8522 23.7669C20.7302 24.1677 20.8272 24.621 21.1442 24.938C21.2871 25.0809 21.4577 25.1792 21.6389 25.2328C21.7115 25.6871 21.8087 26.1392 21.9291 26.5873C22.2652 26.6464 22.6033 26.6912 22.9425 26.7217C22.7819 26.1923 22.6567 25.6565 22.5691 25.1168C22.5727 25.1147 22.5763 25.1126 22.5799 25.1105C23.5739 25.7603 24.6494 26.275 25.7746 26.6426C26.4466 26.5441 27.1117 26.3886 27.7624 26.1761C26.1096 25.8827 24.5276 25.2596 23.1204 24.3447C23.1964 23.9722 23.0905 23.5698 22.8015 23.2808C22.6857 23.165 22.5516 23.0787 22.4087 23.0215C22.4326 19.8074 23.6908 16.641 26.0565 14.2753C26.6736 13.6583 27.3481 13.1125 28.0675 12.6433C28.5106 12.9641 29.1261 12.9368 29.5396 12.5612C30.7095 13.1451 31.8063 13.9236 32.7805 14.8978C33.6698 15.7871 34.409 16.7882 34.9879 17.8827C34.573 18.3428 34.5857 19.0517 35.0288 19.4948C35.0385 19.5044 35.049 19.5127 35.0589 19.5219C35.364 18.8161 35.5982 18.087 35.7615 17.3453C35.1472 16.2072 34.3723 15.1637 33.4435 14.2349ZM25.3938 13.6124C22.8417 16.1645 21.4885 19.5833 21.4719 23.0512C21.4691 23.0525 21.4663 23.0537 21.4635 23.0551C21.3438 22.9446 21.2255 22.8324 21.11 22.7168C18.8229 20.4297 17.5267 17.3896 17.4602 14.1566C17.4583 14.0628 17.4576 13.969 17.4578 13.8754C17.6073 13.8184 17.7478 13.7304 17.8682 13.61C18.13 13.3482 18.2414 12.9936 18.2037 12.6522C21.1122 11.1412 24.4954 10.8523 27.5857 11.7853C27.587 11.802 27.5888 11.8186 27.5909 11.8353C26.8043 12.345 26.0672 12.9391 25.3938 13.6124Z" fill="#9393FF"/>
<path d="M17.0396 12.0784C17.6868 12.0784 18.2114 11.5537 18.2114 10.9065C18.2114 10.2593 17.6868 9.73462 17.0396 9.73462C16.3923 9.73462 15.8677 10.2593 15.8677 10.9065C15.8677 11.5537 16.3923 12.0784 17.0396 12.0784Z" fill="#FF6C6C"/>
<path d="M12.1426 17.7476C12.7898 17.7476 13.3145 17.2229 13.3145 16.5757C13.3145 15.9285 12.7898 15.4038 12.1426 15.4038C11.4954 15.4038 10.9707 15.9285 10.9707 16.5757C10.9707 17.2229 11.4954 17.7476 12.1426 17.7476Z" fill="#FF6C6C"/>
<path d="M20.3816 4.46045C21.0288 4.46045 21.5535 3.93578 21.5535 3.28857C21.5535 2.64137 21.0288 2.1167 20.3816 2.1167C19.7344 2.1167 19.2097 2.64137 19.2097 3.28857C19.2097 3.93578 19.7344 4.46045 20.3816 4.46045Z" fill="#FF6C6C"/>
<path d="M35.8577 17.9629C36.5049 17.9629 37.0295 17.4382 37.0295 16.791C37.0295 16.1438 36.5049 15.6191 35.8577 15.6191C35.2105 15.6191 34.6858 16.1438 34.6858 16.791C34.6858 17.4382 35.2105 17.9629 35.8577 17.9629Z" fill="#FF6C6C"/>
<path d="M34.1746 9.47388C34.8218 9.47388 35.3464 8.94921 35.3464 8.302C35.3464 7.65479 34.8218 7.13013 34.1746 7.13013C33.5274 7.13013 33.0027 7.65479 33.0027 8.302C33.0027 8.94921 33.5274 9.47388 34.1746 9.47388Z" fill="#FF6C6C"/>
<path d="M28.7532 10.9912C29.4004 10.9912 29.925 10.4665 29.925 9.81934C29.925 9.17213 29.4004 8.64746 28.7532 8.64746C28.106 8.64746 27.5813 9.17213 27.5813 9.81934C27.5813 10.4665 28.106 10.9912 28.7532 10.9912Z" fill="#FF6C6C"/>
<path d="M21.9729 23.4062C22.6201 23.4062 23.1448 22.8816 23.1448 22.2344C23.1448 21.5872 22.6201 21.0625 21.9729 21.0625C21.3257 21.0625 20.801 21.5872 20.801 22.2344C20.801 22.8816 21.3257 23.4062 21.9729 23.4062Z" fill="#FF6C6C"/>
<path d="M23.167 27.9116C23.8142 27.9116 24.3389 27.387 24.3389 26.7397C24.3389 26.0925 23.8142 25.5679 23.167 25.5679C22.5198 25.5679 21.9951 26.0925 21.9951 26.7397C21.9951 27.387 22.5198 27.9116 23.167 27.9116Z" fill="#FF6C6C"/>
<path d="M30.3772 25.5669C31.0244 25.5669 31.5491 25.0422 31.5491 24.395C31.5491 23.7478 31.0244 23.2231 30.3772 23.2231C29.73 23.2231 29.2053 23.7478 29.2053 24.395C29.2053 25.0422 29.73 25.5669 30.3772 25.5669Z" fill="#FF6C6C"/>
<path d="M42.349 37.5112H5.65088V23.7732C5.65088 23.2554 6.0706 22.8357 6.58838 22.8357H41.4115C41.9293 22.8357 42.349 23.2554 42.349 23.7732V37.5112Z" fill="#FFC498"/>
<path d="M11.7673 22.8357H17.8837V26.5046H11.7673V22.8357Z" fill="#FFAA66"/>
<path d="M24 22.8357H30.1163V26.5046H24V22.8357Z" fill="#FFAA66"/>
<path d="M36.2326 22.8352V26.5046C33.8138 26.5046 31.7513 24.9783 30.9573 22.8352H36.2326Z" fill="#FFAA66"/>
<path d="M42.3493 26.5046H36.2329V22.8357H41.4118C41.9295 22.8357 42.3493 23.2554 42.3493 23.7732V26.5046Z" fill="#FFAA66"/>
<path d="M41.5059 22.8399C40.7109 24.9802 38.6493 26.5046 36.2324 26.5046V22.8352H41.4112C41.443 22.8352 41.4749 22.8371 41.5059 22.8399Z" fill="#FF9C33"/>
<path d="M5.65088 26.5046H8.7091V30.1735H5.65088V26.5046Z" fill="#FFAA66"/>
<path d="M8.70898 26.5046H14.8253V30.1735H8.70898V26.5046Z" fill="#FF9C33"/>
<path d="M14.8254 26.5046H20.9418V30.1735H14.8254V26.5046Z" fill="#FFD5BA"/>
<path d="M20.9417 26.5046H27.058V30.1735H20.9417V26.5046Z" fill="#FF9C33"/>
<path d="M27.0581 26.5046H33.1744V30.1735H27.0581V26.5046Z" fill="#FFD5BA"/>
<path d="M33.1746 26.5046H39.2909V30.1735H33.1746V26.5046Z" fill="#FF9C33"/>
<path d="M42.3491 33.8423H36.2328V30.1734H42.3491V33.8423Z" fill="#FFD5BA"/>
<path d="M36.2327 33.8423H30.1163V30.1734H36.2327V33.8423Z" fill="#FFAA66"/>
<path d="M24 33.8423H17.8837V30.1734H24V33.8423Z" fill="#FFAA66"/>
<path d="M11.7673 33.8423H5.65099V30.1734H11.7673V33.8423Z" fill="#FFD5BA"/>
<path d="M8.70898 33.8423H14.8253V37.5112H8.70898V33.8423Z" fill="#FFAA66"/>
<path d="M14.8254 33.8423H20.9418V37.5112H14.8254V33.8423Z" fill="#FFD5BA"/>
<path d="M20.9417 33.8423H27.058V37.5112H20.9417V33.8423Z" fill="#FF9C33"/>
<path d="M27.0581 33.8423H33.1744V37.5112H27.0581V33.8423Z" fill="#FFD5BA"/>
<path d="M39.2908 33.8423H42.349V37.5112H39.2908V33.8423Z" fill="#FFAA66"/>
<path d="M43.3282 39.6858H4.67188C4.41303 39.6858 4.20312 39.4759 4.20312 39.217V37.98C4.20312 37.7211 4.41303 37.5112 4.67188 37.5112H43.3283C43.5871 37.5112 43.797 37.7211 43.797 37.98V39.217C43.7969 39.4759 43.5871 39.6858 43.3282 39.6858Z" fill="#FF6C6C"/>
<path d="M36.2327 24.2546C39.3393 24.2546 41.8577 21.7362 41.8577 18.6296C41.8577 15.523 39.3393 13.0046 36.2327 13.0046C33.1261 13.0046 30.6077 15.523 30.6077 18.6296C30.6077 21.7362 33.1261 24.2546 36.2327 24.2546Z" fill="#FF6C6C"/>
<path d="M43.3282 37.0424H42.8175V23.7728C42.8175 22.9974 42.1867 22.3666 41.4113 22.3666H41.041C41.8455 21.3337 42.3266 20.0371 42.3266 18.6296C42.3266 15.2969 39.637 12.582 36.3145 12.5379C36.1232 11.4697 35.7964 10.436 35.3393 9.45718C35.9741 8.81715 35.9727 7.78008 35.3348 7.14202C35.0248 6.83218 34.6129 6.66146 34.1746 6.66146C33.9837 6.66146 33.7984 6.69568 33.6237 6.75793C33.3818 6.46777 33.1242 6.18558 32.8543 5.91577C29.9425 3.00399 25.8334 1.72655 21.7948 2.4578C21.7249 2.3394 21.6413 2.22821 21.5415 2.12846C20.9019 1.4888 19.8611 1.48871 19.2213 2.12846C18.9115 2.4384 18.7408 2.85033 18.7408 3.28861C18.7408 3.33399 18.7438 3.3789 18.7474 3.42371C17.4264 4.03815 16.2308 4.87487 15.1898 5.91577C12.7736 8.33199 11.4542 11.643 11.5352 15.0517C11.3307 15.1332 11.1427 15.2553 10.9823 15.4156C10.3426 16.0553 10.3426 17.0961 10.9823 17.7359C11.2628 18.0164 11.6273 18.1814 12.0188 18.2103C12.2319 18.95 12.5131 19.6707 12.8579 20.357C12.9403 20.5209 13.1055 20.6154 13.2772 20.6154C13.3479 20.6154 13.4198 20.5994 13.4873 20.5654C13.7186 20.4492 13.8119 20.1675 13.6957 19.9362C13.3861 19.32 13.1324 18.6736 12.9374 18.0105C13.0695 17.9371 13.1926 17.8456 13.3024 17.7359C13.6123 17.426 13.783 17.014 13.783 16.5757C13.783 16.1375 13.6122 15.7255 13.3024 15.4156C13.2955 15.4087 13.2877 15.4027 13.2807 15.3959C13.8006 14.5364 14.4253 13.7397 15.142 13.023C15.4274 12.7375 15.7286 12.4642 16.0404 12.2071C16.1904 12.3219 16.3558 12.4073 16.5288 12.4636C16.6381 15.8802 18.0206 19.078 20.4471 21.5044C20.4607 21.518 20.4729 21.5297 20.4862 21.543C20.3664 21.801 20.3151 22.0847 20.338 22.3665H6.58878C5.81337 22.3665 5.18253 22.9973 5.18253 23.7727V37.0423H4.67188C4.15494 37.0423 3.73438 37.4628 3.73438 37.9798V39.2168C3.73438 39.7337 4.15494 40.1543 4.67188 40.1543H30.021C30.2799 40.1543 30.4898 39.9444 30.4898 39.6856C30.4898 39.4267 30.2799 39.2168 30.021 39.2168H4.67188V37.9798H43.3283V39.2168H32.9776C32.7188 39.2168 32.5089 39.4267 32.5089 39.6856C32.5089 39.9444 32.7188 40.1543 32.9776 40.1543H43.3283C43.8452 40.1543 44.2658 39.7337 44.2658 39.2168V37.9798C44.2657 37.4629 43.8452 37.0424 43.3282 37.0424ZM41.389 18.6296C41.389 21.4727 39.0759 23.7858 36.2327 23.7858C33.3896 23.7858 31.0765 21.4727 31.0765 18.6296C31.0765 15.7864 33.3896 13.4733 36.2327 13.4733C39.0759 13.4733 41.389 15.7864 41.389 18.6296ZM23.1333 21.0741C22.9273 20.8681 22.6799 20.7288 22.4177 20.6557C22.556 17.5366 23.8383 14.6187 26.0564 12.4005C26.5552 11.9017 27.0946 11.4469 27.6635 11.0431C27.9734 11.3192 28.3627 11.4592 28.7531 11.4592C29.1732 11.4592 29.5933 11.2993 29.9132 10.9795C29.9345 10.9582 29.9534 10.9353 29.9734 10.9132C30.9995 11.478 31.9426 12.1856 32.7803 13.0232C32.8993 13.1422 33.0162 13.2643 33.1309 13.3884C31.3415 14.4509 30.1391 16.4018 30.1391 18.6296C30.1391 20.0371 30.6201 21.3338 31.4247 22.3666H23.6082C23.6461 21.8989 23.4833 21.4241 23.1333 21.0741ZM22.6636 22.3666H21.2827C21.2396 22.143 21.3069 21.9061 21.4759 21.7371C21.7501 21.4629 22.1964 21.463 22.4705 21.7371C22.6395 21.9061 22.7068 22.143 22.6636 22.3666ZM28.2559 9.32218C28.5301 9.04805 28.9762 9.04805 29.2503 9.32218C29.3832 9.45502 29.4562 9.63155 29.4562 9.81933C29.4562 10.0071 29.3831 10.1837 29.2502 10.3165C28.9762 10.5907 28.53 10.5907 28.2558 10.3165C27.9819 10.0424 27.9819 9.5963 28.2559 9.32218ZM35.3728 12.5976C34.8976 12.665 34.4402 12.7882 34.0065 12.9589C33.8248 12.754 33.6364 12.5532 33.4431 12.3601C32.529 11.446 31.4972 10.6762 30.3737 10.0644C30.3857 9.98387 30.3938 9.9023 30.3938 9.81933C30.3938 9.74002 30.3863 9.66202 30.3753 9.58487C31.1159 9.29874 31.8834 9.08387 32.6658 8.94362C32.7456 9.13205 32.8612 9.30877 33.0146 9.46215C33.3344 9.78193 33.7545 9.94187 34.1746 9.94187C34.2888 9.94187 34.4027 9.92902 34.5149 9.9054C34.9101 10.7629 35.1972 11.6657 35.3728 12.5976ZM34.6718 7.80493C34.9459 8.07905 34.9459 8.52512 34.6718 8.79924C34.3977 9.07346 33.9515 9.07346 33.6774 8.79924C33.4032 8.52502 33.4032 8.07896 33.6774 7.80483C33.8102 7.67199 33.9868 7.59887 34.1745 7.59887C34.3624 7.59896 34.539 7.67208 34.6718 7.80493ZM19.8843 2.79137C20.0214 2.6543 20.2014 2.58577 20.3815 2.58577C20.5616 2.58577 20.7416 2.6543 20.8786 2.79137C21.0115 2.92421 21.0846 3.10074 21.0846 3.28852C21.0846 3.4763 21.0115 3.65293 20.8786 3.78568C20.6046 4.0599 20.1585 4.05999 19.8843 3.78568C19.7515 3.65283 19.6784 3.4763 19.6784 3.28852C19.6783 3.10083 19.7515 2.92421 19.8843 2.79137ZM19.7563 4.80502C19.956 4.88705 20.1687 4.9284 20.3815 4.9284C20.8015 4.9284 21.2218 4.76846 21.5415 4.44868C21.832 4.15833 21.9981 3.77799 22.0182 3.37065C25.736 2.71636 29.5119 3.89902 32.1914 6.57858C32.4275 6.81474 32.6529 7.0613 32.8659 7.31415C32.7077 7.52387 32.6061 7.76283 32.5617 8.01043C31.679 8.16455 30.8137 8.4068 29.9803 8.73315C29.9583 8.7083 29.937 8.6829 29.9133 8.65927C29.2736 8.01962 28.2328 8.01971 27.5931 8.65927C27.5237 8.72865 27.4628 8.80308 27.4085 8.8808C24.3136 8.05852 21.0687 8.35974 18.189 9.73655C18.0538 9.60362 17.8988 9.49852 17.7318 9.42043C18.0847 7.76433 18.7784 6.18183 19.7563 4.80502ZM12.6397 17.073C12.5068 17.2058 12.3303 17.2788 12.1425 17.2788C11.9548 17.2788 11.7781 17.2057 11.6454 17.0729C11.3713 16.7987 11.3713 16.3527 11.6454 16.0786C11.7782 15.9457 11.9548 15.8726 12.1425 15.8726C12.3303 15.8726 12.5069 15.9457 12.6398 16.0786C12.7726 16.2114 12.8457 16.3879 12.8457 16.5757C12.8457 16.7635 12.7725 16.9401 12.6397 17.073ZM15.8795 9.7463C15.5696 10.0561 15.3989 10.4682 15.3989 10.9065C15.3989 11.0932 15.4318 11.2745 15.4913 11.4459C15.1396 11.7332 14.8001 12.0392 14.4793 12.3601C13.7051 13.1343 13.0317 13.9966 12.471 14.9263C12.4248 11.8095 13.6423 8.78921 15.8528 6.57868C16.753 5.67849 17.7777 4.94349 18.9051 4.38737C17.888 5.85521 17.1668 7.53221 16.8016 9.28487C16.4538 9.33512 16.1324 9.49337 15.8795 9.7463ZM16.5424 11.4036C16.4096 11.2708 16.3364 11.0942 16.3364 10.9065C16.3364 10.7187 16.4096 10.5421 16.5424 10.4092C16.6752 10.2764 16.8518 10.2032 17.0396 10.2032C17.2273 10.2032 17.404 10.2764 17.5367 10.4092C17.8108 10.6833 17.8108 11.1294 17.5367 11.4035C17.2626 11.6777 16.8165 11.6777 16.5424 11.4036ZM17.4683 12.4882C17.7363 12.416 17.9897 12.2764 18.1997 12.0665C18.6081 11.6581 18.7544 11.0865 18.6414 10.5599C21.2912 9.30671 24.2699 9.03033 27.116 9.77358C27.1118 9.93146 27.1294 10.0899 27.1703 10.2436C26.5404 10.6863 25.9438 11.1874 25.3936 11.7376C22.9947 14.1365 21.6136 17.2964 21.4785 20.672C21.3506 20.7124 21.2264 20.7686 21.1096 20.841C18.8663 18.5973 17.5829 15.6448 17.4683 12.4882ZM41.88 37.0424H6.12003V23.7728C6.12003 23.5143 6.33031 23.3041 6.58878 23.3041H32.3288C33.3869 24.1892 34.7485 24.7233 36.2327 24.7233C37.717 24.7233 39.0785 24.1893 40.1367 23.3041H41.4112C41.6697 23.3041 41.8799 23.5143 41.8799 23.7728V37.0424H41.88Z" fill="#0000CB"/>
<path d="M38.7693 17.3237V19.825C38.7693 21.4956 36.6093 22.1369 36.2756 22.2259C36.2474 22.2334 36.2184 22.2334 36.1893 22.2259C35.8565 22.1369 33.6956 21.4956 33.6956 19.825V17.3237L36.2324 16.855L38.7693 17.3237Z" fill="white"/>
<path d="M36.7697 20.5764H35.6951C35.4362 20.5764 35.2263 20.3665 35.2263 20.1077C35.2263 19.8488 35.4362 19.6389 35.6951 19.6389H36.7697C37.0286 19.6389 37.2385 19.8488 37.2385 20.1077C37.2385 20.3665 37.0287 20.5764 36.7697 20.5764Z" fill="#FFAA66"/>
<path d="M37.1575 18.9065H35.3076C35.0488 18.9065 34.8389 18.6966 34.8389 18.4377C34.8389 18.1789 35.0488 17.969 35.3076 17.969H37.1575C37.4163 17.969 37.6262 18.1789 37.6262 18.4377C37.6262 18.6966 37.4163 18.9065 37.1575 18.9065Z" fill="#FFAA66"/>
<path d="M38.7696 17.3238V16.2463C38.7696 15.9875 38.5597 15.7776 38.3009 15.7776H34.1646C33.9057 15.7776 33.6958 15.9875 33.6958 16.2463V17.3238H38.7696Z" fill="#D8D8FF"/>
<path d="M7.72485 14.2913C7.46601 14.2913 7.2561 14.0814 7.2561 13.8225C7.2561 13.5382 7.02482 13.3069 6.74048 13.3069C6.48163 13.3069 6.27173 13.097 6.27173 12.8381C6.27173 12.5793 6.48163 12.3694 6.74048 12.3694C7.02482 12.3694 7.2561 12.1381 7.2561 11.8538C7.2561 11.5949 7.46601 11.385 7.72485 11.385C7.9837 11.385 8.1936 11.5949 8.1936 11.8538C8.1936 12.1381 8.42488 12.3694 8.70923 12.3694C8.96807 12.3694 9.17798 12.5793 9.17798 12.8381C9.17798 13.097 8.96807 13.3069 8.70923 13.3069C8.42488 13.3069 8.1936 13.5382 8.1936 13.8225C8.1936 14.0814 7.9837 14.2913 7.72485 14.2913Z" fill="#FF9C33"/>
<path d="M32.4246 2.90625C32.1657 2.90625 31.9558 2.69634 31.9558 2.4375C31.9558 2.15316 31.7245 1.92188 31.4402 1.92188C31.1813 1.92188 30.9714 1.71197 30.9714 1.45312C30.9714 1.19428 31.1813 0.984375 31.4402 0.984375C31.7245 0.984375 31.9558 0.753094 31.9558 0.46875C31.9558 0.209906 32.1657 0 32.4246 0C32.6834 0 32.8933 0.209906 32.8933 0.46875C32.8933 0.753094 33.1246 0.984375 33.4089 0.984375C33.6678 0.984375 33.8777 1.19428 33.8777 1.45312C33.8777 1.71197 33.6678 1.92188 33.4089 1.92188C33.1246 1.92188 32.8933 2.15316 32.8933 2.4375C32.8933 2.69634 32.6834 2.90625 32.4246 2.90625Z" fill="#FF6C6C"/>
<path d="M39.6407 10.757C39.5207 10.757 39.4008 10.7112 39.3092 10.6197C39.1261 10.4366 39.1261 10.1398 39.3092 9.95683L40.2467 9.01933C40.4298 8.83633 40.7265 8.83633 40.9096 9.01933C41.0927 9.20242 41.0927 9.49924 40.9096 9.68224L39.9721 10.6197C39.8806 10.7111 39.7606 10.757 39.6407 10.757Z" fill="#6C6CFF"/>
<path d="M44.8546 32.9455C44.7346 32.9455 44.6147 32.8997 44.5231 32.8082C44.34 32.6251 44.34 32.3283 44.5231 32.1453L45.4606 31.2078C45.6437 31.0248 45.9404 31.0248 46.1235 31.2078C46.3066 31.3909 46.3066 31.6877 46.1235 31.8707L45.186 32.8082C45.0945 32.8997 44.9746 32.9455 44.8546 32.9455Z" fill="#FF9C33"/>
<path d="M5.5489 19.942C5.4289 19.942 5.30899 19.8963 5.2174 19.8048C5.0343 19.6217 5.0343 19.3249 5.2174 19.1419L6.1549 18.2044C6.33799 18.0214 6.63471 18.0214 6.8178 18.2044C7.0009 18.3875 7.0009 18.6843 6.8178 18.8673L5.8803 19.8048C5.7889 19.8962 5.6689 19.942 5.5489 19.942Z" fill="#FF6C6C"/>
<defs>
<linearGradient id="paint0_linear_139_1999" x1="11.3611" y1="35.2545" x2="41.1778" y2="5.43784" gradientUnits="userSpaceOnUse">
<stop stop-color="white" stop-opacity="0"/>
<stop offset="0.2617" stop-color="#EDEDFF" stop-opacity="0.416"/>
<stop offset="0.629" stop-color="#D8D8FF"/>
</linearGradient>
</defs>
</svg>
