<svg width="61" height="40" viewBox="0 0 61 40" fill="none" xmlns="http://www.w3.org/2000/svg">
<path d="M10.5797 16.5995C10.4883 16.5995 10.4654 16.5546 10.5111 16.4872L10.9909 15.8804C11.0366 15.813 11.1508 15.7681 11.2422 15.7681H19.3983C19.4896 15.7681 19.5125 15.8355 19.4668 15.9029L19.0784 16.4872C19.0327 16.5546 18.9185 16.622 18.8499 16.622L10.5797 16.5995Z" fill="#00ACD7"/>
<path d="M7.12996 18.667C7.03857 18.667 7.01573 18.6221 7.06142 18.5546L7.54119 17.9478C7.58688 17.8804 7.70111 17.8354 7.7925 17.8354H18.2103C18.3017 17.8354 18.3474 17.903 18.3245 17.9704L18.1418 18.5096C18.1189 18.5995 18.0275 18.6444 17.9362 18.6444L7.12996 18.667Z" fill="#00ACD7"/>
<path d="M12.6588 20.7343C12.5674 20.7343 12.5445 20.6669 12.5902 20.5995L12.9101 20.0377C12.9558 19.9702 13.0472 19.9028 13.1385 19.9028H17.7078C17.7991 19.9028 17.8448 19.9702 17.8448 20.0601L17.7991 20.5995C17.7991 20.6893 17.7078 20.7568 17.6392 20.7568L12.6588 20.7343Z" fill="#00ACD7"/>
<path d="M36.373 16.195C34.9337 16.5546 33.9513 16.8242 32.5349 17.1838C32.1922 17.2737 32.1693 17.2962 31.8723 16.9591C31.5296 16.5771 31.2783 16.3299 30.7986 16.1052C29.3593 15.4085 27.9657 15.6108 26.6634 16.4422C25.1099 17.431 24.3103 18.8916 24.3331 20.7118C24.356 22.5096 25.6125 23.9927 27.4173 24.2399C28.9709 24.4421 30.2731 23.9028 31.3012 22.7567C31.5068 22.5096 31.6896 22.2399 31.918 21.9253H27.5087C27.029 21.9253 26.9147 21.6332 27.0747 21.2511C27.3717 20.5545 27.92 19.386 28.2398 18.8017C28.3083 18.6669 28.4683 18.4422 28.811 18.4422H37.1269C37.0812 19.0489 37.0812 19.6557 36.9899 20.2624C36.7386 21.8804 36.1217 23.3635 35.1165 24.6668C33.4716 26.8016 31.324 28.1274 28.6053 28.487C26.3664 28.7791 24.2874 28.3522 22.4597 27.0039C20.7691 25.7455 19.8096 24.0826 19.5583 22.0152C19.2613 19.5658 19.9924 17.3636 21.5002 15.431C23.1223 13.3412 25.2698 12.0153 27.8971 11.5434C30.0446 11.1614 32.1008 11.4086 33.9513 12.6445C35.1622 13.431 36.0303 14.5097 36.6015 15.813C36.7386 16.0153 36.6472 16.1276 36.373 16.195Z" fill="#00ACD7"/>
<path d="M43.9352 28.6217C41.8562 28.5768 39.96 27.9925 38.3608 26.6442C37.0128 25.4982 36.1675 24.0375 35.8934 22.3072C35.4821 19.7679 36.1904 17.5208 37.7439 15.5208C39.4117 13.3636 41.4221 12.24 44.1408 11.7681C46.4711 11.3636 48.6643 11.5883 50.652 12.9141C52.4568 14.1276 53.5762 15.768 53.8732 17.9253C54.2616 20.9589 53.3706 23.4308 51.2459 25.5431C49.7381 27.0487 47.8876 27.9925 45.7629 28.4195C45.146 28.5319 44.5292 28.5543 43.9352 28.6217ZM49.3726 19.5432C49.3497 19.2511 49.3497 19.0264 49.304 18.8017C48.8928 16.577 46.8138 15.3186 44.6434 15.813C42.5187 16.2849 41.148 17.6107 40.6454 19.723C40.2341 21.4758 41.1023 23.251 42.7472 23.9701C44.0037 24.5094 45.2603 24.442 46.4711 23.8353C48.276 22.914 49.2583 21.4758 49.3726 19.5432Z" fill="#00ACD7"/>
</svg>
