<svg width="40" height="40" viewBox="0 0 40 40" fill="none" xmlns="http://www.w3.org/2000/svg">
<path d="M19.8213 5.00024C18.5845 5.00593 17.4032 5.11184 16.3637 5.29657C13.3013 5.8394 12.7454 6.97597 12.7454 9.0717V11.8397H19.9816V12.7623H10.0299C7.92672 12.7623 6.08534 14.0311 5.50942 16.4445C4.84498 19.2109 4.81556 20.9372 5.50942 23.8257C6.02381 25.9759 7.25202 27.5079 9.35519 27.5079H11.8432V24.1898C11.8432 21.7926 13.9097 19.6779 16.3637 19.6779H23.591C25.6032 19.6779 27.2092 18.0153 27.2092 15.9873V9.07197C27.2092 7.10355 25.5549 5.62487 23.5913 5.29657C22.3482 5.08882 21.0585 4.99455 19.8213 5.00024ZM15.9081 7.22653C16.6557 7.22653 17.2659 7.84899 17.2659 8.61474C17.2659 9.37751 16.6557 9.99428 15.9084 9.99428C15.1581 9.99428 14.5503 9.37751 14.5503 8.61474C14.5503 7.84899 15.1581 7.22653 15.9081 7.22653Z" fill="url(#paint0_linear_216_176)"/>
<path d="M28.1114 12.7632V15.9882C28.1114 18.4886 25.9994 20.593 23.591 20.593H16.3634C14.3835 20.593 12.7451 22.2938 12.7451 24.2836V31.1994C12.7451 33.1676 14.4505 34.3253 16.3634 34.89C18.6538 35.5659 20.8504 35.688 23.5907 34.89C25.4127 34.3605 27.209 33.2952 27.209 31.1994V28.4314H19.9814V27.5088H30.827C32.9301 27.5088 33.7138 26.0364 34.4452 23.8266C35.2006 21.5516 35.1685 19.3638 34.4452 16.4454C33.9254 14.3443 32.9328 12.7632 30.827 12.7632H28.1114ZM24.0463 30.2766C24.7965 30.2766 25.4043 30.8936 25.4043 31.6564C25.4043 32.4221 24.7965 33.0446 24.0463 33.0446C23.2987 33.0446 22.6888 32.4221 22.6888 31.6564C22.6888 30.8936 23.2987 30.2766 24.0463 30.2766Z" fill="url(#paint1_linear_216_176)"/>
<defs>
<linearGradient id="paint0_linear_216_176" x1="4.99993" y1="5.00009" x2="21.737" y2="19.2102" gradientUnits="userSpaceOnUse">
<stop stop-color="#5A9FD4"/>
<stop offset="1" stop-color="#306998"/>
</linearGradient>
<linearGradient id="paint1_linear_216_176" x1="23.8724" y1="31.4238" x2="17.857" y2="23.0253" gradientUnits="userSpaceOnUse">
<stop stop-color="#FFD43B"/>
<stop offset="1" stop-color="#FFE873"/>
</linearGradient>
</defs>
</svg>
