<svg width="40" height="40" viewBox="0 0 40 40" fill="none" xmlns="http://www.w3.org/2000/svg">
<path d="M32.6693 27.5011C32.8733 27.1388 33.0001 26.7305 33.0001 26.3639V13.6385C33.0001 13.2719 32.8735 12.8638 32.6694 12.5015L20 20.0013L32.6693 27.5011Z" fill="#00599C"/>
<path d="M21.1257 34.7252L31.8741 28.3625C32.1837 28.1792 32.4651 27.8627 32.6691 27.5003L19.9998 20.0005L7.33057 27.5004C7.53457 27.8627 7.81607 28.1793 8.12561 28.3625L18.874 34.7252C19.4932 35.0918 20.5065 35.0918 21.1257 34.7252Z" fill="#004482"/>
<path d="M32.6694 12.4998C32.4653 12.1374 32.1838 11.8209 31.8743 11.6376L21.1259 5.27495C20.5067 4.90835 19.4934 4.90835 18.8742 5.27495L8.12582 11.6376C7.50658 12.0041 7 12.9039 7 13.637V26.3623C7 26.7289 7.12669 27.1372 7.33078 27.4995L20 19.9997L32.6694 12.4998Z" fill="#659AD2"/>
<path d="M19.9997 28.887C15.2209 28.887 11.333 24.9007 11.333 20.0009C11.333 15.101 15.2209 11.1147 19.9997 11.1147C23.0834 11.1147 25.9593 12.8162 27.505 15.555L23.7543 17.7804C22.9806 16.4095 21.5419 15.5578 19.9997 15.5578C17.6102 15.5578 15.6664 17.5509 15.6664 20.0009C15.6664 22.4507 17.6102 24.4439 19.9997 24.4439C21.542 24.4439 22.9808 23.5923 23.7545 22.2211L27.5052 24.4464C25.9595 27.1855 23.0835 28.887 19.9997 28.887Z" fill="white"/>
<path d="M27.7037 18.5195H26.7409V19.5068H25.7778V20.4942H26.7409V21.4816H27.7037V20.4942H28.6667V19.5068H27.7037V18.5195ZM31.3148 18.5195H30.352V19.5068H29.389V20.4942H30.352V21.4816H31.3148V20.4942H32.2779V19.5068H31.3148V18.5195Z" fill="white"/>
</svg>
