<svg width="40" height="40" viewBox="0 0 40 40" fill="none" xmlns="http://www.w3.org/2000/svg">
<g clip-path="url(#clip0_216_206)">
<mask id="mask0_216_206" style="mask-type:luminance" maskUnits="userSpaceOnUse" x="0" y="0" width="40" height="40">
<path d="M40 0H0V40H40V0Z" fill="white"/>
</mask>
<g mask="url(#mask0_216_206)">
<mask id="mask1_216_206" style="mask-type:luminance" maskUnits="userSpaceOnUse" x="7" y="7" width="26" height="26">
<path d="M33 7H7V33H33V7Z" fill="white"/>
</mask>
<g mask="url(#mask1_216_206)">
<path fill-rule="evenodd" clip-rule="evenodd" d="M27.1432 24.1612L12.2988 33.0002L31.5195 31.6923L32.9999 12.2573L27.1432 24.1612Z" fill="url(#paint0_linear_216_206)"/>
<path fill-rule="evenodd" clip-rule="evenodd" d="M31.5513 31.6787L29.8993 20.2446L25.3994 26.2031L31.5513 31.6787Z" fill="url(#paint1_linear_216_206)"/>
<path fill-rule="evenodd" clip-rule="evenodd" d="M31.5735 31.6788L19.4705 30.7261L12.3633 32.9751L31.5735 31.6788Z" fill="url(#paint2_linear_216_206)"/>
<path fill-rule="evenodd" clip-rule="evenodd" d="M12.3802 32.9775L15.4037 23.0449L8.75049 24.4715L12.3802 32.9775Z" fill="url(#paint3_linear_216_206)"/>
<path fill-rule="evenodd" clip-rule="evenodd" d="M25.3979 26.236L22.6158 15.3086L14.6543 22.7922L25.3979 26.236Z" fill="url(#paint4_linear_216_206)"/>
<path fill-rule="evenodd" clip-rule="evenodd" d="M32.3686 15.4626L24.8428 9.29883L22.7471 16.0929L32.3686 15.4626Z" fill="url(#paint5_linear_216_206)"/>
<path fill-rule="evenodd" clip-rule="evenodd" d="M28.8492 7.10126L24.4229 9.55414L21.6304 7.06836L28.8492 7.10126Z" fill="url(#paint6_linear_216_206)"/>
<path fill-rule="evenodd" clip-rule="evenodd" d="M7 27.8036L8.85424 24.4124L7.35431 20.3726L7 27.8036Z" fill="url(#paint7_linear_216_206)"/>
<path fill-rule="evenodd" clip-rule="evenodd" d="M7.25439 20.2448L8.7635 24.5373L15.3209 23.062L22.8074 16.085L24.9202 9.3555L21.5934 7L15.9376 9.12258C14.1556 10.7846 10.6978 14.0731 10.5731 14.1349C10.4498 14.1981 8.28978 18.2919 7.25439 20.2448Z" fill="white"/>
<path fill-rule="evenodd" clip-rule="evenodd" d="M12.5535 12.5333C16.4155 8.69344 21.3943 6.42479 23.305 8.35788C25.2144 10.291 23.1895 14.9888 19.3275 18.8274C15.4655 22.6659 10.5484 25.0596 8.63903 23.1265C6.72837 21.1947 8.69152 16.3718 12.5535 12.5333Z" fill="url(#paint8_linear_216_206)"/>
<path fill-rule="evenodd" clip-rule="evenodd" d="M12.3804 32.9734L15.3802 23.0093L25.343 26.2188C21.7408 29.606 17.7344 32.4694 12.3804 32.9734Z" fill="url(#paint9_linear_216_206)"/>
<path fill-rule="evenodd" clip-rule="evenodd" d="M22.8208 16.0654L25.3784 26.2243C28.3874 23.0516 31.0881 19.6407 32.4107 15.4219L22.8208 16.0654Z" fill="url(#paint10_linear_216_206)"/>
<path fill-rule="evenodd" clip-rule="evenodd" d="M32.3847 15.4731C33.4083 12.3754 33.6445 7.93153 28.8179 7.10645L24.8574 9.30009L32.3847 15.4731Z" fill="url(#paint11_linear_216_206)"/>
<path fill-rule="evenodd" clip-rule="evenodd" d="M7 27.7585C7.14173 32.871 10.82 32.9472 12.3869 32.9921L8.76763 24.5161L7 27.7585Z" fill="#9E1209"/>
<path fill-rule="evenodd" clip-rule="evenodd" d="M22.835 16.0814C25.1472 17.5065 29.8072 20.3687 29.9017 20.4213C30.0485 20.5042 31.9108 17.2723 32.3333 15.4458L22.835 16.0814Z" fill="url(#paint12_radial_216_206)"/>
<path fill-rule="evenodd" clip-rule="evenodd" d="M15.376 23.0093L19.3863 30.768C21.7575 29.4784 23.6144 27.9071 25.3151 26.2241L15.376 23.0093Z" fill="url(#paint13_radial_216_206)"/>
<path fill-rule="evenodd" clip-rule="evenodd" d="M8.75181 24.5266L8.18359 31.3115C9.25572 32.7801 10.7307 32.9077 12.2779 32.7932C11.1585 29.9995 8.9224 24.4134 8.75181 24.5266Z" fill="url(#paint14_linear_216_206)"/>
<path fill-rule="evenodd" clip-rule="evenodd" d="M24.834 9.31758L32.8008 10.4387C32.3756 8.63198 31.0699 7.46607 28.8443 7.10156L24.834 9.31758Z" fill="url(#paint15_linear_216_206)"/>
</g>
</g>
</g>
<defs>
<linearGradient id="paint0_linear_216_206" x1="29.843" y1="35.3648" x2="24.335" y2="25.667" gradientUnits="userSpaceOnUse">
<stop stop-color="#FB7655"/>
<stop offset="0.41" stop-color="#E42B1E"/>
<stop offset="0.99" stop-color="#990000"/>
<stop offset="1" stop-color="#990000"/>
</linearGradient>
<linearGradient id="paint1_linear_216_206" x1="32.5757" y1="27.2069" x2="25.4946" y2="22.4682" gradientUnits="userSpaceOnUse">
<stop stop-color="#871101"/>
<stop offset="0.99" stop-color="#911209"/>
<stop offset="1" stop-color="#911209"/>
</linearGradient>
<linearGradient id="paint2_linear_216_206" x1="26.9197" y1="35.6588" x2="19.8389" y2="30.9204" gradientUnits="userSpaceOnUse">
<stop stop-color="#871101"/>
<stop offset="0.99" stop-color="#911209"/>
<stop offset="1" stop-color="#911209"/>
</linearGradient>
<linearGradient id="paint3_linear_216_206" x1="12.0779" y1="23.7635" x2="13.1797" y2="30.9042" gradientUnits="userSpaceOnUse">
<stop stop-color="white"/>
<stop offset="0.23" stop-color="#E57252"/>
<stop offset="0.46" stop-color="#DE3B20"/>
<stop offset="0.99" stop-color="#A60003"/>
<stop offset="1" stop-color="#A60003"/>
</linearGradient>
<linearGradient id="paint4_linear_216_206" x1="19.615" y1="17.095" x2="20.021" y2="24.3833" gradientUnits="userSpaceOnUse">
<stop stop-color="white"/>
<stop offset="0.23" stop-color="#E4714E"/>
<stop offset="0.56" stop-color="#BE1A0D"/>
<stop offset="0.99" stop-color="#A80D00"/>
<stop offset="1" stop-color="#A80D00"/>
</linearGradient>
<linearGradient id="paint5_linear_216_206" x1="26.3037" y1="10.3583" x2="27.5189" y2="15.5804" gradientUnits="userSpaceOnUse">
<stop stop-color="white"/>
<stop offset="0.18" stop-color="#E46342"/>
<stop offset="0.4" stop-color="#C82410"/>
<stop offset="0.99" stop-color="#A80D00"/>
<stop offset="1" stop-color="#A80D00"/>
</linearGradient>
<linearGradient id="paint6_linear_216_206" x1="22.6127" y1="8.5187" x2="27.8273" y2="5.91868" gradientUnits="userSpaceOnUse">
<stop stop-color="white"/>
<stop offset="0.54" stop-color="#C81F11"/>
<stop offset="0.99" stop-color="#BF0905"/>
<stop offset="1" stop-color="#BF0905"/>
</linearGradient>
<linearGradient id="paint7_linear_216_206" x1="7.51222" y1="21.9431" x2="7.94329" y2="26.247" gradientUnits="userSpaceOnUse">
<stop stop-color="white"/>
<stop offset="0.31" stop-color="#DE4024"/>
<stop offset="0.99" stop-color="#BF190B"/>
<stop offset="1" stop-color="#BF190B"/>
</linearGradient>
<linearGradient id="paint8_linear_216_206" x1="4.565" y1="27.4104" x2="24.7752" y2="6.68633" gradientUnits="userSpaceOnUse">
<stop stop-color="#BD0012"/>
<stop offset="0.07" stop-color="white"/>
<stop offset="0.17" stop-color="white"/>
<stop offset="0.27" stop-color="#C82F1C"/>
<stop offset="0.33" stop-color="#820C01"/>
<stop offset="0.46" stop-color="#A31601"/>
<stop offset="0.72" stop-color="#B31301"/>
<stop offset="0.99" stop-color="#E82609"/>
<stop offset="1" stop-color="#E82609"/>
</linearGradient>
<linearGradient id="paint9_linear_216_206" x1="20.0013" y1="29.5064" x2="13.9292" y2="28.0119" gradientUnits="userSpaceOnUse">
<stop stop-color="#8C0C01"/>
<stop offset="0.54" stop-color="#990C00"/>
<stop offset="0.99" stop-color="#A80D0E"/>
<stop offset="1" stop-color="#A80D0E"/>
</linearGradient>
<linearGradient id="paint10_linear_216_206" x1="30.4275" y1="22.2008" x2="25.0216" y2="17.3691" gradientUnits="userSpaceOnUse">
<stop stop-color="#7E110B"/>
<stop offset="0.99" stop-color="#9E0C00"/>
<stop offset="1" stop-color="#9E0C00"/>
</linearGradient>
<linearGradient id="paint11_linear_216_206" x1="32.4088" y1="13.308" x2="29.7147" y2="10.4358" gradientUnits="userSpaceOnUse">
<stop stop-color="#79130D"/>
<stop offset="0.99" stop-color="#9E120B"/>
<stop offset="1" stop-color="#9E120B"/>
</linearGradient>
<radialGradient id="paint12_radial_216_206" cx="0" cy="0" r="1" gradientUnits="userSpaceOnUse" gradientTransform="translate(25.8745 17.4471) scale(6.60828 6.62667)">
<stop stop-color="#A80D00"/>
<stop offset="0.99" stop-color="#7E0E08"/>
<stop offset="1" stop-color="#7E0E08"/>
</radialGradient>
<radialGradient id="paint13_radial_216_206" cx="0" cy="0" r="1" gradientUnits="userSpaceOnUse" gradientTransform="translate(16.7227 26.1795) scale(8.78482 8.80927)">
<stop stop-color="#A30C00"/>
<stop offset="0.99" stop-color="#800E08"/>
<stop offset="1" stop-color="#800E08"/>
</radialGradient>
<linearGradient id="paint14_linear_216_206" x1="10.4997" y1="32.9677" x2="8.29949" y2="25.5237" gradientUnits="userSpaceOnUse">
<stop stop-color="#8B2114"/>
<stop offset="0.43" stop-color="#9E100A"/>
<stop offset="0.99" stop-color="#B3100C"/>
<stop offset="1" stop-color="#B3100C"/>
</linearGradient>
<linearGradient id="paint15_linear_216_206" x1="27.2933" y1="8.28956" x2="32.2054" y2="10.4518" gradientUnits="userSpaceOnUse">
<stop stop-color="#B31000"/>
<stop offset="0.44" stop-color="#910F08"/>
<stop offset="0.99" stop-color="#791C12"/>
<stop offset="1" stop-color="#791C12"/>
</linearGradient>
<clipPath id="clip0_216_206">
<rect width="40" height="40" fill="white"/>
</clipPath>
</defs>
</svg>
