<svg width="40" height="40" viewBox="0 0 40 40" fill="none" xmlns="http://www.w3.org/2000/svg">
<g clip-path="url(#clip0_216_162)">
<mask id="mask0_216_162" style="mask-type:luminance" maskUnits="userSpaceOnUse" x="0" y="0" width="40" height="40">
<path d="M40 0H0V40H40V0Z" fill="white"/>
</mask>
<g mask="url(#mask0_216_162)">
<path d="M35.1258 20.3364C35.1258 18.3527 32.6266 16.4728 28.7948 15.307C29.6791 11.4251 29.2861 8.33669 27.5544 7.34791C27.1553 7.11597 26.6886 7.0061 26.1789 7.0061V8.36721C26.4614 8.36721 26.6886 8.42214 26.879 8.5259C27.7141 9.00198 28.0764 10.8148 27.7939 13.1463C27.7264 13.7201 27.6158 14.3243 27.4807 14.9408C26.2772 14.6478 24.9631 14.422 23.5815 14.2755C22.7525 13.1463 21.8928 12.1209 21.027 11.2237C23.0288 9.3743 24.9078 8.3611 26.1851 8.3611V7C24.4964 7 22.2858 8.19631 20.0506 10.2715C17.8154 8.20851 15.6048 7.02441 13.9162 7.02441V8.38552C15.1873 8.38552 17.0724 9.39261 19.0743 11.2298C18.2146 12.127 17.3549 13.1463 16.5382 14.2755C15.1504 14.422 13.8363 14.6478 12.6328 14.9469C12.4915 14.3365 12.3871 13.7445 12.3135 13.1769C12.0248 10.8453 12.381 9.0325 13.21 8.55032C13.3942 8.44045 13.6337 8.39162 13.9162 8.39162V7.03052C13.4003 7.03052 12.9337 7.14038 12.5284 7.37232C10.8029 8.3611 10.416 11.4434 11.3064 15.3131C7.48694 16.485 5 18.3588 5 20.3364C5 22.3201 7.49922 24.2 11.331 25.3658C10.4467 29.2477 10.8397 32.3361 12.5714 33.3249C12.9705 33.5568 13.4372 33.6667 13.953 33.6667C15.6417 33.6667 17.8523 32.4704 20.0875 30.3951C22.3226 32.4582 24.5332 33.6423 26.2219 33.6423C26.7377 33.6423 27.2044 33.5324 27.6097 33.3004C29.3352 32.3117 29.7221 29.2293 28.8317 25.3597C32.6388 24.1939 35.1258 22.314 35.1258 20.3364ZM27.1307 16.2653C26.9035 17.0526 26.6211 17.8644 26.3017 18.6762C26.05 18.1879 25.7859 17.6996 25.4973 17.2113C25.2149 16.723 24.914 16.247 24.6131 15.7831C25.485 15.9113 26.3263 16.07 27.1307 16.2653ZM24.3183 22.7656C23.8394 23.5896 23.3481 24.3709 22.8384 25.0972C21.9235 25.1765 20.9963 25.2193 20.0629 25.2193C19.1357 25.2193 18.2084 25.1765 17.2996 25.1033C16.79 24.377 16.2926 23.6018 15.8136 22.7839C15.3469 21.9844 14.9232 21.1726 14.5364 20.3547C14.9171 19.5368 15.3469 18.7189 15.8075 17.9194C16.2864 17.0954 16.7777 16.3141 17.2873 15.5878C18.2023 15.5084 19.1295 15.4657 20.0629 15.4657C20.9901 15.4657 21.9174 15.5084 22.8262 15.5817C23.3358 16.308 23.8332 17.0832 24.3122 17.901C24.7789 18.7006 25.2026 19.5124 25.5894 20.3303C25.2026 21.1482 24.7789 21.966 24.3183 22.7656ZM26.3017 21.9722C26.6333 22.79 26.9158 23.6079 27.1491 24.4014C26.3447 24.5967 25.4973 24.7615 24.6192 24.8897C24.9201 24.4197 25.221 23.9375 25.5035 23.4431C25.7859 22.9548 26.05 22.4604 26.3017 21.9722ZM20.0752 28.4847C19.5041 27.8988 18.933 27.2457 18.3681 26.5315C18.9207 26.556 19.4857 26.5743 20.0568 26.5743C20.634 26.5743 21.205 26.5621 21.7638 26.5315C21.2112 27.2457 20.6401 27.8988 20.0752 28.4847ZM15.5066 24.8897C14.6346 24.7615 13.7933 24.6028 12.9889 24.4075C13.2161 23.6201 13.4986 22.8083 13.8179 21.9966C14.0697 22.4849 14.3337 22.9731 14.6223 23.4614C14.9109 23.9497 15.2057 24.4258 15.5066 24.8897ZM20.0445 12.1881C20.6155 12.774 21.1866 13.4271 21.7516 14.1412C21.1989 14.1168 20.634 14.0985 20.0629 14.0985C19.4857 14.0985 18.9146 14.1107 18.3558 14.1412C18.9085 13.4271 19.4795 12.774 20.0445 12.1881ZM15.5004 15.7831C15.1995 16.2531 14.8986 16.7353 14.6162 17.2296C14.3337 17.7179 14.0697 18.2062 13.8179 18.6945C13.4863 17.8766 13.2038 17.0587 12.9705 16.2653C13.7749 16.0761 14.6223 15.9113 15.5004 15.7831ZM9.94318 23.4248C7.76941 22.5032 6.36321 21.2947 6.36321 20.3364C6.36321 19.3781 7.76941 18.1635 9.94318 17.248C10.4713 17.0221 11.0485 16.8207 11.6441 16.6315C11.9941 17.8278 12.4547 19.0729 13.0258 20.3486C12.4608 21.6181 12.0064 22.8572 11.6626 24.0474C11.0546 23.8582 10.4774 23.6506 9.94318 23.4248ZM13.2468 32.1469C12.4117 31.6708 12.0494 29.858 12.3319 27.5264C12.3994 26.9527 12.51 26.3484 12.645 25.732C13.8486 26.0249 15.1627 26.2508 16.5443 26.3973C17.3733 27.5264 18.233 28.5518 19.0988 29.4491C17.097 31.2985 15.218 32.3117 13.9407 32.3117C13.6644 32.3056 13.431 32.2506 13.2468 32.1469ZM27.8123 27.4959C28.1009 29.8275 27.7448 31.6403 26.9158 32.1225C26.7316 32.2323 26.4921 32.2811 26.2096 32.2811C24.9385 32.2811 23.0534 31.2741 21.0515 29.4369C21.9112 28.5396 22.7709 27.5203 23.5876 26.3912C24.9754 26.2447 26.2895 26.0188 27.493 25.7198C27.6343 26.3362 27.7448 26.9283 27.8123 27.4959ZM30.1765 23.4248C29.6484 23.6506 29.0712 23.8521 28.4755 24.0413C28.1255 22.845 27.665 21.5998 27.0939 20.3242C27.6588 19.0546 28.1132 17.8156 28.4571 16.6254C29.065 16.8146 29.6422 17.0221 30.1826 17.248C32.3564 18.1696 33.7626 19.3781 33.7626 20.3364C33.7564 21.2947 32.3502 22.5093 30.1765 23.4248Z" fill="#61DAFB"/>
<path d="M20.0567 23.1256C21.6066 23.1256 22.863 21.8767 22.863 20.3362C22.863 18.7957 21.6066 17.5469 20.0567 17.5469C18.5069 17.5469 17.2505 18.7957 17.2505 20.3362C17.2505 21.8767 18.5069 23.1256 20.0567 23.1256Z" fill="#61DAFB"/>
<mask id="mask1_216_162" style="mask-type:luminance" maskUnits="userSpaceOnUse" x="5" y="5" width="30" height="30">
<path d="M35 5H5V35H35V5Z" fill="white"/>
</mask>
<g mask="url(#mask1_216_162)">
<path d="M5 5H35V35H5V5Z" fill="#F0DB4F"/>
<path d="M32.5445 27.845C32.3249 26.4762 31.4323 25.327 28.7888 24.2547C27.8705 23.8327 26.8467 23.5304 26.5416 22.8346C26.4332 22.4296 26.419 22.2015 26.4874 21.9562C26.6842 21.1606 27.6338 20.9125 28.3867 21.1406C28.8715 21.3032 29.3306 21.6768 29.6072 22.2728C30.9019 21.4344 30.899 21.4401 31.803 20.8641C31.4722 20.3507 31.2954 20.114 31.0787 19.8945C30.3002 19.0247 29.2393 18.577 27.5426 18.6112C27.2488 18.6483 26.9523 18.6882 26.6585 18.7253C25.8116 18.9391 25.0045 19.384 24.5312 19.98C23.111 21.5912 23.5159 24.4116 25.2441 25.5722C26.9466 26.8498 29.4475 27.1407 29.7669 28.3355C30.0777 29.7985 28.6918 30.2718 27.3144 30.1036C26.2992 29.8926 25.7346 29.3764 25.1243 28.4382C24.0008 29.0884 24.0008 29.0884 22.8458 29.7528C23.1196 30.3517 23.4076 30.6226 23.8667 31.1416C26.0397 33.346 31.4779 33.2376 32.4532 29.9011C32.4931 29.787 32.7555 29.0228 32.5445 27.845ZM21.3087 18.788H18.5026C18.5026 21.2119 18.4913 23.6188 18.4913 26.0427C18.4913 27.5855 18.5711 29 18.3202 29.4334C17.9095 30.286 16.8458 30.1806 16.361 30.0151C15.8677 29.7727 15.6167 29.4277 15.3259 28.9401C15.246 28.8003 15.1861 28.692 15.1661 28.6834C14.4048 29.1482 13.6462 29.6159 12.8848 30.0808C13.2641 30.8593 13.823 31.5351 14.5388 31.9743C15.6081 32.6159 17.0454 32.8127 18.5483 32.4676C19.5264 32.1824 20.3705 31.5922 20.8125 30.6939C21.4513 29.5161 21.3144 28.0903 21.3087 26.5133C21.323 23.941 21.3087 21.3688 21.3087 18.788Z" fill="#323330"/>
</g>
</g>
</g>
<defs>
<clipPath id="clip0_216_162">
<rect width="40" height="40" fill="white"/>
</clipPath>
</defs>
</svg>
