<svg width="40" height="40" viewBox="0 0 40 40" fill="none" xmlns="http://www.w3.org/2000/svg">
<g clip-path="url(#clip0_216_180)">
<mask id="mask0_216_180" style="mask-type:luminance" maskUnits="userSpaceOnUse" x="0" y="0" width="40" height="40">
<path d="M40 0H0V40H40V0Z" fill="white"/>
</mask>
<g mask="url(#mask0_216_180)">
<path d="M20.5053 35C20.0977 35 19.6929 34.8946 19.3355 34.6918L15.612 32.5191C15.0559 32.2125 15.3273 32.1041 15.5107 32.0416C16.2522 31.7857 16.4027 31.7279 17.1942 31.2849C17.2774 31.2381 17.3862 31.2547 17.4714 31.3042L20.3319 32.9772C20.4352 33.0323 20.5818 33.0323 20.6776 32.9772L31.831 26.6318C31.9343 26.574 32.0013 26.4557 32.0013 26.3346V13.6493C32.0013 13.5227 31.9343 13.4099 31.8288 13.3466L20.6798 7.00668C20.5765 6.94614 20.4397 6.94614 20.3364 7.00668L9.18965 13.3466C9.08161 13.4071 9.01293 13.5255 9.01293 13.6465V26.3319C9.01293 26.4529 9.07993 26.5685 9.18602 26.6263L12.2403 28.3654C13.8987 29.1826 14.9121 28.2195 14.9121 27.2509V14.7307C14.9121 14.5518 15.0545 14.4143 15.236 14.4143H16.6486C16.8245 14.4143 16.9697 14.5518 16.9697 14.7307V27.2564C16.9697 29.4358 15.7636 30.6878 13.6669 30.6878C13.022 30.6878 12.5139 30.6878 11.0956 29.9999L8.16979 28.3379C7.81406 28.1333 7.51889 27.8405 7.31366 27.4885C7.10843 27.1366 7.00029 26.7378 7 26.3319V13.6465C7 12.821 7.4467 12.0505 8.16979 11.6433L19.3344 5.29512C20.0407 4.90163 20.9788 4.90163 21.6796 5.29512L32.8302 11.646C33.1859 11.85 33.4811 12.1423 33.6864 12.4938C33.8916 12.8453 33.9998 13.2437 34 13.6493V26.3346C34 27.1574 33.5505 27.9251 32.8302 28.3379L21.6796 34.686C21.3221 34.8889 20.9167 34.9952 20.5042 34.9942" fill="#689F63"/>
<path d="M23.6721 25.9873C18.9831 25.9873 18 23.8132 18 21.9898C18 21.8164 18.1384 21.6782 18.3104 21.6782H19.6945C19.8474 21.6782 19.9762 21.7907 20.0003 21.9432C20.2095 23.3678 20.8319 24.0863 23.6673 24.0863C25.9259 24.0863 26.8862 23.571 26.8862 22.3613C26.8862 21.6649 26.6126 21.1474 23.1039 20.8006C20.1693 20.508 18.356 19.855 18.356 17.4843C18.356 15.3005 20.18 14 23.2354 14C26.6663 14 28.3669 15.203 28.5815 17.7878C28.5851 17.8312 28.5797 17.875 28.5657 17.9162C28.5517 17.9574 28.5293 17.9953 28.5001 18.0274C28.4708 18.0595 28.4353 18.0851 28.3958 18.1026C28.3562 18.1201 28.3135 18.1291 28.2704 18.1291H26.8782C26.7333 18.1291 26.6072 18.0262 26.5777 17.8853C26.2424 16.387 25.4323 15.9074 23.23 15.9074C20.7648 15.9074 20.4778 16.7744 20.4778 17.4247C20.4778 18.2131 20.8158 18.4434 24.142 18.8878C27.4361 19.3294 29 19.9526 29 22.2908C29 24.648 27.0525 26 23.6565 26" fill="#689F63"/>
</g>
</g>
<defs>
<clipPath id="clip0_216_180">
<rect width="40" height="40" fill="white"/>
</clipPath>
</defs>
</svg>
