<svg width="40" height="40" viewBox="0 0 40 40" fill="none" xmlns="http://www.w3.org/2000/svg">
<mask id="mask0_216_195" style="mask-type:luminance" maskUnits="userSpaceOnUse" x="7" y="5" width="27" height="30">
<path d="M34 5H7V35H34V5Z" fill="white"/>
</mask>
<g mask="url(#mask0_216_195)">
<path d="M33.9545 13.7971C33.9543 13.294 33.8454 12.8494 33.6251 12.4679C33.4086 12.0926 33.0845 11.7782 32.6498 11.5295C29.0612 9.48587 25.4692 7.44848 21.8817 5.40275C20.9146 4.85129 19.9769 4.87139 19.0169 5.43077C17.5885 6.26275 10.4372 10.3093 8.30623 11.5284C7.42863 12.0301 7.00158 12.7981 7.00137 13.7962C7 17.9061 7.00137 22.0159 7 26.1259C7 26.618 7.10452 27.0539 7.31514 27.4297C7.53167 27.8163 7.86031 28.1394 8.30507 28.3937C10.4362 29.6127 17.5884 33.659 19.0165 34.4912C19.9769 35.0509 20.9146 35.0709 21.8821 34.5192C25.4696 32.4734 29.0618 30.4361 32.651 28.3924C33.0957 28.1383 33.4244 27.8149 33.6409 27.4287C33.8512 27.0529 33.9559 26.6169 33.9559 26.1247C33.9559 26.1247 33.9559 17.9071 33.9545 13.7971Z" fill="#A179DC"/>
<path d="M20.519 19.9209L7.31494 27.4296C7.53147 27.8162 7.86011 28.1393 8.30487 28.3936C10.436 29.6127 17.5882 33.6589 19.0163 34.4911C19.9767 35.0508 20.9144 35.0708 21.8819 34.5191C25.4694 32.4733 29.0616 30.436 32.6508 28.3924C33.0955 28.1382 33.4242 27.8149 33.6407 27.4286L20.519 19.9209Z" fill="#280068"/>
<path d="M33.9544 13.797C33.9542 13.2939 33.8452 12.8493 33.6249 12.4678L20.519 19.9209L33.6407 27.4286C33.851 27.0528 33.9555 26.6168 33.9558 26.1246C33.9558 26.1246 33.9558 17.907 33.9544 13.797Z" fill="#390091"/>
<path d="M28.2932 17.1138V18.5173H29.7143V17.1138H30.4248V18.5173H31.8458V19.219H30.4248V20.6225H31.8458V21.3243H30.4248V22.7278H29.7143V21.3243H28.2932V22.7278H27.5827V21.3243H26.1616V20.6225H27.5827V19.219H26.1616V18.5173H27.5827V17.1138H28.2932ZM29.7143 19.219H28.2932V20.6225H29.7143V19.219Z" fill="white"/>
<path d="M20.5484 10.0654C24.255 10.0654 27.4911 12.0536 29.2245 15.0088L29.2075 14.9803L24.8466 17.4604C23.9873 16.0235 22.4122 15.0539 20.6053 15.0339L20.5484 15.0336C17.793 15.0336 15.5591 17.2398 15.5591 19.9612C15.5591 20.8512 15.7993 21.6854 16.2171 22.4059C17.0771 23.8888 18.6938 24.8889 20.5484 24.8889C22.4144 24.8889 24.0404 23.8761 24.896 22.3774L24.8752 22.4133L29.2296 24.9048C27.5153 27.835 24.3235 29.817 20.66 29.8565L20.5484 29.8571C16.8301 29.8571 13.5848 27.8567 11.8558 24.8859C11.0118 23.4356 10.5288 21.7542 10.5288 19.9612C10.5288 14.496 15.0146 10.0654 20.5484 10.0654Z" fill="white"/>
</g>
</svg>
