<svg width="205" height="180" fill="none" xmlns="http://www.w3.org/2000/svg"><path d="M97.027 37a8 8 0 018-8h91a8 8 0 018 8v135a8 8 0 01-8 8h-91a8 8 0 01-8-8V37z" fill="#fff"/><circle cx="146.027" cy="58" r="58" fill="#fff"/><mask id="a" style="mask-type:alpha" maskUnits="userSpaceOnUse" x="0" y="29" width="205" height="151"><path d="M0 37.19a8 8 0 018-8h188.324a8 8 0 018 8V172a8 8 0 01-8 8H8a8 8 0 01-8-8V37.19z" fill="#2156D6"/></mask><g mask="url(#a)" fill="#fff"><circle cx="145.945" cy="68.108" r="58.378"/><path d="M51.248 150.806c-14.87-13.247-16.185-36.041-2.937-50.91 13.247-14.87 36.04-16.184 50.91-2.936l129.52 115.393c14.87 13.248 16.184 36.041 2.937 50.91-13.248 14.869-36.041 16.184-50.91 2.937L51.248 150.806z"/></g></svg>