<svg width="49" height="49" viewBox="0 0 49 49" fill="none" xmlns="http://www.w3.org/2000/svg">
<g clip-path="url(#clip0_216_447)">
<path d="M20.4168 32.6669H28.5835C29.9366 32.6669 31.0335 31.57 31.0335 30.2169V22.8669C31.0335 21.5138 29.9366 20.4169 28.5835 20.4169V18.7835C28.5835 16.5284 26.7553 14.7002 24.5001 14.7002C22.245 14.7002 20.4168 16.5284 20.4168 18.7835V20.4169C19.0637 20.4169 17.9668 21.5138 17.9668 22.8669V30.2169C17.9668 31.57 19.0637 32.6669 20.4168 32.6669ZM22.0501 18.7835C22.0501 17.4304 23.147 16.3335 24.5001 16.3335C25.8532 16.3335 26.9501 17.4304 26.9501 18.7835V20.4169H22.0501V18.7835ZM19.6001 22.8669C19.6001 22.4158 19.9658 22.0502 20.4168 22.0502H28.5835C29.0345 22.0502 29.4001 22.4158 29.4001 22.8669V30.2169C29.4001 30.6679 29.0345 31.0335 28.5835 31.0335H20.4168C19.9658 31.0335 19.6001 30.6679 19.6001 30.2169V22.8669Z" fill="#2D6AFF"/>
<path d="M23.6834 28.4332V28.5835C23.6834 29.0345 24.049 29.4002 24.5 29.4002C24.9511 29.4002 25.3167 29.0345 25.3167 28.5835V28.4332C26.4417 28.0355 27.1165 26.8851 26.9148 25.709C26.713 24.533 25.6933 23.6733 24.5 23.6733C23.3068 23.6733 22.2871 24.533 22.0853 25.709C21.8835 26.8851 22.5584 28.0355 23.6834 28.4332ZM24.5 25.3168C24.9511 25.3168 25.3167 25.6825 25.3167 26.1335C25.3167 26.5845 24.9511 26.9502 24.5 26.9502C24.049 26.9502 23.6834 26.5845 23.6834 26.1335C23.6834 25.6825 24.049 25.3168 24.5 25.3168Z" fill="#2D6AFF"/>
<path d="M10.6167 24.5C10.6167 32.1676 16.8325 38.3834 24.5 38.3834C32.1676 38.3834 38.3834 32.1676 38.3834 24.5C38.3834 16.8325 32.1676 10.6167 24.5 10.6167C16.836 10.6253 10.6253 16.836 10.6167 24.5ZM24.5 12.25C31.2655 12.25 36.75 17.7345 36.75 24.5C36.75 31.2655 31.2655 36.75 24.5 36.75C17.7345 36.75 12.25 31.2655 12.25 24.5C12.2577 17.7377 17.7377 12.2577 24.5 12.25Z" fill="#2D6AFF"/>
<path d="M40.8335 42.4667C39.3484 42.4723 38.054 43.4789 37.6828 44.9167H31.8501V39.98C33.6761 39.1205 35.3351 37.944 36.7501 36.5051C36.9593 36.2977 37.0406 35.9938 36.9629 35.7097C36.8852 35.4256 36.6606 35.2053 36.375 35.1332C36.0894 35.0612 35.7871 35.1485 35.5839 35.3617C34.1973 36.7794 32.5513 37.9175 30.7354 38.7142C30.6257 38.7577 30.527 38.8249 30.4463 38.911C30.4373 38.9208 30.4324 38.9338 30.4234 38.9453C30.3637 39.0117 30.3154 39.0876 30.2805 39.1699C30.2645 39.2212 30.2538 39.274 30.2486 39.3275C30.2335 39.3737 30.2228 39.4213 30.2168 39.4696V39.4843V44.9167C30.2168 45.8188 30.9481 46.5501 31.8501 46.5501H37.6828C38.1101 48.1896 39.7217 49.2288 41.3915 48.9414C43.0612 48.654 44.2327 47.1357 44.0872 45.4477C43.9417 43.7596 42.5278 42.4642 40.8335 42.4667ZM40.8335 47.3667C39.9314 47.3667 39.2001 46.6355 39.2001 45.7334C39.2001 44.8314 39.9314 44.1001 40.8335 44.1001C41.7355 44.1001 42.4668 44.8314 42.4668 45.7334C42.4668 46.6355 41.7355 47.3667 40.8335 47.3667Z" fill="#2D6AFF"/>
<path d="M6.4174 33.4837H10.3635C10.3701 33.4837 10.3758 33.4796 10.3831 33.4796C10.4644 33.476 10.5445 33.4597 10.6208 33.4314C10.6589 33.4189 10.696 33.4036 10.7318 33.3857C10.7408 33.3808 10.7514 33.3792 10.7604 33.3734C10.7694 33.3677 10.7833 33.3506 10.7964 33.3416C10.8704 33.2959 10.9362 33.2379 10.9907 33.1701C11.0004 33.1575 11.0094 33.1444 11.0177 33.1309C11.0705 33.0565 11.1103 32.9737 11.1353 32.8859C11.1353 32.8736 11.1402 32.8614 11.1426 32.8491C11.1624 32.7902 11.175 32.729 11.1802 32.667C11.176 32.6362 11.1697 32.6056 11.1614 32.5756C11.1614 32.5649 11.1614 32.5551 11.1557 32.5437C11.1418 32.4479 11.1106 32.3555 11.0634 32.2709L11.0593 32.2579C10.2219 30.8124 9.62557 29.2401 9.2937 27.6029C9.20349 27.1609 8.77204 26.8757 8.33003 26.9659C7.88802 27.0561 7.60282 27.4875 7.69303 27.9295C7.9678 29.2844 8.40659 30.6008 8.9997 31.8495H6.4174C6.00615 30.2568 4.47472 29.2183 2.84285 29.4256C1.21097 29.6329 -0.012207 31.0212 -0.012207 32.6662C-0.012207 34.3112 1.21097 35.6996 2.84285 35.9068C4.47472 36.1141 6.00615 35.0764 6.4174 33.4837ZM3.2667 34.3004C2.36463 34.3004 1.63336 33.5691 1.63336 32.667C1.63336 31.765 2.36463 31.0337 3.2667 31.0337C4.16876 31.0337 4.90003 31.765 4.90003 32.667C4.90003 33.5691 4.16876 34.3004 3.2667 34.3004Z" fill="#2D6AFF"/>
<path d="M2.56041e-06 16.3334C-0.00204045 17.9763 1.21877 19.3641 2.84857 19.5715C4.47838 19.7789 6.00786 18.7411 6.41737 17.15H10.3635H10.3856C10.4661 17.1454 10.5456 17.1292 10.6216 17.1019C10.6575 17.0904 10.6924 17.0762 10.7261 17.0594C10.7696 17.0365 10.8107 17.0091 10.8486 16.9777C10.9175 16.9257 10.9771 16.8625 11.025 16.7907C11.0356 16.7752 11.0495 16.7638 11.0593 16.7474C12.1065 14.9302 13.5118 13.3446 15.19 12.0867C15.4234 11.9116 15.5457 11.6254 15.5108 11.3357C15.4759 11.046 15.2891 10.797 15.0208 10.6824C14.7525 10.5677 14.4434 10.605 14.21 10.78C12.4914 12.0747 11.0321 13.6816 9.90862 15.5167H6.41737C6.00786 13.9256 4.47838 12.8879 2.84857 13.0953C1.21877 13.3027 -0.00204045 14.6904 2.56041e-06 16.3334ZM4.90001 16.3334C4.90001 17.2354 4.16874 17.9667 3.26667 17.9667C2.36461 17.9667 1.63334 17.2354 1.63334 16.3334C1.63334 15.4313 2.36461 14.7 3.26667 14.7C3.69986 14.7 4.1153 14.8721 4.42161 15.1784C4.72792 15.4847 4.90001 15.9002 4.90001 16.3334Z" fill="#2D6AFF"/>
<path d="M45.7333 29.4004C44.2483 29.406 42.9539 30.4125 42.5826 31.8504H39.9995C40.5932 30.6019 41.032 29.2855 41.3062 27.9304C41.3964 27.4882 41.111 27.0566 40.6688 26.9664C40.2265 26.8761 39.7949 27.1615 39.7047 27.6038C39.3734 29.2409 38.7776 30.8132 37.9407 32.2588V32.2694C37.8919 32.3557 37.8598 32.4505 37.846 32.5487C37.846 32.5577 37.846 32.5658 37.8402 32.5748C37.8318 32.6052 37.825 32.636 37.8198 32.6671C37.8248 32.7313 37.8374 32.7946 37.8574 32.8557C37.8574 32.8664 37.8574 32.877 37.8639 32.8876C37.8893 32.9757 37.9299 33.0586 37.984 33.1326C37.9921 33.1448 37.9987 33.1571 38.0077 33.1685C38.063 33.2367 38.1292 33.2952 38.2037 33.3417C38.2167 33.3506 38.2249 33.3645 38.2388 33.3727C38.2527 33.3809 38.2584 33.38 38.2674 33.3849C38.3036 33.4035 38.3413 33.419 38.3801 33.4315C38.456 33.4589 38.5355 33.4748 38.6161 33.4789C38.6234 33.4789 38.6291 33.4829 38.6365 33.4829H42.5826C43.0095 35.1227 44.6211 36.1623 46.2911 35.8751C47.961 35.588 49.1327 34.0697 48.9873 32.3815C48.8419 30.6933 47.4278 29.3978 45.7333 29.4004ZM45.7333 34.3004C44.8313 34.3004 44.1 33.5692 44.1 32.6671C44.1 31.765 44.8313 31.0338 45.7333 31.0338C46.6354 31.0338 47.3667 31.765 47.3667 32.6671C47.3667 33.5692 46.6354 34.3004 45.7333 34.3004Z" fill="#2D6AFF"/>
<path d="M18.7833 39.4837V39.4698C18.7781 39.4239 18.7691 39.3786 18.7563 39.3342C18.7505 39.2788 18.7393 39.2241 18.7228 39.1709C18.6885 39.0899 18.641 39.0151 18.5824 38.9496C18.5717 38.9373 18.5668 38.9226 18.5562 38.9112C18.4752 38.8251 18.3762 38.7579 18.2663 38.7144C16.1286 37.7709 14.2294 36.3606 12.7081 34.5869C12.521 34.3566 12.2236 34.2459 11.9314 34.2977C11.6392 34.3496 11.3982 34.5559 11.3018 34.8366C11.2054 35.1173 11.2689 35.4282 11.4676 35.6486C13.0381 37.4767 14.9737 38.9561 17.1499 39.9916V44.917H11.3173C10.9061 43.3242 9.37462 42.2857 7.74275 42.493C6.11087 42.7003 4.8877 44.0886 4.8877 45.7336C4.8877 47.3786 6.11087 48.767 7.74275 48.9743C9.37462 49.1815 10.9061 48.143 11.3173 46.5503H17.1499C18.052 46.5503 18.7833 45.819 18.7833 44.917V39.4837ZM8.1666 47.367C7.26453 47.367 6.53326 46.6357 6.53326 45.7336C6.53326 44.8316 7.26453 44.1003 8.1666 44.1003C9.06866 44.1003 9.79993 44.8316 9.79993 45.7336C9.79993 46.6357 9.06866 47.367 8.1666 47.367Z" fill="#2D6AFF"/>
<path d="M27.6034 39.7067C25.555 40.1181 23.4452 40.1181 21.3967 39.7067C21.1078 39.6404 20.8056 39.736 20.6072 39.9563C20.4089 40.1766 20.3455 40.4871 20.4416 40.7675C20.5377 41.048 20.7783 41.2543 21.0701 41.3066C21.9322 41.4741 22.8058 41.5754 23.6834 41.6096V48.1837C23.6834 48.6348 24.049 49.0004 24.5001 49.0004C24.9511 49.0004 25.3167 48.6348 25.3167 48.1837V41.6096C26.1943 41.5754 27.068 41.4741 27.9301 41.3066C28.3622 41.2074 28.6363 40.7816 28.5476 40.3472C28.4589 39.9128 28.0398 39.6285 27.6034 39.7067Z" fill="#2D6AFF"/>
<path d="M17.1499 2.45024H11.3173C10.9061 0.857491 9.37462 -0.180997 7.74275 0.0262781C6.11087 0.233553 4.8877 1.62192 4.8877 3.26691C4.8877 4.91189 6.11087 6.30026 7.74275 6.50754C9.37462 6.71481 10.9061 5.67633 11.3173 4.08358H17.1499V9.53237C17.1499 9.56504 17.1654 9.59689 17.1695 9.62956C17.1781 9.7141 17.1999 9.79677 17.234 9.87456C17.268 9.94734 17.3132 10.0143 17.368 10.073C17.3953 10.1026 17.4251 10.13 17.457 10.1547C17.497 10.1874 17.5399 10.2164 17.5852 10.2412C17.623 10.2622 17.6623 10.2802 17.7028 10.2951C17.7612 10.3137 17.8215 10.3257 17.8825 10.3311C17.9093 10.3384 17.9366 10.3441 17.9641 10.3482C18.0812 10.3458 18.1962 10.3179 18.3014 10.2666C19.2963 9.83518 20.3337 9.50945 21.3966 9.29472C21.8388 9.20452 22.1242 8.77289 22.034 8.33065C21.9438 7.88841 21.5122 7.60303 21.0699 7.69324C20.2938 7.85205 19.5297 8.0649 18.7833 8.33024V4.08358C18.7833 3.18151 18.052 2.45024 17.1499 2.45024ZM8.1666 4.90024C7.26453 4.90024 6.53326 4.16897 6.53326 3.26691C6.53326 2.36484 7.26453 1.63358 8.1666 1.63358C9.06866 1.63358 9.79993 2.36484 9.79993 3.26691C9.79993 3.7001 9.62785 4.11554 9.32154 4.42185C9.01523 4.72816 8.59979 4.90024 8.1666 4.90024Z" fill="#2D6AFF"/>
<path d="M37.6828 4.08358C38.094 5.67633 39.6254 6.71481 41.2573 6.50754C42.8892 6.30026 44.1124 4.91189 44.1124 3.26691C44.1124 1.62192 42.8892 0.233553 41.2573 0.0262781C39.6254 -0.180997 38.094 0.857491 37.6828 2.45024H31.8501C30.9481 2.45024 30.2168 3.18151 30.2168 4.08358V9.51523V9.52993C30.2217 9.5781 30.2313 9.62568 30.2454 9.67203C30.2505 9.72552 30.2612 9.77834 30.2772 9.82964C30.3121 9.91189 30.3604 9.98778 30.4201 10.0542C30.4291 10.0648 30.434 10.0787 30.443 10.0885C30.5237 10.1746 30.6224 10.2418 30.7321 10.2853C32.5477 11.0808 34.1937 12.2175 35.5807 13.6337C35.7809 13.8562 36.0869 13.9513 36.3781 13.8816C36.6693 13.8118 36.8989 13.5882 36.9765 13.2991C37.0541 13.0099 36.9672 12.7014 36.7501 12.4952C35.3351 11.0564 33.6761 9.87984 31.8501 9.02033V4.08358H37.6828ZM40.8335 1.63358C41.7355 1.63358 42.4668 2.36484 42.4668 3.26691C42.4668 4.16897 41.7355 4.90024 40.8335 4.90024C39.9314 4.90024 39.2001 4.16897 39.2001 3.26691C39.2001 2.36484 39.9314 1.63358 40.8335 1.63358Z" fill="#2D6AFF"/>
<path d="M24.5003 0C24.0492 0 23.6836 0.365634 23.6836 0.816667V8.16667C23.6836 8.6177 24.0492 8.98333 24.5003 8.98333C25.5425 8.98312 26.5821 9.08708 27.6036 9.29367C27.6573 9.30472 27.7121 9.31019 27.7669 9.31C28.185 9.3084 28.5343 8.99138 28.5763 8.57545C28.6184 8.15953 28.3395 7.77902 27.9303 7.69382C27.0682 7.52625 26.1945 7.42496 25.3169 7.39083V0.816667C25.3169 0.365634 24.9513 0 24.5003 0Z" fill="#2D6AFF"/>
<path d="M42.5826 17.1505C42.9939 18.7432 44.5253 19.7817 46.1572 19.5744C47.7891 19.3672 49.0122 17.9788 49.0122 16.3338C49.0122 14.6888 47.7891 13.3004 46.1572 13.0932C44.5253 12.8859 42.9939 13.9244 42.5826 15.5171H38.6365C38.621 15.5171 38.6087 15.5253 38.594 15.5253C38.5467 15.5304 38.4999 15.54 38.4544 15.5539C38.3873 15.5671 38.3222 15.5891 38.2608 15.6192C38.2543 15.6192 38.2461 15.6192 38.2388 15.6274C38.2314 15.6356 38.2175 15.6494 38.2037 15.6584C38.1292 15.7049 38.063 15.7634 38.0077 15.8316C37.9987 15.843 37.9921 15.8552 37.984 15.8675C37.9299 15.9415 37.8893 16.0244 37.8639 16.1125C37.8639 16.1231 37.8639 16.1337 37.8574 16.1443C37.8373 16.2058 37.8247 16.2694 37.8198 16.3338C37.8242 16.3651 37.8302 16.3962 37.8378 16.4269C37.8378 16.4359 37.8419 16.4441 37.8435 16.453C37.8573 16.5513 37.8894 16.646 37.9382 16.7323V16.743C39.3003 19.1014 40.0171 21.777 40.0167 24.5005C40.0167 24.9515 40.3823 25.3171 40.8333 25.3171H48.1833C48.6344 25.3171 49 24.9515 49 24.5005C49 24.0494 48.6344 23.6838 48.1833 23.6838H41.623C41.516 21.4194 40.9608 19.1988 39.9897 17.1505H42.5826ZM45.7333 14.7005C46.6354 14.7005 47.3667 15.4317 47.3667 16.3338C47.3667 17.2359 46.6354 17.9671 45.7333 17.9671C44.8313 17.9671 44.1 17.2359 44.1 16.3338C44.1 15.4317 44.8313 14.7005 45.7333 14.7005Z" fill="#2D6AFF"/>
<path d="M0.816667 25.317H8.16667C8.6177 25.317 8.98333 24.9513 8.98333 24.5003C8.98161 22.8502 9.24324 21.2104 9.75835 19.6428C9.84953 19.3656 9.78591 19.0608 9.59145 18.8433C9.397 18.6257 9.10125 18.5284 8.81562 18.5881C8.52999 18.6477 8.29786 18.8552 8.20668 19.1323C7.72692 20.6051 7.44944 22.1362 7.38185 23.6836H0.816667C0.365634 23.6836 0 24.0493 0 24.5003C0 24.9513 0.365634 25.317 0.816667 25.317Z" fill="#2D6AFF"/>
</g>
<defs>
<clipPath id="clip0_216_447">
<rect width="49" height="49" fill="white"/>
</clipPath>
</defs>
</svg>
