<svg width="50" height="51" viewBox="0 0 50 51" fill="none" xmlns="http://www.w3.org/2000/svg">
<path d="M33.8557 41.4119C33.9797 41.536 34.1269 41.6344 34.289 41.7016C34.4511 41.7687 34.6248 41.8033 34.8002 41.8033C34.9757 41.8033 35.1494 41.7687 35.3114 41.7016C35.4735 41.6344 35.6208 41.536 35.7448 41.4119L42.2757 34.881C42.52 34.6292 42.6555 34.2914 42.6528 33.9406C42.6502 33.5898 42.5096 33.2541 42.2615 33.006C42.0135 32.7579 41.6777 32.6174 41.3269 32.6148C40.9761 32.6122 40.6383 32.7476 40.3866 32.992L34.8002 38.5783L32.4788 36.2569C32.227 36.0131 31.8893 35.878 31.5388 35.8808C31.1882 35.8836 30.8528 36.0242 30.6049 36.2721C30.357 36.52 30.2165 36.8554 30.2137 37.206C30.2108 37.5566 30.346 37.8942 30.5898 38.146L33.8557 41.4119Z" fill="#2D6AFF"/>
<path d="M40.0649 2.27139C39.9152 2.17706 39.7482 2.11335 39.5737 2.08394C39.3992 2.05453 39.2206 2.06 39.0482 2.10005C35.1257 3.00907 31.0473 3.00907 27.1248 2.10005C25.1912 1.65049 23.3126 0.990456 21.5227 0.13177C21.3419 0.0450315 21.144 0 20.9435 0C20.743 0 20.545 0.0450315 20.3642 0.13177C18.5752 0.991107 16.6972 1.65117 14.7639 2.10005C10.8443 3.00813 6.76895 3.00843 2.84919 2.10092C2.67698 2.06135 2.49867 2.05616 2.32446 2.08567C2.15025 2.11517 1.98358 2.17877 1.834 2.27283C1.68443 2.36688 1.5549 2.48954 1.45283 2.63377C1.35077 2.778 1.27818 2.94096 1.23924 3.11331C-2.21371 18.7801 1.69063 33.9799 11.1874 41.8381C13.9123 44.0884 17.0946 45.7184 20.513 46.6148C20.6826 46.6597 20.8594 46.6707 21.0332 46.6473C21.2071 46.6238 21.3747 46.5664 21.5264 46.4782C21.678 46.39 21.8108 46.2728 21.9172 46.1333C22.0236 45.9937 22.1015 45.8346 22.1463 45.665C22.1912 45.4954 22.2023 45.3186 22.1788 45.1447C22.1554 44.9708 22.0979 44.8033 22.0097 44.6516C21.9216 44.4999 21.8043 44.3671 21.6648 44.2607C21.5253 44.1544 21.3662 44.0765 21.1966 44.0316C5.6505 39.3956 0.467602 22.7036 3.58022 4.9817C7.48726 5.6931 11.4985 5.59804 15.3675 4.70234C17.2842 4.25802 19.152 3.62435 20.9434 2.81065C22.7357 3.62298 24.6037 4.2566 26.5203 4.70234C30.3918 5.5983 34.4056 5.69302 38.315 4.98066C39.2891 9.87891 39.472 14.9016 38.8568 19.8578C38.8123 20.2086 38.9087 20.5629 39.125 20.8428C39.3413 21.1226 39.6597 21.3053 40.0105 21.3507C40.3613 21.3961 40.7158 21.3004 40.9961 21.0848C41.2765 20.8692 41.4599 20.5511 41.5061 20.2004C42.211 14.4987 41.9239 8.71797 40.6572 3.11418C40.6193 2.94144 40.5474 2.77796 40.4458 2.63327C40.3441 2.48858 40.2146 2.36556 40.0649 2.27139Z" fill="#2D6AFF"/>
<path d="M22.8699 37.2011C22.8738 40.7971 24.3039 44.2447 26.8466 46.7876C29.3893 49.3304 32.8368 50.7608 36.4328 50.7649C54.4266 50.0197 54.4222 24.3804 36.4327 23.6382C32.8368 23.6422 29.3893 25.0724 26.8467 27.6151C24.304 30.1578 22.8738 33.6052 22.8699 37.2011ZM47.3247 37.2011C47.3213 40.0888 46.1727 42.8573 44.1308 44.8992C42.0889 46.9411 39.3205 48.0897 36.4328 48.093C21.9848 47.4949 21.9881 26.9057 36.4329 26.3101C39.3205 26.3132 42.0889 27.4617 44.1308 29.5035C46.1727 31.5452 47.3213 34.3136 47.3247 37.2011Z" fill="#2D6AFF"/>
</svg>
