<svg width="57" height="57" viewBox="0 0 57 57" fill="none" xmlns="http://www.w3.org/2000/svg">
<g clip-path="url(#clip0_216_409)">
<path d="M15.1406 18.7031H16.9219V20.4844H15.1406V18.7031Z" fill="#2D6AFF"/>
<path d="M22.2656 18.7031H24.0469V20.4844H22.2656V18.7031Z" fill="#2D6AFF"/>
<path d="M18.7031 18.7031H20.4844V20.4844H18.7031V18.7031Z" fill="#2D6AFF"/>
<path d="M20.4844 11.5781H22.2656V13.3594H20.4844V11.5781Z" fill="#2D6AFF"/>
<path d="M27.6094 11.5781H29.3906V13.3594H27.6094V11.5781Z" fill="#2D6AFF"/>
<path d="M24.0469 11.5781H25.8281V13.3594H24.0469V11.5781Z" fill="#2D6AFF"/>
<path d="M15.1406 4.45312H16.9219V6.23438H15.1406V4.45312Z" fill="#2D6AFF"/>
<path d="M18.7031 4.45312H20.4844V6.23438H18.7031V4.45312Z" fill="#2D6AFF"/>
<path d="M22.2656 4.45312H24.0469V6.23438H22.2656V4.45312Z" fill="#2D6AFF"/>
<path d="M54.7414 48.1383L40.9688 34.3657L40.0781 35.2563L37.0215 32.1997C38.9479 29.3461 40.0781 25.9261 40.0781 22.2656C40.0781 16.6823 37.4205 11.4045 32.9531 8.04234V3.5625C32.9531 2.08941 31.7543 0.890625 30.2812 0.890625H14.25C12.7769 0.890625 11.5781 2.08941 11.5781 3.5625V8.04234C7.11075 11.4045 4.45312 16.6823 4.45312 22.2656C4.45312 25.5957 5.41055 28.8536 7.15439 31.6608C6.61912 31.7517 6.10791 31.9984 5.70178 32.4045L3.9045 34.2018C3.03258 35.0737 2.86425 36.4212 3.50461 37.4998C3.64978 37.7429 3.67027 38.0484 3.55003 38.3343C3.44048 38.597 3.21248 38.7956 2.91858 38.8704C1.72514 39.1741 0.890625 40.2465 0.890625 41.4791V44.0209C0.890625 45.2535 1.72514 46.3259 2.93995 46.6358C3.20536 46.7035 3.42089 46.8843 3.53756 47.1345L3.55805 47.1862C3.67027 47.4525 3.65067 47.758 3.49481 48.0198C2.86514 49.0797 3.03347 50.4281 3.90539 51.3L5.70267 53.0973C6.57281 53.9692 7.92122 54.1375 9.00066 53.4972C9.2438 53.352 9.54928 53.3306 9.83517 53.4517L9.84942 53.4571C10.1086 53.5711 10.2965 53.7911 10.3713 54.0832C10.6741 55.2749 11.7465 56.1094 12.9791 56.1094H15.5209C16.7535 56.1094 17.8259 55.2749 18.1358 54.06C18.2035 53.7946 18.3843 53.5791 18.6345 53.4624L18.6862 53.442C18.9516 53.3288 19.258 53.3502 19.5198 53.5052C20.5779 54.1357 21.9272 53.9665 22.8 53.0946L24.5973 51.2973C25.4692 50.4254 25.6375 49.0779 24.9972 47.9993C24.852 47.7562 24.8315 47.4507 24.9517 47.1648L24.9571 47.1506C25.0711 46.8914 25.2911 46.7035 25.5832 46.6287C26.7749 46.3259 27.6094 45.2535 27.6094 44.0209V41.4791C27.6094 40.698 27.2727 39.9837 26.7188 39.4841C28.7084 38.972 30.5582 38.1375 32.205 37.0268L35.2563 40.0781L34.3657 40.9688L48.1392 54.7432C49.0218 55.624 50.1938 56.1094 51.4407 56.1094C54.0146 56.1094 56.1094 54.0146 56.1094 51.4407C56.1094 50.193 55.6231 49.02 54.7414 48.1383ZM38.2969 22.2656C38.2969 30.1263 32.571 36.7899 24.8805 38.0546C24.8609 37.8614 24.8992 37.6619 25.0061 37.482C25.2537 37.0651 25.373 36.6047 25.3801 36.146C31.8817 34.7041 36.5156 29.0121 36.5156 22.2656C36.5156 18.802 35.2465 15.488 32.9531 12.8802V10.341C36.325 13.3665 38.2969 17.7038 38.2969 22.2656ZM12.1463 29.5269C10.6127 27.4001 9.79688 24.9081 9.79688 22.2656C9.79688 19.9963 10.423 17.8009 11.5781 15.8807V21.375C11.5781 22.8481 12.7769 24.0469 14.25 24.0469H30.2812C31.7543 24.0469 32.9531 22.8481 32.9531 21.375V15.8798C34.1083 17.8 34.7344 19.9954 34.7344 22.2656C34.7344 28.2328 30.5894 33.2568 24.8012 34.4467C24.7353 34.363 24.6712 34.2784 24.5946 34.2018L22.7973 32.4045C21.9254 31.5326 20.5761 31.3643 19.5002 32.0046C19.2553 32.148 18.9507 32.1685 18.6648 32.05L18.6506 32.0447C18.3914 31.9307 18.2035 31.7107 18.1287 31.4186C17.8259 30.2251 16.7535 29.3906 15.5209 29.3906H12.9791C12.6896 29.3906 12.4109 29.4405 12.1463 29.5269ZM13.3594 16.9219H31.1719V21.375C31.1719 21.8666 30.7729 22.2656 30.2812 22.2656H14.25C13.7584 22.2656 13.3594 21.8666 13.3594 21.375V16.9219ZM31.1719 15.1406H13.3594V9.79688H31.1719V15.1406ZM14.25 2.67188H30.2812C30.7729 2.67188 31.1719 3.07087 31.1719 3.5625V8.01562H13.3594V3.5625C13.3594 3.07087 13.7584 2.67188 14.25 2.67188ZM11.5781 10.341V12.8811C9.28477 15.4889 8.01562 18.8029 8.01562 22.2656C8.01562 25.2572 8.98195 28.1847 10.732 30.6054C10.5682 30.8548 10.4426 31.1354 10.3651 31.44C10.2974 31.7054 10.1166 31.9209 9.86634 32.0376L9.81558 32.058C9.75591 32.083 9.69445 32.099 9.63122 32.1106C7.44473 29.3069 6.23438 25.8308 6.23438 22.2656C6.23438 17.7038 8.20622 13.3665 11.5781 10.341ZM25.8281 44.0209C25.8281 44.4377 25.5458 44.8011 25.1219 44.9098C24.3096 45.1155 23.6301 45.7033 23.305 46.4799L23.2827 46.5369C22.9719 47.3118 23.0396 48.1971 23.4751 48.9283C23.688 49.2872 23.631 49.7441 23.3362 50.0389L21.5389 51.8362C21.2432 52.1318 20.7863 52.1888 20.4113 51.9653C19.6971 51.5396 18.8109 51.4737 18.0369 51.7836L17.9799 51.8059C17.2033 52.131 16.6164 52.8105 16.4044 53.6423C16.3011 54.0458 15.9377 54.3281 15.5209 54.3281H12.9791C12.5623 54.3281 12.1989 54.0458 12.0902 53.6219C11.8845 52.8096 11.2967 52.1301 10.5201 51.805L10.4631 51.7827C9.69 51.471 8.80383 51.5378 8.07173 51.9751C7.71281 52.1888 7.25681 52.1318 6.96112 51.8362L5.16384 50.0389C4.86905 49.7441 4.81116 49.2872 5.0347 48.9113C5.46042 48.1962 5.52722 47.3118 5.21639 46.5369L5.19412 46.4799C4.86905 45.7033 4.1895 45.1164 3.35766 44.9044C2.9542 44.8011 2.67188 44.4377 2.67188 44.0209V41.4791C2.67188 41.0623 2.9542 40.6989 3.37814 40.5902C4.19128 40.3845 4.87083 39.7967 5.20036 39.0058C5.53078 38.2203 5.46933 37.3172 5.0258 36.5726C4.81294 36.2137 4.86994 35.7568 5.16473 35.462L6.96202 33.6647C7.2577 33.369 7.7137 33.3129 8.09044 33.5356C8.81719 33.9675 9.71939 34.029 10.4221 33.7298L10.521 33.695C11.2976 33.3699 11.8845 32.6904 12.0965 31.8585C12.1989 31.4542 12.5623 31.1719 12.9791 31.1719H15.5209C15.9377 31.1719 16.3011 31.4542 16.4098 31.8781C16.6155 32.6904 17.2033 33.3699 17.9951 33.7004C18.7788 34.0308 19.6828 33.9702 20.4274 33.5258C20.7872 33.3138 21.2432 33.3699 21.538 33.6647L23.3353 35.462C23.6301 35.7568 23.688 36.2137 23.4644 36.5895C23.0316 37.3172 22.9692 38.2212 23.3059 39.0201C23.6292 39.7976 24.3087 40.3845 25.1415 40.5965C25.5458 40.6989 25.8281 41.0623 25.8281 41.4791V44.0209ZM33.6407 35.9438C34.4779 35.2465 35.2474 34.4752 35.943 33.6398L38.8188 36.5156L36.5156 38.8188L33.6407 35.9438ZM51.4407 54.3281C50.6703 54.3281 49.9445 54.028 49.3985 53.4829L36.8843 40.9688L40.9688 36.8843L53.482 49.3976C54.0271 49.9436 54.3281 50.6694 54.3281 51.4407C54.3281 53.0332 53.0332 54.3281 51.4407 54.3281Z" fill="#2D6AFF"/>
<path d="M14.25 34.7344C9.82983 34.7344 6.23438 38.3298 6.23438 42.75C6.23438 47.1702 9.82983 50.7656 14.25 50.7656C18.6702 50.7656 22.2656 47.1702 22.2656 42.75C22.2656 38.3298 18.6702 34.7344 14.25 34.7344ZM14.25 48.9844C10.8131 48.9844 8.01562 46.1869 8.01562 42.75C8.01562 39.3131 10.8131 36.5156 14.25 36.5156C17.6869 36.5156 20.4844 39.3131 20.4844 42.75C20.4844 46.1869 17.6869 48.9844 14.25 48.9844Z" fill="#2D6AFF"/>
<path d="M12.4688 44.1623L11.3172 43.0107L10.0579 44.2701L12.4688 46.681L18.4422 40.7076L17.1829 39.4482L12.4688 44.1623Z" fill="#2D6AFF"/>
<path d="M51.6562 52.5469C52.1481 52.5469 52.5469 52.1481 52.5469 51.6562C52.5469 51.1644 52.1481 50.7656 51.6562 50.7656C51.1644 50.7656 50.7656 51.1644 50.7656 51.6562C50.7656 52.1481 51.1644 52.5469 51.6562 52.5469Z" fill="#2D6AFF"/>
<path d="M44.5312 8.90625H46.3125V10.6875H44.5312V8.90625Z" fill="#2D6AFF"/>
<path d="M44.5312 12.4688H46.3125V14.25H44.5312V12.4688Z" fill="#2D6AFF"/>
<path d="M46.3125 10.6875H48.0938V12.4688H46.3125V10.6875Z" fill="#2D6AFF"/>
<path d="M42.75 10.6875H44.5312V12.4688H42.75V10.6875Z" fill="#2D6AFF"/>
<path d="M50.7656 2.67188H52.5469V4.45312H50.7656V2.67188Z" fill="#2D6AFF"/>
<path d="M50.7656 6.23438H52.5469V8.01562H50.7656V6.23438Z" fill="#2D6AFF"/>
<path d="M52.5469 4.45312H54.3281V6.23438H52.5469V4.45312Z" fill="#2D6AFF"/>
<path d="M48.9844 4.45312H50.7656V6.23438H48.9844V4.45312Z" fill="#2D6AFF"/>
<path d="M49.875 25.8281H51.6562V27.6094H49.875V25.8281Z" fill="#2D6AFF"/>
<path d="M49.875 29.3906H51.6562V31.1719H49.875V29.3906Z" fill="#2D6AFF"/>
<path d="M51.6562 27.6094H53.4375V29.3906H51.6562V27.6094Z" fill="#2D6AFF"/>
<path d="M48.0938 27.6094H49.875V29.3906H48.0938V27.6094Z" fill="#2D6AFF"/>
<path d="M30.2812 47.2031H32.0625V48.9844H30.2812V47.2031Z" fill="#2D6AFF"/>
<path d="M30.2812 50.7656H32.0625V52.5469H30.2812V50.7656Z" fill="#2D6AFF"/>
<path d="M32.0625 48.9844H33.8438V50.7656H32.0625V48.9844Z" fill="#2D6AFF"/>
<path d="M28.5 48.9844H30.2812V50.7656H28.5V48.9844Z" fill="#2D6AFF"/>
</g>
<defs>
<clipPath id="clip0_216_409">
<rect width="57" height="57" fill="white"/>
</clipPath>
</defs>
</svg>
