<svg width="50" height="50" viewBox="0 0 50 50" fill="none" xmlns="http://www.w3.org/2000/svg">
<g clip-path="url(#clip0_216_464)">
<path d="M14.4092 18.8049C14.4091 18.8111 14.4082 18.8172 14.4082 18.8234V31.1281C14.449 36.6662 35.5511 36.6659 35.5918 31.1281V18.8234C35.5918 18.8198 35.5912 18.8169 35.5911 18.8133C35.5229 13.2899 14.4947 13.2905 14.4092 18.8049ZM34.127 27.0265C34.127 28.1279 30.5715 29.7277 25 29.7277C19.4285 29.7277 15.873 28.1279 15.873 27.0265V25.1483C19.7792 27.7326 30.2209 27.7326 34.127 25.1483V27.0265ZM34.127 22.925C34.127 24.0263 30.5715 25.6261 25 25.6261C19.4285 25.6261 15.873 24.0263 15.873 22.925V21.0459C19.7788 23.6302 30.2212 23.6302 34.127 21.0459V22.925ZM25 33.8293C19.4285 33.8293 15.873 32.2295 15.873 31.1281V29.2499C19.7792 31.8342 30.2209 31.8342 34.127 29.2499V31.1281C34.127 32.2295 30.5715 33.8293 25 33.8293ZM25 16.1222C30.5713 16.1222 34.1266 17.7219 34.1266 18.823C34.1266 19.9242 30.5713 21.5238 25 21.5238C19.4287 21.5238 15.8734 19.9242 15.8734 18.823C15.8734 17.7219 19.4287 16.1222 25 16.1222Z" fill="#2D6AFF"/>
<path d="M28.0487 39.8449C11.6847 42.9377 2.88027 21.6797 16.6347 12.312C16.972 12.0888 17.0645 11.6344 16.8413 11.297C16.618 10.9597 16.1636 10.8671 15.8263 11.0903C15.0901 11.5774 14.4009 12.1168 13.7616 12.7014L11.8455 10.7853C13.7639 8.10527 11.7611 4.23389 8.44053 4.26582C6.15205 4.26582 4.29023 6.12764 4.29023 8.41621C4.25869 11.7367 8.12959 13.7397 10.8097 11.8211L12.7253 13.7368C10.1059 16.5936 8.54932 20.2965 8.37715 24.2431H6.26143C5.32715 20.6302 0.0900391 21.2065 0 24.9757C0.0904297 28.7455 5.32783 29.3204 6.26143 25.708H8.37637C8.55215 29.7449 10.1724 33.413 12.7326 36.2071L10.8098 38.13C8.12979 36.2116 4.2584 38.2144 4.29033 41.535C4.29033 43.8234 6.15215 45.6853 8.44072 45.6853C11.7612 45.7168 13.7643 41.8459 11.8456 39.1658L13.7685 37.243C16.5625 39.8032 20.2307 41.4234 24.2676 41.5992V43.7142C20.6546 44.6484 21.2309 49.8855 25 49.9756C28.7698 49.8852 29.3447 44.6478 25.7324 43.7142V41.5992C26.6122 41.5609 27.487 41.4547 28.3419 41.2801C28.7383 41.1991 28.9939 40.8122 28.913 40.4158C28.8319 40.0197 28.4445 39.7643 28.0487 39.8449ZM5.75518 8.41631C5.75518 6.93555 6.95996 5.73076 8.44072 5.73076C11.9985 5.86582 11.9976 10.9673 8.44072 11.1019C6.95996 11.1019 5.75518 9.89707 5.75518 8.41631ZM3.17383 26.6846C2.23154 26.6846 1.46484 25.9179 1.46484 24.9756C1.55078 22.7115 4.79727 22.7121 4.88281 24.9756C4.88281 25.9179 4.11611 26.6846 3.17383 26.6846ZM8.44072 44.2204C6.95996 44.2204 5.75518 43.0156 5.75518 41.5349C5.89023 37.9771 10.9917 37.978 11.1263 41.5349C11.1263 43.0156 9.92148 44.2204 8.44072 44.2204ZM26.709 46.8018C26.709 47.744 25.9423 48.5107 25 48.5107C22.7359 48.4248 22.7365 45.1783 25 45.0928C25.9423 45.0928 26.709 45.8595 26.709 46.8018Z" fill="#2D6AFF"/>
<path d="M46.8264 21.8018C45.3284 21.8018 44.0704 22.8452 43.7388 24.2432H41.6238C41.448 20.2063 39.8278 16.5382 37.2676 13.744L39.1904 11.8212C41.8704 13.7396 45.7418 11.7368 45.7099 8.41621C45.7099 6.12773 43.848 4.26592 41.5595 4.26592C38.239 4.23438 36.2359 8.10527 38.1546 10.7854L36.2317 12.7082C33.4377 10.148 29.7695 8.52773 25.7326 8.35195V6.28584C29.3456 5.35156 28.7693 0.114453 25.0002 0.0244141C21.2304 0.114844 20.6555 5.35225 24.2678 6.28584V8.35108C22.4584 8.4292 20.6916 8.79678 19.0059 9.44756C18.6286 9.59326 18.4408 10.0173 18.5864 10.3946C18.7321 10.772 19.156 10.96 19.5335 10.8142C29.2467 6.91016 40.3247 14.4931 40.1759 24.9757C40.176 30.9665 36.6384 36.4115 31.1634 38.8474C30.7938 39.0118 30.6275 39.4447 30.7919 39.8143C30.9566 40.1877 31.398 40.3487 31.7588 40.1857C33.4287 39.4428 34.934 38.4441 36.2374 37.2486L38.1545 39.1657C36.2361 41.8457 38.2389 45.7171 41.5595 45.6852C43.8479 45.6852 45.7098 43.8233 45.7098 41.5348C45.7413 38.2143 41.8704 36.2112 39.1903 38.1299L37.2723 36.2118C39.8681 33.3723 41.4496 29.6692 41.6239 25.7079H43.7386C44.6732 29.3214 49.91 28.7441 50 24.9755C50.0002 23.2255 48.5765 21.8018 46.8264 21.8018ZM41.5595 5.73076C43.0402 5.73076 44.245 6.93555 44.245 8.41631C44.11 11.9741 39.0085 11.9731 38.8739 8.41631C38.8739 6.93555 40.0787 5.73076 41.5595 5.73076ZM23.2912 3.19824C23.2912 2.25596 24.0579 1.48926 25.0002 1.48926C27.2642 1.5752 27.2637 4.82168 25.0002 4.90723C24.0579 4.90723 23.2912 4.14053 23.2912 3.19824ZM44.245 41.5349C44.245 43.0156 43.0402 44.2204 41.5595 44.2204C38.0016 44.0854 38.0026 38.9839 41.5595 38.8493C43.0402 38.8493 44.245 40.0541 44.245 41.5349ZM46.8264 26.6846C45.8841 26.6846 45.1174 25.9179 45.1174 24.9756C45.2033 22.7115 48.4498 22.7121 48.5353 24.9756C48.5353 25.9179 47.7686 26.6846 46.8264 26.6846Z" fill="#2D6AFF"/>
</g>
<defs>
<clipPath id="clip0_216_464">
<rect width="50" height="50" fill="white"/>
</clipPath>
</defs>
</svg>
