<svg width="74" height="74" fill="none" xmlns="http://www.w3.org/2000/svg"><path d="M14.722 41.47H56.94c16.481-.676 16.508-24.174 0-24.86a12.144 12.144 0 00-1.954.15C52.644 3.19 34.505.13 27.851 12.266a12.375 12.375 0 00-11.638 9.176 10.07 10.07 0 10-1.491 20.029zm33.272-17.532a1.156 1.156 0 012.312 0V35.16a1.156 1.156 0 01-2.312 0V23.938zM35.86 23.81a1.159 1.159 0 011.155-1.156h4.207a3.964 3.964 0 010 7.928h-3.051v4.45a1.156 1.156 0 01-2.312 0V23.81zm-12.135 2.808a3.97 3.97 0 013.964-3.964h1.398a3.97 3.97 0 013.964 3.964v8.413a1.156 1.156 0 01-2.311 0v-4.45h-4.704v4.45a1.155 1.155 0 11-2.311 0V26.62z" fill="url(#paint0_linear_37_2838)"/><path d="M30.74 26.619a1.654 1.654 0 00-1.653-1.653H27.69a1.654 1.654 0 00-1.653 1.653v1.652h4.704V26.62zm12.135 0a1.65 1.65 0 00-1.653-1.653h-3.051v3.305h3.051a1.66 1.66 0 001.653-1.652z" fill="#5941B6"/><path d="M56.94 43.781H54.2a18.48 18.48 0 01-34.37 0h-5.108a12.34 12.34 0 01-10.066-5.19 3.69 3.69 0 003.236 4.346 1.186 1.186 0 011.063.89 28.265 28.265 0 003.374 8.148 1.19 1.19 0 01-.127 1.375 3.513 3.513 0 00.208 4.773l3.456 3.456a3.513 3.513 0 004.773.208 1.188 1.188 0 011.375-.127 28.261 28.261 0 008.148 3.374 1.188 1.188 0 01.89 1.075 3.514 3.514 0 003.513 3.225h4.9a3.515 3.515 0 003.514-3.236 1.187 1.187 0 01.89-1.064 28.263 28.263 0 008.147-3.374 1.19 1.19 0 011.376.127 3.513 3.513 0 004.773-.208l3.455-3.456a3.514 3.514 0 00.208-4.773 1.189 1.189 0 01-.127-1.375 28.266 28.266 0 003.375-8.148 1.189 1.189 0 011.075-.89 3.514 3.514 0 003.224-3.513v-2.473a14.746 14.746 0 01-12.435 6.83z" fill="url(#paint1_linear_37_2838)"/><defs><linearGradient id="paint0_linear_37_2838" x1="-18.26" y1="73.228" x2="77.103" y2="63.863" gradientUnits="userSpaceOnUse"><stop stop-color="#2780E6"/><stop offset="1" stop-color="#781896"/></linearGradient><linearGradient id="paint1_linear_37_2838" x1="-18.368" y1="97.277" x2="76.912" y2="86.623" gradientUnits="userSpaceOnUse"><stop stop-color="#2780E6"/><stop offset="1" stop-color="#781896"/></linearGradient></defs></svg>