<svg width="76" height="76" fill="none" xmlns="http://www.w3.org/2000/svg"><path d="M65.027 10.97c-4.638-4.637-12.102-4.637-27.03-4.637-14.927 0-22.391 0-27.029 4.638-2.398 2.399-3.556 5.553-4.115 10.106a20.58 20.58 0 015.967-4.584c2.474-1.26 5.124-1.772 8.058-2.011 2.835-.232 6.323-.232 10.587-.232H44.53c4.265 0 7.752 0 10.587.232 2.934.24 5.584.75 8.059 2.012a20.577 20.577 0 015.966 4.583c-.558-4.553-1.716-7.708-4.115-10.106z" fill="url(#paint0_linear_37_2834)"/><path fill-rule="evenodd" clip-rule="evenodd" d="M6.333 44.333c0-8.867 0-13.3 1.726-16.688a15.833 15.833 0 016.92-6.92C18.364 19 22.798 19 31.666 19h12.666c8.868 0 13.302 0 16.689 1.726a15.832 15.832 0 016.919 6.92c1.726 3.386 1.726 7.82 1.726 16.687 0 8.868 0 13.302-1.726 16.689a15.83 15.83 0 01-6.92 6.919c-3.386 1.726-7.82 1.726-16.688 1.726H31.667c-8.868 0-13.302 0-16.689-1.726a15.832 15.832 0 01-6.919-6.92c-1.726-3.386-1.726-7.82-1.726-16.688zm33.346 11.18a2.374 2.374 0 01-3.358 0l-7.917-7.917a2.375 2.375 0 113.358-3.359l3.863 3.862V34.833a2.375 2.375 0 014.75 0V48.1l3.862-3.862a2.375 2.375 0 113.359 3.359l-7.917 7.917z" fill="url(#paint1_linear_37_2834)"/><defs><linearGradient id="paint0_linear_37_2834" x1="-15.224" y1="33.8" x2="72.635" y2="13.052" gradientUnits="userSpaceOnUse"><stop stop-color="#2780E6"/><stop offset="1" stop-color="#781896"/></linearGradient><linearGradient id="paint1_linear_37_2834" x1="-16.114" y1="113.387" x2="77.742" y2="106.829" gradientUnits="userSpaceOnUse"><stop stop-color="#2780E6"/><stop offset="1" stop-color="#781896"/></linearGradient></defs></svg>