<svg width="52" height="52" fill="none" xmlns="http://www.w3.org/2000/svg"><g clip-path="url(#clip0_258_2110)"><g clip-path="url(#clip1_258_2110)" fill="#2D6AFF"><path d="M26 39.854c-.874 0-1.583-.71-1.583-1.583v-6.73a1.584 1.584 0 013.167 0v6.73c0 .874-.71 1.583-1.584 1.583z"/><path d="M27.979 43.417H24.02a1.188 1.188 0 01-1.187-1.188v-3.958c0-.656.532-1.188 1.188-1.188h3.958c.655 0 1.187.532 1.187 1.188v3.958c0 .656-.532 1.188-1.187 1.188z"/><path d="M24.02 41.833H13.334a1.584 1.584 0 010-3.166h10.688a1.584 1.584 0 010 3.166zm14.646 0H27.98a1.584 1.584 0 010-3.166h10.687a1.584 1.584 0 010 3.166zm.792-33.25H12.542A5.548 5.548 0 007 14.125a5.548 5.548 0 005.542 5.542h26.916A5.548 5.548 0 0045 14.125a5.548 5.548 0 00-5.542-5.542zM12.542 16.5a2.376 2.376 0 11.001-4.752 2.376 2.376 0 01-.001 4.752zm7.916 0a2.376 2.376 0 11.002-4.752 2.376 2.376 0 01-.002 4.752zm19 6.333H12.542A5.548 5.548 0 007 28.375a5.548 5.548 0 005.542 5.542h26.916A5.548 5.548 0 0045 28.375a5.548 5.548 0 00-5.542-5.542zM12.542 30.75a2.376 2.376 0 11.001-4.752 2.376 2.376 0 01-.001 4.752zm7.916 0a2.376 2.376 0 11.002-4.752 2.376 2.376 0 01-.002 4.752z"/></g><g filter="url(#filter0_f_258_2110)"><circle cx="28.746" cy="21.695" r="2.969" fill="#2D6AFF" fill-opacity=".34"/></g></g><defs><clipPath id="clip0_258_2110"><path fill="#fff" d="M0 0h52v52H0z"/></clipPath><clipPath id="clip1_258_2110"><path fill="#fff" transform="translate(7 7)" d="M0 0h38v38H0z"/></clipPath><filter id="filter0_f_258_2110" x="-54.823" y="-61.873" width="167.137" height="167.137" filterUnits="userSpaceOnUse" color-interpolation-filters="sRGB"><feFlood flood-opacity="0" result="BackgroundImageFix"/><feBlend in="SourceGraphic" in2="BackgroundImageFix" result="shape"/><feGaussianBlur stdDeviation="40.3" result="effect1_foregroundBlur_258_2110"/></filter></defs></svg>