<svg width="52" height="52" fill="none" xmlns="http://www.w3.org/2000/svg"><g clip-path="url(#clip0_2013_193)" fill="#2D6AFF"><path d="M22.751 24.064c-4.858-.077-9.404-.913-12.748-3.666l-.001 4.963c4.809 4.705 20.739 4.72 25.498-.054l-.001-4.909c-3.346 2.753-7.888 3.588-12.748 3.666zm-.024 7.156c-4.967-.083-9.05-.736-12.726-2.88L10 31.993c.826 3.756 7.84 5.043 13.2 5.015-1.436-1.601-.745-4.198 1.334-4.804 1.149-.34 2.27-.795 3.358-1.362-1.637.248-3.38.378-5.165.378z"/><path d="M14.108 20.175c4.589 2.045 12.696 2.045 17.285 0 5.46-2.232 5.462-6.909 0-9.141-4.59-2.045-12.696-2.045-17.285 0-5.46 2.232-5.462 6.909 0 9.141zm34.629-1.663a3.044 3.044 0 00-4.244.691l-5.657 7.858a6.42 6.42 0 011.03.604c.703.543 3.355 2.308 3.907 2.947l5.655-7.855c.98-1.36.67-3.265-.69-4.245zm-7.233 13.22l-3.008-2.165a3.976 3.976 0 00-4.941.22c-2.556 2.21-5.367 3.78-8.356 4.663a.586.586 0 00-.302.915 44.436 44.436 0 002.298 2.824c.132.148.33.219.524.19l2.747-.41-1.365 1.355a.586.586 0 00.011.843 24.66 24.66 0 004.427 3.327c.217.128.49.103.681-.062l1.546-1.338-.425 1.866c-.06.267.072.54.319.659 1.365.653 2.889 1.257 4.659 1.848.371.136.797-.18.77-.577-.104-2.798.234-5.026 1.033-7.268.279-.85.499-1.52.763-2.19a3.937 3.937 0 00-1.381-4.7z"/></g><defs><clipPath id="clip0_2013_193"><path fill="#fff" transform="translate(10 8)" d="M0 0h40v40H0z"/></clipPath></defs></svg>