<svg width="52" height="52" fill="none" xmlns="http://www.w3.org/2000/svg"><g clip-path="url(#clip0_2013_189)" fill="#2D6AFF"><path d="M37.531 17.912c-.13 0-.26.005-.389.014a7.043 7.043 0 00-6.98-4.93C28.419 9.938 25.16 8 21.672 8c-4.382 0-8.26 3.012-9.424 7.237a7.052 7.052 0 00-4.18 6.435 7.048 7.048 0 003.829 6.264v-2.573a3.08 3.08 0 013.076-3.076h21.054a3.08 3.08 0 013.076 3.076v3.115a5.409 5.409 0 003.829-5.166c0-2.977-2.423-5.4-5.4-5.4z"/><path d="M36.027 24.338H14.973c-.567 0-1.026.459-1.026 1.025v7.242h23.106v-7.242c0-.566-.46-1.025-1.026-1.025zM22.74 29.602h-5.442a1.025 1.025 0 010-2.051h5.442a1.025 1.025 0 010 2.05zm6.59-.01a1.025 1.025 0 110-2.051 1.025 1.025 0 010 2.05zm4.374 0a1.025 1.025 0 110-2.051 1.025 1.025 0 010 2.05zM13.947 41.974c0 .567.46 1.026 1.026 1.026h21.054c.567 0 1.026-.46 1.026-1.026v-7.318H13.947v7.319zm19.756-4.443a1.025 1.025 0 110 2.051 1.025 1.025 0 010-2.05zm-4.375 0a1.025 1.025 0 110 2.051 1.025 1.025 0 010-2.05zm-12.031 0h5.442a1.025 1.025 0 010 2.051h-5.442a1.025 1.025 0 010-2.05z"/></g><defs><clipPath id="clip0_2013_189"><path fill="#fff" transform="translate(8 8)" d="M0 0h35v35H0z"/></clipPath></defs></svg>