<svg width="52" height="52" fill="none" xmlns="http://www.w3.org/2000/svg"><path d="M44.172 33.752l-2.097-1.219-13.76 7.886a3.656 3.656 0 01-3.656 0l-13.735-7.861-2.096 1.219a1.219 1.219 0 000 2.12l17.062 9.75a1.218 1.218 0 001.22 0l17.062-9.75a1.22 1.22 0 000-2.12v-.025z" fill="#2D6AFF"/><path d="M44.172 26.44l-2.097-1.22-13.76 7.886a3.656 3.656 0 01-3.656 0l-13.735-7.86-2.096 1.218a1.219 1.219 0 000 2.12l17.062 9.75a1.218 1.218 0 001.22 0l17.062-9.75a1.22 1.22 0 000-2.12v-.024z" fill="#2D6AFF"/><path d="M8.828 21.248l17.062 9.75a1.22 1.22 0 001.22 0l17.062-9.75a1.22 1.22 0 000-2.12l-17.063-9.75a1.219 1.219 0 00-1.219 0l-17.062 9.75a1.219 1.219 0 000 2.12zm22.242-3.303l1.718-1.718 3.108 3.095a1.218 1.218 0 010 1.73l-3.108 3.096-1.718-1.718 2.242-2.242-2.242-2.243zM26.5 15.13l2.437.585-2.437 9.53-2.365-.585 2.365-9.53zm-9.397 4.192l3.108-3.095 1.718 1.718-2.242 2.242 2.242 2.243-1.718 1.718-3.108-3.095a1.22 1.22 0 010-1.73z" fill="#2D6AFF"/></svg>