<svg width="52" height="52" fill="none" xmlns="http://www.w3.org/2000/svg"><path fill-rule="evenodd" clip-rule="evenodd" d="M22.151 40.167L20.485 43.5H18.5a.834.834 0 000 1.667h15a.834.834 0 000-1.667h-1.985l-1.667-3.333h12.818a2.5 2.5 0 002.5-2.5V14.333a2.5 2.5 0 00-2.5-2.5H9.333a2.5 2.5 0 00-2.5 2.5v23.334a2.5 2.5 0 002.5 2.5h12.818zm1.864 0h3.97L29.65 43.5h-7.303l1.667-3.333zm19.485-5v2.5c0 .46-.374.833-.834.833H9.333a.834.834 0 01-.833-.833v-2.5h35zM31.833 21.926V31a.834.834 0 001.667 0v-9.074a.834.834 0 00-1.667 0zM28.5 23.942V31a.834.834 0 001.666 0v-7.058a.834.834 0 00-1.666 0zM38.5 16v15a.834.834 0 001.666 0V16a.834.834 0 00-1.666 0zm-3.334 3.333V31a.834.834 0 001.667 0V19.333a.834.834 0 00-1.667 0zm-17.5-4.166c-4.139 0-7.5 3.36-7.5 7.5 0 4.139 3.361 7.5 7.5 7.5 4.14 0 7.5-3.361 7.5-7.5 0-4.14-3.36-7.5-7.5-7.5zm-.833 1.725a5.838 5.838 0 00-5 5.775 5.836 5.836 0 005.833 5.833 5.837 5.837 0 005.774-5h-4.107a2.5 2.5 0 01-2.5-2.5v-4.108zm1.667 0V21c0 .46.373.833.833.833h4.108a5.842 5.842 0 00-4.941-4.94z" fill="#2D6AFF"/></svg>