<svg width="52" height="52" fill="none" xmlns="http://www.w3.org/2000/svg"><path d="M8.17 44.957a2.516 2.516 0 002.517 2.516h30.627a2.516 2.516 0 002.516-2.516V35.81H8.17v9.147zm20.949-2.764a.749.749 0 01-.142 0 1.11 1.11 0 01-.147-.024 2.564 2.564 0 112.163-4.312.538.538 0 11-.78.743 1.487 1.487 0 10-1.254 2.5h.016l.18.008h.03a2.565 2.565 0 01-.303 5.111c-.054 0-.109 0-.164-.005a2.557 2.557 0 01-2.081-1.316.54.54 0 01.942-.524 1.486 1.486 0 101.54-2.186v.005zm-8.562.96a.54.54 0 011.078 0v.576a1.417 1.417 0 002.833.012v-6.142a.54.54 0 011.078 0v6.323c0 .056-.009.11-.025.164a2.495 2.495 0 01-4.964-.36v-.572zm13.755-26.49a2.736 2.736 0 01-2.733-2.733V4.527H10.687A2.516 2.516 0 008.17 7.043v27.689h35.66V16.663h-9.518zm-14.388 2.862a.411.411 0 01-.397.41c-.23-.003-.46.025-.684.082a.676.676 0 00-.374.29c-.08.134-.12.38-.12.74 0 .65-.03 1.373-.09 2.17a3.215 3.215 0 01-.425 1.399 2.156 2.156 0 01-.385.462.568.568 0 00-.01.829c.131.126.25.266.35.418.24.381.39.811.44 1.258.032.221.068.94.108 2.156.016.45.044.725.09.833a.693.693 0 00.376.36c.138.06.383.098.736.115a.41.41 0 01.393.41v1.041a.408.408 0 01-.418.42c-.748 0-1.302-.06-1.663-.18a2.137 2.137 0 01-.883-.532 2.041 2.041 0 01-.491-.888c-.1-.36-.151-.976-.151-1.85 0-.977-.053-1.636-.158-1.977a1.477 1.477 0 00-.494-.768 1.169 1.169 0 00-.3-.159 1.13 1.13 0 01-.739-1.057 1.143 1.143 0 01.756-1.064c.092-.034.18-.08.26-.137.217-.16.384-.41.5-.749.117-.34.175-.914.175-1.722 0-1.018.046-1.715.14-2.089.07-.332.223-.64.444-.898a2.22 2.22 0 01.898-.552c.395-.144.964-.216 1.707-.217a.41.41 0 01.411.411l-.002 1.035zm2.509 6.828a1.207 1.207 0 110-1.707 1.153 1.153 0 01.36.854 1.169 1.169 0 01-.36.85v.003zm4.425 0a1.212 1.212 0 01-1.977-1.321c.062-.147.154-.28.27-.39a1.22 1.22 0 011.98.39c.061.147.091.305.089.464a1.17 1.17 0 01-.362.854v.003zm4.424 0a1.213 1.213 0 01-1.976-1.321c.062-.147.154-.28.27-.39a1.22 1.22 0 011.98.39c.06.147.091.305.088.464a1.17 1.17 0 01-.362.854v.003zm5.327.212a1.131 1.131 0 00-.259.135c-.218.157-.387.407-.505.75-.119.341-.179.916-.18 1.725 0 1.018-.045 1.713-.136 2.084-.069.33-.22.637-.44.893a2.22 2.22 0 01-.898.552c-.394.144-.963.216-1.708.216a.408.408 0 01-.408-.409v-1.045a.409.409 0 01.396-.409c.23.002.459-.026.681-.082a.69.69 0 00.374-.29c.082-.133.124-.38.124-.74 0-.653.03-1.378.09-2.174.026-.49.17-.965.416-1.388.107-.171.236-.327.385-.463a.569.569 0 00.013-.83 2.432 2.432 0 01-.35-.417 3.007 3.007 0 01-.441-1.27c-.03-.216-.067-.934-.108-2.156-.016-.449-.047-.731-.09-.834a.672.672 0 00-.373-.367c-.137-.06-.378-.097-.724-.111a.41.41 0 01-.392-.41v-1.04a.41.41 0 01.408-.41c.747 0 1.3.062 1.657.186.332.108.634.292.88.539.238.25.408.555.495.888.1.359.15.976.15 1.85 0 .977.053 1.636.158 1.976.08.3.251.567.49.765.092.068.194.122.302.16a1.13 1.13 0 01.74 1.06 1.146 1.146 0 01-.747 1.063v.003z" fill="#2D6AFF"/><path d="M34.311 15.585h8.748L32.656 5.281v8.65a1.657 1.657 0 001.655 1.654z" fill="#2D6AFF"/></svg>