<svg width="52" height="52" fill="none" xmlns="http://www.w3.org/2000/svg"><g clip-path="url(#clip0_2013_195)"><path d="M40.206 29.164a2.897 2.897 0 01-2.05 4.95 2.895 2.895 0 01-2.9-2.9 2.895 2.895 0 012.9-2.9c.8 0 1.524.326 2.05.85zm7.795 1.44v1.221a.817.817 0 01-.574.788l-.867.28a.801.801 0 00-.54.563 8.168 8.168 0 01-.719 1.733.81.81 0 00-.014.779l.414.813a.818.818 0 01-.152.962l-.864.864a.82.82 0 01-.962.152l-.813-.414a.796.796 0 00-.779.014 8.014 8.014 0 01-1.733.717.803.803 0 00-.56.542l-.283.867a.813.813 0 01-.788.571h-1.22a.816.816 0 01-.788-.57l-.281-.868a.81.81 0 00-.562-.542 8.03 8.03 0 01-1.733-.717.803.803 0 00-.779-.014l-.814.414a.82.82 0 01-.961-.152l-.864-.864a.82.82 0 01-.152-.962l.414-.813a.796.796 0 00-.015-.779 8.019 8.019 0 01-.716-1.733.811.811 0 00-.543-.562l-.866-.28a.815.815 0 01-.571-.789v-1.22c0-.368.223-.677.57-.788l.87-.284a.807.807 0 00.54-.559c.174-.61.414-1.19.716-1.733a.796.796 0 00.015-.779l-.414-.814a.82.82 0 01.152-.961l.864-.864a.817.817 0 01.961-.152l.814.414a.81.81 0 00.779-.015 8.159 8.159 0 011.733-.719.802.802 0 00.562-.54l.28-.866a.818.818 0 01.788-.574h1.221c.367 0 .676.226.788.574l.283.866a.793.793 0 00.56.54c.61.174 1.19.417 1.733.72a.809.809 0 00.779.014l.813-.414a.817.817 0 01.962.152l.864.864c.257.257.32.636.152.961l-.414.814a.809.809 0 00.014.779 8.15 8.15 0 01.72 1.733.795.795 0 00.54.56l.866.283c.348.111.574.42.574.787zm-5.56.61a4.27 4.27 0 00-1.254-3.03 4.274 4.274 0 00-3.03-1.257 4.274 4.274 0 00-3.034 1.257 4.272 4.272 0 00-1.254 3.03c0 1.186.478 2.257 1.254 3.033a4.273 4.273 0 003.033 1.254 4.274 4.274 0 003.031-1.254 4.273 4.273 0 001.255-3.033zm-13.605 9.17h-3.03l-.925-2.575h-6.61l-.922 2.575h-3.031a.695.695 0 100 1.389h14.518a.696.696 0 00.695-.696.692.692 0 00-.695-.693zm-1.88-10.161H4.999V13.399c0-1.195.978-2.17 2.174-2.17h28.81c1.196 0 2.174.975 2.174 2.17v6.583h-.611c-.967 0-1.81.614-2.108 1.534l-.193.587c-.507.162-1 .367-1.474.613l-.552-.282a2.205 2.205 0 00-2.574.408l-.864.864a2.205 2.205 0 00-.407 2.573l.28.553a9.729 9.729 0 00-.61 1.474l-.59.19a2.204 2.204 0 00-1.498 1.727zm-13.225-9.15l4.595-2.567a.692.692 0 00-.672-1.21l-5.67 3.166a.692.692 0 00-.008 1.214l5.678 3.172a.69.69 0 10.672-1.21l-4.595-2.566zm9.187-5.845a.693.693 0 00-.83.521l-2.369 10.34a.692.692 0 101.35.306l2.368-10.337a.693.693 0 00-.52-.83zm2.583 9.62l5.678-3.171a.692.692 0 00-.007-1.215l-5.67-3.166a.692.692 0 00-.673 1.21l4.595 2.566-4.595 2.567a.692.692 0 00.672 1.209zm2.955 9.085a2.203 2.203 0 01-1.531-2.108v-.214H4.999v2.638a2.18 2.18 0 002.174 2.171h22.085c.034-.09.071-.18.117-.269l.28-.552a9.994 9.994 0 01-.612-1.474l-.587-.192z" fill="#2D6AFF"/></g><defs><clipPath id="clip0_2013_195"><path fill="#fff" transform="translate(5 5)" d="M0 0h43v43H0z"/></clipPath></defs></svg>