<svg width="52" height="52" fill="none" xmlns="http://www.w3.org/2000/svg"><g clip-path="url(#clip0_256_2029)" fill="#2D6AFF"><path d="M39.867 11H12.133A2.14 2.14 0 0010 13.133v3.2h32v-3.2A2.14 2.14 0 0039.867 11zM13.2 14.733a1.07 1.07 0 01-1.067-1.066c0-.587.48-1.067 1.067-1.067s1.067.48 1.067 1.067a1.07 1.07 0 01-1.067 1.066zm3.2 0a1.07 1.07 0 01-1.067-1.066c0-.587.48-1.067 1.067-1.067s1.067.48 1.067 1.067a1.07 1.07 0 01-1.067 1.066zm3.2 0a1.07 1.07 0 01-1.067-1.066c0-.587.48-1.067 1.067-1.067s1.067.48 1.067 1.067a1.07 1.07 0 01-1.067 1.066zM18 35.73a1 1 0 100-2 1 1 0 000 2z"/><path d="M26 29.73c-.55 0-1 .45-1 1 0 .56.45 1 1 1s1-.44 1-1c0-.55-.45-1-1-1zm0 0c-.55 0-1 .45-1 1 0 .56.45 1 1 1s1-.44 1-1c0-.55-.45-1-1-1zm0 0c-.55 0-1 .45-1 1 0 .56.45 1 1 1s1-.44 1-1c0-.55-.45-1-1-1zm0 0c-.55 0-1 .45-1 1 0 .56.45 1 1 1s1-.44 1-1c0-.55-.45-1-1-1zM10 18.47v22.4c0 1.17.96 2.13 2.13 2.13h27.74c1.17 0 2.13-.96 2.13-2.13v-22.4H10zm9 19.09v1.17c0 .56-.45 1-1 1s-1-.44-1-1v-1.17c-1.16-.42-2-1.52-2-2.83a3 3 0 012-2.82v-9.18c0-.55.45-1 1-1s1 .45 1 1v9.18a3 3 0 012 2.82c0 1.31-.84 2.41-2 2.83zm7.98-3.99c.02.05.02.11.02.16v5c0 .56-.45 1-1 1s-1-.44-1-1v-5c0-.05 0-.11.02-.16A3.021 3.021 0 0123 30.73a3 3 0 012-2.82v-5.18c0-.55.45-1 1-1s1 .45 1 1v5.18a3 3 0 012 2.82c0 1.31-.85 2.43-2.02 2.84zM35 30.56v8.17c0 .56-.45 1-1 1s-1-.44-1-1v-8.17c-1.16-.42-2-1.52-2-2.83a3 3 0 012-2.82v-2.18c0-.55.45-1 1-1s1 .45 1 1v2.18a3 3 0 012 2.82c0 1.31-.84 2.41-2 2.83zm-1-3.83c-.55 0-1 .45-1 1 0 .56.45 1 1 1s1-.44 1-1c0-.55-.45-1-1-1zm-8 3c-.55 0-1 .45-1 1 0 .56.45 1 1 1s1-.44 1-1c0-.55-.45-1-1-1zm0 0c-.55 0-1 .45-1 1 0 .56.45 1 1 1s1-.44 1-1c0-.55-.45-1-1-1zm0 0c-.55 0-1 .45-1 1 0 .56.45 1 1 1s1-.44 1-1c0-.55-.45-1-1-1z"/></g><defs><clipPath id="clip0_256_2029"><path fill="#fff" transform="translate(10 11)" d="M0 0h32v32H0z"/></clipPath></defs></svg>