<svg width="58" height="58" viewBox="0 0 58 58" fill="none" xmlns="http://www.w3.org/2000/svg">
<g clip-path="url(#clip0_933_829)">
<path d="M27.3007 3.98218C20.7506 4.35816 14.608 6.90347 9.70508 11.2731L17.2877 18.8557C20.1412 16.48 23.606 15.0444 27.3007 14.7069V3.98218Z" fill="#2D6AFF"/>
<path d="M14.8846 21.258L7.30214 13.6755C2.9288 18.5771 0.380313 24.7201 0.00195312 31.2719H10.7271C11.0669 27.5765 12.5056 24.1113 14.8846 21.258Z" fill="#2D6AFF"/>
<path d="M47.2728 31.2719H57.9979C57.6195 24.7201 55.0712 18.5771 50.6977 13.6755L43.1152 21.258C45.4943 24.1112 46.9329 27.5765 47.2728 31.2719Z" fill="#2D6AFF"/>
<path d="M47.2721 34.6702C47.0339 37.2873 46.287 39.4702 45.4036 41.2212C46.2654 42.5501 46.9838 43.6732 47.4584 44.419C48.751 46.4504 48.4648 49.0579 46.7624 50.7604C46.3491 51.1738 45.8769 51.5068 45.3652 51.753L47.1312 53.519C47.4635 53.8514 47.8992 54.0176 48.3348 54.0176C48.7705 54.0176 49.206 53.8514 49.5383 53.519C54.6273 48.4306 57.5947 41.7906 58.0009 34.6702H47.2721Z" fill="#2D6AFF"/>
<path d="M10.7289 34.6702H0C0.406113 41.7906 3.37352 48.4306 8.46245 53.5191C8.79482 53.8515 9.23038 54.0177 9.66595 54.0177C10.1015 54.0177 10.5372 53.8514 10.8696 53.5191L16.0252 48.3632C16.6898 47.6984 16.6898 46.6207 16.0252 45.9559C14.6798 44.6105 11.2907 40.8437 10.7289 34.6702Z" fill="#2D6AFF"/>
<path d="M48.2949 11.2731C43.3919 6.90336 37.2494 4.35816 30.6992 3.98218V14.7069C34.3938 15.0444 37.8587 16.48 40.7123 18.8557L48.2949 11.2731Z" fill="#2D6AFF"/>
<path d="M32.7763 29.2239C30.6945 27.1422 27.3072 27.1422 25.2254 29.2239C23.1436 31.3057 23.1436 34.693 25.2254 36.7748C27.8553 39.4047 40.7802 47.6573 42.2453 48.5896C42.9172 49.0172 43.7959 48.9207 44.3592 48.3576C44.9223 47.7945 45.0188 46.9157 44.5912 46.2438C43.6587 44.7787 35.4062 31.8537 32.7763 29.2239Z" fill="#2D6AFF"/>
</g>
<defs>
<clipPath id="clip0_933_829">
<rect width="58" height="58" fill="white"/>
</clipPath>
</defs>
</svg>
