<svg width="67" height="67" viewBox="0 0 67 67" fill="none" xmlns="http://www.w3.org/2000/svg">
<g clip-path="url(#clip0_933_839)">
<path d="M50.1768 16.7919C47.7437 16.7758 45.3365 17.2912 43.1233 18.3019C40.91 19.3127 38.9442 20.7945 37.363 22.6439L34.882 25.5019L40.4199 31.8983L43.6862 28.1295C44.4878 27.1938 45.4838 26.444 46.6047 25.9323C47.7257 25.4207 48.9446 25.1595 50.1768 25.1669C51.2822 25.1493 52.3801 25.3519 53.4065 25.7629C54.4329 26.1738 55.3672 26.7848 56.1552 27.5603C56.9431 28.3359 57.5688 29.2604 57.996 30.2802C58.4231 31.2999 58.6431 32.3944 58.6431 33.5C58.6431 34.6056 58.4231 35.7001 57.996 36.7198C57.5688 37.7396 56.9431 38.6641 56.1552 39.4397C55.3672 40.2152 54.4329 40.8262 53.4065 41.2371C52.3801 41.648 51.2822 41.8506 50.1768 41.8331C48.9486 41.8412 47.7334 41.5813 46.616 41.0714C45.4986 40.5615 44.5059 39.814 43.7071 38.8809C31.578 24.8758 37.3411 31.5528 29.6371 22.6334C28.0539 20.7873 26.0874 19.3084 23.8744 18.2995C21.6615 17.2907 19.2553 16.7762 16.8234 16.7919C12.3921 16.7919 8.14231 18.5522 5.00893 21.6856C1.87555 24.8189 0.115234 29.0687 0.115234 33.5C0.115234 37.9313 1.87555 42.181 5.00893 45.3144C8.14231 48.4478 12.3921 50.2081 16.8234 50.2081C19.2564 50.2242 21.6637 49.7088 23.8769 48.698C26.0901 47.6873 28.056 46.2054 29.6371 44.3561L32.1182 41.4981L26.5802 35.1017L23.314 38.8705C22.5123 39.8062 21.5164 40.556 20.3954 41.0677C19.2745 41.5793 18.0555 41.8405 16.8234 41.8331C15.7179 41.8506 14.62 41.648 13.5937 41.2371C12.5673 40.8262 11.6329 40.2152 10.845 39.4397C10.0571 38.6641 9.43132 37.7396 9.00419 36.7198C8.57706 35.7001 8.35709 34.6056 8.35709 33.5C8.35709 32.3944 8.57706 31.2999 9.00419 30.2802C9.43132 29.2604 10.0571 28.3359 10.845 27.5603C11.6329 26.7848 12.5673 26.1738 13.5937 25.7629C14.62 25.3519 15.7179 25.1493 16.8234 25.1669C18.0516 25.1587 19.2668 25.4187 20.3842 25.9286C21.5016 26.4385 22.4943 27.186 23.293 28.1191C35.4221 42.1241 29.6591 35.4472 37.363 44.3666C39.1785 46.5291 41.5103 48.1987 44.1424 49.2208C46.7745 50.2428 49.622 50.5843 52.4211 50.2135C55.2203 49.8428 57.8806 48.7718 60.1559 47.0998C62.4312 45.4278 64.2479 43.2088 65.4378 40.6481C66.6277 38.0875 67.1524 35.2681 66.9632 32.4508C66.774 29.6336 65.8771 26.9096 64.3556 24.531C62.834 22.1525 60.7369 20.1963 58.2585 18.8435C55.7801 17.4907 53.0004 16.785 50.1768 16.7919Z" fill="#2D6AFF"/>
</g>
<defs>
<clipPath id="clip0_933_839">
<rect width="67" height="67" fill="white"/>
</clipPath>
</defs>
</svg>
