<svg width="91" height="91" fill="none" xmlns="http://www.w3.org/2000/svg"><path fill-rule="evenodd" clip-rule="evenodd" d="M19.16 49.718a3.113 3.113 0 110 6.226 3.113 3.113 0 010-6.226zm21.824 9.756V46.637a2.514 2.514 0 012.507-2.507 2.515 2.515 0 012.507 2.507v9.14a2.564 2.564 0 012.497-2.018 2.56 2.56 0 012.553 2.504 2.325 2.325 0 012.082-1.302 2.324 2.324 0 012.318 2.317v.376a2.266 2.266 0 011.813-.912 2.27 2.27 0 012.264 2.264v10.5c0 1.019-.216 1.9-.686 2.786h-16.72a2.085 2.085 0 00-.674-.618l-2.544-1.482c-1.44-.838-2.505-2.116-2.627-3.777l-.39-5.323c0-2.493 1.742-4.106 4.234-4.106l.866 2.488zm17.512 15.162v3.79H42.474v-3.79h16.022zm-15.355-39.25a8.013 8.013 0 00-4.64 1.471l-7.515-7.909a9.947 9.947 0 002.309-6.386c0-5.516-4.473-9.988-9.989-9.988-5.516 0-9.989 4.472-9.989 9.988 0 5.516 4.473 9.989 9.989 9.989a9.944 9.944 0 005.986-1.992l7.514 7.908a8.017 8.017 0 00-1.716 4.97c0 .91.151 1.786.43 2.602l-8.067 4.142a9.979 9.979 0 00-8.293-4.419c-5.516 0-9.988 4.473-9.988 9.99 0 5.516 4.472 9.988 9.988 9.988 5.517 0 9.99-4.472 9.99-9.989a9.951 9.951 0 00-.63-3.494l8.067-4.142a8.097 8.097 0 002.053 1.999v-3.477a4.86 4.86 0 014.851-4.85 4.86 4.86 0 014.85 4.85v2.947a8.04 8.04 0 002.767-4.975H61.92c.58 4.964 4.8 8.817 9.92 8.817 5.516 0 9.988-4.472 9.988-9.989 0-5.516-4.472-9.988-9.988-9.988-5.12 0-9.34 3.853-9.92 8.817H51.108a8.007 8.007 0 00-1.419-3.515l8.497-8.188a9.946 9.946 0 006.333 2.263c5.516 0 9.988-4.472 9.988-9.988 0-5.517-4.472-9.989-9.989-9.989-5.516 0-9.988 4.472-9.988 9.989 0 2.27.758 4.364 2.034 6.041l-8.497 8.19a8.017 8.017 0 00-4.925-1.683zm28.699 2.018a3.113 3.113 0 110 6.226 3.113 3.113 0 010-6.226zm5.811 11a6.16 6.16 0 00-11.623 0 7.645 7.645 0 015.811-12.613 7.644 7.644 0 015.812 12.614zm-13.133-31.6a3.113 3.113 0 110 6.227 3.113 3.113 0 010-6.226zm5.812 11.001a6.16 6.16 0 00-11.623 0 7.645 7.645 0 1111.623 0zM23.306 16.53a3.113 3.113 0 110 6.226 3.113 3.113 0 010-6.226zm5.812 11a6.16 6.16 0 00-11.622 0 7.645 7.645 0 1113.456-4.968 7.621 7.621 0 01-1.834 4.968zm-4.146 33.19a7.645 7.645 0 10-13.456-4.967 7.61 7.61 0 001.834 4.967 6.16 6.16 0 0111.622 0z" fill="#2D6AFF"/></svg>