<svg width="91" height="91" fill="none" xmlns="http://www.w3.org/2000/svg"><g clip-path="url(#clip0_2027_207)" fill="#2D6AFF"><path d="M25.75 58.667a3.292 3.292 0 11-6.583 0 3.292 3.292 0 016.583 0zm9.875-36.209a3.292 3.292 0 100 6.584H68.54a3.292 3.292 0 000-6.584H35.625zM25.75 25.75a3.292 3.292 0 11-6.583 0 3.292 3.292 0 016.583 0z"/><path fill-rule="evenodd" clip-rule="evenodd" d="M25.75 6C14.842 6 6 14.842 6 25.75c0 6.87 3.507 12.92 8.829 16.458C9.507 45.746 6 51.797 6 58.667c0 10.907 8.842 19.75 19.75 19.75h15.498A26.233 26.233 0 0058.668 85C73.21 85 85 73.21 85 58.667a26.24 26.24 0 00-6.976-17.854C82.292 37.19 85 31.787 85 25.75 85 14.842 76.158 6 65.25 6h-39.5zm6.583 52.667c0 4.796 1.283 9.293 3.523 13.166H25.75c-7.272 0-13.167-5.895-13.167-13.166 0-7.272 5.895-13.167 13.167-13.167h10.106a26.213 26.213 0 00-3.523 13.167zm26.334-26.334a26.232 26.232 0 00-17.419 6.584H25.75c-7.272 0-13.167-5.895-13.167-13.167s5.895-13.167 13.167-13.167h39.5c7.272 0 13.167 5.895 13.167 13.167a13.15 13.15 0 01-5.546 10.739 26.21 26.21 0 00-14.204-4.156zm3.291 16.459a3.292 3.292 0 10-6.583 0v9.875c0 1.156.607 2.227 1.598 2.822l8.23 4.938a3.292 3.292 0 003.386-5.645l-6.63-3.98v-8.01z"/></g><defs><clipPath id="clip0_2027_207"><path fill="#fff" transform="translate(6 6)" d="M0 0h79v79H0z"/></clipPath></defs></svg>