<svg width="91" height="91" fill="none" xmlns="http://www.w3.org/2000/svg"><path d="M47.017 22.75v7.644a10.59 10.59 0 004.169 8.459l7.07 5.446a1.517 1.517 0 010 2.402l-7.069 5.445a10.594 10.594 0 00-4.17 8.462v7.642h3.033v-5.651a7.567 7.567 0 012.994-6.067l8.965-6.91a5.254 5.254 0 016.415 0l8.971 6.915a7.561 7.561 0 012.988 6.062v5.651h3.034v-7.644a10.591 10.591 0 00-4.17-8.459l-7.069-5.444a1.516 1.516 0 010-2.403l7.068-5.444a10.594 10.594 0 004.17-8.46V22.75h-3.033v5.654a7.563 7.563 0 01-2.994 6.067l-8.965 6.904a5.257 5.257 0 01-6.415 0l-8.971-6.915a7.559 7.559 0 01-2.988-6.054V22.75h-3.033z" fill="#2D6AFF"/><path d="M66.581 52.03a2.227 2.227 0 00-2.714 0l-8.98 6.915a4.56 4.56 0 00-1.804 3.654v5.651H77.35v-5.651a4.55 4.55 0 00-1.8-3.65l-8.969-6.918zm-2.722-13.052a2.222 2.222 0 002.715 0l8.97-6.914a4.558 4.558 0 001.806-3.658V22.75H53.083v5.654a4.55 4.55 0 001.8 3.648l8.976 6.926zm21.074 32.305H45.5a3.033 3.033 0 00-3.033 3.034v3.033h45.5v-3.033a3.033 3.033 0 00-3.034-3.034zm-42.466-54.6a3.033 3.033 0 003.033 3.034h39.433a3.033 3.033 0 003.034-3.034V13.65h-45.5v3.033zM4.55 71.283H9.1a1.517 1.517 0 000-3.033H4.55a1.517 1.517 0 000 3.033zm0-48.533H9.1a1.517 1.517 0 000-3.033H4.55a1.516 1.516 0 100 3.033zm0 24.267h18.2a4.628 4.628 0 014.55 4.55 4.55 4.55 0 01-4.55 4.55H10.617A1.564 1.564 0 009.1 57.633a1.517 1.517 0 001.517 1.517h19.716a4.55 4.55 0 010 9.1h-9.1a1.547 1.547 0 00-1.517 1.517 1.516 1.516 0 001.517 1.516h19.043a6.065 6.065 0 013.707-2.816v-7.86a13.603 13.603 0 015.354-10.86l5.507-4.247-5.508-4.247a13.6 13.6 0 01-5.353-10.858v-7.859a6.054 6.054 0 01-3.706-2.82H21.232a1.568 1.568 0 00-1.517 1.517 1.517 1.517 0 001.517 1.517h9.1a4.654 4.654 0 014.55 4.55 4.55 4.55 0 01-4.55 4.55H10.617A1.545 1.545 0 009.1 33.367a1.517 1.517 0 001.517 1.516H22.75a4.671 4.671 0 014.55 4.55 4.55 4.55 0 01-4.55 4.55H4.55A1.537 1.537 0 003.033 45.5a1.517 1.517 0 001.517 1.517z" fill="#2D6AFF"/></svg>