<svg width="91" height="91" fill="none" xmlns="http://www.w3.org/2000/svg"><g clip-path="url(#clip0_2027_211)"><path fill-rule="evenodd" clip-rule="evenodd" d="M46.044 39.1a9 9 0 01.635.57c.162.155.32.321.471.498L57.31 26.02a5.525 5.525 0 01-1.234-.89L46.044 39.1zm3.036 7.172h8.216a34.403 34.403 0 010-1.534H49.08c.047.51.046 1.024-.001 1.534zm5.585 21.03L44.331 52.968c.465-.216.91-.473 1.329-.767l10.073 13.971a45.54 45.54 0 01-1.068 1.13zm25.642-14.21a12.101 12.101 0 10-18.815 0 10.41 10.41 0 016.213-5.41 5.51 5.51 0 116.388 0 10.409 10.409 0 016.214 5.41zm-13.391-9.898a3.983 3.983 0 117.965.015 3.983 3.983 0 01-7.965-.015zm-4.292 11.121a8.912 8.912 0 0116.553 0 12.068 12.068 0 01-16.553 0zm-20.963-2.166V38.85a6.692 6.692 0 010 13.298zm21.11 12.82a8.935 8.935 0 00-7.13 14.325 8.013 8.013 0 014.333-3.804 4.34 4.34 0 115.593 0 8.017 8.017 0 014.333 3.804 8.934 8.934 0 00-7.13-14.324zm-2.816 7.204a2.816 2.816 0 115.632.007 2.816 2.816 0 01-5.632-.007zm-3.203 8.333a6.535 6.535 0 0112.039 0 8.906 8.906 0 01-12.04 0zm-16.616-19.91a1.668 1.668 0 01-.868 1.513 1.685 1.685 0 01-1.737 0l-4.711-2.715V31.606l4.711-2.715a1.737 1.737 0 012.606 1.513v30.192zm-19.442-6.934a8.03 8.03 0 014.131 1.11l6.47 3.74V32.488l-6.47 3.742a8.03 8.03 0 01-4.13 1.109h-3.836v16.324h3.835zm-1.9 13.215a2.698 2.698 0 01-5.396 0V55.186h5.396v11.691zM8 49.216v-7.432a4.448 4.448 0 014.447-4.446h2.887v16.324h-2.887A4.448 4.448 0 018 49.216zM62.77 8.15a8.956 8.956 0 00-8.938 8.946 8.853 8.853 0 001.809 5.379 8.054 8.054 0 014.333-3.805 4.34 4.34 0 115.593 0 8.058 8.058 0 014.333 3.804 8.858 8.858 0 001.809-5.378 8.957 8.957 0 00-8.94-8.946zm-2.816 7.204a2.816 2.816 0 115.632.007 2.816 2.816 0 01-5.632-.007zm-3.203 8.334a6.535 6.535 0 0112.04 0 8.906 8.906 0 01-12.04 0z" fill="#2D6AFF"/></g><defs><clipPath id="clip0_2027_211"><path fill="#fff" transform="translate(8 8)" d="M0 0h75v75H0z"/></clipPath></defs></svg>