<svg width="91" height="91" fill="none" xmlns="http://www.w3.org/2000/svg"><path fill-rule="evenodd" clip-rule="evenodd" d="M15.052 27.396v-8.23c0-1.092.434-2.136 1.204-2.91a4.121 4.121 0 012.91-1.204h8.23a2.47 2.47 0 000-4.938h-8.23c-2.4 0-4.704.955-6.402 2.65a9.068 9.068 0 00-2.65 6.403v8.229a2.47 2.47 0 004.938 0zm60.895 36.208v8.23a4.121 4.121 0 01-1.204 2.909 4.121 4.121 0 01-2.91 1.205h-8.23a2.47 2.47 0 000 4.937h8.23c2.4 0 4.704-.954 6.402-2.65a9.068 9.068 0 002.65-6.402v-8.229a2.47 2.47 0 00-4.938 0zm-17.281-53.49c-12.261 0-22.219 9.958-22.219 22.22 0 12.26 9.958 22.218 22.219 22.218 12.261 0 22.219-9.957 22.219-22.219 0-12.261-9.958-22.218-22.219-22.218zm0 4.938c9.54 0 17.281 7.742 17.281 17.281 0 9.54-7.742 17.282-17.281 17.282-9.54 0-17.281-7.742-17.281-17.282 0-9.539 7.742-17.281 17.281-17.281z" fill="#2D6AFF"/><path fill-rule="evenodd" clip-rule="evenodd" d="M42.267 44.016a2.465 2.465 0 00.013 3.318c4.066 4.437 9.902 7.218 16.386 7.218 6.491 0 12.334-2.788 16.4-7.232a2.47 2.47 0 00-.073-3.407c-.155-.154-.31-.312-.464-.47-4.036-4.115-9.651-6.666-15.863-6.666a22.146 22.146 0 00-15.862 6.666c-.178.184-.36.375-.537.573zm-26.32 26.316a2.465 2.465 0 000 3.335c4.062 4.434 9.902 7.218 16.386 7.218 6.491 0 12.334-2.788 16.4-7.231a2.47 2.47 0 00-.073-3.407c-.155-.155-.31-.313-.464-.471-4.036-4.115-9.652-6.666-15.863-6.666a22.146 22.146 0 00-16.386 7.222z" fill="#2D6AFF"/><path d="M58.667 37.27a8.23 8.23 0 100-16.457 8.23 8.23 0 000 16.458zM32.333 63.604a8.23 8.23 0 100-16.458 8.23 8.23 0 000 16.458z" fill="#2D6AFF"/><path fill-rule="evenodd" clip-rule="evenodd" d="M54.522 57.508c.02.385.03.77.03 1.158 0 12.262-9.958 22.22-22.219 22.22-12.261 0-22.219-9.958-22.219-22.22 0-12.261 9.958-22.218 22.219-22.218.388 0 .774.01 1.159.03a25.31 25.31 0 001.392 5.095 17.17 17.17 0 00-2.551-.188c-9.54 0-17.281 7.742-17.281 17.282 0 9.539 7.742 17.28 17.281 17.28 9.54 0 17.281-7.741 17.281-17.28 0-.866-.062-1.719-.187-2.552a25.43 25.43 0 005.095 1.393z" fill="#2D6AFF"/></svg>