<svg width="182" height="70" fill="none" xmlns="http://www.w3.org/2000/svg"><g clip-path="url(#clip0_7_4149)"><rect width="181.688" height="69.75" rx="2.25" fill="#fff"/><path d="M21.715 24.146a.563.563 0 011.07 0l1.107 3.407a.562.562 0 00.535.389h3.581c.545 0 .772.697.331 1.017l-2.898 2.105a.562.562 0 00-.204.63l1.107 3.405a.562.562 0 01-.866.63l-2.897-2.106a.563.563 0 00-.662 0l-2.897 2.105a.562.562 0 01-.866-.629l1.107-3.406a.562.562 0 00-.204-.629L16.16 28.96c-.44-.32-.214-1.017.33-1.017h3.582c.244 0 .46-.157.535-.39l1.107-3.405zm15.75 0a.563.563 0 011.07 0l1.107 3.407a.562.562 0 00.535.389h3.581c.545 0 .772.697.331 1.017l-2.898 2.105a.562.562 0 00-.204.63l1.107 3.405a.562.562 0 01-.866.63l-2.897-2.106a.563.563 0 00-.662 0l-2.897 2.105a.562.562 0 01-.866-.629l1.107-3.406a.562.562 0 00-.204-.629L31.91 28.96c-.44-.32-.214-1.017.33-1.017h3.582c.244 0 .46-.157.535-.39l1.107-3.405zm15.75 0a.563.563 0 011.07 0l1.107 3.407a.562.562 0 00.535.389h3.581c.545 0 .772.697.331 1.017l-2.898 2.105a.562.562 0 00-.204.63l1.107 3.405a.562.562 0 01-.866.63l-2.897-2.106a.563.563 0 00-.662 0l-2.897 2.105a.562.562 0 01-.866-.629l1.107-3.406a.562.562 0 00-.204-.629L47.66 28.96c-.44-.32-.214-1.017.33-1.017h3.582c.244 0 .46-.157.535-.39l1.107-3.405zm15.75 0a.563.563 0 011.07 0l1.107 3.407a.562.562 0 00.535.389h3.581c.545 0 .772.697.331 1.017l-2.898 2.105a.562.562 0 00-.204.63l1.107 3.405a.562.562 0 01-.866.63l-2.897-2.106a.563.563 0 00-.662 0l-2.897 2.105a.562.562 0 01-.866-.629l1.107-3.406a.562.562 0 00-.204-.629L63.41 28.96c-.44-.32-.214-1.017.33-1.017h3.582c.244 0 .46-.157.535-.39l1.107-3.405z" fill="#FF492C"/><path d="M84.849 24.19a.422.422 0 01.802 0l1.107 3.406c.094.29.364.486.669.486h3.581c.41 0 .579.523.248.763l-2.897 2.106a.703.703 0 00-.256.786l1.107 3.406a.422.422 0 01-.65.472l-2.897-2.106a.703.703 0 00-.826 0l-2.898 2.106a.422.422 0 01-.65-.472l1.108-3.406a.703.703 0 00-.256-.786l-2.897-2.106a.422.422 0 01.248-.763h3.581a.703.703 0 00.669-.486l1.107-3.406z" stroke="#FF3722" stroke-width=".281"/><mask id="a" style="mask-type:alpha" maskUnits="userSpaceOnUse" x="77" y="22" width="9" height="17"><path fill="#D9D9D9" d="M77.375 22.5h7.875v15.75h-7.875z"/></mask><g mask="url(#a)"><path d="M84.715 24.146a.563.563 0 011.07 0l1.107 3.407a.562.562 0 00.535.389h3.581c.545 0 .772.697.331 1.017l-2.898 2.105a.562.562 0 00-.204.63l1.107 3.405a.562.562 0 01-.866.63l-2.897-2.106a.563.563 0 00-.662 0l-2.897 2.105a.562.562 0 01-.866-.629l1.107-3.406a.562.562 0 00-.204-.629L79.16 28.96c-.44-.32-.214-1.017.33-1.017h3.582c.244 0 .46-.157.535-.39l1.107-3.405z" fill="#FF492C"/></g><path d="M12.196 46.25v-6.545h2.017c.413 0 .769.08 1.067.242.299.162.527.387.687.675.16.285.24.618.24.997 0 .375-.08.705-.24.99a1.68 1.68 0 01-.687.666c-.296.16-.65.24-1.064.24H12.41v-.375h1.796c.337 0 .625-.063.863-.188.239-.126.422-.302.55-.528a1.62 1.62 0 00.192-.805c0-.311-.064-.582-.192-.812a1.326 1.326 0 00-.553-.54c-.239-.128-.526-.192-.863-.192h-1.607v6.175h-.4zm2.688-2.966l1.61 2.966h-.46l-1.6-2.966h.45zm4.644 3.068c-.444 0-.83-.11-1.157-.329a2.163 2.163 0 01-.76-.901 3.034 3.034 0 01-.27-1.304c0-.49.09-.927.27-1.31a2.24 2.24 0 01.744-.908 1.832 1.832 0 011.08-.333c.275 0 .535.056.78.167.247.108.464.266.652.473.19.206.337.456.444.748.109.291.163.62.163.984v.243h-3.886v-.355h3.496c0-.356-.072-.677-.217-.962a1.77 1.77 0 00-.591-.68 1.468 1.468 0 00-.841-.253 1.46 1.46 0 00-.872.275 1.892 1.892 0 00-.604.735 2.477 2.477 0 00-.23 1.035v.16c0 .41.07.777.213 1.103.145.324.352.58.62.77.269.187.59.281.966.281a1.6 1.6 0 00.687-.134 1.573 1.573 0 00.744-.71l.355.144c-.074.164-.19.328-.348.492a1.89 1.89 0 01-.595.406c-.238.109-.52.163-.843.163zm4.59.004c-.284 0-.544-.057-.78-.17a1.382 1.382 0 01-.566-.495 1.427 1.427 0 01-.211-.793c0-.205.036-.385.108-.54.073-.156.185-.29.336-.403a1.9 1.9 0 01.582-.278c.236-.074.518-.132.847-.172.249-.03.471-.059.668-.087a1.39 1.39 0 00.46-.137.301.301 0 00.17-.281v-.205c0-.358-.114-.642-.34-.853-.226-.211-.537-.317-.933-.317-.351 0-.648.078-.888.234a1.24 1.24 0 00-.502.594l-.368-.137c.094-.235.23-.43.406-.585.18-.156.384-.272.614-.349.232-.076.475-.115.729-.115.219 0 .428.031.626.093.2.062.378.156.534.281.157.126.282.287.374.483.091.194.137.426.137.697v3.429h-.39v-.885h-.029c-.085.183-.202.35-.351.502a1.646 1.646 0 01-.534.357c-.207.088-.44.132-.7.132zm.038-.362a1.495 1.495 0 001.374-.843c.134-.263.201-.56.201-.892v-.722a.684.684 0 01-.214.115c-.092.032-.196.06-.313.086a6.964 6.964 0 01-.364.064l-.368.048c-.358.042-.65.108-.876.198-.224.087-.387.202-.492.345a.866.866 0 00-.153.518c0 .334.115.599.345.792.23.194.517.291.86.291zm5.284.358a1.69 1.69 0 01-1.032-.326 2.114 2.114 0 01-.684-.898 3.408 3.408 0 01-.24-1.32c0-.492.081-.929.243-1.31.164-.384.393-.684.687-.901.294-.22.637-.33 1.03-.33a1.551 1.551 0 011.255.588c.143.177.252.371.326.582h.039v-2.732h.387v6.545h-.378v-1.07h-.048a2.172 2.172 0 01-.329.584 1.61 1.61 0 01-.524.428 1.59 1.59 0 01-.732.16zm.035-.36c.333 0 .617-.096.854-.285a1.8 1.8 0 00.546-.78c.128-.33.192-.704.192-1.122 0-.418-.064-.79-.192-1.115a1.754 1.754 0 00-.546-.774 1.322 1.322 0 00-.854-.284c-.336 0-.625.096-.866.287a1.8 1.8 0 00-.55.777 3.08 3.08 0 00-.188 1.109c0 .411.063.782.189 1.112.127.33.31.593.55.786.24.192.529.288.865.288zm8.086.36c-.405 0-.765-.108-1.08-.326a2.239 2.239 0 01-.745-.904 3.033 3.033 0 01-.271-1.31c0-.493.09-.93.271-1.31a2.23 2.23 0 01.745-.905c.315-.22.675-.33 1.08-.33s.765.11 1.08.33c.316.22.564.52.745.904.181.384.272.82.272 1.31 0 .49-.09.927-.272 1.31-.18.384-.43.686-.745.905a1.858 1.858 0 01-1.08.326zm0-.36c.343 0 .643-.098.898-.292a1.88 1.88 0 00.598-.786 2.75 2.75 0 00.214-1.103c0-.404-.071-.77-.214-1.099a1.916 1.916 0 00-.598-.786 1.434 1.434 0 00-.898-.294c-.343 0-.642.098-.898.294a1.916 1.916 0 00-.597.786 2.729 2.729 0 00-.215 1.1c0 .404.07.772.211 1.102.143.33.342.592.598.786.258.194.558.291.901.291zm6.585-1.484v-3.167h.39v4.909h-.39v-.796h-.032c-.115.254-.302.46-.56.62-.255.16-.558.24-.907.24-.322 0-.606-.07-.853-.211a1.496 1.496 0 01-.582-.598 1.929 1.929 0 01-.211-.927v-3.237h.39v3.221c0 .41.123.74.37.995.25.25.572.377.966.377.256 0 .491-.058.706-.173.215-.115.388-.28.518-.492.13-.215.195-.469.195-.76zm2.005 1.742v-4.91h.38v.768h.036c.106-.252.286-.453.54-.604a1.64 1.64 0 01.866-.23h.102c.034 0 .066 0 .096.003v.393a2.621 2.621 0 01-.092-.01 1.487 1.487 0 00-.857.166 1.3 1.3 0 00-.498.486 1.35 1.35 0 00-.183.704v3.234h-.39zm5.599 0v-4.91h.38v.768h.035c.107-.252.287-.453.54-.604a1.64 1.64 0 01.867-.23h.102c.034 0 .066 0 .096.003v.393a2.621 2.621 0 01-.093-.01 1.486 1.486 0 00-.856.166 1.3 1.3 0 00-.499.486 1.35 1.35 0 00-.182.704v3.234h-.39zm4.832.102c-.443 0-.828-.11-1.157-.329a2.163 2.163 0 01-.76-.901 3.034 3.034 0 01-.269-1.304c0-.49.09-.927.269-1.31.18-.384.43-.687.744-.908a1.833 1.833 0 011.08-.333c.276 0 .536.056.78.167a1.9 1.9 0 01.653.473c.19.206.337.456.444.748.108.291.163.62.163.984v.243h-3.887v-.355h3.497c0-.356-.073-.677-.218-.962a1.771 1.771 0 00-.59-.68 1.468 1.468 0 00-.841-.253 1.46 1.46 0 00-.873.275 1.894 1.894 0 00-.604.735 2.479 2.479 0 00-.23 1.035v.16c0 .41.071.777.214 1.103.145.324.352.58.62.77.269.187.59.281.965.281a1.6 1.6 0 00.688-.134 1.586 1.586 0 00.744-.71l.355.144c-.075.164-.19.328-.348.492a1.89 1.89 0 01-.595.406c-.239.109-.52.163-.844.163zm6.729-5.011l-1.774 4.909h-.441l-1.774-4.91h.419l1.56 4.408h.032l1.56-4.407h.418zm1.238 4.909v-4.91h.386v4.91h-.386zm.194-5.778a.317.317 0 01-.223-.09.29.29 0 01-.093-.217.29.29 0 01.093-.218.31.31 0 01.223-.089c.086 0 .16.03.221.09.064.06.096.132.096.217a.29.29 0 01-.093.217.31.31 0 01-.224.09zm3.74 5.88c-.443 0-.83-.11-1.157-.329a2.163 2.163 0 01-.76-.901 3.034 3.034 0 01-.27-1.304c0-.49.09-.927.27-1.31a2.24 2.24 0 01.744-.908 1.833 1.833 0 011.08-.333c.275 0 .535.056.78.167.247.108.464.266.652.473.19.206.338.456.444.748.109.291.163.62.163.984v.243h-3.886v-.355h3.496c0-.356-.072-.677-.217-.962a1.77 1.77 0 00-.591-.68 1.468 1.468 0 00-.84-.253 1.46 1.46 0 00-.873.275 1.894 1.894 0 00-.605.735 2.479 2.479 0 00-.23 1.035v.16c0 .41.072.777.214 1.103.145.324.352.58.62.77.269.187.59.281.966.281a1.6 1.6 0 00.687-.134c.192-.092.348-.203.47-.332.121-.13.213-.256.275-.378l.354.144c-.074.164-.19.328-.348.492a1.892 1.892 0 01-.595.406c-.238.109-.52.163-.843.163zm4.36-.102l-1.471-4.91h.41l1.265 4.338h.035l1.269-4.337h.406l1.265 4.334h.032l1.266-4.334h.409l-1.47 4.909h-.435l-1.253-4.273h-.041l-1.253 4.273h-.435zm9.22-3.851l-.362.096a1.395 1.395 0 00-.246-.464c-.106-.13-.24-.23-.402-.3a1.386 1.386 0 00-.575-.109c-.36 0-.656.09-.886.269a.848.848 0 00-.342.7.78.78 0 00.234.581c.155.152.393.267.712.345l.755.189c.387.096.68.251.875.467.196.213.294.478.294.795 0 .271-.073.51-.22.72a1.46 1.46 0 01-.61.488 2.159 2.159 0 01-.902.176c-.458 0-.834-.106-1.128-.32-.294-.214-.483-.522-.566-.923l.374-.096c.07.32.216.564.438.732.224.166.516.25.879.25.4 0 .723-.095.968-.285a.88.88 0 00.37-.729.808.808 0 00-.216-.572c-.145-.155-.365-.27-.659-.342l-.783-.192c-.4-.098-.7-.254-.901-.47a1.14 1.14 0 01-.3-.802c0-.264.069-.496.207-.696.139-.2.33-.357.572-.47.243-.113.521-.17.835-.17.415 0 .754.098 1.016.294.262.197.451.476.569.838zm5.763 3.953c-.405 0-.765-.108-1.08-.326a2.239 2.239 0 01-.745-.904 3.033 3.033 0 01-.272-1.31c0-.493.09-.93.272-1.31a2.23 2.23 0 01.745-.905c.315-.22.675-.33 1.08-.33s.765.11 1.08.33c.316.22.564.52.745.904.18.384.272.82.272 1.31 0 .49-.091.927-.272 1.31-.181.384-.43.686-.745.905a1.858 1.858 0 01-1.08.326zm0-.36c.343 0 .642-.098.898-.292a1.88 1.88 0 00.598-.786 2.75 2.75 0 00.214-1.103c0-.404-.072-.77-.214-1.099a1.915 1.915 0 00-.598-.786 1.434 1.434 0 00-.898-.294c-.343 0-.642.098-.898.294a1.915 1.915 0 00-.598.786 2.727 2.727 0 00-.214 1.1c0 .404.07.772.211 1.102.143.33.342.592.598.786.257.194.558.291.9.291zm3.83-2.925v3.183h-.39v-4.91h.38v.777h.038c.115-.253.3-.456.553-.61a1.72 1.72 0 01.905-.23c.33 0 .62.07.869.21.251.142.448.342.588.602.143.258.214.566.214.923v3.238h-.39v-3.222c0-.417-.124-.753-.374-1.006-.247-.256-.574-.384-.98-.384-.273 0-.516.06-.73.18-.213.118-.38.286-.501.5a1.485 1.485 0 00-.182.749z" fill="#6A6A6A"/><path d="M107.5 0h74.188v69.75H107.5l18.861-32.867L107.5 0z" fill="#FF3A22"/><g clip-path="url(#clip1_7_4149)" fill="#fff"><path d="M155.614 43.432l3.563 6.181c-5.237 4.01-13.385 4.494-19.416-.123a16.247 16.247 0 01-4.366-20.922c4.274-7.513 12.272-9.174 17.422-7.956-.139.303-3.223 6.702-3.223 6.702s-.244.015-.382.018c-1.522.065-2.656.419-3.871 1.047a9.209 9.209 0 00-4.887 7.109 8.97 8.97 0 00.608 4.462c.49 1.193 1.182 2.253 2.11 3.148 1.424 1.374 3.118 2.225 5.082 2.506 1.86.267 3.649.003 5.325-.84a10.807 10.807 0 001.789-1.141c.079-.052.15-.117.246-.191z"/><path d="M155.626 25.216c-.304-.299-.586-.575-.866-.853-.167-.165-.329-.337-.5-.499a3.113 3.113 0 01-.133-.138l.083-.174c.328-.658.842-1.14 1.451-1.522a4.035 4.035 0 012.257-.623c1.02.02 1.969.274 2.769.958.591.505.894 1.146.948 1.91.089 1.291-.445 2.28-1.506 2.97-.622.405-1.294.718-1.968 1.09-.371.205-.689.385-1.052.756-.32.373-.335.724-.335.724l4.826-.006v2.15h-7.45v-.209c-.028-1.056.095-2.05.579-3.01.445-.88 1.136-1.523 1.967-2.02.64-.382 1.313-.707 1.954-1.087.396-.235.675-.579.673-1.078 0-.428-.311-.808-.756-.927-1.049-.283-2.117.169-2.673 1.129l-.268.459zm9.335 15.931l-4.067-7.024h-8.049l-4.093 7.096h8.108l4 6.99 4.101-7.062z"/></g></g><defs><clipPath id="clip0_7_4149"><rect width="181.688" height="69.75" rx="2.25" fill="#fff"/></clipPath><clipPath id="clip1_7_4149"><path fill="#fff" transform="translate(133.312 20.25)" d="M0 0h31.649v32.537H0z"/></clipPath></defs></svg>