<svg width="30" height="30" fill="none" xmlns="http://www.w3.org/2000/svg"><path d="M5.273 5.464l3.813 3.812a8.222 8.222 0 0111.777-.059l3.809-3.813a13.613 13.613 0 00-19.395.058l-.004.002z" fill="#F0432C"/><path d="M5.323 24.595l3.809-3.808A8.223 8.223 0 019.19 9.144L5.38 5.332a13.614 13.614 0 00-.06 19.266l.003-.003z" fill="#FFBF00"/><path d="M17.694 17.686v.056h.057l-.057-.056zm-2.724 10.92a13.574 13.574 0 009.642-4.002l-3.811-3.813a8.222 8.222 0 01-11.66 0L5.332 24.6a13.574 13.574 0 009.639 4.006z" fill="#24AA49"/><path d="M28.38 12.324l-10.63.015v5.403h5.03a8.245 8.245 0 01-1.974 3.1l3.811 3.813a13.633 13.633 0 003.763-12.331z" fill="#3384FC"/></svg>