<svg width="199" height="41" fill="none" xmlns="http://www.w3.org/2000/svg"><mask id="a" style="mask-type:alpha" maskUnits="userSpaceOnUse" x="0" y="0" width="199" height="41"><path fill="#D9D9D9" d="M0 0h199v41H0z"/></mask><g mask="url(#a)"><path d="M45.708 11.944h8.28c3.456 0 6.036.708 7.74 2.124 1.704 1.392 2.556 3.42 2.556 6.084 0 2.688-.84 4.776-2.52 6.264-1.68 1.488-4.128 2.232-7.344 2.232h-3.96V37h-4.752V11.944zm8.316 12.564c1.8 0 3.12-.324 3.96-.972.864-.648 1.296-1.74 1.296-3.276 0-1.488-.42-2.544-1.26-3.168-.84-.624-2.184-.936-4.032-.936H50.46v8.352h3.564zM83.802 37l-5.112-9.54h-4.464V37h-4.752V11.944h9.036c3.24 0 5.664.648 7.272 1.944 1.608 1.296 2.412 3.18 2.412 5.652 0 1.752-.396 3.24-1.188 4.464-.792 1.224-1.968 2.136-3.528 2.736L89.022 37h-5.22zm-9.576-13.716h4.32c1.584 0 2.748-.276 3.492-.828.768-.552 1.152-1.488 1.152-2.808 0-1.272-.372-2.172-1.116-2.7-.744-.528-1.932-.792-3.564-.792h-4.284v7.128zm31.867 14.148c-2.568 0-4.776-.528-6.624-1.584-1.848-1.056-3.252-2.556-4.212-4.5s-1.44-4.236-1.44-6.876c0-2.64.48-4.932 1.44-6.876s2.364-3.444 4.212-4.5c1.848-1.056 4.056-1.584 6.624-1.584 2.568 0 4.776.528 6.624 1.584 1.848 1.056 3.252 2.556 4.212 4.5s1.44 4.236 1.44 6.876c0 2.64-.48 4.932-1.44 6.876s-2.364 3.444-4.212 4.5c-1.848 1.056-4.056 1.584-6.624 1.584zm0-4.392c2.256 0 4.032-.732 5.328-2.196 1.296-1.488 1.944-3.612 1.944-6.372s-.648-4.872-1.944-6.336c-1.296-1.488-3.072-2.232-5.328-2.232-2.256 0-4.032.744-5.328 2.232-1.296 1.464-1.944 3.576-1.944 6.336 0 2.76.648 4.884 1.944 6.372 1.296 1.464 3.072 2.196 5.328 2.196z" fill="#2D6AFF"/><path d="M132.691 37.432c-1.344 0-2.772-.18-4.284-.54a22.542 22.542 0 01-4.284-1.476v-4.608c3.12 1.68 5.904 2.52 8.352 2.52 1.224 0 2.208-.264 2.952-.792.768-.528 1.152-1.272 1.152-2.232 0-.672-.216-1.236-.648-1.692a4.437 4.437 0 00-1.548-1.152c-.624-.312-1.512-.684-2.664-1.116-1.56-.576-2.832-1.128-3.816-1.656s-1.824-1.272-2.52-2.232c-.696-.984-1.044-2.244-1.044-3.78 0-2.256.78-4.008 2.34-5.256 1.56-1.272 3.696-1.908 6.408-1.908 1.272 0 2.52.144 3.744.432 1.224.264 2.352.66 3.384 1.188v4.5c-2.424-1.344-4.764-2.016-7.02-2.016-1.248 0-2.232.228-2.952.684-.696.432-1.044 1.056-1.044 1.872 0 .816.36 1.464 1.08 1.944.744.456 1.884.96 3.42 1.512 1.608.6 2.928 1.176 3.96 1.728s1.92 1.356 2.664 2.412c.768 1.032 1.176 2.376 1.224 4.032 0 2.376-.804 4.248-2.412 5.616-1.608 1.344-3.756 2.016-6.444 2.016zm26.663 0c-2.568 0-4.776-.528-6.624-1.584-1.848-1.056-3.252-2.556-4.212-4.5s-1.44-4.236-1.44-6.876c0-2.64.48-4.932 1.44-6.876s2.364-3.444 4.212-4.5c1.848-1.056 4.056-1.584 6.624-1.584 2.568 0 4.776.528 6.624 1.584 1.848 1.056 3.252 2.556 4.212 4.5s1.44 4.236 1.44 6.876c0 2.64-.48 4.932-1.44 6.876s-2.364 3.444-4.212 4.5c-1.848 1.056-4.056 1.584-6.624 1.584zm0-4.392c2.256 0 4.032-.732 5.328-2.196 1.296-1.488 1.944-3.612 1.944-6.372s-.648-4.872-1.944-6.336c-1.296-1.488-3.072-2.232-5.328-2.232-2.256 0-4.032.744-5.328 2.232-1.296 1.464-1.944 3.576-1.944 6.336 0 2.76.648 4.884 1.944 6.372 1.296 1.464 3.072 2.196 5.328 2.196zM191.891 37l-6.372-9.18-6.264 9.18h-5.112l8.892-12.78-8.46-12.276h5.22l5.94 8.568 5.832-8.568h5.112l-8.46 12.168L197.111 37h-5.22z" fill="#1D2B51"/><mask id="b" style="mask-type:alpha" maskUnits="userSpaceOnUse" x="-7" y="7" width="42" height="31"><path d="M-7 15a8 8 0 018-8h26a8 8 0 018 8v15a8 8 0 01-8 8H1a8 8 0 01-8-8V15z" fill="#2156D6"/></mask><g mask="url(#b)"><circle cx="23" cy="15" r="12" fill="#1C46AB"/><path d="M3.534 31.999a7.412 7.412 0 119.861-11.068L40.02 44.65a7.412 7.412 0 11-9.861 11.068L3.534 31.999z" fill="#618FFF"/><path d="M9.886 36.235a5.205 5.205 0 116.925-7.773l29.92 26.656a5.205 5.205 0 01-6.925 7.773L9.886 36.235z" fill="#8BADFF"/></g><circle cx="23" cy="13" r="12" fill="#2D6AFF"/></g></svg>