<svg viewBox="0 0 24 24"  xmlns="http://www.w3.org/2000/svg" style="display:none">

	<symbol viewBox="0 0 19 19" id="writing">
		<path d="M13.0795 8.16406C13.0795 7.75415 12.7472 7.42188 12.3373 7.42188H4.69275C4.28284 7.42188 3.95056 7.75415 3.95056 8.16406C3.95056 8.57397 4.28284 8.90625 4.69275 8.90625H12.3373C12.7472 8.90625 13.0795 8.57397 13.0795 8.16406Z" fill="currentColor"/>
		<path d="M4.69275 10.3906C4.28284 10.3906 3.95056 10.7229 3.95056 11.1328C3.95056 11.5427 4.28284 11.875 4.69275 11.875H9.33554C9.74545 11.875 10.0777 11.5427 10.0777 11.1328C10.0777 10.7229 9.74545 10.3906 9.33554 10.3906H4.69275Z" fill="currentColor"/>
		<path d="M6.43692 17.5156H3.95471C3.13623 17.5156 2.47034 16.8497 2.47034 16.0312V2.96875C2.47034 2.15027 3.13623 1.48438 3.95471 1.48438H13.0795C13.898 1.48438 14.5639 2.15027 14.5639 2.96875V7.5332C14.5639 7.94311 14.8962 8.27539 15.3061 8.27539C15.716 8.27539 16.0482 7.94311 16.0482 7.5332V2.96875C16.0482 1.33178 14.7165 0 13.0795 0H3.95471C2.31774 0 0.985962 1.33178 0.985962 2.96875V16.0312C0.985962 17.6682 2.31774 19 3.95471 19H6.43692C6.84683 19 7.17911 18.6677 7.17911 18.2578C7.17911 17.8479 6.84683 17.5156 6.43692 17.5156Z" fill="currentColor"/>
		<path d="M17.3629 10.7458C16.4948 9.87769 15.0822 9.87765 14.2146 10.7452L10.1399 14.8109C10.0534 14.8973 9.98956 15.0036 9.954 15.1206L9.06661 18.042C8.98794 18.3011 9.05648 18.5823 9.24551 18.7761C9.38712 18.9212 9.5795 19 9.77681 19C9.84282 19 9.90947 18.9912 9.9749 18.973L12.9706 18.1432C13.0938 18.1091 13.2062 18.0436 13.2967 17.9532L17.3629 13.8947C18.2311 13.0266 18.2311 11.614 17.3629 10.7458ZM12.3862 16.7648L10.8791 17.1823L11.3202 15.7302L14.0696 12.9869L15.1194 14.0368L12.3862 16.7648ZM16.3138 12.8447L16.17 12.9882L15.1204 11.9385L15.2637 11.7955C15.5531 11.5061 16.0239 11.5061 16.3133 11.7955C16.6027 12.0849 16.6027 12.5557 16.3138 12.8447Z" fill="currentColor"/>
		<path d="M12.3373 4.45312H4.69275C4.28284 4.45312 3.95056 4.7854 3.95056 5.19531C3.95056 5.60522 4.28284 5.9375 4.69275 5.9375H12.3373C12.7472 5.9375 13.0795 5.60522 13.0795 5.19531C13.0795 4.7854 12.7472 4.45312 12.3373 4.45312Z" fill="currentColor"/>	
	</symbol>

	<symbol viewBox="0 0 23 23" id="user">
		<path fill-rule="evenodd" clip-rule="evenodd" d="M8.6825 9.70791C8.6825 8.15139 9.94341 6.89041 11.5 6.89041C13.0565 6.89041 14.3175 8.15139 14.3175 9.70791C14.3175 11.2645 13.0565 12.5254 11.5 12.5254C9.94341 12.5254 8.6825 11.2645 8.6825 9.70791ZM11.5 8.32791C10.7374 8.32791 10.12 8.94529 10.12 9.70791C10.12 10.4706 10.7374 11.0879 11.5 11.0879C12.2626 11.0879 12.88 10.4706 12.88 9.70791C12.88 8.94529 12.2626 8.32791 11.5 8.32791Z" fill="currentColor"/>
		<path fill-rule="evenodd" clip-rule="evenodd" d="M13.0982 15.6581C12.317 14.4922 10.5697 14.5274 9.8472 15.7475C9.64497 16.089 9.20412 16.202 8.86251 15.9997C8.52096 15.7974 8.40803 15.3566 8.61032 15.015C9.90395 12.8305 13.0608 12.8214 14.3761 14.9893C14.4444 15.1017 14.4804 15.2306 14.4804 15.3621V15.3813C14.4804 15.7782 14.1586 16.1 13.7617 16.1C13.4628 16.1 13.2066 15.9176 13.0982 15.6581Z" fill="currentColor"/>
		<path fill-rule="evenodd" clip-rule="evenodd" d="M10.7141 2.875C10.7141 2.47804 11.0359 2.15625 11.4329 2.15625C16.6259 2.15625 20.8437 6.33495 20.8437 11.5C20.8437 16.6651 16.6259 20.8438 11.4329 20.8438C11.0359 20.8438 10.7141 20.522 10.7141 20.125C10.7141 19.728 11.0359 19.4062 11.4329 19.4062C15.8424 19.4062 19.4062 15.8608 19.4062 11.5C19.4062 7.1392 15.8424 3.59375 11.4329 3.59375C11.0359 3.59375 10.7141 3.27196 10.7141 2.875Z" fill="currentColor"/>
		<path fill-rule="evenodd" clip-rule="evenodd" d="M5.29536 17.6408C5.55058 17.3368 6.00394 17.2972 6.308 17.5524C7.01497 18.146 7.83152 18.6038 8.70771 18.9224C9.08077 19.0581 9.27322 19.4705 9.13752 19.8435C9.00188 20.2166 8.58949 20.409 8.21643 20.2734C7.19511 19.902 6.22923 19.3632 5.38371 18.6534C5.07968 18.3982 5.04013 17.9448 5.29536 17.6408Z" fill="currentColor"/>
		<path fill-rule="evenodd" clip-rule="evenodd" d="M9.13753 3.15646C9.27322 3.52951 9.08077 3.9419 8.70771 4.07756C7.83521 4.39482 7.01606 4.8619 6.30398 5.45092C5.99808 5.70392 5.54502 5.66107 5.29201 5.35519C5.039 5.04932 5.08186 4.59625 5.38773 4.34324C6.22814 3.6481 7.19144 3.09935 8.21643 2.7266C8.58949 2.59095 9.00188 2.7834 9.13753 3.15646Z" fill="currentColor"/>
		<path fill-rule="evenodd" clip-rule="evenodd" d="M4.27172 6.5664C4.61473 6.76621 4.73086 7.2062 4.53107 7.54924C4.0648 8.34982 3.74046 9.22784 3.58302 10.1288C3.51468 10.5198 3.1423 10.7814 2.75127 10.713C2.36024 10.6447 2.09864 10.2723 2.16698 9.88127C2.35454 8.80803 2.73934 7.76935 3.2889 6.82578C3.48868 6.48273 3.9287 6.36664 4.27172 6.5664Z" fill="currentColor"/>
		<path fill-rule="evenodd" clip-rule="evenodd" d="M2.75127 12.287C3.1423 12.2186 3.51468 12.4803 3.58302 12.8713C3.74046 13.7722 4.0648 14.6502 4.53107 15.4508C4.73086 15.7938 4.61473 16.2338 4.27172 16.4336C3.9287 16.6334 3.48868 16.5173 3.2889 16.1742C2.73934 15.2307 2.35454 14.192 2.16698 13.1187C2.09864 12.7277 2.36024 12.3553 2.75127 12.287Z" fill="currentColor"/>	
	</symbol>

	<symbol viewBox="0 0 21 21" id="check">
		<path fill-rule="evenodd" clip-rule="evenodd" d="M19.6935 11.8198C20.0164 11.3994 20.3438 10.9731 20.3438 10.5C20.3438 10.0269 20.0164 9.60063 19.6935 9.18017C19.4431 8.8541 19.1954 8.53151 19.1051 8.19328C19.0103 7.83766 19.0642 7.41988 19.1178 7.00394C19.1849 6.48347 19.2516 5.96586 19.0263 5.57648C18.7963 5.17879 18.3084 4.9766 17.8217 4.77497C17.4371 4.61561 17.0533 4.45658 16.7984 4.20164C16.5434 3.9467 16.3844 3.5629 16.225 3.17827C16.0234 2.69164 15.8212 2.20368 15.4235 1.97367C15.0341 1.74844 14.5165 1.81514 13.9961 1.88222C13.5801 1.93582 13.1623 1.98966 12.8067 1.89492C12.4685 1.80463 12.1459 1.5569 11.8198 1.30649C11.3994 0.9836 10.9731 0.65625 10.5 0.65625C10.0269 0.65625 9.60063 0.9836 9.18017 1.30649C8.8541 1.5569 8.53151 1.80463 8.19328 1.89492C7.83766 1.98966 7.41988 1.93582 7.00394 1.88222C6.48347 1.81514 5.96586 1.74844 5.57648 1.97367C5.17879 2.20368 4.9766 2.69164 4.77497 3.17827C4.61561 3.5629 4.45658 3.9467 4.20164 4.20164C3.9467 4.45658 3.5629 4.61561 3.17827 4.77497C2.69164 4.9766 2.20368 5.17879 1.97367 5.57648C1.74844 5.96586 1.81514 6.48347 1.88222 7.00394C1.93582 7.41988 1.98966 7.83766 1.89492 8.19328C1.80463 8.53151 1.5569 8.8541 1.30649 9.18017C0.9836 9.60063 0.65625 10.0269 0.65625 10.5C0.65625 10.9731 0.9836 11.3994 1.30649 11.8198C1.5569 12.1459 1.80463 12.4685 1.89492 12.8067C1.98966 13.1623 1.93582 13.5801 1.88222 13.9961C1.81514 14.5165 1.74844 15.0341 1.97367 15.4235C2.20368 15.8212 2.69164 16.0234 3.17827 16.225C3.5629 16.3844 3.9467 16.5434 4.20164 16.7984C4.45658 17.0533 4.61561 17.4371 4.77497 17.8217C4.9766 18.3084 5.17879 18.7963 5.57648 19.0263C5.96586 19.2516 6.48347 19.1849 7.00394 19.1178C7.41988 19.0642 7.83766 19.0103 8.19328 19.1051C8.53151 19.1954 8.8541 19.4431 9.18017 19.6935C9.60063 20.0164 10.0269 20.3438 10.5 20.3438C10.9731 20.3438 11.3994 20.0164 11.8198 19.6935C12.1459 19.4431 12.4685 19.1954 12.8067 19.1051C13.1623 19.0103 13.5801 19.0642 13.9961 19.1178C14.5165 19.1849 15.0341 19.2516 15.4235 19.0263C15.8212 18.7963 16.0234 18.3084 16.225 17.8217C16.3844 17.4371 16.5434 17.0533 16.7984 16.7984C17.0533 16.5434 17.4371 16.3844 17.8217 16.225C18.3084 16.0234 18.7963 15.8212 19.0263 15.4235C19.2516 15.0341 19.1849 14.5165 19.1178 13.9961C19.0642 13.5801 19.0103 13.1623 19.1051 12.8067C19.1954 12.4685 19.4431 12.1459 19.6935 11.8198ZM9.59768 11.3138L13.3449 7.56657C13.7665 7.14493 14.449 7.14493 14.8706 7.56657C15.2923 7.98821 15.2923 8.67235 14.8706 9.09399L10.3392 13.6254C9.92908 14.0356 9.26299 14.0356 8.85283 13.6254L6.12775 10.9003C5.70611 10.4787 5.70611 9.79453 6.12775 9.37289C6.54939 8.95125 7.23354 8.95125 7.65518 9.37289L9.59768 11.3138Z" fill="currentColor"/>	
	</symbol>

	<symbol viewBox="0 0 77 105" id="map-point">
		<path d="M77 38.2718C77 71.2157 50.7736 96.1581 41.613 103.866C39.8161 105.378 37.1839 105.378 35.387 103.866C26.2264 96.1581 0 71.2157 0 38.2718C0 17.135 17.2371 0 38.5 0C59.7629 0 77 17.135 77 38.2718Z" fill="currentColor"/>	
	</symbol>

	<symbol viewBox="0 0 41 41" id="cancel">
		<path d="M26.9 35.4289H14.1C13.4255 35.4277 12.7631 35.2497 12.1789 34.9126C11.5947 34.5754 11.1091 34.091 10.7705 33.5077L4.37052 22.4219C4.03481 21.8372 3.85815 21.1748 3.85815 20.5006C3.85815 19.8265 4.03481 19.164 4.37052 18.5794L10.7705 7.49292C11.109 6.90939 11.5945 6.42483 12.1788 6.0876C12.763 5.75036 13.4254 5.57226 14.1 5.57104H26.9C27.5745 5.57227 28.2369 5.75031 28.8211 6.08743C29.4053 6.42454 29.8909 6.90894 30.2295 7.49231L36.6295 18.5781C36.9652 19.1628 37.1419 19.8252 37.1419 20.4994C37.1419 21.1735 36.9652 21.8359 36.6295 22.4206L30.2295 33.507C29.8911 34.0906 29.4055 34.5751 28.8213 34.9124C28.237 35.2496 27.5746 35.4277 26.9 35.4289ZM14.1 8.13354C13.8751 8.13388 13.6542 8.19328 13.4594 8.30582C13.2646 8.41836 13.1028 8.58008 12.9902 8.7748L6.59018 19.8594C6.47827 20.0546 6.41939 20.2756 6.41939 20.5006C6.41939 20.7256 6.47827 20.9467 6.59018 21.1419L12.9902 32.2258C13.1029 32.4204 13.2648 32.5819 13.4595 32.6944C13.6543 32.8068 13.8751 32.8661 14.1 32.8665H26.9C27.125 32.8661 27.3459 32.8067 27.5406 32.6942C27.7354 32.5816 27.8972 32.4199 28.0098 32.2252L34.4098 21.1406C34.5217 20.9454 34.5806 20.7243 34.5806 20.4994C34.5806 20.2744 34.5217 20.0533 34.4098 19.8581L28.0098 8.77417C27.8971 8.57962 27.7352 8.41807 27.5405 8.30565C27.3457 8.19324 27.1249 8.13389 26.9 8.13354H14.1Z" fill="currentColor"/>
		<path d="M16.6562 25.625C16.4029 25.6249 16.1552 25.5497 15.9445 25.4089C15.7339 25.2681 15.5697 25.0681 15.4728 24.834C15.3758 24.5999 15.3504 24.3423 15.3998 24.0938C15.4493 23.8453 15.5712 23.617 15.7504 23.4379L23.4379 15.7504C23.6789 15.5137 24.0036 15.3818 24.3413 15.3833C24.6791 15.3848 25.0026 15.5197 25.2414 15.7585C25.4802 15.9974 25.6151 16.3209 25.6166 16.6586C25.6181 16.9964 25.4862 17.3211 25.2496 17.562L17.5621 25.2495C17.4433 25.3687 17.3021 25.4632 17.1466 25.5277C16.9912 25.5921 16.8245 25.6251 16.6562 25.625Z" fill="currentColor"/>
		<path d="M24.3437 25.625C24.1754 25.6251 24.0088 25.5921 23.8533 25.5277C23.6979 25.4632 23.5567 25.3687 23.4379 25.2495L15.7504 17.562C15.5137 17.3211 15.3818 16.9964 15.3833 16.6586C15.3848 16.3209 15.5197 15.9974 15.7585 15.7585C15.9974 15.5197 16.3209 15.3848 16.6586 15.3833C16.9964 15.3818 17.3211 15.5137 17.562 15.7504L25.2495 23.4379C25.4287 23.617 25.5507 23.8453 25.6001 24.0938C25.6495 24.3423 25.6241 24.5999 25.5272 24.834C25.4302 25.0681 25.266 25.2681 25.0554 25.4089C24.8447 25.5497 24.5971 25.6249 24.3437 25.625Z" fill="currentColor"/>	
	</symbol>

	<symbol viewBox="0 0 35 35" id="success">
		<path fill-rule="evenodd" clip-rule="evenodd" d="M24.3381 6.26735C23.0679 5.85161 21.3378 5.83323 17.5001 5.83323C15.4416 5.83323 13.9708 5.83402 12.8117 5.9131C11.6657 5.99128 10.9314 6.14111 10.3347 6.38827C8.54801 7.12833 7.12852 8.54783 6.38846 10.3345C6.1413 10.9312 5.99148 11.6656 5.91329 12.8115C5.8342 13.9706 5.83341 15.4415 5.83341 17.4999C5.83341 19.5583 5.8342 21.0292 5.91329 22.1883C5.99148 23.3343 6.1413 24.0687 6.38846 24.6653C7.12852 26.452 8.54801 27.8714 10.3347 28.6115C10.9314 28.8587 11.6657 29.0085 12.8117 29.0866C13.9708 29.1658 15.4416 29.1666 17.5001 29.1666C19.5585 29.1666 21.0294 29.1658 22.1885 29.0866C23.3344 29.0085 24.0689 28.8587 24.6655 28.6115C26.4522 27.8714 27.8716 26.452 28.6117 24.6653C28.8589 24.0687 29.0087 23.3343 29.0868 22.1883C29.166 21.0292 29.1667 19.5583 29.1667 17.4999C29.1667 16.3831 29.1667 15.4346 29.1533 14.6067C29.1404 13.8014 29.7827 13.1381 30.588 13.1251C31.3933 13.1121 32.0567 13.7544 32.0697 14.5597C32.0834 15.4136 32.0834 16.3847 32.0834 17.4906V17.5536C32.0834 19.5467 32.0834 21.1167 31.9968 22.3868C31.9084 23.6813 31.7252 24.7701 31.3064 25.7815C30.2703 28.2828 28.283 30.2701 25.7817 31.3062C24.7703 31.7251 23.6815 31.9082 22.387 31.9966C21.1169 32.0832 19.5469 32.0832 17.5539 32.0832H17.4463C15.4533 32.0832 13.8832 32.0832 12.6132 31.9966C11.3187 31.9082 10.2298 31.7251 9.21853 31.3062C6.71719 30.2701 4.72989 28.2828 3.69381 25.7815C3.27491 24.7701 3.0917 23.6813 3.00339 22.3868C2.91673 21.1167 2.91675 19.5467 2.91675 17.5536V17.4462C2.91675 15.4531 2.91673 13.883 3.00339 12.613C3.0917 11.3185 3.27491 10.2296 3.69381 9.21833C4.72989 6.71701 6.71719 4.72971 9.21853 3.69362C10.2298 3.27472 11.3187 3.09152 12.6132 3.0032C13.8832 2.91655 15.4533 2.91655 17.4464 2.91656H17.5001C17.6057 2.91656 17.7102 2.91655 17.8136 2.91653C21.2401 2.91601 23.4741 2.91567 25.2454 3.49539C26.0108 3.74592 26.4283 4.56954 26.1777 5.33501C25.9272 6.10046 25.1035 6.51789 24.3381 6.26735ZM31.8846 7.28576C32.2905 7.98147 32.0556 8.87442 31.3598 9.28025L31.0366 9.46881C25.7941 12.527 21.582 17.0783 18.9383 22.5415C18.7327 22.9663 18.3342 23.2654 17.8689 23.3442C17.4035 23.4229 16.9289 23.2717 16.5949 22.938L10.7419 17.0913C10.1721 16.5221 10.1716 15.5988 10.7408 15.0289C11.31 14.4591 12.2334 14.4586 12.8032 15.0279L17.2519 19.4719C20.162 14.2859 24.4092 9.95808 29.5669 6.94945L29.8902 6.76091C30.5858 6.35508 31.4788 6.59006 31.8846 7.28576Z" fill="currentColor"/>	
	</symbol>

	<symbol viewBox="0 0 23 16" id="drop-down-arrow">
		<path fill-rule="evenodd" clip-rule="evenodd" d="M0.232178 3.76796L3.76771 0.232422L11.4999 7.96465L19.2322 0.232422L22.7677 3.76796L11.4999 15.0357L0.232178 3.76796Z" fill="currentColor"/>
	</symbol>

	<symbol viewBox="0 0 10 16" id="next-arrow">
		<path fill-rule="evenodd" clip-rule="evenodd" d="M1.70718 0.292969L9.41429 8.00008L1.70718 15.7072L0.292969 14.293L6.58586 8.00008L0.292969 1.70718L1.70718 0.292969Z" fill="currentColor"/>	
	</symbol>

	<symbol viewBox="0 0 20 20" id="home">
		<path d="M18.16 6.94921L10.4569 1.63673C10.3208 1.54847 10.1621 1.5015 9.99998 1.5015C9.83783 1.5015 9.67914 1.54847 9.54311 1.63673L1.84001 6.94921C1.7342 7.02325 1.64797 7.12189 1.58874 7.23665C1.52951 7.3514 1.49906 7.47883 1.50001 7.60796V15.5767C1.50001 16.3516 1.80784 17.0948 2.3558 17.6428C2.90376 18.1907 3.64695 18.4986 4.42187 18.4986H6.81249V13.9829C6.81249 13.208 7.12033 12.4648 7.66829 11.9169C8.21624 11.3689 8.95943 11.0611 9.73436 11.0611H10.2656C11.0405 11.0611 11.7837 11.3689 12.3317 11.9169C12.8796 12.4648 13.1875 13.208 13.1875 13.9829V18.4986H15.5781C16.353 18.4986 17.0962 18.1907 17.6442 17.6428C18.1921 17.0948 18.5 16.3516 18.5 15.5767V7.60796C18.5009 7.47883 18.4705 7.3514 18.4112 7.23665C18.352 7.12189 18.2658 7.02325 18.16 6.94921Z" fill="currentColor"/>	
	</symbol>

	<symbol viewBox="0 0 17 16" id="star">
		<path d="M17 6.15382H10.4508L8.50003 0L6.40981 6.15382H0L5.15574 9.84612L3.20492 16L8.50003 12.1709L13.6557 16L11.7049 9.84612L17 6.15382Z" fill="currentColor"/>
	</symbol>

	<symbol viewBox="0 0 13 19" id="slider-arrow-prev">
		<path d="M11 2L3 9.5L11 17" stroke="currentColor" fill="none" stroke-width="3"/>
	</symbol>

	<symbol viewBox="0 0 13 19" id="slider-arrow-next">
		<path d="M2 17L10 9.5L2 2" stroke="currentColor" fill="none" stroke-width="3"/>	
	</symbol>

	<symbol viewBox="0 0 18 15" id="check-2">
		<path d="M2 9L5.5 12.5L16 2" stroke="currentColor" fill="none" stroke-width="3"/>	
	</symbol>

	<symbol viewBox="0 0 29 29" id="dynamic-proxies">
		<path d="M26.7306 10.1953C28.1076 9.16111 29 7.51485 29 5.66406C29 2.5409 26.4592 0 23.3359 0H5.66406C2.54084 0 0 2.5409 0 5.66406C0 7.51485 0.892373 9.16105 2.26936 10.1953C0.892373 11.2296 0 12.8758 0 14.7266C0 17.8497 2.54084 20.3906 5.66406 20.3906H13.3672V22.398C12.4032 22.7399 11.6383 23.5048 11.2964 24.4688H5.4375C4.81185 24.4688 4.30469 24.9759 4.30469 25.6016C4.30469 26.2272 4.81185 26.7344 5.4375 26.7344H11.2964C11.764 28.0529 13.0232 29 14.5 29C15.9768 29 17.2359 28.0529 17.7036 26.7344H23.5625C24.1882 26.7344 24.6953 26.2272 24.6953 25.6016C24.6953 24.9759 24.1882 24.4688 23.5625 24.4688H17.7036C17.3617 23.5048 16.5968 22.7399 15.6328 22.398V20.3906H23.3359C26.4592 20.3906 29 17.8497 29 14.7266C29 12.8758 28.1076 11.2295 26.7306 10.1953ZM14.5 26.7344C13.8754 26.7344 13.3672 26.2262 13.3672 25.6016C13.3672 24.9769 13.8754 24.4688 14.5 24.4688C15.1246 24.4688 15.6328 24.9769 15.6328 25.6016C15.6328 26.2262 15.1246 26.7344 14.5 26.7344ZM2.26562 5.66406C2.26562 3.79016 3.79016 2.26562 5.66406 2.26562H23.3359C25.2098 2.26562 26.7344 3.79016 26.7344 5.66406C26.7344 7.53796 25.2098 9.0625 23.3359 9.0625H5.66406C3.79016 9.0625 2.26562 7.53796 2.26562 5.66406ZM23.3359 18.125H5.66406C3.79016 18.125 2.26562 16.6005 2.26562 14.7266C2.26562 12.8527 3.79016 11.3281 5.66406 11.3281H23.3359C25.2098 11.3281 26.7344 12.8527 26.7344 14.7266C26.7344 16.6005 25.2098 18.125 23.3359 18.125Z" fill="currentColor"/>
		<path d="M5.66406 6.79688C6.2897 6.79688 6.79688 6.2897 6.79688 5.66406C6.79688 5.03843 6.2897 4.53125 5.66406 4.53125C5.03843 4.53125 4.53125 5.03843 4.53125 5.66406C4.53125 6.2897 5.03843 6.79688 5.66406 6.79688Z" fill="currentColor"/>
		<path d="M10.1953 6.79688C10.8209 6.79688 11.3281 6.2897 11.3281 5.66406C11.3281 5.03843 10.8209 4.53125 10.1953 4.53125C9.56968 4.53125 9.0625 5.03843 9.0625 5.66406C9.0625 6.2897 9.56968 6.79688 10.1953 6.79688Z" fill="currentColor"/>
		<path d="M10.1953 15.8594C10.8209 15.8594 11.3281 15.3522 11.3281 14.7266C11.3281 14.1009 10.8209 13.5938 10.1953 13.5938C9.56968 13.5938 9.0625 14.1009 9.0625 14.7266C9.0625 15.3522 9.56968 15.8594 10.1953 15.8594Z" fill="currentColor"/>
		<path d="M5.66406 15.8594C6.2897 15.8594 6.79688 15.3522 6.79688 14.7266C6.79688 14.1009 6.2897 13.5938 5.66406 13.5938C5.03843 13.5938 4.53125 14.1009 4.53125 14.7266C4.53125 15.3522 5.03843 15.8594 5.66406 15.8594Z" fill="currentColor"/>
		<path d="M24.4688 5.66406C24.4688 5.03841 23.9616 4.53125 23.3359 4.53125H16.7656C16.14 4.53125 15.6328 5.03841 15.6328 5.66406C15.6328 6.28971 16.14 6.79688 16.7656 6.79688H23.3359C23.9616 6.79688 24.4688 6.28971 24.4688 5.66406Z" fill="currentColor"/>
		<path d="M23.3359 13.5938H16.7656C16.14 13.5938 15.6328 14.1009 15.6328 14.7266C15.6328 15.3522 16.14 15.8594 16.7656 15.8594H23.3359C23.9616 15.8594 24.4688 15.3522 24.4688 14.7266C24.4688 14.1009 23.9616 13.5938 23.3359 13.5938Z" fill="currentColor"/>
	</symbol>

	<symbol viewBox="0 0 35 35" id="cart">
		<path d="M22.9688 12.028C22.3647 12.028 21.875 12.5178 21.875 13.1218C21.875 15.5341 19.9123 17.4968 17.5 17.4968C15.0877 17.4968 13.125 15.5341 13.125 13.1218C13.125 12.5178 12.6353 12.028 12.0312 12.028C11.4272 12.028 10.9375 12.5178 10.9375 13.1218C10.9375 16.7406 13.8812 19.6843 17.5 19.6843C21.1188 19.6843 24.0625 16.7406 24.0625 13.1218C24.0625 12.5178 23.5728 12.028 22.9688 12.028Z" fill="currentColor"/>
		<path d="M31.9991 26.4887L29.4581 10.4259C29.2049 8.82103 27.842 7.65625 26.2169 7.65625H23.9637C23.4405 4.55751 20.7454 2.1875 17.5 2.1875C14.2546 2.1875 11.5595 4.55751 11.0363 7.65625H8.78311C7.15798 7.65625 5.79506 8.82103 5.54192 10.4253L3.00087 26.4887C2.75093 28.0711 3.20435 29.6776 4.24523 30.8958C5.28557 32.114 6.80122 32.8125 8.4034 32.8125H26.5966C28.1988 32.8125 29.7144 32.114 30.7548 30.8958C31.7957 29.6776 32.2491 28.0711 31.9991 26.4887ZM17.5 4.375C19.5325 4.375 21.2305 5.7747 21.7197 7.65625H13.2803C13.7695 5.7747 15.4675 4.375 17.5 4.375ZM29.0917 29.4746C28.4674 30.2058 27.5579 30.625 26.5966 30.625H8.4034C7.44209 30.625 6.53259 30.2058 5.90828 29.4746C5.28343 28.7435 5.0116 27.7801 5.16167 26.8305L7.70271 10.7666C7.7871 10.232 8.24158 9.84375 8.78311 9.84375H26.2169C26.7584 9.84375 27.2129 10.232 27.2973 10.7671L29.8383 26.8305C29.9884 27.7801 29.7166 28.7435 29.0917 29.4746Z" fill="currentColor"/>
	</symbol>

	<symbol viewBox="0 0 35 35" id="balance">
		<path fill-rule="evenodd" clip-rule="evenodd" d="M9.11328 13.125C9.11328 12.5209 9.60298 12.0312 10.207 12.0312H18.957C19.5611 12.0312 20.0508 12.5209 20.0508 13.125C20.0508 13.7291 19.5611 14.2188 18.957 14.2188H10.207C9.60298 14.2188 9.11328 13.7291 9.11328 13.125Z" fill="currentColor"/>
		<path fill-rule="evenodd" clip-rule="evenodd" d="M27.5918 15.6045C27.0683 15.6045 26.6077 15.8075 26.2755 16.1487L26.2558 16.1684C25.8679 16.5471 25.6512 17.0863 25.7057 17.6591L25.7069 17.6719C25.7841 18.598 26.6744 19.3961 27.7668 19.3961H30.6001C30.8359 19.3808 30.9897 19.1965 30.9897 19.0024V15.9982C30.9897 15.804 30.8359 15.6196 30.6001 15.6045H27.5918ZM24.7179 14.6126C25.4641 13.8517 26.487 13.417 27.5918 13.417H30.6251C30.6383 13.417 30.6512 13.4172 30.6642 13.4176C32.054 13.4673 33.1772 14.5919 33.1772 15.9982V19.0024C33.1772 20.4086 32.054 21.5333 30.6642 21.5829C30.6512 21.5833 30.6383 21.5836 30.6251 21.5836H27.7668C25.7113 21.5836 23.7161 20.0805 23.5274 17.8601C23.4097 16.6027 23.8884 15.428 24.7179 14.6126Z" fill="currentColor"/>
		<path fill-rule="evenodd" clip-rule="evenodd" d="M10.2077 6.19791C9.85148 6.19791 9.51349 6.22334 9.19276 6.27269L9.16263 6.27689C7.54777 6.47954 6.27833 7.17092 5.40911 8.19073C4.53764 9.21317 4.00977 10.6354 4.00977 12.3958V22.6042C4.00977 24.5432 4.6513 26.074 5.69462 27.1173C6.73794 28.1606 8.26874 28.8021 10.2077 28.8021H23.3327C25.2717 28.8021 26.8025 28.1606 27.8458 27.1173C28.8891 26.074 29.5306 24.5432 29.5306 22.6042V21.5833H27.766C25.7104 21.5833 23.7152 20.0802 23.5266 17.8598C23.4088 16.6024 23.8876 15.4277 24.7171 14.6125C25.4632 13.8515 26.486 13.4167 27.591 13.4167H29.5306V12.3958C29.5306 10.6235 28.9935 9.19239 28.1083 8.16664C27.2251 7.14323 25.936 6.45371 24.3001 6.26349C24.2822 6.2614 24.2644 6.25888 24.2466 6.25592C23.9843 6.2122 23.6894 6.19791 23.3327 6.19791H10.2077ZM8.87525 4.1083C9.30808 4.04255 9.75252 4.01041 10.2077 4.01041H23.3327C23.726 4.01041 24.1505 4.02463 24.5788 4.09369C26.6941 4.34544 28.4945 5.26589 29.7644 6.73749C31.0375 8.21278 31.7181 10.1723 31.7181 12.3958V14.5104C31.7181 15.1144 31.2284 15.6042 30.6243 15.6042H27.591C27.0673 15.6042 26.6068 15.8072 26.2746 16.1484L26.255 16.1681C25.867 16.5468 25.6503 17.0861 25.7048 17.6588L25.7061 17.6716C25.7833 18.5977 26.6736 19.3958 27.766 19.3958H30.6243C31.2284 19.3958 31.7181 19.8855 31.7181 20.4896V22.6042C31.7181 25.0402 30.9013 27.1552 29.3925 28.664C27.8837 30.1728 25.7687 30.9896 23.3327 30.9896H10.2077C7.77162 30.9896 5.65659 30.1728 4.14783 28.664C2.63906 27.1552 1.82227 25.0402 1.82227 22.6042V12.3958C1.82227 10.1896 2.49023 8.24306 3.74429 6.77175C4.9976 5.30131 6.77786 4.37484 8.87525 4.1083Z" fill="currentColor"/>	
	</symbol>

	<symbol viewBox="0 0 38 38" id="affiliate-program">
		<path fill-rule="evenodd" clip-rule="evenodd" d="M13.0625 9.5V8.3125C13.0625 6.34499 14.6574 4.75 16.625 4.75H21.375C23.3426 4.75 24.9375 6.34499 24.9375 8.3125V9.5H30.875C32.8426 9.5 34.4375 11.095 34.4375 13.0625V17.4661C34.4375 18.5002 33.9906 19.4598 33.2483 20.1233C33.2494 20.1445 33.25 20.1659 33.25 20.1875V29.6875C33.25 31.6551 31.6551 33.25 29.6875 33.25H8.3125C6.34499 33.25 4.75 31.6551 4.75 29.6875V20.1875C4.75 20.1659 4.75057 20.1445 4.75171 20.1233C4.00931 19.4598 3.5625 18.5002 3.5625 17.4661V13.0625C3.5625 11.095 5.15749 9.5 7.125 9.5H13.0625ZM15.4375 8.3125C15.4375 7.65667 15.9691 7.125 16.625 7.125H21.375C22.0309 7.125 22.5625 7.65667 22.5625 8.3125V9.5H15.4375V8.3125ZM22.4606 24.5993L30.875 21.2937V29.6875C30.875 30.3434 30.3434 30.875 29.6875 30.875H8.3125C7.65667 30.875 7.125 30.3434 7.125 29.6875V21.2937L15.5394 24.5993C15.9203 26.1568 17.3251 27.3125 19 27.3125C20.6749 27.3125 22.0797 26.1568 22.4606 24.5993ZM20.1875 23.7229C20.1871 23.7385 20.1871 23.754 20.1874 23.7697C20.1768 24.4164 19.6493 24.9375 19 24.9375C18.3507 24.9375 17.8232 24.4164 17.8126 23.7697C17.8129 23.754 17.8129 23.7385 17.8125 23.7229V22.5625H20.1875V23.7229ZM22.5625 22.0076L31.3093 18.5714C31.7636 18.393 32.0625 17.9544 32.0625 17.4661V13.0625C32.0625 12.4066 31.5309 11.875 30.875 11.875H7.125C6.46917 11.875 5.9375 12.4066 5.9375 13.0625V17.4661C5.9375 17.9544 6.23635 18.393 6.69079 18.5714L15.4375 22.0076V21.375C15.4375 20.7191 15.9691 20.1875 16.625 20.1875H21.375C22.0309 20.1875 22.5625 20.7191 22.5625 21.375V22.0076Z" fill="currentColor"/>	
	</symbol>

	<symbol viewBox="0 0 36 36" id="profile">
		<path d="M15.0135 16.125C16.2744 16.125 17.5069 15.7511 18.5553 15.0506C19.6036 14.3501 20.4207 13.3545 20.9032 12.1896C21.3857 11.0247 21.512 9.74293 21.266 8.5063C21.02 7.26967 20.4129 6.13376 19.5213 5.2422C18.6297 4.35064 17.4938 3.74348 16.2572 3.4975C15.0206 3.25152 13.7388 3.37776 12.5739 3.86027C11.409 4.34278 10.4134 5.15988 9.71288 6.20824C9.01239 7.25661 8.6385 8.48915 8.6385 9.75C8.64048 11.4401 9.31277 13.0605 10.5079 14.2556C11.703 15.4507 13.3234 16.123 15.0135 16.125ZM15.0135 5.625C15.8293 5.625 16.6269 5.86693 17.3052 6.32019C17.9836 6.77345 18.5123 7.41769 18.8245 8.17143C19.1367 8.92518 19.2184 9.75458 19.0592 10.5548C18.9001 11.3549 18.5072 12.0899 17.9303 12.6668C17.3534 13.2437 16.6184 13.6366 15.8182 13.7957C15.0181 13.9549 14.1887 13.8732 13.4349 13.561C12.6812 13.2488 12.0369 12.7201 11.5837 12.0417C11.1304 11.3634 10.8885 10.5659 10.8885 9.75C10.8897 8.65635 11.3247 7.60783 12.098 6.8345C12.8713 6.06117 13.9198 5.62619 15.0135 5.625ZM5.625 27.03C5.625 29.3745 6.6345 30.375 9 30.375H15C15.2984 30.375 15.5845 30.4935 15.7955 30.7045C16.0065 30.9155 16.125 31.2016 16.125 31.5C16.125 31.7984 16.0065 32.0845 15.7955 32.2955C15.5845 32.5065 15.2984 32.625 15 32.625H9C5.373 32.625 3.375 30.6375 3.375 27.03C3.375 23.037 5.634 18.375 12 18.375H18C19.1559 18.3548 20.306 18.5418 21.396 18.927C21.6546 19.046 21.8584 19.2586 21.9665 19.5219C22.0745 19.7852 22.0787 20.0797 21.9783 20.346C21.8779 20.6123 21.6802 20.8306 21.4252 20.957C21.1702 21.0834 20.8767 21.1084 20.604 21.027C19.7669 20.739 18.885 20.6029 18 20.625H12C11.1434 20.559 10.2827 20.6796 9.47724 20.9786C8.6718 21.2776 7.94081 21.7477 7.33474 22.3567C6.72867 22.9656 6.26193 23.6988 5.96675 24.5056C5.67157 25.3124 5.55497 26.1737 5.625 27.03ZM33.3555 20.814L31.6845 19.1445C31.4417 18.8996 31.1526 18.7055 30.834 18.5734C30.5155 18.4413 30.1738 18.3739 29.829 18.375C29.4837 18.3743 29.1417 18.4422 28.823 18.5748C28.5042 18.7075 28.2149 18.9021 27.972 19.1475L18.7065 28.4565C18.6021 28.5606 18.5194 28.6843 18.463 28.8204C18.4066 28.9566 18.3777 29.1026 18.378 29.25V33C18.378 33.2984 18.4965 33.5845 18.7075 33.7955C18.9185 34.0065 19.2046 34.125 19.503 34.125H23.253C23.5502 34.1247 23.8353 34.0072 24.0465 33.798L33.3465 24.531C33.5913 24.2874 33.7856 23.9978 33.9181 23.6788C34.0507 23.3599 34.1189 23.0179 34.1189 22.6725C34.1189 22.3271 34.0507 21.9851 33.9181 21.6662C33.7856 21.3472 33.5913 21.0576 33.3465 20.814H33.3555ZM22.785 31.875H20.625V29.715L26.808 23.5035L28.9965 25.692L22.785 31.875ZM31.764 22.9365L30.591 24.105L28.3965 21.909L29.565 20.7345C29.5996 20.6997 29.6407 20.6721 29.686 20.6533C29.7313 20.6345 29.7799 20.6249 29.829 20.625C29.9285 20.6252 30.0239 20.6645 30.0945 20.7345L31.7655 22.4055C31.8005 22.4399 31.8283 22.481 31.8471 22.5264C31.8659 22.5717 31.8754 22.6204 31.875 22.6695C31.8751 22.7191 31.8653 22.7683 31.8463 22.8141C31.8272 22.86 31.7993 22.9016 31.764 22.9365Z" fill="currentColor"/>	
	</symbol>

	<symbol viewBox="0 0 32 32" id="faq">
		<path d="M11 11C5.47687 11 0.9375 15.4769 0.9375 21C0.9375 22.6369 1.33062 24.1819 2.02812 25.5463L0.9375 31L6.45375 29.9094C7.81813 30.6069 9.36312 31 11 31C16.5231 31 21 26.5231 21 21" fill="none" stroke="currentColor" stroke-width="2" stroke-miterlimit="10" stroke-linecap="round" stroke-linejoin="round"/>
		<path d="M11 11C11 16.5231 15.4769 21 21 21C22.6368 21 24.1819 20.6069 25.5463 19.9094L31.0625 21L29.9719 15.5463C30.6694 14.1819 31.0625 12.6369 31.0625 11C31.0625 5.47688 26.5231 1 21 1C15.4769 1 11 5.47688 11 11Z" fill="none" stroke="currentColor" stroke-width="2" stroke-miterlimit="10" stroke-linecap="round" stroke-linejoin="round"/>
		<path d="M19 8.49256C19 7.37818 19.9146 6.47762 21.0339 6.50012C22.0704 6.52099 22.9291 7.35118 22.9829 8.38656C23.0424 9.53381 22.1286 10.4853 20.9997 10.4887V12.5" fill="none" stroke="currentColor" stroke-width="2" stroke-miterlimit="10" stroke-linecap="round" stroke-linejoin="round"/>
		<path d="M7.5 23H14.5" fill="none" stroke="currentColor" stroke-width="2" stroke-miterlimit="10" stroke-linecap="round" stroke-linejoin="round"/>
		<path d="M14.9994 19H7.5" fill="none" stroke="currentColor" stroke-width="2" stroke-miterlimit="10" stroke-linecap="round" stroke-linejoin="round"/>
	</symbol>

	<symbol viewBox="0 0 33 33" id="documents">
		<path d="M28.7851 8.01745L21.0509 0.283271C20.8704 0.102674 20.624 0 20.3672 0H6.83203C5.23276 0 3.93164 1.30112 3.93164 2.90039V30.0996C3.93164 31.6989 5.23276 33 6.83203 33H26.168C27.7672 33 29.0684 31.6989 29.0684 30.0996V8.70117C29.0684 8.43756 28.9577 8.18999 28.7851 8.01745ZM21.334 3.30084L25.7675 7.73438H22.3008C21.7677 7.73438 21.334 7.30067 21.334 6.76758V3.30084ZM26.168 31.0664H6.83203C6.29894 31.0664 5.86523 30.6327 5.86523 30.0996V2.90039C5.86523 2.3673 6.29894 1.93359 6.83203 1.93359H19.4004V6.76758C19.4004 8.36685 20.7015 9.66797 22.3008 9.66797H27.1348V30.0996C27.1348 30.6327 26.7011 31.0664 26.168 31.0664Z" fill="currentColor"/>
		<path d="M22.3008 13.6641H10.6992C10.1653 13.6641 9.73242 14.0969 9.73242 14.6309C9.73242 15.1648 10.1653 15.5977 10.6992 15.5977H22.3008C22.8347 15.5977 23.2676 15.1648 23.2676 14.6309C23.2676 14.0969 22.8347 13.6641 22.3008 13.6641Z" fill="currentColor"/>
		<path d="M22.3008 17.5312H10.6992C10.1653 17.5312 9.73242 17.9641 9.73242 18.498C9.73242 19.032 10.1653 19.4648 10.6992 19.4648H22.3008C22.8347 19.4648 23.2676 19.032 23.2676 18.498C23.2676 17.9641 22.8347 17.5312 22.3008 17.5312Z" fill="currentColor"/>
		<path d="M22.3008 21.3984H10.6992C10.1653 21.3984 9.73242 21.8313 9.73242 22.3652C9.73242 22.8992 10.1653 23.332 10.6992 23.332H22.3008C22.8347 23.332 23.2676 22.8992 23.2676 22.3652C23.2676 21.8313 22.8347 21.3984 22.3008 21.3984Z" fill="currentColor"/>
		<path d="M18.4336 25.2656H10.6992C10.1653 25.2656 9.73242 25.6985 9.73242 26.2324C9.73242 26.7664 10.1653 27.1992 10.6992 27.1992H18.4336C18.9675 27.1992 19.4004 26.7664 19.4004 26.2324C19.4004 25.6985 18.9675 25.2656 18.4336 25.2656Z" fill="currentColor"/>	
	</symbol>

	<symbol viewBox="0 0 23 23" id="documents-2">
		<path d="M6.70964 6.94789C7.02734 6.94789 7.33204 6.82168 7.55669 6.59703C7.78134 6.37238 7.90755 6.06768 7.90755 5.74998V1.73456C7.76296 1.84399 7.63116 1.96937 7.51464 2.10831L3.5663 6.65081C3.49063 6.7459 3.42025 6.84508 3.35547 6.94789H6.70964Z" fill="currentColor"/>
		<path d="M19.8767 1.96457C19.634 1.71872 19.3444 1.52417 19.025 1.39247C18.7056 1.26076 18.363 1.1946 18.0176 1.1979H9.49799H9.34466V5.74999C9.34466 6.44894 9.067 7.11927 8.57277 7.61351C8.07853 8.10774 7.4082 8.3854 6.70924 8.3854H2.92383V19.1667C2.92383 19.8656 3.20149 20.5359 3.69572 21.0302C4.18996 21.5244 4.86029 21.8021 5.55924 21.8021H18.0176C18.3637 21.8021 18.7064 21.7339 19.0261 21.6015C19.3459 21.469 19.6364 21.2749 19.8811 21.0302C20.1258 20.7855 20.3199 20.4949 20.4524 20.1752C20.5848 19.8554 20.653 19.5127 20.653 19.1667V3.83332C20.6536 3.48597 20.5854 3.14194 20.4521 2.82117C20.3189 2.50039 20.1233 2.20924 19.8767 1.96457ZM12.4592 16.0521H8.62591C8.43529 16.0521 8.25247 15.9763 8.11768 15.8416C7.98289 15.7068 7.90716 15.5239 7.90716 15.3333C7.90716 15.1427 7.98289 14.9599 8.11768 14.8251C8.25247 14.6903 8.43529 14.6146 8.62591 14.6146H12.4592C12.6499 14.6146 12.8327 14.6903 12.9675 14.8251C13.1023 14.9599 13.178 15.1427 13.178 15.3333C13.178 15.5239 13.1023 15.7068 12.9675 15.8416C12.8327 15.9763 12.6499 16.0521 12.4592 16.0521ZM16.2926 12.2187H8.62591C8.43529 12.2187 8.25247 12.143 8.11768 12.0082C7.98289 11.8734 7.90716 11.6906 7.90716 11.5C7.90716 11.3094 7.98289 11.1265 8.11768 10.9918C8.25247 10.857 8.43529 10.7812 8.62591 10.7812H16.2926C16.4832 10.7812 16.666 10.857 16.8008 10.9918C16.9356 11.1265 17.0113 11.3094 17.0113 11.5C17.0113 11.6906 16.9356 11.8734 16.8008 12.0082C16.666 12.143 16.4832 12.2187 16.2926 12.2187Z" fill="currentColor"/>
	</symbol>

	<symbol viewBox="0 0 24 24" id="balance-2">
		<path d="M21.75 2H6.25C5.009 2 4 3.009 4 4.25V13.25C4 14.491 5.009 15.5 6.25 15.5H21.75C22.991 15.5 24 14.491 24 13.25V4.25C24 3.009 22.991 2 21.75 2ZM9.25 6.5H7.75C7.336 6.5 7 6.164 7 5.75C7 5.336 7.336 5 7.75 5H9.25C9.664 5 10 5.336 10 5.75C10 6.164 9.664 6.5 9.25 6.5ZM14 11.75C12.346 11.75 11 10.404 11 8.75C11 7.096 12.346 5.75 14 5.75C15.654 5.75 17 7.096 17 8.75C17 10.404 15.654 11.75 14 11.75ZM20.25 12.5H18.75C18.336 12.5 18 12.164 18 11.75C18 11.336 18.336 11 18.75 11H20.25C20.664 11 21 11.336 21 11.75C21 12.164 20.664 12.5 20.25 12.5Z" fill="currentColor"/>
		<path d="M20.2494 17H4.74941C3.50841 17 2.49941 15.991 2.49941 14.75V5.98599L0.0734114 15.03C-0.238589 16.221 0.472411 17.456 1.66541 17.785L17.1284 21.926C17.3204 21.976 17.5134 22 17.7024 22C18.6994 22 19.6114 21.335 19.8734 20.335L20.7934 16.925C20.6184 16.97 20.4384 17 20.2494 17Z" fill="currentColor"/>
	</symbol>

	<symbol viewBox="0 0 35 35" id="logout">
		<path d="M17.4993 32.0833C9.44497 32.0833 2.91602 25.5544 2.91602 17.5C2.91602 9.44562 9.44497 2.91666 17.4993 2.91666C19.7637 2.91497 21.9971 3.44134 24.0223 4.45395C26.0477 5.46657 27.8087 6.93755 29.166 8.74999H25.2139C23.5299 7.26506 21.4532 6.2976 19.2329 5.9637C17.0127 5.6298 14.7432 5.94367 12.6969 6.86761C10.6506 7.79153 8.91436 9.28631 7.69653 11.1726C6.47871 13.0588 5.83103 15.2563 5.83122 17.5016C5.83141 19.7468 6.47945 21.9443 7.69758 23.8303C8.91573 25.7164 10.6522 27.2109 12.6987 28.1345C14.7451 29.058 17.0146 29.3716 19.2348 29.0373C21.4551 28.7031 23.5316 27.7352 25.2154 26.25H29.1675C27.8101 28.0627 26.0487 29.5337 24.0232 30.5464C21.9977 31.5591 19.7638 32.0852 17.4993 32.0833ZM27.7077 23.3333V18.9583H16.041V16.0417H27.7077V11.6667L34.9993 17.5L27.7077 23.3333Z" fill="currentColor"/>
	</symbol>

	<symbol viewBox="0 0 116 88" id="balance-3">
		<path d="M65.99 37.4744L33.2659 4.75027C30.6459 2.13023 26.3844 2.13126 23.7631 4.75256L4.75283 23.7628C2.13153 26.3841 2.1305 30.6456 4.75054 33.2656L37.4747 65.9897C40.0947 68.6098 44.3562 68.6088 46.9775 65.9875L65.9877 46.9772C68.609 44.3559 68.6101 40.0944 65.99 37.4744ZM30.0945 20.5891L26.9276 17.4222C26.0536 16.5482 26.0539 15.1291 26.9284 14.2546C27.8029 13.3802 29.222 13.3798 30.096 14.2539L33.2629 17.4207C34.1369 18.2948 34.1366 19.7139 33.2621 20.5883C32.3876 21.4628 30.9685 21.4631 30.0945 20.5891ZM29.0335 41.7068C25.5416 38.2148 25.5429 32.53 29.0366 29.0363C32.5302 25.5427 38.215 25.5413 41.707 29.0333C45.199 32.5252 45.1976 38.21 41.704 41.7037C38.2103 45.1974 32.5255 45.1987 29.0335 41.7068ZM40.6446 56.4861L37.4777 53.3193C36.6037 52.4452 36.604 51.0262 37.4785 50.1517C38.3529 49.2772 39.772 49.2769 40.6461 50.1509L43.8129 53.3178C44.687 54.1918 44.6866 55.6109 43.8122 56.4854C42.9377 57.3599 41.5186 57.3602 40.6446 56.4861Z" fill="currentColor"/>
		<path d="M69.1058 75.5501L61.3726 67.8169C60.7534 67.1977 59.7463 67.198 59.1269 67.8174L54.6345 72.3099C54.015 72.9293 54.0148 73.9364 54.6339 74.5555L62.3672 82.2888C62.9863 82.9079 63.9934 82.9077 64.6128 82.2882L69.1053 77.7958C69.7247 77.1763 69.725 76.1693 69.1058 75.5501ZM60.6231 71.5599L59.8747 70.8115C59.6682 70.6049 59.6683 70.2696 59.8749 70.0629C60.0816 69.8563 60.4169 69.8562 60.6235 70.0628L61.3718 70.8111C61.5784 71.0177 61.5783 71.353 61.3717 71.5597C61.165 71.7663 60.8297 71.7664 60.6231 71.5599ZM60.3724 76.5503C59.5472 75.7251 59.5475 74.3817 60.3731 73.5561C61.1987 72.7305 62.5421 72.7301 63.3673 73.5554C64.1925 74.3806 64.1922 75.724 63.3666 76.5496C62.541 77.3752 61.1976 77.3755 60.3724 76.5503ZM63.1163 80.0429L62.3679 79.2945C62.1613 79.088 62.1614 78.7526 62.3681 78.546C62.5747 78.3393 62.9101 78.3392 63.1166 78.5458L63.865 79.2942C64.0715 79.5007 64.0715 79.8361 63.8648 80.0427C63.6582 80.2494 63.3228 80.2495 63.1163 80.0429Z" fill="currentColor"/>
		<path d="M112.666 65.2169L90.2534 42.8047C88.459 41.0102 85.5403 41.0109 83.745 42.8062L70.7252 55.826C68.93 57.6213 68.9293 60.5399 70.7237 62.3344L93.1359 84.7466C94.9303 86.541 97.849 86.5403 99.6442 84.745L112.664 71.7252C114.459 69.9299 114.46 67.0113 112.666 65.2169ZM88.0813 53.6524L85.9124 51.4835C85.3138 50.8849 85.314 49.913 85.9129 49.314C86.5118 48.7151 87.4838 48.7149 88.0824 49.3135L90.2513 51.4824C90.8499 52.0811 90.8497 53.053 90.2508 53.6519C89.6519 54.2508 88.68 54.251 88.0813 53.6524ZM87.3547 68.1156C84.9631 65.724 84.964 61.8305 87.3568 59.4378C89.7495 57.045 93.643 57.0441 96.0346 59.4357C98.4262 61.8273 98.4252 65.7207 96.0325 68.1135C93.6397 70.5062 89.7463 70.5072 87.3547 68.1156ZM95.3069 78.2377L93.138 76.0688C92.5394 75.4702 92.5396 74.4983 93.1385 73.8994C93.7374 73.3005 94.7093 73.3002 95.308 73.8988L97.4769 76.0678C98.0755 76.6664 98.0753 77.6383 97.4764 78.2372C96.8774 78.8361 95.9055 78.8364 95.3069 78.2377Z" fill="currentColor"/>	
	</symbol>

	<symbol viewBox="0 0 205 205" id="users">
		<path d="M173.823 57.3143C173.821 64.0638 171.655 70.6347 167.642 76.0618C163.629 81.4889 157.982 85.4862 151.53 87.4665C153.007 82.6509 153.756 77.6413 153.751 72.604C153.751 63.7312 151.444 55.0108 147.057 47.2988C142.669 39.5868 136.351 33.1484 128.723 28.6155C132.952 26.6525 137.557 25.6321 142.219 25.625C150.612 25.6396 158.655 28.9858 164.581 34.9279C170.507 40.8701 173.831 48.9221 173.823 57.3143ZM167.417 96.5214C163.829 95.516 159.988 95.9769 156.74 97.8026C153.088 99.8277 149.034 101.023 144.868 101.304C143.142 103.933 141.138 106.368 138.888 108.565C146.958 111.22 154.142 116.043 159.655 122.506C165.169 128.968 168.8 136.822 170.151 145.209H176.044C177.937 145.236 179.802 144.75 181.441 143.802C183.08 142.855 184.433 141.482 185.355 139.829C187.051 136.648 187.931 133.096 187.918 129.492V123.427C187.917 110.7 179.461 99.6804 167.417 96.5214ZM76.2779 28.6155C72.0491 26.6525 67.4441 25.6321 62.7819 25.625C55.2141 25.6303 47.899 28.3492 42.1649 33.2881C36.4309 38.227 32.658 45.0584 31.5314 52.542C30.4048 60.0255 31.9992 67.6649 36.025 74.0731C40.0508 80.4813 46.2412 85.2334 53.472 87.4665C51.9943 82.6509 51.2456 77.6413 51.2507 72.604C51.2502 63.7312 53.5571 55.0108 57.9448 47.2988C62.3325 39.5868 68.6503 33.1484 76.2779 28.6155ZM66.1132 108.564C63.8637 106.367 61.8589 103.932 60.1337 101.303C55.9671 101.022 51.9135 99.8269 48.2614 97.8018C45.0129 95.9761 41.1723 95.5152 37.5841 96.5206C25.54 99.6796 17.0841 110.699 17.0841 123.427V129.491C17.0704 133.095 17.9509 136.647 19.6466 139.828C20.559 141.471 21.8973 142.838 23.5207 143.785C25.1441 144.732 26.9927 145.223 28.872 145.208H34.8507C36.2018 136.822 39.8326 128.968 45.3462 122.505C50.8597 116.042 58.0438 111.22 66.1132 108.564ZM133.08 120.182C131.599 119.809 130.08 119.609 128.552 119.583C125.59 119.59 122.679 120.354 120.097 121.804C114.707 124.774 108.654 126.332 102.501 126.332C96.3473 126.332 90.294 124.774 84.9047 121.804C82.3219 120.354 79.4109 119.59 76.4489 119.583C74.9217 119.609 73.4025 119.809 71.9212 120.182C64.7428 122.128 58.4073 126.389 53.8977 132.304C49.388 138.218 46.9563 145.456 46.9797 152.894V160.326C46.9825 164.68 48.0687 168.966 50.1404 172.796C52.2757 176.896 56.5466 179.373 61.3297 179.373H143.672C148.455 179.373 152.726 176.896 154.861 172.796C156.933 168.966 158.019 164.68 158.022 160.326V152.895C158.045 145.457 155.614 138.219 151.104 132.304C146.595 126.39 140.259 122.128 133.08 120.182ZM140.938 72.604C140.938 65.0018 138.684 57.5703 134.46 51.2493C130.237 44.9283 124.234 40.0017 117.21 37.0924C110.187 34.1832 102.458 33.422 95.0019 34.9051C87.5457 36.3882 80.6968 40.049 75.3213 45.4246C69.9457 50.8002 66.2849 57.6491 64.8017 65.1052C63.3186 72.5614 64.0798 80.2899 66.9891 87.3134C69.8983 94.337 74.8249 100.34 81.1459 104.564C87.4669 108.787 94.8984 111.042 102.501 111.042C112.695 111.042 122.472 106.992 129.68 99.7835C136.889 92.575 140.938 82.7983 140.938 72.604Z" fill="currentColor"/>
	</symbol>

	<symbol viewBox="0 0 19 19" id="copy">
		<path d="M7.70643 15.4375C5.85154 15.4375 4.3418 13.9278 4.3418 12.0729V3.95837H2.95643C1.75545 3.95837 0.779297 4.93438 0.779297 6.13536V16.8229C0.779297 18.0238 1.75545 19 2.95643 19H12.8522C14.0531 19 15.0293 18.0238 15.0293 16.8229V15.4375H7.70643Z" fill="currentColor"/>
		<path d="M18.1959 2.17713C18.1959 0.974556 17.2214 0 16.0189 0H7.70643C6.50385 0 5.5293 0.974556 5.5293 2.17713V12.0729C5.5293 13.2754 6.50385 14.25 7.70643 14.25H16.0189C17.2214 14.25 18.1959 13.2754 18.1959 12.0729V2.17713Z" fill="currentColor"/>
	</symbol>

</svg>