<svg viewBox="0 0 24 24"  xmlns="http://www.w3.org/2000/svg" style="display:none">

	<symbol viewBox="0 0 19 19" id="writing">
		<path d="M13.0795 8.16406C13.0795 7.75415 12.7472 7.42188 12.3373 7.42188H4.69275C4.28284 7.42188 3.95056 7.75415 3.95056 8.16406C3.95056 8.57397 4.28284 8.90625 4.69275 8.90625H12.3373C12.7472 8.90625 13.0795 8.57397 13.0795 8.16406Z" fill="currentColor"/>
		<path d="M4.69275 10.3906C4.28284 10.3906 3.95056 10.7229 3.95056 11.1328C3.95056 11.5427 4.28284 11.875 4.69275 11.875H9.33554C9.74545 11.875 10.0777 11.5427 10.0777 11.1328C10.0777 10.7229 9.74545 10.3906 9.33554 10.3906H4.69275Z" fill="currentColor"/>
		<path d="M6.43692 17.5156H3.95471C3.13623 17.5156 2.47034 16.8497 2.47034 16.0312V2.96875C2.47034 2.15027 3.13623 1.48438 3.95471 1.48438H13.0795C13.898 1.48438 14.5639 2.15027 14.5639 2.96875V7.5332C14.5639 7.94311 14.8962 8.27539 15.3061 8.27539C15.716 8.27539 16.0482 7.94311 16.0482 7.5332V2.96875C16.0482 1.33178 14.7165 0 13.0795 0H3.95471C2.31774 0 0.985962 1.33178 0.985962 2.96875V16.0312C0.985962 17.6682 2.31774 19 3.95471 19H6.43692C6.84683 19 7.17911 18.6677 7.17911 18.2578C7.17911 17.8479 6.84683 17.5156 6.43692 17.5156Z" fill="currentColor"/>
		<path d="M17.3629 10.7458C16.4948 9.87769 15.0822 9.87765 14.2146 10.7452L10.1399 14.8109C10.0534 14.8973 9.98956 15.0036 9.954 15.1206L9.06661 18.042C8.98794 18.3011 9.05648 18.5823 9.24551 18.7761C9.38712 18.9212 9.5795 19 9.77681 19C9.84282 19 9.90947 18.9912 9.9749 18.973L12.9706 18.1432C13.0938 18.1091 13.2062 18.0436 13.2967 17.9532L17.3629 13.8947C18.2311 13.0266 18.2311 11.614 17.3629 10.7458ZM12.3862 16.7648L10.8791 17.1823L11.3202 15.7302L14.0696 12.9869L15.1194 14.0368L12.3862 16.7648ZM16.3138 12.8447L16.17 12.9882L15.1204 11.9385L15.2637 11.7955C15.5531 11.5061 16.0239 11.5061 16.3133 11.7955C16.6027 12.0849 16.6027 12.5557 16.3138 12.8447Z" fill="currentColor"/>
		<path d="M12.3373 4.45312H4.69275C4.28284 4.45312 3.95056 4.7854 3.95056 5.19531C3.95056 5.60522 4.28284 5.9375 4.69275 5.9375H12.3373C12.7472 5.9375 13.0795 5.60522 13.0795 5.19531C13.0795 4.7854 12.7472 4.45312 12.3373 4.45312Z" fill="currentColor"/>	
	</symbol>

	<symbol viewBox="0 0 23 23" id="user">
		<path fill-rule="evenodd" clip-rule="evenodd" d="M8.6825 9.70791C8.6825 8.15139 9.94341 6.89041 11.5 6.89041C13.0565 6.89041 14.3175 8.15139 14.3175 9.70791C14.3175 11.2645 13.0565 12.5254 11.5 12.5254C9.94341 12.5254 8.6825 11.2645 8.6825 9.70791ZM11.5 8.32791C10.7374 8.32791 10.12 8.94529 10.12 9.70791C10.12 10.4706 10.7374 11.0879 11.5 11.0879C12.2626 11.0879 12.88 10.4706 12.88 9.70791C12.88 8.94529 12.2626 8.32791 11.5 8.32791Z" fill="currentColor"/>
		<path fill-rule="evenodd" clip-rule="evenodd" d="M13.0982 15.6581C12.317 14.4922 10.5697 14.5274 9.8472 15.7475C9.64497 16.089 9.20412 16.202 8.86251 15.9997C8.52096 15.7974 8.40803 15.3566 8.61032 15.015C9.90395 12.8305 13.0608 12.8214 14.3761 14.9893C14.4444 15.1017 14.4804 15.2306 14.4804 15.3621V15.3813C14.4804 15.7782 14.1586 16.1 13.7617 16.1C13.4628 16.1 13.2066 15.9176 13.0982 15.6581Z" fill="currentColor"/>
		<path fill-rule="evenodd" clip-rule="evenodd" d="M10.7141 2.875C10.7141 2.47804 11.0359 2.15625 11.4329 2.15625C16.6259 2.15625 20.8437 6.33495 20.8437 11.5C20.8437 16.6651 16.6259 20.8438 11.4329 20.8438C11.0359 20.8438 10.7141 20.522 10.7141 20.125C10.7141 19.728 11.0359 19.4062 11.4329 19.4062C15.8424 19.4062 19.4062 15.8608 19.4062 11.5C19.4062 7.1392 15.8424 3.59375 11.4329 3.59375C11.0359 3.59375 10.7141 3.27196 10.7141 2.875Z" fill="currentColor"/>
		<path fill-rule="evenodd" clip-rule="evenodd" d="M5.29536 17.6408C5.55058 17.3368 6.00394 17.2972 6.308 17.5524C7.01497 18.146 7.83152 18.6038 8.70771 18.9224C9.08077 19.0581 9.27322 19.4705 9.13752 19.8435C9.00188 20.2166 8.58949 20.409 8.21643 20.2734C7.19511 19.902 6.22923 19.3632 5.38371 18.6534C5.07968 18.3982 5.04013 17.9448 5.29536 17.6408Z" fill="currentColor"/>
		<path fill-rule="evenodd" clip-rule="evenodd" d="M9.13753 3.15646C9.27322 3.52951 9.08077 3.9419 8.70771 4.07756C7.83521 4.39482 7.01606 4.8619 6.30398 5.45092C5.99808 5.70392 5.54502 5.66107 5.29201 5.35519C5.039 5.04932 5.08186 4.59625 5.38773 4.34324C6.22814 3.6481 7.19144 3.09935 8.21643 2.7266C8.58949 2.59095 9.00188 2.7834 9.13753 3.15646Z" fill="currentColor"/>
		<path fill-rule="evenodd" clip-rule="evenodd" d="M4.27172 6.5664C4.61473 6.76621 4.73086 7.2062 4.53107 7.54924C4.0648 8.34982 3.74046 9.22784 3.58302 10.1288C3.51468 10.5198 3.1423 10.7814 2.75127 10.713C2.36024 10.6447 2.09864 10.2723 2.16698 9.88127C2.35454 8.80803 2.73934 7.76935 3.2889 6.82578C3.48868 6.48273 3.9287 6.36664 4.27172 6.5664Z" fill="currentColor"/>
		<path fill-rule="evenodd" clip-rule="evenodd" d="M2.75127 12.287C3.1423 12.2186 3.51468 12.4803 3.58302 12.8713C3.74046 13.7722 4.0648 14.6502 4.53107 15.4508C4.73086 15.7938 4.61473 16.2338 4.27172 16.4336C3.9287 16.6334 3.48868 16.5173 3.2889 16.1742C2.73934 15.2307 2.35454 14.192 2.16698 13.1187C2.09864 12.7277 2.36024 12.3553 2.75127 12.287Z" fill="currentColor"/>	
	</symbol>

	<symbol viewBox="0 0 21 21" id="check">
		<path fill-rule="evenodd" clip-rule="evenodd" d="M19.6935 11.8198C20.0164 11.3994 20.3438 10.9731 20.3438 10.5C20.3438 10.0269 20.0164 9.60063 19.6935 9.18017C19.4431 8.8541 19.1954 8.53151 19.1051 8.19328C19.0103 7.83766 19.0642 7.41988 19.1178 7.00394C19.1849 6.48347 19.2516 5.96586 19.0263 5.57648C18.7963 5.17879 18.3084 4.9766 17.8217 4.77497C17.4371 4.61561 17.0533 4.45658 16.7984 4.20164C16.5434 3.9467 16.3844 3.5629 16.225 3.17827C16.0234 2.69164 15.8212 2.20368 15.4235 1.97367C15.0341 1.74844 14.5165 1.81514 13.9961 1.88222C13.5801 1.93582 13.1623 1.98966 12.8067 1.89492C12.4685 1.80463 12.1459 1.5569 11.8198 1.30649C11.3994 0.9836 10.9731 0.65625 10.5 0.65625C10.0269 0.65625 9.60063 0.9836 9.18017 1.30649C8.8541 1.5569 8.53151 1.80463 8.19328 1.89492C7.83766 1.98966 7.41988 1.93582 7.00394 1.88222C6.48347 1.81514 5.96586 1.74844 5.57648 1.97367C5.17879 2.20368 4.9766 2.69164 4.77497 3.17827C4.61561 3.5629 4.45658 3.9467 4.20164 4.20164C3.9467 4.45658 3.5629 4.61561 3.17827 4.77497C2.69164 4.9766 2.20368 5.17879 1.97367 5.57648C1.74844 5.96586 1.81514 6.48347 1.88222 7.00394C1.93582 7.41988 1.98966 7.83766 1.89492 8.19328C1.80463 8.53151 1.5569 8.8541 1.30649 9.18017C0.9836 9.60063 0.65625 10.0269 0.65625 10.5C0.65625 10.9731 0.9836 11.3994 1.30649 11.8198C1.5569 12.1459 1.80463 12.4685 1.89492 12.8067C1.98966 13.1623 1.93582 13.5801 1.88222 13.9961C1.81514 14.5165 1.74844 15.0341 1.97367 15.4235C2.20368 15.8212 2.69164 16.0234 3.17827 16.225C3.5629 16.3844 3.9467 16.5434 4.20164 16.7984C4.45658 17.0533 4.61561 17.4371 4.77497 17.8217C4.9766 18.3084 5.17879 18.7963 5.57648 19.0263C5.96586 19.2516 6.48347 19.1849 7.00394 19.1178C7.41988 19.0642 7.83766 19.0103 8.19328 19.1051C8.53151 19.1954 8.8541 19.4431 9.18017 19.6935C9.60063 20.0164 10.0269 20.3438 10.5 20.3438C10.9731 20.3438 11.3994 20.0164 11.8198 19.6935C12.1459 19.4431 12.4685 19.1954 12.8067 19.1051C13.1623 19.0103 13.5801 19.0642 13.9961 19.1178C14.5165 19.1849 15.0341 19.2516 15.4235 19.0263C15.8212 18.7963 16.0234 18.3084 16.225 17.8217C16.3844 17.4371 16.5434 17.0533 16.7984 16.7984C17.0533 16.5434 17.4371 16.3844 17.8217 16.225C18.3084 16.0234 18.7963 15.8212 19.0263 15.4235C19.2516 15.0341 19.1849 14.5165 19.1178 13.9961C19.0642 13.5801 19.0103 13.1623 19.1051 12.8067C19.1954 12.4685 19.4431 12.1459 19.6935 11.8198ZM9.59768 11.3138L13.3449 7.56657C13.7665 7.14493 14.449 7.14493 14.8706 7.56657C15.2923 7.98821 15.2923 8.67235 14.8706 9.09399L10.3392 13.6254C9.92908 14.0356 9.26299 14.0356 8.85283 13.6254L6.12775 10.9003C5.70611 10.4787 5.70611 9.79453 6.12775 9.37289C6.54939 8.95125 7.23354 8.95125 7.65518 9.37289L9.59768 11.3138Z" fill="currentColor"/>	
	</symbol>

	<symbol viewBox="0 0 77 105" id="map-point">
		<path d="M77 38.2718C77 71.2157 50.7736 96.1581 41.613 103.866C39.8161 105.378 37.1839 105.378 35.387 103.866C26.2264 96.1581 0 71.2157 0 38.2718C0 17.135 17.2371 0 38.5 0C59.7629 0 77 17.135 77 38.2718Z" fill="currentColor"/>	
	</symbol>

	<symbol viewBox="0 0 41 41" id="cancel">
		<path d="M26.9 35.4289H14.1C13.4255 35.4277 12.7631 35.2497 12.1789 34.9126C11.5947 34.5754 11.1091 34.091 10.7705 33.5077L4.37052 22.4219C4.03481 21.8372 3.85815 21.1748 3.85815 20.5006C3.85815 19.8265 4.03481 19.164 4.37052 18.5794L10.7705 7.49292C11.109 6.90939 11.5945 6.42483 12.1788 6.0876C12.763 5.75036 13.4254 5.57226 14.1 5.57104H26.9C27.5745 5.57227 28.2369 5.75031 28.8211 6.08743C29.4053 6.42454 29.8909 6.90894 30.2295 7.49231L36.6295 18.5781C36.9652 19.1628 37.1419 19.8252 37.1419 20.4994C37.1419 21.1735 36.9652 21.8359 36.6295 22.4206L30.2295 33.507C29.8911 34.0906 29.4055 34.5751 28.8213 34.9124C28.237 35.2496 27.5746 35.4277 26.9 35.4289ZM14.1 8.13354C13.8751 8.13388 13.6542 8.19328 13.4594 8.30582C13.2646 8.41836 13.1028 8.58008 12.9902 8.7748L6.59018 19.8594C6.47827 20.0546 6.41939 20.2756 6.41939 20.5006C6.41939 20.7256 6.47827 20.9467 6.59018 21.1419L12.9902 32.2258C13.1029 32.4204 13.2648 32.5819 13.4595 32.6944C13.6543 32.8068 13.8751 32.8661 14.1 32.8665H26.9C27.125 32.8661 27.3459 32.8067 27.5406 32.6942C27.7354 32.5816 27.8972 32.4199 28.0098 32.2252L34.4098 21.1406C34.5217 20.9454 34.5806 20.7243 34.5806 20.4994C34.5806 20.2744 34.5217 20.0533 34.4098 19.8581L28.0098 8.77417C27.8971 8.57962 27.7352 8.41807 27.5405 8.30565C27.3457 8.19324 27.1249 8.13389 26.9 8.13354H14.1Z" fill="currentColor"/>
		<path d="M16.6562 25.625C16.4029 25.6249 16.1552 25.5497 15.9445 25.4089C15.7339 25.2681 15.5697 25.0681 15.4728 24.834C15.3758 24.5999 15.3504 24.3423 15.3998 24.0938C15.4493 23.8453 15.5712 23.617 15.7504 23.4379L23.4379 15.7504C23.6789 15.5137 24.0036 15.3818 24.3413 15.3833C24.6791 15.3848 25.0026 15.5197 25.2414 15.7585C25.4802 15.9974 25.6151 16.3209 25.6166 16.6586C25.6181 16.9964 25.4862 17.3211 25.2496 17.562L17.5621 25.2495C17.4433 25.3687 17.3021 25.4632 17.1466 25.5277C16.9912 25.5921 16.8245 25.6251 16.6562 25.625Z" fill="currentColor"/>
		<path d="M24.3437 25.625C24.1754 25.6251 24.0088 25.5921 23.8533 25.5277C23.6979 25.4632 23.5567 25.3687 23.4379 25.2495L15.7504 17.562C15.5137 17.3211 15.3818 16.9964 15.3833 16.6586C15.3848 16.3209 15.5197 15.9974 15.7585 15.7585C15.9974 15.5197 16.3209 15.3848 16.6586 15.3833C16.9964 15.3818 17.3211 15.5137 17.562 15.7504L25.2495 23.4379C25.4287 23.617 25.5507 23.8453 25.6001 24.0938C25.6495 24.3423 25.6241 24.5999 25.5272 24.834C25.4302 25.0681 25.266 25.2681 25.0554 25.4089C24.8447 25.5497 24.5971 25.6249 24.3437 25.625Z" fill="currentColor"/>	
	</symbol>

	<symbol viewBox="0 0 35 35" id="success">
		<path fill-rule="evenodd" clip-rule="evenodd" d="M24.3381 6.26735C23.0679 5.85161 21.3378 5.83323 17.5001 5.83323C15.4416 5.83323 13.9708 5.83402 12.8117 5.9131C11.6657 5.99128 10.9314 6.14111 10.3347 6.38827C8.54801 7.12833 7.12852 8.54783 6.38846 10.3345C6.1413 10.9312 5.99148 11.6656 5.91329 12.8115C5.8342 13.9706 5.83341 15.4415 5.83341 17.4999C5.83341 19.5583 5.8342 21.0292 5.91329 22.1883C5.99148 23.3343 6.1413 24.0687 6.38846 24.6653C7.12852 26.452 8.54801 27.8714 10.3347 28.6115C10.9314 28.8587 11.6657 29.0085 12.8117 29.0866C13.9708 29.1658 15.4416 29.1666 17.5001 29.1666C19.5585 29.1666 21.0294 29.1658 22.1885 29.0866C23.3344 29.0085 24.0689 28.8587 24.6655 28.6115C26.4522 27.8714 27.8716 26.452 28.6117 24.6653C28.8589 24.0687 29.0087 23.3343 29.0868 22.1883C29.166 21.0292 29.1667 19.5583 29.1667 17.4999C29.1667 16.3831 29.1667 15.4346 29.1533 14.6067C29.1404 13.8014 29.7827 13.1381 30.588 13.1251C31.3933 13.1121 32.0567 13.7544 32.0697 14.5597C32.0834 15.4136 32.0834 16.3847 32.0834 17.4906V17.5536C32.0834 19.5467 32.0834 21.1167 31.9968 22.3868C31.9084 23.6813 31.7252 24.7701 31.3064 25.7815C30.2703 28.2828 28.283 30.2701 25.7817 31.3062C24.7703 31.7251 23.6815 31.9082 22.387 31.9966C21.1169 32.0832 19.5469 32.0832 17.5539 32.0832H17.4463C15.4533 32.0832 13.8832 32.0832 12.6132 31.9966C11.3187 31.9082 10.2298 31.7251 9.21853 31.3062C6.71719 30.2701 4.72989 28.2828 3.69381 25.7815C3.27491 24.7701 3.0917 23.6813 3.00339 22.3868C2.91673 21.1167 2.91675 19.5467 2.91675 17.5536V17.4462C2.91675 15.4531 2.91673 13.883 3.00339 12.613C3.0917 11.3185 3.27491 10.2296 3.69381 9.21833C4.72989 6.71701 6.71719 4.72971 9.21853 3.69362C10.2298 3.27472 11.3187 3.09152 12.6132 3.0032C13.8832 2.91655 15.4533 2.91655 17.4464 2.91656H17.5001C17.6057 2.91656 17.7102 2.91655 17.8136 2.91653C21.2401 2.91601 23.4741 2.91567 25.2454 3.49539C26.0108 3.74592 26.4283 4.56954 26.1777 5.33501C25.9272 6.10046 25.1035 6.51789 24.3381 6.26735ZM31.8846 7.28576C32.2905 7.98147 32.0556 8.87442 31.3598 9.28025L31.0366 9.46881C25.7941 12.527 21.582 17.0783 18.9383 22.5415C18.7327 22.9663 18.3342 23.2654 17.8689 23.3442C17.4035 23.4229 16.9289 23.2717 16.5949 22.938L10.7419 17.0913C10.1721 16.5221 10.1716 15.5988 10.7408 15.0289C11.31 14.4591 12.2334 14.4586 12.8032 15.0279L17.2519 19.4719C20.162 14.2859 24.4092 9.95808 29.5669 6.94945L29.8902 6.76091C30.5858 6.35508 31.4788 6.59006 31.8846 7.28576Z" fill="currentColor"/>	
	</symbol>

	<symbol viewBox="0 0 23 16" id="drop-down-arrow">
		<path fill-rule="evenodd" clip-rule="evenodd" d="M0.232178 3.76796L3.76771 0.232422L11.4999 7.96465L19.2322 0.232422L22.7677 3.76796L11.4999 15.0357L0.232178 3.76796Z" fill="currentColor"/>
	</symbol>

	<symbol viewBox="0 0 10 16" id="next-arrow">
		<path fill-rule="evenodd" clip-rule="evenodd" d="M1.70718 0.292969L9.41429 8.00008L1.70718 15.7072L0.292969 14.293L6.58586 8.00008L0.292969 1.70718L1.70718 0.292969Z" fill="currentColor"/>	
	</symbol>

	<symbol viewBox="0 0 20 20" id="home">
		<path d="M18.16 6.94921L10.4569 1.63673C10.3208 1.54847 10.1621 1.5015 9.99998 1.5015C9.83783 1.5015 9.67914 1.54847 9.54311 1.63673L1.84001 6.94921C1.7342 7.02325 1.64797 7.12189 1.58874 7.23665C1.52951 7.3514 1.49906 7.47883 1.50001 7.60796V15.5767C1.50001 16.3516 1.80784 17.0948 2.3558 17.6428C2.90376 18.1907 3.64695 18.4986 4.42187 18.4986H6.81249V13.9829C6.81249 13.208 7.12033 12.4648 7.66829 11.9169C8.21624 11.3689 8.95943 11.0611 9.73436 11.0611H10.2656C11.0405 11.0611 11.7837 11.3689 12.3317 11.9169C12.8796 12.4648 13.1875 13.208 13.1875 13.9829V18.4986H15.5781C16.353 18.4986 17.0962 18.1907 17.6442 17.6428C18.1921 17.0948 18.5 16.3516 18.5 15.5767V7.60796C18.5009 7.47883 18.4705 7.3514 18.4112 7.23665C18.352 7.12189 18.2658 7.02325 18.16 6.94921Z" fill="currentColor"/>	
	</symbol>

</svg>