<svg width="45" height="45" viewBox="0 0 45 45" fill="none" xmlns="http://www.w3.org/2000/svg">
<g clip-path="url(#clip0_135_3414)">
<path d="M27.2903 45C27.4654 45 27.6426 44.965 27.8118 44.892C28.4043 44.6365 28.7248 43.9897 28.5692 43.3636L24.111 25.4183H36.123C36.5578 25.4183 36.9647 25.2039 37.2105 24.8453C37.4563 24.4866 37.5095 24.0298 37.3526 23.6243L28.5405 0.84278C28.3441 0.334862 27.8556 0 27.311 0H15.1856C14.7401 0 14.3247 0.224999 14.0813 0.598181C13.838 0.971363 13.7995 1.44219 13.9791 1.84991L19.1971 13.694H8.87703C8.39486 13.694 7.95119 13.9572 7.72004 14.3804C7.48889 14.8035 7.50717 15.3191 7.76776 15.7248L26.1804 44.3939C26.4294 44.7817 26.8529 45 27.2903 45Z" fill="#751E9B"/>
</g>
<defs>
<clipPath id="clip0_135_3414">
<rect width="45" height="45" fill="white" transform="matrix(-1 0 0 1 45 0)"/>
</clipPath>
</defs>
</svg>
