<svg width="46" height="48" fill="none" xmlns="http://www.w3.org/2000/svg"><path d="M45.023 36.741c-3.224-9.622-11.807-13.299-3.785-24.28 8.287-11.344-7.2-15.1-15.75-10.621-3.151 1.65-6.094 3.657-9.199 5.396C13.12 9.012 4.48 3.4 3.636 9.372c-.386 2.737 2.792 4.9 2.932 7.817.163 3.407-2.632 4.8-4.832 6.693C-1.608 26.762.15 35.59 4.698 36.543c2.15.452 4.133-1.165 6.194-1.925 8.25-3.041 12.254 6.068 17.036 10.952 5.62 5.74 19.908.714 17.095-8.829z" fill="url(#paint0_linear_139_2508)"/><path d="M13.602 5.255a.469.469 0 01-.468-.469.516.516 0 00-.516-.515.469.469 0 110-.938.516.516 0 00.516-.515.469.469 0 11.937 0c0 .284.232.515.516.515a.469.469 0 110 .938.516.516 0 00-.516.515c0 .26-.21.47-.469.47z" fill="#FF9C33"/><path d="M4.71 32.847a.469.469 0 01-.468-.469.516.516 0 00-.515-.515.469.469 0 110-.938.516.516 0 00.515-.515.469.469 0 11.938 0c0 .284.231.515.515.515a.469.469 0 110 .938.516.516 0 00-.515.515c0 .26-.21.47-.47.47z" fill="#6C6CFF"/><path d="M40.404 33.831a.469.469 0 01-.469-.468.516.516 0 00-.515-.516.469.469 0 010-.937.516.516 0 00.515-.516.469.469 0 01.938 0c0 .284.231.516.516.516a.469.469 0 010 .937.516.516 0 00-.516.516c0 .259-.21.468-.469.468z" fill="#FF6C6C"/><path d="M37.046 10.288a.467.467 0 01-.331-.8l.937-.938a.469.469 0 11.663.663l-.938.937a.467.467 0 01-.331.138z" fill="#6C6CFF"/><path d="M3.258 27.946a.467.467 0 01-.332-.8l.938-.938a.469.469 0 11.663.663l-.938.937a.467.467 0 01-.331.138z" fill="#FF6C6C"/><g opacity=".1" fill="#0000CB"><path d="M39.738 38.856h-3.406V36.79a.938.938 0 00-.937-.938h-.403l4.41-10.906a.933.933 0 00-1.7-.765L31.89 35.852h-.395a.937.937 0 00-.938.938v.417a.935.935 0 00-.224-.028h-5.034v-.817a.938.938 0 00-.938-.937h-1.2v-2.816c6.949-.246 12.506-5.956 12.506-12.965 0-7.165-5.808-12.974-12.974-12.974-7.165 0-12.974 5.809-12.974 12.974 0 7.009 5.558 12.719 12.506 12.965v2.816h-1.2a.938.938 0 00-.938.937v.817h-5.034a.94.94 0 00-.224.028v-.417a.937.937 0 00-.938-.938h-.395L7.683 24.181a.933.933 0 00-1.699.765l4.41 10.906h-.402a.937.937 0 00-.938.938v2.066H5.648a.937.937 0 00-.937.937v3.975c0 .517.42.937.937.937h34.09c.518 0 .937-.42.937-.937v-3.975a.937.937 0 00-.937-.937zM7.434 16.697a.469.469 0 100-.938 5.38 5.38 0 00-5.373 5.373.469.469 0 00.938 0 4.44 4.44 0 014.435-4.435z"/><path d="M4.874 21.133a2.564 2.564 0 012.56-2.561.469.469 0 100-.938 3.502 3.502 0 00-3.498 3.498.469.469 0 00.938 0z"/><path d="M7.435 19.51c-.895 0-1.624.727-1.624 1.623a.469.469 0 00.938 0c0-.379.307-.686.686-.686a.469.469 0 100-.938zm30.517-3.75a.469.469 0 000 .937 4.44 4.44 0 014.436 4.436.469.469 0 00.937 0 5.38 5.38 0 00-5.373-5.374z"/><path d="M37.952 17.634a.469.469 0 000 .938 2.564 2.564 0 012.56 2.56.469.469 0 00.938 0 3.502 3.502 0 00-3.498-3.498z"/><path d="M38.638 21.133a.469.469 0 00.937 0c0-.896-.728-1.624-1.623-1.624a.469.469 0 000 .938c.378 0 .686.307.686.686z"/></g><path d="M39.738 42.455H5.648a.937.937 0 01-.937-.937v-3.975c0-.518.42-.937.937-.937h34.09c.518 0 .937.42.937.937v3.975c0 .518-.42.937-.937.937z" fill="#6C6CFF"/><path d="M34.487 34.852l-2.68-1.083 5.896-11.838a.933.933 0 011.7.765l-4.916 12.156z" fill="#FF9C33"/><path d="M38.49 24.95l-.35.87-1.977-.8.42-.841 1.908.771zm.629-1.554l-.352.869-1.854-.75.42-.841 1.786.722z" fill="#FFD5BA"/><path d="M36.332 36.605h-5.774V34.54c0-.518.42-.938.937-.938h3.9c.517 0 .937.42.937.938v2.065z" fill="#FFC498"/><path d="M10.9 34.852l2.68-1.083L7.682 21.93a.933.933 0 00-1.699.765L10.9 34.852z" fill="#FF9C33"/><path d="M6.896 24.95l.351.87 1.976-.8-.42-.841-1.907.771zm-.629-1.554l.352.869 1.854-.75-.419-.84-1.787.72z" fill="#FFD5BA"/><path d="M9.054 36.606h5.775V34.54a.938.938 0 00-.938-.938h-3.9a.938.938 0 00-.937.938v2.066z" fill="#FFC498"/><path d="M22.693 30.368c7.166 0 12.974-5.808 12.974-12.974 0-7.165-5.808-12.974-12.974-12.974-7.165 0-12.974 5.809-12.974 12.974 0 7.166 5.809 12.974 12.974 12.974z" fill="#8282FF"/><path d="M22.693 28.47c6.117 0 11.076-4.959 11.076-11.076 0-6.117-4.959-11.075-11.076-11.075-6.117 0-11.075 4.958-11.075 11.075 0 6.117 4.958 11.076 11.075 11.076z" fill="#6C6CFF"/><path d="M21.293 10.78v4.136c0 .191.155.346.346.346h2.11a.346.346 0 00.345-.346v-4.135h.909a.346.346 0 00.244-.59l-2.309-2.31a.346.346 0 00-.489 0l-2.309 2.31a.346.346 0 00.244.59h.909zm2.801 13.228v-4.136a.346.346 0 00-.346-.346h-2.11a.346.346 0 00-.345.346v4.136h-.909a.346.346 0 00-.244.59l2.309 2.31a.346.346 0 00.489 0l2.309-2.31a.346.346 0 00-.245-.59h-.908zm3.352-8.014h4.136c.19 0 .346.154.346.345v2.11a.346.346 0 01-.346.346h-4.136v.908a.346.346 0 01-.59.245l-2.31-2.31a.346.346 0 010-.488l2.31-2.31a.346.346 0 01.59.245v.909zm-9.506 2.801h-4.135a.346.346 0 01-.346-.346v-2.11c0-.19.155-.345.346-.345h4.136v-.909c0-.308.372-.462.59-.244l2.309 2.309a.346.346 0 010 .489l-2.31 2.309a.346.346 0 01-.59-.245v-.908z" fill="#fff"/><path d="M30.333 42.455h-15.28a.937.937 0 01-.937-.937v-5.652c0-.518.42-.937.938-.937h15.279c.518 0 .938.42.938.937v5.652c0 .517-.42.937-.938.937z" fill="#B2B2FF"/><path d="M23.749 40.96h-7.036a.469.469 0 01-.468-.468v-1.69c0-.26.21-.47.468-.47h7.036a.47.47 0 01.469.47v1.69c0 .258-.21.468-.469.468z" fill="#8282FF"/><path d="M27.148 39.29h-1.404a.469.469 0 010-.938h1.404a.469.469 0 110 .937zm1.994 1.669h-3.398a.469.469 0 010-.938h3.398a.469.469 0 110 .938z" fill="#FF6C6C"/><path d="M16.77 37.346a.469.469 0 01-.47-.47v-.01a.469.469 0 11.938 0v.01c0 .26-.21.47-.469.47zm1.469 0a.469.469 0 01-.469-.47v-.01a.469.469 0 11.938 0v.01c0 .26-.21.47-.47.47zm1.47 0a.469.469 0 01-.47-.47v-.01a.469.469 0 01.938 0v.01c0 .26-.21.47-.468.47z" fill="#fff"/><path d="M25.299 34.929h-5.211v-.817c0-.518.42-.937.937-.937h3.336c.518 0 .938.42.938.937v.817z" fill="#8282FF"/><path d="M7.975 39.164h-.82a.469.469 0 11-.001-.937h.821a.469.469 0 110 .937zm3.75 1.67h-4.57a.469.469 0 11-.001-.937h4.571a.469.469 0 110 .937zm26.507-1.67h-.82a.469.469 0 010-.937h.82a.469.469 0 010 .937zm0 1.67h-4.57a.469.469 0 010-.937h4.57a.469.469 0 010 .937z" fill="#B2B2FF"/><path d="M39.738 36.137h-2.937V34.54c0-.68-.484-1.247-1.125-1.378l4.161-10.29a1.403 1.403 0 00-.774-1.825 1.408 1.408 0 00-1.78.675L31.6 33.134h-.104c-.748 0-1.36.588-1.402 1.326h-4.325v-.348c0-.775-.631-1.406-1.407-1.406h-1.199v-1.878a13.41 13.41 0 008.54-3.456 13.414 13.414 0 004.355-8.517.469.469 0 00-.932-.101A12.477 12.477 0 0122.693 29.9c-6.895 0-12.505-5.61-12.505-12.506 0-6.895 5.61-12.505 12.505-12.505 6.333 0 11.67 4.735 12.417 11.014a.468.468 0 10.93-.11C35.24 9.041 29.5 3.95 22.694 3.95c-7.412 0-13.443 6.03-13.443 13.443 0 7.256 5.778 13.186 12.974 13.434v1.878h-1.199c-.775 0-1.406.63-1.406 1.406v.348h-4.325a1.407 1.407 0 00-1.403-1.326h-.104L8.103 21.722a1.408 1.408 0 00-1.78-.674 1.403 1.403 0 00-.774 1.824l4.161 10.29a1.408 1.408 0 00-1.124 1.378v1.597H5.648c-.775 0-1.406.63-1.406 1.406v3.975c0 .775.631 1.406 1.406 1.406h34.09c.775 0 1.406-.63 1.406-1.406v-3.975c0-.775-.63-1.406-1.406-1.406zM38.123 22.14a.464.464 0 01.845.38l-4.292 10.614h-2.03l5.477-10.994zM20.556 34.112a.47.47 0 01.47-.469h3.335a.47.47 0 01.47.47v.347h-4.275v-.348zM6.418 22.52a.464.464 0 01.845-.38l5.477 10.994h-2.03L6.418 22.52zm7.23 13.346v5.652c0 .164.03.322.081.468H5.65a.47.47 0 01-.47-.468v-3.975a.47.47 0 01.47-.469h5.465a.469.469 0 100-.937H9.523V34.54a.47.47 0 01.469-.469h3.9a.47.47 0 01.468.469c0 .034.004.066.01.098-.43.24-.723.7-.723 1.228zm17.154 5.652a.47.47 0 01-.469.468h-15.28a.47.47 0 01-.468-.468v-5.652a.47.47 0 01.468-.468h15.28a.47.47 0 01.469.468v5.652zm.214-6.88a.472.472 0 00.01-.098.47.47 0 01.47-.469h3.899a.47.47 0 01.468.469v1.597H31.74v-.27c0-.528-.292-.988-.723-1.229zm9.19 6.88a.47.47 0 01-.468.468h-8.08a1.42 1.42 0 00.081-.468v-4.444h7.999a.47.47 0 01.469.47v3.974zM7.434 14.447a.469.469 0 100-.938 5.38 5.38 0 00-5.373 5.373.469.469 0 00.938 0 4.44 4.44 0 014.435-4.435z" fill="#0000CB"/><path d="M4.874 18.883a2.564 2.564 0 012.56-2.561.469.469 0 100-.938 3.502 3.502 0 00-3.498 3.498.469.469 0 00.938 0z" fill="#0000CB"/><path d="M7.435 17.26c-.895 0-1.624.727-1.624 1.623a.469.469 0 00.938 0c0-.379.307-.686.686-.686a.469.469 0 100-.938zm30.517-3.75a.469.469 0 000 .937 4.44 4.44 0 014.436 4.436.469.469 0 00.937 0 5.38 5.38 0 00-5.373-5.374z" fill="#0000CB"/><path d="M37.952 15.384a.469.469 0 000 .938 2.564 2.564 0 012.56 2.56.469.469 0 00.938 0 3.502 3.502 0 00-3.498-3.498z" fill="#0000CB"/><path d="M37.952 18.197c.378 0 .686.307.686.686a.469.469 0 00.937 0c0-.896-.728-1.624-1.623-1.624a.469.469 0 000 .938z" fill="#0000CB"/><defs><linearGradient id="paint0_linear_139_2508" x1="8.475" y1="41.294" x2="44.495" y2="5.274" gradientUnits="userSpaceOnUse"><stop stop-color="#fff" stop-opacity="0"/><stop offset=".262" stop-color="#EDEDFF" stop-opacity=".416"/><stop offset=".629" stop-color="#D8D8FF"/></linearGradient></defs></svg>