<svg width="48" height="42" fill="none" xmlns="http://www.w3.org/2000/svg"><path d="M47.05 10.472c-2.095-5.334-8.552-8.532-14.02-6.415-6.242 2.415-4.173 12.344-9.842 14.352-3.063 1.084-7.59-2.967-10.685-3.588C6.801 13.676 1.639 17.699.368 23.27c-1.297 5.684.783 13.276 7.028 14.819 7.44 1.837 11.314-4.85 17.555-6.77 6.404-1.97 13.524 2.683 18.826-2.98 3.917-4.183 5.35-12.587 3.274-17.868z" fill="url(#paint0_linear_139_1999)"/><path opacity=".1" d="M43.328 39.761h-.979V26.023a.938.938 0 00-.937-.937h-1.446a5.625 5.625 0 00-4.05-9.822 11.993 11.993 0 00-1.164-3.693 1.17 1.17 0 00.251-1.847 1.171 1.171 0 00-1.506-.126A12.011 12.011 0 0021.514 5.24a1.172 1.172 0 10-2.23.707 11.988 11.988 0 00-3.763 2.55 11.99 11.99 0 00-3.502 9.163 1.172 1.172 0 10.354 2.314 11.955 11.955 0 002.756 5.11h-8.54a.937.937 0 00-.938.938V39.76h-.98a.469.469 0 00-.468.469v1.237c0 .259.21.469.469.469h38.656c.26 0 .469-.21.469-.469V40.23a.469.469 0 00-.469-.469z" fill="#0000CB"/><path d="M24.022 26.77c6.64 0 12.022-5.382 12.022-12.021 0-6.64-5.382-12.022-12.022-12.022C17.382 2.727 12 8.109 12 14.749c0 6.64 5.382 12.022 12.022 12.022z" fill="#B2B2FF"/><path d="M33.444 14.235a13.354 13.354 0 00-3.52-2.53l-.001-.058a12.431 12.431 0 013.226-.905 1.171 1.171 0 002.138-.2c-.183-.49-.4-.972-.649-1.44a1.172 1.172 0 00-1.575.706 13.373 13.373 0 00-3.55.995 1.171 1.171 0 00-1.589.063l-.03.034a13.477 13.477 0 00-10.16.94 1.211 1.211 0 00-.097-.066 12.374 12.374 0 012.412-5.487 1.172 1.172 0 10-.718-.605 13.307 13.307 0 00-2.625 5.976 1.17 1.17 0 00-.817 1.35 13.395 13.395 0 00-3.641 4.176c.152.733.37 1.454.66 2.153.02-.019.043-.037.063-.058a1.171 1.171 0 00.065-1.585 12.466 12.466 0 013.39-3.916.87.87 0 00.094.053 13.346 13.346 0 004.332 9.936 1.172 1.172 0 00.787 1.466c.073.454.17.906.29 1.354.336.06.674.104 1.014.135a12.392 12.392 0 01-.374-1.605l.01-.007c.995.65 2.07 1.165 3.196 1.533a12.017 12.017 0 001.987-.467 12.547 12.547 0 01-4.642-1.831 1.17 1.17 0 00-.711-1.323 12.497 12.497 0 013.648-8.747 12.508 12.508 0 012.01-1.632 1.17 1.17 0 001.473-.082 12.423 12.423 0 013.24 2.337c.89.89 1.629 1.89 2.208 2.985a1.171 1.171 0 00.04 1.612l.03.027c.306-.706.54-1.435.703-2.177a13.367 13.367 0 00-2.318-3.11zm-8.05-.623a13.436 13.436 0 00-3.922 9.44l-.009.003a12.412 12.412 0 01-4.006-9.18 1.166 1.166 0 00.747-1.223 12.536 12.536 0 019.382-.867l.005.05a13.454 13.454 0 00-2.197 1.777z" fill="#9393FF"/><path d="M17.04 12.078a1.172 1.172 0 100-2.343 1.172 1.172 0 000 2.343zm-4.897 5.67a1.172 1.172 0 100-2.344 1.172 1.172 0 000 2.344zM20.382 4.46a1.172 1.172 0 100-2.343 1.172 1.172 0 000 2.343zm15.476 13.503a1.172 1.172 0 100-2.344 1.172 1.172 0 000 2.344zm-1.683-8.489a1.172 1.172 0 100-2.344 1.172 1.172 0 000 2.344zm-5.422 1.517a1.172 1.172 0 100-2.343 1.172 1.172 0 000 2.343zm-6.78 12.415a1.172 1.172 0 100-2.343 1.172 1.172 0 000 2.343zm1.194 4.506a1.172 1.172 0 100-2.344 1.172 1.172 0 000 2.344zm7.21-2.345a1.172 1.172 0 100-2.344 1.172 1.172 0 000 2.344z" fill="#FF6C6C"/><path d="M42.349 37.511H5.651V23.773c0-.518.42-.937.937-.937h34.823c.518 0 .938.42.938.937v13.738z" fill="#FFC498"/><path d="M11.767 22.836h6.117v3.669h-6.117v-3.67zm12.233 0h6.116v3.669H24v-3.67zm12.233-.001v3.67a5.625 5.625 0 01-5.276-3.67h5.276zm6.117 3.67h-6.117v-3.67h5.179c.517 0 .937.42.937.938v2.732z" fill="#FA6"/><path d="M41.506 22.84a5.626 5.626 0 01-5.274 3.665v-3.67h5.18c.031 0 .063.002.094.005z" fill="#FF9C33"/><path d="M5.65 26.505h3.06v3.669H5.65v-3.67z" fill="#FA6"/><path d="M8.709 26.505h6.116v3.669H8.71v-3.67z" fill="#FF9C33"/><path d="M14.825 26.505h6.117v3.669h-6.117v-3.67z" fill="#FFD5BA"/><path d="M20.942 26.505h6.116v3.669h-6.116v-3.67z" fill="#FF9C33"/><path d="M27.058 26.505h6.116v3.669h-6.116v-3.67z" fill="#FFD5BA"/><path d="M33.175 26.505h6.116v3.669h-6.116v-3.67z" fill="#FF9C33"/><path d="M42.35 33.842h-6.117v-3.669h6.116v3.67z" fill="#FFD5BA"/><path d="M36.233 33.842h-6.117v-3.669h6.117v3.67zm-12.233 0h-6.116v-3.669H24v3.67z" fill="#FA6"/><path d="M11.767 33.842H5.651v-3.669h6.116v3.67z" fill="#FFD5BA"/><path d="M8.709 33.842h6.116v3.67H8.71v-3.67z" fill="#FA6"/><path d="M14.825 33.842h6.117v3.67h-6.117v-3.67z" fill="#FFD5BA"/><path d="M20.942 33.842h6.116v3.67h-6.116v-3.67z" fill="#FF9C33"/><path d="M27.058 33.842h6.116v3.67h-6.116v-3.67z" fill="#FFD5BA"/><path d="M39.29 33.842h3.059v3.67h-3.058v-3.67z" fill="#FA6"/><path d="M43.328 39.686H4.672a.469.469 0 01-.469-.469V37.98c0-.259.21-.469.469-.469h38.656c.26 0 .469.21.469.469v1.237c0 .259-.21.469-.469.469zm-7.095-15.431a5.625 5.625 0 100-11.25 5.625 5.625 0 000 11.25z" fill="#FF6C6C"/><path d="M43.328 37.042h-.51v-13.27c0-.775-.631-1.405-1.407-1.405h-.37a6.062 6.062 0 001.286-3.737 6.1 6.1 0 00-6.012-6.092 12.466 12.466 0 00-.976-3.08 1.642 1.642 0 00-1.164-2.797c-.191 0-.377.035-.551.097-.242-.29-.5-.572-.77-.842a12.452 12.452 0 00-11.06-3.458 1.642 1.642 0 00-3.054.83c0 .046.004.09.007.136a12.428 12.428 0 00-3.557 2.492 12.514 12.514 0 00-3.655 9.136 1.643 1.643 0 00-.553 2.684c.28.28.645.445 1.037.474.213.74.494 1.46.839 2.147a.469.469 0 10.838-.42 11.555 11.555 0 01-.759-1.927 1.63 1.63 0 00.846-1.435 1.63 1.63 0 00-.502-1.18 12.523 12.523 0 012.76-3.188c.15.115.315.2.488.257a13.316 13.316 0 003.918 9.04l.04.039a1.64 1.64 0 00-.149.823H6.588c-.775 0-1.405.631-1.405 1.407v13.27h-.511a.939.939 0 00-.938.937v1.237c0 .517.42.937.938.937H30.02a.469.469 0 100-.937H4.671V37.98h38.657v1.237h-10.35a.469.469 0 000 .937h10.35c.517 0 .938-.42.938-.937V37.98a.939.939 0 00-.938-.938zM41.39 18.63a5.162 5.162 0 01-5.156 5.156 5.162 5.162 0 01-5.156-5.156 5.162 5.162 0 015.156-5.157 5.162 5.162 0 015.156 5.157zm-18.256 2.444a1.627 1.627 0 00-.715-.418 12.395 12.395 0 013.638-8.255 12.543 12.543 0 011.607-1.358 1.635 1.635 0 002.25-.063l.06-.067a12.47 12.47 0 013.158 2.475 6.094 6.094 0 00-2.992 5.242 6.06 6.06 0 001.286 3.737h-7.817a1.637 1.637 0 00-.475-1.293zm-.47 1.293h-1.38a.702.702 0 011.188-.63.701.701 0 01.193.63zm5.593-13.045a.704.704 0 11.994.997.704.704 0 01-.994-.997zm7.117 3.276a6.05 6.05 0 00-1.366.36 13.394 13.394 0 00-3.633-2.895c.012-.08.02-.16.02-.244 0-.079-.008-.157-.019-.234.74-.286 1.508-.501 2.29-.641a1.63 1.63 0 001.51.998c.114 0 .228-.013.34-.037.395.858.682 1.76.858 2.693zm-.701-4.793a.704.704 0 11-.997.994.704.704 0 01.997-.994zM19.884 2.79a.7.7 0 01.995 0 .7.7 0 01.206.498.704.704 0 11-1.2-.497zm-.128 2.014a1.646 1.646 0 001.785-.356c.291-.29.457-.671.477-1.078a11.517 11.517 0 0110.848 3.943c-.158.21-.26.449-.304.696-.883.155-1.748.397-2.582.723-.022-.025-.043-.05-.067-.074a1.643 1.643 0 00-2.505.222 13.348 13.348 0 00-9.219.856 1.642 1.642 0 00-.457-.317 12.497 12.497 0 012.024-4.615zM12.64 17.073a.699.699 0 01-.498.206.704.704 0 11.497-.206zm3.24-7.327a1.63 1.63 0 00-.389 1.7 13.458 13.458 0 00-3.02 3.48 11.575 11.575 0 016.434-10.539 13.445 13.445 0 00-2.103 4.898 1.62 1.62 0 00-.922.461zm.662 1.658a.699.699 0 010-.994.699.699 0 01.498-.207.704.704 0 11-.497 1.2zm.926 1.084a1.64 1.64 0 001.173-1.928 12.413 12.413 0 018.475-.786c-.004.157.013.316.054.47-.63.442-1.226.943-1.776 1.494a13.327 13.327 0 00-3.915 8.934c-.128.04-.253.097-.37.169a12.383 12.383 0 01-3.64-8.353zM41.88 37.042H6.12v-13.27a.47.47 0 01.469-.468h25.74a6.066 6.066 0 003.904 1.42 6.066 6.066 0 003.904-1.42h1.274a.47.47 0 01.469.469v13.27z" fill="#0000CB"/><path d="M38.77 17.324v2.501c0 1.67-2.16 2.312-2.494 2.4a.168.168 0 01-.087 0c-.333-.088-2.493-.73-2.493-2.4v-2.501l2.536-.469 2.537.469z" fill="#fff"/><path d="M36.77 20.576h-1.075a.469.469 0 110-.937h1.075a.469.469 0 010 .937zm.387-1.669h-1.85a.469.469 0 010-.938h1.85a.469.469 0 010 .938z" fill="#FA6"/><path d="M38.77 17.324v-1.078a.469.469 0 00-.47-.468h-4.135a.469.469 0 00-.47.468v1.078h5.075z" fill="#D8D8FF"/><path d="M7.725 14.291a.469.469 0 01-.469-.469.516.516 0 00-.516-.515.469.469 0 010-.938.516.516 0 00.516-.515.469.469 0 01.938 0c0 .284.23.515.515.515a.469.469 0 010 .938.516.516 0 00-.515.515c0 .26-.21.47-.47.47z" fill="#FF9C33"/><path d="M32.425 2.906a.469.469 0 01-.47-.469.516.516 0 00-.515-.515.469.469 0 010-.938.516.516 0 00.516-.515.469.469 0 01.937 0c0 .284.232.515.516.515a.469.469 0 010 .938.516.516 0 00-.516.516c0 .258-.21.468-.468.468z" fill="#FF6C6C"/><path d="M39.64 10.757a.468.468 0 01-.33-.8l.937-.938a.469.469 0 01.663.663l-.938.938a.468.468 0 01-.331.137z" fill="#6C6CFF"/><path d="M44.855 32.946a.468.468 0 01-.332-.8l.938-.938a.469.469 0 01.663.663l-.938.937a.467.467 0 01-.331.138z" fill="#FF9C33"/><path d="M5.549 19.942a.467.467 0 01-.332-.8l.938-.938a.469.469 0 01.663.663l-.938.938a.467.467 0 01-.331.137z" fill="#FF6C6C"/><defs><linearGradient id="paint0_linear_139_1999" x1="11.361" y1="35.255" x2="41.178" y2="5.438" gradientUnits="userSpaceOnUse"><stop stop-color="#fff" stop-opacity="0"/><stop offset=".262" stop-color="#EDEDFF" stop-opacity=".416"/><stop offset=".629" stop-color="#D8D8FF"/></linearGradient></defs></svg>