<svg width="48" height="44" fill="none" xmlns="http://www.w3.org/2000/svg"><path d="M44.2 8.978c-6.132-4.715-12.08-.873-18.715-2.231C18.802 5.378 16.139.822 8.528 2.925 1.784 4.788-2.306 12.258 1.4 18.512c1.057 1.782 2.856 3.126 3.591 5.12 1.187 3.217-.62 5.686-.267 8.848 1.464 13.134 21.523 8.047 28.904 3.96C45.203 30.031 53.034 15.768 44.2 8.978z" fill="url(#paint0_linear_139_2076)"/><path opacity=".1" d="M44.837 21.982c0-.71-.477-1.305-1.127-1.488v-4.352c0-.775-.63-1.406-1.406-1.406H38.72a4.97 4.97 0 00-2.917-4.065A8.727 8.727 0 0020.005 6.38a6.899 6.899 0 00-5.989 3.862 4.967 4.967 0 00-4.786 4.494H5.647c-.775 0-1.406.631-1.406 1.407v4.364a1.547 1.547 0 000 2.949v4.365c0 .775.63 1.406 1.406 1.406h3.235v1.954a.47.47 0 00.437.467l2.98.2c.287 1.127.733 2.19 1.312 3.165l-1.967 2.25a.47.47 0 00.022.64l3.273 3.272a.468.468 0 00.64.022l2.25-1.967a11.96 11.96 0 003.164 1.313l.2 2.98a.47.47 0 00.468.437h4.63a.47.47 0 00.467-.437l.2-2.98a11.96 11.96 0 003.164-1.313l2.25 1.967a.468.468 0 00.64-.022l3.273-3.272a.47.47 0 00.021-.64l-1.967-2.25a11.975 11.975 0 001.313-3.165l2.98-.2a.469.469 0 00.437-.467v-1.954h3.235c.775 0 1.406-.631 1.406-1.406v-4.352a1.547 1.547 0 001.127-1.488zm-39.19 6.307a.47.47 0 01-.469-.469v-4.364a1.547 1.547 0 000-2.949v-4.365a.47.47 0 01.469-.468H9.23a4.967 4.967 0 002.654 3.938l-.218.217a.47.47 0 00-.022.64l1.967 2.25a11.978 11.978 0 00-1.312 3.166l-2.98.2a.468.468 0 00-.437.467v1.737H5.647zm36.657 0h-3.235v-1.737a.468.468 0 00-.437-.468l-2.98-.2a11.975 11.975 0 00-1.313-3.164l1.967-2.25a.47.47 0 00-.021-.64l-.218-.218a4.968 4.968 0 002.653-3.938h3.584a.47.47 0 01.468.468v4.384a1.546 1.546 0 000 2.912v4.383a.47.47 0 01-.468.468z" fill="#0000CB"/><path d="M35.803 8.42a8.727 8.727 0 00-15.798-4.29 6.899 6.899 0 00-5.989 3.862 4.966 4.966 0 00.159 9.93h19.6a4.967 4.967 0 002.029-9.501z" fill="#D8D8FF"/><path d="M14.175 16.047a3.096 3.096 0 01-3.092-3.092 3.076 3.076 0 012.992-3.09l1.128-.035.497-1.013a5.012 5.012 0 014.36-2.813l.93-.028.541-.757a6.873 6.873 0 015.58-2.875 6.83 6.83 0 014.639 1.809 6.828 6.828 0 012.186 4.432l.096 1.097 1.005.45a3.098 3.098 0 011.831 2.823 3.096 3.096 0 01-3.092 3.092H14.175z" fill="#B2B2FF"/><path d="M32.253 10.578h-1.405a.469.469 0 010-.938h1.405a.469.469 0 010 .938zm0 1.67h-2.835a.469.469 0 010-.938h2.835a.469.469 0 010 .938z" fill="#fff"/><path d="M38.632 23.834l-2.98-.2a11.978 11.978 0 00-1.313-3.164l1.967-2.25a.47.47 0 00-.021-.64l-3.273-3.273a.47.47 0 00-.64-.022l-2.25 1.968a11.96 11.96 0 00-3.165-1.313l-.2-2.98a.47.47 0 00-.467-.438h-4.63a.47.47 0 00-.467.438l-.2 2.98a11.96 11.96 0 00-3.164 1.313l-2.25-1.968a.47.47 0 00-.64.021l-3.273 3.273a.47.47 0 00-.022.64l1.967 2.25a11.978 11.978 0 00-1.312 3.166l-2.98.2a.468.468 0 00-.437.467v4.628a.47.47 0 00.436.468l2.98.2c.288 1.127.734 2.19 1.313 3.165l-1.967 2.25a.47.47 0 00.022.64l3.273 3.272a.468.468 0 00.64.022l2.25-1.967a11.96 11.96 0 003.164 1.312l.2 2.98a.47.47 0 00.468.438h4.629a.47.47 0 00.468-.437l.2-2.98a11.96 11.96 0 003.164-1.313l2.25 1.967a.468.468 0 00.64-.022l3.273-3.273a.47.47 0 00.021-.64l-1.967-2.249a11.978 11.978 0 001.313-3.165l2.98-.2a.47.47 0 00.437-.468v-4.628a.468.468 0 00-.437-.468z" fill="#FFC498"/><path d="M22.537 40.303l-.209-3.122-.988-.251c-.98-.25-1.92-.64-2.792-1.159l-.877-.521-2.358 2.061-2.033-2.033 2.061-2.357-.52-.876c-.52-.875-.91-1.815-1.16-2.794l-.25-.988-3.123-.21V25.18l3.122-.21.252-.987c.249-.98.639-1.92 1.158-2.794l.521-.876-2.061-2.358 2.033-2.033 2.358 2.062.877-.521c.873-.52 1.812-.91 2.792-1.159l.988-.251.21-3.123h2.875l.21 3.123.988.251c.98.25 1.919.64 2.792 1.159l.877.521 2.358-2.062 2.033 2.033-2.061 2.358.52.876c.52.874.91 1.814 1.16 2.794l.25.988 3.123.209v2.875l-3.122.21-.252.987c-.25.98-.639 1.92-1.159 2.794l-.52.876 2.06 2.357-2.033 2.033-2.358-2.061-.876.521c-.873.52-1.813.91-2.792 1.159l-.988.251-.21 3.122h-2.876z" fill="#FA6"/><path d="M23.975 18.807a7.809 7.809 0 100 15.618 7.809 7.809 0 000-15.618zm.005-4.019h-.01a.469.469 0 010-.938h.01a.469.469 0 010 .938zm0 1.469h-.01a.469.469 0 110-.937h.01a.469.469 0 010 .937zm0 21.655h-.01a.469.469 0 110-.938h.01a.469.469 0 010 .938zm0 1.469h-.01a.469.469 0 110-.937h.01a.469.469 0 010 .937z" fill="#FF6C6C"/><path d="M32.674 18.393a.468.468 0 01-.331-.137l-.008-.008a.469.469 0 11.663-.662l.007.007a.469.469 0 01-.331.8zm-1.039 1.04a.467.467 0 01-.33-.137l-.008-.007a.469.469 0 01.66-.665l.008.007a.469.469 0 01-.33.802zM16.323 34.744a.468.468 0 01-.331-.137l-.008-.008a.469.469 0 01.663-.663l.008.008a.469.469 0 01-.332.8zm-1.039 1.039a.467.467 0 01-.33-.136l-.008-.008a.469.469 0 01.66-.664l.008.007a.469.469 0 01-.33.801z" fill="#fff"/><path d="M36.272 27.09a.469.469 0 01-.469-.469v-.01a.469.469 0 11.938 0v.01c0 .26-.21.469-.47.469zm-1.47 0a.469.469 0 01-.468-.469v-.01a.469.469 0 11.937 0v.01c0 .26-.21.469-.469.469zm-21.654 0a.469.469 0 01-.469-.469v-.01a.469.469 0 01.938 0v.01c0 .26-.21.469-.469.469zm-1.469 0a.469.469 0 01-.469-.469v-.01a.469.469 0 11.938 0v.01c0 .26-.21.469-.47.469z" fill="#FF6C6C"/><path d="M32.666 35.783a.469.469 0 01-.33-.801l.008-.007a.469.469 0 01.66.664l-.007.008a.467.467 0 01-.33.136zm-1.039-1.039a.468.468 0 01-.331-.8l.008-.008a.469.469 0 01.662.663l-.007.008a.467.467 0 01-.332.137zM16.316 19.433a.467.467 0 01-.331-.802l.008-.007a.469.469 0 11.66.665l-.007.007a.467.467 0 01-.33.137zm-1.04-1.04a.468.468 0 01-.331-.8l.008-.007a.469.469 0 01.663.663l-.008.007a.468.468 0 01-.332.137z" fill="#fff"/><path d="M43.29 21.278a1.547 1.547 0 100-3.093 1.547 1.547 0 000 3.093zm-38.58 0a1.547 1.547 0 100-3.093 1.547 1.547 0 000 3.093z" fill="#FF6C6C"/><path d="M45.306 19.732a2.02 2.02 0 00-1.596-1.972v-3.868c0-.775-.63-1.406-1.406-1.406H39.19a5.447 5.447 0 00-2.947-4.375 9.168 9.168 0 00-2.906-5.682A9.168 9.168 0 0027.111 0a9.221 9.221 0 00-7.351 3.671 7.348 7.348 0 00-6.038 3.868 5.405 5.405 0 00-3.447 1.63 5.4 5.4 0 00-1.515 3.317H5.647c-.776 0-1.407.63-1.407 1.406v3.881a2.018 2.018 0 00-1.546 1.959c0 .95.66 1.746 1.546 1.958v3.88c0 .776.631 1.407 1.407 1.407h2.766v1.953a.94.94 0 00.874.936l2.647.177c.263.926.633 1.82 1.104 2.663l-1.747 1.998a.94.94 0 00.043 1.28l3.273 3.273a.94.94 0 001.28.043l1.998-1.747c.844.471 1.737.841 2.663 1.105l.178 2.646a.94.94 0 00.935.875h4.629a.94.94 0 00.935-.875l.178-2.647a12.434 12.434 0 002.663-1.104l1.997 1.747a.94.94 0 001.28-.043l3.273-3.273a.94.94 0 00.043-1.28l-1.746-1.998a12.44 12.44 0 001.104-2.663l2.646-.177a.94.94 0 00.875-.936v-1.953h2.766c.775 0 1.406-.631 1.406-1.407v-3.867a2.019 2.019 0 001.596-1.971zm-41.675 0a1.08 1.08 0 011.077-1.079h.003a1.08 1.08 0 011.077 1.078 1.08 1.08 0 01-2.156 0zm2.016 6.307a.47.47 0 01-.47-.469v-3.88a2.018 2.018 0 001.548-1.959c0-.95-.661-1.746-1.547-1.958v-3.881a.47.47 0 01.469-.469H8.76c.07.809.32 1.594.734 2.295a.469.469 0 00.807-.477 4.493 4.493 0 01-.625-2.286 4.476 4.476 0 014.355-4.495.469.469 0 00.406-.262 6.415 6.415 0 015.582-3.6.468.468 0 00.368-.196A8.281 8.281 0 0127.11.938c4.241 0 7.854 3.305 8.226 7.524.014.17.12.317.275.387a4.506 4.506 0 012.662 4.106 4.508 4.508 0 01-2.129 3.822l-2.802-2.802a.94.94 0 00-1.28-.043l-1.997 1.747a12.432 12.432 0 00-2.663-1.105l-.178-2.646a.94.94 0 00-.935-.875H21.66a.94.94 0 00-.936.875l-.177 2.646c-.926.264-1.82.634-2.663 1.105l-1.998-1.747a.94.94 0 00-1.28.043l-3.273 3.273a.94.94 0 00-.043 1.28l1.747 1.998a12.44 12.44 0 00-1.104 2.663l-2.647.177a.94.94 0 00-.874.936v1.737H5.647zm36.657 0h-2.766v-1.738a.94.94 0 00-.875-.935l-2.98-.2a.469.469 0 00-.063.936l2.98.2v4.628l-2.98.2a.469.469 0 00-.423.352 11.508 11.508 0 01-1.261 3.04.469.469 0 00.05.549l1.967 2.25-3.273 3.273-2.25-1.967a.469.469 0 00-.548-.05c-.95.565-1.974.989-3.04 1.26a.469.469 0 00-.353.424l-.2 2.98h-4.628l-.2-2.98a.469.469 0 00-.352-.423 11.51 11.51 0 01-3.04-1.261.469.469 0 00-.549.05l-2.25 1.967-3.273-3.273 1.967-2.25a.469.469 0 00.05-.548 11.455 11.455 0 01-1.26-3.041.469.469 0 00-.424-.352l-2.98-.2v-4.629l2.98-.2a.469.469 0 00.423-.351c.272-1.067.696-2.09 1.261-3.041a.469.469 0 00-.05-.548l-1.967-2.25 3.273-3.274 2.25 1.968a.469.469 0 00.548.05c.951-.565 1.974-.99 3.041-1.261a.469.469 0 00.352-.423l.2-2.98h4.629l.2 2.98a.469.469 0 00.352.423c1.067.271 2.09.696 3.04 1.26a.468.468 0 00.548-.05l2.25-1.967 3.273 3.274-1.967 2.25a.469.469 0 00-.05.547c.08.136.16.275.234.414a.469.469 0 00.825-.446l-.082-.15 1.746-1.998a.94.94 0 00.127-1.047 5.45 5.45 0 002.405-4.058h3.113a.47.47 0 01.469.469v3.894a2.017 2.017 0 00-1.498 1.945c0 .932.637 1.716 1.498 1.946v3.893a.47.47 0 01-.47.47zm.987-5.23a1.08 1.08 0 010-2.156 1.08 1.08 0 010 2.157z" fill="#0000CB"/><path d="M30.004 26.621a6 6 0 01-1.382 3.841h-9.294a6.001 6.001 0 01-1.381-3.84l5.998-.47 6.059.47z" fill="#8282FF"/><path d="M26.373 26.621c0 1.46-.207 2.799-.55 3.841h-3.695c-.343-1.042-.55-2.381-.55-3.84 0-.096.001-.191.003-.285l2.364-.184 2.425.187c.002.094.003.187.003.281z" fill="#6C6CFF"/><path d="M30.004 26.621h-3.631L24 26.153l-2.422.468h-3.631a6.01 6.01 0 011.381-3.84h9.294a6.01 6.01 0 011.382 3.84z" fill="#9393FF"/><path d="M26.373 26.621h-4.795c0-1.458.207-2.797.55-3.84h3.695c.343 1.043.55 2.382.55 3.84z" fill="#8282FF"/><path d="M26.166 29.072c.964.294 1.807.777 2.456 1.39a6.015 6.015 0 01-4.647 2.188 6.017 6.017 0 01-4.646-2.187c.649-.614 1.492-1.097 2.455-1.39l4.382-.001z" fill="#6C6CFF"/><path d="M26.166 24.171c.964-.294 1.807-.777 2.456-1.39a6.014 6.014 0 00-4.647-2.189c-1.87 0-3.54.852-4.646 2.188.649.614 1.492 1.097 2.455 1.39l4.382.001z" fill="#8282FF"/><path d="M21.784 29.072a7.518 7.518 0 012.191-.321c.773 0 1.513.114 2.191.32-.373 2.109-1.214 3.579-2.19 3.579-.977 0-1.818-1.47-2.192-3.578z" fill="#4D4DFF"/><path d="M21.784 24.171c.374-2.109 1.215-3.578 2.191-3.578.977 0 1.818 1.47 2.191 3.578a7.512 7.512 0 01-2.19.321 7.522 7.522 0 01-2.192-.32z" fill="#6C6CFF"/><path d="M7.24 37.79a.469.469 0 01-.468-.469.516.516 0 00-.516-.516.469.469 0 010-.937.516.516 0 00.516-.516.469.469 0 01.937 0c0 .285.232.516.516.516a.469.469 0 010 .937.516.516 0 00-.516.516c0 .259-.21.469-.468.469z" fill="#FF9C33"/><path d="M36.868 2.907a.469.469 0 01-.469-.469.516.516 0 00-.516-.516.469.469 0 010-.937.516.516 0 00.516-.516.469.469 0 01.938 0c0 .285.231.516.515.516a.469.469 0 010 .937.516.516 0 00-.515.516.47.47 0 01-.47.469z" fill="#FF6C6C"/><path d="M40.58 37.88a.469.469 0 01-.468-.468.516.516 0 00-.516-.516.469.469 0 110-.937.516.516 0 00.516-.516.469.469 0 01.937 0c0 .284.232.516.516.516a.469.469 0 010 .937.516.516 0 00-.516.516c0 .259-.21.468-.468.468zm0-33.124a.468.468 0 01-.331-.8l.937-.938a.469.469 0 01.663.663l-.937.937a.467.467 0 01-.332.138zM7.944 7.373a.468.468 0 01-.332-.8l.938-.937a.469.469 0 01.663.663l-.938.937a.467.467 0 01-.331.137z" fill="#6C6CFF"/><defs><linearGradient id="paint0_linear_139_2076" x1="-1.756" y1="42.289" x2="27.841" y2="12.692" gradientUnits="userSpaceOnUse"><stop stop-color="#FFD8D8" stop-opacity="0"/><stop offset=".998" stop-color="#FFB2B2"/></linearGradient></defs></svg>