<svg width="48" height="44" fill="none" xmlns="http://www.w3.org/2000/svg"><path d="M44.2 8.658c-6.132-4.715-12.08-.872-18.715-2.23-6.683-1.37-9.346-5.926-16.957-3.822C1.784 4.469-2.306 11.938 1.4 18.192c1.057 1.782 2.856 3.127 3.591 5.12 1.187 3.217-.62 5.687-.267 8.848 1.464 13.135 21.523 8.047 28.904 3.96C45.203 29.713 53.034 15.45 44.2 8.659z" fill="url(#paint0_linear_139_1927)"/><path opacity=".1" d="M38.84 32.207a17.542 17.542 0 003.246-10.195c0-3.284-.9-6.357-2.464-8.99a1.716 1.716 0 00-.952-3.147c-.409 0-.784.143-1.079.382A17.578 17.578 0 0024.462 4.39c-2.312 0-4.52.446-6.544 1.256a1.716 1.716 0 10-3.044 1.58c-4.836 3.141-8.035 8.59-8.035 14.787 0 .728.045 1.446.13 2.15a1.717 1.717 0 10.745 3.347 17.576 17.576 0 002.59 4.998 5.625 5.625 0 109.193 6.418c1.575.462 3.241.71 4.965.71.782 0 1.551-.05 2.306-.15a1.717 1.717 0 103.34-.773 17.617 17.617 0 006.484-3.915 1.718 1.718 0 102.247-2.59z" fill="#0000CB"/><path d="M7.257 23.595a17.676 17.676 0 01-.418-3.833c0-6.81 3.864-12.719 9.519-15.651l7.603-.548L27.72 8.54 14.449 19.552l-7.192 4.043z" fill="#B2B2FF"/><path d="M36.064 27.648c0-.74-.47-1.37-1.126-1.61a19.345 19.345 0 00-5.685-14.477 1.73 1.73 0 00.174-.598 18.59 18.59 0 017.53.544c-.002.028-.005.057-.005.086a1.718 1.718 0 003.369.474 17.612 17.612 0 00-1.232-2.139 1.715 1.715 0 00-1.832.69 19.545 19.545 0 00-7.997-.578 1.716 1.716 0 00-2.559-.63 19.289 19.289 0 00-8.657-3.373 1.718 1.718 0 10-.083.935 18.358 18.358 0 018.164 3.179 1.714 1.714 0 00-.124.62 19.538 19.538 0 00-11.251 9.346 1.718 1.718 0 00-2.019 1.69c0 .033.003.066.005.099a19.384 19.384 0 00-4.507 2.533 1.71 1.71 0 00-.841-.298 17.484 17.484 0 001.048 2.96 1.711 1.711 0 00.392-1.94 18.447 18.447 0 014.215-2.369c.106.151.236.283.383.393a19.501 19.501 0 00-.643 9.773c.377.334.768.653 1.173.954a18.49 18.49 0 01-.58-4.61c0-2.02.327-3.964.928-5.784a1.717 1.717 0 001.861-1.665 18.55 18.55 0 013.755-.384c3.886 0 7.605 1.191 10.754 3.445a18.77 18.77 0 012.203 1.846 1.716 1.716 0 00.73 2.437 18.395 18.395 0 01-3.268 7.183 17.83 17.83 0 001.59-.65 19.395 19.395 0 002.604-6.375 1.71 1.71 0 00.464-.118c.663.93 1.24 1.923 1.722 2.968a1.726 1.726 0 00-.537.718 17.76 17.76 0 001.304-1.288 19.328 19.328 0 00-1.752-2.978c.207-.283.33-.631.33-1.009zm-2.061-1.683a1.703 1.703 0 00-.44.155 19.7 19.7 0 00-2.343-1.968 19.306 19.306 0 00-11.3-3.62c-1.351 0-2.687.14-3.988.411a1.725 1.725 0 00-.339-.415 18.596 18.596 0 0110.655-8.85 1.715 1.715 0 002.371.575 18.412 18.412 0 015.384 13.712z" fill="#9393FF"/><path d="M34.341 25.396a18.947 18.947 0 013.437 5.91 17.609 17.609 0 01-9.324 5.626c3.174-2.961 5.331-7 5.887-11.536z" fill="#4D4DFF"/><path d="M36.182 32.923c.456-.407.891-.837 1.303-1.288a19.33 19.33 0 00-1.75-2.978 1.71 1.71 0 00.325-.909 19.013 19.013 0 00-1.719-2.352 18.85 18.85 0 01-.85 3.74c.038.021.077.042.117.062a18.404 18.404 0 01-3.268 7.184c.542-.192 1.072-.41 1.588-.651a19.394 19.394 0 002.605-6.376c.163-.017.318-.058.464-.117.663.93 1.24 1.923 1.722 2.968a1.725 1.725 0 00-.537.717z" fill="#2C27FF"/><path d="M12.907 27.053c0 2.508.487 4.903 1.372 7.095a17.637 17.637 0 01-7.022-10.554 18.936 18.936 0 017.192-4.043 18.906 18.906 0 00-1.542 7.502z" fill="#D8D8FF"/><path d="M13.587 32.1a19.117 19.117 0 01-.464-7.91 19.512 19.512 0 00-.34 8.769c.377.335.768.654 1.174.955a18.346 18.346 0 01-.37-1.814zm-.267-9a18.96 18.96 0 01.9-2.994c-.84.112-1.489.83-1.489 1.701 0 .034.003.066.005.099a19.382 19.382 0 00-4.507 2.533 1.71 1.71 0 00-.84-.297 17.494 17.494 0 001.046 2.96 1.711 1.711 0 00.393-1.94 18.446 18.446 0 014.215-2.37c.08.114.173.217.277.308z" fill="#B2B2FF"/><path d="M34.342 25.395v.001a18.914 18.914 0 01-5.888 11.536 17.666 17.666 0 01-3.99.454 17.549 17.549 0 01-10.185-3.238 18.91 18.91 0 01-1.371-7.095c0-2.664.549-5.201 1.54-7.502 1.733-.521 3.57-.8 5.472-.8 5.771 0 10.941 2.578 14.422 6.644z" fill="#6C6CFF"/><path d="M34.016 25.31c0 .22-.006.437-.013.655a1.701 1.701 0 00-.44.155 19.68 19.68 0 00-2.343-1.968 19.307 19.307 0 00-11.3-3.62c-1.351 0-2.687.14-3.988.411a1.723 1.723 0 00-.339-.415c.272-.503.568-.992.884-1.466-.434.08-.864.174-1.287.283-.152.254-.3.511-.44.773a1.723 1.723 0 00-.3-.028 1.72 1.72 0 00-.23.016 18.828 18.828 0 00-.9 2.994c.035.03.07.058.106.085-.11.331-.21.667-.303 1.006a19.118 19.118 0 00.464 7.91 18.64 18.64 0 01-.21-2.798c0-2.02.326-3.964.927-5.785a1.717 1.717 0 001.86-1.665 18.552 18.552 0 013.756-.384c3.886 0 7.605 1.191 10.754 3.445.787.563 1.522 1.18 2.203 1.847a1.714 1.714 0 00.613 2.375 18.84 18.84 0 00.852-3.74 18.926 18.926 0 00-.33-.375c.002.096.004.192.004.29z" fill="#4D4DFF"/><path d="M38.67 9.334a18.945 18.945 0 00-6.791-1.252c-1.43 0-2.82.157-4.16.457A18.883 18.883 0 0016.358 4.11a17.538 17.538 0 018.106-1.971c5.831 0 11 2.832 14.208 7.195z" fill="#D8D8FF"/><path d="M42.086 19.763a17.55 17.55 0 01-4.308 11.543 18.945 18.945 0 00-3.436-5.91c.093-.765.142-1.544.142-2.336A18.927 18.927 0 0027.72 8.54a19 19 0 014.159-.458c2.392 0 4.683.444 6.792 1.252a17.547 17.547 0 013.415 10.429z" fill="#6C6CFF"/><path d="M34.342 25.396c.63.738 1.205 1.524 1.718 2.353.002-.034.004-.067.004-.1 0-.74-.469-1.37-1.126-1.611a19.5 19.5 0 00-.679-5.891 19.11 19.11 0 01.083 5.249zM30.064 10.89a18.555 18.555 0 016.893.617c-.001.029-.004.057-.004.086a1.718 1.718 0 003.368.474 17.61 17.61 0 00-1.232-2.138 1.715 1.715 0 00-1.832.69 19.418 19.418 0 00-7.954-.584c.262.277.515.563.76.855z" fill="#4D4DFF"/><path d="M34.484 23.06c0 .792-.049 1.57-.142 2.336-3.48-4.067-8.65-6.645-14.422-6.645-1.902 0-3.739.279-5.471.8 2.375-5.512 7.29-9.674 13.271-11.012 4.135 3.48 6.764 8.694 6.764 14.521z" fill="#9393FF"/><path d="M29.253 11.56c.092-.183.153-.383.174-.597.211-.028.423-.052.636-.073a18.994 18.994 0 00-.76-.855l-.043.005c-.02-.04-.042-.08-.065-.12a19.18 19.18 0 00-.62-.615 1.703 1.703 0 00-1.874.105 19.486 19.486 0 00-.628-.423 18.87 18.87 0 00-1.129.403c.402.239.797.491 1.181.761a1.713 1.713 0 00-.124.621 19.533 19.533 0 00-10.811 8.573c.423-.109.853-.203 1.287-.283a18.585 18.585 0 019.77-7.384 1.715 1.715 0 002.372.575 18.408 18.408 0 015.393 12.768c.112.123.221.248.33.374a19.18 19.18 0 00-.082-5.249 19.354 19.354 0 00-5.007-8.586z" fill="#8282FF"/><path d="M27.718 10.26a1.718 1.718 0 100-3.436 1.718 1.718 0 000 3.436z" fill="#FF9C33"/><path d="M38.67 11.06a1.718 1.718 0 100-3.435 1.718 1.718 0 000 3.436z" fill="#FF6C6C"/><path d="M16.357 5.828a1.718 1.718 0 100-3.436 1.718 1.718 0 000 3.436z" fill="#FF9C33"/><path d="M14.311 35.866a1.718 1.718 0 100-3.436 1.718 1.718 0 000 3.436zM7.257 25.323a1.718 1.718 0 100-3.436 1.718 1.718 0 000 3.436zm7.193-4.048a1.718 1.718 0 10-.001-3.436 1.718 1.718 0 000 3.436z" fill="#FF6C6C"/><path d="M34.346 27.116a1.718 1.718 0 100-3.436 1.718 1.718 0 000 3.436z" fill="#FF9C33"/><path d="M37.778 33.024a1.718 1.718 0 100-3.436 1.718 1.718 0 000 3.436z" fill="#FF6C6C"/><path d="M28.458 38.65a1.718 1.718 0 100-3.435 1.718 1.718 0 000 3.435z" fill="#FF9C33"/><path d="M14.64 39.467a5.625 5.625 0 100-11.25 5.625 5.625 0 000 11.25z" fill="#FF6C6C"/><path d="M40.225 10.88a2.18 2.18 0 00.632-1.537A2.19 2.19 0 0037.67 7.4a18.118 18.118 0 00-16.912-5.35.469.469 0 10.191.918 17.179 17.179 0 0115.998 5.03 2.328 2.328 0 00-.16.24 19.503 19.503 0 00-7.04-.507 2.19 2.19 0 00-2.03-1.375c-.543 0-1.04.2-1.423.53a19.46 19.46 0 00-7.765-3.029 2.19 2.19 0 00-2.172-1.934 2.19 2.19 0 00-2.072 2.882A18.065 18.065 0 006.46 21.568a2.19 2.19 0 00-1.39 2.036 2.19 2.19 0 002.327 2.182 17.99 17.99 0 002.322 4.466 6.056 6.056 0 00-1.174 3.59 6.1 6.1 0 006.093 6.093 6.092 6.092 0 005.067-2.712 18.127 18.127 0 006.723.524 2.19 2.19 0 002.028 1.372 2.19 2.19 0 002.18-2.347 18.228 18.228 0 005.983-3.613c.336.211.733.334 1.158.334a2.19 2.19 0 002.187-2.187 2.19 2.19 0 00-2.59-2.149 19.42 19.42 0 00-1.364-2.344c.325-.382.522-.875.522-1.415a2.19 2.19 0 00-1.582-2.1l.002-.237c0-5.028-1.9-9.77-5.358-13.4a2.16 2.16 0 00.306-1.004 18.57 18.57 0 016.594.475 2.19 2.19 0 002.942 2.258 17.134 17.134 0 012.18 8.372 17 17 0 01-1.681 7.417.469.469 0 10.845.405 17.929 17.929 0 001.774-7.822c0-3.122-.806-6.184-2.33-8.883zM27.718 7.292a1.25 1.25 0 010 2.498 1.25 1.25 0 01-1.25-1.249c0-.688.56-1.249 1.25-1.249zM16.358 2.86a1.25 1.25 0 010 2.498 1.25 1.25 0 01-1.25-1.249c0-.689.56-1.249 1.25-1.249zm-1.59 2.75a2.18 2.18 0 001.59.686 2.19 2.19 0 002.077-1.506 18.518 18.518 0 017.294 2.844 2.174 2.174 0 00-.194 1.038 19.362 19.362 0 00-10.554 8.763 2.185 2.185 0 00-2.719 2.121c0 .097.007.192.019.286A19.44 19.44 0 008.625 21.9a2.176 2.176 0 00-1.236-.477 17.13 17.13 0 017.38-15.813zm.93 13.946c0 .69-.56 1.25-1.249 1.25a1.25 1.25 0 01-1.25-1.25 1.25 1.25 0 012.498 0zm-8.441 5.297a1.25 1.25 0 01-1.25-1.25 1.25 1.25 0 012.498 0c0 .69-.56 1.25-1.248 1.25zm1.043.671a2.188 2.188 0 00.914-2.894 18.506 18.506 0 013.388-1.906c.172.27.401.502.671.674a19.46 19.46 0 00-.803 6.75 6.103 6.103 0 00-2.119 1.37 17.054 17.054 0 01-2.05-3.994zm6.34 13.473a5.162 5.162 0 01-5.157-5.156 5.162 5.162 0 015.156-5.157 5.162 5.162 0 015.157 5.157 5.162 5.162 0 01-5.157 5.156zm13.817-.816a1.25 1.25 0 01-1.249-1.25 1.25 1.25 0 012.498 0c0 .69-.56 1.25-1.249 1.25zm1.134-3.118a2.171 2.171 0 00-1.134-.318 2.19 2.19 0 00-2.183 2.075 17.206 17.206 0 01-6.096-.443 6.056 6.056 0 00.555-2.536 6.1 6.1 0 00-7.338-5.966 18.53 18.53 0 01.76-6.152 2.19 2.19 0 002.48-2.166v-.048c1.077-.193 2.18-.29 3.284-.29 4.715 0 9.176 1.76 12.612 4.964a2.17 2.17 0 00-.372 1.214 2.19 2.19 0 001.339 2.016 18.488 18.488 0 01-3.907 7.65zm8.187-5.007a1.25 1.25 0 010 2.498 1.25 1.25 0 01-1.249-1.249c0-.689.56-1.249 1.25-1.249zm-1.266-.532a2.185 2.185 0 00-.563 2.977 17.284 17.284 0 01-5.58 3.37 2.22 2.22 0 00-.1-.16 19.429 19.429 0 004.152-8.13c.3-.01.585-.08.843-.2.463.684.88 1.402 1.248 2.143zm-.917-4.127a1.25 1.25 0 01-2.498 0 1.25 1.25 0 012.499.001zm-1.58-2.338v.177a2.168 2.168 0 00-.807.297 19.326 19.326 0 00-13.289-5.252c-1.178 0-2.356.107-3.506.316a2.2 2.2 0 00-.593-.742 18.428 18.428 0 019.971-8.28 2.188 2.188 0 003.161.77 18.378 18.378 0 015.063 12.714zm4.655-12.468a1.25 1.25 0 01-1.249-1.25 1.25 1.25 0 012.498 0c0 .69-.56 1.25-1.249 1.25z" fill="#0000CB"/><path d="M18.781 32.391L18.03 33.4a6.71 6.71 0 00-3.39-.91 6.72 6.72 0 00-3.392.909l-.75-1.007a7.951 7.951 0 014.141-1.15c1.484 0 2.906.4 4.142 1.15zm-1.393 1.869l-.756 1.012a4.436 4.436 0 00-1.993-.468 4.42 4.42 0 00-1.992.468l-.757-1.013a5.663 5.663 0 012.75-.705 5.66 5.66 0 012.748.705zm-1.406 1.885l-.782 1.048a2.094 2.094 0 00-.56-.075c-.193 0-.38.025-.561.075l-.782-1.048a3.366 3.366 0 011.342-.276c.47 0 .924.095 1.343.276z" fill="#fff"/><path d="M13.597 14.66h-1.03a.469.469 0 010-.938h1.03a.469.469 0 010 .937zm0 1.67h-2.46a.469.469 0 110-.938h2.46a.469.469 0 010 .937zm23.981-2.239h-1.03a.469.469 0 010-.937h1.03a.469.469 0 010 .937zm1.43 1.67h-2.46a.469.469 0 010-.938h2.46a.469.469 0 010 .938z" fill="#FF6C6C"/><path d="M29.974 27.702h-1.03a.469.469 0 010-.937h1.03a.469.469 0 010 .937zm0 1.67h-2.46a.469.469 0 010-.937h2.46a.469.469 0 110 .937z" fill="#FA6"/><path d="M5.521 33.239a.469.469 0 01-.469-.47.516.516 0 00-.515-.515.469.469 0 010-.937.516.516 0 00.515-.516.469.469 0 01.938 0c0 .284.231.516.515.516a.469.469 0 010 .937.516.516 0 00-.515.516c0 .259-.21.468-.469.468z" fill="#FF9C33"/><path d="M42.555 35.601a.469.469 0 01-.469-.469.516.516 0 00-.515-.515.469.469 0 010-.938.516.516 0 00.515-.515.469.469 0 11.938 0c0 .284.231.515.515.515a.469.469 0 110 .938.516.516 0 00-.515.515c0 .26-.21.47-.47.47zM36.064 2.906a.469.469 0 01-.469-.469.516.516 0 00-.515-.515.469.469 0 010-.938.516.516 0 00.515-.515.469.469 0 01.938 0c0 .284.231.515.515.515a.469.469 0 010 .938.516.516 0 00-.515.516c0 .258-.21.468-.469.468z" fill="#FF6C6C"/><path d="M41.617 3.375a.468.468 0 01-.331-.8l.937-.938a.469.469 0 01.663.663l-.937.938a.467.467 0 01-.332.137zM19.796 43.123a.468.468 0 01-.332-.8l.938-.938a.469.469 0 01.663.663l-.938.938a.468.468 0 01-.331.137z" fill="#6C6CFF"/><defs><linearGradient id="paint0_linear_139_1927" x1="4.215" y1="35.999" x2="38.967" y2="1.246" gradientUnits="userSpaceOnUse"><stop stop-color="#fff" stop-opacity="0"/><stop offset=".262" stop-color="#EDEDFF" stop-opacity=".416"/><stop offset=".629" stop-color="#D8D8FF"/></linearGradient></defs></svg>