<svg width="43" height="48" fill="none" xmlns="http://www.w3.org/2000/svg"><path d="M42.759 14.002C42.124 4.976 29.731-3.122 22.071 1.195 16.828 4.15 13.245 4.601 7.386 6.07-1.447 8.284-2.789 19.31 5.714 22.321c4.87 1.725 13.716-.428 15.668 4.938 1.61 4.429-2.47 8.8 1.122 14.726 4.623 7.627 12.458 6.998 14.888 3.62 2.101-2.922-.753-7.987-1.317-11.048-1.38-7.49 6.904-13.206 6.684-20.555z" fill="url(#paint0_linear_139_1843)"/><path opacity=".1" d="M25.484 35.11a1.931 1.931 0 00-.765 1.213l-1.273 6.929a.469.469 0 00.461.553h16.659a.468.468 0 00.459-.563l-1.685-8.161a1.288 1.288 0 00-.701-.9l-4.718-2.278 3.456-3.13a.43.43 0 00-.16-.728l-5.905-1.86a4.578 4.578 0 00-1.702-4.658 38.2 38.2 0 005.533-2.482.43.43 0 00-.064-.78l-5.76-2.058-3.151-9.024a1.717 1.717 0 00-1.622-1.152h-6.329c-.73 0-1.38.462-1.62 1.152l-.366 1.045a5.137 5.137 0 00-3.611-1.392c-2.821.047-5.104 2.4-5.068 5.22a5.158 5.158 0 003.782 4.905l-3.65 1.304a.43.43 0 00-.063.78 38.214 38.214 0 005.533 2.482 4.583 4.583 0 00-1.702 4.658l-5.906 1.86a.43.43 0 00-.16.728l3.456 3.13-4.717 2.278c-.361.175-.62.507-.702.9L1.74 43.242a.47.47 0 00.459.564h16.659a.469.469 0 00.46-.554l-1.273-6.93a1.927 1.927 0 00-.764-1.212l-2.493-1.805-1.153-4.155a4.558 4.558 0 002.293.616 4.593 4.593 0 004.57-4.208c.053-.126.265-.513.885-.513.595 0 .814.35.884.518a4.593 4.593 0 004.57 4.203c.836 0 1.618-.225 2.293-.616l-1.152 4.155-2.493 1.805zm-9.557-7.061a2.874 2.874 0 01-2.87-2.87 2.874 2.874 0 012.567-2.855c.626.18 1.277.35 1.95.506a2.868 2.868 0 01-1.647 5.219zm10.91 0a2.868 2.868 0 01-1.647-5.218 38.304 38.304 0 001.95-.507 2.874 2.874 0 012.567 2.854 2.873 2.873 0 01-2.87 2.87z" fill="#0000CB"/><path d="M11.08 28.572l-6.955 3.36c-.361.174-.62.506-.701.899l-1.801 8.724h6.375l.47-.468.468.468h10.483l-8.338-12.983z" fill="#FA6"/><path d="M7.222 30.435l3.463 3.137-2.382 1.357a.43.43 0 00-.04.72l8.079 5.907h3.077l-8.338-12.984-3.859 1.863z" fill="#FF9C33"/><path d="M31.683 28.572l6.956 3.36c.36.174.62.506.701.899l1.801 8.724h-6.376l-.468-.468-.47.468H23.346l8.338-12.983z" fill="#FA6"/><path d="M34.46 34.93l-2.381-1.358 3.462-3.137-3.858-1.863-8.338 12.983h3.077l8.08-5.906a.43.43 0 00-.041-.72z" fill="#FF9C33"/><path d="M30.06 23.541l-2.083 7.514-2.493 1.805a1.931 1.931 0 00-.765 1.213l-1.375 7.483 11.157-8.157a.43.43 0 00-.04-.72l-2.382-1.358 5.297-4.798a.43.43 0 00-.159-.728l-7.156-2.254z" fill="#FFC498"/><path d="M31.247 23.915l-1.186-.373-1.649 5.945a4.596 4.596 0 002.835-5.572z" fill="#FA6"/><path d="M12.703 23.541l2.084 7.514 2.493 1.805c.401.291.675.725.764 1.213l1.375 7.483-11.157-8.157a.43.43 0 01.041-.72l2.382-1.358-5.298-4.798a.43.43 0 01.16-.728l7.156-2.254z" fill="#FFC498"/><path d="M12.703 23.542l-1.186.373a4.596 4.596 0 002.835 5.573l-1.65-5.946z" fill="#FA6"/><path d="M23.934 22.884c-.175-.625-.933-1.807-2.552-1.807-1.62 0-2.378 1.182-2.553 1.807l1.654.463c.001-.005.163-.552.899-.552.664 0 .86.436.904.57l-.005-.018 1.654-.463z" fill="#2C27FF"/><path d="M15.927 20.058a2.874 2.874 0 00-2.87 2.87 2.874 2.874 0 002.87 2.87 2.873 2.873 0 002.87-2.87 2.874 2.874 0 00-2.87-2.87z" fill="#B2B2FF"/><path d="M15.927 20.058a2.873 2.873 0 00-2.548 1.549 38.67 38.67 0 005.414 1.484c.002-.054.004-.108.004-.163a2.874 2.874 0 00-2.87-2.87z" fill="#9393FF"/><path d="M26.837 20.058a2.873 2.873 0 00-2.87 2.87 2.873 2.873 0 002.87 2.87 2.874 2.874 0 002.87-2.87 2.874 2.874 0 00-2.87-2.87z" fill="#B2B2FF"/><path d="M26.837 20.058a2.874 2.874 0 00-2.866 3.033 38.667 38.667 0 005.413-1.484 2.873 2.873 0 00-2.547-1.55z" fill="#9393FF"/><path d="M15.927 27.516a4.593 4.593 0 01-4.588-4.587 4.593 4.593 0 014.588-4.588 4.593 4.593 0 014.588 4.587 4.593 4.593 0 01-4.588 4.588zm0-7.458a2.873 2.873 0 00-2.87 2.87 2.873 2.873 0 002.87 2.87 2.874 2.874 0 002.87-2.87 2.874 2.874 0 00-2.87-2.87z" fill="#6C6CFF"/><path d="M15.927 18.34A4.592 4.592 0 0011.765 21a39.65 39.65 0 001.614.607 2.873 2.873 0 012.548-1.55 2.874 2.874 0 012.865 3.034c.554.108 1.122.206 1.701.29a4.593 4.593 0 00-4.566-5.04z" fill="#4D4DFF"/><path d="M26.837 27.516a4.593 4.593 0 01-4.588-4.587 4.593 4.593 0 014.588-4.588 4.593 4.593 0 014.587 4.587 4.593 4.593 0 01-4.587 4.588zm0-7.458a2.874 2.874 0 00-2.87 2.87 2.874 2.874 0 002.87 2.87 2.873 2.873 0 002.87-2.87 2.873 2.873 0 00-2.87-2.87z" fill="#6C6CFF"/><path d="M26.837 18.34a4.593 4.593 0 00-4.566 5.04 32.17 32.17 0 001.7-.29 2.874 2.874 0 012.866-3.033c1.106 0 2.068.63 2.547 1.55.57-.2 1.108-.404 1.615-.607a4.592 4.592 0 00-4.162-2.66z" fill="#4D4DFF"/><path d="M29.32 13.957H13.444l-5.76 2.058a.43.43 0 00-.063.78c1.887 1.049 6.928 3.554 13.332 4.4.285.038.573.038.858 0 6.404-.846 11.445-3.351 13.332-4.4a.43.43 0 00-.063-.78l-5.76-2.058z" fill="#FA6"/><path d="M13.444 13.957L8.98 15.552a5.157 5.157 0 008.495-1.595h-4.03z" fill="#FF9C33"/><path d="M31.48 14.729l-1.265.687c-.161.088-4.014 2.161-8.611 2.709l-.222.027-.222-.027c-4.597-.548-8.45-2.62-8.611-2.709l-1.265-.687 2.16-.772H29.32l2.16.772z" fill="#FF9C33"/><path d="M24.546 3.781h-6.329c-.73 0-1.38.462-1.62 1.152l-3.153 9.024s3.646 1.982 7.938 2.494c4.292-.512 7.938-2.494 7.938-2.494l-3.152-9.024a1.718 1.718 0 00-1.622-1.152z" fill="#FFC498"/><path d="M17.864 11.991a5.15 5.15 0 00-2.247-4.256l-2.173 6.222s1.273.692 3.2 1.364a5.135 5.135 0 001.22-3.33z" fill="#FA6"/><path d="M29.32 13.957s-3.646 1.982-7.938 2.494c-4.292-.512-7.938-2.494-7.938-2.494l.592-1.696c1.2.573 4.087 1.809 7.346 2.198 3.259-.39 6.146-1.625 7.346-2.197l.592 1.695z" fill="#FF6C6C"/><path d="M17.593 13.64a26.407 26.407 0 01-3.557-1.378l-.592 1.695s1.273.692 3.2 1.364c.415-.49.74-1.06.949-1.681z" fill="#FF4D4D"/><path d="M8.467 37.406a.469.469 0 00-.469.469v3.68h.938v-3.68a.469.469 0 00-.469-.469zm25.829 0a.469.469 0 00-.468.469v3.68h.937v-3.68a.469.469 0 00-.469-.469z" fill="#FF9C33"/><path d="M16.036 35.122a.469.469 0 01-.469-.468v-.011a.469.469 0 01.938 0v.01c0 .26-.21.47-.47.47zm.43 1.778a.469.469 0 01-.468-.469v-.01a.469.469 0 01.937 0v.01c0 .259-.21.469-.469.469zm10.262-1.778a.469.469 0 01-.469-.468v-.011a.469.469 0 01.938 0v.01c0 .26-.21.47-.469.47zm-.43 1.778a.469.469 0 01-.47-.469v-.01a.469.469 0 01.938 0v.01c0 .259-.21.469-.468.469z" fill="#fff"/><path d="M12.707 14.898a5.156 5.156 0 100-10.313 5.156 5.156 0 000 10.313z" fill="#8282FF"/><path d="M12.707 14.898c1.133 0 2.05-2.309 2.05-5.157 0-2.847-.917-5.156-2.05-5.156-1.132 0-2.05 2.309-2.05 5.156 0 2.848.918 5.157 2.05 5.157z" fill="#6C6CFF"/><path d="M10.657 9.741h7.206a5.156 5.156 0 10-10.312 0h3.106z" fill="#9393FF"/><path d="M14.758 9.741c0-2.847-.918-5.156-2.05-5.156-1.133 0-2.051 2.309-2.051 5.156h4.1z" fill="#8282FF"/><path d="M8.733 13.027c.946-.894 2.375-1.464 3.974-1.464 1.6 0 3.03.57 3.974 1.464a5.145 5.145 0 01-3.974 1.87 5.146 5.146 0 01-3.974-1.87z" fill="#6C6CFF"/><path d="M8.733 6.456a5.146 5.146 0 013.974-1.871c1.6 0 3.03.728 3.974 1.871-.945.894-2.374 1.464-3.974 1.464S9.68 7.35 8.733 6.456z" fill="#8282FF"/><path d="M10.833 11.837a6.43 6.43 0 011.874-.274 6.43 6.43 0 011.874.274c-.32 1.803-1.038 3.06-1.874 3.06-.835 0-1.554-1.257-1.874-3.06z" fill="#4D4DFF"/><path d="M10.833 7.646c.32-1.804 1.039-3.061 1.874-3.061.836 0 1.555 1.257 1.874 3.06a6.427 6.427 0 01-1.874.275 6.44 6.44 0 01-1.874-.274z" fill="#6C6CFF"/><path d="M41.6 41.46l-1.8-8.724a1.767 1.767 0 00-.957-1.227l-4.092-1.976 2.94-2.663a.89.89 0 00.274-.859.888.888 0 00-.607-.663l-5.512-1.736a5.008 5.008 0 00-1.346-4.166 38.268 38.268 0 004.872-2.241.89.89 0 00.458-.86.889.889 0 00-.593-.771l-5.549-1.983-1.36-3.892a.469.469 0 00-.884.309l1.298 3.717c-1 .49-3.99 1.841-7.36 2.253-2.215-.27-4.268-.95-5.65-1.498a5.62 5.62 0 002.6-4.739 5.604 5.604 0 00-1.562-3.884l.268-.77a1.25 1.25 0 011.18-.836h6.328c.53 0 1.005.336 1.18.836l.746 2.14a.469.469 0 10.886-.309l-.748-2.14a2.189 2.189 0 00-2.064-1.465h-6.328a2.19 2.19 0 00-2.065 1.465l-.144.414a5.593 5.593 0 00-3.302-1.076 5.631 5.631 0 00-5.625 5.625 5.63 5.63 0 002.939 4.941l-2.495.892a.889.889 0 00-.592.772.89.89 0 00.459.86 38.27 38.27 0 004.871 2.24 5.008 5.008 0 00-1.393 3.482c0 1.801.947 3.384 2.368 4.28l1.096 3.972c.028.102.09.192.177.254l2.492 1.806c.306.22.511.547.58.917l1.161 6.325-10.157-7.426 2.329-1.327a.469.469 0 00.082-.755l-5.247-4.753 3.143-.99a.469.469 0 00-.281-.893l-3.209 1.01a.889.889 0 00-.607.665.89.89 0 00.274.857l2.94 2.663-4.091 1.976c-.49.236-.847.695-.956 1.227L1.164 41.46a.469.469 0 00.918.19l1.8-8.726a.824.824 0 01.447-.572l4.433-2.14 1.129 1.021-1.82 1.038a.895.895 0 00-.452.73.895.895 0 00.367.775l11.157 8.157a.468.468 0 00.738-.463l-1.375-7.483a2.386 2.386 0 00-.951-1.508l-2.36-1.709-.843-3.039a5.034 5.034 0 001.575.252 5.064 5.064 0 005.031-4.547c.05-.072.164-.174.424-.174.252 0 .37.092.424.177a5.064 5.064 0 005.031 4.544c.55 0 1.08-.09 1.576-.252l-.843 3.04-2.36 1.709c-.503.363-.84.899-.952 1.507l-1.375 7.483a.469.469 0 00.738.463l11.156-8.156a.894.894 0 00.368-.776.894.894 0 00-.452-.73l-1.82-1.038 1.129-1.022 4.433 2.141c.228.11.395.324.446.572l1.8 8.725a.469.469 0 10.919-.19zM8.02 9.742a4.693 4.693 0 014.687-4.687 4.693 4.693 0 014.688 4.687 4.693 4.693 0 01-4.688 4.688A4.693 4.693 0 018.02 9.74zm-.096 6.686l3.43-1.226a5.612 5.612 0 003.263-.169c1.613.7 4.034 1.566 6.71 1.884a.49.49 0 00.11 0c3.833-.456 7.109-2.034 7.918-2.449l5.485 1.96c-1.91 1.053-6.852 3.48-13.09 4.303a2.827 2.827 0 01-.736 0c-6.24-.824-11.182-3.251-13.09-4.303zm21.314 6.502a2.404 2.404 0 01-2.401 2.401 2.404 2.404 0 01-2.402-2.401c0-.752.356-1.46.956-1.914.614-.144 1.209-.3 1.784-.464a2.395 2.395 0 012.063 2.378zm-10.91 0a2.405 2.405 0 01-2.401 2.401 2.404 2.404 0 01-2.401-2.401c0-1.204.88-2.212 2.062-2.378.575.163 1.17.318 1.783.462.6.454.957 1.163.957 1.915zm-2.401 4.118a4.123 4.123 0 01-4.119-4.119c0-1.213.52-2.338 1.437-3.123.29.102.587.203.891.302a3.343 3.343 0 001.79 6.16 3.343 3.343 0 003.34-3.338c0-.567-.146-1.115-.411-1.6.307.059.618.115.933.166.17.458.258.938.258 1.433a4.124 4.124 0 01-4.12 4.119zm5.883-4.668a1.693 1.693 0 00-.428-.053c-.16 0-.302.02-.43.054a5.004 5.004 0 00-.133-.73l.072.01a3.763 3.763 0 00.981 0l.072-.01a5.03 5.03 0 00-.134.73zm5.027 4.668a4.124 4.124 0 01-4.12-4.119c0-.495.088-.975.259-1.433.315-.051.626-.107.933-.166a3.331 3.331 0 00-.411 1.6 3.343 3.343 0 003.339 3.339 3.343 3.343 0 001.79-6.16c.305-.1.602-.2.892-.303a4.085 4.085 0 011.436 3.123 4.123 4.123 0 01-4.118 4.119zm4.776 4.325c.016.15.103.282.233.356l2.33 1.328-10.158 7.426 1.162-6.325a1.45 1.45 0 01.58-.917l2.492-1.806a.468.468 0 00.177-.254l1.103-3.977a5.08 5.08 0 002.1-2.675l5.378 1.694-5.246 4.752a.47.47 0 00-.151.398z" fill="#0000CB"/><path d="M6.23 5.003a.469.469 0 01-.469-.47.516.516 0 00-.515-.515.469.469 0 110-.937.516.516 0 00.515-.516.469.469 0 11.938 0c0 .285.231.516.515.516a.469.469 0 110 .937.516.516 0 00-.515.516c0 .259-.21.469-.469.469z" fill="#FF9C33"/><path d="M40.603 29.954a.469.469 0 01-.468-.47.516.516 0 00-.516-.515.469.469 0 110-.937.516.516 0 00.516-.516.469.469 0 01.937 0c0 .285.231.516.516.516a.469.469 0 110 .937.516.516 0 00-.516.516c0 .259-.21.469-.469.469z" fill="#6C6CFF"/><path d="M37.518 13.016a.469.469 0 01-.469-.47.516.516 0 00-.516-.515.469.469 0 010-.937.516.516 0 00.516-.516.469.469 0 01.938 0c0 .285.23.516.515.516a.469.469 0 010 .937.516.516 0 00-.515.516.47.47 0 01-.47.469zm-31.763 9.66a.469.469 0 01-.469-.468.516.516 0 00-.515-.516.469.469 0 110-.938.516.516 0 00.515-.515.469.469 0 11.938 0c0 .284.231.515.515.515a.469.469 0 110 .938.516.516 0 00-.515.515c0 .26-.21.47-.47.47z" fill="#FF6C6C"/><path d="M32.44 11.054a.467.467 0 01-.33-.8l.937-.938a.469.469 0 01.663.663l-.938.937a.467.467 0 01-.331.138z" fill="#6C6CFF"/><defs><linearGradient id="paint0_linear_139_1843" x1="13.541" y1="33.648" x2="40.156" y2="7.034" gradientUnits="userSpaceOnUse"><stop stop-color="#FFD8D8" stop-opacity="0"/><stop offset=".998" stop-color="#FFB2B2"/></linearGradient></defs></svg>