<svg width="57" height="57" fill="none" xmlns="http://www.w3.org/2000/svg"><g clip-path="url(#clip0_37_2471)"><path d="M47.426 22.259H33.55L44.432 2.475A1.67 1.67 0 0042.97 0H22.93a1.67 1.67 0 00-1.573 1.108l-11.13 31.165a1.67 1.67 0 001.573 2.232h15.78l-4.06 20.494c-.349 1.766 1.96 2.759 3.001 1.29l22.266-31.395c.784-1.105-.007-2.635-1.362-2.635z" fill="url(#paint0_linear_37_2471)"/><path d="M18.689 53.405a1.67 1.67 0 001.965-1.31l2.449-12.246a1.67 1.67 0 10-3.275-.655L17.379 51.44a1.67 1.67 0 001.31 1.965z" fill="#5546BA"/><path d="M4.56 33.257a1.67 1.67 0 002.134-1.011l7.157-20.04a1.67 1.67 0 10-3.145-1.122L3.549 31.123a1.67 1.67 0 001.01 2.134z" fill="#4759C8"/><path d="M49.133.865L43.01 11.998a1.67 1.67 0 002.926 1.61l6.123-11.133a1.67 1.67 0 00-2.926-1.61z" fill="#6F25A0"/><path d="M32.41 56.698a1.67 1.67 0 002.327-.41l7.952-11.356a1.67 1.67 0 00-2.736-1.916L32 54.372a1.67 1.67 0 00.41 2.326zm18.11-28.475l-3.976 5.566a1.67 1.67 0 002.718 1.941l3.976-5.566a1.67 1.67 0 00-2.718-1.941z" fill="#6236AD"/></g><defs><linearGradient id="paint0_linear_37_2471" x1="-3.682" y1="106.185" x2="54.264" y2="103.971" gradientUnits="userSpaceOnUse"><stop stop-color="#2780E6"/><stop offset="1" stop-color="#781896"/></linearGradient><clipPath id="clip0_37_2471"><path fill="#fff" d="M0 0h57v57H0z"/></clipPath></defs></svg>