<svg width="58" height="58" fill="none" xmlns="http://www.w3.org/2000/svg"><g clip-path="url(#clip0_37_2469)"><path fill-rule="evenodd" clip-rule="evenodd" d="M7.83 10.233a1.261 1.261 0 010-2.522h.072a1.261 1.261 0 110 2.522h-.071zm7.172 0a1.261 1.261 0 110-2.522h.07a1.261 1.261 0 110 2.522h-.07zm7.17 0a1.261 1.261 0 110-2.522h.071a1.261 1.261 0 110 2.522h-.07zm13.6-.292a1.26 1.26 0 010-2.521H50.17a1.261 1.261 0 010 2.521H35.772zM7.83 50.581a1.261 1.261 0 010-2.523h.071a1.26 1.26 0 110 2.522H7.83zm7.17 0a1.261 1.261 0 110-2.523h.072a1.26 1.26 0 110 2.522h-.071zm7.171 0a1.261 1.261 0 110-2.523h.071a1.26 1.26 0 110 2.522h-.07zm13.6-.292a1.26 1.26 0 010-2.522H50.17a1.26 1.26 0 010 2.522H35.772zM7.83 30.115a1.261 1.261 0 010-2.521h.071a1.262 1.262 0 110 2.521H7.83zm7.17 0a1.261 1.261 0 110-2.521h.072a1.262 1.262 0 110 2.521h-.071zm7.171 0a1.261 1.261 0 110-2.521h.071a1.262 1.262 0 110 2.521h-.07zm13.6.292a1.261 1.261 0 010-2.522H50.17a1.261 1.261 0 010 2.521H35.772zm17.7-10.233H4.528a3.075 3.075 0 00-3.062 3.063v11.526a3.075 3.075 0 003.062 3.063h48.944a3.075 3.075 0 003.063-3.063V23.237a3.074 3.074 0 00-3.063-3.063zM4.532 40.348h-.003a3.075 3.075 0 00-3.063 3.063v11.526A3.075 3.075 0 004.528 58h48.944a3.075 3.075 0 003.063-3.063V43.411a3.074 3.074 0 00-3.063-3.063H4.532zm48.94-22.696a3.075 3.075 0 003.063-3.063V3.063A3.075 3.075 0 0053.471 0H4.528a3.075 3.075 0 00-3.062 3.063V14.59a3.075 3.075 0 003.062 3.062h48.944z" fill="url(#paint0_linear_37_2469)"/></g><defs><linearGradient id="paint0_linear_37_2469" x1="-18.052" y1="108.048" x2="63.724" y2="103.708" gradientUnits="userSpaceOnUse"><stop stop-color="#2780E6"/><stop offset="1" stop-color="#781896"/></linearGradient><clipPath id="clip0_37_2469"><path fill="#fff" d="M0 0h58v58H0z"/></clipPath></defs></svg>