<svg width="58" height="58" fill="none" xmlns="http://www.w3.org/2000/svg"><g clip-path="url(#clip0_37_2481)" fill-rule="evenodd" clip-rule="evenodd"><path d="M28.983 58c-.238 0-.476-.17-.612-.374-.51-1.053-1.46-2.718-2.548-4.62-3.84-6.796-7.067-12.64-7.067-15.019 0-5.64 4.587-10.227 10.227-10.227 5.64 0 10.227 4.587 10.227 10.227 0 2.413-3.262 8.359-7.203 15.29-1.02 1.8-1.903 3.33-2.412 4.35a.7.7 0 01-.612.373zm0-16.14c-2.752 0-5.029-2.276-5.029-5.028 0-2.786 2.277-5.029 5.029-5.029a5.017 5.017 0 015.029 5.029c0 2.752-2.243 5.029-5.03 5.029z" fill="url(#paint0_linear_37_2481)"/><path d="M42.438 45.666h-6.626a.682.682 0 01-.68-.68c0-.373.307-.679.68-.679h6.626c4.417 0 8.019-3.602 8.019-8.019V11.654H31.769V6.15a.682.682 0 00-.68-.68h-3.227V0h14.576c5.165 0 9.378 4.213 9.378 9.378v26.91c0 5.165-4.213 9.378-9.378 9.378zm.816-36.73a3.118 3.118 0 01-3.126-3.126 3.118 3.118 0 013.126-3.126A3.118 3.118 0 0146.38 5.81a3.118 3.118 0 01-3.126 3.126zm0-4.893c-.952 0-1.767.782-1.767 1.767 0 .986.815 1.767 1.767 1.767.985 0 1.766-.781 1.766-1.767 0-.985-.781-1.767-1.766-1.767zM30.41 11.654H7.509v24.634c0 4.417 3.602 8.019 8.019 8.019h6.66c.373 0 .679.306.679.68 0 .373-.306.68-.68.68h-6.66c-5.164 0-9.377-4.214-9.377-9.379V9.378C6.184 4.213 10.363 0 15.528 0h10.975v6.15c0 .374.305.68.68.68h3.227v4.824z" fill="#6A2BA5"/><path d="M51.136 18.858a.685.685 0 01-.373-.102c-2.209-.476-27.318-.204-43.9.102a.682.682 0 01-.679-.68c-.034-.374.272-.68.646-.68.101 0 11.008-.203 21.847-.305 22.222-.204 22.595.17 22.935.475a.75.75 0 01.204.51c0 .374-.306.68-.68.68z" fill="#5E3BB1"/></g><defs><linearGradient id="paint0_linear_37_2481" x1="11.506" y1="84.094" x2="41.923" y2="82.944" gradientUnits="userSpaceOnUse"><stop stop-color="#2780E6"/><stop offset="1" stop-color="#781896"/></linearGradient><clipPath id="clip0_37_2481"><path fill="#fff" d="M0 0h58v58H0z"/></clipPath></defs></svg>