<svg width="57" height="57" fill="none" xmlns="http://www.w3.org/2000/svg"><g clip-path="url(#clip0_37_2486)"><path d="M26.83 17.93V8.832c-6.904.827-12.274 6.72-12.274 13.844v1.392h8.448a5.57 5.57 0 013.827-6.138z" fill="url(#paint0_linear_37_2486)"/><path d="M28.5 21.013c-1.224 0-2.22.995-2.22 2.22 0 1.223.996 2.219 2.22 2.219 1.224 0 2.22-.996 2.22-2.22 0-1.224-.996-2.22-2.22-2.22z" fill="#4F4EBF"/><path d="M11.216 22.676c0-9.53 7.754-17.285 17.284-17.285s17.284 7.754 17.284 17.285v1.392h5.114v-1.67C50.898 10.048 40.85 0 28.5 0S6.102 10.048 6.102 22.398v1.67h5.114v-1.392z" fill="url(#paint1_linear_37_2486)"/><path d="M30.17 8.832v9.098a5.57 5.57 0 013.826 6.138h8.448v-1.392c0-7.124-5.37-13.017-12.274-13.844z" fill="url(#paint2_linear_37_2486)"/><path d="M11.492 42.614L0 49.924 11.492 57v-3.41h30.606v-7.5H11.493v-3.476z" fill="url(#paint3_linear_37_2486)"/><path d="M57 38.728l-11.492-7.075v3.409H14.901v7.5h30.605v3.476L57 38.728z" fill="url(#paint4_linear_37_2486)"/></g><defs><linearGradient id="paint0_linear_37_2486" x1="10.205" y1="37.215" x2="28.447" y2="36.394" gradientUnits="userSpaceOnUse"><stop stop-color="#2780E6"/><stop offset="1" stop-color="#781896"/></linearGradient><linearGradient id="paint1_linear_37_2486" x1="-9.774" y1="44.836" x2="56.219" y2="37.97" gradientUnits="userSpaceOnUse"><stop stop-color="#2780E6"/><stop offset="1" stop-color="#781896"/></linearGradient><linearGradient id="paint2_linear_37_2486" x1="25.82" y1="37.215" x2="44.061" y2="36.394" gradientUnits="userSpaceOnUse"><stop stop-color="#2780E6"/><stop offset="1" stop-color="#781896"/></linearGradient><linearGradient id="paint3_linear_37_2486" x1="-14.921" y1="69.413" x2="46.137" y2="59.426" gradientUnits="userSpaceOnUse"><stop stop-color="#2780E6"/><stop offset="1" stop-color="#781896"/></linearGradient><linearGradient id="paint4_linear_37_2486" x1="-.019" y1="58.452" x2="61.038" y2="48.464" gradientUnits="userSpaceOnUse"><stop stop-color="#2780E6"/><stop offset="1" stop-color="#781896"/></linearGradient><clipPath id="clip0_37_2486"><path fill="#fff" d="M0 0h57v57H0z"/></clipPath></defs></svg>