<svg width="120" height="30" fill="none" xmlns="http://www.w3.org/2000/svg"><g clip-path="url(#clip0_216_688)"><path d="M31.53 10.628h12.235v2.363h-4.706v12.756h-2.824V12.991H31.53v-2.363zm11.529 4.016h2.353v2.126c0-.236.235-.472.47-.944.236-.473.47-.473.706-.71.235-.235.706-.472.941-.472.236-.236.706-.236 1.177-.236h.706v2.362h-.941c-.471 0-.706 0-1.177.237-.47.236-.706.472-.941.708-.236.237-.47.71-.706 1.182-.235.472-.235.945-.235 1.653v5.197h-2.353V14.644zM60.47 25.747h-2.353V24.33c-.236.473-.706.945-1.412 1.417-.47.237-1.177.473-1.883.473-1.411 0-2.352-.236-3.058-1.181-.706-.945-.942-1.89-.942-3.308v-6.85h2.353v6.614c0 .945.236 1.654.471 2.126.47.473.941.709 1.647.709.47 0 .941 0 1.177-.236.235-.236.705-.473.705-.709.236-.236.471-.472.471-.945 0-.472.235-.709.235-1.181v-6.378h2.353v10.866h.236zm4-3.543c0 .709.235 1.181.705 1.417.471.237.942.473 1.647.473h.706c.236 0 .47 0 .706-.236.236 0 .47-.237.706-.473.235-.236.235-.472.235-.709 0-.236-.235-.472-.235-.708-.235-.237-.47-.237-.706-.473-.235 0-.706-.236-1.176-.236s-.941-.236-1.177-.236c-.47 0-.94-.236-1.176-.473-.236-.236-.706-.236-1.177-.472-.235-.236-.706-.473-.706-.945-.235-.473-.235-.945-.235-1.418 0-.708.235-1.18.47-1.417.236-.236.707-.709 1.177-.945.47-.236.941-.472 1.412-.472.47 0 1.176-.237 1.647-.237.47 0 1.177 0 1.647.237.47 0 .941.236 1.412.472.47.236.706.709.941.945.235.473.47.945.47 1.654h-2.588c0-.473-.47-.945-.706-1.182-.705-.236-1.176-.472-1.647-.472h-.705c-.236 0-.471 0-.706.236-.236 0-.47.236-.47.236-.236.237-.236.237-.236.473s0 .472.235.709c.235.236.47.236.706.472.235 0 .706.236 1.176.236.471 0 .942.237 1.412.237s.941.236 1.177.472c.47.236.706.236 1.176.473.47.236.706.472.706.945.235.472.235.708.235 1.417 0 .709-.235 1.181-.47 1.654-.236.472-.706.708-1.177 1.18-.235.473-.706.71-1.176.71s-1.177.236-1.647.236c-.706 0-1.412 0-1.883-.237-.47-.236-1.176-.472-1.411-.708-.471-.237-.706-.709-.942-1.181-.47-.473-.705-.945-.705-1.654h2.352zm8-7.56h1.882v-3.07h2.353v3.307h2.117v1.89h-2.117v6.615c0 .235 0 .235.235.472l.235.236h1.648v1.653h-1.411c-.706 0-1.177 0-1.412-.236-.47 0-.706-.236-.941-.472-.236-.237-.47-.473-.47-.945 0-.236-.236-.709-.236-1.181v-6.379H72.47v-1.89zm8 0h2.352v1.654c.236-.709.706-1.181 1.412-1.417.706-.237 1.177-.473 1.883-.473.94 0 1.647.236 2.353.473.705.236 1.176.708 1.647 1.18.47.473.706 1.182.94 1.89.236.71.236 1.418.236 2.363 0 .709 0 1.417-.235 2.126-.236.709-.47 1.181-.941 1.89-.471.473-.942.945-1.412 1.181-.706.236-1.177.473-2.118.473h-.941c-.235 0-.706-.237-.941-.237-.236-.236-.706-.236-.941-.472l-.706-.709V30h-2.353V14.644h-.236zm8.47 5.67c0-.473 0-.945-.235-1.417-.236-.473-.236-.945-.47-1.182-.236-.236-.471-.708-.942-.945-.47-.236-.706-.236-1.412-.236-.94 0-1.882.236-2.353.945-.47.709-.706 1.654-.706 2.835 0 .473 0 1.181.236 1.417.235.473.235.945.706 1.182.235.236.47.708.94.708.471.237.707.237 1.177.237.47 0 .941 0 1.412-.237.47-.236.706-.472.941-.945.236-.472.47-.708.47-1.18 0-.237.236-.71.236-1.182zm4.235-9.686h2.353v2.363h-2.353v-2.363zm0 4.016h2.353v11.103h-2.353V14.644zm4.471-4.016H100v15.12h-2.353v-15.12zm9.647 15.356c-.941 0-1.647-.237-2.353-.473-.706-.236-1.176-.709-1.647-1.181a5.137 5.137 0 01-1.176-1.89c-.236-.709-.471-1.417-.471-2.362 0-.945.235-1.654.471-2.363a5.136 5.136 0 011.176-1.89c.471-.472.941-.944 1.647-1.18.706-.237 1.412-.473 2.353-.473.941 0 1.647.236 2.353.472.706.237 1.176.71 1.647 1.182a5.15 5.15 0 011.177 1.89c.235.708.47 1.417.47 2.362 0 .945-.235 1.653-.47 2.362a5.152 5.152 0 01-1.177 1.89c-.471.473-.941.945-1.647 1.181-.706.236-1.412.473-2.353.473zm0-1.89c.471 0 .941 0 1.412-.236.47-.237.706-.473.941-.945.235-.473.471-.71.471-1.182s.235-.945.235-1.417c0-.473 0-.945-.235-1.417a1.81 1.81 0 00-.471-1.182c-.235-.236-.471-.708-.941-.945-.471-.236-.941-.236-1.412-.236s-.941 0-1.412.236c-.47.237-.706.473-.941.945-.235.473-.47.71-.47 1.182s-.236.945-.236 1.417c0 .473 0 .945.236 1.417 0 .473.235.945.47 1.182.235.472.471.708.941.945.471 0 .941.236 1.412.236zm6.353-9.45h1.882v-3.07h2.353v3.307H120v1.89h-2.118v6.615c0 .235 0 .235.236.472l.235.236H120v1.653h-1.412c-.706 0-1.176 0-1.412-.236-.47 0-.705-.236-.941-.472-.235-.237-.47-.473-.47-.945 0-.236-.236-.709-.236-1.181v-6.379h-1.882v-1.89z" fill="#2E2E2E"/><path d="M28.706 10.63H17.647L14.353 0l-3.53 10.63H0l8.706 6.379-3.294 10.63 8.941-6.614 8.706 6.614-3.294-10.63 8.94-6.379z" fill="#00B67A"/><path d="M20.47 19.371l-.705-2.362-5.412 4.016 6.118-1.654z" fill="#005128"/></g><defs><clipPath id="clip0_216_688"><path fill="#fff" d="M0 0h120v30H0z"/></clipPath></defs></svg>