<svg width="63" height="63" viewBox="0 0 63 63" fill="none" xmlns="http://www.w3.org/2000/svg">
<path d="M13.6356 37.2143L16.5812 37.7413C16.8836 38.7704 17.287 39.7681 17.7867 40.7205L16.1238 43.1205C15.8336 43.5396 15.8429 44.0968 16.1471 44.506C17.3746 46.159 18.8518 47.5995 20.5379 48.7876C20.9523 49.0796 21.5071 49.0761 21.9192 48.7795L24.1242 47.1851C25.0424 47.6936 26.0082 48.1028 27.01 48.4081L27.4627 51.035C27.5492 51.5365 27.945 51.9271 28.4477 52.0072C29.4617 52.1679 30.5012 52.2492 31.5372 52.2492C32.5529 52.2492 33.571 52.1674 34.5629 52.006C35.0632 51.9248 35.4573 51.5347 35.5432 51.035L35.9959 48.4086C36.996 48.1051 37.9629 47.6953 38.8852 47.184L41.1134 48.7818C41.5226 49.0749 42.0728 49.079 42.4866 48.7905C44.1646 47.6199 45.6394 46.1857 46.8705 44.5286C47.174 44.12 47.1839 43.5634 46.8943 43.1443L45.2198 40.7205C45.7189 39.7687 46.1223 38.7715 46.4247 37.7413L49.3709 37.2143C49.8689 37.1249 50.256 36.7302 50.3355 36.2305C50.4986 35.202 50.5775 34.2136 50.5775 33.2089C50.5775 32.1728 50.4963 31.1333 50.3355 30.1193C50.256 29.6173 49.8648 29.2209 49.3639 29.1344L46.4323 28.6277C46.1426 27.6189 45.7369 26.6177 45.2192 25.6374L46.8722 23.2386C47.1589 22.823 47.1514 22.2716 46.8536 21.8636C45.6592 20.2263 44.1838 18.7828 42.4686 17.5738C42.0536 17.2818 41.4988 17.2853 41.0873 17.5819L38.8788 19.1786C37.9542 18.6719 36.9902 18.2656 35.9971 17.9644L35.5438 15.316C35.4579 14.8157 35.0638 14.4251 34.5629 14.3438C32.5059 14.0089 30.3114 14.024 28.4204 14.3699C27.93 14.4599 27.5475 14.8464 27.4627 15.3375L27.01 17.965C26.0129 18.2685 25.0476 18.6754 24.1254 19.1804L21.9268 17.6022C21.5141 17.3068 20.9592 17.3045 20.5454 17.5987C18.8541 18.7996 17.3787 20.239 16.1592 21.8769C15.8545 22.2867 15.8452 22.8456 16.1366 23.2647L17.7861 25.6397C17.269 26.6195 16.8633 27.6201 16.5737 28.6288L13.6641 29.1344C13.1736 29.2197 12.7882 29.6022 12.6983 30.0921C12.5195 31.0706 12.429 32.1194 12.429 33.2089C12.429 34.2136 12.5079 35.202 12.671 36.2305C12.7505 36.7302 13.1376 37.1249 13.6356 37.2143ZM14.9149 31.3301L17.7374 30.8396C18.2098 30.7572 18.5871 30.3991 18.6927 29.9313C18.9795 28.666 19.4902 27.4007 20.2105 26.1708C20.4444 25.7715 20.4253 25.2723 20.1612 24.8922L18.5894 22.6292C19.3747 21.6779 20.2645 20.8113 21.2471 20.0411L23.3645 21.5606C23.7533 21.8392 24.2728 21.8584 24.6814 21.6065C25.8248 20.9013 27.0559 20.3818 28.3397 20.0637C28.7977 19.95 29.1448 19.5768 29.2249 19.1119L29.6596 16.5865C30.8227 16.4472 32.1072 16.4408 33.3475 16.5766L33.7811 19.1107C33.8612 19.5768 34.2094 19.9511 34.6691 20.0643C35.9448 20.3783 37.1753 20.8972 38.3251 21.6065C38.7343 21.8589 39.2549 21.8404 39.6455 21.5583L41.7751 20.0185C42.7652 20.7904 43.6515 21.6564 44.4229 22.603L42.843 24.8956C42.5812 25.2752 42.5627 25.7726 42.796 26.1708C43.5163 27.4013 44.027 28.666 44.3126 29.9307C44.4188 30.3991 44.7967 30.7578 45.2697 30.8396L48.0986 31.3283C48.1659 31.9505 48.2002 32.5803 48.2002 33.2089C48.2002 33.8154 48.1671 34.4155 48.0992 35.0267L45.2627 35.534C44.799 35.617 44.4281 35.9664 44.3172 36.4243C43.9969 37.7471 43.4849 39.0141 42.796 40.1906C42.5609 40.5917 42.5812 41.092 42.8477 41.4727L44.4415 43.7764C43.6544 44.7329 42.7693 45.5931 41.7977 46.347L39.642 44.8008C39.2491 44.5199 38.7262 44.5042 38.3181 44.759C37.1799 45.4718 35.9518 45.993 34.6691 46.3087C34.21 46.4219 33.8617 46.7957 33.7817 47.2612L33.3487 49.7732C32.1269 49.9061 30.879 49.902 29.6573 49.7703L29.2249 47.2612C29.1448 46.7963 28.7977 46.4231 28.3397 46.3093C27.0489 45.9895 25.8202 45.4677 24.6884 44.759C24.2786 44.5025 23.7527 44.5187 23.361 44.8031L21.2314 46.343C20.2535 45.5786 19.3643 44.712 18.5767 43.7549L20.1589 41.4727C20.4253 41.092 20.4456 40.5917 20.2105 40.1906C19.521 39.013 19.0091 37.7459 18.6887 36.4243C18.5778 35.9664 18.2069 35.617 17.7432 35.534L14.9073 35.0267C14.8394 34.4155 14.8063 33.8154 14.8063 33.2089C14.8063 32.5605 14.8429 31.9314 14.9149 31.3301Z" fill="black"/>
<path d="M31.503 42.9024C36.8665 42.9024 41.2306 38.5389 41.2306 33.1753C41.2306 27.8117 36.8665 23.4476 31.503 23.4476C26.1394 23.4476 21.7759 27.8117 21.7759 33.1753C21.7759 38.5389 26.1394 42.9024 31.503 42.9024ZM31.503 25.825C35.556 25.825 38.8533 29.1223 38.8533 33.1753C38.8533 37.2277 35.556 40.525 31.503 40.525C27.4505 40.525 24.1532 37.2277 24.1532 33.1753C24.1532 29.1223 27.4505 25.825 31.503 25.825Z" fill="black"/>
<path d="M27.0517 59.6118C37.9901 61.5483 48.8042 56.5316 54.5574 47.5399L54.9834 49.5324C55.1222 50.1809 55.7611 50.5829 56.3943 50.4465C57.0363 50.309 57.4455 49.6775 57.3085 49.0356L56.2266 43.9773C56.089 43.3354 55.4547 42.925 54.8156 43.0631L49.7695 44.1421C49.1276 44.2797 48.7184 44.9112 48.8554 45.5531C48.993 46.1956 49.6297 46.6083 50.2664 46.4672L52.7618 45.9336C47.5154 54.4279 37.4646 59.039 27.4673 57.271C23.4114 56.5507 19.5784 54.8193 16.3838 52.2638C15.8719 51.854 15.1226 51.9359 14.7134 52.4495C14.303 52.962 14.386 53.7102 14.8991 54.1199C18.403 56.9233 22.6052 58.8224 27.0517 59.6118Z" fill="#2D6AFF"/>
<path d="M34.2738 3.3863C33.8437 2.89005 33.0938 2.83491 32.5975 3.26557L29.0832 6.30808C28.5863 6.73758 28.5323 7.48805 28.9624 7.98431L31.9974 11.4906C32.4278 11.9879 33.179 12.0407 33.6736 11.6113C34.1704 11.1818 34.2244 10.4313 33.7943 9.93506L32.4111 8.33654C33.6385 8.36948 34.8666 8.48295 36.0841 8.69937C49.1508 11.0169 58.1576 23.5712 56.1616 36.6844C56.053 37.3984 56.6033 38.0519 57.3387 38.0519C57.9156 38.0519 58.4223 37.6305 58.5123 37.0419C60.8696 21.5531 49.2323 6.78131 33.0992 5.97507L34.153 5.06252C34.6499 4.63302 34.7038 3.88255 34.2738 3.3863Z" fill="#2D6AFF"/>
<path d="M5.08615 47.447C5.20758 47.4771 10.241 48.7271 10.1195 48.6969C10.7995 48.8701 11.3986 48.419 11.5496 47.8466C11.6304 47.5402 11.2958 48.881 12.8039 42.8112C12.9617 42.1739 12.574 41.5291 11.9367 41.3707C11.3006 41.2105 10.6546 41.5999 10.4962 42.2378L9.94868 44.442C7.40699 39.6188 6.52426 34.1211 7.49021 28.6765C9.00044 20.1636 14.7169 13.1889 22.7811 10.0181C23.3923 9.77779 23.6929 9.08768 23.4526 8.47709C23.2135 7.86592 22.5234 7.56527 21.9116 7.80555C13.0714 11.281 6.80533 18.9279 5.14884 28.2609C4.08016 34.2883 5.07121 40.3764 7.92044 45.7012L5.6596 45.1393C5.02057 44.9825 4.37747 45.3679 4.21902 46.0064C4.06115 46.6437 4.44944 47.2885 5.08615 47.447Z" fill="#2D6AFF"/>
</svg>
