<svg width="64" height="64" viewBox="0 0 64 64" fill="none" xmlns="http://www.w3.org/2000/svg">
<g clip-path="url(#clip0_32_303)">
<path d="M54.5368 29.4926C53.7804 29.4926 53.1671 30.1059 53.1671 30.8623V33.0497C53.1671 33.6677 52.6645 34.1704 52.0465 34.1704H34.49C34.1004 34.1704 33.7244 34.2284 33.3696 34.3362V22.7689C33.3696 22.0125 32.7563 21.3993 31.9999 21.3993C31.2435 21.3993 30.6303 22.0125 30.6303 22.7689V34.3368C30.2754 34.229 29.8992 34.1704 29.5096 34.1704H11.9532C11.3352 34.1704 10.8326 33.6677 10.8326 33.0497V30.8623C10.8326 30.1059 10.2193 29.4926 9.46291 29.4926C8.70649 29.4926 8.09326 30.1059 8.09326 30.8623V33.0497C8.09326 35.1782 9.82474 36.9096 11.9532 36.9096H29.5096C30.1276 36.9096 30.6303 37.4123 30.6303 38.0303V40.2178C30.6303 40.9742 31.2435 41.5875 31.9999 41.5875C32.7563 41.5875 33.3696 40.9742 33.3696 40.2178V38.0303C33.3696 37.4123 33.8722 36.9096 34.49 36.9096H52.0465C54.1749 36.9096 55.9064 35.1782 55.9064 33.0497V30.8623C55.9064 30.1059 55.2932 29.4926 54.5368 29.4926Z" fill="black"/>
<path d="M32.0001 24.1386C31.6043 24.1386 31.2279 23.9674 30.9678 23.6691C30.7429 23.4113 30.5021 23.1379 30.249 22.8509C27.178 19.3661 22.5371 14.1001 22.5371 9.463C22.5371 4.24515 26.7823 0 32.0001 0C37.218 0 41.4631 4.24515 41.4631 9.463C41.4631 14.1001 36.8221 19.3661 33.7513 22.8508C33.4982 23.1379 33.2573 23.4112 33.0324 23.6689C32.7723 23.9674 32.3959 24.1386 32.0001 24.1386ZM32.0001 2.73929C28.2927 2.73929 25.2764 5.75562 25.2764 9.463C25.2764 12.9297 29.3507 17.6834 32.0001 20.6945C34.6495 17.6834 38.7238 12.9297 38.7238 9.463C38.7238 5.75562 35.7075 2.73929 32.0001 2.73929Z" fill="#2D6AFF"/>
<path d="M32.0001 13.7231C29.6511 13.7231 27.74 11.8119 27.74 9.46298C27.74 7.11391 29.6511 5.20276 32.0001 5.20276C34.3491 5.20276 36.2603 7.11391 36.2603 9.46298C36.2603 11.8119 34.3491 13.7231 32.0001 13.7231ZM32.0001 7.94205C31.1616 7.94205 30.4793 8.62438 30.4793 9.46298C30.4793 10.3014 31.1616 10.9838 32.0001 10.9838C32.8387 10.9838 33.521 10.3016 33.521 9.46298C33.521 8.62438 32.8387 7.94205 32.0001 7.94205Z" fill="black"/>
<path d="M9.463 32.232C9.06717 32.232 8.69064 32.0608 8.43054 31.7625C8.20566 31.5045 7.96461 31.2309 7.71147 30.9437C4.64073 27.459 0 22.1933 0 17.5564C0 12.3385 4.24515 8.09338 9.463 8.09338C14.6808 8.09338 18.926 12.3385 18.926 17.5564C18.926 22.1935 14.2851 27.4595 11.214 30.9442C10.961 31.2313 10.7201 31.5046 10.4953 31.7623C10.2352 32.0608 9.85883 32.232 9.463 32.232ZM9.463 10.8327C5.75562 10.8327 2.73929 13.849 2.73929 17.5564C2.73929 21.0231 6.81386 25.7767 9.463 28.7878C12.1124 25.7767 16.1867 21.0231 16.1867 17.5564C16.1867 13.849 13.1704 10.8327 9.463 10.8327Z" fill="#2D6AFF"/>
<path d="M9.46297 21.8165C7.11403 21.8165 5.20288 19.9053 5.20288 17.5562C5.20288 15.2073 7.11403 13.2961 9.46297 13.2961C11.812 13.2961 13.7232 15.2073 13.7232 17.5562C13.7232 19.9053 11.812 21.8165 9.46297 21.8165ZM9.46297 16.0354C8.6245 16.0354 7.94217 16.7176 7.94217 17.5562C7.94217 18.3948 8.62438 19.0772 9.46297 19.0772C10.3016 19.0772 10.9839 18.395 10.9839 17.5562C10.9839 16.7178 10.3016 16.0354 9.46297 16.0354Z" fill="black"/>
<path d="M54.537 32.232C54.1411 32.232 53.7647 32.0608 53.5045 31.7625C53.2798 31.5046 53.0388 31.2312 52.7858 30.944C49.7148 27.4595 45.074 22.1936 45.074 17.5564C45.074 12.3385 49.3191 8.09338 54.5371 8.09338C59.7549 8.09338 64.0001 12.3385 64.0001 17.5564C64.0001 22.1933 59.3594 27.459 56.2886 30.9437C56.0355 31.231 55.7943 31.5045 55.5696 31.7625C55.3093 32.0608 54.9328 32.232 54.537 32.232ZM54.537 10.8327C50.8295 10.8327 47.8131 13.849 47.8131 17.5564C47.8131 21.0232 51.8876 25.7767 54.537 28.7878C57.1861 25.7767 61.2607 21.0231 61.2607 17.5564C61.2607 13.849 58.2444 10.8327 54.537 10.8327Z" fill="#2D6AFF"/>
<path d="M54.5371 21.8165C52.188 21.8165 50.2769 19.9053 50.2769 17.5562C50.2769 15.2073 52.188 13.2961 54.5371 13.2961C56.886 13.2961 58.7972 15.2073 58.7972 17.5562C58.7972 19.9053 56.886 21.8165 54.5371 21.8165ZM54.5371 16.0354C53.6985 16.0354 53.0161 16.7176 53.0161 17.5562C53.0161 18.3948 53.6984 19.0772 54.5371 19.0772C55.3755 19.0772 56.0579 18.395 56.0579 17.5562C56.0579 16.7178 55.3755 16.0354 54.5371 16.0354Z" fill="black"/>
<path d="M42.3769 64C42.2453 64 42.1124 63.9811 41.9823 63.9419L32.0001 60.9379L22.0179 63.9419C21.5013 64.0972 20.9421 63.9352 20.5887 63.5281C20.2352 63.1209 20.1537 62.5442 20.3802 62.0549L30.7571 39.6425C30.9813 39.1583 31.4663 38.8484 32 38.8484C32.5336 38.8484 33.0187 39.1583 33.2429 39.6425L43.6198 62.0549C43.8463 62.5442 43.7647 63.1209 43.4112 63.5281C43.147 63.8327 42.7675 64 42.3769 64ZM32.0001 58.138C32.1331 58.138 32.2661 58.1573 32.3948 58.1961L39.8539 60.4407L32.0001 43.4779L24.1463 60.4407L31.6054 58.1961C31.7341 58.1573 31.8671 58.138 32.0001 58.138Z" fill="#2D6AFF"/>
</g>
<defs>
<clipPath id="clip0_32_303">
<rect width="64" height="64" fill="white"/>
</clipPath>
</defs>
</svg>
