<svg width="50" height="50" viewBox="0 0 50 50" fill="none" xmlns="http://www.w3.org/2000/svg">
<g clip-path="url(#clip0_32_359)">
<path d="M35.3912 26.8383C35.1163 26.8383 34.8413 26.7334 34.6316 26.5236L31.5646 23.4563C31.3633 23.2549 31.25 22.9816 31.25 22.6968V19.4525C31.25 18.8593 31.731 18.3783 32.3242 18.3783C32.9175 18.3783 33.3984 18.8593 33.3984 19.4525V22.2518L36.1509 25.0045C36.8282 25.6777 36.334 26.8441 35.3912 26.8383Z" fill="black"/>
<path d="M5.48745 38.9526C4.13364 38.9526 3.44136 38.764 3.28979 38.7169L3.927 36.6652L3.91235 36.6608C3.94224 36.6692 6.98403 37.4681 14.2677 35.05C17.1406 34.0964 19.7877 34.0102 22.3611 34.7867C22.9291 34.9581 23.2505 35.5575 23.0792 36.1254C22.9078 36.6934 22.3083 37.0148 21.7405 36.8436C19.6059 36.1994 17.383 36.2797 14.9447 37.0891C10.3759 38.6057 7.32349 38.9525 5.48745 38.9526Z" fill="#2D6AFF"/>
<path d="M36.8624 5.6666V2.14844H38.4506C39.0439 2.14844 39.5248 1.66748 39.5248 1.07422C39.5248 0.480957 39.0439 0 38.4506 0H26.2461C25.6529 0 25.1719 0.480957 25.1719 1.07422C25.1719 1.66748 25.6529 2.14844 26.2461 2.14844H27.8343V5.6666C25.47 6.29102 23.2976 7.39307 21.4282 8.86397H1.11401C0.520752 8.86397 0.0397949 9.34492 0.0397949 9.93818C0.0397949 10.5314 0.520752 11.0124 1.11401 11.0124H2.53423V21.1729C2.50708 24.4428 4.22124 27.6315 6.93257 29.432C4.22104 31.2327 2.50718 34.421 2.53423 37.691V47.8516H1.11401C-0.303467 47.9054 -0.318408 49.9394 1.11401 50C4.58159 49.9999 24.6409 50.0001 28.1101 50C29.5275 49.9462 29.5426 47.9122 28.1101 47.8516H26.6899V39.5388C28.4673 40.1403 30.3705 40.4668 32.3484 40.4668C53.1407 39.9352 56.6238 11.3393 36.8624 5.6666ZM29.9828 2.14844H34.714V5.24063C33.1721 5.02998 31.5247 5.02998 29.9828 5.24063V2.14844ZM24.5415 47.8516H4.68267V37.691C4.68267 34.4637 6.62251 31.6141 9.62466 30.4314C10.0353 30.2697 10.3052 29.8733 10.3052 29.432C10.3052 28.9907 10.0353 28.5943 9.62466 28.4326C6.62251 27.25 4.68267 24.4004 4.68267 21.173V11.0124H19.1451C11.3156 19.5422 14.2247 33.7474 24.5415 38.6479V47.8516H24.5415ZM32.3485 38.3184C23.7781 38.3184 16.8055 31.3454 16.8055 22.7744C17.6593 2.15332 47.0408 2.15918 47.8915 22.7745C47.8914 31.3454 40.9188 38.3184 32.3485 38.3184Z" fill="black"/>
<path d="M33.3405 11.7081C33.0704 11.0122 32.1043 10.8206 31.5885 11.3594C30.9163 12.03 31.3989 13.1949 32.3483 13.1934C33.0935 13.2096 33.6418 12.3907 33.3405 11.7081Z" fill="#2D6AFF"/>
<path d="M33.3407 33.0186C33.0646 32.3205 32.1114 32.1323 31.5887 32.67C30.9167 33.3401 31.3989 34.5066 32.3485 34.504C33.0942 34.521 33.6417 33.7012 33.3407 33.0186Z" fill="#2D6AFF"/>
<path d="M22.6853 22.3633C22.4131 21.664 21.4536 21.4792 20.9343 22.0146C20.2606 22.6841 20.744 23.8507 21.6931 23.8486C22.4425 23.8618 22.9857 23.0506 22.6853 22.3633Z" fill="#2D6AFF"/>
<path d="M44.0562 22.5644C43.923 21.8265 43.0232 21.4551 42.4068 21.8809C41.6157 22.4047 41.8612 23.646 42.7935 23.827C43.5259 23.9893 44.2162 23.296 44.0562 22.5644Z" fill="#2D6AFF"/>
<path d="M23.9597 15.6504C24.2342 16.3495 25.1904 16.5387 25.7116 15.999C26.3161 15.4079 25.9932 14.342 25.1618 14.1865C24.3329 14.0131 23.6262 14.8724 23.9597 15.6504Z" fill="#2D6AFF"/>
<path d="M41.0124 29.8985C40.7452 29.201 39.7771 29.0116 39.2615 29.5489C38.5892 30.2185 39.0715 31.3864 40.0212 31.3828C40.7688 31.3964 41.3148 30.5845 41.0124 29.8985Z" fill="#2D6AFF"/>
<path d="M25.9441 29.8975C25.6719 29.1997 24.7124 29.0099 24.1931 29.5488C23.5199 30.218 24.0029 31.3841 24.9519 31.3828C25.697 31.3993 26.2478 30.5795 25.9441 29.8975Z" fill="#2D6AFF"/>
<path d="M39.029 15.6513C39.296 16.3475 40.2657 16.5384 40.7799 16C41.3848 15.4085 41.0624 14.3422 40.2301 14.1875C39.4036 14.0106 38.6933 14.8752 39.029 15.6513Z" fill="#2D6AFF"/>
</g>
<defs>
<clipPath id="clip0_32_359">
<rect width="50" height="50" fill="white"/>
</clipPath>
</defs>
</svg>
