<svg width="70" height="70" viewBox="0 0 70 70" fill="none" xmlns="http://www.w3.org/2000/svg">
<path d="M60.1562 44.7891C59.7953 44.7891 59.4453 44.6141 59.2375 44.2859C58.9094 43.7828 59.0625 43.1047 59.5656 42.7766C63.3609 40.3484 65.625 36.2141 65.625 31.7188C65.625 24.4781 59.7406 18.5938 52.5 18.5938C51.5047 18.5938 50.4984 18.7141 49.4375 18.9656C49.1203 19.0422 48.7922 18.9656 48.5297 18.7797C48.2672 18.5828 48.1141 18.2875 48.0922 17.9594C47.7531 10.9594 42.0109 5.46875 35 5.46875C27.9891 5.46875 22.2469 10.9594 21.9078 17.9594C21.8969 18.2875 21.7328 18.5828 21.4703 18.7797C21.2078 18.9766 20.8797 19.0422 20.5625 18.9656C19.5016 18.7141 18.4953 18.5938 17.5 18.5938C10.2594 18.5938 4.375 24.4781 4.375 31.7188C4.375 36.2141 6.63906 40.3484 10.4344 42.7766C10.9375 43.1047 11.0906 43.7828 10.7625 44.2859C10.4344 44.7891 9.75625 44.9422 9.25313 44.6141C4.82344 41.7812 2.1875 36.9578 2.1875 31.7188C2.1875 23.275 9.05625 16.4062 17.5 16.4062C18.2766 16.4062 19.0422 16.4719 19.8297 16.5922C20.8141 9.03438 27.2453 3.28125 35 3.28125C42.7547 3.28125 49.1859 9.03438 50.1703 16.5922C50.9578 16.4609 51.7344 16.4062 52.5 16.4062C60.9437 16.4062 67.8125 23.275 67.8125 31.7188C67.8125 36.9578 65.1656 41.7812 60.7469 44.6141C60.5609 44.7344 60.3641 44.7891 60.1562 44.7891Z" fill="#2D6AFF"/>
<path d="M51.4062 31.7188H18.5938C15.575 31.7188 13.125 34.1688 13.125 37.1875V61.25C13.125 64.2687 15.575 66.7188 18.5938 66.7188H51.4062C54.425 66.7188 56.875 64.2687 56.875 61.25V37.1875C56.875 34.1688 54.425 31.7188 51.4062 31.7188ZM54.6875 61.25C54.6875 63.0547 53.2109 64.5312 51.4062 64.5312H18.5938C16.7891 64.5312 15.3125 63.0547 15.3125 61.25V37.1875C15.3125 35.3828 16.7891 33.9062 18.5938 33.9062H51.4062C53.2109 33.9062 54.6875 35.3828 54.6875 37.1875V61.25Z" fill="#0A0F26"/>
<path d="M39.375 41.5625H33.9062C33.3047 41.5625 32.8125 42.0547 32.8125 42.6562V55.7812C32.8125 56.3828 33.3047 56.875 33.9062 56.875C34.5078 56.875 35 56.3828 35 55.7812V50.3125H39.375C41.7922 50.3125 43.75 48.3547 43.75 45.9375C43.75 43.5203 41.7922 41.5625 39.375 41.5625ZM39.375 48.125H35V43.75H39.375C40.5781 43.75 41.5625 44.7344 41.5625 45.9375C41.5625 47.1406 40.5781 48.125 39.375 48.125Z" fill="#0A0F26"/>
<path d="M47.0312 41.5625C46.4297 41.5625 45.9375 42.0547 45.9375 42.6562V55.7812C45.9375 56.3828 46.4297 56.875 47.0312 56.875C47.6328 56.875 48.125 56.3828 48.125 55.7812V42.6562C48.125 42.0547 47.6328 41.5625 47.0312 41.5625Z" fill="#0A0F26"/>
<path d="M26.1953 42.3063C26.0422 41.8578 25.6266 41.5625 25.1563 41.5625C24.686 41.5625 24.2703 41.8688 24.1172 42.3063L19.7422 55.4313C19.5563 56 19.8625 56.6234 20.4313 56.8094C21.011 57.0062 21.6235 56.6891 21.8094 56.1203L23.3844 51.3953H26.9172L28.4922 56.1203C28.6453 56.5797 29.0719 56.8641 29.5313 56.8641C29.6406 56.8641 29.761 56.8422 29.8813 56.8094C30.45 56.6234 30.7672 56 30.5703 55.4313L26.1953 42.3063ZM24.1281 49.2188L25.1672 46.1125L26.2063 49.2188H24.1391H24.1281Z" fill="#0A0F26"/>
</svg>
