<svg width="63" height="63" viewBox="0 0 63 63" fill="none" xmlns="http://www.w3.org/2000/svg">
<path d="M60.493 11.4081V11.2081H60.293H32.3932V8.90105H61.6465C62.2835 8.90105 62.8 9.41751 62.8 10.0546V40.1442C62.8 40.5672 62.5685 40.9563 62.1966 41.158L62.1966 41.1581C62.0245 41.2515 61.8354 41.2977 61.6466 41.2977C61.427 41.2977 61.2082 41.2352 61.0176 41.1113L51.7368 35.0757L51.6871 35.0434H51.6278H40.5654C39.9283 35.0434 39.4118 34.5269 39.4118 33.8899V26.9197V26.7197H39.2118H2.70703H2.50703V26.9197V53.4392V53.8078L2.81607 53.6068L10.3419 48.7126C10.3419 48.7125 10.342 48.7125 10.342 48.7125C10.5292 48.5909 10.7476 48.5261 10.9709 48.5261H33.8485V50.8331H11.3722H11.3129L11.2632 50.8654L1.98241 56.9011C1.79178 57.0251 1.57285 57.0876 1.35339 57.0876C1.16446 57.0876 0.97536 57.0413 0.803407 56.948L0.708012 57.1238L0.803392 56.948C0.431551 56.7463 0.2 56.3571 0.2 55.9341V25.5662C0.2 24.9292 0.716463 24.4127 1.35352 24.4127H40.5654C41.2024 24.4127 41.7189 24.9292 41.7189 25.5662V32.5363V32.7363H41.9189H52.0291C52.2524 32.7363 52.4709 32.801 52.658 32.9228L52.7671 32.7551L52.658 32.9228L60.1839 37.8171L60.493 38.0181V37.6494V11.4081Z" fill="black" stroke="white" stroke-width="0.4"/>
<path d="M48.5866 60.011C48.3705 60.011 48.1536 59.9593 47.9551 59.8546L40.5468 55.9462L33.1274 59.833C32.6712 60.0722 32.1186 60.0315 31.7021 59.7279C31.2857 59.4245 31.0778 58.911 31.1656 58.4033L32.5935 50.1499L26.604 44.2946C26.2356 43.9345 26.1036 43.3964 26.2636 42.9066C26.4234 42.4169 26.8476 42.0605 27.3576 41.987L35.6482 40.7947L39.366 33.2889C39.5945 32.8279 40.0645 32.5361 40.5788 32.5361H40.5808C41.0961 32.5369 41.5662 32.8301 41.7934 33.2924L45.4895 40.8088L53.7767 42.0253C54.2865 42.1001 54.7095 42.4578 54.868 42.948C55.0265 43.4382 54.8929 43.9759 54.5235 44.335L48.517 50.1728L49.9209 58.4304C50.0072 58.9383 49.7978 59.4512 49.3805 59.7535C49.1452 59.9243 48.8667 60.011 48.5866 60.011ZM40.5492 53.0634C40.7662 53.0634 40.9832 53.1156 41.1808 53.2198L46.7927 56.1806L45.7291 49.9252C45.6545 49.4861 45.8007 49.0383 46.1201 48.7278L50.6703 44.3054L44.3924 43.3839C43.9517 43.3192 43.571 43.0419 43.3745 42.6421L40.5745 36.9481L37.7582 42.6339C37.5605 43.0331 37.1789 43.3094 36.7381 43.3729L30.4575 44.2762L34.9947 48.7116C35.3133 49.0231 35.4582 49.4712 35.3822 49.9102L34.3005 56.1624L39.921 53.218C40.1178 53.115 40.3335 53.0634 40.5492 53.0634Z" fill="#2D6AFF"/>
<path d="M20.9263 24.2092C20.614 24.2092 20.3019 24.1016 20.049 23.8863L10.8663 16.0702C8.53131 14.1064 7.71453 11.0795 8.74049 8.17604C9.83057 5.09101 12.6182 3.05606 15.8423 2.99158C17.71 2.94187 19.5016 3.5528 20.9263 4.70083C22.3512 3.55304 24.1451 2.94162 26.019 2.9917C29.2342 3.05606 32.0223 5.09162 33.1123 8.17752C34.1395 11.0852 33.3213 14.1158 30.9775 16.0865C30.9509 16.1091 21.8029 23.8867 21.8029 23.8867C21.5503 24.1017 21.2382 24.2092 20.9263 24.2092ZM16.0479 5.69615C13.9034 5.69615 12.0065 7.05865 11.2929 9.0781C10.6423 10.919 11.1365 12.7604 12.6149 14.0038L20.9268 21.0786L29.1268 14.1071C29.1643 14.0753 29.2015 14.0456 29.2384 14.0181L29.2355 14.0147C30.7165 12.7695 31.2117 10.9245 30.5599 9.07933C29.8492 7.06714 28.0419 5.73996 25.9555 5.69824C24.405 5.6569 22.9499 6.29871 21.9538 7.46015C21.6966 7.76002 21.3213 7.93253 20.9263 7.93253C20.5313 7.93253 20.156 7.76002 19.8989 7.46015C18.9332 6.33415 17.5363 5.69615 16.0479 5.69615Z" fill="#2D6AFF"/>
</svg>
