<svg width="58" height="58" viewBox="0 0 58 58" fill="none" xmlns="http://www.w3.org/2000/svg">
<path d="M48.3333 18.125H9.66667C9.02592 18.1244 8.41161 17.8695 7.95853 17.4165C7.50546 16.9634 7.25064 16.3491 7.25 15.7083V6.04167C7.25064 5.40092 7.50546 4.78661 7.95853 4.33353C8.41161 3.88046 9.02592 3.62564 9.66667 3.625H48.3333C48.9741 3.62564 49.5884 3.88046 50.0415 4.33353C50.4945 4.78661 50.7494 5.40092 50.75 6.04167V15.7083C50.7494 16.3491 50.4945 16.9634 50.0415 17.4165C49.5884 17.8695 48.9741 18.1244 48.3333 18.125ZM9.66667 6.04167V15.7083H48.3351L48.3333 6.04167H9.66667Z" fill="#232323"/>
<path d="M45.9167 25.375H12.0833C11.7629 25.375 11.4555 25.2477 11.2289 25.0211C11.0023 24.7945 10.875 24.4872 10.875 24.1667V16.9167C10.875 16.5962 11.0023 16.2889 11.2289 16.0623C11.4555 15.8357 11.7629 15.7084 12.0833 15.7084H45.9167C46.2371 15.7084 46.5445 15.8357 46.7711 16.0623C46.9977 16.2889 47.125 16.5962 47.125 16.9167V24.1667C47.125 24.4872 46.9977 24.7945 46.7711 25.0211C46.5445 25.2477 46.2371 25.375 45.9167 25.375ZM13.2917 22.9584H44.7083V18.125H13.2917V22.9584Z" fill="#232323"/>
<path d="M48.3333 37.4584H9.66667C9.02592 37.4577 8.41161 37.2029 7.95853 36.7498C7.50546 36.2968 7.25064 35.6825 7.25 35.0417V25.375C7.25064 24.7343 7.50546 24.12 7.95853 23.6669C8.41161 23.2138 9.02592 22.959 9.66667 22.9584H48.3333C48.9741 22.959 49.5884 23.2138 50.0415 23.6669C50.4945 24.12 50.7494 24.7343 50.75 25.375V35.0417C50.7494 35.6825 50.4945 36.2968 50.0415 36.7498C49.5884 37.2029 48.9741 37.4577 48.3333 37.4584ZM9.66667 25.375V35.0417H48.3351L48.3333 25.375H9.66667Z" fill="#232323"/>
<path d="M29.0001 54.375C28.0441 54.375 27.1097 54.0916 26.3148 53.5605C25.52 53.0294 24.9005 52.2745 24.5347 51.3913C24.1688 50.5082 24.0731 49.5363 24.2596 48.5988C24.4461 47.6612 24.9064 46.8 25.5824 46.124C26.2584 45.4481 27.1196 44.9877 28.0571 44.8012C28.9947 44.6148 29.9665 44.7105 30.8497 45.0763C31.7329 45.4421 32.4878 46.0616 33.0189 46.8565C33.5499 47.6513 33.8334 48.5858 33.8334 49.5417C33.832 50.8231 33.3223 52.0517 32.4161 52.9578C31.51 53.8639 30.2815 54.3736 29.0001 54.375ZM29.0001 47.125C28.5221 47.125 28.0549 47.2668 27.6575 47.5323C27.26 47.7979 26.9503 48.1753 26.7674 48.6169C26.5845 49.0585 26.5366 49.5444 26.6299 50.0132C26.7231 50.482 26.9533 50.9126 27.2912 51.2506C27.6292 51.5885 28.0598 51.8187 28.5286 51.9119C28.9974 52.0052 29.4833 51.9573 29.9249 51.7744C30.3665 51.5915 30.7439 51.2818 31.0095 50.8843C31.275 50.4869 31.4168 50.0197 31.4168 49.5417C31.4161 48.901 31.1613 48.2867 30.7082 47.8336C30.2551 47.3805 29.6408 47.1257 29.0001 47.125Z" fill="#232323"/>
<path d="M12.0834 53.7708C11.247 53.7708 10.4293 53.5228 9.73382 53.0581C9.03833 52.5934 8.49627 51.9329 8.17618 51.1601C7.85608 50.3873 7.77233 49.537 7.93551 48.7166C8.0987 47.8962 8.50148 47.1427 9.09294 46.5512C9.6844 45.9597 10.438 45.5569 11.2583 45.3938C12.0787 45.2306 12.9291 45.3143 13.7018 45.6344C14.4746 45.9545 15.1351 46.4966 15.5998 47.1921C16.0645 47.8876 16.3126 48.7052 16.3126 49.5417C16.3112 50.6629 15.8652 51.7378 15.0724 52.5306C14.2796 53.3235 13.2046 53.7695 12.0834 53.7708ZM12.0834 47.7292C11.7249 47.7292 11.3745 47.8355 11.0764 48.0346C10.7784 48.2338 10.5461 48.5169 10.4089 48.8481C10.2717 49.1792 10.2358 49.5437 10.3057 49.8953C10.3757 50.2469 10.5483 50.5698 10.8018 50.8233C11.0553 51.0768 11.3782 51.2494 11.7298 51.3193C12.0814 51.3893 12.4458 51.3534 12.777 51.2162C13.1082 51.079 13.3913 50.8467 13.5905 50.5486C13.7896 50.2506 13.8959 49.9001 13.8959 49.5417C13.8954 49.0611 13.7043 48.6004 13.3645 48.2606C13.0247 47.9208 12.564 47.7297 12.0834 47.7292Z" fill="#232323"/>
<path d="M45.9167 53.7708C45.0802 53.7708 44.2626 53.5228 43.5671 53.0581C42.8716 52.5934 42.3295 51.9329 42.0094 51.1601C41.6893 50.3873 41.6056 49.537 41.7688 48.7166C41.9319 47.8962 42.3347 47.1427 42.9262 46.5512C43.5177 45.9597 44.2712 45.5569 45.0916 45.3938C45.912 45.2306 46.7623 45.3143 47.5351 45.6344C48.3079 45.9545 48.9684 46.4966 49.4331 47.1921C49.8978 47.8876 50.1458 48.7052 50.1458 49.5417C50.1445 50.6629 49.6985 51.7378 48.9056 52.5306C48.1128 53.3235 47.0379 53.7695 45.9167 53.7708ZM45.9167 47.7292C45.5582 47.7292 45.2078 47.8355 44.9097 48.0346C44.6116 48.2338 44.3793 48.5169 44.2421 48.8481C44.105 49.1792 44.0691 49.5437 44.139 49.8953C44.2089 50.2469 44.3816 50.5698 44.635 50.8233C44.8885 51.0768 45.2115 51.2494 45.5631 51.3193C45.9147 51.3893 46.2791 51.3534 46.6103 51.2162C46.9415 51.079 47.2245 50.8467 47.4237 50.5486C47.6229 50.2506 47.7292 49.9001 47.7292 49.5417C47.7286 49.0611 47.5375 48.6004 47.1977 48.2606C46.8579 47.9208 46.3972 47.7297 45.9167 47.7292Z" fill="#232323"/>
<path d="M44.7083 12.0833H35.0416C34.7211 12.0833 34.4138 11.956 34.1872 11.7294C33.9606 11.5028 33.8333 11.1954 33.8333 10.875C33.8333 10.5545 33.9606 10.2471 34.1872 10.0205C34.4138 9.79393 34.7211 9.66663 35.0416 9.66663H44.7083C45.0287 9.66663 45.3361 9.79393 45.5627 10.0205C45.7893 10.2471 45.9166 10.5545 45.9166 10.875C45.9166 11.1954 45.7893 11.5028 45.5627 11.7294C45.3361 11.956 45.0287 12.0833 44.7083 12.0833Z" fill="#2D6AFF"/>
<path d="M14.5 12.6875C15.501 12.6875 16.3125 11.876 16.3125 10.875C16.3125 9.87398 15.501 9.0625 14.5 9.0625C13.499 9.0625 12.6875 9.87398 12.6875 10.875C12.6875 11.876 13.499 12.6875 14.5 12.6875Z" fill="#232323"/>
<path d="M20.5417 12.6875C21.5428 12.6875 22.3542 11.876 22.3542 10.875C22.3542 9.87398 21.5428 9.0625 20.5417 9.0625C19.5407 9.0625 18.7292 9.87398 18.7292 10.875C18.7292 11.876 19.5407 12.6875 20.5417 12.6875Z" fill="#232323"/>
<path d="M26.5833 12.6875C27.5843 12.6875 28.3958 11.876 28.3958 10.875C28.3958 9.87398 27.5843 9.0625 26.5833 9.0625C25.5822 9.0625 24.7708 9.87398 24.7708 10.875C24.7708 11.876 25.5822 12.6875 26.5833 12.6875Z" fill="#232323"/>
<path d="M44.7083 31.4167H35.0416C34.7211 31.4167 34.4138 31.2894 34.1872 31.0628C33.9606 30.8361 33.8333 30.5288 33.8333 30.2083C33.8333 29.8879 33.9606 29.5805 34.1872 29.3539C34.4138 29.1273 34.7211 29 35.0416 29H44.7083C45.0287 29 45.3361 29.1273 45.5627 29.3539C45.7893 29.5805 45.9166 29.8879 45.9166 30.2083C45.9166 30.5288 45.7893 30.8361 45.5627 31.0628C45.3361 31.2894 45.0287 31.4167 44.7083 31.4167Z" fill="#2D6AFF"/>
<path d="M14.5 32.0209C15.501 32.0209 16.3125 31.2094 16.3125 30.2084C16.3125 29.2074 15.501 28.3959 14.5 28.3959C13.499 28.3959 12.6875 29.2074 12.6875 30.2084C12.6875 31.2094 13.499 32.0209 14.5 32.0209Z" fill="#232323"/>
<path d="M20.5417 32.0209C21.5428 32.0209 22.3542 31.2094 22.3542 30.2084C22.3542 29.2074 21.5428 28.3959 20.5417 28.3959C19.5407 28.3959 18.7292 29.2074 18.7292 30.2084C18.7292 31.2094 19.5407 32.0209 20.5417 32.0209Z" fill="#232323"/>
<path d="M26.5833 32.0209C27.5843 32.0209 28.3958 31.2094 28.3958 30.2084C28.3958 29.2074 27.5843 28.3959 26.5833 28.3959C25.5822 28.3959 24.7708 29.2074 24.7708 30.2084C24.7708 31.2094 25.5822 32.0209 26.5833 32.0209Z" fill="#232323"/>
<path d="M29.0001 47.125C28.6796 47.125 28.3723 46.9977 28.1457 46.771C27.9191 46.5444 27.7917 46.2371 27.7917 45.9166V36.25C27.7917 35.9295 27.9191 35.6221 28.1457 35.3955C28.3723 35.1689 28.6796 35.0416 29.0001 35.0416C29.3206 35.0416 29.6279 35.1689 29.8545 35.3955C30.0811 35.6221 30.2084 35.9295 30.2084 36.25V45.9166C30.2084 46.2371 30.0811 46.5444 29.8545 46.771C29.6279 46.9977 29.3206 47.125 29.0001 47.125Z" fill="#232323"/>
<path d="M25.3749 50.75H15.1041C14.7836 50.75 14.4763 50.6227 14.2497 50.3961C14.0231 50.1695 13.8958 49.8622 13.8958 49.5417C13.8958 49.2212 14.0231 48.9139 14.2497 48.6873C14.4763 48.4607 14.7836 48.3334 15.1041 48.3334H25.3749C25.6954 48.3334 26.0027 48.4607 26.2293 48.6873C26.4559 48.9139 26.5833 49.2212 26.5833 49.5417C26.5833 49.8622 26.4559 50.1695 26.2293 50.3961C26.0027 50.6227 25.6954 50.75 25.3749 50.75Z" fill="#232323"/>
<path d="M42.8959 50.75H32.6251C32.3046 50.75 31.9973 50.6227 31.7707 50.3961C31.5441 50.1695 31.4167 49.8622 31.4167 49.5417C31.4167 49.2212 31.5441 48.9139 31.7707 48.6873C31.9973 48.4607 32.3046 48.3334 32.6251 48.3334H42.8959C43.2164 48.3334 43.5237 48.4607 43.7503 48.6873C43.9769 48.9139 44.1042 49.2212 44.1042 49.5417C44.1042 49.8622 43.9769 50.1695 43.7503 50.3961C43.5237 50.6227 43.2164 50.75 42.8959 50.75Z" fill="#232323"/>
</svg>
