<svg width="52" height="52" viewBox="0 0 52 52" fill="none" xmlns="http://www.w3.org/2000/svg">
<g clip-path="url(#clip0_47_195)">
<path d="M39 51.9999C38.857 51.9999 38.714 51.9717 38.5797 51.9154C38.064 51.6966 26 46.4836 26 35.8279V26.7734C26 26.3076 26.2968 25.8959 26.7367 25.7464L38.6533 21.7229C38.8787 21.6471 39.1235 21.6471 39.3467 21.7229L51.2633 25.7464C51.7032 25.8937 52 26.3076 52 26.7734V35.8279C52 46.4836 39.936 51.6966 39.4203 51.9154C39.286 51.9717 39.143 51.9999 39 51.9999ZM28.1667 27.5534V35.8279C28.1667 44.0266 36.9525 48.7369 39 49.7227C41.0453 48.7347 49.8333 44.0049 49.8333 35.8279V27.5534L39 23.8939L28.1667 27.5534Z" fill="#2D6AFF"/>
<path d="M37.9166 41.1666C37.8971 41.1666 37.8754 41.1666 37.8581 41.1644C37.5483 41.1471 37.2644 41.0019 37.0716 40.7592L32.7383 35.3426C32.3656 34.8746 32.4393 34.1942 32.9073 33.8194C33.3774 33.4511 34.0556 33.5247 34.4304 33.9884L38.0054 38.4582L44.7329 31.7329C45.1554 31.3104 45.8423 31.3104 46.2648 31.7329C46.6873 32.1554 46.6873 32.8422 46.2648 33.2647L38.6814 40.8481C38.4799 41.0517 38.2026 41.1666 37.9166 41.1666Z" fill="#2D6AFF"/>
<path d="M40.0833 17.3334H7.58333C3.40167 17.3334 0 13.9317 0 9.75008C0 5.56841 3.40167 2.16675 7.58333 2.16675H40.0833C44.265 2.16675 47.6667 5.56841 47.6667 9.75008C47.6667 13.9317 44.265 17.3334 40.0833 17.3334ZM7.58333 4.33341C4.5955 4.33341 2.16667 6.76225 2.16667 9.75008C2.16667 12.7379 4.5955 15.1667 7.58333 15.1667H40.0833C43.0712 15.1667 45.5 12.7379 45.5 9.75008C45.5 6.76225 43.0712 4.33341 40.0833 4.33341H7.58333Z" fill="black"/>
<path d="M9.75 13C7.95817 13 6.5 11.5418 6.5 9.75C6.5 7.95817 7.95817 6.5 9.75 6.5C11.5418 6.5 13 7.95817 13 9.75C13 11.5418 11.5418 13 9.75 13ZM9.75 8.66667C9.15417 8.66667 8.66667 9.15417 8.66667 9.75C8.66667 10.3458 9.15417 10.8333 9.75 10.8333C10.3458 10.8333 10.8333 10.3458 10.8333 9.75C10.8333 9.15417 10.3458 8.66667 9.75 8.66667Z" fill="black"/>
<path d="M20.5833 13C18.7914 13 17.3333 11.5418 17.3333 9.75C17.3333 7.95817 18.7914 6.5 20.5833 6.5C22.3751 6.5 23.8333 7.95817 23.8333 9.75C23.8333 11.5418 22.3751 13 20.5833 13ZM20.5833 8.66667C19.9874 8.66667 19.4999 9.15417 19.4999 9.75C19.4999 10.3458 19.9874 10.8333 20.5833 10.8333C21.1791 10.8333 21.6666 10.3458 21.6666 9.75C21.6666 9.15417 21.1791 8.66667 20.5833 8.66667Z" fill="black"/>
<path d="M20.5833 30.3334H7.58333C3.40167 30.3334 0 26.9317 0 22.7501C0 20.7264 0.788667 18.8241 2.223 17.3897C3.65733 15.9554 5.55967 15.1667 7.58333 15.1667H40.0833C41.7777 15.1667 43.3745 15.7106 44.694 16.7397C45.1663 17.1081 45.2508 17.7884 44.8825 18.2607C44.5142 18.7309 43.8338 18.8154 43.3615 18.4492C42.4255 17.7191 41.2923 17.3334 40.0833 17.3334H7.58333C6.14033 17.3334 4.77967 17.8989 3.75483 18.9216C2.73 19.9442 2.16667 21.3071 2.16667 22.7501C2.16667 25.7379 4.5955 28.1667 7.58333 28.1667H20.5833C21.1813 28.1667 21.6667 28.6521 21.6667 29.2501C21.6667 29.8481 21.1813 30.3334 20.5833 30.3334Z" fill="black"/>
<path d="M9.75 26C7.95817 26 6.5 24.5418 6.5 22.75C6.5 20.9582 7.95817 19.5 9.75 19.5C11.5418 19.5 13 20.9582 13 22.75C13 24.5418 11.5418 26 9.75 26ZM9.75 21.6667C9.15417 21.6667 8.66667 22.1542 8.66667 22.75C8.66667 23.3458 9.15417 23.8333 9.75 23.8333C10.3458 23.8333 10.8333 23.3458 10.8333 22.75C10.8333 22.1542 10.3458 21.6667 9.75 21.6667Z" fill="black"/>
<path d="M20.5833 26C18.7914 26 17.3333 24.5418 17.3333 22.75C17.3333 20.9582 18.7914 19.5 20.5833 19.5C22.3751 19.5 23.8333 20.9582 23.8333 22.75C23.8333 24.5418 22.3751 26 20.5833 26ZM20.5833 21.6667C19.9874 21.6667 19.4999 22.1542 19.4999 22.75C19.4999 23.3458 19.9874 23.8333 20.5833 23.8333C21.1791 23.8333 21.6666 23.3458 21.6666 22.75C21.6666 22.1542 21.1791 21.6667 20.5833 21.6667Z" fill="black"/>
<path d="M20.5833 43.3334H7.58333C3.40167 43.3334 0 39.9317 0 35.7501C0 33.7264 0.788667 31.8241 2.223 30.3897C3.65733 28.9554 5.55967 28.1667 7.58333 28.1667H20.5833C21.1813 28.1667 21.6667 28.6521 21.6667 29.2501C21.6667 29.8481 21.1813 30.3334 20.5833 30.3334H7.58333C6.14033 30.3334 4.77967 30.8989 3.75483 31.9216C2.73 32.9442 2.16667 34.3071 2.16667 35.7501C2.16667 38.7379 4.5955 41.1667 7.58333 41.1667H20.5833C21.1813 41.1667 21.6667 41.6521 21.6667 42.2501C21.6667 42.8481 21.1813 43.3334 20.5833 43.3334Z" fill="black"/>
<path d="M9.75 39C7.95817 39 6.5 37.5418 6.5 35.75C6.5 33.9582 7.95817 32.5 9.75 32.5C11.5418 32.5 13 33.9582 13 35.75C13 37.5418 11.5418 39 9.75 39ZM9.75 34.6667C9.15417 34.6667 8.66667 35.1542 8.66667 35.75C8.66667 36.3458 9.15417 36.8333 9.75 36.8333C10.3458 36.8333 10.8333 36.3458 10.8333 35.75C10.8333 35.1542 10.3458 34.6667 9.75 34.6667Z" fill="black"/>
<path d="M20.5833 39C18.7914 39 17.3333 37.5418 17.3333 35.75C17.3333 33.9582 18.7914 32.5 20.5833 32.5C22.3751 32.5 23.8333 33.9582 23.8333 35.75C23.8333 37.5418 22.3751 39 20.5833 39ZM20.5833 34.6667C19.9874 34.6667 19.4999 35.1542 19.4999 35.75C19.4999 36.3458 19.9874 36.8333 20.5833 36.8333C21.1791 36.8333 21.6666 36.3458 21.6666 35.75C21.6666 35.1542 21.1791 34.6667 20.5833 34.6667Z" fill="black"/>
</g>
<defs>
<clipPath id="clip0_47_195">
<rect width="52" height="52" fill="white"/>
</clipPath>
</defs>
</svg>
