<svg width="61" height="61" viewBox="0 0 61 61" fill="none" xmlns="http://www.w3.org/2000/svg">
<path d="M42.0569 40.9981C41.5869 40.5376 40.8326 40.5454 40.372 41.0152L40.3382 41.0498C39.8777 41.5198 39.8854 42.2741 40.3554 42.7347C40.5873 42.9619 40.8884 43.0751 41.1892 43.0751C41.4981 43.0751 41.8069 42.9556 42.0403 42.7175L42.0742 42.683C42.5346 42.213 42.5269 41.4587 42.0569 40.9981Z" fill="black"/>
<path d="M54.8731 28.5076H51.7071V25.3416C51.7071 24.6835 51.1737 24.1501 50.5157 24.1501C49.8576 24.1501 49.3243 24.6835 49.3243 25.3416V28.5076H46.1582C45.5002 28.5076 44.9668 29.041 44.9668 29.699C44.9668 30.357 45.5002 30.8904 46.1582 30.8904H49.3243V34.0565C49.3243 34.7145 49.8576 35.2479 50.5157 35.2479C51.1737 35.2479 51.7071 34.7145 51.7071 34.0565V30.8904H54.8731C55.5311 30.8904 56.0645 30.357 56.0645 29.699C56.0645 29.041 55.5311 28.5076 54.8731 28.5076Z" fill="#2D6AFF"/>
<path d="M54.4109 19.9653C53.2981 11.741 46.4228 5.58765 38.262 5.58765C34.1424 5.58765 30.2888 7.12325 27.2833 9.93796C24.2776 7.12325 20.424 5.58765 16.3045 5.58765C7.31418 5.58765 0 13.076 0 22.2805C0 24.099 0.530534 26.1374 1.586 28.3875H1.19141C0.533394 28.3875 0 28.9209 0 29.5789C0 30.2369 0.533394 30.7703 1.19141 30.7703H2.85485C5.08005 34.5376 8.59899 38.8215 13.3973 43.5926C19.9 50.0585 26.4937 55.1171 26.5596 55.1675C26.7731 55.3309 27.0282 55.4125 27.2833 55.4125C27.5383 55.4125 27.7933 55.3309 28.0069 55.1675C28.0572 55.129 33.1002 51.262 38.6888 45.9928C39.1677 45.5414 39.1898 44.7874 38.7384 44.3087C38.2871 43.83 37.5331 43.8077 37.0542 44.2591C32.7921 48.2776 28.8572 51.4638 27.2834 52.7086C25.4131 51.2288 20.2064 47.0049 15.0604 41.8861C10.9405 37.7877 7.78657 34.0529 5.65431 30.7703H16.3205C16.852 30.7703 17.3191 30.4183 17.4657 29.9075L19.5473 22.6516L25.3118 41.1206C25.4672 41.6181 25.9279 41.9571 26.4492 41.9571C26.9704 41.9571 27.4311 41.6181 27.5864 41.1206L30.7787 30.8896H36.0977C36.7557 30.8896 37.2891 30.3562 37.2891 29.6982C37.2891 29.0402 36.7557 28.5068 36.0977 28.5068H29.9024C29.3812 28.5068 28.9204 28.8456 28.7651 29.3433L26.4488 36.7663L20.6364 18.1439C20.4796 17.6415 20.0128 17.3003 19.4852 17.3075C18.959 17.3136 18.499 17.6644 18.3538 18.1704L15.4225 28.3876H4.24427C3.01271 26.0625 2.38282 24.0131 2.38282 22.2805C2.38282 14.3899 8.62806 7.97046 16.3045 7.97046C20.1628 7.97046 23.7508 9.55647 26.4076 12.4361C26.6332 12.6806 26.9506 12.8196 27.2833 12.8196C27.6159 12.8196 27.9334 12.6806 28.1589 12.4361C30.8157 9.55647 34.4037 7.97046 38.262 7.97046C44.8989 7.97046 50.5416 12.7568 51.8827 19.3037C51.4351 19.2452 50.9789 19.2146 50.5156 19.2146C44.7345 19.2146 40.0312 23.9179 40.0312 29.699C40.0312 35.4801 44.7345 40.1834 50.5156 40.1834C56.2967 40.1834 61 35.4801 61 29.699C61.0001 25.2937 58.2688 21.5148 54.4109 19.9653ZM50.5157 37.8006C46.0485 37.8006 42.4141 34.1662 42.4141 29.699C42.4141 25.2318 46.0485 21.5974 50.5157 21.5974C54.9829 21.5974 58.6173 25.2318 58.6173 29.699C58.6173 34.1662 54.9829 37.8006 50.5157 37.8006Z" fill="black"/>
</svg>
