<svg width="47" height="47" viewBox="0 0 47 47" fill="none" xmlns="http://www.w3.org/2000/svg">
<g clip-path="url(#clip0_47_207)">
<path d="M43.0833 31.3335C42.6501 31.3335 42.3 31.6844 42.3 32.1168V45.4334H36.8167C36.3836 45.4334 36.0334 45.7843 36.0334 46.2167C36.0334 46.649 36.3836 47 36.8167 47H43.0834C43.5166 47 43.8667 46.649 43.8667 46.2167V32.1168C43.8666 31.6844 43.5164 31.3335 43.0833 31.3335Z" fill="black"/>
<path d="M40.7331 38.3834V32.1168C40.7331 31.6844 40.383 31.3335 39.9498 31.3335H35.2499C34.8167 31.3335 34.4666 31.6844 34.4666 32.1168V38.3834C34.4666 38.8158 34.8167 39.1667 35.2499 39.1667H39.9498C40.383 39.1667 40.7331 38.8158 40.7331 38.3834ZM39.1665 37.6001H36.0332V32.9001H39.1665V37.6001Z" fill="#2D6AFF"/>
<path d="M30.55 13.317C30.9831 13.317 31.3333 12.9661 31.3333 12.5337V8.61704C31.3333 8.18468 30.9831 7.83374 30.55 7.83374H7.05014C6.61696 7.83374 6.26685 8.18468 6.26685 8.61704V36.0335C6.26685 36.4659 6.61696 36.8168 7.05014 36.8168C7.48333 36.8168 7.83344 36.4659 7.83344 36.0335V34.4668H8.61674C9.04992 34.4668 9.40003 34.1159 9.40003 33.6835C9.40003 33.2512 9.04992 32.9002 8.61674 32.9002H7.83344V28.2003H10.9667V31.3336C10.9667 31.7659 11.3168 32.1168 11.75 32.1168C12.1832 32.1168 12.5333 31.7659 12.5333 31.3336V28.2003H15.6666C16.0998 28.2003 16.4499 27.8493 16.4499 27.417C16.8831 27.417 17.2332 27.066 17.2332 26.6337V21.9337H20.3665C20.3665 22.3661 20.7166 22.717 21.1498 22.717C21.5829 22.717 21.9331 22.3661 21.9331 21.9337C22.3662 21.9337 22.7163 21.5828 22.7163 21.1504C22.7163 20.7181 22.3662 20.3671 21.9331 20.3671V15.6672H25.0663V17.2338C25.0663 17.6662 25.4164 18.0171 25.8496 18.0171C26.2828 18.0171 26.6329 17.6662 26.6329 17.2338V15.667H28.1996C28.6328 15.667 28.9829 15.316 28.9829 14.8837C28.9829 14.4513 28.6328 14.1004 28.1996 14.1004H26.6329V9.40043H29.7662V12.5337C29.7667 12.9661 30.1168 13.317 30.55 13.317ZM10.9668 26.6336H7.83344V21.9336H10.9667L10.9668 26.6336ZM10.9668 20.3669H7.83344V15.667H10.9667L10.9668 20.3669ZM10.9668 14.1003H7.83344V9.40033H10.9667L10.9668 14.1003ZM15.6668 26.6336H12.5335V21.9336H15.6668V26.6336ZM15.6668 20.3669H12.5335V15.667H15.6668V20.3669ZM15.6668 14.1003H12.5335V9.40033H15.6668V14.1003ZM20.3667 20.3669H17.2335V15.667H20.3667V20.3669ZM20.3667 14.1003H17.2335V9.40033H20.3667V14.1003ZM25.0667 14.1003H21.9334V9.40033H25.0667V14.1003Z" fill="#2D6AFF"/>
<path d="M3.91684 39.9501C4.35003 39.9501 4.70014 39.5991 4.70014 39.1668V6.26704H10.1834C10.6166 6.26704 10.9667 5.91611 10.9667 5.48375V3.13377H16.45C16.8831 3.13377 17.2332 2.78283 17.2332 2.35047V1.56708H20.3665V2.35038C20.3665 2.78274 20.7166 3.13367 21.1498 3.13367H26.6331V4.70036H13.3168C12.8836 4.70036 12.5335 5.0513 12.5335 5.48366C12.5335 5.91602 12.8836 6.26695 13.3168 6.26695H32.8999V9.40023C32.8999 9.83259 33.25 10.1835 33.6832 10.1835C34.1164 10.1835 34.4665 9.83259 34.4665 9.40023V5.48375C34.4665 5.05139 34.1164 4.70045 33.6832 4.70045H28.2V2.35047C28.2 1.91811 27.8498 1.56717 27.4167 1.56717H21.9334V0.783785C21.9334 0.351425 21.5833 0.000488281 21.1501 0.000488281H16.4501C16.017 0.000488281 15.6668 0.351425 15.6668 0.783785V1.56708H10.1836C9.75039 1.56708 9.40028 1.91802 9.40028 2.35038V4.70036H3.91684C3.48366 4.70036 3.13354 5.0513 3.13354 5.48366V39.1668C3.13345 39.5991 3.48366 39.9501 3.91684 39.9501Z" fill="black"/>
<path d="M46.2165 17.2336H40.7332V16.4503C40.7332 16.0179 40.3831 15.667 39.9499 15.667H36.8167C36.3835 15.667 36.0334 16.0179 36.0334 16.4503V18.017C36.0334 18.4493 36.3835 18.8003 36.8167 18.8003C37.2499 18.8003 37.6 18.4493 37.6 18.017V17.2337H39.1667V18.017C39.1667 18.4493 39.5168 18.8003 39.9499 18.8003H45.4332V29.4426L33.4538 17.4632C33.1475 17.1569 32.6524 17.1569 32.3462 17.4632C32.0399 17.7695 32.0399 18.2645 32.3462 18.5708L45.6627 31.8873C45.8123 32.0369 46.0128 32.1168 46.2165 32.1168C46.3176 32.1168 46.4194 32.0972 46.5165 32.0572C46.8095 31.9357 46.9998 31.6499 46.9998 31.3334V18.0169C46.9998 17.5844 46.6497 17.2336 46.2165 17.2336Z" fill="black"/>
<path d="M33.6832 43.8666H25.85C25.4168 43.8666 25.0667 44.2175 25.0667 44.6499V45.4332H17.2335V34.4666C17.2335 34.0343 16.8834 33.6833 16.4502 33.6833C16.017 33.6833 15.6669 34.0343 15.6669 34.4666V46.2166C15.6669 46.6489 16.017 46.9998 16.4502 46.9998H25.8501C26.2833 46.9998 26.6334 46.6489 26.6334 46.2166V45.4333H32.9V46.2166C32.9 46.6489 33.2502 46.9998 33.6833 46.9998C34.1165 46.9998 34.4666 46.6489 34.4666 46.2166V44.6499C34.4666 44.2175 34.1164 43.8666 33.6832 43.8666Z" fill="black"/>
<path d="M46.7703 0.229918C46.4641 -0.0763139 45.9689 -0.0763139 45.6627 0.229918L0.229674 45.663C-0.076558 45.9693 -0.076558 46.4643 0.229674 46.7706C0.382423 46.9233 0.582997 47.0001 0.78348 47.0001C0.984055 47.0001 1.18454 46.9233 1.33729 46.7706L46.7703 1.33762C47.0766 1.0313 47.0766 0.536242 46.7703 0.229918Z" fill="black"/>
<path d="M32.1167 42.3C32.5499 42.3 32.9 41.9491 32.9 41.5167V32.1168C32.9 31.6844 32.5499 31.3335 32.1167 31.3335H27.4167C26.9835 31.3335 26.6334 31.6844 26.6334 32.1168V41.5167C26.6334 41.9491 26.9835 42.3 27.4167 42.3C27.8499 42.3 28.2 41.9491 28.2 41.5167V32.9001H31.3333V36.0334H30.55C30.1168 36.0334 29.7667 36.3843 29.7667 36.8167C29.7667 37.249 30.1168 37.6 30.55 37.6H31.3333V41.5166C31.3334 41.9491 31.6835 42.3 32.1167 42.3Z" fill="black"/>
<path d="M19.5835 31.3335C19.1503 31.3335 18.8002 31.6844 18.8002 32.1168V38.3834C18.8002 38.8158 19.1503 39.1667 19.5835 39.1667H24.2834C24.7166 39.1667 25.0667 38.8158 25.0667 38.3834V32.1168C25.0667 31.6844 24.7166 31.3335 24.2834 31.3335H19.5835ZM23.5 37.6001H20.3668V32.9001H23.5V37.6001Z" fill="#2D6AFF"/>
</g>
<defs>
<clipPath id="clip0_47_207">
<rect width="47" height="47" fill="white"/>
</clipPath>
</defs>
</svg>
