<svg width="62" height="62" viewBox="0 0 62 62" fill="none" xmlns="http://www.w3.org/2000/svg">
<g clip-path="url(#clip0_47_99)">
<path d="M58.6699 7.88017H42.3328C42.3156 7.88017 42.2989 7.88175 42.2819 7.88271C41.6833 7.32072 41.04 6.79893 40.354 6.32424C39.9413 6.03906 39.3758 6.14211 39.0903 6.55432C38.805 6.96676 38.9079 7.53263 39.3204 7.81805C43.3318 10.5933 45.7266 15.1581 45.7266 20.0289C45.7266 28.2104 39.0704 34.8665 30.889 34.8665C22.7076 34.8665 16.0515 28.2104 16.0515 20.0289C16.0515 11.8476 22.7076 5.19141 30.889 5.19141C32.5131 5.19141 34.1092 5.45188 35.6329 5.96568C36.1083 6.12637 36.6236 5.87062 36.7837 5.39533C36.944 4.92004 36.6886 4.40478 36.2133 4.24457C34.5022 3.66756 32.7108 3.375 30.889 3.375C21.7059 3.375 14.2351 10.8459 14.2351 20.0289C14.2351 29.2119 21.7059 36.6829 30.889 36.6829C40.072 36.6829 47.543 29.2119 47.543 20.0289C47.543 16.2331 46.2463 12.6037 43.9475 9.69658H58.6699C59.5046 9.69658 60.1836 10.3756 60.1836 11.2102V39.7949H53.0001C52.4984 39.7949 52.0919 40.2014 52.0919 40.7031C52.0919 41.2048 52.4984 41.6113 53.0001 41.6113H60.1836V46.381C60.1836 47.2157 59.5046 47.8946 58.6699 47.8946H3.33008C2.49538 47.8946 1.81641 47.2157 1.81641 46.381V41.6113H48.4261C48.9278 41.6113 49.3343 41.2048 49.3343 40.7031C49.3343 40.2014 48.9278 39.7949 48.4261 39.7949H1.81641V11.2102C1.81641 10.3756 2.49538 9.69658 3.33008 9.69658H14.1605C14.6622 9.69658 15.0687 9.29007 15.0687 8.78837C15.0687 8.28668 14.6622 7.88017 14.1605 7.88017H3.33008C1.49381 7.88017 0 9.3741 0 11.2102V46.3808C0 48.217 1.49381 49.7109 3.33008 49.7109H23.2374V56.8087H20.4956C19.9939 56.8087 19.5874 57.2152 19.5874 57.7169C19.5874 58.2186 19.9939 58.6251 20.4956 58.6251H41.2823C41.784 58.6251 42.1905 58.2186 42.1905 57.7169C42.1905 57.2152 41.784 56.8087 41.2823 56.8087H38.5405V49.7109H58.6699C60.5062 49.7109 62 48.217 62 46.3808V11.2102C62 9.3741 60.5062 7.88017 58.6699 7.88017ZM36.7242 56.8088H25.0538V49.711H36.7242V56.8088Z" fill="black"/>
<path d="M24.4178 12.7744C24.224 11.7476 23.325 11.0022 22.28 11.0022H21.3088C20.8071 11.0022 20.4006 11.4087 20.4006 11.9104C20.4006 12.4121 20.8071 12.8186 21.3088 12.8186H22.28C22.4526 12.8186 22.6009 12.9416 22.6329 13.1113L25.3207 27.3476C25.4017 27.7766 25.7766 28.0872 26.2131 28.0872H26.8259C26.5576 28.387 26.3931 28.7817 26.3931 29.2157C26.3931 30.1517 27.152 30.9106 28.088 30.9106C29.0241 30.9106 29.783 30.1517 29.783 29.2157C29.783 28.7817 29.6185 28.387 29.3502 28.0872H33.0864C32.8182 28.387 32.6536 28.7817 32.6536 29.2157C32.6536 30.1517 33.4125 30.9106 34.3486 30.9106C35.2846 30.9106 36.0435 30.1517 36.0435 29.2157C36.0435 28.7817 35.8791 28.387 35.6107 28.0872H36.428C36.9297 28.0872 37.3362 27.6807 37.3362 27.179C37.3362 26.6773 36.9297 26.2708 36.428 26.2708H26.9656L26.5951 24.3082H36.7449C37.1813 24.3082 37.5559 23.998 37.6372 23.5691L39.2492 15.065C39.2502 15.0596 39.2513 15.0541 39.2521 15.0487C39.3063 14.7308 39.2182 14.4072 39.0103 14.1608C38.8024 13.9144 38.4982 13.7731 38.1757 13.7731H24.6063L24.4178 12.7744ZM25.7724 19.9488H28.2502L28.4361 22.4918H26.2526L25.7724 19.9488ZM32.2579 19.9488L32.072 22.4918H30.2573L30.0714 19.9488H32.2579ZM29.9387 18.1324L29.7528 15.5896H32.5765L32.3906 18.1324H29.9387ZM33.8934 22.4918L34.0793 19.9488H36.475L35.9929 22.4918H33.8934ZM36.8194 18.1324H34.2121L34.398 15.5896H37.3014L36.8194 18.1324ZM27.9315 15.5896L28.1173 18.1324H25.4294L24.9493 15.5896H27.9315Z" fill="#2D6AFF"/>
<path d="M5.91553 33.3132H11.2874C11.7891 33.3132 12.1956 32.9067 12.1956 32.405C12.1956 31.9033 11.7891 31.4968 11.2874 31.4968H5.91553C5.41384 31.4968 5.00732 31.9033 5.00732 32.405C5.00732 32.9067 5.41384 33.3132 5.91553 33.3132Z" fill="black"/>
<path d="M5.91553 37.4097H15.9389C16.4406 37.4097 16.8471 37.0032 16.8471 36.5015C16.8471 35.9998 16.4406 35.5933 15.9389 35.5933H5.91553C5.41384 35.5933 5.00732 35.9998 5.00732 36.5015C5.00732 37.0032 5.41384 37.4097 5.91553 37.4097Z" fill="black"/>
<path d="M53.8778 13.123C53.3761 13.123 52.9696 13.5296 52.9696 14.0312V16.3043H50.6965C50.1948 16.3043 49.7883 16.7108 49.7883 17.2125C49.7883 17.7142 50.1948 18.1207 50.6965 18.1207H52.9696V20.3938C52.9696 20.8954 53.3761 21.302 53.8778 21.302C54.3795 21.302 54.786 20.8954 54.786 20.3938V18.1207H57.0589C57.5606 18.1207 57.9671 17.7142 57.9671 17.2125C57.9671 16.7108 57.5606 16.3043 57.0589 16.3043H54.786V14.0312C54.786 13.5297 54.3794 13.123 53.8778 13.123Z" fill="#2D6AFF"/>
</g>
<defs>
<clipPath id="clip0_47_99">
<rect width="62" height="62" fill="white"/>
</clipPath>
</defs>
</svg>
