<svg width="67" height="67" viewBox="0 0 67 67" fill="none" xmlns="http://www.w3.org/2000/svg">
<path d="M57.2476 35.474H49.548C48.9698 35.474 48.5011 35.9428 48.5011 36.5209V64.9061C48.5011 65.4843 48.9698 65.953 49.548 65.953H57.2476C57.8257 65.953 58.2945 65.4843 58.2945 64.9061V36.5209C58.2945 35.9428 57.8259 35.474 57.2476 35.474ZM56.2007 63.8592H50.5948V37.5678H56.2007V63.8592ZM50.1042 25.4396C50.073 24.8622 50.5155 24.3688 51.0929 24.3375L55.9564 24.0735C56.2703 24.0559 56.5743 24.181 56.786 24.4129C56.9978 24.6446 57.0942 24.9592 57.0491 25.2697L56.3473 30.0895C56.2714 30.6105 55.824 30.9858 55.3127 30.9858C55.2625 30.9858 55.2117 30.9823 55.1605 30.9747C54.5884 30.8914 54.1922 30.3602 54.2754 29.788L54.5515 27.8914C45.6448 35.7419 35.0387 41.8433 22.9936 46.038C22.8796 46.0778 22.7635 46.0965 22.6493 46.0965C22.2163 46.0965 21.8111 45.8258 21.6606 45.3937C21.4705 44.8477 21.7589 44.251 22.305 44.0607C34.0918 39.9559 44.4635 33.9916 53.1657 26.3217L51.2063 26.428C50.6283 26.4592 50.1355 26.0169 50.1042 25.4396ZM41.4534 21.2933C41.4534 20.7152 40.9846 20.2464 40.4065 20.2464H26.1264V5.96627C26.1264 5.38813 25.6576 4.9194 25.0795 4.9194C16.0508 4.9194 8.70557 12.2647 8.70557 21.2933C8.70557 30.3219 16.0508 37.6672 25.0795 37.6672C34.1081 37.6672 41.4534 30.3219 41.4534 21.2933ZM10.7993 21.2933C10.7993 13.7715 16.6457 7.58919 24.0326 7.0511V21.2933C24.0326 21.8714 24.5013 22.3402 25.0795 22.3402H39.3217C38.7842 29.7277 32.6018 35.5735 25.0795 35.5735C17.2053 35.5735 10.7993 29.1674 10.7993 21.2933ZM28.952 18.4677H44.279C44.8572 18.4677 45.3259 17.9989 45.3259 17.4208C45.3259 8.39214 37.9805 1.04688 28.952 1.04688C28.3739 1.04688 27.9051 1.51561 27.9051 2.09375V17.4208C27.9051 17.9989 28.3737 18.4677 28.952 18.4677ZM29.9989 3.17857C37.0409 3.69089 42.6819 9.33171 43.1942 16.3739H29.9989V3.17857Z" fill="black"/>
<path d="M35.2509 44.0554H42.9507C43.2527 44.0554 43.4975 44.3003 43.4975 44.6023V64.9063C43.4975 65.2083 43.2527 65.4532 42.9507 65.4532H35.2509C34.9489 65.4532 34.704 65.2083 34.704 64.9063V44.6023C34.704 44.3003 34.9489 44.0554 35.2509 44.0554ZM20.9539 51.7946H28.6535C28.9555 51.7946 29.2004 52.0395 29.2004 52.3414V64.9062C29.2004 65.2082 28.9555 65.453 28.6535 65.453H20.9539C20.6519 65.453 20.407 65.2082 20.407 64.9062V52.3414C20.407 52.0395 20.6519 51.7946 20.9539 51.7946Z" stroke="#2D6AFF"/>
</svg>
