<svg width="66" height="66" viewBox="0 0 66 66" fill="none" xmlns="http://www.w3.org/2000/svg">
<g clip-path="url(#clip0_47_106)">
<path d="M47.645 16.3651C43.7405 12.4616 38.551 10.3125 33.0302 10.3125C33.0287 10.3125 33.0262 10.3125 33.0242 10.3125C27.4963 10.314 22.3043 12.4631 18.4049 16.364C14.5055 20.2655 12.3579 25.458 12.3589 30.9863C12.3594 37.974 15.8524 44.4379 21.7031 48.2769C22.9891 49.1208 23.894 50.4567 24.2001 51.9538V60.6826C24.2001 61.3946 24.7772 61.9717 25.4892 61.9717C26.9993 61.9717 28.2285 63.2003 28.2285 64.7109C28.2285 65.4229 28.8055 66 29.5175 66H36.5429C37.2549 66 37.832 65.4229 37.832 64.7109C37.832 63.2003 39.0606 61.9717 40.5712 61.9717C41.2832 61.9717 41.8603 61.3946 41.8603 60.6826V51.9532C42.1664 50.4522 43.0567 49.1259 44.3176 48.3031C50.1934 44.4661 53.7015 37.9921 53.7015 30.9838C53.7015 25.4615 51.5504 20.2695 47.645 16.3651ZM39.2822 59.5517C37.3838 60.026 35.8863 61.5235 35.412 63.4219H30.6485C30.1741 61.5235 28.6766 60.026 26.7783 59.5517V58.2656H33.0463C33.7583 58.2656 34.3354 57.6886 34.3354 56.9766C34.3354 56.2646 33.7583 55.6875 33.0463 55.6875H26.7783V53.1094H39.2822V59.5517ZM42.9077 46.1444C41.3326 47.1726 40.1538 48.7351 39.5712 50.5312H34.3354V45.3307C34.3354 44.6187 33.7583 44.0416 33.0463 44.0416C32.3343 44.0416 31.7573 44.6187 31.7573 45.3307V50.5312H26.4877C25.9021 48.7381 24.7117 47.1671 23.1175 46.1212C17.9955 42.7606 14.9375 37.1023 14.937 30.9858C14.9355 21.0107 23.05 12.8931 33.0252 12.8906H33.0302C37.8622 12.8906 42.4051 14.7719 45.8221 18.1884C49.2407 21.6059 51.1234 26.1503 51.1234 30.9838C51.1234 37.118 48.0518 42.7853 42.9077 46.1444Z" fill="black"/>
<path d="M33.0303 7.73438C33.7423 7.73438 34.3193 7.15732 34.3193 6.44531V1.28906C34.3193 0.577057 33.7423 0 33.0303 0C32.3183 0 31.7412 0.577057 31.7412 1.28906V6.44531C31.7412 7.15732 32.3183 7.73438 33.0303 7.73438Z" fill="black"/>
<path d="M8.50781 29.7114H3.35156C2.63956 29.7114 2.0625 30.2885 2.0625 31.0005C2.0625 31.712 2.63956 32.2896 3.35156 32.2896H8.50781C9.21982 32.2896 9.79688 31.712 9.79688 31.0005C9.79688 30.2885 9.21982 29.7114 8.50781 29.7114Z" fill="black"/>
<path d="M62.7412 29.6787H57.585C56.873 29.6787 56.2959 30.2558 56.2959 30.9678C56.2959 31.6793 56.873 32.2568 57.585 32.2568H62.7412C63.4532 32.2568 64.0303 31.6793 64.0303 30.9678C64.0303 30.2558 63.4532 29.6787 62.7412 29.6787Z" fill="black"/>
<path d="M14.7949 47.4355L11.1488 51.0811C10.6457 51.5847 10.6457 52.4009 11.1488 52.9045C11.4005 53.1562 11.7309 53.2821 12.0607 53.2821C12.3905 53.2821 12.7203 53.1562 12.9721 52.9045L16.6177 49.2583C17.1213 48.7553 17.1213 47.9391 16.6177 47.4355C16.1147 46.932 15.2984 46.932 14.7949 47.4355Z" fill="black"/>
<path d="M50.3862 14.9099C50.716 14.9099 51.0459 14.784 51.2976 14.5323L54.9438 10.8866C55.4473 10.3831 55.4473 9.56685 54.9438 9.06331C54.4402 8.56028 53.624 8.56028 53.1205 9.06331L49.4748 12.7094C48.9713 13.2125 48.9713 14.0287 49.4748 14.5323C49.7266 14.784 50.0564 14.9099 50.3862 14.9099Z" fill="black"/>
<path d="M14.7719 14.5552C15.0237 14.807 15.3535 14.9329 15.6834 14.9329C16.0137 14.9329 16.3435 14.807 16.5953 14.5552C17.0983 14.0522 17.0983 13.2359 16.5953 12.7324L12.9491 9.08626C12.4456 8.58323 11.6294 8.58323 11.1258 9.08626C10.6228 9.5898 10.6228 10.406 11.1258 10.9096L14.7719 14.5552Z" fill="black"/>
<path d="M51.3208 47.4123C50.8173 46.9088 50.0011 46.9088 49.498 47.4123C48.9945 47.9159 48.9945 48.7316 49.498 49.2351L53.1441 52.8813C53.3959 53.133 53.7257 53.2589 54.0556 53.2589C54.3854 53.2589 54.7152 53.133 54.967 52.8813C55.4705 52.3777 55.4705 51.5615 54.967 51.0585L51.3208 47.4123Z" fill="black"/>
<path d="M36.3772 23.7107H35.3071C34.5951 23.7107 34.0181 24.2878 34.0181 24.9998V34.281C34.0181 34.993 34.5951 35.5701 35.3071 35.5701H36.3772C39.6466 35.5701 42.3068 32.9099 42.3068 29.6404C42.3068 26.3709 39.6466 23.7107 36.3772 23.7107ZM36.5962 32.9849V26.2959C38.3425 26.4092 39.7287 27.8659 39.7287 29.6404C39.7287 31.4149 38.3425 32.8716 36.5962 32.9849Z" fill="#2D6AFF"/>
<path d="M31.7658 33.8696L28.6429 24.5884C28.4661 24.0642 27.9747 23.7107 27.4208 23.7107C26.8674 23.7107 26.3759 24.0642 26.1992 24.5884L23.0762 33.8696C22.8491 34.5449 23.2122 35.2755 23.8869 35.5026C24.5481 35.7257 25.2626 35.3802 25.5043 34.7317H29.3367C29.5291 35.2468 30.0185 35.5706 30.5437 35.5706C30.6797 35.5706 30.8181 35.5489 30.9546 35.5026C31.6294 35.2755 31.9924 34.5449 31.7658 33.8696ZM27.4208 29.0422L28.4676 32.1535H26.3744L27.4208 29.0422Z" fill="#2D6AFF"/>
<path d="M33.0469 38.886C32.708 38.886 32.3752 39.0224 32.1355 39.2636C31.8958 39.5023 31.7578 39.8347 31.7578 40.175C31.7578 40.5139 31.8958 40.8468 32.1355 41.0865C32.3752 41.3261 32.708 41.4641 33.0469 41.4641C33.3858 41.4641 33.7171 41.3261 33.9583 41.0865C34.198 40.8453 34.3359 40.5139 34.3359 40.175C34.3359 39.8347 34.198 39.5033 33.9583 39.2636C33.7186 39.0224 33.3858 38.886 33.0469 38.886Z" fill="black"/>
</g>
<defs>
<clipPath id="clip0_47_106">
<rect width="66" height="66" fill="white"/>
</clipPath>
</defs>
</svg>
