<svg width="63" height="63" viewBox="0 0 63 63" fill="none" xmlns="http://www.w3.org/2000/svg">
<path d="M54.1986 19.7338C53.828 12.0441 46.231 6.85585 39.0971 8.89409C37.1516 4.72497 32.8898 1.94556 28.2574 1.94556C22.4207 1.94556 17.3251 6.29997 16.4913 12.0441C12.3221 12.6 8.98684 15.8426 8.33831 20.0117C4.35449 21.3088 1.66772 24.922 1.66772 29.1838C1.66772 34.4647 5.92949 38.8191 11.303 38.8191H16.028C16.5839 38.8191 16.9545 38.4485 16.9545 37.8926C16.9545 37.3367 16.5839 36.9661 16.028 36.9661H11.303C7.04125 36.9661 3.52067 33.4456 3.52067 29.1838C3.52067 25.6632 5.92949 22.5132 9.35743 21.6794C9.72802 21.5867 10.006 21.2161 10.0986 20.8456C10.4692 17.047 13.6192 14.0823 17.4177 13.897C17.881 13.897 18.2516 13.5264 18.2516 13.0632C18.7148 7.96762 23.0692 3.89114 28.2574 3.89114C32.4265 3.89114 36.2251 6.57791 37.7074 10.4691C37.8927 10.9323 38.4486 11.2103 38.9118 11.025C45.3971 8.61614 52.4383 13.5264 52.4383 20.475V20.6603C52.4383 21.1235 52.8089 21.4941 53.1795 21.5867C56.8854 22.2353 59.5721 25.3853 59.5721 29.1838C59.5721 33.4456 56.0516 36.9661 51.7898 36.9661H47.0648C46.5089 36.9661 46.1383 37.3367 46.1383 37.8926C46.1383 38.4485 46.5089 38.8191 47.0648 38.8191H51.7898C57.0707 38.8191 61.4251 34.5573 61.4251 29.1838C61.3324 24.6441 58.3677 20.8456 54.1986 19.7338Z" fill="black"/>
<path d="M23.7177 11.3029C24.3663 9.44993 26.1266 8.24552 28.0722 8.24552C29.5545 8.24552 30.8516 8.89405 31.778 10.0985C32.056 10.469 32.7045 10.5617 33.0751 10.2838C33.4457 10.0058 33.5383 9.35728 33.2604 8.9867C32.056 7.31905 30.1104 6.39258 28.0722 6.39258C25.3854 6.39258 22.8839 8.15287 21.9575 10.6543C21.7722 11.1176 22.0501 11.6735 22.5133 11.8588C22.9766 12.044 23.5325 11.7661 23.7177 11.3029Z" fill="black"/>
<path d="M7.87516 28.7207C7.87516 28.1648 7.50457 27.7942 6.94869 27.7942C6.39281 27.7942 6.02222 28.1648 6.02222 28.7207C6.02222 31.9633 8.61633 34.5574 11.859 34.5574C12.4149 34.5574 12.7855 34.1868 12.7855 33.631C12.7855 33.0751 12.4149 32.7045 11.859 32.7045C9.63545 32.7045 7.87516 30.8515 7.87516 28.7207Z" fill="black"/>
<path d="M18.8073 20.8455V41.5984H11.025C8.98675 41.5984 7.31911 43.266 7.31911 45.3043V49.1954C6.02205 49.566 5.00293 50.8631 5.00293 52.2528C5.00293 54.0131 6.48528 55.4955 8.24558 55.4955C10.0059 55.4955 11.4882 54.0131 11.4882 52.2528C11.4882 50.7705 10.4691 49.566 9.17205 49.1954V45.3043C9.17205 44.2852 10.0059 43.4513 11.025 43.4513H18.8073V44.841C18.8073 47.991 24.2735 49.7513 30.1103 49.9366V53.8278C28.5353 54.1984 27.3309 55.6807 27.3309 57.3484C27.3309 59.3866 28.9985 61.0543 31.0368 61.0543C33.075 61.0543 34.7426 59.3866 34.7426 57.3484C34.7426 55.5881 33.5382 54.1984 31.9632 53.7352V49.844C38.1706 49.7513 44.2853 47.991 44.2853 44.6557V43.266H52.0676C53.0868 43.266 53.9206 44.0999 53.9206 45.119V49.0102C52.6235 49.3807 51.6044 50.6778 51.6044 52.0675C51.6044 53.8278 53.0868 55.3102 54.847 55.3102C56.6073 55.3102 58.0897 53.8278 58.0897 52.0675C58.0897 50.5852 57.0706 49.3807 55.7735 49.0102V45.119C55.7735 43.0807 54.1059 41.4131 52.0676 41.4131H44.2853C44.2853 38.7263 44.2853 23.1616 44.2853 20.6602C44.2853 17.2322 37.8926 15.4719 31.5926 15.4719C25.2926 15.4719 18.8073 17.4175 18.8073 20.8455ZM9.54264 52.2528C9.54264 52.994 8.89411 53.6425 8.15293 53.6425C7.41175 53.6425 6.76322 52.994 6.76322 52.2528C6.76322 51.5116 7.41175 50.8631 8.15293 50.8631C8.98675 50.8631 9.54264 51.5116 9.54264 52.2528ZM56.1441 52.2528C56.1441 52.994 55.4956 53.6425 54.7544 53.6425C54.0132 53.6425 53.3647 52.994 53.3647 52.2528C53.3647 51.5116 54.0132 50.8631 54.7544 50.8631C55.5882 50.8631 56.1441 51.5116 56.1441 52.2528ZM42.3397 37.0587C42.3397 38.4484 38.0779 40.394 31.5 40.394C24.8294 40.394 20.6603 38.4484 20.6603 37.0587V31.2219C22.9765 32.7969 27.3309 33.5381 31.5 33.5381C35.7618 33.5381 40.0235 32.7043 42.3397 31.2219V37.0587ZM42.3397 28.5352C42.3397 29.9249 38.0779 31.8705 31.5 31.8705C24.8294 31.8705 20.6603 29.9249 20.6603 28.5352V23.6249C22.9765 25.1999 27.2382 25.941 31.5 25.941C35.7618 25.941 40.0235 25.1072 42.3397 23.6249V28.5352ZM32.8897 57.3484C32.8897 58.3675 32.0559 59.2013 31.0368 59.2013C30.0176 59.2013 29.1838 58.3675 29.1838 57.3484C29.1838 56.3293 30.0176 55.4955 31.0368 55.4955C32.0559 55.4955 32.8897 56.3293 32.8897 57.3484ZM42.3397 44.7484C42.3397 46.1381 38.0779 48.0837 31.5 48.0837C24.8294 48.0837 20.6603 46.1381 20.6603 44.7484V39.8381C22.9765 41.4131 27.3309 42.1543 31.5 42.1543C35.7618 42.1543 40.0235 41.3205 42.3397 39.8381V44.7484ZM31.5 17.5102C38.1706 17.5102 42.3397 19.4557 42.3397 20.8455C42.3397 22.2352 38.0779 24.1807 31.5 24.1807C24.8294 24.1807 20.6603 22.2352 20.6603 20.8455C20.6603 19.4557 24.8294 17.5102 31.5 17.5102Z" fill="#2D6AFF"/>
<path d="M25.5706 27.3307C24.8294 27.1454 24.1809 26.8675 23.625 26.5896C23.1618 26.4043 22.6059 26.5896 22.4206 27.0528C22.2353 27.516 22.4206 28.0719 22.8838 28.2572C23.5324 28.5351 24.2736 28.8131 25.1074 29.091C25.5706 29.1837 26.1265 28.9057 26.2191 28.4425C26.4044 27.9793 26.1265 27.516 25.5706 27.3307Z" fill="black"/>
<path d="M25.5706 35.391C24.8294 35.2057 24.1809 34.9278 23.625 34.6499C23.1618 34.4646 22.6059 34.6499 22.4206 35.1131C22.2353 35.5763 22.4206 36.1322 22.8838 36.3175C23.5324 36.5955 24.2736 36.8734 25.1074 37.1513C25.5706 37.244 26.1265 36.966 26.2191 36.5028C26.4044 36.0396 26.1265 35.4837 25.5706 35.391Z" fill="black"/>
<path d="M25.5706 43.3588C24.8294 43.1735 24.1809 42.8956 23.625 42.6176C23.1618 42.4323 22.6059 42.6176 22.4206 43.0809C22.2353 43.5441 22.4206 44.1 22.8838 44.2853C23.5324 44.5632 24.2736 44.8412 25.1074 45.1191C25.5706 45.2118 26.1265 44.9338 26.2191 44.4706C26.4044 44.0073 26.1265 43.5441 25.5706 43.3588Z" fill="black"/>
</svg>
