<svg width="65" height="65" viewBox="0 0 65 65" fill="none" xmlns="http://www.w3.org/2000/svg">
<g clip-path="url(#clip0_47_148)">
<path d="M57.1114 35.529V32.5194C57.1114 31.9924 56.6842 31.5654 56.1573 31.5654C55.6305 31.5654 55.2033 31.9924 55.2033 32.5194V34.7429C53.8063 34.2834 52.315 34.0338 50.7663 34.0338C50.6552 34.0338 50.5432 34.0363 50.4312 34.0389V20.6643C50.4312 20.1373 50.004 19.7102 49.4772 19.7102H49.0996L52.8172 15.7579L56.5348 19.7102H56.1572C55.6304 19.7102 55.2032 20.1373 55.2032 20.6643V28.7963C55.2032 29.3232 55.6302 29.7503 56.1572 29.7503C56.6842 29.7503 57.1113 29.3232 57.1113 28.7963V21.6183H58.7418C59.5527 21.6452 60.0118 20.5828 59.4368 20.0107L53.5121 13.7121C53.1543 13.3151 52.4801 13.3151 52.1224 13.7121L46.1977 20.0107C45.6226 20.5829 46.082 21.6452 46.8927 21.6183H48.5233V28.7758C47.2947 26.7059 45.5441 24.9861 43.4588 23.793V12.2022H45.0894C45.9003 12.2291 46.3593 11.1665 45.7844 10.5946L39.8597 4.29609C39.5018 3.8991 38.8277 3.8991 38.47 4.29609L32.5453 10.5946C31.9701 11.1667 32.4295 12.2293 33.2403 12.2022H34.8708V22.0743C33.0558 22.298 31.3431 22.8725 29.8066 23.7325V18.9249H31.4371C32.248 18.9518 32.7071 17.8892 32.1321 17.3172L26.2074 11.0186C25.8496 10.6217 25.1754 10.6217 24.8177 11.0186L18.893 17.3172C18.3179 17.8893 18.7773 18.9517 19.588 18.9249H21.2186V32.0069C20.7655 31.9565 20.3086 31.9298 19.8486 31.9298C18.5619 31.9298 17.321 32.129 16.1542 32.4967V10.7029H17.7847C18.5956 10.7298 19.0546 9.66735 18.4797 9.09529L12.5548 2.79652C12.197 2.39953 11.5228 2.39953 11.165 2.79652L5.24024 9.09517C4.66502 9.66735 5.12446 10.7297 5.93519 10.7028H7.56577V18.528C7.56577 19.055 7.99297 19.4821 8.51982 19.4821C9.04668 19.4821 9.47388 19.055 9.47388 18.528V9.74885C9.47388 9.22187 9.04681 8.7948 8.51982 8.7948H8.14227L11.8598 4.84249L15.5774 8.7948H15.1998C14.673 8.7948 14.2458 9.22187 14.2458 9.74885V33.2801C12.2978 34.2795 10.6496 35.7829 9.47362 37.6171V22.3442C9.47362 21.8173 9.04655 21.3902 8.51957 21.3902C7.99271 21.3902 7.56552 21.8173 7.56552 22.3442V43.3592C7.56247 43.4025 7.55866 43.4458 7.556 43.4892C3.19516 44.4427 0 48.3451 0 52.883C0 58.1864 4.31476 62.5012 9.61822 62.5012H38.9558C39.4827 62.5012 39.9099 62.0741 39.9099 61.5471C39.9099 61.0201 39.4828 60.5931 38.9558 60.5931H9.61822C5.36682 60.5931 1.90798 57.1342 1.90798 52.8828C1.90798 49.024 4.79007 45.7383 8.61187 45.2402C9.08845 45.1782 9.44442 44.7712 9.44265 44.2906C9.44252 44.2735 9.44214 44.2565 9.44138 44.2359C9.44595 38.5013 14.1127 33.8376 19.8484 33.8376C21.1131 33.8376 22.3525 34.0641 23.5318 34.5105C24.0709 34.7301 24.7242 34.3567 24.8097 33.7811C25.8035 28.0418 30.7577 23.8761 36.5898 23.8761C42.9044 23.8761 48.147 28.8095 48.5252 35.1075C48.6214 36.2941 49.9577 35.936 50.7665 35.9419C57.563 35.9419 63.0921 41.4713 63.0921 48.2676C63.0921 55.0639 57.563 60.5932 50.7665 60.5932H42.7718C42.2449 60.5932 41.8177 61.0203 41.8177 61.5473C41.8177 62.0742 42.2449 62.5013 42.7718 62.5013H50.7663C58.6148 62.5013 65 56.1161 65 48.2676C65 42.6978 61.7838 37.8658 57.1114 35.529ZM39.1648 6.34206L42.8824 10.2942H42.5049C41.9781 10.2942 41.5509 10.7213 41.5509 11.2483V22.8863C40.0632 22.3145 38.4547 21.9931 36.7788 21.9705V11.2482C36.7788 10.7212 36.3516 10.2941 35.8248 10.2941H35.4472L39.1648 6.34206ZM23.1589 32.3819C23.1481 32.3789 23.1371 32.3763 23.1263 32.3734V17.9707C23.1263 17.4437 22.6991 17.0167 22.1722 17.0167H21.7948L25.5124 13.0645L29.2299 17.0167H28.8525C28.3257 17.0167 27.8985 17.4437 27.8985 17.9707V25.0199C25.6162 26.8531 23.918 29.4045 23.1589 32.3819Z" fill="black"/>
<path d="M35.9502 43.2899C36.4771 43.2899 36.9043 42.8629 36.9043 42.3359C36.9043 41.8089 36.4771 41.3818 35.9502 41.3818H31.4829C30.956 41.3818 30.5288 41.8089 30.5288 42.3359V52.9384C30.5288 53.4654 30.956 53.8924 31.4829 53.8924H35.9502C36.4771 53.8924 36.9043 53.4654 36.9043 52.9384C36.9043 52.4114 36.4771 51.9843 35.9502 51.9843H32.4368V48.5911H35.6208C36.1476 48.5911 36.5748 48.1641 36.5748 47.6371C36.5748 47.1101 36.1478 46.683 35.6208 46.683H32.4368V43.2898H35.9502V43.2899Z" fill="#2D6AFF"/>
<path d="M24.6417 52.0331C23.4717 52.0331 22.3421 51.5573 21.62 50.7604C21.2662 50.3701 20.6629 50.3405 20.2724 50.694C19.882 51.0479 19.8523 51.6511 20.206 52.0417C21.2838 53.2311 22.9419 53.9412 24.6416 53.9412C26.6772 53.9412 28.4506 52.6062 28.7667 50.8358C29.1313 48.7937 27.5255 47.4256 25.901 46.8265C24.524 46.3186 23.2468 45.7641 22.9243 45.6225C22.5824 45.3719 22.4165 44.9718 22.4787 44.5388C22.5569 43.9938 22.9756 43.5565 23.5988 43.3688C25.3155 42.8514 26.8667 44.0954 26.8973 44.1204C27.3006 44.4565 27.9 44.4034 28.238 44.0012C28.577 43.5979 28.525 42.996 28.1216 42.657C28.0269 42.5775 25.7753 40.7207 23.0483 41.5419C21.7157 41.9434 20.7737 42.9879 20.5899 44.2678C20.4189 45.4596 20.9349 46.6055 21.9367 47.2587C21.9789 47.2862 22.0232 47.3104 22.0691 47.3308C22.1306 47.3581 23.5928 48.009 25.2404 48.6167C26.4234 49.053 27.024 49.7397 26.8882 50.5007C26.7557 51.2434 25.9233 52.0331 24.6417 52.0331Z" fill="#2D6AFF"/>
<path d="M50.4516 47.637C50.4516 44.1609 47.6236 41.333 44.1476 41.333C40.6715 41.333 37.8435 44.161 37.8435 47.637C37.8435 51.1131 40.6715 53.941 44.1476 53.941C47.6236 53.9411 50.4516 51.1131 50.4516 47.637ZM39.7515 47.637C39.7515 45.2129 41.7236 43.241 44.1475 43.241C46.5714 43.241 48.5435 45.2129 48.5435 47.637C48.5435 50.061 46.5714 52.033 44.1475 52.033C41.7236 52.0331 39.7515 50.061 39.7515 47.637Z" fill="#2D6AFF"/>
</g>
<defs>
<clipPath id="clip0_47_148">
<rect width="65" height="65" fill="white"/>
</clipPath>
</defs>
</svg>
