<svg width="182" height="70" viewBox="0 0 182 70" fill="none" xmlns="http://www.w3.org/2000/svg">
<g clip-path="url(#clip0_7_4149)">
<rect width="181.688" height="69.75" rx="2.25" fill="white"/>
<path d="M21.715 24.1465C21.8834 23.6282 22.6166 23.6282 22.785 24.1465L23.8918 27.5528C23.9671 27.7846 24.183 27.9415 24.4267 27.9415H28.0084C28.5533 27.9415 28.7798 28.6388 28.339 28.9591L25.4414 31.0643C25.2442 31.2075 25.1617 31.4614 25.2371 31.6932L26.3438 35.0995C26.5122 35.6178 25.9191 36.0487 25.4782 35.7284L22.5806 33.6232C22.3835 33.48 22.1165 33.48 21.9194 33.6232L19.0218 35.7284C18.5809 36.0487 17.9878 35.6178 18.1562 35.0995L19.2629 31.6932C19.3383 31.4614 19.2558 31.2075 19.0586 31.0643L16.161 28.9591C15.7202 28.6388 15.9467 27.9415 16.4916 27.9415H20.0733C20.317 27.9415 20.5329 27.7846 20.6082 27.5528L21.715 24.1465Z" fill="#FF492C"/>
<path d="M37.465 24.1465C37.6334 23.6282 38.3666 23.6282 38.535 24.1465L39.6418 27.5528C39.7171 27.7846 39.933 27.9415 40.1767 27.9415H43.7584C44.3033 27.9415 44.5298 28.6388 44.089 28.9591L41.1914 31.0643C40.9942 31.2075 40.9117 31.4614 40.9871 31.6932L42.0938 35.0995C42.2622 35.6178 41.6691 36.0487 41.2282 35.7284L38.3306 33.6232C38.1335 33.48 37.8665 33.48 37.6694 33.6232L34.7718 35.7284C34.3309 36.0487 33.7378 35.6178 33.9062 35.0995L35.0129 31.6932C35.0883 31.4614 35.0058 31.2075 34.8086 31.0643L31.911 28.9591C31.4702 28.6388 31.6967 27.9415 32.2416 27.9415H35.8233C36.067 27.9415 36.2829 27.7846 36.3582 27.5528L37.465 24.1465Z" fill="#FF492C"/>
<path d="M53.215 24.1465C53.3834 23.6282 54.1166 23.6282 54.285 24.1465L55.3918 27.5528C55.4671 27.7846 55.683 27.9415 55.9267 27.9415H59.5084C60.0533 27.9415 60.2798 28.6388 59.839 28.9591L56.9414 31.0643C56.7442 31.2075 56.6617 31.4614 56.7371 31.6932L57.8438 35.0995C58.0122 35.6178 57.4191 36.0487 56.9782 35.7284L54.0806 33.6232C53.8835 33.48 53.6165 33.48 53.4194 33.6232L50.5218 35.7284C50.0809 36.0487 49.4878 35.6178 49.6562 35.0995L50.7629 31.6932C50.8383 31.4614 50.7558 31.2075 50.5586 31.0643L47.661 28.9591C47.2202 28.6388 47.4467 27.9415 47.9916 27.9415H51.5733C51.817 27.9415 52.0329 27.7846 52.1082 27.5528L53.215 24.1465Z" fill="#FF492C"/>
<path d="M68.965 24.1465C69.1334 23.6282 69.8666 23.6282 70.035 24.1465L71.1418 27.5528C71.2171 27.7846 71.433 27.9415 71.6767 27.9415H75.2584C75.8033 27.9415 76.0298 28.6388 75.589 28.9591L72.6914 31.0643C72.4942 31.2075 72.4117 31.4614 72.4871 31.6932L73.5938 35.0995C73.7622 35.6178 73.1691 36.0487 72.7282 35.7284L69.8306 33.6232C69.6335 33.48 69.3665 33.48 69.1694 33.6232L66.2718 35.7284C65.8309 36.0487 65.2378 35.6178 65.4062 35.0995L66.5129 31.6932C66.5883 31.4614 66.5058 31.2075 66.3086 31.0643L63.411 28.9591C62.9702 28.6388 63.1967 27.9415 63.7416 27.9415H67.3233C67.567 27.9415 67.7829 27.7846 67.8582 27.5528L68.965 24.1465Z" fill="#FF492C"/>
<path d="M84.8488 24.1899C84.9751 23.8012 85.5249 23.8012 85.6512 24.1899L86.758 27.5963C86.8521 27.886 87.1221 28.0821 87.4267 28.0821H91.0084C91.4171 28.0821 91.587 28.6051 91.2563 28.8453L88.3587 30.9505C88.1123 31.1296 88.0092 31.4469 88.1033 31.7367L89.2101 35.143C89.3364 35.5317 88.8915 35.8549 88.5609 35.6147L85.6633 33.5094C85.4169 33.3304 85.0831 33.3304 84.8367 33.5094L81.9391 35.6147C81.6085 35.8549 81.1636 35.5317 81.2899 35.143L82.3967 31.7367C82.4908 31.4469 82.3877 31.1296 82.1413 30.9505L79.2437 28.8453C78.913 28.6051 79.0829 28.0821 79.4916 28.0821H83.0733C83.3779 28.0821 83.6479 27.886 83.742 27.5963L84.8488 24.1899Z" stroke="#FF3722" stroke-width="0.28125"/>
<mask id="mask0_7_4149" style="mask-type:alpha" maskUnits="userSpaceOnUse" x="77" y="22" width="9" height="17">
<rect x="77.375" y="22.5" width="7.875" height="15.75" fill="#D9D9D9"/>
</mask>
<g mask="url(#mask0_7_4149)">
<path d="M84.715 24.1465C84.8834 23.6282 85.6166 23.6282 85.785 24.1465L86.8918 27.5528C86.9671 27.7846 87.183 27.9415 87.4267 27.9415H91.0084C91.5533 27.9415 91.7798 28.6388 91.339 28.9591L88.4414 31.0643C88.2442 31.2075 88.1617 31.4614 88.2371 31.6932L89.3438 35.0995C89.5122 35.6178 88.9191 36.0487 88.4782 35.7284L85.5806 33.6232C85.3835 33.48 85.1165 33.48 84.9194 33.6232L82.0218 35.7284C81.5809 36.0487 80.9878 35.6178 81.1562 35.0995L82.2629 31.6932C82.3383 31.4614 82.2558 31.2075 82.0586 31.0643L79.161 28.9591C78.7202 28.6388 78.9467 27.9415 79.4916 27.9415H83.0733C83.317 27.9415 83.5329 27.7846 83.6082 27.5528L84.715 24.1465Z" fill="#FF492C"/>
</g>
<path d="M12.196 46.25V39.7045H14.2127C14.6261 39.7045 14.9819 39.7855 15.2802 39.9474C15.5785 40.1094 15.8075 40.3342 15.9673 40.6218C16.1271 40.9073 16.207 41.2397 16.207 41.619C16.207 41.994 16.1271 42.3242 15.9673 42.6097C15.8075 42.8931 15.5785 43.1147 15.2802 43.2745C14.984 43.4343 14.6293 43.5142 14.2159 43.5142H12.4102V43.1403H14.2063C14.543 43.1403 14.8306 43.0774 15.0692 42.9517C15.3079 42.826 15.4911 42.6502 15.619 42.4244C15.7468 42.1964 15.8107 41.9279 15.8107 41.619C15.8107 41.3079 15.7468 41.0373 15.619 40.8072C15.4911 40.5749 15.3068 40.3949 15.0661 40.267C14.8274 40.1392 14.5398 40.0753 14.2031 40.0753H12.5955V46.25H12.196ZM14.8839 43.2841L16.4947 46.25H16.0344L14.4332 43.2841H14.8839ZM19.5277 46.3523C19.0845 46.3523 18.6989 46.2425 18.3707 46.0231C18.0426 45.8036 17.7891 45.5032 17.6101 45.1218C17.4311 44.7404 17.3416 44.3058 17.3416 43.8178C17.3416 43.3278 17.4311 42.891 17.6101 42.5075C17.7912 42.1239 18.0394 41.8214 18.3548 41.5998C18.6701 41.3782 19.0302 41.2674 19.435 41.2674C19.7099 41.2674 19.9698 41.3228 20.2148 41.4336C20.462 41.5423 20.6793 41.6999 20.8668 41.9066C21.0565 42.1133 21.2045 42.3626 21.3111 42.6545C21.4197 42.9464 21.4741 43.2745 21.4741 43.6388V43.8817H17.5877V43.527H21.0842C21.0842 43.1712 21.0117 42.8505 20.8668 42.565C20.7219 42.2795 20.5249 42.0526 20.2756 41.8842C20.0263 41.7159 19.7461 41.6317 19.435 41.6317C19.109 41.6317 18.8182 41.7234 18.5625 41.9066C18.3089 42.0877 18.1076 42.3327 17.9585 42.6417C17.8114 42.9506 17.7347 43.2958 17.7283 43.6772V43.837C17.7283 44.2461 17.7997 44.6136 17.9425 44.9396C18.0874 45.2635 18.294 45.5202 18.5625 45.7099C18.831 45.8974 19.1527 45.9911 19.5277 45.9911C19.7962 45.9911 20.0252 45.9464 20.2148 45.8569C20.4066 45.7653 20.5632 45.6545 20.6847 45.5245C20.8061 45.3945 20.8977 45.2688 20.9595 45.1474L21.3143 45.2912C21.2397 45.4553 21.1236 45.6193 20.9659 45.7834C20.8104 45.9453 20.6122 46.0806 20.3714 46.1893C20.1328 46.2979 19.8516 46.3523 19.5277 46.3523ZM24.1172 46.3555C23.8338 46.3555 23.5739 46.299 23.3374 46.1861C23.103 46.0732 22.9144 45.908 22.7717 45.6907C22.631 45.4734 22.5607 45.2092 22.5607 44.8981C22.5607 44.6935 22.5969 44.5135 22.6694 44.358C22.7418 44.2024 22.8537 44.0682 23.005 43.9553C23.1563 43.8423 23.3501 43.7496 23.5866 43.6772C23.8232 43.6026 24.1055 43.5451 24.4336 43.5046C24.6829 43.4748 24.9055 43.446 25.1016 43.4183C25.2976 43.3885 25.451 43.3427 25.5618 43.2809C25.6747 43.2191 25.7312 43.1254 25.7312 42.9996V42.7951C25.7312 42.4371 25.6183 42.1527 25.3924 41.9418C25.1665 41.7308 24.8555 41.6254 24.4592 41.6254C24.1076 41.6254 23.8114 41.7031 23.5707 41.8587C23.332 42.0121 23.1648 42.2102 23.0689 42.4531L22.7013 42.3157C22.7951 42.0813 22.9304 41.8864 23.1072 41.7308C23.2862 41.5753 23.4908 41.4592 23.7209 41.3825C23.9531 41.3058 24.196 41.2674 24.4496 41.2674C24.669 41.2674 24.8778 41.2983 25.076 41.3601C25.2763 41.4219 25.4542 41.5156 25.6097 41.6413C25.7674 41.767 25.892 41.9279 25.9837 42.1239C26.0753 42.3178 26.1211 42.5501 26.1211 42.8207V46.25H25.7312V45.3647H25.7024C25.6172 45.5479 25.5 45.7152 25.3509 45.8665C25.2038 46.0156 25.0259 46.1349 24.8171 46.2244C24.6104 46.3118 24.3771 46.3555 24.1172 46.3555ZM24.1555 45.9943C24.4624 45.9943 24.734 45.9197 24.9705 45.7706C25.2092 45.6193 25.3956 45.4126 25.5298 45.1506C25.6641 44.8885 25.7312 44.5913 25.7312 44.2589V43.5366C25.6822 43.5792 25.6108 43.6175 25.517 43.6516C25.4254 43.6836 25.321 43.7124 25.2038 43.7379C25.0888 43.7614 24.9673 43.7827 24.8395 43.8018C24.7138 43.8189 24.5913 43.8349 24.4719 43.8498C24.114 43.8924 23.8221 43.9585 23.5962 44.0479C23.3725 44.1353 23.2085 44.2504 23.104 44.3931C23.0018 44.5359 22.9506 44.7085 22.9506 44.9109C22.9506 45.2454 23.0657 45.5096 23.2958 45.7035C23.5259 45.8974 23.8125 45.9943 24.1555 45.9943ZM29.4402 46.3523C29.046 46.3523 28.7019 46.2436 28.4078 46.0263C28.1138 45.8089 27.8858 45.5096 27.7239 45.1282C27.5641 44.7447 27.4842 44.3047 27.4842 43.8082C27.4842 43.3161 27.5652 42.8793 27.7271 42.4979C27.8912 42.1143 28.1202 41.8139 28.4142 41.5966C28.7083 41.3771 29.0513 41.2674 29.4434 41.2674C29.7246 41.2674 29.9686 41.3217 30.1752 41.4304C30.3841 41.5369 30.5588 41.6786 30.6994 41.8555C30.8422 42.0323 30.9508 42.2262 31.0254 42.4371H31.0637V39.7045H31.4505V46.25H31.0733V45.1793H31.0254C30.9466 45.3903 30.8368 45.5852 30.6962 45.7642C30.5556 45.9411 30.3809 46.0838 30.1721 46.1925C29.9632 46.299 29.7193 46.3523 29.4402 46.3523ZM29.4753 45.9911C29.8077 45.9911 30.0922 45.8963 30.3287 45.7067C30.5673 45.5149 30.7495 45.255 30.8752 44.9268C31.003 44.5966 31.0669 44.2227 31.0669 43.805C31.0669 43.3874 31.003 43.0156 30.8752 42.6896C30.7495 42.3615 30.5673 42.1037 30.3287 41.9162C30.0922 41.7266 29.8077 41.6317 29.4753 41.6317C29.1387 41.6317 28.85 41.7276 28.6092 41.9194C28.3706 42.109 28.1873 42.3679 28.0595 42.696C27.9338 43.0241 27.8709 43.3938 27.8709 43.805C27.8709 44.2163 27.9338 44.587 28.0595 44.9173C28.1873 45.2475 28.3706 45.5096 28.6092 45.7035C28.85 45.8952 29.1387 45.9911 29.4753 45.9911ZM37.5613 46.3523C37.1564 46.3523 36.7963 46.2436 36.481 46.0263C36.1657 45.8068 35.9174 45.5053 35.7363 45.1218C35.5552 44.7383 35.4647 44.3015 35.4647 43.8114C35.4647 43.3192 35.5552 42.8825 35.7363 42.5011C35.9174 42.1175 36.1657 41.8161 36.481 41.5966C36.7963 41.3771 37.1564 41.2674 37.5613 41.2674C37.9661 41.2674 38.3262 41.3771 38.6415 41.5966C38.9569 41.8161 39.2051 42.1175 39.3862 42.5011C39.5673 42.8846 39.6578 43.3214 39.6578 43.8114C39.6578 44.3015 39.5673 44.7383 39.3862 45.1218C39.2051 45.5053 38.9569 45.8068 38.6415 46.0263C38.3262 46.2436 37.9661 46.3523 37.5613 46.3523ZM37.5613 45.9911C37.9043 45.9911 38.2037 45.8942 38.4593 45.7003C38.7172 45.5064 38.9164 45.2443 39.057 44.9141C39.1998 44.5838 39.2711 44.2163 39.2711 43.8114C39.2711 43.4066 39.1998 43.0401 39.057 42.712C38.9142 42.3817 38.715 42.1197 38.4593 41.9258C38.2037 41.7298 37.9043 41.6317 37.5613 41.6317C37.2182 41.6317 36.9189 41.7298 36.6632 41.9258C36.4075 42.1197 36.2083 42.3817 36.0655 42.712C35.9228 43.0401 35.8514 43.4066 35.8514 43.8114C35.8514 44.2163 35.9217 44.5838 36.0623 44.9141C36.2051 45.2443 36.4043 45.5064 36.66 45.7003C36.9178 45.8942 37.2182 45.9911 37.5613 45.9911ZM44.1459 44.5082V41.3409H44.5358V46.25H44.1459V45.4542H44.1139C43.9988 45.7077 43.8124 45.9144 43.5546 46.0742C43.2989 46.234 42.9964 46.3139 42.6469 46.3139C42.3252 46.3139 42.0407 46.2436 41.7936 46.103C41.5464 45.9624 41.3525 45.7631 41.2119 45.5053C41.0713 45.2454 41.001 44.9364 41.001 44.5785V41.3409H41.3909V44.5625C41.3909 44.9716 41.5145 45.3029 41.7616 45.5565C42.0109 45.8079 42.3327 45.9336 42.7268 45.9336C42.9825 45.9336 43.218 45.8761 43.4332 45.761C43.6483 45.646 43.8209 45.4819 43.9509 45.2688C44.0809 45.0536 44.1459 44.8001 44.1459 44.5082ZM46.1514 46.25V41.3409H46.5317V42.108H46.5669C46.6734 41.8565 46.8534 41.6552 47.107 41.5039C47.3605 41.3505 47.6492 41.2738 47.9731 41.2738C48.0072 41.2738 48.0413 41.2738 48.0754 41.2738C48.1095 41.2738 48.1414 41.2749 48.1713 41.277V41.6701C48.1457 41.668 48.1148 41.6648 48.0786 41.6605C48.0445 41.6541 48.0019 41.6509 47.9507 41.6509C47.678 41.6509 47.4351 41.7095 47.222 41.8267C47.0111 41.9439 46.8449 42.1058 46.7235 42.3125C46.602 42.517 46.5413 42.7514 46.5413 43.0156V46.25H46.1514ZM51.75 46.25V41.3409H52.1303V42.108H52.1655C52.272 41.8565 52.4521 41.6552 52.7056 41.5039C52.9592 41.3505 53.2479 41.2738 53.5717 41.2738C53.6058 41.2738 53.6399 41.2738 53.674 41.2738C53.7081 41.2738 53.7401 41.2749 53.7699 41.277V41.6701C53.7443 41.668 53.7134 41.6648 53.6772 41.6605C53.6431 41.6541 53.6005 41.6509 53.5494 41.6509C53.2766 41.6509 53.0337 41.7095 52.8207 41.8267C52.6097 41.9439 52.4435 42.1058 52.3221 42.3125C52.2006 42.517 52.1399 42.7514 52.1399 43.0156V46.25H51.75ZM56.5824 46.3523C56.1392 46.3523 55.7536 46.2425 55.4254 46.0231C55.0973 45.8036 54.8438 45.5032 54.6648 45.1218C54.4858 44.7404 54.3963 44.3058 54.3963 43.8178C54.3963 43.3278 54.4858 42.891 54.6648 42.5075C54.8459 42.1239 55.0941 41.8214 55.4094 41.5998C55.7248 41.3782 56.0849 41.2674 56.4897 41.2674C56.7646 41.2674 57.0245 41.3228 57.2695 41.4336C57.5167 41.5423 57.734 41.6999 57.9215 41.9066C58.1112 42.1133 58.2592 42.3626 58.3658 42.6545C58.4744 42.9464 58.5288 43.2745 58.5288 43.6388V43.8817H54.6424V43.527H58.1388C58.1388 43.1712 58.0664 42.8505 57.9215 42.565C57.7766 42.2795 57.5795 42.0526 57.3303 41.8842C57.081 41.7159 56.8008 41.6317 56.4897 41.6317C56.1637 41.6317 55.8729 41.7234 55.6172 41.9066C55.3636 42.0877 55.1623 42.3327 55.0131 42.6417C54.8661 42.9506 54.7894 43.2958 54.783 43.6772V43.837C54.783 44.2461 54.8544 44.6136 54.9972 44.9396C55.142 45.2635 55.3487 45.5202 55.6172 45.7099C55.8857 45.8974 56.2074 45.9911 56.5824 45.9911C56.8509 45.9911 57.0799 45.9464 57.2695 45.8569C57.4613 45.7653 57.6179 45.6545 57.7393 45.5245C57.8608 45.3945 57.9524 45.2688 58.0142 45.1474L58.369 45.2912C58.2944 45.4553 58.1783 45.6193 58.0206 45.7834C57.8651 45.9453 57.6669 46.0806 57.4261 46.1893C57.1875 46.2979 56.9062 46.3523 56.5824 46.3523ZM63.3108 41.3409L61.537 46.25H61.096L59.3222 41.3409H59.7409L61.3005 45.7482H61.3325L62.8921 41.3409H63.3108ZM64.5485 46.25V41.3409H64.9352V46.25H64.5485ZM64.7434 40.4716C64.6582 40.4716 64.5836 40.4418 64.5197 40.3821C64.4579 40.3224 64.427 40.25 64.427 40.1648C64.427 40.0795 64.4579 40.0071 64.5197 39.9474C64.5815 39.8878 64.6561 39.858 64.7434 39.858C64.8287 39.858 64.9022 39.8878 64.964 39.9474C65.0279 40.0071 65.0598 40.0795 65.0598 40.1648C65.0598 40.25 65.0289 40.3224 64.9672 40.3821C64.9054 40.4418 64.8308 40.4716 64.7434 40.4716ZM68.4828 46.3523C68.0396 46.3523 67.6539 46.2425 67.3258 46.0231C66.9977 45.8036 66.7441 45.5032 66.5652 45.1218C66.3862 44.7404 66.2967 44.3058 66.2967 43.8178C66.2967 43.3278 66.3862 42.891 66.5652 42.5075C66.7463 42.1239 66.9945 41.8214 67.3098 41.5998C67.6252 41.3782 67.9853 41.2674 68.3901 41.2674C68.665 41.2674 68.9249 41.3228 69.1699 41.4336C69.4171 41.5423 69.6344 41.6999 69.8219 41.9066C70.0115 42.1133 70.1596 42.3626 70.2662 42.6545C70.3748 42.9464 70.4292 43.2745 70.4292 43.6388V43.8817H66.5428V43.527H70.0392C70.0392 43.1712 69.9668 42.8505 69.8219 42.565C69.677 42.2795 69.4799 42.0526 69.2306 41.8842C68.9814 41.7159 68.7012 41.6317 68.3901 41.6317C68.0641 41.6317 67.7733 41.7234 67.5176 41.9066C67.264 42.0877 67.0627 42.3327 66.9135 42.6417C66.7665 42.9506 66.6898 43.2958 66.6834 43.6772V43.837C66.6834 44.2461 66.7548 44.6136 66.8975 44.9396C67.0424 45.2635 67.2491 45.5202 67.5176 45.7099C67.786 45.8974 68.1078 45.9911 68.4828 45.9911C68.7512 45.9911 68.9803 45.9464 69.1699 45.8569C69.3617 45.7653 69.5183 45.6545 69.6397 45.5245C69.7612 45.3945 69.8528 45.2688 69.9146 45.1474L70.2694 45.2912C70.1948 45.4553 70.0787 45.6193 69.921 45.7834C69.7654 45.9453 69.5673 46.0806 69.3265 46.1893C69.0879 46.2979 68.8066 46.3523 68.4828 46.3523ZM72.8422 46.25L71.372 41.3409H71.7811L73.0467 45.6779H73.0819L74.3507 41.3409H74.7566L76.0222 45.6747H76.0542L77.3198 41.3409H77.7289L76.2587 46.25H75.824L74.5712 41.9769H74.5297L73.2768 46.25H72.8422ZM82.0627 42.3988L81.7015 42.4947C81.644 42.3157 81.562 42.1612 81.4554 42.0312C81.3489 41.9013 81.2147 41.8011 81.0527 41.7308C80.8929 41.6584 80.7012 41.6222 80.4775 41.6222C80.1174 41.6222 79.8223 41.7116 79.5922 41.8906C79.3642 42.0696 79.2502 42.3029 79.2502 42.5906C79.2502 42.8249 79.3279 43.0188 79.4835 43.1722C79.639 43.3235 79.8766 43.4386 80.1962 43.5174L80.9505 43.706C81.3382 43.8018 81.6301 43.9574 81.8262 44.1726C82.0222 44.3857 82.1202 44.6509 82.1202 44.9684C82.1202 45.239 82.0467 45.4787 81.8997 45.6875C81.7527 45.8963 81.5492 46.0593 81.2892 46.1765C81.0314 46.2937 80.731 46.3523 80.388 46.3523C79.9299 46.3523 79.5538 46.2457 79.2598 46.0327C78.9657 45.8175 78.7772 45.5096 78.6941 45.109L79.068 45.0131C79.1383 45.3327 79.2843 45.5767 79.5059 45.745C79.7296 45.9112 80.0225 45.9943 80.3848 45.9943C80.7853 45.9943 81.1081 45.8995 81.3532 45.7099C81.6003 45.5202 81.7239 45.2773 81.7239 44.9812C81.7239 44.7553 81.6515 44.5646 81.5066 44.4091C81.3617 44.2536 81.1422 44.1396 80.8482 44.0671L80.0652 43.8754C79.6646 43.7773 79.3642 43.6207 79.1639 43.4055C78.9636 43.1882 78.8635 42.9208 78.8635 42.6033C78.8635 42.3391 78.9327 42.1069 79.0712 41.9066C79.2097 41.7063 79.4004 41.5497 79.6433 41.4368C79.8862 41.3239 80.1642 41.2674 80.4775 41.2674C80.8929 41.2674 81.2317 41.3654 81.4938 41.5614C81.7559 41.7575 81.9455 42.0366 82.0627 42.3988ZM87.8259 46.3523C87.4211 46.3523 87.061 46.2436 86.7456 46.0263C86.4303 45.8068 86.1821 45.5053 86.001 45.1218C85.8199 44.7383 85.7293 44.3015 85.7293 43.8114C85.7293 43.3192 85.8199 42.8825 86.001 42.5011C86.1821 42.1175 86.4303 41.8161 86.7456 41.5966C87.061 41.3771 87.4211 41.2674 87.8259 41.2674C88.2307 41.2674 88.5908 41.3771 88.9062 41.5966C89.2215 41.8161 89.4697 42.1175 89.6508 42.5011C89.8319 42.8846 89.9225 43.3214 89.9225 43.8114C89.9225 44.3015 89.8319 44.7383 89.6508 45.1218C89.4697 45.5053 89.2215 45.8068 88.9062 46.0263C88.5908 46.2436 88.2307 46.3523 87.8259 46.3523ZM87.8259 45.9911C88.1689 45.9911 88.4683 45.8942 88.724 45.7003C88.9818 45.5064 89.181 45.2443 89.3216 44.9141C89.4644 44.5838 89.5358 44.2163 89.5358 43.8114C89.5358 43.4066 89.4644 43.0401 89.3216 42.712C89.1789 42.3817 88.9797 42.1197 88.724 41.9258C88.4683 41.7298 88.1689 41.6317 87.8259 41.6317C87.4829 41.6317 87.1835 41.7298 86.9278 41.9258C86.6721 42.1197 86.4729 42.3817 86.3302 42.712C86.1874 43.0401 86.116 43.4066 86.116 43.8114C86.116 44.2163 86.1863 44.5838 86.327 44.9141C86.4697 45.2443 86.6689 45.5064 86.9246 45.7003C87.1824 45.8942 87.4829 45.9911 87.8259 45.9911ZM91.6555 43.0668V46.25H91.2656V41.3409H91.646V42.1175H91.6843C91.7994 41.864 91.9837 41.6605 92.2372 41.5071C92.4908 41.3537 92.7923 41.277 93.1417 41.277C93.4719 41.277 93.7617 41.3473 94.011 41.4879C94.2624 41.6286 94.4585 41.8288 94.5991 42.0888C94.7418 42.3466 94.8132 42.6545 94.8132 43.0124V46.25H94.4233V43.0284C94.4233 42.6108 94.2987 42.2752 94.0494 42.0217C93.8022 41.766 93.4751 41.6381 93.0682 41.6381C92.7955 41.6381 92.5526 41.6978 92.3395 41.8171C92.1264 41.9364 91.9592 42.1037 91.8377 42.3189C91.7163 42.532 91.6555 42.7812 91.6555 43.0668Z" fill="#6A6A6A"/>
<path d="M107.5 0H181.688V69.75H107.5L126.361 36.8835L107.5 0Z" fill="#FF3A22"/>
<g clip-path="url(#clip1_7_4149)">
<path d="M155.614 43.4317C156.811 45.5087 157.995 47.5621 159.177 49.6133C153.94 53.6227 145.792 54.1073 139.761 49.4901C132.82 44.1725 131.679 35.0992 135.395 28.5678C139.669 21.0553 147.667 19.3939 152.817 20.6122C152.678 20.9147 149.594 27.3135 149.594 27.3135C149.594 27.3135 149.35 27.3295 149.212 27.3322C147.69 27.3967 146.556 27.7509 145.341 28.3792C144.008 29.0748 142.865 30.0864 142.013 31.3256C141.161 32.5648 140.626 33.9937 140.454 35.4876C140.274 37.0026 140.483 38.5384 141.062 39.95C141.552 41.1433 142.244 42.2032 143.172 43.098C144.596 44.472 146.29 45.3227 148.254 45.6044C150.114 45.8713 151.903 45.607 153.579 44.7647C154.208 44.4493 154.743 44.1009 155.368 43.623C155.447 43.5714 155.518 43.506 155.614 43.4317Z" fill="white"/>
<path d="M155.626 25.216C155.322 24.917 155.04 24.6411 154.76 24.3635C154.593 24.198 154.431 24.0258 154.26 23.8642C154.199 23.806 154.127 23.7263 154.127 23.7263C154.127 23.7263 154.185 23.6026 154.21 23.5519C154.538 22.8938 155.052 22.4128 155.661 22.0302C156.335 21.6038 157.121 21.3869 157.918 21.4068C158.938 21.4268 159.887 21.6809 160.687 22.3652C161.278 22.8702 161.581 23.511 161.635 24.2758C161.724 25.5662 161.19 26.5544 160.129 27.2441C159.507 27.6498 158.835 27.9635 158.161 28.3351C157.79 28.5402 157.472 28.7204 157.109 29.0915C156.789 29.4639 156.774 29.815 156.774 29.815L161.6 29.8087V31.9583H154.15C154.15 31.9583 154.15 31.8114 154.15 31.7505C154.122 30.6942 154.245 29.7002 154.729 28.7409C155.174 27.8608 155.865 27.2165 156.696 26.7204C157.336 26.3381 158.009 26.0129 158.65 25.6325C159.046 25.398 159.325 25.054 159.323 24.5552C159.323 24.1272 159.012 23.7468 158.567 23.628C157.518 23.345 156.45 23.7966 155.894 24.7568C155.813 24.897 155.731 25.0362 155.626 25.216Z" fill="white"/>
<path d="M164.961 41.1468L160.894 34.1229H152.845L148.752 41.2194H156.86L160.86 48.2099L164.961 41.1468Z" fill="white"/>
</g>
</g>
<defs>
<clipPath id="clip0_7_4149">
<rect width="181.688" height="69.75" rx="2.25" fill="white"/>
</clipPath>
<clipPath id="clip1_7_4149">
<rect width="31.6486" height="32.5371" fill="white" transform="translate(133.312 20.25)"/>
</clipPath>
</defs>
</svg>
