<svg width="30" height="30" viewBox="0 0 30 30" fill="none" xmlns="http://www.w3.org/2000/svg">
<path d="M5.27344 5.46387L9.08555 9.27598C9.84762 8.48592 10.7602 7.85647 11.7694 7.42475C12.7787 6.99304 13.8642 6.76781 14.9619 6.76235C16.0596 6.75689 17.1472 6.97131 18.1607 7.39296C19.1742 7.8146 20.093 8.43495 20.8629 9.21739L24.6715 5.40352C23.401 4.12173 21.8883 3.10537 20.2214 2.41355C18.5545 1.72173 16.7667 1.36827 14.962 1.37372C13.1572 1.37917 11.3716 1.74343 9.70888 2.44531C8.0462 3.14719 6.53968 4.17267 5.27695 5.46212L5.27344 5.46387Z" fill="#F0432C"/>
<path d="M5.32319 24.5953L9.13178 20.7867C8.36993 20.019 7.767 19.1086 7.35754 18.1076C6.94807 17.1065 6.7401 16.0345 6.74554 14.953C6.75098 13.8714 6.96973 12.8016 7.38926 11.8047C7.80878 10.8079 8.42084 9.90353 9.19037 9.14356L5.37944 5.33203C4.10956 6.5926 3.10063 8.09113 2.41034 9.74193C1.72005 11.3927 1.36195 13.1634 1.35651 14.9527C1.35107 16.742 1.69839 18.5148 2.37863 20.1698C3.05886 21.8247 4.05866 23.3294 5.32084 24.5977L5.32319 24.5953Z" fill="#FFBF00"/>
<path d="M17.6943 17.6859V17.7422H17.7506L17.6943 17.6859Z" fill="#24AA49"/>
<path d="M14.9707 28.6061C16.7624 28.6084 18.5368 28.2559 20.1916 27.5691C21.8464 26.8822 23.3489 25.8745 24.6123 24.6041L20.8008 20.7914C20.0368 21.5599 19.1284 22.1698 18.1279 22.586C17.1273 23.0022 16.0544 23.2164 14.9707 23.2164C13.8871 23.2164 12.8141 23.0022 11.8136 22.586C10.813 22.1698 9.90461 21.5599 9.14063 20.7914L5.33203 24.6C6.59477 25.8708 8.09659 26.879 9.75088 27.5666C11.4052 28.2542 13.1792 28.6074 14.9707 28.6061Z" fill="#24AA49"/>
<path d="M28.3801 12.324L17.75 12.3387V17.7422H22.7797C22.3633 18.911 21.6886 19.9707 20.8057 20.8424L24.6172 24.6545C26.213 23.0692 27.3918 21.1137 28.0484 18.9622C28.7049 16.8107 28.8189 14.5302 28.3801 12.324Z" fill="#3384FC"/>
</svg>
