<svg width="199" height="41" viewBox="0 0 199 41" fill="none" xmlns="http://www.w3.org/2000/svg">
<mask id="mask0_2004_249" style="mask-type:alpha" maskUnits="userSpaceOnUse" x="0" y="0" width="199" height="41">
<rect width="199" height="41" fill="#D9D9D9"/>
</mask>
<g mask="url(#mask0_2004_249)">
<path d="M45.708 11.944H53.988C57.444 11.944 60.024 12.652 61.728 14.068C63.432 15.46 64.284 17.488 64.284 20.152C64.284 22.84 63.444 24.928 61.764 26.416C60.084 27.904 57.636 28.648 54.42 28.648H50.46V37H45.708V11.944ZM54.024 24.508C55.824 24.508 57.144 24.184 57.984 23.536C58.848 22.888 59.28 21.796 59.28 20.26C59.28 18.772 58.86 17.716 58.02 17.092C57.18 16.468 55.836 16.156 53.988 16.156H50.46V24.508H54.024ZM83.8016 37L78.6896 27.46H74.2256V37H69.4736V11.944H78.5096C81.7496 11.944 84.1736 12.592 85.7816 13.888C87.3896 15.184 88.1936 17.068 88.1936 19.54C88.1936 21.292 87.7976 22.78 87.0056 24.004C86.2136 25.228 85.0376 26.14 83.4776 26.74L89.0216 37H83.8016ZM74.2256 23.284H78.5456C80.1296 23.284 81.2936 23.008 82.0376 22.456C82.8056 21.904 83.1896 20.968 83.1896 19.648C83.1896 18.376 82.8176 17.476 82.0736 16.948C81.3296 16.42 80.1416 16.156 78.5096 16.156H74.2256V23.284ZM106.093 37.432C103.525 37.432 101.317 36.904 99.4687 35.848C97.6207 34.792 96.2167 33.292 95.2567 31.348C94.2967 29.404 93.8167 27.112 93.8167 24.472C93.8167 21.832 94.2967 19.54 95.2567 17.596C96.2167 15.652 97.6207 14.152 99.4687 13.096C101.317 12.04 103.525 11.512 106.093 11.512C108.661 11.512 110.869 12.04 112.717 13.096C114.565 14.152 115.969 15.652 116.929 17.596C117.889 19.54 118.369 21.832 118.369 24.472C118.369 27.112 117.889 29.404 116.929 31.348C115.969 33.292 114.565 34.792 112.717 35.848C110.869 36.904 108.661 37.432 106.093 37.432ZM106.093 33.04C108.349 33.04 110.125 32.308 111.421 30.844C112.717 29.356 113.365 27.232 113.365 24.472C113.365 21.712 112.717 19.6 111.421 18.136C110.125 16.648 108.349 15.904 106.093 15.904C103.837 15.904 102.061 16.648 100.765 18.136C99.4687 19.6 98.8207 21.712 98.8207 24.472C98.8207 27.232 99.4687 29.356 100.765 30.844C102.061 32.308 103.837 33.04 106.093 33.04Z" fill="#2D6AFF"/>
<path d="M132.691 37.432C131.347 37.432 129.919 37.252 128.407 36.892C126.895 36.532 125.467 36.04 124.123 35.416V30.808C127.243 32.488 130.027 33.328 132.475 33.328C133.699 33.328 134.683 33.064 135.427 32.536C136.195 32.008 136.579 31.264 136.579 30.304C136.579 29.632 136.363 29.068 135.931 28.612C135.523 28.132 135.007 27.748 134.383 27.46C133.759 27.148 132.871 26.776 131.719 26.344C130.159 25.768 128.887 25.216 127.903 24.688C126.919 24.16 126.079 23.416 125.383 22.456C124.687 21.472 124.339 20.212 124.339 18.676C124.339 16.42 125.119 14.668 126.679 13.42C128.239 12.148 130.375 11.512 133.087 11.512C134.359 11.512 135.607 11.656 136.831 11.944C138.055 12.208 139.183 12.604 140.215 13.132V17.632C137.791 16.288 135.451 15.616 133.195 15.616C131.947 15.616 130.963 15.844 130.243 16.3C129.547 16.732 129.199 17.356 129.199 18.172C129.199 18.988 129.559 19.636 130.279 20.116C131.023 20.572 132.163 21.076 133.699 21.628C135.307 22.228 136.627 22.804 137.659 23.356C138.691 23.908 139.579 24.712 140.323 25.768C141.091 26.8 141.499 28.144 141.547 29.8C141.547 32.176 140.743 34.048 139.135 35.416C137.527 36.76 135.379 37.432 132.691 37.432ZM159.354 37.432C156.786 37.432 154.578 36.904 152.73 35.848C150.882 34.792 149.478 33.292 148.518 31.348C147.558 29.404 147.078 27.112 147.078 24.472C147.078 21.832 147.558 19.54 148.518 17.596C149.478 15.652 150.882 14.152 152.73 13.096C154.578 12.04 156.786 11.512 159.354 11.512C161.922 11.512 164.13 12.04 165.978 13.096C167.826 14.152 169.23 15.652 170.19 17.596C171.15 19.54 171.63 21.832 171.63 24.472C171.63 27.112 171.15 29.404 170.19 31.348C169.23 33.292 167.826 34.792 165.978 35.848C164.13 36.904 161.922 37.432 159.354 37.432ZM159.354 33.04C161.61 33.04 163.386 32.308 164.682 30.844C165.978 29.356 166.626 27.232 166.626 24.472C166.626 21.712 165.978 19.6 164.682 18.136C163.386 16.648 161.61 15.904 159.354 15.904C157.098 15.904 155.322 16.648 154.026 18.136C152.73 19.6 152.082 21.712 152.082 24.472C152.082 27.232 152.73 29.356 154.026 30.844C155.322 32.308 157.098 33.04 159.354 33.04ZM191.891 37L185.519 27.82L179.255 37H174.143L183.035 24.22L174.575 11.944H179.795L185.735 20.512L191.567 11.944H196.679L188.219 24.112L197.111 37H191.891Z" fill="#1D2B51"/>
<mask id="mask1_2004_249" style="mask-type:alpha" maskUnits="userSpaceOnUse" x="-7" y="7" width="42" height="31">
<path d="M-7 15C-7 10.5817 -3.41828 7 1 7H27C31.4183 7 35 10.5817 35 15V30C35 34.4183 31.4183 38 27 38H1C-3.41828 38 -7 34.4183 -7 30V15Z" fill="#2156D6"/>
</mask>
<g mask="url(#mask1_2004_249)">
<circle cx="23" cy="15" r="12" fill="#1C46AB"/>
<path d="M3.53422 31.999C0.477755 29.2759 0.207503 24.5907 2.9306 21.5342V21.5342C5.65369 18.4777 10.3389 18.2075 13.3954 20.9306L40.0191 44.6504C43.0755 47.3735 43.3458 52.0587 40.6227 55.1152V55.1152C37.8996 58.1717 33.2143 58.4419 30.1579 55.7188L3.53422 31.999Z" fill="#618FFF"/>
<path d="M9.88635 36.2352C7.73998 34.3229 7.5502 31.0327 9.46247 28.8864V28.8864C11.3747 26.74 14.6649 26.5502 16.8113 28.4625L46.7307 55.1185C48.877 57.0308 49.0668 60.321 47.1546 62.4673V62.4673C45.2423 64.6137 41.9521 64.8035 39.8057 62.8912L9.88635 36.2352Z" fill="#8BADFF"/>
</g>
<circle cx="23" cy="13" r="12" fill="#2D6AFF"/>
</g>
</svg>
