<svg width="124" height="80" fill="none" xmlns="http://www.w3.org/2000/svg"><path fill-rule="evenodd" clip-rule="evenodd" d="M40.425 28.868c-.797 1.013-2.072 1.812-3.347 1.698-.16-1.37.465-2.826 1.195-3.725.797-1.042 2.192-1.784 3.32-1.841.134 1.427-.384 2.826-1.168 3.868zm1.156 1.97c-1.124-.07-2.149.362-2.977.712-.533.224-.984.415-1.327.415-.385 0-.855-.2-1.383-.426-.69-.295-1.481-.632-2.31-.616-1.9.028-3.666 1.185-4.635 3.026-1.993 3.682-.519 9.134 1.407 12.13.944 1.485 2.073 3.112 3.56 3.055.655-.026 1.126-.241 1.613-.463.56-.256 1.143-.522 2.053-.522.879 0 1.436.26 1.97.508.51.236.998.463 1.723.449 1.54-.029 2.51-1.485 3.453-2.969 1.018-1.593 1.465-3.148 1.533-3.384l.008-.027a.377.377 0 00-.036-.019 5.33 5.33 0 01-2.966-4.876c-.025-2.88 2.063-4.338 2.391-4.568l.04-.028c-1.328-2.112-3.4-2.34-4.117-2.398zm10.666 18.11v-22.25h7.77c4.011 0 6.814 2.969 6.814 7.308 0 4.338-2.856 7.336-6.92 7.336h-4.45v7.607h-3.214zM55.46 29.61h3.706c2.789 0 4.383 1.599 4.383 4.41 0 2.812-1.594 4.424-4.397 4.424H55.46V29.61zm21.983 16.67c-.85 1.74-2.723 2.84-4.742 2.84-2.988 0-5.074-1.913-5.074-4.796 0-2.854 2.02-4.495 5.752-4.738l4.011-.257v-1.227c0-1.813-1.103-2.798-3.068-2.798-1.62 0-2.803.9-3.042 2.27h-2.896c.093-2.883 2.617-4.981 6.03-4.981 3.68 0 6.07 2.07 6.07 5.28V48.95H77.51v-2.67h-.066zm-3.879.2c-1.713 0-2.802-.885-2.802-2.241 0-1.399 1.05-2.212 3.055-2.34l3.573-.243v1.256c0 2.083-1.647 3.568-3.826 3.568zm16.79 3.34C89.066 53.714 87.592 55 84.457 55c-.239 0-1.036-.029-1.222-.086v-2.669c.2.029.691.058.943.058 1.422 0 2.219-.643 2.71-2.313l.292-.984-5.446-16.2h3.36l3.786 13.146h.067l3.785-13.145H96l-5.645 17.012z" fill="#000"/></svg>