<svg width="124" height="80" fill="none" xmlns="http://www.w3.org/2000/svg"><path fill-rule="evenodd" clip-rule="evenodd" d="M59.051 49.03v-9.39h4.74c1.943 0 3.582-.666 4.919-1.978l.32-.333c2.442-2.717 2.281-6.95-.32-9.465a6.687 6.687 0 00-4.919-2.015h-7.608v23.182h2.868zm0-12.237v-8.097h4.813a3.84 3.84 0 012.744 1.146c1.551 1.553 1.587 4.141.09 5.75a3.685 3.685 0 01-2.834 1.2h-4.812zm23.361-2.385c-1.229-1.164-2.904-1.756-5.025-1.756-2.726 0-4.775 1.035-6.13 3.087l2.531 1.646c.927-1.405 2.192-2.108 3.796-2.108 1.015 0 1.995.388 2.761 1.09a3.53 3.53 0 011.177 2.644v.684c-1.105-.628-2.495-.961-4.206-.961-1.996 0-3.6.48-4.793 1.46-1.194.98-1.8 2.274-1.8 3.92a4.983 4.983 0 001.693 3.882c1.123 1.035 2.548 1.552 4.223 1.552 1.978 0 3.546-.906 4.74-2.717h.125v2.2h2.744v-9.78c0-2.051-.606-3.678-1.836-4.843zM74.626 46.11a2.43 2.43 0 01-.945-1.941c0-.869.392-1.59 1.159-2.163.784-.573 1.764-.869 2.923-.869 1.604-.018 2.851.352 3.742 1.09 0 1.258-.48 2.349-1.425 3.273a4.478 4.478 0 01-3.226 1.386 3.423 3.423 0 01-2.228-.776z" fill="#3C4043"/><path d="M90.413 56L100 33.17h-3.118l-4.437 11.387h-.054L87.847 33.17H84.73l6.29 14.844L87.455 56h2.958z" fill="#3C4043"/><path d="M49.147 37.606c0-.905-.071-1.811-.214-2.698H36.834v5.12h6.932c-.285 1.645-1.212 3.124-2.566 4.049v3.327h4.134c2.423-2.31 3.813-5.73 3.813-9.798z" fill="#4285F4"/><path d="M36.835 50.62c3.456 0 6.378-1.182 8.499-3.216L41.2 44.077c-1.158.813-2.637 1.275-4.365 1.275-3.35 0-6.184-2.347-7.2-5.49h-4.258V43.3c2.174 4.492 6.61 7.32 11.458 7.32z" fill="#34A853"/><path d="M29.636 39.862a8.315 8.315 0 010-5.102v-3.42h-4.26a13.637 13.637 0 000 11.942l4.26-3.42z" fill="#FBBC04"/><path d="M36.835 29.27a6.771 6.771 0 014.918 1.996l3.67-3.808c-2.334-2.256-5.399-3.494-8.588-3.457-4.847 0-9.284 2.847-11.458 7.339l4.259 3.438c1.015-3.16 3.849-5.509 7.199-5.509z" fill="#EA4335"/></svg>