<svg width="124" height="80" fill="none" xmlns="http://www.w3.org/2000/svg"><path d="M69.03 27.436H54.97v25.267h14.06V27.436z" fill="#FF5F00"/><path d="M55.863 40.07A16.041 16.041 0 0162 27.435a16.07 16.07 0 100 25.267 16.042 16.042 0 01-6.137-12.634z" fill="#EB001B"/><path d="M88 40.07a16.068 16.068 0 01-26 12.633 16.072 16.072 0 000-25.267 16.07 16.07 0 0126 12.633zm-1.533 9.957v-.518h.208v-.105h-.53v.105h.208v.518h.114zm1.031 0v-.624h-.163l-.187.429-.187-.429h-.163v.624h.115v-.47l.175.405h.12l.175-.407v.472h.115z" fill="#F79E1B"/></svg>