<svg width="124" height="80" fill="none" xmlns="http://www.w3.org/2000/svg"><path d="M51.21 38.15c-.227 1.694-1.582 1.694-2.825 1.694h-.677l.564-3.276c0-.226.226-.339.452-.339h.339c.904 0 1.694 0 2.146.452v1.468zm-.566-4.519h-4.857c-.338 0-.564.226-.677.565L43.19 46.62c0 .226.112.451.451.451h2.26c.338 0 .564-.225.677-.564l.565-3.389c0-.339.339-.565.678-.565h1.58c3.164 0 4.97-1.581 5.536-4.63.226-1.356 0-2.373-.565-3.163-.904-.678-2.146-1.13-3.728-1.13zm11.182 9.036c-.226 1.356-1.243 2.26-2.598 2.26-.678 0-1.243-.227-1.582-.678a1.96 1.96 0 01-.338-1.582c.225-1.355 1.242-2.259 2.598-2.259.677 0 1.242.226 1.58.678.227.339.453.904.34 1.581zm3.162-4.518H62.73c-.226 0-.338.113-.451.34l-.113.677-.113-.226c-.452-.678-1.582-1.017-2.711-1.017-2.598 0-4.744 1.92-5.196 4.631-.226 1.356.113 2.598.903 3.502.678.79 1.695 1.13 2.937 1.13 2.033 0 3.163-1.356 3.163-1.356l-.113.678c0 .226.113.452.452.452h2.033c.339 0 .565-.226.678-.565l1.242-7.907c0-.113-.113-.339-.452-.339zm12.312.001h-2.372a.621.621 0 00-.565.338L71.2 43.232l-1.355-4.518c-.113-.339-.34-.452-.678-.452h-2.259c-.226 0-.452.226-.339.565l2.598 7.455-2.372 3.388c-.226.226 0 .678.339.678h2.372a.621.621 0 00.565-.339l7.68-11.182c.113-.339-.113-.678-.451-.678z" fill="#263577"/><path d="M85.547 38.15c-.226 1.694-1.581 1.694-2.824 1.694h-.677l.564-3.276c0-.226.226-.339.452-.339h.339c.904 0 1.694 0 2.146.452.113.452.113.903 0 1.468zm-.565-4.519h-4.857c-.339 0-.564.226-.677.565l-1.92 12.425c0 .226.112.451.451.451h2.485c.226 0 .452-.112.452-.451l.565-3.502c0-.339.339-.565.677-.565h1.582c3.163 0 4.97-1.581 5.535-4.63.225-1.356 0-2.373-.565-3.163-.79-.678-2.033-1.13-3.728-1.13zm11.295 9.036c-.226 1.356-1.243 2.26-2.598 2.26-.678 0-1.243-.227-1.581-.678a1.96 1.96 0 01-.34-1.582c.227-1.355 1.243-2.259 2.599-2.259.677 0 1.242.226 1.581.678.226.339.452.904.339 1.581zm3.163-4.518h-2.26c-.225 0-.338.113-.451.34l-.113.677-.113-.226c-.452-.678-1.582-1.017-2.711-1.017-2.598 0-4.744 1.92-5.196 4.631-.226 1.356.113 2.598.904 3.502.677.79 1.694 1.13 2.936 1.13 2.034 0 3.163-1.356 3.163-1.356l-.113.678c0 .226.113.452.452.452h2.033c.339 0 .565-.226.678-.565l1.242-7.907c0-.113-.226-.339-.451-.339zm2.71-4.179l-2.033 12.65c0 .227.113.453.452.453h2.033c.339 0 .565-.226.678-.565l1.92-12.425c0-.226-.113-.452-.452-.452h-2.259c-.113 0-.226.226-.339.339z" fill="#2199D6"/><path d="M23.083 49.444l.339-2.372h-4.744l2.71-17.281s0-.113.114-.113h6.777c2.146 0 3.727.451 4.518 1.355.339.452.565.904.678 1.356.113.564.113 1.13 0 1.92v.452l.338.225c.34.114.565.34.791.565.339.34.565.79.565 1.356.113.565.113 1.242-.113 2.033-.226.904-.452 1.581-.79 2.259-.34.565-.791 1.017-1.243 1.468-.452.34-1.13.565-1.695.791-.677.113-1.355.226-2.146.226h-.564c-.34 0-.678.113-1.017.339a2.458 2.458 0 00-.565.903v.226l-.677 4.18v.225h-3.276v-.113z" fill="#263577"/><path d="M34.264 34.309c0 .113 0 .226-.113.339-.903 4.518-3.84 5.986-7.68 5.986h-1.92c-.452 0-.904.339-.904.79L22.63 47.75l-.226 1.807c0 .34.226.565.452.565h3.502c.451 0 .79-.339.79-.678v-.225l.678-4.067v-.226c.113-.451.452-.677.79-.677h.566c3.388 0 5.986-1.356 6.664-5.31.339-1.693.113-3.049-.678-3.953-.226-.225-.565-.451-.904-.677z" fill="#2199D6"/><path d="M33.362 33.97c-.113 0-.226-.113-.451-.113-.113 0-.34-.113-.452-.113-.565-.113-1.13-.113-1.695-.113H25.57c-.113 0-.226 0-.34.113-.225.113-.451.339-.451.565l-1.13 7.003v.226c.113-.452.452-.79.904-.79h1.92c3.84 0 6.777-1.582 7.681-5.987 0-.113 0-.226.113-.34l-.678-.338c-.113-.113-.226-.113-.226-.113z" fill="#252C5E"/><path d="M24.777 34.309c0-.226.226-.452.452-.565.113 0 .226-.113.339-.113h5.196c.564 0 1.242 0 1.694.113.113 0 .339 0 .452.113.113 0 .226.113.452.113.113 0 .113 0 .226.113l.677.339c.226-1.694 0-2.824-.903-3.84C32.345 29.451 30.538 29 28.279 29h-6.665c-.451 0-.903.339-.903.79L18 47.186c0 .34.226.678.565.678h4.066l1.017-6.551 1.13-7.003z" fill="#263577"/></svg>