<svg width="124" height="80" fill="none" xmlns="http://www.w3.org/2000/svg"><path fill-rule="evenodd" clip-rule="evenodd" d="M44 49.725h-5.538l-4.154-16.312c-.197-.75-.615-1.413-1.231-1.726-1.537-.786-3.23-1.41-5.077-1.726v-.628h8.922c1.232 0 2.156.943 2.31 2.039l2.154 11.766 5.537-13.805h5.384l-8.306 20.392zm11.385 0h-5.23l4.307-20.392h5.23l-4.307 20.392zm11.077-14.746c.154-1.098 1.078-1.726 2.155-1.726 1.694-.158 3.538.157 5.077.94l.924-4.39a12.91 12.91 0 00-4.77-.944c-5.076 0-8.77 2.825-8.77 6.745 0 2.983 2.616 4.548 4.463 5.492 1.999.94 2.769 1.568 2.615 2.509 0 1.411-1.54 2.039-3.076 2.039-1.847 0-3.695-.47-5.385-1.256l-.924 4.393c1.847.783 3.846 1.099 5.693 1.099 5.693.154 9.23-2.667 9.23-6.903 0-5.334-7.232-5.646-7.232-7.998zm25.536 14.746l-4.154-20.392h-4.46a2.32 2.32 0 00-2.156 1.568l-7.69 18.824h5.384l1.075-2.98h6.616l.616 2.98h4.769zm-7.844-14.903l1.536 7.686h-4.307l2.77-7.686z" fill="#172B85"/></svg>