<svg width="205" height="180" viewBox="0 0 205 180" fill="none" xmlns="http://www.w3.org/2000/svg">
<path d="M97.0273 37C97.0273 32.5817 100.609 29 105.027 29H196.027C200.446 29 204.027 32.5817 204.027 37V172C204.027 176.418 200.446 180 196.027 180H105.027C100.609 180 97.0273 176.418 97.0273 172V37Z" fill="white"/>
<circle cx="146.027" cy="58" r="58" fill="white"/>
<mask id="mask0_933_744" style="mask-type:alpha" maskUnits="userSpaceOnUse" x="0" y="29" width="205" height="151">
<path d="M0 37.1892C0 32.7709 3.58172 29.1892 8 29.1892H196.324C200.743 29.1892 204.324 32.7709 204.324 37.1892V172C204.324 176.418 200.743 180 196.324 180H8C3.58172 180 0 176.418 0 172V37.1892Z" fill="#2156D6"/>
</mask>
<g mask="url(#mask0_933_744)">
<circle cx="145.945" cy="68.1082" r="58.3784" fill="white"/>
<path d="M51.2475 150.806C36.3782 137.559 35.0634 114.765 48.3109 99.8961C61.5584 85.0268 84.3515 83.7121 99.2208 96.9596L228.741 212.353C243.611 225.601 244.925 248.394 231.678 263.263C218.43 278.132 195.637 279.447 180.768 266.2L51.2475 150.806Z" fill="white"/>
</g>
</svg>
