<svg width="41" height="41" fill="none" xmlns="http://www.w3.org/2000/svg"><path d="M1.576 12.711l14.44 9.262v5.574a.64.64 0 00.64.64h7.688a.64.64 0 00.64-.64v-5.574l14.44-9.262a.64.64 0 00-.346-1.18H1.922a.64.64 0 00-.346 1.18zm35.317.101l-12.895 8.27a.64.64 0 00-.295.54v5.284h-6.406v-5.285a.641.641 0 00-.294-.54L4.108 12.814h32.785zM20.5 29.469a5.125 5.125 0 100 10.249 5.125 5.125 0 000-10.25zm0 8.968a3.844 3.844 0 110-7.687 3.844 3.844 0 010 7.688z" fill="#2D6AFF"/><path d="M20.296 34.97l-1.362-.91-.711 1.067 1.922 1.281a.645.645 0 00.73-.014.64.64 0 00.174-.189l1.922-3.203-1.098-.66-1.577 2.627zm14.298-9.345a5.125 5.125 0 100 10.25 5.125 5.125 0 000-10.25zm0 8.969a3.844 3.844 0 110-7.688 3.844 3.844 0 010 7.688z" fill="#2D6AFF"/><path d="M34.39 31.125l-1.362-.908-.712 1.066 1.922 1.281a.645.645 0 00.731-.013.64.64 0 00.174-.19l1.922-3.203-1.098-.66-1.577 2.627zm-27.984-5.5a5.125 5.125 0 105.125 5.125 5.131 5.131 0 00-5.125-5.125zm0 8.969a3.844 3.844 0 110-7.689 3.844 3.844 0 010 7.689z" fill="#2D6AFF"/><path d="M6.203 31.125l-1.363-.908-.711 1.066 1.922 1.281a.645.645 0 00.73-.013.64.64 0 00.174-.19l1.922-3.203-1.098-.66-1.576 2.627zM21.14 10.25a2.563 2.563 0 100-5.126 2.563 2.563 0 000 5.126zm0-3.844a1.281 1.281 0 110 2.563 1.281 1.281 0 010-2.563zm16.016 1.922a2.562 2.562 0 100-5.125 2.562 2.562 0 000 5.125zm0-3.844a1.281 1.281 0 110 2.563 1.281 1.281 0 010-2.563zM14.734 7.688a3.203 3.203 0 100-6.406 3.203 3.203 0 000 6.405zm0-5.125a1.922 1.922 0 110 3.843 1.922 1.922 0 010-3.843zm14.094 6.406a3.844 3.844 0 100-7.688 3.844 3.844 0 000 7.688zm0-6.406a2.563 2.563 0 110 5.125 2.563 2.563 0 010-5.125zM5.766 10.25a3.843 3.843 0 100-7.687 3.843 3.843 0 000 7.687zm0-6.406a2.562 2.562 0 110 5.125 2.562 2.562 0 010-5.125zM20.5 21.14a.64.64 0 00.454-.187l1.922-1.922-.906-.906-.829.828v-4.86h-1.28v4.86l-.83-.828-.905.906 1.922 1.922a.64.64 0 00.453.188z" fill="#2D6AFF"/></svg>