<svg width="43" height="43" fill="none" xmlns="http://www.w3.org/2000/svg"><g clip-path="url(#clip0_912_1180)"><mask id="a" style="mask-type:luminance" maskUnits="userSpaceOnUse" x="0" y="0" width="43" height="43"><path d="M0 0h43v43H0V0z" fill="#fff"/></mask><g mask="url(#a)"><path d="M25.716 14.592h-8.43a1.816 1.816 0 00-1.815 1.816v10.184c0 1.003.813 1.816 1.815 1.816h8.43a1.816 1.816 0 001.816-1.816V16.408a1.816 1.816 0 00-1.816-1.816z" stroke="#2D6AFF" stroke-miterlimit="10" stroke-linecap="round" stroke-linejoin="round"/><path d="M22.139 19.294H15.47v4.412h12.061v-4.412H25.19m-.698-15.673a2.991 2.991 0 11-5.982 0 2.991 2.991 0 015.982 0zM21.5 6.612v7.98m13.539-4.84a1.265 1.265 0 11-1.79-1.789 1.265 1.265 0 011.79 1.79zm-1.79 0l-5.888 5.888M7.964 33.248a1.265 1.265 0 111.79 1.789 1.265 1.265 0 01-1.79-1.789zm1.79 0l5.888-5.888m17.608 7.677a1.265 1.265 0 111.788-1.79 1.265 1.265 0 01-1.788 1.79zm-.001-1.789L27.36 27.36M9.753 7.963a1.265 1.265 0 11-1.788 1.79 1.265 1.265 0 011.788-1.79zm3.729 5.517l2.16 2.16M9.754 9.752l1.624 1.624M39.38 24.491a2.991 2.991 0 110-5.982 2.991 2.991 0 010 5.982zM36.389 21.5H27.53m-8.817 16.792a2.992 2.992 0 11.383 2.866m2.404-4.77v-7.98M3.622 18.51a2.991 2.991 0 110 5.981 2.991 2.991 0 010-5.982zm2.991 2.99h8.858m4.689 0h2.68m-2.68-4.557h2.68m-2.68 9.114h2.68" stroke="#2D6AFF" stroke-miterlimit="10" stroke-linecap="round" stroke-linejoin="round"/><path d="M40.01 21.5a.63.63 0 11-1.26 0 .63.63 0 011.26 0zM22.13 3.62a.63.63 0 11-1.259 0 .63.63 0 011.26 0zm0 35.76a.63.63 0 11-1.259 0 .63.63 0 011.26 0zM4.252 21.5a.63.63 0 11-1.26 0 .63.63 0 011.26 0z" fill="#2D6AFF"/></g></g><defs><clipPath id="clip0_912_1180"><path fill="#fff" d="M0 0h43v43H0z"/></clipPath></defs></svg>