<svg width="44" height="44" fill="none" xmlns="http://www.w3.org/2000/svg"><path d="M30.433 41.8h-16.5a3.286 3.286 0 01-3.3-3.3v-33c0-1.833 1.467-3.3 3.3-3.3h16.5c1.833 0 3.3 1.467 3.3 3.3v33.183c0 1.65-1.467 3.117-3.3 3.117zm-16.5-37.95c-.917 0-1.65.733-1.65 1.65v33.183c0 .917.733 1.65 1.65 1.65h16.5c.916 0 1.65-.733 1.65-1.65V5.5c0-.917-.733-1.65-1.65-1.65h-16.5z" fill="#2D6AFF"/><path d="M32.816 34.833H11.55c-.366 0-.916-.366-.916-.733V10.266c0-.366.367-.733.917-.733h21.266c.367 0 .917.367.917.734V34.1c0 .367-.55.733-.917.733zm-20.533-1.65H31.9V10.816H12.282v22.367z" fill="#2D6AFF"/><path d="M27.683 31.167h-11a2.896 2.896 0 01-2.933-2.934V15.95c-.183-1.65 1.283-3.117 2.933-3.117h11a2.896 2.896 0 012.934 2.934V28.05c0 1.833-1.284 3.117-2.934 3.117zm-11-16.684c-.733 0-1.283.55-1.283 1.284V28.05c0 .733.55 1.283 1.283 1.283h11c.734 0 1.284-.55 1.284-1.283v-12.1c0-.733-.55-1.283-1.284-1.283h-11v-.184z" fill="#2D6AFF"/><path d="M13.566 18.517h17.05v1.65h-17.05v-1.65zm0 5.316h17.05v1.65h-17.05v-1.65zm13.017-8.25c-.55 0-.917.367-.917 1.1 0 .55.367.917.917.917s1.1-.367 1.1-.917-.55-1.1-1.1-1.1zm0 5.5c-.55 0-.917.367-.917 1.1 0 .55.367.917.917.917s1.1-.367 1.1-.917c0-.733-.55-1.1-1.1-1.1zm0 5.317c-.55 0-.917.367-.917.917s.367 1.1.917 1.1 1.1-.367 1.1-1.1c0-.55-.55-.917-1.1-.917z" fill="#2D6AFF"/></svg>