<svg width="40" height="40" fill="none" xmlns="http://www.w3.org/2000/svg"><path d="M37.819 6.97h-7.88c-.848 0-1.575.666-1.575 1.575v20.606c0 .849.667 1.576 1.576 1.576h3.394v5.879c0 .485-.425.91-.91.91h-12v-6.85h5.091c.849 0 1.576-.666 1.576-1.575V2.848c0-.848-.666-1.575-1.576-1.575h-11.03c-.848 0-1.575.666-1.575 1.575v26.303c0 .849.666 1.576 1.575 1.576h4.788v6.788H7.213a.932.932 0 01-.91-.909v-5.879h3.758c.848 0 1.576-.666 1.576-1.576V8.545c0-.848-.667-1.575-1.576-1.575H2.182c-.848 0-1.576.666-1.576 1.575v20.606c0 .849.667 1.576 1.576 1.576h2.91v5.879c0 1.152.969 2.121 2.12 2.121h25.213c1.151 0 2.12-.97 2.12-2.121v-5.879h3.334c.849 0 1.576-.666 1.576-1.576V8.545c-.06-.848-.727-1.575-1.636-1.575zM14.122 29.15V2.848c0-.181.12-.363.363-.363h11.03c.182 0 .364.121.364.363v26.303c0 .182-.121.364-.364.364h-11.03c-.182-.06-.363-.182-.363-.364zm-12.303 0V8.545c0-.181.12-.363.363-.363h7.879c.182 0 .364.121.364.363v20.606c0 .182-.122.364-.364.364H2.182c-.242-.06-.363-.182-.363-.364zm36.363 0c0 .182-.121.364-.363.364h-7.88c-.181 0-.363-.121-.363-.364V8.545c0-.181.121-.363.364-.363h7.879c.181 0 .363.121.363.363v20.606z" fill="#2D6AFF"/><path d="M23.819 26.121h-7.637c-.363 0-.606.242-.606.606s.243.606.606.606h7.637c.363 0 .606-.242.606-.606 0-.303-.303-.606-.606-.606zm0-4.303h-7.637c-.363 0-.606.242-.606.606s.243.606.606.606h7.637c.363 0 .606-.242.606-.606a.607.607 0 00-.606-.606zm0-4.363h-7.637c-.363 0-.606.242-.606.606 0 .363.243.606.606.606h7.637c.363 0 .606-.243.606-.606 0-.303-.303-.606-.606-.606zm0-4.303h-7.637c-.363 0-.606.242-.606.606 0 .363.243.606.606.606h7.637c.363 0 .606-.243.606-.606a.607.607 0 00-.606-.606zm0-4.364h-7.637c-.363 0-.606.242-.606.606s.243.606.606.606h7.637c.363 0 .606-.242.606-.606 0-.303-.303-.606-.606-.606zM9.091 26.182h-6c-.363 0-.606.242-.606.606s.243.606.606.606h6c.364 0 .606-.242.606-.606 0-.303-.303-.606-.606-.606zm0-3.94h-6c-.363 0-.606.243-.606.607 0 .363.243.606.606.606h6c.364 0 .606-.243.606-.606a.607.607 0 00-.606-.607zm0-4h-6c-.363 0-.606.243-.606.607 0 .363.243.606.606.606h6c.364 0 .606-.243.606-.606a.607.607 0 00-.606-.607zm0-4h-6c-.363 0-.606.243-.606.606 0 .364.243.607.606.607h6c.364 0 .606-.243.606-.607 0-.303-.303-.606-.606-.606zm.001-4H6.91c-.364 0-.606.243-.606.606 0 .364.242.607.606.607h2.182c.363 0 .606-.243.606-.607 0-.303-.303-.606-.606-.606zm27.818 15.94h-6c-.364 0-.606.242-.606.606s.242.606.606.606h6c.363 0 .606-.242.606-.606 0-.303-.303-.606-.606-.606zm0-3.94h-6c-.364 0-.606.243-.606.607 0 .363.242.606.606.606h6c.363 0 .606-.243.606-.606a.607.607 0 00-.606-.607zm0-4h-6c-.364 0-.606.243-.606.607 0 .363.242.606.606.606h6c.363 0 .606-.243.606-.606a.607.607 0 00-.606-.607zm0-4h-6c-.364 0-.606.243-.606.606 0 .364.242.607.606.607h6c.363 0 .606-.243.606-.607 0-.303-.303-.606-.606-.606zm0-4h-2.182c-.364 0-.606.243-.606.606 0 .364.242.607.606.607h2.182c.364 0 .606-.243.606-.607 0-.303-.303-.606-.606-.606zM23.818 4.424h-2.182c-.363 0-.606.243-.606.606 0 .364.243.606.606.606h2.182c.364 0 .606-.242.606-.606 0-.303-.303-.606-.606-.606z" fill="#2D6AFF"/></svg>