<svg width="64" height="64" viewBox="0 0 64 64" fill="none" xmlns="http://www.w3.org/2000/svg">
<path d="M14.9884 21.6L10.4004 23.813L13.5164 48.2L32.0004 59.819L50.4844 48.2L53.6004 23.813L49.0124 21.6C48.8855 21.9438 48.6637 22.2445 48.3727 22.4672C48.0816 22.6898 47.7334 22.8254 47.3684 22.858L45.1464 23.043C45.1464 23.063 45.1344 23.084 45.1294 23.104L49.6584 25.293C49.8474 25.384 50.0029 25.5322 50.1031 25.7165C50.2032 25.9008 50.2428 26.1119 50.2164 26.32L47.7164 45.92C47.6977 46.0665 47.6467 46.2071 47.5672 46.3316C47.4876 46.4561 47.3815 46.5614 47.2564 46.64L32.5364 55.89C32.377 55.9901 32.1926 56.0432 32.0044 56.0432C31.8162 56.0432 31.6318 55.9901 31.4724 55.89L16.7524 46.64C16.6273 46.5614 16.5212 46.4561 16.4416 46.3316C16.3621 46.2071 16.3111 46.0665 16.2924 45.92L13.7924 26.32C13.7659 26.1119 13.8056 25.9008 13.9057 25.7165C14.0059 25.5322 14.1614 25.384 14.3504 25.293L18.8434 23.122C18.8314 23.085 18.8154 23.05 18.8044 23.013L16.6404 22.858C16.274 22.8268 15.924 22.692 15.6315 22.4692C15.3389 22.2464 15.1158 21.9449 14.9884 21.6Z" fill="#5D3CB2"/>
<path d="M32.0001 27.059C36.3759 27.059 39.9231 23.5118 39.9231 19.136C39.9231 14.7603 36.3759 11.213 32.0001 11.213C27.6244 11.213 24.0771 14.7603 24.0771 19.136C24.0771 23.5118 27.6244 27.059 32.0001 27.059Z" fill="url(#paint0_linear_135_3388)"/>
<path d="M19.9414 25.671C19.8084 25.454 19.7044 25.21 19.5874 24.978L15.8594 26.778L18.2124 45.2L32.0004 53.862L45.7884 45.2L48.1414 26.781L44.4494 25C44.3334 25.249 44.2104 25.5 44.0774 25.738L45.5004 27.372C45.8102 27.742 45.9708 28.2143 45.9508 28.6964C45.9309 29.1786 45.7317 29.6359 45.3924 29.979L42.8464 32.525C42.5035 32.865 42.0459 33.0646 41.5635 33.0848C41.081 33.105 40.6085 32.9442 40.2384 32.634L38.5384 31.194C37.7059 31.6905 36.8119 32.0758 35.8794 32.34L35.7224 34.5C35.6803 34.9816 35.4599 35.4302 35.1043 35.7577C34.7488 36.0853 34.2838 36.2684 33.8004 36.271H30.2004C29.7169 36.2688 29.2518 36.0859 28.8963 35.7582C28.5409 35.4305 28.3208 34.9817 28.2794 34.5L28.1004 32.281C27.1573 32.0458 26.2494 31.6871 25.4004 31.214L23.7624 32.634C23.392 32.9443 22.9191 33.1052 22.4363 33.085C21.9535 33.0648 21.4956 32.8651 21.1524 32.525L18.6104 29.979C18.271 29.6359 18.0719 29.1786 18.0519 28.6964C18.0319 28.2143 18.1926 27.742 18.5024 27.372L19.9414 25.671Z" fill="url(#paint1_linear_135_3388)"/>
<path d="M20.7159 15.822C20.6089 16.2007 20.3887 16.5377 20.0849 16.7879C19.7811 17.0381 19.4082 17.1895 19.0159 17.222L16.7949 17.406L16.8429 19.963C16.8459 20.0052 16.8459 20.0477 16.8429 20.09L16.8589 20.934L19.0149 21.046C19.4071 21.0787 19.7799 21.2302 20.0837 21.4804C20.3874 21.7305 20.6076 22.0674 20.7149 22.446C20.9499 23.2537 21.2725 24.0333 21.6769 24.771C21.8687 25.1142 21.9513 25.5078 21.9138 25.8992C21.8763 26.2906 21.7204 26.6613 21.4669 26.962L20.0279 28.662L22.5689 31.109L24.1689 29.665C24.4695 29.4116 24.8401 29.256 25.2314 29.2188C25.6227 29.1817 26.0161 29.2647 26.3589 29.457C27.0973 29.8598 27.8768 30.1823 28.6839 30.419C29.062 30.5249 29.3986 30.7438 29.6488 31.0464C29.899 31.349 30.0508 31.7207 30.0839 32.112L30.2639 34.269H33.7999L33.9109 32.114C33.9435 31.7218 34.095 31.3489 34.3452 31.0451C34.5953 30.7413 34.9323 30.5211 35.3109 30.414C36.1178 30.1779 36.8969 29.8557 37.6349 29.453C37.9776 29.2607 38.3708 29.1776 38.7619 29.2147C39.1531 29.2519 39.5236 29.4076 39.8239 29.661L41.5239 31.101L43.9719 28.559L42.5269 26.959C42.2739 26.6585 42.1184 26.2881 42.081 25.897C42.0437 25.506 42.1263 25.1129 42.3179 24.77C42.7223 24.0327 43.0449 23.2534 43.2799 22.446C43.3872 22.0674 43.6074 21.7305 43.9112 21.4804C44.2149 21.2302 44.5878 21.0787 44.9799 21.046L47.1359 20.867V17.336L44.9799 17.224C44.5877 17.1914 44.2148 17.0399 43.9111 16.7897C43.6073 16.5396 43.3871 16.2026 43.2799 15.824C43.0454 15.0169 42.7231 14.2379 42.3189 13.501C42.1268 13.1577 42.0439 12.764 42.0812 12.3723C42.1186 11.9807 42.2744 11.6098 42.5279 11.309L43.9669 9.60896L41.4299 7.15996L39.8279 8.59996C39.5276 8.8537 39.157 9.00969 38.7656 9.04704C38.3742 9.08439 37.9808 9.00132 37.6379 8.80896C36.8994 8.4063 36.12 8.0838 35.3129 7.84696C34.935 7.74041 34.5986 7.5212 34.3484 7.21854C34.0983 6.91588 33.9464 6.54417 33.9129 6.15296L33.7289 3.92896L30.2679 3.99996L30.0879 6.15696C30.056 6.54936 29.9048 6.92261 29.6545 7.22652C29.4043 7.53043 29.0669 7.75043 28.6879 7.85696C27.8812 8.09398 27.1021 8.41648 26.3639 8.81896C26.0213 9.01123 25.6281 9.09434 25.2369 9.05717C24.8457 9.02001 24.4752 8.86433 24.1749 8.61096L22.4749 7.17096L20.0239 9.70596L21.4689 11.306C21.7221 11.6064 21.8777 11.9768 21.915 12.3678C21.9524 12.7589 21.8696 13.1521 21.6779 13.495C21.2739 14.2335 20.9514 15.0137 20.7159 15.822ZM31.9999 9.21296C33.9625 9.21296 35.881 9.79493 37.5128 10.8853C39.1447 11.9756 40.4165 13.5254 41.1676 15.3386C41.9186 17.1518 42.1151 19.147 41.7323 21.0718C41.3494 22.9967 40.4043 24.7648 39.0165 26.1526C37.6288 27.5403 35.8607 28.4854 33.9358 28.8683C32.0109 29.2512 30.0157 29.0547 28.2026 28.3036C26.3894 27.5526 24.8396 26.2807 23.7492 24.6489C22.6589 23.0171 22.0769 21.0985 22.0769 19.136C22.0798 16.5051 23.1262 13.9828 24.9865 12.1226C26.8468 10.2623 29.3691 9.21587 31.9999 9.21296Z" fill="#5D3CB2"/>
<defs>
<linearGradient id="paint0_linear_135_3388" x1="18.4609" y1="40.7326" x2="41.9847" y2="39.4177" gradientUnits="userSpaceOnUse">
<stop stop-color="#2780E6"/>
<stop offset="1" stop-color="#781896"/>
</linearGradient>
<linearGradient id="paint1_linear_135_3388" x1="4.41776" y1="78.7861" x2="52.304" y2="75.7945" gradientUnits="userSpaceOnUse">
<stop stop-color="#2780E6"/>
<stop offset="1" stop-color="#781896"/>
</linearGradient>
</defs>
</svg>
