<svg width="72" height="72" viewBox="0 0 72 72" fill="none" xmlns="http://www.w3.org/2000/svg">
<path d="M36.0004 66.8572C35.7433 66.8572 35.7433 66.8572 35.4861 66.8572C35.229 66.8572 10.2861 60.9429 10.2861 33.4286V18C10.2861 16.9714 10.8004 15.9429 11.829 15.6857L34.9718 5.40001C35.7433 5.14287 36.5147 5.14287 37.029 5.40001L60.1718 15.6857C61.2004 15.9429 61.7147 16.9714 61.7147 18V33.4286C61.7147 60.9429 36.7718 66.8572 36.5147 66.8572C36.2576 66.8572 36.2576 66.8572 36.0004 66.8572ZM36.0004 38.5714C28.5433 38.5714 23.1433 41.9143 23.1433 46.2857C23.1433 50.6572 28.5433 54 36.0004 54C43.4576 54 48.8576 50.6572 48.8576 46.2857C48.8576 41.9143 43.4576 38.5714 36.0004 38.5714ZM36.0004 18C31.629 18 28.2861 21.3429 28.2861 25.7143C28.2861 30.0857 31.629 33.4286 36.0004 33.4286C40.3718 33.4286 43.7147 30.0857 43.7147 25.7143C43.7147 21.3429 40.3718 18 36.0004 18Z" fill="url(#paint0_linear_135_3376)"/>
<defs>
<linearGradient id="paint0_linear_135_3376" x1="-7.94155" y1="120.055" x2="68.4778" y2="116.492" gradientUnits="userSpaceOnUse">
<stop stop-color="#2780E6"/>
<stop offset="1" stop-color="#781896"/>
</linearGradient>
</defs>
</svg>
