<svg width="71" height="71" viewBox="0 0 71 71" fill="none" xmlns="http://www.w3.org/2000/svg">
<g clip-path="url(#clip0_131_3374)">
<path d="M56.7125 39.0546C56.7125 40.2585 55.8258 40.9668 54.898 40.9668H54.5827V37.2401H54.898C55.8986 37.24 56.7125 38.054 56.7125 39.0546ZM0 16.0323V11.4517C0 7.65688 3.07619 4.58069 6.87097 4.58069H64.129C67.9238 4.58069 71 7.65688 71 11.4517V16.0323C71 17.2973 69.9746 18.3226 68.7097 18.3226H2.29032C1.02535 18.3226 0 17.2973 0 16.0323ZM20.6129 12.3105C20.6129 14.4712 23.3475 15.4116 24.6739 13.762C25.4624 12.8068 25.3476 11.3582 24.3561 10.5398C22.8312 9.31264 20.6129 10.4015 20.6129 12.3105ZM13.7419 12.3105C13.7419 14.4793 16.4534 15.4007 17.803 13.7635C18.6189 12.7501 18.443 11.3304 17.4852 10.5398C15.9588 9.31149 13.7419 10.4041 13.7419 12.3105ZM6.87097 12.3105C6.87097 14.3854 9.40106 15.3461 10.7803 13.9295C11.6838 13.0254 11.6646 11.5526 10.7803 10.6916C9.39318 9.26683 6.87097 10.2444 6.87097 12.3105ZM71 25.1936V59.5484C71 63.3432 67.9238 66.4194 64.129 66.4194H6.87097C3.07619 66.4194 0 63.3432 0 59.5484V25.1936C0 23.9286 1.02535 22.9033 2.29032 22.9033H68.7097C69.9746 22.9033 71 23.9286 71 25.1936ZM20.8992 34.9496C20.8992 33.6847 19.8737 32.6593 18.6089 32.6593C17.344 32.6593 16.3185 33.6847 16.3185 34.9496V39.0787H14.3145V34.9496C14.3145 33.6847 13.289 32.6593 12.0242 32.6593C10.7594 32.6593 9.73387 33.6847 9.73387 34.9496V47.7882C9.73387 49.0532 10.7594 50.0785 12.0242 50.0785C13.289 50.0785 14.3145 49.0532 14.3145 47.7882V43.6593H16.3185V47.7883C16.3185 49.0533 17.344 50.0787 18.6089 50.0787C19.8737 50.0787 20.8992 49.0533 20.8992 47.7883V34.9496ZM34.498 34.9275C34.498 33.6626 33.4725 32.6371 32.2077 32.6371H25.3367C24.0719 32.6371 23.0464 33.6626 23.0464 34.9275C23.0464 36.1923 24.0719 37.2178 25.3367 37.2178H26.4819V47.8105C26.4819 49.0755 27.5073 50.1008 28.7722 50.1008C30.037 50.1008 31.0625 49.0755 31.0625 47.8105V37.2178H32.2077C33.4725 37.2178 34.498 36.1923 34.498 34.9275ZM47.9536 34.9275C47.9536 33.6626 46.9281 32.6371 45.6633 32.6371H38.7923C37.5275 32.6371 36.502 33.6626 36.502 34.9275C36.502 36.1923 37.5275 37.2178 38.7923 37.2178H39.9375V47.8105C39.9375 49.0755 40.963 50.1008 42.2278 50.1008C43.4927 50.1008 44.5181 49.0755 44.5181 47.8105V37.2178H45.6633C46.9281 37.2178 47.9536 36.1923 47.9536 34.9275ZM61.2932 39.0546C61.2932 35.5282 58.4243 32.6593 54.898 32.6593H52.2924C51.0275 32.6593 50.002 33.6847 50.002 34.9496V47.7882C50.002 49.0532 51.0275 50.0785 52.2924 50.0785C53.5572 50.0785 54.5827 49.0532 54.5827 47.7882V45.5474C58.7542 45.5474 61.2932 42.4983 61.2932 39.0546Z" fill="url(#paint0_linear_131_3374)"/>
</g>
<defs>
<linearGradient id="paint0_linear_131_3374" x1="-25.1643" y1="119.78" x2="80.1326" y2="113.022" gradientUnits="userSpaceOnUse">
<stop stop-color="#2780E6"/>
<stop offset="1" stop-color="#781896"/>
</linearGradient>
<clipPath id="clip0_131_3374">
<rect width="71" height="71" fill="white"/>
</clipPath>
</defs>
</svg>
