<svg width="60" height="60" viewBox="0 0 60 60" fill="none" xmlns="http://www.w3.org/2000/svg">
<path d="M19.5059 26.2864C18.1113 24.3973 17.3438 22.1028 17.3438 19.6875C17.3438 12.6483 23.8493 7.32355 30.7863 8.79613C31.0699 6.20042 32.0754 3.818 33.5977 1.85628C18.9852 -1.43587 5.15625 9.74956 5.15625 24.6094C5.15625 28.7051 6.22383 32.7 8.24766 36.2168C10.7953 31.7907 14.7539 28.2739 19.5059 26.2864Z" fill="url(#paint0_linear_135_3380)"/>
<path d="M30.8695 12.4559C25.9713 10.823 20.8594 14.4952 20.8594 19.6875C20.8594 21.7512 21.6773 23.6859 23.1293 25.1121C26.6326 24.2852 30.3203 24.2852 33.8238 25.1121C34.9254 24.0293 35.6625 22.6535 35.9543 21.1512C33.2883 19.0383 31.4168 15.9633 30.8695 12.4559Z" fill="url(#paint1_linear_135_3380)"/>
<path d="M11.4326 37.7344H45.5201C42.0666 31.916 35.7197 28.0078 28.4764 28.0078C21.233 28.0078 14.8861 31.916 11.4326 37.7344Z" fill="url(#paint2_linear_135_3380)"/>
<path d="M39.1008 23.0285C38.7352 24.198 38.1773 25.2984 37.4473 26.2863C42.1992 28.2738 46.1578 31.7906 48.7055 36.2167C51.1505 31.9662 52.1854 27.0363 51.668 22.1531C47.7525 24.5213 43.0473 24.723 39.1008 23.0285Z" fill="url(#paint3_linear_135_3380)"/>
<path d="M44.5312 0C38.8359 0 34.2188 4.61719 34.2188 10.3125C34.2188 16.0078 38.8359 20.625 44.5312 20.625C50.2266 20.625 54.8438 16.0078 54.8438 10.3125C54.8438 4.61719 50.2266 0 44.5312 0ZM49.5246 9.79805L45.7746 13.548C45.0921 14.2307 43.9771 14.2373 43.2879 13.548L41.4129 11.673C40.7273 10.9863 40.7273 9.87305 41.4129 9.18633C42.0996 8.50078 43.2129 8.50078 43.8996 9.18633L44.5312 9.81914L47.0379 7.31133C47.7246 6.62578 48.8379 6.62578 49.5246 7.31133C50.2102 7.99805 50.2102 9.11133 49.5246 9.79805Z" fill="#4956C6"/>
<path d="M47.4609 41.25H9.49219C7.55051 41.25 5.97656 42.8241 5.97656 44.7656V56.4844C5.97656 58.4259 7.55051 60 9.49219 60H47.4609C49.4026 60 50.9766 58.4259 50.9766 56.4844V44.7656C50.9766 42.8241 49.4026 41.25 47.4609 41.25ZM13.4766 52.2662C12.5058 52.2662 11.7182 51.4786 11.7182 50.5078C11.7182 49.537 12.5058 48.7494 13.4766 48.7494C14.4473 48.7494 15.235 49.537 15.235 50.5078C15.235 51.4786 14.4473 52.2662 13.4766 52.2662ZM20.9766 52.2662C20.0058 52.2662 19.2182 51.4786 19.2182 50.5078C19.2182 49.537 20.0058 48.7494 20.9766 48.7494C21.9473 48.7494 22.735 49.537 22.735 50.5078C22.735 51.4786 21.9473 52.2662 20.9766 52.2662ZM28.4766 52.2662C27.5058 52.2662 26.7182 51.4786 26.7182 50.5078C26.7182 49.537 27.5058 48.7494 28.4766 48.7494C29.4473 48.7494 30.235 49.537 30.235 50.5078C30.235 51.4786 29.4473 52.2662 28.4766 52.2662ZM35.9766 52.2662C35.0058 52.2662 34.2182 51.4786 34.2182 50.5078C34.2182 49.537 35.0058 48.7494 35.9766 48.7494C36.9473 48.7494 37.735 49.537 37.735 50.5078C37.735 51.4786 36.9473 52.2662 35.9766 52.2662ZM43.4766 52.2662C42.5058 52.2662 41.7182 51.4786 41.7182 50.5078C41.7182 49.537 42.5058 48.7494 43.4766 48.7494C44.4473 48.7494 45.235 49.537 45.235 50.5078C45.235 51.4786 44.4473 52.2662 43.4766 52.2662Z" fill="url(#paint4_linear_135_3380)"/>
<defs>
<linearGradient id="paint0_linear_135_3380" x1="-4.92416" y1="66.3658" x2="37.3422" y2="64.4426" gradientUnits="userSpaceOnUse">
<stop stop-color="#2780E6"/>
<stop offset="1" stop-color="#781896"/>
</linearGradient>
<linearGradient id="paint1_linear_135_3380" x1="15.5093" y1="36.3715" x2="37.8945" y2="34.924" gradientUnits="userSpaceOnUse">
<stop stop-color="#2780E6"/>
<stop offset="1" stop-color="#781896"/>
</linearGradient>
<linearGradient id="paint2_linear_135_3380" x1="-0.648917" y1="46.1275" x2="48.2369" y2="36.5509" gradientUnits="userSpaceOnUse">
<stop stop-color="#2780E6"/>
<stop offset="1" stop-color="#781896"/>
</linearGradient>
<linearGradient id="paint3_linear_135_3380" x1="32.361" y1="48.3523" x2="53.6622" y2="47.1374" gradientUnits="userSpaceOnUse">
<stop stop-color="#2780E6"/>
<stop offset="1" stop-color="#781896"/>
</linearGradient>
<linearGradient id="paint4_linear_135_3380" x1="-9.97266" y1="76.1794" x2="55.855" y2="67.3484" gradientUnits="userSpaceOnUse">
<stop stop-color="#2780E6"/>
<stop offset="1" stop-color="#781896"/>
</linearGradient>
</defs>
</svg>
