<svg width="72" height="72" viewBox="0 0 72 72" fill="none" xmlns="http://www.w3.org/2000/svg">
<path d="M36.2224 16.3859C36.5511 16.3859 36.8716 16.3517 37.1811 16.286H37.1814V20.0553C37.1814 20.0553 37.1812 20.0553 37.1811 20.0553C36.5415 20.017 35.9019 20.017 35.2637 20.0553C35.2637 20.0553 35.2637 20.0553 35.2635 20.0553V16.2862C35.2635 16.2862 35.2635 16.2862 35.2637 16.2862C35.5732 16.3518 35.8937 16.3859 36.2224 16.3859ZM52.2591 35.1087C52.2974 35.7456 52.2974 36.3854 52.2591 37.0238H56.4116C56.346 36.7148 56.3117 36.3937 56.3117 36.0658C56.3117 35.7378 56.346 35.4177 56.4116 35.1087H52.2591ZM16.7946 35.1087C16.8602 35.4177 16.8944 35.7377 16.8944 36.0658C16.8944 36.3939 16.8602 36.715 16.7946 37.0238H20.1746C20.1554 36.7054 20.1458 36.3869 20.1458 36.0658C20.1458 35.7446 20.1554 35.4259 20.1746 35.1087H16.7946ZM47.5874 24.7173C47.8159 24.9456 48.0351 25.178 48.2445 25.4159L52.167 21.4991C51.9056 21.283 51.6522 21.0534 51.4086 20.8101C51.1963 20.5981 50.9949 20.3793 50.8032 20.1536C50.8032 20.1535 50.8029 20.1532 50.8028 20.1531L46.8883 24.0618C46.8883 24.0618 46.8886 24.0621 46.8889 24.0623C47.1272 24.2715 47.36 24.4903 47.5874 24.7173ZM37.1811 55.8482C37.1811 55.8482 37.1812 55.8482 37.1814 55.8482V52.0899C37.1814 52.0899 37.1812 52.0899 37.1811 52.0899C36.8634 52.109 36.5429 52.1186 36.221 52.1186C35.8992 52.1186 35.5814 52.109 35.2637 52.0899C35.2637 52.0899 35.2637 52.0899 35.2635 52.0899V55.8481C35.2635 55.8481 35.2635 55.8481 35.2637 55.8481C35.5732 55.7838 35.8937 55.7496 36.2224 55.7496C36.5511 55.7496 36.8716 55.7838 37.1811 55.8481V55.8482ZM50.9237 52.1037C51.1264 51.8603 51.3442 51.6237 51.5715 51.3967C51.7989 51.1696 52.0358 50.9536 52.2796 50.7498L48.2434 46.7194C48.0352 46.956 47.8161 47.1885 47.5887 47.4155C47.3614 47.6426 47.1272 47.8628 46.8875 48.0734C46.8875 48.0734 46.8873 48.0735 46.8872 48.0736L50.9234 52.1041C50.9234 52.1041 50.9234 52.104 50.9237 52.1038V52.1037ZM24.1959 46.7181C24.1959 46.7181 24.1958 46.7179 24.1956 46.7178L20.2705 50.6404C20.5143 50.8428 20.7498 51.0589 20.9786 51.2872C21.2059 51.5143 21.4223 51.7509 21.6264 51.9943C21.6264 51.9943 21.6264 51.9944 21.6265 51.9946L25.5515 48.072C25.3132 47.8614 25.0804 47.6426 24.853 47.4155C24.6257 47.1885 24.4065 46.956 24.1956 46.7181H24.1959ZM21.0376 20.8101H21.0362C20.7911 21.0549 20.5363 21.2846 20.2747 21.4994C20.2747 21.4994 20.2747 21.4994 20.2744 21.4995L24.1956 25.415C24.1956 25.415 24.1956 25.4148 24.1958 25.4147C24.4067 25.1767 24.6258 24.9442 24.8532 24.7172C25.0805 24.4902 25.3133 24.2714 25.5517 24.0608L21.6401 20.1549C21.4511 20.3791 21.2497 20.598 21.0374 20.8099L21.0376 20.8101ZM36.2224 14.7461C37.896 14.7461 39.2561 13.3853 39.2561 11.7127C39.2561 10.0402 37.896 8.68349 36.2224 8.68349C34.5487 8.68349 33.1846 10.0429 33.1846 11.7127C33.1846 13.3826 34.5474 14.7461 36.2224 14.7461ZM36.2224 40.8483C32.1067 40.8483 28.5101 43.5151 27.3008 47.3964C29.8345 49.3945 32.9436 50.479 36.221 50.479C39.4985 50.479 42.6061 49.3958 45.1399 47.3978C43.9319 43.5165 40.3367 40.8483 36.2224 40.8483ZM46.4273 25.8771C43.6128 23.0694 39.9162 21.6648 36.221 21.6648C32.5258 21.6648 28.8279 23.068 26.0134 25.8771C23.2892 28.5986 21.7881 32.2173 21.7881 36.0658C21.7881 39.9142 23.2741 43.4987 25.975 46.2148C27.1556 43.1568 29.6318 40.8264 32.6724 39.7939C30.8974 38.6341 29.7209 36.632 29.7209 34.3604C29.7209 30.7813 32.6381 27.8697 36.2224 27.8697C39.8066 27.8697 42.7198 30.7813 42.7198 34.3604C42.7198 36.632 41.5447 38.6341 39.7697 39.7939C42.8088 40.8264 45.2864 43.1568 46.4656 46.2162C52.0536 40.5953 52.0399 31.4815 46.4273 25.8771ZM61.9025 12.0888C61.9025 10.5024 60.6095 9.21002 59.0194 9.21002C57.4293 9.21002 56.1364 10.5024 56.1364 12.0888C56.1364 13.6753 57.4307 14.9677 59.0194 14.9677C60.6082 14.9677 61.9025 13.6766 61.9025 12.0888ZM56.1159 15.5516C55.1243 14.7215 54.4943 13.4783 54.4943 12.0888C54.4943 9.59706 56.524 7.57026 59.0194 7.57026C61.5149 7.57026 63.5446 9.59706 63.5446 12.0888C63.5446 13.4783 62.9132 14.7229 61.9216 15.553C63.6213 16.2696 65.0169 17.6017 65.7976 19.3112C69.0244 15.7376 68.9176 10.2029 65.473 6.76064C63.6939 4.98548 61.356 4.0979 59.0208 4.0979C56.6856 4.0979 54.3477 4.98548 52.5686 6.76064C50.8443 8.48245 49.8951 10.7718 49.8951 13.2048C49.8951 15.4832 50.7265 17.6331 52.2454 19.3112C53.0233 17.6017 54.4162 16.2696 56.1159 15.5516ZM59.0194 16.6074C56.5268 16.6074 54.3422 18.1802 53.5383 20.4914C56.7719 22.9203 61.2683 22.9203 64.5047 20.4901C63.6966 18.1802 61.5094 16.6074 59.0194 16.6074ZM57.9539 36.0658C57.9539 37.7383 59.3166 39.0991 60.9917 39.0991C62.6667 39.0991 64.0253 37.7383 64.0253 36.0658C64.0253 34.3932 62.6653 33.0365 60.9917 33.0365C59.318 33.0365 57.9539 34.3959 57.9539 36.0658ZM61.9641 57.8258C61.9641 56.2585 60.6862 54.9825 59.1167 54.9825C57.5471 54.9825 56.2693 56.2585 56.2693 57.8258C56.2693 59.3931 57.5457 60.669 59.1167 60.669C60.6876 60.669 61.9641 59.3944 61.9641 57.8258ZM59.1167 62.3088C56.6528 62.3088 54.4943 63.8611 53.6985 66.1422C56.8952 68.5424 61.3382 68.541 64.5348 66.1422C63.7391 63.8611 61.5792 62.3088 59.1167 62.3088ZM65.5018 52.5564C63.7953 50.8523 61.5286 49.9142 59.1167 49.9142C56.7048 49.9142 54.4381 50.8523 52.733 52.5564C51.0264 54.2577 50.0869 56.5211 50.0869 58.9294C50.0869 61.1778 50.9059 63.3017 52.4043 64.9606C53.1767 63.2771 54.5504 61.9628 56.2268 61.2544C55.2489 60.4311 54.6271 59.2002 54.6271 57.8258C54.6271 55.3545 56.6404 53.3428 59.1167 53.3428C61.5929 53.3428 63.6062 55.3545 63.6062 57.8258C63.6062 59.2002 62.9844 60.4311 62.0065 61.2544C63.6829 61.9628 65.0567 63.2771 65.8277 64.962C67.3275 63.3031 68.1465 61.1792 68.1465 58.9294C68.1465 56.5211 67.2069 54.2577 65.5018 52.5564ZM36.2224 57.3895C34.5474 57.3895 33.1846 58.7489 33.1846 60.4201C33.1846 62.0914 34.5474 63.4535 36.2224 63.4535C37.8974 63.4535 39.2561 62.0927 39.2561 60.4201C39.2561 58.7476 37.896 57.3895 36.2224 57.3895ZM13.324 62.3485C10.8162 62.3485 8.61664 63.9308 7.80584 66.2571C9.3891 67.451 11.3079 68.0979 13.3253 68.0979C15.3428 68.0979 17.2616 67.4524 18.8435 66.2571C18.0313 63.9308 15.8317 62.3485 13.324 62.3485ZM16.2262 57.8107C16.2262 56.2106 14.925 54.9087 13.324 54.9087C11.7229 54.9087 10.4218 56.2106 10.4218 57.8107C10.4218 59.4108 11.7243 60.7087 13.324 60.7087C14.9237 60.7087 16.2262 59.4081 16.2262 57.8107ZM13.3253 49.7678C10.9737 49.7678 8.62212 50.6609 6.83068 52.4484C3.36147 55.9125 3.25464 61.4814 6.51293 65.0741C7.29772 63.3537 8.70293 62.012 10.4149 61.2927C9.41649 60.4612 8.77963 59.2084 8.77963 57.8107C8.77963 55.3067 10.819 53.2689 13.324 53.2689C15.829 53.2689 17.8683 55.3067 17.8683 57.8107C17.8683 59.2084 17.2328 60.4612 16.233 61.2927C17.9464 62.0134 19.3516 63.355 20.1364 65.0769C21.6676 63.3892 22.5058 61.2229 22.5058 58.9294C22.5058 56.4801 21.5512 54.1784 19.8173 52.447C18.0286 50.6609 15.677 49.7678 13.3253 49.7678ZM9.17955 36.0658C9.17955 37.7383 10.5409 39.0991 12.2146 39.0991C13.8883 39.0991 15.2524 37.7383 15.2524 36.0658C15.2524 34.3932 13.8896 33.0365 12.2146 33.0365C10.5396 33.0365 9.17955 34.3959 9.17955 36.0658ZM13.4212 16.6074C10.9313 16.6074 8.74539 18.1802 7.93595 20.4901C11.1696 22.9189 15.6674 22.9203 18.9024 20.4928C18.0998 18.1815 15.9139 16.6074 13.4212 16.6074ZM16.3042 12.0888C16.3042 10.5024 15.0113 9.21002 13.4212 9.21002C11.8311 9.21002 10.5382 10.5024 10.5382 12.0888C10.5382 13.6753 11.8325 14.9677 13.4212 14.9677C15.01 14.9677 16.3042 13.6766 16.3042 12.0888ZM10.519 15.553C9.52743 14.7229 8.89604 13.4783 8.89604 12.0888C8.89604 9.59706 10.9258 7.57026 13.4212 7.57026C15.9166 7.57026 17.9464 9.59706 17.9464 12.0888C17.9464 13.4783 17.3164 14.7215 16.3248 15.5516C18.0258 16.2696 19.4187 17.603 20.1966 19.3139C23.4275 15.7404 23.3207 10.2029 19.8748 6.76064C18.097 4.98548 15.7591 4.0979 13.4212 4.0979C11.0833 4.0979 8.74676 4.98548 6.96764 6.76064C3.52309 10.2029 3.41626 15.7376 6.64441 19.3112C7.42509 17.6017 8.81798 16.2696 10.519 15.553ZM41.0776 34.3604C41.0776 31.6853 38.9 29.5094 36.2224 29.5094C33.5448 29.5094 31.363 31.6853 31.363 34.3604C31.363 37.0354 33.5434 39.2085 36.2224 39.2085C38.9013 39.2085 41.0776 37.034 41.0776 34.3604Z" fill="white"/>
</svg>
