<svg width="72" height="72" viewBox="0 0 72 72" fill="none" xmlns="http://www.w3.org/2000/svg">
<path d="M30.4297 31.9277C30.4297 32.896 31.19 33.6563 32.1582 33.6563C33.1264 33.6563 33.8867 32.896 33.8867 31.9277C33.8867 30.9595 33.1264 30.1992 32.1582 30.1992C31.19 30.1992 30.4297 30.9595 30.4297 31.9277Z" fill="white"/>
<path d="M42.5293 50.9415C53.108 50.9415 62.0269 43.5435 64.378 33.6563H57.775C57.0836 35.6616 55.1475 37.1133 52.9005 37.1133C50.0308 37.1133 47.7149 34.7974 47.7149 31.9278C47.7149 31.1328 47.8877 30.3721 48.2334 29.7153L44.7418 26.2236C44.085 26.5693 43.3243 26.7422 42.5293 26.7422C41.7344 26.7422 40.9737 26.5693 40.3169 26.2236L36.8252 29.7153C37.1709 30.3721 37.3438 31.1328 37.3438 31.9278C37.3438 34.7974 35.0278 37.1133 32.1582 37.1133C29.2886 37.1133 26.9727 34.7974 26.9727 31.9278C26.9727 31.1328 27.1455 30.3721 27.4912 29.7153L20.75 22.9741C20.3008 24.7373 20.0586 26.5693 20.0586 28.4707C20.0586 40.8472 30.1529 50.9415 42.5293 50.9415Z" fill="white"/>
<path d="M40.8008 21.5566C40.8008 22.5249 41.5611 23.2852 42.5293 23.2852C43.4975 23.2852 44.2578 22.5249 44.2578 21.5566C44.2578 20.5884 43.4975 19.8281 42.5293 19.8281C41.5611 19.8281 40.8008 20.5884 40.8008 21.5566Z" fill="white"/>
<path d="M51.1719 31.9277C51.1719 32.896 51.9322 33.6563 52.9004 33.6563C53.8686 33.6563 54.6289 32.896 54.6289 31.9277C54.6289 30.9595 53.8686 30.1992 52.9004 30.1992C51.9322 30.1992 51.1719 30.9595 51.1719 31.9277Z" fill="white"/>
<path d="M42.5293 6C33.4029 6 25.521 11.4966 22.0293 19.3443L29.9458 27.2608C30.6026 26.9151 31.3633 26.7422 32.1582 26.7422C32.9532 26.7422 33.7139 26.9151 34.3706 27.2608L37.8623 23.7691C37.5166 23.1123 37.3438 22.3516 37.3438 21.5567C37.3438 18.6871 39.6597 16.3711 42.5293 16.3711C45.399 16.3711 47.7149 18.6871 47.7149 21.5567C47.7149 22.3516 47.5421 23.1123 47.1963 23.7691L50.688 27.2608C51.3448 26.9151 52.1055 26.7422 52.9005 26.7422C55.1475 26.7422 57.0836 28.1939 57.775 30.1993H64.9308C64.9654 29.646 65.0001 29.0582 65.0001 28.4707C65.0001 16.0943 54.9058 6 42.5293 6Z" fill="white"/>
<path d="M20.0586 14.6426C20.0586 11.773 17.7427 9.45703 14.8731 9.45703C12.626 9.45703 10.69 10.9087 9.99855 12.9141H6V16.3711H9.99855C10.69 18.3765 12.626 19.8281 14.8731 19.8281C15.668 19.8281 16.4287 19.6553 17.0855 19.3096L20.75 22.9741C21.0611 21.7295 21.4761 20.5195 22.0293 19.3442L19.5401 16.855C19.8858 16.1983 20.0586 15.4375 20.0586 14.6426Z" fill="white"/>
<path d="M14.8492 63.4841L28.2448 50.0881C25.3369 48.1597 22.8405 45.6632 20.9121 42.7554L7.51651 56.1514C5.4945 58.1738 5.4945 61.4621 7.51651 63.4841C9.53716 65.5047 12.8272 65.5065 14.8492 63.4841Z" fill="white"/>
</svg>
