<svg width="72" height="72" viewBox="0 0 72 72" fill="none" xmlns="http://www.w3.org/2000/svg">
<path fill-rule="evenodd" clip-rule="evenodd" d="M52.4706 66.9118H68.9412C70.0782 66.9118 71 65.99 71 64.853V29.8529C71 28.7159 70.0782 27.7941 68.9412 27.7941H52.4706V66.9118ZM56.5883 39.1176C56.5883 41.9574 58.8938 44.2647 61.7354 44.2647C64.5751 44.2647 66.8824 41.9592 66.8824 39.1176C66.8824 36.2779 64.5769 33.9706 61.7354 33.9706C58.8955 33.9706 56.5883 36.276 56.5883 39.1176ZM55.5589 52.4903C55.5589 53.0642 56.028 53.5294 56.5908 53.5294H66.8798C67.4498 53.5294 67.9117 53.0731 67.9117 52.4903V50.4508C67.9117 49.8769 67.4426 49.4117 66.8798 49.4117H56.5908C56.021 49.4117 55.5589 49.8681 55.5589 50.4508V52.4903ZM57.6176 59.6962C57.6176 60.2701 58.084 60.7353 58.644 60.7353H64.8266C65.3934 60.7353 65.853 60.2789 65.853 59.6962V57.6567C65.853 57.0828 65.3866 56.6176 64.8266 56.6176H58.644C58.0772 56.6176 57.6176 57.0739 57.6176 57.6567V59.6962ZM25.7059 24.7058C24.5689 24.7058 23.6471 25.6276 23.6471 26.7646V67.9411C23.6471 69.0781 24.5689 69.9999 25.7059 69.9999H46.2941C47.4311 69.9999 48.3529 69.0781 48.3529 67.9411V26.7647C48.3529 25.6277 47.4311 24.7059 46.2941 24.7059H25.7059V24.7058ZM29.8235 37.0588C29.8235 40.4664 32.5903 43.2353 36 43.2353C39.4076 43.2353 42.1765 40.4686 42.1765 37.0588C42.1765 33.6513 39.4097 30.8823 36 30.8823C32.5924 30.8823 29.8235 33.6491 29.8235 37.0588ZM28.7942 52.4903C28.7942 53.0642 29.2573 53.5294 29.8306 53.5294H42.1695C42.7419 53.5294 43.206 53.0731 43.206 52.4903V50.4508C43.206 49.8769 42.7428 49.4117 42.1695 49.4117H29.8306C29.2582 49.4117 28.7942 49.8681 28.7942 50.4508V52.4903ZM31.8824 59.6962C31.8824 60.2701 32.3488 60.7353 32.9088 60.7353H39.0913C39.6581 60.7353 40.1177 60.2789 40.1177 59.6962V57.6567C40.1177 57.0828 39.6514 56.6176 39.0913 56.6176H32.9086C32.3419 56.6176 31.8823 57.0739 31.8823 57.6567L31.8824 59.6962ZM3.0588 27.7941C1.92179 27.7941 1 28.7159 1 29.8529V64.8529C1 65.9899 1.92179 66.9117 3.0588 66.9117H19.5294V27.7941H3.0588ZM5.11759 39.1176C5.11759 41.9574 7.42305 44.2647 10.2646 44.2647C13.1044 44.2647 15.4117 41.9592 15.4117 39.1176C15.4117 36.2779 13.1062 33.9706 10.2646 33.9706C7.42489 33.9706 5.11759 36.276 5.11759 39.1176ZM4.08825 52.4903C4.08825 53.0642 4.55736 53.5294 5.12023 53.5294H15.4092C15.979 53.5294 16.4411 53.0731 16.4411 52.4903V50.4508C16.4411 49.8769 15.972 49.4117 15.4092 49.4117H5.12023C4.55035 49.4117 4.08825 49.8681 4.08825 50.4508V52.4903ZM6.14705 59.6962C6.14705 60.2701 6.6134 60.7353 7.17341 60.7353H13.356C13.9228 60.7353 14.3823 60.2789 14.3823 59.6962V57.6567C14.3823 57.0828 13.916 56.6176 13.356 56.6176H7.17341C6.60662 56.6176 6.14705 57.0739 6.14705 57.6567V59.6962ZM17.4706 5.13733C17.4706 5.71123 17.9392 6.17643 18.5004 6.17643H53.4995C54.0683 6.17643 54.5293 5.72007 54.5293 5.13733V3.09793C54.5293 2.52404 54.0606 2.05884 53.4995 2.05884H18.5004C17.9316 2.05884 17.4706 2.5152 17.4706 3.09793V5.13733ZM26.7354 13.3726C26.7354 13.9465 27.1934 14.4117 27.758 14.4117H44.2422C44.807 14.4117 45.2649 13.9554 45.2649 13.3726V11.3332C45.2649 10.7593 44.8068 10.2941 44.2422 10.2941H27.7579C27.1931 10.2941 26.7352 10.7505 26.7352 11.3332V13.3726H26.7354Z" fill="white"/>
</svg>
