<svg width="72" height="72" viewBox="0 0 72 72" fill="none" xmlns="http://www.w3.org/2000/svg">
<path fill-rule="evenodd" clip-rule="evenodd" d="M54.3213 57.5224C52.0558 59.4585 49.115 60.6276 45.9008 60.6276C38.7388 60.6276 32.9338 54.8227 32.9338 47.6605C32.9338 40.4983 38.7388 34.6935 45.9008 34.6935C53.063 34.6935 58.868 40.4983 58.868 47.6605C58.868 50.4287 58.0008 52.994 56.5233 55.0999L60.5761 59.0571L60.7378 58.8905C61.1877 58.4259 61.9401 58.4148 62.4048 58.8647L69.5264 65.7761C69.991 66.2261 70.002 66.9747 69.5484 67.443L66.9779 70.091C66.528 70.5558 65.7793 70.5668 65.3109 70.1169L58.193 63.2056C57.7246 62.7555 57.7136 62.0032 58.1672 61.5386L58.2978 61.404L54.3213 57.5224ZM45.9008 56.9947C51.0419 56.9947 55.235 52.8015 55.235 47.6605C55.235 42.5196 51.0419 38.3263 45.9008 38.3263C40.7599 38.3263 36.5668 42.5196 36.5668 47.6605C36.5668 52.8015 40.7599 56.9947 45.9008 56.9947ZM37.3397 12.1699V18.2992H43.7119C44.1018 18.2992 44.4177 18.6153 44.4177 19.0051V32.5059C36.7042 33.2513 30.6749 39.7511 30.6749 47.6605C30.6749 48.4483 30.7348 49.2221 30.8501 49.9776H29.0127V19.0051C29.0127 18.6153 29.3288 18.2992 29.7186 18.2992H35.0809V2.68239C35.0809 2.0591 35.587 1.55298 36.2103 1.55298C36.8336 1.55298 37.3397 2.0591 37.3397 2.68239V3.56785H48.2819C48.3489 3.56785 48.4101 3.60653 48.4387 3.66724C48.4674 3.72794 48.4585 3.79966 48.416 3.85161L44.8972 8.13787C44.8409 8.20648 44.8454 8.30658 44.9076 8.36983L48.3581 11.8745C48.4071 11.9244 48.4215 11.9988 48.3946 12.0633C48.3674 12.1278 48.3043 12.1699 48.2345 12.1699H37.3397ZM32.8414 55.4937H2.11719V52.2365H31.3745C31.7366 53.3872 32.2315 54.4789 32.8414 55.4937ZM51.0794 33.3377V29.7819C51.0794 29.5947 51.1538 29.4151 51.2863 29.2829C51.4185 29.1504 51.5981 29.076 51.7853 29.076H65.7786C65.9658 29.076 66.1454 29.1504 66.2778 29.2829C66.4101 29.4151 66.4845 29.5947 66.4845 29.7819V49.9776H60.9516C61.067 49.2221 61.1268 48.4483 61.1268 47.6605C61.1268 41.069 56.9394 35.4565 51.0794 33.3377ZM60.4273 52.2365H69.8819V55.4937H58.9603C59.5702 54.4789 60.0652 53.3872 60.4273 52.2365ZM6.94613 49.9776V35.3993C6.94613 35.0094 7.26208 34.6935 7.65201 34.6935H21.6453C22.0351 34.6935 22.3512 35.0094 22.3512 35.3993V49.9776H6.94613Z" fill="white"/>
</svg>
