<svg width="72" height="72" viewBox="0 0 72 72" fill="none" xmlns="http://www.w3.org/2000/svg">
<path fill-rule="evenodd" clip-rule="evenodd" d="M11.291 47.8958C11.3749 48.1018 11.3753 48.333 11.2921 48.5393C11.2089 48.7456 11.0489 48.9103 10.8467 48.9975C10.6445 49.0848 10.4166 49.0876 10.2123 49.0054C10.0081 48.9232 9.84413 48.7625 9.756 48.5584C8.19379 44.8433 7.38917 40.8458 7.39063 36.8068C7.39063 20.2805 20.5985 6.88281 36.8906 6.88281C53.1827 6.88281 66.3906 20.2804 66.3906 36.8068C66.3923 40.8458 65.5878 44.8432 64.0259 48.5584C63.9377 48.7625 63.7737 48.9232 63.5695 49.0054C63.3653 49.0876 63.1373 49.0848 62.9352 48.9975C62.733 48.9103 62.5729 48.7456 62.4897 48.5393C62.4066 48.333 62.407 48.1018 62.4909 47.8958C63.9673 44.391 64.7252 40.6182 64.7186 36.8068C64.7186 21.2168 52.2596 8.57891 36.8906 8.57891C21.5216 8.57891 9.06269 21.2169 9.06269 36.8068C9.05628 40.6182 9.81441 44.3911 11.291 47.8958ZM57.0173 53.192C57.0171 53.7336 57.1752 54.263 57.4717 54.7134C57.7682 55.1638 58.1897 55.5149 58.6829 55.7223C59.1761 55.9296 59.7188 55.984 60.2425 55.8785C60.7661 55.7729 61.2472 55.5122 61.6247 55.1294C62.0023 54.7465 62.2595 54.2586 62.3637 53.7275C62.4679 53.1963 62.4145 52.6458 62.2103 52.1454C62.006 51.6451 61.66 51.2174 61.2161 50.9165C60.7722 50.6156 60.2504 50.455 59.7165 50.455C59.3621 50.4549 59.0111 50.5256 58.6837 50.6631C58.3562 50.8007 58.0587 51.0022 57.808 51.2564C57.5574 51.5106 57.3585 51.8123 57.2228 52.1444C57.0872 52.4765 57.0173 52.8325 57.0173 53.192ZM54.142 53.8088C54.1351 52.2426 53.5168 50.7429 52.4226 49.638C51.3283 48.533 49.8471 47.9127 48.3031 47.9127C46.7591 47.9127 45.2779 48.533 44.1837 49.638C43.0894 50.7429 42.4712 52.2426 42.4642 53.8088C42.4642 57.0798 54.142 57.0798 54.142 53.8088ZM45.6047 43.5716C45.6045 44.1132 45.7627 44.6426 46.0591 45.093C46.3556 45.5434 46.7771 45.8945 47.2703 46.1019C47.7635 46.3092 48.3062 46.3636 48.8299 46.2581C49.3536 46.1525 49.8346 45.8918 50.2122 45.509C50.5898 45.1261 50.8469 44.6382 50.9512 44.1071C51.0554 43.5759 51.002 43.0254 50.7977 42.525C50.5935 42.0247 50.2475 41.597 49.8036 41.2961C49.3597 40.9952 48.8378 40.8346 48.3039 40.8346C47.5882 40.8346 46.9018 41.1229 46.3956 41.6362C45.8895 42.1494 45.605 42.8456 45.6047 43.5716ZM31.317 53.8088C31.3101 52.2426 30.6918 50.7429 29.5976 49.638C28.5033 48.533 27.0221 47.9127 25.4781 47.9127C23.9341 47.9127 22.4529 48.533 21.3587 49.638C20.2644 50.7429 19.6462 52.2426 19.6392 53.8088C19.6392 57.0798 31.317 57.0798 31.317 53.8088ZM22.7796 43.5716C22.7794 44.1132 22.9375 44.6426 23.234 45.093C23.5305 45.5434 23.952 45.8945 24.4452 46.1019C24.9384 46.3092 25.4811 46.3636 26.0048 46.2581C26.5284 46.1525 27.0095 45.8918 27.3871 45.509C27.7646 45.1261 28.0218 44.6382 28.126 44.1071C28.2303 43.5759 28.1769 43.0254 27.9726 42.525C27.7683 42.0247 27.4224 41.597 26.9785 41.2961C26.5346 40.9952 26.0127 40.8346 25.4788 40.8346C24.7631 40.8346 24.0767 41.1229 23.5705 41.6362C23.0643 42.1494 22.7798 42.8456 22.7796 43.5716ZM11.367 53.192C11.3668 53.7336 11.525 54.263 11.8215 54.7134C12.1179 55.1638 12.5394 55.5149 13.0326 55.7223C13.5258 55.9296 14.0686 55.984 14.5922 55.8785C15.1159 55.7729 15.5969 55.5122 15.9745 55.1294C16.3521 54.7465 16.6093 54.2586 16.7135 53.7275C16.8177 53.1963 16.7643 52.6458 16.56 52.1454C16.3558 51.6451 16.0098 51.2174 15.5659 50.9165C15.122 50.6156 14.6001 50.455 14.0662 50.455C13.3505 50.455 12.6641 50.7433 12.1579 51.2566C11.6518 51.7698 11.3673 52.466 11.367 53.192ZM65.5546 63.4295C65.5546 66.7006 53.8768 66.7006 53.8768 63.4295C53.8838 61.8633 54.502 60.3637 55.5963 59.2587C56.6905 58.1538 58.1717 57.5334 59.7157 57.5334C61.2597 57.5334 62.7409 58.1538 63.8351 59.2587C64.9294 60.3637 65.5476 61.8633 65.5546 63.4295ZM34.1922 53.1924C34.192 53.7339 34.3503 54.2634 34.6468 54.7137C34.9434 55.1641 35.3649 55.5151 35.8582 55.7224C36.3514 55.9297 36.8942 55.984 37.4178 55.8784C37.9415 55.7727 38.4225 55.5119 38.8 55.129C39.1775 54.746 39.4346 54.2581 39.5387 53.7269C39.6428 53.1957 39.5893 52.6451 39.3849 52.1448C39.1805 51.6445 38.8345 51.2169 38.3905 50.9161C37.9465 50.6153 37.4245 50.4548 36.8906 50.455C36.1749 50.455 35.4885 50.7433 34.9823 51.2566C34.4762 51.7698 34.1917 52.466 34.1914 53.192L34.1922 53.1924ZM42.7295 63.4295C42.7295 66.7006 31.0518 66.7006 31.0518 63.4295C31.0518 61.8587 31.6669 60.3522 32.7619 59.2415C33.8569 58.1308 35.3421 57.5068 36.8906 57.5068C38.4392 57.5068 39.9243 58.1308 41.0193 59.2415C42.1143 60.3522 42.7295 61.8587 42.7295 63.4295ZM19.9045 63.4295C19.9045 66.7006 8.22666 66.7006 8.22666 63.4295C8.23364 61.8633 8.85189 60.3637 9.94614 59.2587C11.0404 58.1538 12.5216 57.5334 14.0656 57.5334C15.6096 57.5334 17.0907 58.1538 18.185 59.2587C19.2792 60.3637 19.8975 61.8633 19.9045 63.4295ZM48.677 22.3866C50.0147 26.3097 50.8238 30.9616 50.9064 35.9588H62.2096C62.0262 30.0571 59.8365 24.4013 56.0119 19.9502C53.6541 21.0111 51.1966 21.8274 48.6769 22.3866H48.677ZM37.7267 12.0784V21.9608C40.6427 21.9238 43.5507 21.6436 46.4214 21.1229C44.8909 17.4065 41.9643 12.6642 37.7267 12.0784ZM37.7267 23.6571V35.9588H49.234C49.1504 31.0562 48.3502 26.5183 47.0318 22.7315C43.9619 23.3092 40.8488 23.6189 37.7267 23.6571ZM36.0546 35.9588V23.6571C32.9325 23.6189 29.8194 23.3092 26.7494 22.7315C25.4304 26.5183 24.6302 31.0562 24.5471 35.9588H36.0546ZM36.0546 21.9608V12.0784C31.8163 12.6643 28.89 17.4064 27.3599 21.1229C30.2305 21.6436 33.1386 21.9238 36.0546 21.9608ZM22.8749 35.9588C22.9573 30.9616 23.7662 26.3097 25.1042 22.3866C22.5846 21.8274 20.1271 21.0111 17.7694 19.9502C13.9447 24.4013 11.7551 30.0571 11.5716 35.9588H22.8749ZM25.6962 20.7846C27.119 17.2214 29.4352 13.346 32.808 11.4422C27.565 12.3087 22.724 14.8278 18.9717 18.6421C21.1418 19.5688 23.3931 20.2861 25.6958 20.7846H25.6962ZM40.9732 11.4422C44.3456 13.346 46.6624 17.221 48.0851 20.7846C50.3878 20.2861 52.6391 19.5688 54.8092 18.6421C51.0569 14.8279 46.2161 12.3089 40.9732 11.4422Z" fill="white"/>
</svg>
