<svg width="55" height="55" viewBox="0 0 55 55" fill="none" xmlns="http://www.w3.org/2000/svg">
<g clip-path="url(#clip0_20_1623)">
<path d="M46.6093 27.1606H53.3887C54.2781 27.1606 55 26.4398 55 25.5492C55 24.6598 54.2781 23.9379 53.3887 23.9379H47.2495C48.0219 19.0696 47.6631 15.7771 47.6427 15.5998C47.5696 14.9628 47.126 14.43 46.5137 14.2431C44.0655 13.4933 41.9321 12.7327 40.0759 11.9872V8.00403H45.6092C46.2741 9.87961 48.0659 11.2267 50.166 11.2267C52.8312 11.2267 55 9.05784 55 6.3927C55 3.72649 52.8312 1.55872 50.166 1.55872C48.0659 1.55872 46.2741 2.90579 45.6092 4.78137H38.4646C37.574 4.78137 36.8532 5.50217 36.8532 6.3927V10.5854C30.8806 7.76555 28.9008 5.45276 28.7815 5.30881C28.1378 4.42312 26.8628 4.42237 26.2185 5.30881C26.0992 5.45276 24.1194 7.76555 18.1468 10.5854V6.3927C18.1468 5.50217 17.426 4.78137 16.5354 4.78137H9.39082C8.72588 2.90579 6.93408 1.55872 4.83398 1.55872C2.16885 1.55872 0 3.72649 0 6.3927C0 9.05784 2.16885 11.2267 4.83398 11.2267C6.93408 11.2267 8.72588 9.87961 9.39082 8.00403H14.9241V11.9872C13.0679 12.7327 10.9345 13.4933 8.48633 14.2431C7.87402 14.43 7.43037 14.9628 7.35732 15.5998C7.33691 15.7771 6.97813 19.0696 7.75049 23.9379H1.61133C0.721875 23.9379 0 24.6598 0 25.5492C0 26.4398 0.721875 27.1606 1.61133 27.1606H8.39072C8.74274 28.6266 9.15417 30.0356 9.70234 31.5702H5.27549C4.38604 31.5702 3.66416 32.291 3.66416 33.1816C3.66416 34.071 4.38604 34.7929 5.27549 34.7929H11.0021C12.4005 37.8847 14.1021 40.6793 16.1165 43.2867H9.39082C8.72588 41.4112 6.93408 40.0641 4.83398 40.0641C2.16885 40.0641 0 42.2329 0 44.8981C0 47.5632 2.16885 49.7321 4.83398 49.7321C6.93408 49.7321 8.72588 48.385 9.39082 46.5094H18.8644C21.1342 48.9296 23.7112 51.1522 26.5783 53.1513C27.1327 53.538 27.8674 53.538 28.4217 53.1513C31.2888 51.1522 33.8658 48.9296 36.1356 46.5094H45.6092C46.2741 48.385 48.0659 49.7321 50.166 49.7321C52.8312 49.7321 55 47.5632 55 44.8981C55 42.2329 52.8312 40.0641 50.166 40.0641C48.0659 40.0641 46.2741 41.4112 45.6092 43.2867H38.8835C40.893 40.6855 42.5963 37.8918 43.9978 34.7929H49.7245C50.614 34.7929 51.3358 34.071 51.3358 33.1816C51.3358 32.291 50.614 31.5702 49.7245 31.5702H45.2977C45.8452 30.0374 46.2567 28.6284 46.6093 27.1606ZM36.3666 35.4149C36.3666 37.0348 35.0496 38.3518 33.4297 38.3518H21.5703C19.9504 38.3518 18.6334 37.0348 18.6334 35.4149V26.1873C18.6334 24.9069 19.4562 23.8165 20.6014 23.4148V22.3663C20.6014 18.5625 23.6962 15.4677 27.5 15.4677C31.3038 15.4677 34.3986 18.5625 34.3986 22.3663V23.4148C35.5438 23.8165 36.3666 24.9069 36.3666 26.1873V35.4149Z" fill="url(#paint0_linear_20_1623)"/>
<path d="M21.8561 26.4731V35.1291H33.1439V26.4731H21.8561ZM29.1113 31.3694C29.1113 32.2599 28.3895 32.9807 27.5 32.9807C26.6105 32.9807 25.8887 32.2599 25.8887 31.3694V30.2328C25.8887 29.3423 26.6105 28.6215 27.5 28.6215C28.3895 28.6215 29.1113 29.3423 29.1113 30.2328V31.3694Z" fill="#6433AB"/>
<path d="M31.176 22.3663V23.2504H23.824V22.3663C23.824 20.3393 25.4729 18.6904 27.5 18.6904C29.527 18.6904 31.176 20.3393 31.176 22.3663Z" fill="#5B3FB4"/>
</g>
<defs>
<linearGradient id="paint0_linear_20_1623" x1="-19.4935" y1="98.211" x2="62.1239" y2="93.3747" gradientUnits="userSpaceOnUse">
<stop stop-color="#2780E6"/>
<stop offset="1" stop-color="#781896"/>
</linearGradient>
<clipPath id="clip0_20_1623">
<rect width="55" height="55" fill="white"/>
</clipPath>
</defs>
</svg>
