<svg width="51" height="51" viewBox="0 0 51 51" fill="none" xmlns="http://www.w3.org/2000/svg">
<path fill-rule="evenodd" clip-rule="evenodd" d="M37.7188 8.07287C37.7188 7.14424 37.1514 6.30912 36.2865 5.96699C35.4216 5.62487 34.4356 5.84587 33.8003 6.52374C29.7585 10.8354 24.1124 13.2812 18.2049 13.2812C15.64 13.2812 12.9519 13.2812 10.625 13.2812C8.51062 13.2812 6.4855 14.1206 4.9895 15.6145C3.49563 17.1105 2.65625 19.1356 2.65625 21.25V23.375C2.65625 25.4894 3.49563 27.5145 4.9895 29.0105C6.4855 30.5044 8.51062 31.3437 10.625 31.3437H18.2049C24.1124 31.3437 29.7585 33.7896 33.8003 38.1012C34.4356 38.7791 35.4216 39.0001 36.2865 38.658C37.1514 38.3159 37.7188 37.4807 37.7188 36.5521C37.7188 31.0271 37.7188 13.5979 37.7188 8.07287Z" fill="url(#paint0_linear_20_1597)"/>
<path fill-rule="evenodd" clip-rule="evenodd" d="M46.75 20.7188H43.5625C42.6827 20.7188 41.9688 21.4327 41.9688 22.3125C41.9688 23.1923 42.6827 23.9062 43.5625 23.9062H46.75C47.6297 23.9062 48.3438 23.1923 48.3438 22.3125C48.3438 21.4327 47.6297 20.7188 46.75 20.7188Z" fill="#73209C"/>
<path fill-rule="evenodd" clip-rule="evenodd" d="M40.7767 30.8125L43.0313 33.0671C43.6539 33.6876 44.6633 33.6876 45.2859 33.0671C45.9064 32.4445 45.9064 31.4351 45.2859 30.8125L43.0313 28.5578C42.4087 27.9373 41.3993 27.9373 40.7767 28.5578C40.1562 29.1805 40.1562 30.1898 40.7767 30.8125Z" fill="#73209C"/>
<path fill-rule="evenodd" clip-rule="evenodd" d="M43.0313 16.0671L45.2859 13.8125C45.9064 13.1898 45.9064 12.1805 45.2859 11.5578C44.6633 10.9373 43.6539 10.9373 43.0313 11.5578L40.7767 13.8125C40.1562 14.4351 40.1562 15.4445 40.7767 16.0671C41.3993 16.6876 42.4087 16.6876 43.0313 16.0671Z" fill="#73209C"/>
<path fill-rule="evenodd" clip-rule="evenodd" d="M9.44775 33.4008L10.8843 42.0793C11.1796 43.8749 12.733 45.1924 14.552 45.1924H19.5309C20.451 45.1924 21.3074 44.7164 21.7898 43.9323C22.2743 43.1503 22.3189 42.1706 21.9066 41.3483L20.6571 38.8471C20.638 38.811 20.6253 38.7749 20.6146 38.7366L19.3226 33.5006C18.9508 33.4794 9.83663 33.4454 9.44775 33.4008Z" fill="#4D51C2"/>
<defs>
<linearGradient id="paint0_linear_20_1597" x1="-9.77085" y1="67.3006" x2="42.2595" y2="64.2113" gradientUnits="userSpaceOnUse">
<stop stop-color="#2780E6"/>
<stop offset="1" stop-color="#781896"/>
</linearGradient>
</defs>
</svg>
