<svg width="51" height="51" viewBox="0 0 51 51" fill="none" xmlns="http://www.w3.org/2000/svg">
<g clip-path="url(#clip0_20_1636)">
<mask id="mask0_20_1636" style="mask-type:alpha" maskUnits="userSpaceOnUse" x="0" y="0" width="51" height="51">
<path d="M22.0233 50.987C10.5018 49.5467 1.45092 40.4958 0.0120483 28.9772C-0.100726 28.0873 0.594552 27.2975 1.49476 27.2975H7.53498C8.26463 27.2975 8.88629 27.8244 9.00893 28.5424C10.1705 35.4217 15.5745 40.8271 22.4582 41.9901C23.1762 42.1127 23.703 42.7344 23.703 43.4641V49.5043C23.7029 50.3931 22.9324 51.0952 22.0233 50.987Z" fill="black"/>
<path d="M7.53537 23.9102H1.49514C0.594439 23.9102 -0.100241 23.12 0.0124337 22.2305C1.59437 9.55753 12.4227 0.000366211 25.1978 0.000366211C30.8732 0.000366211 36.2538 1.85079 40.7587 5.35179C41.4752 5.91078 41.5289 6.95893 40.8988 7.58895L36.6288 11.8604C36.1121 12.3785 35.3008 12.4428 34.7053 12.0209C31.9019 10.0231 28.614 8.96656 25.1977 8.96656C17.1582 8.96656 10.3489 14.728 9.00921 22.6654C8.88667 23.3833 8.26502 23.9102 7.53537 23.9102Z" fill="black"/>
<path d="M27.0901 49.5057V43.4655C27.0901 42.7358 27.617 42.1142 28.335 41.9916C36.2723 40.6519 42.0338 33.8426 42.0338 25.8031C42.0338 22.3868 40.9773 19.0989 38.9794 16.2954C38.5562 15.7015 38.6234 14.8872 39.1399 14.372L43.4114 10.102C44.0334 9.48004 45.0848 9.5195 45.6486 10.2421C49.1496 14.7471 51 20.1277 51 25.803C51 38.578 41.4427 49.4064 28.7698 50.9883C27.8508 51.0979 27.0901 50.3841 27.0901 49.5057Z" fill="black"/>
<path d="M19.5187 19.5268C19.5187 18.7015 18.8496 18.0325 18.0243 18.0325H15.0356C14.2103 18.0325 13.5412 18.7015 13.5412 19.5268V31.4818C13.5412 32.307 14.2103 32.9761 15.0356 32.9761H18.0243C18.8496 32.9761 19.5187 32.307 19.5187 31.4818V19.5268Z" fill="black"/>
<path d="M28.4849 31.4818V16.5381C28.4849 15.7128 27.8158 15.0438 26.9905 15.0438H24.0018C23.1765 15.0438 22.5074 15.7128 22.5074 16.5381V31.4818C22.5074 32.3071 23.1765 32.9761 24.0018 32.9761H26.9905C27.8159 32.9761 28.4849 32.3071 28.4849 31.4818Z" fill="black"/>
<path d="M37.4511 31.4818V25.5043C37.4511 24.679 36.782 24.0099 35.9567 24.0099H32.968C32.1427 24.0099 31.4736 24.679 31.4736 25.5043V31.4818C31.4736 32.3071 32.1427 32.9761 32.968 32.9761H35.9567C36.7821 32.9761 37.4511 32.3071 37.4511 31.4818Z" fill="black"/>
</mask>
<g mask="url(#mask0_20_1636)">
<rect x="-2" y="-2" width="58" height="56" fill="url(#paint0_linear_20_1636)"/>
</g>
</g>
<defs>
<linearGradient id="paint0_linear_20_1636" x1="-22.5568" y1="102.323" x2="63.5262" y2="97.3389" gradientUnits="userSpaceOnUse">
<stop stop-color="#2780E6"/>
<stop offset="1" stop-color="#781896"/>
</linearGradient>
<clipPath id="clip0_20_1636">
<rect width="51" height="51" fill="white"/>
</clipPath>
</defs>
</svg>
