<svg width="52" height="52" viewBox="0 0 52 52" fill="none" xmlns="http://www.w3.org/2000/svg">
<g clip-path="url(#clip0_20_1686)">
<path d="M31.4098 11.0862L34.4606 8.11247C34.6779 7.90085 34.8316 7.63262 34.9044 7.33815C34.9772 7.04368 34.9661 6.73471 34.8724 6.44622C34.7787 6.15772 34.6061 5.90122 34.3741 5.70573C34.1422 5.51024 33.8602 5.38357 33.56 5.34006L29.3428 4.72759L27.4576 0.906081C27.3079 0.652672 27.0948 0.442664 26.8392 0.296775C26.5835 0.150887 26.2943 0.0741577 26 0.0741577C25.7057 0.0741577 25.4164 0.150887 25.1608 0.296775C24.9052 0.442664 24.6921 0.652672 24.5424 0.906081L22.6574 4.72743L18.4402 5.33989C18.14 5.38341 17.8579 5.51007 17.626 5.70556C17.3941 5.90105 17.2215 6.15756 17.1278 6.44605C17.0341 6.73455 17.023 7.04352 17.0957 7.33799C17.1685 7.63246 17.3223 7.90069 17.5396 8.11231L20.5904 11.0861L19.8698 15.2865C19.8185 15.5854 19.8519 15.8927 19.9661 16.1737C20.0804 16.4546 20.271 16.698 20.5164 16.8762C20.7617 17.0545 21.0521 17.1605 21.3546 17.1823C21.6571 17.2041 21.9596 17.1408 22.228 16.9996L26 15.0161L29.7721 16.9998C30.0405 17.141 30.3431 17.2043 30.6456 17.1825C30.9481 17.1606 31.2384 17.0546 31.4838 16.8764C31.7292 16.6981 31.9198 16.4548 32.034 16.1738C32.1483 15.8929 32.1816 15.5856 32.1303 15.2867L31.4098 11.0862Z" fill="url(#paint0_linear_20_1686)"/>
<path d="M51.9207 11.2497C51.8269 10.9613 51.6543 10.7048 51.4224 10.5093C51.1905 10.3139 50.9085 10.1872 50.6083 10.1436L46.3918 9.53094L44.505 5.70975C44.3555 5.45621 44.1425 5.24605 43.8869 5.10005C43.6314 4.95405 43.3421 4.87726 43.0478 4.87726C42.7535 4.87726 42.4642 4.95405 42.2087 5.10005C41.9531 5.24605 41.7401 5.45621 41.5906 5.70975L39.7056 9.53094L35.4892 10.1436C35.1891 10.1871 34.9071 10.3137 34.6753 10.5091C34.4434 10.7044 34.2708 10.9608 34.177 11.2492C34.0832 11.5375 34.072 11.8464 34.1446 12.1408C34.2172 12.4352 34.3707 12.7035 34.5878 12.9152L37.6394 15.8889L36.9189 20.0895C36.8675 20.3884 36.9007 20.6957 37.0149 20.9766C37.129 21.2576 37.3195 21.501 37.5648 21.6793C37.8101 21.8576 38.1003 21.9637 38.4028 21.9857C38.7052 22.0076 39.0078 21.9445 39.2762 21.8034L43.0475 19.8209L46.8197 21.8034C47.0881 21.9446 47.3906 22.0079 47.6931 21.9861C47.9956 21.9643 48.286 21.8583 48.5314 21.68C48.7767 21.5018 48.9673 21.2584 49.0816 20.9775C49.1958 20.6966 49.2292 20.3893 49.1779 20.0904L48.4575 15.8897L51.5084 12.916C51.7258 12.7044 51.8797 12.4362 51.9525 12.1417C52.0254 11.8472 52.0144 11.5382 51.9207 11.2497Z" fill="url(#paint1_linear_20_1686)"/>
<path d="M16.511 10.1436L12.2946 9.53096L10.4096 5.70977C10.2754 5.43785 10.0678 5.20891 9.81028 5.04882C9.55276 4.88873 9.25559 4.80389 8.95237 4.80389C8.64914 4.80389 8.35197 4.88873 8.09445 5.04882C7.83693 5.20891 7.62933 5.43785 7.49515 5.70977L5.6082 9.53096L1.39165 10.1436C1.09148 10.1871 0.809494 10.3138 0.577586 10.5093C0.345677 10.7047 0.173105 10.9612 0.0793964 11.2497C-0.0143126 11.5382 -0.0254185 11.8471 0.0473353 12.1415C0.120089 12.436 0.273798 12.7042 0.491072 12.9158L3.5425 15.8897L2.82197 20.0904C2.77065 20.3893 2.80401 20.6966 2.91826 20.9775C3.03251 21.2585 3.22311 21.5018 3.46848 21.6801C3.71385 21.8583 4.00421 21.9643 4.30671 21.9861C4.60921 22.0079 4.91177 21.9447 5.18017 21.8034L8.95228 19.8209L12.7236 21.8034C12.992 21.9447 13.2945 22.0079 13.597 21.9861C13.8995 21.9643 14.1899 21.8583 14.4353 21.6801C14.6806 21.5018 14.8712 21.2585 14.9855 20.9775C15.0998 20.6966 15.1331 20.3893 15.0818 20.0904L14.3613 15.8897L17.4128 12.916C17.6299 12.7043 17.7835 12.4361 17.8561 12.1416C17.9287 11.8472 17.9175 11.5384 17.8237 11.25C17.7299 10.9616 17.5573 10.7053 17.3254 10.5099C17.0935 10.3145 16.8111 10.1871 16.511 10.1436Z" fill="url(#paint2_linear_20_1686)"/>
<path d="M42.25 24.375H9.75C8.45751 24.3764 7.21835 24.8905 6.30442 25.8044C5.39049 26.7184 4.87642 27.9575 4.875 29.25V42.25C4.87642 43.5425 5.39049 44.7816 6.30442 45.6956C7.21835 46.6095 8.45751 47.1236 9.75 47.125H20.4521L24.8511 51.5239C25.002 51.6748 25.1811 51.7946 25.3782 51.8762C25.5753 51.9579 25.7866 52 26 52C26.2134 52 26.4247 51.9579 26.6218 51.8762C26.8189 51.7946 26.998 51.6748 27.1489 51.5239L31.5479 47.125H42.25C43.5425 47.1236 44.7816 46.6095 45.6956 45.6956C46.6095 44.7816 47.1236 43.5425 47.125 42.25V29.25C47.1236 27.9575 46.6095 26.7184 45.6956 25.8044C44.7816 24.8905 43.5425 24.3764 42.25 24.375ZM39 40.625H13C12.569 40.625 12.1557 40.4538 11.851 40.149C11.5462 39.8443 11.375 39.431 11.375 39C11.375 38.569 11.5462 38.1557 11.851 37.851C12.1557 37.5462 12.569 37.375 13 37.375H39C39.431 37.375 39.8443 37.5462 40.149 37.851C40.4538 38.1557 40.625 38.569 40.625 39C40.625 39.431 40.4538 39.8443 40.149 40.149C39.8443 40.4538 39.431 40.625 39 40.625ZM39 34.125H13C12.569 34.125 12.1557 33.9538 11.851 33.649C11.5462 33.3443 11.375 32.931 11.375 32.5C11.375 32.069 11.5462 31.6557 11.851 31.351C12.1557 31.0462 12.569 30.875 13 30.875H39C39.431 30.875 39.8443 31.0462 40.149 31.351C40.4538 31.6557 40.625 32.069 40.625 32.5C40.625 32.931 40.4538 33.3443 40.149 33.649C39.8443 33.9538 39.431 34.125 39 34.125Z" fill="url(#paint3_linear_20_1686)"/>
</g>
<defs>
<linearGradient id="paint0_linear_20_1686" x1="10.7027" y1="31.9531" x2="37.2733" y2="30.3992" gradientUnits="userSpaceOnUse">
<stop stop-color="#2780E6"/>
<stop offset="1" stop-color="#781896"/>
</linearGradient>
<linearGradient id="paint1_linear_20_1686" x1="27.7521" y1="36.7573" x2="54.3214" y2="35.2036" gradientUnits="userSpaceOnUse">
<stop stop-color="#2780E6"/>
<stop offset="1" stop-color="#781896"/>
</linearGradient>
<linearGradient id="paint2_linear_20_1686" x1="-6.34557" y1="36.8206" x2="20.2255" y2="35.2734" gradientUnits="userSpaceOnUse">
<stop stop-color="#2780E6"/>
<stop offset="1" stop-color="#781896"/>
</linearGradient>
<linearGradient id="paint3_linear_20_1686" x1="-10.0995" y1="75.8377" x2="52.3611" y2="70.4979" gradientUnits="userSpaceOnUse">
<stop stop-color="#2780E6"/>
<stop offset="1" stop-color="#781896"/>
</linearGradient>
<clipPath id="clip0_20_1686">
<rect width="52" height="52" fill="white"/>
</clipPath>
</defs>
</svg>
