<svg width="60" height="60" viewBox="0 0 60 60" fill="none" xmlns="http://www.w3.org/2000/svg">
<path d="M20.7264 19.0692C16.9946 19.0692 13.9589 22.105 13.9589 25.8367C13.9589 29.5696 16.9946 32.6053 20.7264 32.6053C24.4581 32.6053 27.495 29.5696 27.495 25.8367C27.495 22.105 24.4581 19.0692 20.7264 19.0692Z" fill="#524ABD"/>
<path d="M57.8466 4.12488H2.15227C0.963633 4.12488 0 5.08851 0 6.27726V40.7764C0 41.9651 0.963516 42.9287 2.15227 42.9287H3.17391L12.7921 33.3105C13.032 33.0707 13.0555 32.6851 12.8378 32.4248C11.2738 30.555 10.3603 28.1235 10.45 25.4809C10.6343 20.0483 15.0905 15.6605 20.5253 15.5563C26.3652 15.4443 31.1368 20.2266 31.0073 26.0691C30.8866 31.5083 26.4826 35.9503 21.0445 36.1153C19.4136 36.1649 17.865 35.8321 16.4794 35.201C16.2293 35.0871 15.9354 35.1385 15.741 35.333L8.14418 42.9287H57.8466C59.0346 42.9287 60 41.9633 60 40.7764V6.27843C60 5.09156 59.0346 4.12488 57.8466 4.12488ZM37.2912 34.6392C37.2912 35.6105 36.505 36.3967 35.5337 36.3967C34.5636 36.3967 33.7762 35.6105 33.7762 34.6392V27.8566C33.7762 26.8866 34.5636 26.0992 35.5337 26.0992C36.505 26.0992 37.2912 26.8866 37.2912 27.8566V34.6392ZM42.7979 34.6392C42.7979 35.6105 42.0117 36.3967 41.0405 36.3967C40.0704 36.3967 39.283 35.6105 39.283 34.6392V16.1401C39.283 15.17 40.0704 14.3827 41.0405 14.3827C42.0117 14.3827 42.7979 15.17 42.7979 16.1401V34.6392ZM48.396 34.6392C48.396 35.6105 47.6086 36.3967 46.6385 36.3967C45.6673 36.3967 44.8811 35.6105 44.8811 34.6392V20.8267C44.8811 19.8566 45.6673 19.0692 46.6385 19.0692C47.6086 19.0692 48.396 19.8566 48.396 20.8267V34.6392ZM53.9977 34.6392C53.9977 35.6105 53.2103 36.3967 52.2402 36.3967C51.2689 36.3967 50.4827 35.6105 50.4827 34.6392V25.5132C50.4827 24.5432 51.2689 23.7558 52.2402 23.7558C53.2103 23.7558 53.9977 24.5432 53.9977 25.5132V34.6392Z" fill="url(#paint0_linear_20_1658)"/>
<path d="M44.0712 52.4975L44.0594 52.4925C41.327 51.3209 38.496 50.5045 35.5973 50.0462V46.7108C35.5973 46.3478 35.3031 46.0534 34.9399 46.0534H33.7757H32.0825H25.0601C24.697 46.0534 24.4026 46.3478 24.4026 46.7108V50.0504C21.5199 50.5084 18.7044 51.3204 15.9866 52.484C15.1155 52.8568 14.6572 53.8522 14.9932 54.7382C15.3503 55.6799 16.4156 56.1254 17.3311 55.7318C21.3569 54.0022 25.6201 53.1244 30.0019 53.1227H30.0385C34.3829 53.1227 38.6818 54.0073 42.6733 55.7224L42.6954 55.7319C42.9217 55.8292 43.1567 55.8751 43.3884 55.8751C44.2005 55.875 44.966 55.3088 45.1262 54.3987C45.2662 53.6015 44.8151 52.8164 44.0712 52.4975Z" fill="#5942B6"/>
<path d="M3.17402 42.9286L0.536008 45.5719C-0.150593 46.2585 -0.150593 47.3703 0.536008 48.0569C0.87925 48.4002 1.32925 48.5713 1.77913 48.5713C2.22902 48.5713 2.67902 48.4002 3.02109 48.0569L8.14406 42.9286H3.17402Z" fill="#4956C6"/>
<defs>
<linearGradient id="paint0_linear_20_1658" x1="-21.2656" y1="76.4127" x2="67.4217" y2="68.7474" gradientUnits="userSpaceOnUse">
<stop stop-color="#2780E6"/>
<stop offset="1" stop-color="#781896"/>
</linearGradient>
</defs>
</svg>
