<svg width="52" height="52" viewBox="0 0 52 52" fill="none" xmlns="http://www.w3.org/2000/svg">
<g clip-path="url(#clip0_20_1693)">
<path d="M39.2437 35.9531C39.8361 35.9525 40.4041 35.7169 40.823 35.298C41.2419 34.8791 41.4775 34.3111 41.4781 33.7188V28.8438C41.4781 28.2512 41.2427 27.6828 40.8237 27.2638C40.4047 26.8448 39.8363 26.6094 39.2437 26.6094C38.6512 26.6094 38.0828 26.8448 37.6638 27.2638C37.2448 27.6828 37.0094 28.2512 37.0094 28.8438V33.7188C37.01 34.3111 37.2456 34.8791 37.6645 35.298C38.0834 35.7169 38.6513 35.9525 39.2437 35.9531Z" fill="#682EA7"/>
<path d="M0 46.5156C0.00492593 47.9687 0.584324 49.3608 1.61178 50.3882C2.63923 51.4157 4.03134 51.9951 5.48438 52H46.5156C47.9687 51.9951 49.3608 51.4157 50.3882 50.3882C51.4157 49.3608 51.9951 47.9687 52 46.5156V12.1875H0V46.5156ZM34.1656 28.8438C34.1656 27.4969 34.7006 26.2053 35.653 25.253C36.6053 24.3006 37.8969 23.7656 39.2437 23.7656C40.5906 23.7656 41.8822 24.3006 42.8345 25.253C43.7869 26.2053 44.3219 27.4969 44.3219 28.8438V33.7188C44.3219 35.0656 43.7869 36.3572 42.8345 37.3095C41.8822 38.2619 40.5906 38.7969 39.2437 38.7969C37.8969 38.7969 36.6053 38.2619 35.653 37.3095C34.7006 36.3572 34.1656 35.0656 34.1656 33.7188V28.8438ZM20.9219 27.625C20.9231 26.6018 21.33 25.6208 22.0536 24.8973C22.7771 24.1738 23.758 23.7668 24.7812 23.7656H29.6562C30.0334 23.7656 30.395 23.9154 30.6617 24.1821C30.9283 24.4487 31.0781 24.8104 31.0781 25.1875C31.0781 25.5646 30.9283 25.9263 30.6617 26.1929C30.395 26.4596 30.0334 26.6094 29.6562 26.6094H24.7812C24.5119 26.6094 24.2536 26.7164 24.0631 26.9068C23.8726 27.0973 23.7656 27.3556 23.7656 27.625V29.8594H29.6562C30.0334 29.8594 30.395 30.0092 30.6617 30.2758C30.9283 30.5425 31.0781 30.9041 31.0781 31.2812C31.0781 31.6584 30.9283 32.02 30.6617 32.2867C30.395 32.5533 30.0334 32.7031 29.6562 32.7031H23.7656V34.9375C23.7656 35.2069 23.8726 35.4652 24.0631 35.6557C24.2536 35.8461 24.5119 35.9531 24.7812 35.9531H29.6562C30.0334 35.9531 30.395 36.1029 30.6617 36.3696C30.9283 36.6362 31.0781 36.9979 31.0781 37.375C31.0781 37.7521 30.9283 38.1138 30.6617 38.3804C30.395 38.6471 30.0334 38.7969 29.6562 38.7969H24.7812C23.758 38.7957 22.7771 38.3887 22.0536 37.6652C21.33 36.9417 20.9231 35.9607 20.9219 34.9375V27.625ZM13.3656 32.7031H12.1469C10.9617 32.7031 9.82504 32.2323 8.98699 31.3943C8.14894 30.5562 7.67812 29.4196 7.67812 28.2344C7.67812 27.0492 8.14894 25.9125 8.98699 25.0745C9.82504 24.2364 10.9617 23.7656 12.1469 23.7656H13.975C14.9982 23.7668 15.9792 24.1738 16.7027 24.8973C17.4262 25.6208 17.8332 26.6018 17.8344 27.625C17.8344 28.0021 17.6846 28.3638 17.4179 28.6304C17.1513 28.8971 16.7896 29.0469 16.4125 29.0469C16.0354 29.0469 15.6737 28.8971 15.4071 28.6304C15.1404 28.3638 14.9906 28.0021 14.9906 27.625C14.9906 27.3556 14.8836 27.0973 14.6932 26.9068C14.5027 26.7164 14.2444 26.6094 13.975 26.6094H12.1469C11.7159 26.6094 11.3026 26.7806 10.9978 27.0853C10.6931 27.3901 10.5219 27.8034 10.5219 28.2344C10.5219 28.6654 10.6931 29.0787 10.9978 29.3834C11.3026 29.6882 11.7159 29.8594 12.1469 29.8594H13.3656C14.5508 29.8594 15.6875 30.3302 16.5255 31.1682C17.3636 32.0063 17.8344 33.1429 17.8344 34.3281C17.8344 35.5133 17.3636 36.65 16.5255 37.488C15.6875 38.3261 14.5508 38.7969 13.3656 38.7969H11.5375C10.5143 38.7957 9.53333 38.3887 8.80982 37.6652C8.0863 36.9417 7.67931 35.9607 7.67812 34.9375C7.67812 34.7508 7.7149 34.5659 7.78636 34.3934C7.85781 34.2209 7.96255 34.0641 8.09458 33.9321C8.22662 33.8 8.38336 33.6953 8.55587 33.6239C8.72838 33.5524 8.91328 33.5156 9.1 33.5156C9.28672 33.5156 9.47162 33.5524 9.64413 33.6239C9.81664 33.6953 9.97338 33.8 10.1054 33.9321C10.2375 34.0641 10.3422 34.2209 10.4136 34.3934C10.4851 34.5659 10.5219 34.7508 10.5219 34.9375C10.5219 35.2069 10.6289 35.4652 10.8193 35.6557C11.0098 35.8461 11.2681 35.9531 11.5375 35.9531H13.3656C13.7966 35.9531 14.2099 35.7819 14.5147 35.4772C14.8194 35.1724 14.9906 34.7591 14.9906 34.3281C14.9906 33.8971 14.8194 33.4838 14.5147 33.1791C14.2099 32.8743 13.7966 32.7031 13.3656 32.7031Z" fill="url(#paint0_linear_20_1693)"/>
<path d="M46.5156 0H5.48438C4.03115 0.00428684 2.63866 0.58348 1.61107 1.61107C0.58348 2.63866 0.00428684 4.03115 0 5.48438L0 10.9688H52V5.48438C51.9957 4.03115 51.4165 2.63866 50.3889 1.61107C49.3613 0.58348 47.9689 0.00428684 46.5156 0ZM6.29688 7.51562C6.05583 7.51562 5.8202 7.44415 5.61977 7.31023C5.41935 7.17631 5.26314 6.98597 5.1709 6.76327C5.07865 6.54057 5.05452 6.29552 5.10154 6.05911C5.14857 5.82269 5.26464 5.60553 5.43509 5.43509C5.60553 5.26464 5.82269 5.14857 6.05911 5.10154C6.29552 5.05452 6.54057 5.07865 6.76327 5.1709C6.98597 5.26314 7.17631 5.41935 7.31023 5.61977C7.44415 5.8202 7.51562 6.05583 7.51562 6.29688C7.51562 6.62011 7.38722 6.9301 7.15866 7.15866C6.9301 7.38722 6.62011 7.51562 6.29688 7.51562ZM12.7969 7.51562C12.5558 7.51562 12.3202 7.44415 12.1198 7.31023C11.9194 7.17631 11.7631 6.98597 11.6709 6.76327C11.5787 6.54057 11.5545 6.29552 11.6015 6.05911C11.6486 5.82269 11.7646 5.60553 11.9351 5.43509C12.1055 5.26464 12.3227 5.14857 12.5591 5.10154C12.7955 5.05452 13.0406 5.07865 13.2633 5.1709C13.486 5.26314 13.6763 5.41935 13.8102 5.61977C13.9441 5.8202 14.0156 6.05583 14.0156 6.29688C14.0156 6.62011 13.8872 6.9301 13.6587 7.15866C13.4301 7.38722 13.1201 7.51562 12.7969 7.51562ZM19.2969 7.51562C19.0558 7.51562 18.8202 7.44415 18.6198 7.31023C18.4194 7.17631 18.2631 6.98597 18.1709 6.76327C18.0787 6.54057 18.0545 6.29552 18.1015 6.05911C18.1486 5.82269 18.2646 5.60553 18.4351 5.43509C18.6055 5.26464 18.8227 5.14857 19.0591 5.10154C19.2955 5.05452 19.5406 5.07865 19.7633 5.1709C19.986 5.26314 20.1763 5.41935 20.3102 5.61977C20.4441 5.8202 20.5156 6.05583 20.5156 6.29688C20.5156 6.62011 20.3872 6.9301 20.1587 7.15866C19.9301 7.38722 19.6201 7.51562 19.2969 7.51562ZM45.2969 7.51562H38.7969C38.4736 7.51562 38.1636 7.38722 37.9351 7.15866C37.7065 6.9301 37.5781 6.62011 37.5781 6.29688C37.5781 5.97364 37.7065 5.66365 37.9351 5.43509C38.1636 5.20653 38.4736 5.07812 38.7969 5.07812H45.2969C45.6201 5.07812 45.9301 5.20653 46.1587 5.43509C46.3872 5.66365 46.5156 5.97364 46.5156 6.29688C46.5156 6.62011 46.3872 6.9301 46.1587 7.15866C45.9301 7.38722 45.6201 7.51562 45.2969 7.51562Z" fill="#4F4EC0"/>
</g>
<defs>
<linearGradient id="paint0_linear_20_1693" x1="-18.4302" y1="86.3543" x2="58.5957" y2="80.7308" gradientUnits="userSpaceOnUse">
<stop stop-color="#2780E6"/>
<stop offset="1" stop-color="#781896"/>
</linearGradient>
<clipPath id="clip0_20_1693">
<rect width="52" height="52" fill="white"/>
</clipPath>
</defs>
</svg>
