<svg width="58" height="58" viewBox="0 0 58 58" fill="none" xmlns="http://www.w3.org/2000/svg">
<path d="M29.2266 16.0292V13.0839H1.69922C0.760797 13.0839 0 13.8447 0 14.7831V45.5956C0 46.534 0.760797 47.2948 1.69922 47.2948H3.05859V19.4276C3.05859 17.5507 4.58007 16.0292 6.45703 16.0292H29.2266Z" fill="#4C52C3"/>
<path d="M29.9062 38.7591C36.0147 33.1585 29.7505 38.9015 35.8501 33.3102C32.0145 29.8182 29.5459 24.8931 29.2571 19.4276H8.81781L29.9062 38.7591Z" fill="#5645B9"/>
<path d="M6.45703 21.8745V51.1838L22.5894 36.6634L6.45703 21.8745Z" fill="#4C52C3"/>
<path d="M31.0549 42.3172C30.4076 42.9104 29.4091 42.9142 28.7576 42.3172L25.1065 38.9698L8.80875 53.6386H51.0037L34.706 38.9698L31.0549 42.3172Z" fill="#5448BB"/>
<path d="M43.9191 37.7962C42.0104 37.2502 40.2228 36.447 38.5915 35.4082L37.2231 36.6634L53.3555 51.1838V34.4918C51.3855 35.9814 49.1471 37.0995 46.7127 37.7939C45.7985 38.0557 44.8238 38.054 43.9191 37.7962Z" fill="#6631A9"/>
<path d="M56.3008 8.37818C52.8203 8.37818 49.3779 7.22147 46.4 4.75318C45.7702 4.23095 44.8548 4.23095 44.225 4.75318C41.251 7.21795 37.8142 8.37818 34.3242 8.37818C33.3863 8.37818 32.625 9.13943 32.625 10.0774V18.3254C32.625 25.8502 37.6114 32.4584 44.8458 34.5269C45.1494 34.613 45.4756 34.613 45.7792 34.5269C53.0134 32.4595 58 25.8484 58 18.3254V10.0774C58 9.14102 57.2389 8.37818 56.3008 8.37818ZM51.8386 16.3249L44.8152 23.3483C44.1554 24.0082 43.0776 24.0146 42.4114 23.3483L38.7864 19.7233C38.1237 19.0595 38.1237 17.9833 38.7864 17.3195C39.4502 16.6568 40.5264 16.6568 41.1902 17.3195L43.6133 19.7437L49.4348 13.921C50.0986 13.2583 51.1748 13.2583 51.8386 13.921C52.5013 14.5849 52.5013 15.661 51.8386 16.3249Z" fill="url(#paint0_linear_20_1628)"/>
<defs>
<linearGradient id="paint0_linear_20_1628" x1="23.6314" y1="60.677" x2="61.3359" y2="58.9079" gradientUnits="userSpaceOnUse">
<stop stop-color="#2780E6"/>
<stop offset="1" stop-color="#781896"/>
</linearGradient>
</defs>
</svg>
