<svg width="45" height="45" viewBox="0 0 45 45" fill="none" xmlns="http://www.w3.org/2000/svg">
<path d="M41.3887 11.583C41.3349 10.3991 41.3349 9.26906 41.3349 8.13901C41.3349 7.22422 40.6354 6.52466 39.7206 6.52466C32.9941 6.52466 27.882 4.58744 23.6309 0.443946C22.9852 -0.147982 22.0165 -0.147982 21.3708 0.443946C17.1197 4.58744 12.0076 6.52466 5.28112 6.52466C4.36632 6.52466 3.66677 7.22422 3.66677 8.13901C3.66677 9.26906 3.66677 10.3991 3.61296 11.583C3.39771 22.8834 3.07484 38.3812 21.9627 44.8924L22.5008 45L23.039 44.8924C41.873 38.3812 41.604 22.9372 41.3887 11.583ZM21.2094 27.2422C20.8865 27.5112 20.5098 27.6726 20.0793 27.6726H20.0255C19.595 27.6726 19.1645 27.4574 18.8955 27.1345L13.891 21.5919L16.3125 19.4395L20.2408 23.7982L28.9583 15.5112L31.1645 17.8789L21.2094 27.2422Z" fill="url(#paint0_linear_20_1604)"/>
<defs>
<linearGradient id="paint0_linear_20_1604" x1="-9.85932" y1="83.8306" x2="46.4145" y2="81.1833" gradientUnits="userSpaceOnUse">
<stop stop-color="#2780E6"/>
<stop offset="1" stop-color="#781896"/>
</linearGradient>
</defs>
</svg>
