<svg width="52" height="52" viewBox="0 0 52 52" fill="none" xmlns="http://www.w3.org/2000/svg">
<g clip-path="url(#clip0_20_1699)">
<mask id="mask0_20_1699" style="mask-type:alpha" maskUnits="userSpaceOnUse" x="0" y="0" width="52" height="52">
<path d="M16.25 25.1875H35.75V26.8125H16.25V25.1875Z" fill="black"/>
<path d="M38.1875 30.0625C38.1875 29.1651 37.4599 28.4375 36.5625 28.4375H15.4375C14.5401 28.4375 13.8125 29.1651 13.8125 30.0625V34.9375C13.8125 35.8349 14.5401 36.5625 15.4375 36.5625H36.5625C37.4599 36.5625 38.1875 35.8349 38.1875 34.9375V30.0625ZM23.5625 33.3125H18.6875C18.2388 33.3125 17.875 32.9487 17.875 32.5C17.875 32.0513 18.2388 31.6875 18.6875 31.6875H23.5625C24.0112 31.6875 24.375 32.0513 24.375 32.5C24.375 32.9487 24.0112 33.3125 23.5625 33.3125ZM26.8125 33.3125C26.3638 33.3125 26 32.9487 26 32.5C26 32.0513 26.3638 31.6875 26.8125 31.6875C27.2612 31.6875 27.625 32.0513 27.625 32.5C27.625 32.9487 27.2612 33.3125 26.8125 33.3125ZM30.0625 33.3125C29.6138 33.3125 29.25 32.9487 29.25 32.5C29.25 32.0513 29.6138 31.6875 30.0625 31.6875C30.5112 31.6875 30.875 32.0513 30.875 32.5C30.875 32.9487 30.5112 33.3125 30.0625 33.3125Z" fill="black"/>
<path d="M15.4375 23.5625H36.5625C37.4599 23.5625 38.1875 22.8349 38.1875 21.9375V17.0625C38.1875 16.1651 37.4599 15.4375 36.5625 15.4375H15.4375C14.5401 15.4375 13.8125 16.1651 13.8125 17.0625V21.9375C13.8125 22.8349 14.5401 23.5625 15.4375 23.5625ZM30.0625 18.6875C30.5112 18.6875 30.875 19.0513 30.875 19.5C30.875 19.9487 30.5112 20.3125 30.0625 20.3125C29.6138 20.3125 29.25 19.9487 29.25 19.5C29.25 19.0513 29.6138 18.6875 30.0625 18.6875ZM26.8125 18.6875C27.2612 18.6875 27.625 19.0513 27.625 19.5C27.625 19.9487 27.2612 20.3125 26.8125 20.3125C26.3638 20.3125 26 19.9487 26 19.5C26 19.0513 26.3638 18.6875 26.8125 18.6875ZM18.6875 18.6875H23.5625C24.0112 18.6875 24.375 19.0513 24.375 19.5C24.375 19.9487 24.0112 20.3125 23.5625 20.3125H18.6875C18.2388 20.3125 17.875 19.9487 17.875 19.5C17.875 19.0513 18.2388 18.6875 18.6875 18.6875Z" fill="black"/>
<path d="M2.4375 9.75H7.3125C7.68825 9.75 8.0402 9.65741 8.35838 9.50492C8.36041 9.507 8.36095 9.50988 8.36304 9.51196L12.4251 13.5741C12.5838 13.7328 12.7917 13.8121 12.9996 13.8121C13.2075 13.8121 13.4154 13.7328 13.5741 13.5741C13.8914 13.2567 13.8914 12.7425 13.5741 12.4251L9.51196 8.36304C9.50988 8.36095 9.507 8.36041 9.50492 8.35838C9.65746 8.0402 9.75 7.6883 9.75 7.3125V2.4375C9.75 1.09338 8.65662 0 7.3125 0H2.4375C1.09338 0 0 1.09338 0 2.4375V7.3125C0 8.65662 1.09338 9.75 2.4375 9.75Z" fill="black"/>
<path d="M49.5625 0H44.6875C43.3434 0 42.25 1.09338 42.25 2.4375V7.3125C42.25 7.6883 42.3426 8.04015 42.4951 8.35833C42.493 8.36036 42.4901 8.36095 42.488 8.36304L38.4255 12.4255C38.1082 12.7429 38.1082 13.2571 38.4255 13.5745C38.5842 13.7332 38.7921 13.8125 39 13.8125C39.2079 13.8125 39.4158 13.7332 39.5745 13.5745L43.637 9.51196C43.639 9.50988 43.6396 9.507 43.6417 9.50492C43.9599 9.65741 44.3117 9.75 44.6875 9.75H49.5625C50.9066 9.75 52 8.65662 52 7.3125V2.4375C52 1.09338 50.9066 0 49.5625 0Z" fill="black"/>
<path d="M49.5625 42.25H44.6875C44.3117 42.25 43.9598 42.3426 43.6416 42.4951C43.6396 42.493 43.639 42.4902 43.637 42.4881L39.5737 38.4252C39.2563 38.1078 38.7421 38.1078 38.4247 38.4252C38.1074 38.7426 38.1074 39.2567 38.4247 39.5741L42.488 43.637C42.4901 43.6391 42.493 43.6396 42.4951 43.6417C42.3426 43.9598 42.25 44.3118 42.25 44.6875V49.5625C42.25 50.9066 43.3434 52 44.6875 52H49.5625C50.9066 52 52 50.9066 52 49.5625V44.6875C52 43.3434 50.9066 42.25 49.5625 42.25Z" fill="black"/>
<path d="M12.4255 38.4255L8.36304 42.488C8.36095 42.4901 8.36041 42.4929 8.35838 42.495C8.0402 42.3425 7.6883 42.25 7.3125 42.25H2.4375C1.09338 42.25 0 43.3434 0 44.6875V49.5625C0 50.9066 1.09338 52 2.4375 52H7.3125C8.65662 52 9.75 50.9066 9.75 49.5625V44.6875C9.75 44.3117 9.65746 43.9598 9.50497 43.6416C9.50705 43.6396 9.50988 43.639 9.51196 43.637L13.5745 39.5745C13.8918 39.2571 13.8918 38.7429 13.5745 38.4255C13.2571 38.1082 12.7429 38.1082 12.4255 38.4255Z" fill="black"/>
<path d="M24.375 8.9375H25.1875V13C25.1875 13.4487 25.5513 13.8125 26 13.8125C26.4487 13.8125 26.8125 13.4487 26.8125 13V8.9375H27.625C28.9691 8.9375 30.0625 7.84412 30.0625 6.5V3.25C30.0625 1.90588 28.9691 0.8125 27.625 0.8125H24.375C23.0309 0.8125 21.9375 1.90588 21.9375 3.25V6.5C21.9375 7.84412 23.0309 8.9375 24.375 8.9375Z" fill="black"/>
<path d="M6.5 21.9375H3.25C1.90588 21.9375 0.8125 23.0309 0.8125 24.375V27.625C0.8125 28.9691 1.90588 30.0625 3.25 30.0625H6.5C7.84412 30.0625 8.9375 28.9691 8.9375 27.625V26.8125H11.3746C11.8233 26.8125 12.1871 26.4487 12.1871 26C12.1871 25.5513 11.8233 25.1875 11.3746 25.1875H8.9375V24.375C8.9375 23.0309 7.84412 21.9375 6.5 21.9375Z" fill="black"/>
<path d="M27.625 43.0625H26.8125V39C26.8125 38.5513 26.4487 38.1875 26 38.1875C25.5513 38.1875 25.1875 38.5513 25.1875 39V43.0625H24.375C23.0309 43.0625 21.9375 44.1559 21.9375 45.5V48.75C21.9375 50.0941 23.0309 51.1875 24.375 51.1875H27.625C28.9691 51.1875 30.0625 50.0941 30.0625 48.75V45.5C30.0625 44.1559 28.9691 43.0625 27.625 43.0625Z" fill="black"/>
<path d="M45.5 30.0625H48.75C50.0941 30.0625 51.1875 28.9691 51.1875 27.625V24.375C51.1875 23.0309 50.0941 21.9375 48.75 21.9375H45.5C44.1559 21.9375 43.0625 23.0309 43.0625 24.375V25.1875H40.6242C40.1751 25.1875 39.8117 25.5513 39.8117 26C39.8117 26.4487 40.1751 26.8125 40.6242 26.8125H43.0625V27.625C43.0625 28.9691 44.1559 30.0625 45.5 30.0625Z" fill="black"/>
</mask>
<g mask="url(#mask0_20_1699)">
<rect x="-12" y="-10" width="76" height="72" fill="url(#paint0_linear_20_1699)"/>
</g>
</g>
<defs>
<linearGradient id="paint0_linear_20_1699" x1="-38.9365" y1="124.129" x2="73.8473" y2="117.475" gradientUnits="userSpaceOnUse">
<stop stop-color="#2780E6"/>
<stop offset="1" stop-color="#781896"/>
</linearGradient>
<clipPath id="clip0_20_1699">
<rect width="52" height="52" fill="white"/>
</clipPath>
</defs>
</svg>
