<svg width="40" height="40" viewBox="0 0 40 40" fill="none" xmlns="http://www.w3.org/2000/svg">
<path d="M37.8186 6.96967H29.9398C29.0913 6.96967 28.364 7.63634 28.364 8.54543V29.1515C28.364 30 29.0307 30.7273 29.9398 30.7273H33.3337V36.606C33.3337 37.0909 32.9095 37.5151 32.4246 37.5151H20.4246V30.6666H25.5155C26.364 30.6666 27.0913 30 27.0913 29.0909V2.84846C27.0913 1.99998 26.4246 1.27271 25.5155 1.27271H14.4852C13.6368 1.27271 12.9095 1.93937 12.9095 2.84846V29.1515C12.9095 30 13.5761 30.7273 14.4852 30.7273H19.2731V37.5151H7.21251C6.72766 37.5151 6.30342 37.0909 6.30342 36.606V30.7273H10.061C10.9095 30.7273 11.6368 30.0606 11.6368 29.1515V8.54543C11.6368 7.69695 10.9701 6.96967 10.061 6.96967H2.1822C1.33372 6.96967 0.606445 7.63634 0.606445 8.54543V29.1515C0.606445 30 1.27311 30.7273 2.1822 30.7273H5.09129V36.606C5.09129 37.7576 6.06099 38.7273 7.21251 38.7273H32.4246C33.5761 38.7273 34.5458 37.7576 34.5458 36.606V30.7273H37.8792C38.7277 30.7273 39.4549 30.0606 39.4549 29.1515V8.54543C39.3943 7.69695 38.7277 6.96967 37.8186 6.96967ZM14.1216 29.1515V2.84846C14.1216 2.66664 14.2428 2.48483 14.4852 2.48483H25.5155C25.6974 2.48483 25.8792 2.60604 25.8792 2.84846V29.1515C25.8792 29.3333 25.758 29.5151 25.5155 29.5151H14.4852C14.3034 29.4545 14.1216 29.3333 14.1216 29.1515ZM1.81857 29.1515V8.54543C1.81857 8.36361 1.93978 8.1818 2.1822 8.1818H10.061C10.2428 8.1818 10.4246 8.30301 10.4246 8.54543V29.1515C10.4246 29.3333 10.3034 29.5151 10.061 29.5151H2.1822C1.93978 29.4545 1.81857 29.3333 1.81857 29.1515ZM38.1822 29.1515C38.1822 29.3333 38.061 29.5151 37.8186 29.5151H29.9398C29.758 29.5151 29.5761 29.3939 29.5761 29.1515V8.54543C29.5761 8.36361 29.6974 8.1818 29.9398 8.1818H37.8186C38.0004 8.1818 38.1822 8.30301 38.1822 8.54543V29.1515Z" fill="#2D6AFF"/>
<path d="M23.8186 26.1211H16.1822C15.8186 26.1211 15.5762 26.3635 15.5762 26.7272C15.5762 27.0908 15.8186 27.3332 16.1822 27.3332H23.8186C24.1822 27.3332 24.4247 27.0908 24.4247 26.7272C24.4247 26.4241 24.1216 26.1211 23.8186 26.1211Z" fill="#2D6AFF"/>
<path d="M23.8186 21.8181H16.1822C15.8186 21.8181 15.5762 22.0605 15.5762 22.4242C15.5762 22.7878 15.8186 23.0302 16.1822 23.0302H23.8186C24.1822 23.0302 24.4247 22.7878 24.4247 22.4242C24.4247 22.0605 24.1216 21.8181 23.8186 21.8181Z" fill="#2D6AFF"/>
<path d="M23.8186 17.4546H16.1822C15.8186 17.4546 15.5762 17.697 15.5762 18.0607C15.5762 18.4243 15.8186 18.6667 16.1822 18.6667H23.8186C24.1822 18.6667 24.4247 18.4243 24.4247 18.0607C24.4247 17.7576 24.1216 17.4546 23.8186 17.4546Z" fill="#2D6AFF"/>
<path d="M23.8186 13.1516H16.1822C15.8186 13.1516 15.5762 13.394 15.5762 13.7577C15.5762 14.1213 15.8186 14.3637 16.1822 14.3637H23.8186C24.1822 14.3637 24.4247 14.1213 24.4247 13.7577C24.4247 13.394 24.1216 13.1516 23.8186 13.1516Z" fill="#2D6AFF"/>
<path d="M23.8186 8.78784H16.1822C15.8186 8.78784 15.5762 9.03027 15.5762 9.3939C15.5762 9.75754 15.8186 9.99996 16.1822 9.99996H23.8186C24.1822 9.99996 24.4247 9.75754 24.4247 9.3939C24.4247 9.09087 24.1216 8.78784 23.8186 8.78784Z" fill="#2D6AFF"/>
<path d="M9.09141 26.1819H3.09141C2.72778 26.1819 2.48535 26.4243 2.48535 26.7879C2.48535 27.1516 2.72778 27.394 3.09141 27.394H9.09141C9.45505 27.394 9.69747 27.1516 9.69747 26.7879C9.69747 26.4849 9.39444 26.1819 9.09141 26.1819Z" fill="#2D6AFF"/>
<path d="M9.09141 22.2424H3.09141C2.72778 22.2424 2.48535 22.4849 2.48535 22.8485C2.48535 23.2121 2.72778 23.4546 3.09141 23.4546H9.09141C9.45505 23.4546 9.69747 23.2121 9.69747 22.8485C9.69747 22.4849 9.39444 22.2424 9.09141 22.2424Z" fill="#2D6AFF"/>
<path d="M9.09141 18.2424H3.09141C2.72778 18.2424 2.48535 18.4849 2.48535 18.8485C2.48535 19.2121 2.72778 19.4546 3.09141 19.4546H9.09141C9.45505 19.4546 9.69747 19.2121 9.69747 18.8485C9.69747 18.4849 9.39444 18.2424 9.09141 18.2424Z" fill="#2D6AFF"/>
<path d="M9.09141 14.2424H3.09141C2.72778 14.2424 2.48535 14.4849 2.48535 14.8485C2.48535 15.2121 2.72778 15.4546 3.09141 15.4546H9.09141C9.45505 15.4546 9.69747 15.2121 9.69747 14.8485C9.69747 14.5455 9.39444 14.2424 9.09141 14.2424Z" fill="#2D6AFF"/>
<path d="M9.09159 10.2424H6.90977C6.54614 10.2424 6.30371 10.4849 6.30371 10.8485C6.30371 11.2121 6.54614 11.4546 6.90977 11.4546H9.09159C9.45523 11.4546 9.69765 11.2121 9.69765 10.8485C9.69765 10.5455 9.39462 10.2424 9.09159 10.2424Z" fill="#2D6AFF"/>
<path d="M36.9098 26.1819H30.9098C30.5461 26.1819 30.3037 26.4243 30.3037 26.7879C30.3037 27.1516 30.5461 27.394 30.9098 27.394H36.9098C37.2734 27.394 37.5158 27.1516 37.5158 26.7879C37.5158 26.4849 37.2128 26.1819 36.9098 26.1819Z" fill="#2D6AFF"/>
<path d="M36.9098 22.2424H30.9098C30.5461 22.2424 30.3037 22.4849 30.3037 22.8485C30.3037 23.2121 30.5461 23.4546 30.9098 23.4546H36.9098C37.2734 23.4546 37.5158 23.2121 37.5158 22.8485C37.5158 22.4849 37.2128 22.2424 36.9098 22.2424Z" fill="#2D6AFF"/>
<path d="M36.9098 18.2424H30.9098C30.5461 18.2424 30.3037 18.4849 30.3037 18.8485C30.3037 19.2121 30.5461 19.4546 30.9098 19.4546H36.9098C37.2734 19.4546 37.5158 19.2121 37.5158 18.8485C37.5158 18.4849 37.2128 18.2424 36.9098 18.2424Z" fill="#2D6AFF"/>
<path d="M36.9098 14.2424H30.9098C30.5461 14.2424 30.3037 14.4849 30.3037 14.8485C30.3037 15.2121 30.5461 15.4546 30.9098 15.4546H36.9098C37.2734 15.4546 37.5158 15.2121 37.5158 14.8485C37.5158 14.5455 37.2128 14.2424 36.9098 14.2424Z" fill="#2D6AFF"/>
<path d="M36.91 10.2424H34.7281C34.3645 10.2424 34.1221 10.4849 34.1221 10.8485C34.1221 11.2121 34.3645 11.4546 34.7281 11.4546H36.91C37.2736 11.4546 37.516 11.2121 37.516 10.8485C37.516 10.5455 37.213 10.2424 36.91 10.2424Z" fill="#2D6AFF"/>
<path d="M23.8182 4.42432H21.6363C21.2727 4.42432 21.0303 4.66674 21.0303 5.03038C21.0303 5.39401 21.2727 5.63644 21.6363 5.63644H23.8182C24.1818 5.63644 24.4242 5.39401 24.4242 5.03038C24.4242 4.72735 24.1212 4.42432 23.8182 4.42432Z" fill="#2D6AFF"/>
</svg>
