<svg width="41" height="41" viewBox="0 0 41 41" fill="none" xmlns="http://www.w3.org/2000/svg">
<path d="M1.57627 12.7113L16.016 21.9734V27.5469C16.016 27.7168 16.0835 27.8797 16.2036 27.9999C16.3237 28.12 16.4867 28.1875 16.6566 28.1875H24.3441C24.514 28.1875 24.6769 28.12 24.7971 27.9999C24.9172 27.8797 24.9847 27.7168 24.9847 27.5469V21.9734L39.4244 12.7113C39.541 12.6366 39.6303 12.526 39.6788 12.3963C39.7274 12.2666 39.7325 12.1246 39.6935 11.9917C39.6546 11.8587 39.5736 11.742 39.4627 11.659C39.3518 11.576 39.217 11.5312 39.0785 11.5313H1.92221C1.78369 11.5312 1.64888 11.576 1.53799 11.659C1.42709 11.742 1.34609 11.8587 1.30712 11.9917C1.26815 12.1246 1.27332 12.2666 1.32184 12.3963C1.37037 12.526 1.45964 12.6366 1.57627 12.7113ZM36.8926 12.8125L23.9981 21.0817C23.9077 21.1397 23.8334 21.2195 23.7819 21.3137C23.7304 21.408 23.7034 21.5137 23.7035 21.6211V26.9062H17.2972V21.6211C17.2972 21.5137 17.2703 21.408 17.2188 21.3137C17.1673 21.2195 17.0929 21.1397 17.0025 21.0817L4.10802 12.8125H36.8926Z" fill="#2D6AFF"/>
<path d="M20.5 29.4688C19.4864 29.4688 18.4955 29.7693 17.6527 30.3325C16.8099 30.8956 16.153 31.696 15.7651 32.6325C15.3772 33.569 15.2757 34.5994 15.4735 35.5936C15.6712 36.5877 16.1593 37.5009 16.8761 38.2177C17.5928 38.9344 18.506 39.4225 19.5002 39.6203C20.4943 39.818 21.5248 39.7165 22.4613 39.3286C23.3977 38.9407 24.1981 38.2838 24.7613 37.441C25.3244 36.5982 25.625 35.6074 25.625 34.5937C25.6235 33.235 25.083 31.9323 24.1222 30.9715C23.1614 30.0107 21.8588 29.4703 20.5 29.4688ZM20.5 38.4375C19.7398 38.4375 18.9966 38.2121 18.3645 37.7897C17.7324 37.3674 17.2398 36.767 16.9488 36.0647C16.6579 35.3623 16.5818 34.5895 16.7301 33.8439C16.8784 33.0983 17.2445 32.4134 17.7821 31.8758C18.3196 31.3382 19.0045 30.9722 19.7501 30.8239C20.4957 30.6755 21.2686 30.7517 21.9709 31.0426C22.6733 31.3335 23.2736 31.8262 23.696 32.4583C24.1183 33.0904 24.3438 33.8335 24.3438 34.5937C24.3427 35.6129 23.9374 36.5899 23.2168 37.3106C22.4962 38.0312 21.5191 38.4365 20.5 38.4375Z" fill="#2D6AFF"/>
<path d="M20.2964 34.9692L18.9338 34.0608L18.2227 35.1268L20.1445 36.4081C20.2499 36.478 20.3736 36.5155 20.5001 36.5157C20.5475 36.5156 20.5947 36.5105 20.641 36.5003C20.7255 36.4812 20.8052 36.4452 20.8753 36.3945C20.9454 36.3437 21.0046 36.2793 21.0491 36.205L22.971 33.0019L21.8729 32.342L20.2964 34.9692Z" fill="#2D6AFF"/>
<path d="M34.5938 25.625C33.5801 25.625 32.5893 25.9256 31.7465 26.4887C30.9037 27.0519 30.2468 27.8523 29.8589 28.7887C29.471 29.7252 29.3695 30.7557 29.5672 31.7498C29.765 32.744 30.2531 33.6572 30.9698 34.3739C31.6866 35.0907 32.5998 35.5788 33.5939 35.7765C34.5881 35.9743 35.6185 35.8728 36.555 35.4849C37.4915 35.097 38.2919 34.4401 38.855 33.5973C39.4182 32.7545 39.7188 31.7636 39.7188 30.75C39.7172 29.3912 39.1768 28.0886 38.216 27.1278C37.2552 26.167 35.9525 25.6265 34.5938 25.625ZM34.5938 34.5937C33.8335 34.5937 33.0904 34.3683 32.4583 33.946C31.8262 33.5236 31.3335 32.9233 31.0426 32.2209C30.7517 31.5186 30.6755 30.7457 30.8239 30.0001C30.9722 29.2545 31.3383 28.5696 31.8758 28.0321C32.4134 27.4945 33.0983 27.1284 33.8439 26.9801C34.5895 26.8318 35.3623 26.9079 36.0647 27.1988C36.767 27.4898 37.3674 27.9824 37.7897 28.6145C38.2121 29.2466 38.4375 29.9898 38.4375 30.75C38.4365 31.7691 38.0312 32.7462 37.3106 33.4668C36.5899 34.1874 35.6129 34.5927 34.5938 34.5937Z" fill="#2D6AFF"/>
<path d="M34.3901 31.1255L33.0275 30.2171L32.3164 31.2831L34.2383 32.5643C34.3437 32.6343 34.4673 32.6717 34.5938 32.672C34.6412 32.6719 34.6885 32.6667 34.7348 32.6566C34.8192 32.6375 34.8989 32.6015 34.9691 32.5507C35.0392 32.5 35.0983 32.4355 35.1428 32.3613L37.0647 29.1581L35.9667 28.4983L34.3901 31.1255Z" fill="#2D6AFF"/>
<path d="M6.40625 25.625C5.39262 25.625 4.40176 25.9256 3.55895 26.4887C2.71615 27.0519 2.05927 27.8523 1.67137 28.7887C1.28347 29.7252 1.18198 30.7557 1.37973 31.7498C1.57748 32.744 2.06559 33.6572 2.78233 34.3739C3.49907 35.0907 4.41226 35.5788 5.40641 35.7765C6.40057 35.9743 7.43103 35.8728 8.3675 35.4849C9.30398 35.097 10.1044 34.4401 10.6675 33.5973C11.2307 32.7545 11.5313 31.7636 11.5313 30.75C11.5297 29.3912 10.9893 28.0886 10.0285 27.1278C9.0677 26.167 7.76502 25.6265 6.40625 25.625ZM6.40625 34.5937C5.64603 34.5937 4.90288 34.3683 4.27078 33.946C3.63868 33.5236 3.14601 32.9233 2.85509 32.2209C2.56417 31.5186 2.48805 30.7457 2.63636 30.0001C2.78467 29.2545 3.15075 28.5696 3.68831 28.0321C4.22587 27.4945 4.91076 27.1284 5.65637 26.9801C6.40199 26.8318 7.17484 26.9079 7.87719 27.1988C8.57954 27.4898 9.17986 27.9824 9.60221 28.6145C10.0246 29.2466 10.25 29.9898 10.25 30.75C10.249 31.7691 9.84369 32.7462 9.12307 33.4668C8.40245 34.1874 7.42537 34.5927 6.40625 34.5937Z" fill="#2D6AFF"/>
<path d="M6.20261 31.1255L4.84 30.2171L4.12891 31.2831L6.05078 32.5643C6.15618 32.6343 6.27982 32.6717 6.40633 32.672C6.45372 32.6719 6.50097 32.6667 6.54727 32.6566C6.63171 32.6375 6.71141 32.6015 6.78155 32.5507C6.85169 32.5 6.91081 32.4355 6.95534 32.3613L8.87722 29.1581L7.77919 28.4983L6.20261 31.1255Z" fill="#2D6AFF"/>
<path d="M21.1406 10.25C21.6474 10.25 22.1429 10.0997 22.5643 9.81814C22.9857 9.53657 23.3141 9.13636 23.5081 8.66813C23.702 8.19989 23.7528 7.68466 23.6539 7.18758C23.555 6.69051 23.311 6.23391 22.9526 5.87554C22.5942 5.51717 22.1376 5.27311 21.6405 5.17424C21.1435 5.07536 20.6282 5.12611 20.16 5.32006C19.6918 5.51401 19.2916 5.84245 19.01 6.26385C18.7284 6.68525 18.5781 7.18069 18.5781 7.6875C18.5781 8.36712 18.8481 9.0189 19.3287 9.49946C19.8092 9.98002 20.461 10.25 21.1406 10.25ZM21.1406 6.40625C21.394 6.40625 21.6417 6.4814 21.8524 6.62218C22.0631 6.76297 22.2274 6.96307 22.3243 7.19719C22.4213 7.43131 22.4467 7.68892 22.3973 7.93746C22.3478 8.186 22.2258 8.4143 22.0466 8.59348C21.8674 8.77267 21.6391 8.8947 21.3906 8.94413C21.142 8.99357 20.8844 8.9682 20.6503 8.87122C20.4162 8.77425 20.2161 8.61003 20.0753 8.39933C19.9345 8.18863 19.8594 7.94091 19.8594 7.6875C19.8594 7.34769 19.9944 7.0218 20.2346 6.78152C20.4749 6.54124 20.8008 6.40625 21.1406 6.40625Z" fill="#2D6AFF"/>
<path d="M37.1562 8.32813C37.6631 8.32813 38.1585 8.17784 38.5799 7.89627C39.0013 7.6147 39.3297 7.21449 39.5237 6.74625C39.7176 6.27802 39.7684 5.76278 39.6695 5.26571C39.5706 4.76863 39.3266 4.31204 38.9682 3.95366C38.6098 3.59529 38.1532 3.35124 37.6562 3.25236C37.1591 3.15349 36.6439 3.20424 36.1756 3.39818C35.7074 3.59213 35.3072 3.92058 35.0256 4.34198C34.744 4.76338 34.5938 5.25881 34.5938 5.76563C34.5938 6.44524 34.8637 7.09703 35.3443 7.57759C35.8249 8.05815 36.4766 8.32813 37.1562 8.32813ZM37.1562 4.48438C37.4097 4.48438 37.6574 4.55952 37.8681 4.70031C38.0788 4.84109 38.243 5.0412 38.34 5.27531C38.4369 5.50943 38.4623 5.76705 38.4129 6.01559C38.3634 6.26412 38.2414 6.49242 38.0622 6.67161C37.883 6.85079 37.6547 6.97282 37.4062 7.02226C37.1577 7.07169 36.9001 7.04632 36.6659 6.94935C36.4318 6.85237 36.2317 6.68815 36.0909 6.47745C35.9501 6.26675 35.875 6.01903 35.875 5.76563C35.875 5.42582 36.01 5.09993 36.2503 4.85965C36.4905 4.61936 36.8164 4.48438 37.1562 4.48438Z" fill="#2D6AFF"/>
<path d="M14.7344 7.6875C15.3679 7.6875 15.9872 7.49964 16.5139 7.14768C17.0407 6.79571 17.4512 6.29545 17.6937 5.71016C17.9361 5.12486 17.9995 4.48082 17.876 3.85948C17.7524 3.23813 17.4473 2.66739 16.9993 2.21943C16.5514 1.77146 15.9806 1.46639 15.3593 1.3428C14.7379 1.21921 14.0939 1.28264 13.5086 1.52507C12.9233 1.76751 12.423 2.17806 12.0711 2.70482C11.7191 3.23157 11.5312 3.85086 11.5312 4.48438C11.5323 5.33359 11.8701 6.14772 12.4705 6.7482C13.071 7.34869 13.8852 7.68648 14.7344 7.6875ZM14.7344 2.5625C15.1145 2.5625 15.4861 2.67522 15.8021 2.8864C16.1182 3.09757 16.3645 3.39773 16.51 3.74891C16.6554 4.10008 16.6935 4.48651 16.6193 4.85932C16.5452 5.23212 16.3621 5.57457 16.0933 5.84335C15.8246 6.11213 15.4821 6.29517 15.1093 6.36932C14.7365 6.44348 14.3501 6.40542 13.9989 6.25996C13.6477 6.1145 13.3476 5.86816 13.1364 5.55211C12.9252 5.23606 12.8125 4.86449 12.8125 4.48438C12.8125 3.97466 13.015 3.48583 13.3754 3.12541C13.7358 2.76498 14.2247 2.5625 14.7344 2.5625Z" fill="#2D6AFF"/>
<path d="M28.8281 8.96875C29.5883 8.96875 30.3315 8.74332 30.9636 8.32096C31.5957 7.89861 32.0884 7.29829 32.3793 6.59594C32.6702 5.89359 32.7463 5.12074 32.598 4.37512C32.4497 3.62951 32.0836 2.94462 31.5461 2.40706C31.0085 1.8695 30.3236 1.50342 29.578 1.35511C28.8324 1.2068 28.0595 1.28292 27.3572 1.57384C26.6548 1.86476 26.0545 2.35743 25.6322 2.98953C25.2098 3.62163 24.9844 4.36478 24.9844 5.125C24.9854 6.14411 25.3907 7.1212 26.1113 7.84182C26.8319 8.56244 27.809 8.96773 28.8281 8.96875ZM28.8281 2.5625C29.3349 2.5625 29.8304 2.71279 30.2518 2.99436C30.6732 3.27593 31.0016 3.67614 31.1956 4.14438C31.3895 4.61261 31.4403 5.12784 31.3414 5.62492C31.2425 6.122 30.9985 6.57859 30.6401 6.93696C30.2817 7.29533 29.8251 7.53939 29.328 7.63826C28.831 7.73714 28.3157 7.68639 27.8475 7.49244C27.3793 7.29849 26.9791 6.97005 26.6975 6.54865C26.4159 6.12725 26.2656 5.63182 26.2656 5.125C26.2656 4.44538 26.5356 3.7936 27.0162 3.31304C27.4967 2.83248 28.1485 2.5625 28.8281 2.5625Z" fill="#2D6AFF"/>
<path d="M5.76562 10.25C6.52585 10.25 7.269 10.0246 7.9011 9.60221C8.5332 9.17986 9.02586 8.57954 9.31679 7.87719C9.60771 7.17484 9.68383 6.40199 9.53552 5.65637C9.38721 4.91076 9.02112 4.22587 8.48357 3.68831C7.94601 3.15075 7.26112 2.78467 6.5155 2.63636C5.76989 2.48805 4.99704 2.56417 4.29469 2.85509C3.59233 3.14601 2.99202 3.63868 2.56966 4.27078C2.14731 4.90288 1.92188 5.64603 1.92188 6.40625C1.92289 7.42536 2.32818 8.40245 3.04881 9.12307C3.76943 9.84369 4.74651 10.249 5.76562 10.25ZM5.76562 3.84375C6.27244 3.84375 6.76787 3.99404 7.18927 4.27561C7.61067 4.55718 7.93912 4.95739 8.13307 5.42563C8.32702 5.89386 8.37776 6.40909 8.27889 6.90617C8.18001 7.40325 7.93596 7.85984 7.57759 8.21821C7.21921 8.57658 6.76262 8.82064 6.26554 8.91951C5.76847 9.01839 5.25323 8.96764 4.785 8.77369C4.31676 8.57974 3.91656 8.2513 3.63498 7.8299C3.35341 7.4085 3.20312 6.91307 3.20312 6.40625C3.20312 5.72663 3.4731 5.07485 3.95366 4.59429C4.43423 4.11373 5.08601 3.84375 5.76562 3.84375Z" fill="#2D6AFF"/>
<path d="M20.5008 21.1406C20.6707 21.1406 20.8336 21.0731 20.9537 20.9529L22.8756 19.031L21.9697 18.1252L21.1414 18.9535V14.0938H19.8601V18.9535L19.0318 18.1252L18.126 19.031L20.0479 20.9529C20.168 21.0731 20.3309 21.1406 20.5008 21.1406Z" fill="#2D6AFF"/>
</svg>
