<svg width="44" height="44" viewBox="0 0 44 44" fill="none" xmlns="http://www.w3.org/2000/svg">
<path d="M30.4328 41.7999H13.9328C12.0995 41.7999 10.6328 40.3333 10.6328 38.5V5.49995C10.6328 3.66662 12.0995 2.19995 13.9328 2.19995H30.4328C32.2661 2.19995 33.7328 3.66662 33.7328 5.49995V38.6833C33.7328 40.3333 32.2661 41.7999 30.4328 41.7999ZM13.9328 3.84995C13.0161 3.84995 12.2828 4.58328 12.2828 5.49995V38.6833C12.2828 39.6 13.0161 40.3333 13.9328 40.3333H30.4328C31.3495 40.3333 32.0828 39.6 32.0828 38.6833V5.49995C32.0828 4.58328 31.3495 3.84995 30.4328 3.84995H13.9328Z" fill="#2D6AFF"/>
<path d="M32.8161 34.8332H11.5495C11.1828 34.8332 10.6328 34.4665 10.6328 34.0999V10.2665C10.6328 9.89987 10.9995 9.5332 11.5495 9.5332H32.8161C33.1828 9.5332 33.7328 9.89987 33.7328 10.2665V34.0999C33.7328 34.4665 33.1828 34.8332 32.8161 34.8332ZM12.2828 33.1832H31.8995V10.8165H12.2828V33.1832Z" fill="#2D6AFF"/>
<path d="M27.6832 31.1666H16.6832C15.0332 31.1666 13.7499 29.8833 13.7499 28.2333V15.9499C13.5666 14.2999 15.0332 12.8333 16.6832 12.8333H27.6832C29.3332 12.8333 30.6166 14.1166 30.6166 15.7666V28.0499C30.6166 29.8833 29.3332 31.1666 27.6832 31.1666ZM16.6832 14.4833C15.9499 14.4833 15.3999 15.0333 15.3999 15.7666V28.0499C15.3999 28.7833 15.9499 29.3333 16.6832 29.3333H27.6832C28.4166 29.3333 28.9666 28.7833 28.9666 28.0499V15.9499C28.9666 15.2166 28.4166 14.6666 27.6832 14.6666H16.6832V14.4833Z" fill="#2D6AFF"/>
<path d="M13.5664 18.5166H30.6164V20.1666H13.5664V18.5166Z" fill="#2D6AFF"/>
<path d="M13.5664 23.8333H30.6164V25.4833H13.5664V23.8333Z" fill="#2D6AFF"/>
<path d="M26.5827 15.5833C26.0327 15.5833 25.666 15.9499 25.666 16.6833C25.666 17.2333 26.0327 17.5999 26.5827 17.5999C27.1327 17.5999 27.6827 17.2333 27.6827 16.6833C27.6827 16.1333 27.1327 15.5833 26.5827 15.5833Z" fill="#2D6AFF"/>
<path d="M26.5827 21.0833C26.0327 21.0833 25.666 21.4499 25.666 22.1833C25.666 22.7333 26.0327 23.0999 26.5827 23.0999C27.1327 23.0999 27.6827 22.7333 27.6827 22.1833C27.6827 21.4499 27.1327 21.0833 26.5827 21.0833Z" fill="#2D6AFF"/>
<path d="M26.5827 26.3999C26.0327 26.3999 25.666 26.7666 25.666 27.3166C25.666 27.8666 26.0327 28.4166 26.5827 28.4166C27.1327 28.4166 27.6827 28.0499 27.6827 27.3166C27.6827 26.7666 27.1327 26.3999 26.5827 26.3999Z" fill="#2D6AFF"/>
</svg>
