<svg width="43" height="43" viewBox="0 0 43 43" fill="none" xmlns="http://www.w3.org/2000/svg">
<g clip-path="url(#clip0_912_1180)">
<mask id="mask0_912_1180" style="mask-type:luminance" maskUnits="userSpaceOnUse" x="0" y="0" width="43" height="43">
<path d="M0 3.8147e-06H43V43H0V3.8147e-06Z" fill="white"/>
</mask>
<g mask="url(#mask0_912_1180)">
<path d="M25.7165 14.5922H17.2864C16.2837 14.5922 15.4707 15.4051 15.4707 16.4079V26.5921C15.4707 27.5948 16.2837 28.4077 17.2864 28.4077H25.7165C26.7192 28.4077 27.5322 27.5948 27.5322 26.5921V16.4079C27.5322 15.4051 26.7192 14.5922 25.7165 14.5922Z" stroke="#2D6AFF" stroke-miterlimit="10" stroke-linecap="round" stroke-linejoin="round"/>
<path d="M22.1387 19.2943H15.4707V23.7058H27.5321V19.2943H25.1891" stroke="#2D6AFF" stroke-miterlimit="10" stroke-linecap="round" stroke-linejoin="round"/>
<path d="M24.4919 3.62104C24.4919 5.27293 23.1528 6.61206 21.5009 6.61206C19.8489 6.61206 18.5098 5.27293 18.5098 3.62104C18.5098 1.96915 19.8489 0.630022 21.5009 0.630022C23.1528 0.630022 24.4919 1.96915 24.4919 3.62104Z" stroke="#2D6AFF" stroke-miterlimit="10" stroke-linecap="round" stroke-linejoin="round"/>
<path d="M21.5 6.61201V14.5923" stroke="#2D6AFF" stroke-miterlimit="10" stroke-linecap="round" stroke-linejoin="round"/>
<path d="M35.0386 9.75224C34.5445 10.2463 33.7435 10.2463 33.2495 9.75224C32.7554 9.25816 32.7554 8.4572 33.2495 7.96312C33.7435 7.46896 34.5445 7.46896 35.0386 7.96312C35.5327 8.4572 35.5327 9.25816 35.0386 9.75224Z" stroke="#2D6AFF" stroke-miterlimit="10" stroke-linecap="round" stroke-linejoin="round"/>
<path d="M33.249 9.75225L27.3613 15.6399" stroke="#2D6AFF" stroke-miterlimit="10" stroke-linecap="round" stroke-linejoin="round"/>
<path d="M7.96431 33.248C8.45839 32.7539 9.25935 32.7539 9.75343 33.248C10.2475 33.7421 10.2475 34.543 9.75343 35.0371C9.25935 35.5313 8.45839 35.5313 7.96431 35.0371C7.47023 34.543 7.47023 33.7421 7.96431 33.248Z" stroke="#2D6AFF" stroke-miterlimit="10" stroke-linecap="round" stroke-linejoin="round"/>
<path d="M9.75391 33.2478L15.6415 27.3602" stroke="#2D6AFF" stroke-miterlimit="10" stroke-linecap="round" stroke-linejoin="round"/>
<path d="M33.2495 35.0369C32.7554 34.5428 32.7554 33.7419 33.2495 33.2478C33.7435 32.7537 34.5445 32.7537 35.0386 33.2478C35.5327 33.7419 35.5327 34.5428 35.0386 35.0369C34.5445 35.531 33.7435 35.531 33.2495 35.0369Z" stroke="#2D6AFF" stroke-miterlimit="10" stroke-linecap="round" stroke-linejoin="round"/>
<path d="M33.2487 33.2478L27.3613 27.3604" stroke="#2D6AFF" stroke-miterlimit="10" stroke-linecap="round" stroke-linejoin="round"/>
<path d="M9.75349 7.96312C10.2476 8.4572 10.2476 9.25816 9.75349 9.75224C9.25941 10.2463 8.45845 10.2463 7.96437 9.75224C7.47021 9.25816 7.47021 8.4572 7.96437 7.96312C8.45845 7.46904 9.25941 7.46904 9.75349 7.96312Z" stroke="#2D6AFF" stroke-miterlimit="10" stroke-linecap="round" stroke-linejoin="round"/>
<path d="M13.4824 13.4806L15.6415 15.6396" stroke="#2D6AFF" stroke-miterlimit="10" stroke-linecap="round" stroke-linejoin="round"/>
<path d="M9.75391 9.75205L11.3778 11.376" stroke="#2D6AFF" stroke-miterlimit="10" stroke-linecap="round" stroke-linejoin="round"/>
<path d="M39.3797 24.491C37.7278 24.491 36.3887 23.1518 36.3887 21.4999C36.3887 19.848 37.7278 18.5088 39.3797 18.5088C41.0316 18.5088 42.3707 19.848 42.3707 21.4999C42.3707 23.1518 41.0316 24.491 39.3797 24.491Z" stroke="#2D6AFF" stroke-miterlimit="10" stroke-linecap="round" stroke-linejoin="round"/>
<path d="M36.3886 21.5H27.5312" stroke="#2D6AFF" stroke-miterlimit="10" stroke-linecap="round" stroke-linejoin="round"/>
<path d="M18.7129 38.2922C19.1478 37.1776 20.2318 36.3881 21.5003 36.3881C23.1522 36.3881 24.4914 37.7272 24.4914 39.3791C24.4914 41.031 23.1522 42.3701 21.5003 42.3701C20.5149 42.3701 19.6407 41.8936 19.0959 41.1584" stroke="#2D6AFF" stroke-miterlimit="10" stroke-linecap="round" stroke-linejoin="round"/>
<path d="M21.5 36.3879V28.4077" stroke="#2D6AFF" stroke-miterlimit="10" stroke-linecap="round" stroke-linejoin="round"/>
<path d="M3.62188 18.5091C5.27377 18.5091 6.6129 19.8482 6.6129 21.5001C6.6129 23.1521 5.27377 24.4912 3.62188 24.4912C1.96999 24.4912 0.630859 23.1521 0.630859 21.5001C0.630859 19.8482 1.96999 18.5091 3.62188 18.5091Z" stroke="#2D6AFF" stroke-miterlimit="10" stroke-linecap="round" stroke-linejoin="round"/>
<path d="M6.61328 21.5H15.4706" stroke="#2D6AFF" stroke-miterlimit="10" stroke-linecap="round" stroke-linejoin="round"/>
<path d="M20.1602 21.5H22.8401" stroke="#2D6AFF" stroke-miterlimit="10" stroke-linecap="round" stroke-linejoin="round"/>
<path d="M20.1602 16.9434H22.8401" stroke="#2D6AFF" stroke-miterlimit="10" stroke-linecap="round" stroke-linejoin="round"/>
<path d="M20.1602 26.0569H22.8401" stroke="#2D6AFF" stroke-miterlimit="10" stroke-linecap="round" stroke-linejoin="round"/>
<path d="M40.0098 21.5C40.0098 21.8479 39.7277 22.1299 39.3799 22.1299C39.032 22.1299 38.75 21.8479 38.75 21.5C38.75 21.1521 39.032 20.8701 39.3799 20.8701C39.7277 20.8701 40.0098 21.1521 40.0098 21.5Z" fill="#2D6AFF"/>
<path d="M22.1309 3.62085C22.1309 3.96871 21.8488 4.25073 21.501 4.25073C21.1531 4.25073 20.8711 3.96871 20.8711 3.62085C20.8711 3.27299 21.1531 2.99097 21.501 2.99097C21.8488 2.99097 22.1309 3.27299 22.1309 3.62085Z" fill="#2D6AFF"/>
<path d="M22.1309 39.3794C22.1309 39.7273 21.8488 40.0093 21.501 40.0093C21.1531 40.0093 20.8711 39.7273 20.8711 39.3794C20.8711 39.0315 21.1531 38.7495 21.501 38.7495C21.8488 38.7495 22.1309 39.0315 22.1309 39.3794Z" fill="#2D6AFF"/>
<path d="M4.25195 21.5C4.25195 21.8479 3.96993 22.1299 3.62207 22.1299C3.27421 22.1299 2.99219 21.8479 2.99219 21.5C2.99219 21.1521 3.27421 20.8701 3.62207 20.8701C3.96993 20.8701 4.25195 21.1521 4.25195 21.5Z" fill="#2D6AFF"/>
</g>
</g>
<defs>
<clipPath id="clip0_912_1180">
<rect width="43" height="43" fill="white"/>
</clipPath>
</defs>
</svg>
