<svg width="70" height="82" fill="none" xmlns="http://www.w3.org/2000/svg"><path fill-rule="evenodd" clip-rule="evenodd" d="M20.47.093a.718.718 0 01.989.28l3.655 6.524A24.564 24.564 0 0135 4.847c3.54 0 6.895.737 9.886 2.05L48.541.373a.718.718 0 01.988-.28c.365.2.486.616.283.979l-3.61 6.455c6.944 3.577 11.634 10.374 11.644 18.175H12.153c.01-7.801 4.7-14.599 11.643-18.175l-3.609-6.455a.696.696 0 01.282-.979zm2.079 15.442c0-1.033.863-1.888 1.906-1.888s1.907.855 1.907 1.888c0 1.032-.864 1.887-1.907 1.887-1.043 0-1.906-.855-1.906-1.887zm21.089 0c0-1.033.863-1.888 1.907-1.888 1.043 0 1.906.855 1.906 1.888 0 1.032-.863 1.887-1.907 1.887-1.043 0-1.906-.855-1.906-1.887z" fill="#9B9B9B"/><path d="M21.34 76.928V65.743h-3.664c-3.06 0-5.523-2.439-5.523-5.468V27.489h45.694v32.786c0 3.03-2.464 5.468-5.524 5.468H48.66v11.185c0 2.825-2.27 5.072-5.123 5.072s-5.123-2.248-5.123-5.072V65.743h-6.826v11.185c0 2.825-2.27 5.072-5.123 5.072-2.854 0-5.124-2.248-5.124-5.072zM0 31.69c0-2.824 2.27-5.071 5.123-5.071s5.124 2.247 5.124 5.072v21.127c0 2.825-2.27 5.072-5.124 5.072C2.27 57.89 0 55.643 0 52.818V31.691zm59.753 0c0-2.824 2.27-5.071 5.124-5.071 2.853 0 5.123 2.247 5.123 5.072v21.127c0 2.825-2.27 5.072-5.123 5.072s-5.124-2.247-5.124-5.072V31.691z" fill="#9B9B9B"/></svg>