<svg width="145" height="73" fill="none" xmlns="http://www.w3.org/2000/svg"><path d="M1.294 71.166H13.19V20.52H1.294v50.646zm5.924-57.287c3.727 0 6.642-2.867 6.642-6.45C13.86 3.797 10.945.93 7.218.93 3.54.93.625 3.797.625 7.429c0 3.583 2.914 6.45 6.593 6.45zM52.801 1.074c-20.114 0-32.728 13.712-32.728 35.643S32.685 72.313 52.8 72.313c20.067 0 32.681-13.665 32.681-35.596 0-21.93-12.613-35.643-32.68-35.643zm0 10.511c12.28 0 20.115 9.747 20.115 25.132 0 15.337-7.836 25.084-20.115 25.084-12.327 0-20.114-9.747-20.114-25.084 0-15.385 7.788-25.132 20.114-25.132zm37.7 40.183c.525 12.71 10.941 20.545 26.804 20.545 16.675 0 27.187-8.218 27.187-21.31 0-10.272-5.925-16.053-19.924-19.254l-7.931-1.816c-8.457-2.007-11.945-4.682-11.945-9.27 0-5.733 5.256-9.555 13.043-9.555 7.884 0 13.283 3.87 13.856 10.32h11.754c-.287-12.136-10.32-20.354-25.514-20.354-15.003 0-25.657 8.266-25.657 20.497 0 9.843 6.02 15.959 18.728 18.873l8.935 2.103c8.696 2.054 12.231 4.921 12.231 9.89 0 5.733-5.781 9.843-14.094 9.843-8.409 0-14.763-4.157-15.528-10.512H90.501z" fill="#9B9B9B"/></svg>