<svg width="54" height="63" fill="none" xmlns="http://www.w3.org/2000/svg"><path fill-rule="evenodd" clip-rule="evenodd" d="M48.365 42.182c-.156.643-.435 1.423-.8 2.283a1.71 1.71 0 00-.666.02h-.001a.697.697 0 01-.096.014c-.082 0-.373.456-.652.89-.176.277-.348.544-.457.682-.292.365-1.084.999-1.645 1.352-.56.354-.999.549-2.193.463-1.074-.087-1.458-.421-1.8-.718l-.057-.05a21.857 21.857 0 00-.14-.12c-.347-.298-.666-.571-.599-1.305l.029-.255c.074-.658.127-1.125-.09-1.341-.16-.161-.36-.24-.679-.276.055-.146.141-.305.278-.528.295-.449.284-1.264.272-2.09-.002-.16-.004-.322-.004-.481 0-2.535-.293-5.118-.878-7.019-.352-1.167-.84-2.104-1.34-3.064a30.883 30.883 0 01-.78-1.566c-.66-1.445-1.007-2.531-1.309-3.475-.367-1.15-.668-2.09-1.384-3.215-.563-.896-.808-1.678-1.003-2.299-.142-.456-.258-.824-.452-1.087.234-.433.354-.99.4-1.721.045-.653-.367-1.059-.979-1.357.493-.36.76-.87.937-1.53.293-1.097.305-2.315-.512-3.741-.767-1.365-1.206-1.584-2.315-1.67-1.706-.146-2.51 1.049-2.888 1.902-.333.767-.332.806-.308 1.463.005.136.011.298.016.498.01.484.122.83.281 1.119a4.97 4.97 0 00-1.823-.152 8.473 8.473 0 01-.454.037c-.263.016-.5.03-.757.104.138-.35.224-.753.218-1.388 0-1.124-.321-1.564-.82-2.247a7.561 7.561 0 01-.13-.178c-.549-.755-1.426-.792-1.974-.694-.317.048-.732.45-1.012 1.048a3.792 3.792 0 00-.341 1.45c-.037 1.438.085 1.986.414 2.96a2.6 2.6 0 00.723 1.124l-.058.048c-.744.616-1.228 1.016-1.206 1.906.004.47.187.884.47 1.265-.05.07-.081.19-.087.373-.028.893-.012 1.267.007 1.706.014.329.03.694.03 1.34 0 .672-.205.93-.634 1.473a14.52 14.52 0 00-.829 1.135c-.512.805-.914 1.67-1.23 2.547a19.018 19.018 0 00-.525 1.609c-.03.134-.073.27-.115.408a5.512 5.512 0 00-.116.408c-.24.884-.775 1.867-1.313 2.853-.581 1.066-1.165 2.138-1.38 3.094-.09.394-.182.758-.273 1.111-.326 1.281-.616 2.415-.568 4.336.047 1.887.072 1.9.421 2.086.104.055.237.126.408.265.227.19.457.376.7.573.54.437 1.146.928 1.944 1.633.431.375 1.027.85 1.633 1.331 1.105.88 2.24 1.784 2.461 2.154.366.585.354 1.901.134 2.327-.206.39-1.904.617-2.101.644a.447.447 0 00-.019.002c-.012 0 1.67 2.316 1.999 2.644l.02.021.001.001c.355.359 1.778 1.797 7.217.783 3.131-.585 5.556-2.34 7.311-4.034.382-.372.668-.7.88-.992-.014.22-.031.433-.051.639-.135 1.377-.34 2.482-.523 3.462-.196 1.056-.366 1.968-.391 2.923-.026.783.07 1.458.233 2.012-3.38-.88-4.657-.8-7.881-.601l-1.012.062c-.98.058-1.675.081-2.201.099-.742.025-1.147.038-1.536.122-.467.1-.912.3-1.89.742l-.162.072a.74.74 0 01-.337.062c.079-.062.153-.118.223-.17.677-.513.907-.688.878-2.51-.024-1.519-.68-2.33-1.607-3.476-.47-.582-1.01-1.25-1.573-2.141a286.351 286.351 0 01-1.846-2.96c-.367-.595-.697-1.13-1.2-1.927-1.11-1.73-3.303-4.874-4.558-4.91-.846-.021-1.378.36-1.899.863a53.68 53.68 0 00-.185-.71c-.473-1.783-.503-1.898 1.028-4.53.8-1.374 1.291-2.741 1.804-4.166.628-1.746 1.288-3.579 2.583-5.619.78-1.232 1.599-2.263 2.34-3.194 1.493-1.879 2.664-3.352 2.534-5.25l-.099-1.346c-.712-9.647-1.074-14.565 3.401-16.896 4.46-2.315 8.189-.938 9.663-.146l.1.054c.663.354 1.874 1.003 2.788 2.103.963 1.133 1.828 2.851 2.316 5.02.483 2.105.402 2.855.317 3.633-.09.83-.184 1.691.401 4.264.936 4.15 2.679 6.533 4.845 9.497l.001.002c.428.586.874 1.195 1.332 1.845 2.778 3.936 5.678 10.43 4.752 14.184zM30.296 3.505c-.175.345-.352 1.332-.005 1.141.116-.064.268-.122.42-.182.289-.111.582-.225.656-.38.064-.368-.875-.983-1.07-.579zm-7.73 5.39c-.078.074.036.157.208.283.064.046.136.099.209.159.119.097.194.208.254.296.084.122.138.201.238.145.167-.092-.08-.39-.236-.575-.206-.25-.562-.402-.673-.307zm7.963-.486c-.009.067.134.122.27.174.04.015.08.03.115.046.155.06.452.293.589.459l.031.04.026.032c.153.197.421.54.483.445.066-.103-.084-.406-.254-.576a2.375 2.375 0 00-.64-.52c-.24-.132-.61-.17-.62-.1zM12.235 42.07c-.755-1.145-.722-2.735-.646-3.729.04-.213-.298-.121-.35.003-.058.241-.213 1.283-.104 1.853.168.874.38 1.593.865 2.166.476.578.99.85.235-.293zm.115-6.372c.615-1.79.902-2.344 1.312-3.126.408-.78.441-1.356.143-.977-.362.463-.95 1.753-1.178 2.251l-.038.084s-.427.914-.486 1.541c-.014.22.177.422.247.227zm25.791-5.92c-.2-.316 1.384.168 2.404 1.411.155.19-.115.415-.29.233a10.207 10.207 0 00-2.095-1.632l-.014-.009-.003-.001-.002-.001zm4.307 4.072c.509.906.642 2.799.392 3.484-.057.155-.37-.153-.368-.368.088-1.795-.621-3.165-.843-3.592a.754.754 0 01-.064-.137c-.01-.036.2-.31.343-.278.101.026.212.248.342.512.062.123.127.255.198.38zm1.024 8.754c-.32-.045-.564-.08-.585-.201-.025-.119.235-.167.655-.127.44.048.795.18 1.264.353h.001l.196.073c.754.275 1.105.56 1.147.902.036.284-.114.444-.343.43-.117-.018-.117-.056-.117-.13 0-.093 0-.24-.223-.472-.45-.444-.675-.51-1.292-.693l-.015-.004a5.028 5.028 0 00-.688-.131zm-2.02.042c-.73 0-1.139.35-1.4.576a4.858 4.858 0 01-.08.067 3.389 3.389 0 01-.035.042l-.024.03-.039.048a2.966 2.966 0 01-.053.066 2.31 2.31 0 01-.057.072 1.791 1.791 0 01-.052.065 1.72 1.72 0 01-.05.064 1.665 1.665 0 01-.05.063c-.126.17-.253.287-.39.15-.146-.146.171-.61.451-.939.293-.34.78-.719 1.511-.816.113-.017.213-.032.303-.043-.01-.187.103-.494.257-.91.115-.313.253-.687.379-1.119.093-.328.173-.936.233-1.394.043-.323.076-.571.096-.592.158-.158.548.293.548.549.02.853-.623 2.77-1.072 3.437.17.014.243.084.256.242l.007.059c.033.262.036.283-.738.283zm-16.45-29.984c.18-.034.391-.012.726.144.23.113.131.177-.209.106a5.009 5.009 0 00-.278-.055 6.693 6.693 0 01-.143-.025c-.385-.063-.452-.106-.096-.17z" fill="#9B9B9B"/><path d="M23.59 28.872c.068.007.28-.027.512-.064.34-.054.723-.116.745-.06.017.035-.117.097-.29.177-.206.095-.466.215-.59.344-.075.075-.273.255-.396.236-.055-.005-.097-.073-.15-.159a1.165 1.165 0 00-.143-.2c-.162-.162-.297-.24-.386-.293-.098-.057-.14-.082-.106-.152.032-.059.193-.005.38.058.141.048.297.1.423.113zm-1.075 9.968c.093-1.49.16-2.563-.145-2.578-.487-.025-.914 3.18-.914 5.995s.61 4.082.963 3.729c.199-.2.166-.6.1-1.412a31.134 31.134 0 01-.124-2.744c0-1.054.065-2.096.12-2.99zm8.617-9.673c.092-.317 2.425-.392 2.992-.3.567.092 2.717 2.767 2.275 2.942-.209.083-.476-.185-.849-.56-.414-.416-.96-.964-1.701-1.307-.76-.35-1.519-.456-2.04-.529-.446-.062-.72-.1-.677-.246z" fill="#9B9B9B"/><path d="M45.761 51.058a6.48 6.48 0 01-1.603.642c-.892.223-1.765.235-2.59.176l-.02-.001-.02-.002a7.835 7.835 0 01-1.775-.34c-.013.194-.03.385-.048.572v.002l-3.98-.394c-.135 1.377-.34 2.482-.523 3.462-.196 1.056-.366 1.968-.391 2.923l10.95-7.04zm0 0c.548.742 1.171 1.4 1.73 1.93m-1.73-1.93l1.73 1.93m0 0a42.31 42.31 0 00-2.53 1.562h0l-.007.005c-2.488 1.705-3.516 2.58-4.515 3.578h0c-.28.28-.4.324-.425.333h-.002c-.05.02-.263.092-.888.092-.117 0-.22-.002-.311-.006l8.678-5.564zm2.404-1.419l-.003.003v-.001a.026.026 0 01.003-.002zm.515 3.636c.008.005.007.005-.002-.001h.002zM8.017 49.996h0c-.864.624-1.801.919-2.345 1.07a15.85 15.85 0 01-.666.17c.057.562.102 1.223.1 1.925m2.911-3.165L5.105 53.17v-.01m2.912-3.164c1-.722 1.732-1.655 2.184-2.283.484.645.953 1.342 1.324 1.92.487.77.805 1.287 1.17 1.878l.112.183c.42.68.912 1.475 1.756 2.812.52.825 1.02 1.485 1.443 2.02.2.253.352.44.477.594.179.22.305.375.448.57.074.1.122.171.152.22l-.13.114c-.166.148-.318.287-.438.397l-.017.015-.14.13c-.3-.04-.925-.237-2.381-.789l-.171-.065c-1.27-.482-2.984-1.132-4.794-1.508-1.943-.405-3.216-.68-4.081-.892m3.086-5.316l-3.086 5.316m.174-2.151c0 .83-.083 1.567-.174 2.151m.174-2.151v-.01l-.174 2.161m3.945-9.118a.077.077 0 010 0zm-5.568 5.432a.604.604 0 010 0z" stroke="#9B9B9B" stroke-width="8"/><g clip-path="url(#clip0_923_1838)"><path fill-rule="evenodd" clip-rule="evenodd" d="M37.704 16.718c-1.75-2.627-5.448-4.573-8.367-4.573-3.113 0-5.35 1.264-7.102 3.989-2.11 3.083-1.986 6.506-1.887 9.25.02.546.038 1.065.038 1.55 0 4.67 3.211 10.313 4.281 11.48.923.952 1.598 1.81 2.176 2.545 1.375 1.747 2.21 2.807 4.538 2.807 1.46 0 3.989-.584 5.157-1.265 3.696-2.14 4.377-9.048 4.377-15.275 0-4.184-1.363-7.881-3.211-10.508zm-2.187 4.148c-1.239-2.71-4.647-3.33-5.498-2.013-.78 1.207.065 2.414 1.7 4.752.15.214.306.436.467.67.776 1.177 1.129 2.405 1.418 3.409.432 1.504.72 2.507 2.068 2.089.85-.31 1.085-6.196-.154-8.907z" fill="#9B9B9B"/></g><g clip-path="url(#clip1_923_1838)"><path fill-rule="evenodd" clip-rule="evenodd" d="M54.494 26.642c-1.46-8.368-5.74-14.887-13.038-14.887-3.114 0-6.81.486-8.853 2.725-2.724 3.016-4.28 6.81-4.28 12.162 0 4.767.486 11.48 2.626 14.497 1.835 2.504 5.104 2.43 8.269 2.359.524-.012 1.045-.024 1.557-.024 3.795 0 8.465-2.14 11.092-5.643 2.335-3.016 3.21-7.395 2.627-11.19zm-7.23-8.283c-1.782-2.016-3.489-2.792-4.263-2.016-1.297 1.23-.48 2.03.821 3.303.255.249.528.516.807.808.312.36.587.905.86 1.45.613 1.217 1.224 2.43 2.242 1.573 1.55-1.24 1.473-2.946-.467-5.118z" fill="#9B9B9B"/></g><path d="M25.186 17.782l.013-.002a.737.737 0 01.142.009c.172.12.347.234.527.343-.298.185-.508.3-.656.37h-.003l-.265.002h-.094l-.064-.06-.006-.006c-.095-.09-.205-.196-.32-.303l-.074-.07.052-.04a9.46 9.46 0 01.267-.2c.131-.009.298-.022.481-.043zm4.421 1.743a.214.214 0 010 0zm-.462-3.173l-.001.001h.001zm-4.06 2.203a.155.155 0 010 0z" stroke="#9B9B9B" stroke-width="8"/><path fill-rule="evenodd" clip-rule="evenodd" d="M25.582 15.528c.106.219.377.25.559.347.174.099.272.121.34.083.151-.083.038-.355-.113-.453-.144-.098-.847-.12-.786.023zm-2.768.372c-.036.09.216.26.342.144a3.68 3.68 0 01.35-.26c.243-.162.153-.28-.251-.207-.405.072-.405.233-.441.323zm-2.81 3c.223.03.64.35 1.134.683.733.563 1.81.78 2.587.832 1.854.216 5.044-1.506 5.646-1.985.703-.513 1.508-1.161 1.829-1.22.15.218-.259.249-.83.725-.62.411-.94.671-1.787 1.15-.968.506-2.721 1.49-4.806 1.473-1.15-.131-1.736-.276-2.127-.508-.556-.344-1.283-.734-1.646-1.15z" fill="#9B9B9B"/><defs><clipPath id="clip0_923_1838"><path fill="#fff" transform="translate(20.076 11.298)" d="M0 0h2.63v4.133H0z"/></clipPath><clipPath id="clip1_923_1838"><path fill="#fff" transform="translate(27.59 11.298)" d="M0 0h3.507v4.133H0z"/></clipPath></defs></svg>