<svg width="50" height="50" viewBox="0 0 50 50" fill="none" xmlns="http://www.w3.org/2000/svg">
<g clip-path="url(#clip0_189_4041)">
<path d="M48.0634 34.4998C48.078 34.47 48.091 34.4395 48.1014 34.4083C51.0638 27.5711 50.5344 19.1889 46.6869 12.7822C48.7409 10.3267 46.0728 6.81025 43.1551 8.17084C42.6423 7.64687 42.104 7.14468 41.5461 6.66986C42.6412 3.6931 38.9866 1.25116 36.7105 3.47523C30.0951 0.134728 21.867 0.177033 15.2881 3.58827C12.9477 1.10812 9.01733 3.76735 10.4343 6.87913C9.62278 7.58874 8.85466 8.3553 8.14642 9.16593C7.53491 9.86586 8.64274 10.8252 9.25005 10.1301C9.90895 9.37608 10.6229 8.66276 11.3769 8.00172C12.8351 9.05347 14.9494 8.51768 15.7494 6.91225C18.3894 7.67217 20.9105 8.76281 23.2597 10.1626C23.063 10.8718 23.1433 11.6638 23.4808 12.3185C21.5473 13.9887 19.8061 15.8781 18.294 17.9487C16.8982 17.5269 15.3596 18.2329 14.7526 19.5548C11.6743 19.5713 8.58647 19.9024 5.5548 20.5432C5.2871 20.0444 4.88125 19.631 4.38923 19.3541C4.95883 17.1329 5.861 15.0199 7.0762 13.0662C7.56041 12.2875 6.33817 11.478 5.83179 12.2921C4.53979 14.3692 3.58017 16.6154 2.97325 18.9767C-0.537154 19.0363 -1.12649 23.8926 2.21538 24.8268C2.16614 31.7384 5.15442 38.4581 10.3363 43.0356C9.25533 45.9556 12.7647 48.3641 15.0806 46.3046C21.8393 49.8985 30.3812 49.899 37.1404 46.3057C39.4959 48.6353 43.2685 46.0327 41.9417 42.9873C44.6124 40.6139 46.6871 37.7109 48.0634 34.4998ZM47.1401 32.861C45.1117 30.8458 42.892 29.0177 40.522 27.413C40.8586 26.3587 40.5661 25.1725 39.7801 24.3942C41.773 21.0807 43.3375 17.5277 44.4388 13.8161C44.8057 13.8174 45.1585 13.7497 45.4836 13.6272C48.8581 19.3263 49.4753 26.6744 47.1401 32.861ZM13.4209 41.1445C12.8042 35.1041 13.8864 29.078 16.5646 23.6322C18.2285 24.1514 20.0269 23.0573 20.35 21.3493C25.4026 21.9722 30.2688 23.4556 34.8355 25.7657C34.6159 26.6194 34.7977 27.5608 35.3209 28.271C30.1733 34.7924 23.3785 39.6997 15.6019 42.5122C15.1307 41.766 14.3382 41.244 13.4209 41.1445ZM36.2074 26.5083C36.2074 25.6779 36.8781 25.0024 37.7024 25.0024C39.6855 25.0849 39.6849 27.9319 37.7024 28.0141C36.8781 28.0141 36.2074 27.3386 36.2074 26.5083ZM45.9401 10.8448C45.9401 11.6752 45.2695 12.3507 44.4452 12.3507C42.462 12.2681 42.4625 9.42122 44.4452 9.33895C45.2695 9.33895 45.9401 10.0145 45.9401 10.8448ZM42.0353 9.12215C41.0225 10.5452 41.4926 12.6023 43.0195 13.4481C41.9527 17.0282 40.4403 20.4554 38.5162 23.6521C38.114 23.5364 37.6675 23.5077 37.2539 23.571C35.2428 19.2765 32.3166 15.4084 28.7419 12.3187C29.0797 11.6637 29.1602 10.873 28.9632 10.1628C31.2259 8.81469 33.6495 7.75229 36.184 6.99706C37.0264 8.62339 39.2861 9.08259 40.689 7.86513C41.154 8.26512 41.6041 8.68533 42.0353 9.12215ZM24.6165 10.9583C24.6165 10.1279 25.2871 9.45238 26.1114 9.45238C28.0946 9.53494 28.0941 12.3818 26.1114 12.464C25.2871 12.464 24.6165 11.7885 24.6165 10.9583ZM38.7898 4.08215C39.6142 4.08215 40.2848 4.75765 40.2848 5.58801C40.2025 7.58571 37.3768 7.58522 37.2949 5.58801C37.2949 4.75765 37.9655 4.08215 38.7898 4.08215ZM13.1003 7.09378C12.276 7.09378 11.6053 6.41828 11.6053 5.58791C11.6876 3.59012 14.5133 3.59081 14.5953 5.58791C14.5953 6.41828 13.9246 7.09378 13.1003 7.09378ZM16.058 5.47556C16.0503 5.27214 16.0224 5.0741 15.9759 4.883C22.1099 1.71094 29.7729 1.65564 35.9541 4.73547C35.8747 5.00112 35.8312 5.28201 35.8297 5.57287C33.1639 6.36151 30.6147 7.4755 28.2349 8.8909C27.0911 7.70764 25.1322 7.70725 23.988 8.8908C21.508 7.41571 18.846 6.26909 16.058 5.47556ZM24.451 13.4169C25.4419 14.0932 26.7807 14.0933 27.7716 13.417C31.1845 16.3638 33.9804 20.0525 35.9061 24.1486C35.7756 24.2489 35.6537 24.36 35.5415 24.4803C30.7269 22.0382 25.589 20.4856 20.2522 19.8609C20.1081 19.4247 19.8662 19.0331 19.5521 18.7126C20.9844 16.7669 22.6282 14.9898 24.451 13.4169ZM17.4421 19.2882C18.2664 19.2882 18.937 19.9638 18.937 20.7941C18.8548 22.7919 16.029 22.7913 15.9471 20.7941C15.9472 19.9638 16.6178 19.2882 17.4421 19.2882ZM1.45155 21.9475C1.45155 21.1171 2.12217 20.4416 2.94648 20.4416C4.92961 20.5242 4.92903 23.371 2.94648 23.4532C2.12227 23.4533 1.45155 22.7778 1.45155 21.9475ZM3.6808 24.8262C3.6808 24.8262 5.90653 24.3409 5.90653 21.9668C5.90653 21.9668 11.6177 21.0539 14.4912 21.0219C14.5452 21.7318 14.8483 22.3724 15.3133 22.8558C12.4577 28.6007 11.3059 34.9701 11.9689 41.3527C11.6834 41.4717 11.4206 41.6343 11.1882 41.8321C6.40764 37.5495 3.6808 30.3739 3.6808 24.8262ZM13.1003 45.6038C12.276 45.6038 11.6053 44.9283 11.6053 44.098C11.6053 43.2676 12.276 42.5921 13.1003 42.5921C13.9135 42.5921 14.5953 43.2965 14.5953 44.098C14.5953 44.9283 13.9246 45.6038 13.1003 45.6038ZM26.1114 47.5458C22.555 47.5458 19.0381 46.6941 15.8949 45.077C16.0225 44.7113 16.0788 44.2947 16.054 43.9067C24.0985 41.007 31.1282 35.9395 36.4535 29.2014C36.891 29.4066 37.3764 29.5007 37.8588 29.4754C38.1843 30.6837 38.4416 31.9164 38.6239 33.149C38.7635 34.0926 40.2137 33.8818 40.0737 32.9346C39.8801 31.6258 39.6061 30.3168 39.2582 29.0348C39.4333 28.9258 39.5961 28.7987 39.7444 28.6565C42.1897 30.3166 44.4694 32.2222 46.5347 34.3313C45.2539 37.1628 43.3896 39.7265 41.0211 41.845C40.7869 41.6691 40.5257 41.5277 40.2454 41.427C40.3894 40.0648 40.4522 38.6893 40.4311 37.3289C40.4162 36.3717 38.9508 36.3941 38.9657 37.3516C38.9861 38.6592 38.9255 39.9814 38.7864 41.2909C37.0581 41.5658 35.9278 43.3578 36.404 45.0373C33.241 46.68 29.6969 47.5458 26.1114 47.5458ZM39.2512 45.7312C38.4269 45.7312 37.7563 45.0557 37.7563 44.2254C37.8386 42.2276 40.6643 42.2283 40.7463 44.2254C40.7463 45.0557 40.0756 45.7312 39.2512 45.7312Z" fill="black"/>
</g>
<defs>
<clipPath id="clip0_189_4041">
<rect width="50" height="50" fill="white"/>
</clipPath>
</defs>
</svg>
