<svg width="54" height="54" viewBox="0 0 54 54" fill="none" xmlns="http://www.w3.org/2000/svg">
<g clip-path="url(#clip0_189_4034)">
<path d="M23.2301 8.65135C22.7401 8.16134 22.0887 7.89155 21.3957 7.89155C20.7027 7.89155 20.0512 8.16145 19.5613 8.65135L12.3398 15.8729L10.2953 13.3001C9.80089 12.6783 9.06124 12.3215 8.26611 12.3215C7.68361 12.3215 7.11134 12.5214 6.65487 12.8843C6.11307 13.315 5.77136 13.9309 5.69289 14.6186C5.61442 15.3062 5.80827 15.9832 6.239 16.5248L10.0095 21.2697C10.4967 21.9501 11.2844 22.3554 12.1232 22.3553C12.8143 22.3553 13.4649 22.0855 13.9547 21.5957L23.2301 12.3202C24.2416 11.3087 24.2416 9.6629 23.2301 8.65135ZM21.9622 11.0523L12.6867 20.3279C12.5355 20.4792 12.3353 20.5625 12.1229 20.5626C11.8555 20.5626 11.6145 20.4372 11.4618 20.2184C11.4511 20.2031 11.44 20.1884 11.4285 20.1738L7.64237 15.4092C7.50969 15.2423 7.45 15.0338 7.47425 14.8221C7.49841 14.6102 7.60366 14.4206 7.77073 14.2879C7.95097 14.1446 8.13966 14.1144 8.26611 14.1144C8.51143 14.1144 8.73967 14.2243 8.89196 14.4157L11.5615 17.7751C11.7203 17.9751 11.9572 18.098 12.2122 18.1124C12.4677 18.1252 12.7165 18.0318 12.8971 17.8513L20.8293 9.91909C20.9806 9.76774 21.1818 9.68442 21.3958 9.68442C21.6098 9.68442 21.8111 9.76774 21.9623 9.91919C22.2747 10.2317 22.2747 10.7399 21.9622 11.0523ZM46.0172 30.7645C41.0188 25.766 34.3989 22.9794 27.3441 22.8915C28.7825 20.5719 29.5606 17.8724 29.5606 15.1237C29.5606 7.00277 22.9537 0.395996 14.833 0.395996C6.71235 0.395996 0.105469 7.00266 0.105469 15.1237C0.105469 18.5041 1.27965 21.8062 3.4117 24.4216C5.12314 26.5209 7.38872 28.1095 9.91617 29.0075C9.24845 29.5587 8.60298 30.1442 7.98272 30.7645C2.90303 35.8441 0.105469 42.5981 0.105469 49.7818C0.105469 50.2769 0.506988 50.6783 1.00195 50.6783H9.63763C10.1328 50.6783 10.5341 50.2769 10.5341 49.7818C10.5341 40.7026 17.9206 33.3161 27 33.3161C36.0792 33.3161 43.4657 40.7026 43.4657 49.7818C43.4657 50.2769 43.8672 50.6783 44.3622 50.6783H52.998C53.493 50.6783 53.8945 50.2769 53.8945 49.7818C53.8945 42.5981 51.097 35.8441 46.0172 30.7645ZM26.1035 24.698V31.545C23.4325 31.6748 20.9109 32.382 18.6595 33.5428L15.2355 27.6122C18.4986 25.8737 22.1885 24.8361 26.1035 24.698ZM27.8965 24.698C31.8114 24.8362 35.5013 25.8737 38.7643 27.6121L35.3403 33.5427C33.089 32.3819 30.5674 31.6748 27.8965 31.545V24.698ZM1.89844 15.1237C1.89844 7.99143 7.70091 2.18896 14.833 2.18896C21.9651 2.18896 27.7676 7.99143 27.7676 15.1237C27.7676 17.9476 26.8326 20.7119 25.1282 22.9525C20.2581 23.285 15.6423 24.9129 11.681 27.6698C5.98925 26.2427 1.89844 21.0296 1.89844 15.1237ZM8.76298 48.8854H1.91426C2.05232 44.97 3.09277 41.2808 4.83131 38.0178L10.761 41.4413C9.59998 43.6925 8.8927 46.2143 8.76298 48.8854ZM11.6595 39.8896L5.73033 36.4664C7.74826 33.2546 10.4723 30.5293 13.6844 28.5113L17.108 34.4415C14.9296 35.851 13.0691 37.7114 11.6595 39.8896ZM36.8918 34.4414L40.3156 28.5112C43.5275 30.5293 46.2516 33.2545 48.2697 36.4664L42.3403 39.8896C40.9309 37.7113 39.0702 35.8509 36.8918 34.4414ZM45.237 48.8854C45.1073 46.2143 44.3999 43.6925 43.2389 41.4412L49.1687 38.0178C50.9072 41.2808 51.9478 44.97 52.0857 48.8854H45.237ZM32.217 41.3487L27.5643 46.0015C27.3801 45.9742 27.1917 45.9597 27 45.9597C24.8923 45.9597 23.1778 47.6743 23.1778 49.7818C23.1778 51.8893 24.8923 53.6039 27 53.6039C29.1075 53.6039 30.822 51.8893 30.822 49.7818C30.822 49.5901 30.8073 49.4017 30.7801 49.2175L35.433 44.5645C36.3193 43.6779 36.3193 42.2353 35.433 41.3487C34.5464 40.4624 33.104 40.4622 32.217 41.3487ZM27 51.811C25.8811 51.811 24.9708 50.9007 24.9708 49.7818C24.9708 48.6629 25.8811 47.7526 27 47.7526C28.1187 47.7526 29.029 48.6629 29.029 49.7818C29.029 50.9007 28.1187 51.811 27 51.811ZM34.1651 43.2968L30.0194 47.4425C29.8219 47.1884 29.5935 46.9598 29.3393 46.7624L33.485 42.6166C33.6726 42.4292 33.9777 42.4291 34.1651 42.6165C34.3528 42.804 34.3528 43.1093 34.1651 43.2968Z" fill="black"/>
</g>
<defs>
<clipPath id="clip0_189_4034">
<rect width="54" height="54" fill="white"/>
</clipPath>
</defs>
</svg>
