<svg width="50" height="50" viewBox="0 0 50 50" fill="none" xmlns="http://www.w3.org/2000/svg">
<path d="M24.7423 49.98C24.829 49.9933 24.914 50 24.9998 50C25.0857 50 25.1698 49.9925 25.2565 49.98C27.3623 49.65 45.8332 46.0333 45.8332 20.8633V9.205C45.8332 8.75333 45.654 8.33083 45.3298 8.01583C45.0048 7.70167 44.539 7.54083 44.1057 7.54333C32.5665 7.90417 27.849 2.89083 26.3698 0.724167C26.0598 0.27 25.5482 0 24.9998 0C24.4515 0 23.9398 0.27 23.6298 0.723333C22.1507 2.88917 17.4498 7.90583 5.894 7.5425C5.45067 7.5375 4.99567 7.70083 4.66984 8.015C4.34484 8.33 4.1665 8.7525 4.1665 9.20417V20.8625C4.1665 46.0325 22.6373 49.65 24.7423 49.9792V49.98ZM5.84317 9.20917C18.214 9.57667 23.3723 4.05583 24.9923 1.6625C26.6265 4.05667 31.7873 9.57417 44.1565 9.20917L44.1665 9.20417V20.8625C44.1665 44.6467 26.9607 48.0258 25.0007 48.3325C23.039 48.0258 5.83317 44.6467 5.83317 20.8625L5.84317 9.20917Z" fill="black"/>
<path d="M24.1667 24.1667C25.0858 24.1667 25.8333 23.4208 25.8333 22.5042V6.16332C25.8333 5.72332 25.5742 5.32332 25.1733 5.14499C24.7708 4.96499 24.2917 5.04082 23.9608 5.33832C21.4342 7.61499 16.8025 10.4183 9.085 10.8408C8.19667 10.89 7.5 11.6192 7.5 12.5017V20.8658C7.5 21.4492 7.51167 22.0208 7.535 22.5767C7.57083 23.4675 8.30417 24.1658 9.20417 24.1658L24.1667 24.1667ZM9.16667 20.8667L9.17667 12.505C16.5392 12.1025 21.2983 9.62582 24.1667 7.34749V22.5008L9.2 22.51C9.17833 21.975 9.16667 21.4258 9.16667 20.8667Z" fill="black"/>
<path d="M23.7293 46.3484C23.876 46.3884 24.0243 46.4075 24.171 46.4075C24.5326 46.4075 24.8843 46.2892 25.1801 46.0634C25.5951 45.7459 25.8335 45.2634 25.8335 44.7392V27.4992C25.8335 26.58 25.086 25.8325 24.1668 25.8325H9.72429C9.22846 25.8325 8.76179 26.0517 8.44179 26.4325C8.12596 26.81 7.99346 27.3034 8.07929 27.785C10.5001 41.365 19.8301 45.2909 23.7285 46.3475L23.7293 46.3484ZM24.1668 27.4984L24.1651 44.74C20.5726 43.7659 11.9743 40.135 9.72429 27.5L24.1668 27.4984Z" fill="black"/>
</svg>
