<svg width="43" height="43" viewBox="0 0 43 43" fill="none" xmlns="http://www.w3.org/2000/svg">
<g clip-path="url(#clip0_216_405)">
<path d="M42.0928 6.75862C41.5415 6.53026 40.9129 6.6554 40.4911 7.07717L38.8131 8.75517C36.9347 6.2076 34.4996 4.08179 31.7315 2.57965C28.621 0.891827 25.0881 0 21.5135 0C21.3667 0 8.74836 0 8.20062 0C7.604 0 7.07103 0.356092 6.84277 0.90728C6.61441 1.45847 6.73955 2.08717 7.16132 2.50902L8.80329 4.151C3.2726 8.20205 -0.00437011 14.6317 0.000249017 21.4999V34.8834C0.000249017 35.48 0.356341 36.0129 0.907613 36.2412C1.45872 36.4697 2.08734 36.3445 2.50927 35.9227L4.18694 34.2449C5.1053 35.4912 6.15603 36.6377 7.31803 37.6605C7.43771 37.7659 7.58611 37.8176 7.73392 37.8176C7.90861 37.8176 8.08245 37.7454 8.207 37.6039C8.43678 37.3428 8.4115 36.9448 8.15031 36.7149C6.87762 35.5947 5.74652 34.3167 4.78852 32.9167C4.6827 32.762 4.51355 32.6626 4.32702 32.6453C4.13932 32.6278 3.95573 32.6947 3.82329 32.827L1.61845 35.0318C1.53212 35.1184 1.43806 35.0974 1.3896 35.0774C1.34114 35.0574 1.26001 35.0056 1.26001 34.8834V22.8017C1.26001 22.6859 1.35416 22.5917 1.46997 22.5917H13.5517C13.6737 22.5917 13.7256 22.6729 13.7457 22.7213C13.7657 22.7698 13.7865 22.8638 13.7001 22.9502L11.7904 24.8599C11.6105 25.0398 11.5566 25.3101 11.6535 25.5453C13.3063 29.5549 17.1712 32.1457 21.5002 32.1457C24.3995 32.1457 27.1114 30.997 29.1361 28.9112C29.2102 28.835 29.3337 28.8299 29.4173 28.8997L32.9794 31.8774C33.2465 32.1006 33.6436 32.065 33.8666 31.7982C34.0897 31.5312 34.0542 31.1341 33.7874 30.911L30.2252 27.9333C29.6385 27.4427 28.7629 27.487 28.2322 28.0338C26.4468 29.873 24.0561 30.886 21.5002 30.886C17.8227 30.886 14.5246 28.7646 12.9853 25.4467L14.591 23.841C15.0128 23.4191 15.138 22.7904 14.9096 22.2392C14.6813 21.688 14.1483 21.3319 13.5517 21.3319H12.1166C12.1418 19.87 12.4948 18.4737 13.1689 17.1795C13.3297 16.871 13.2098 16.4906 12.9013 16.3299C12.5927 16.1691 12.2125 16.289 12.0517 16.5976C11.2941 18.052 10.8832 19.6854 10.8569 21.332C10.3902 21.3495 1.7687 21.299 1.26102 21.3487C1.30603 14.702 4.61366 8.50784 10.1316 4.75518C10.2868 4.64961 10.3868 4.48038 10.4044 4.29352C10.4221 4.10657 10.3555 3.92163 10.2228 3.78886L8.05222 1.6182C7.96588 1.53195 7.98663 1.43789 8.0067 1.38935C8.02669 1.34097 8.07859 1.25976 8.2007 1.25976H20.2824C20.3982 1.25976 20.4924 1.35391 20.4924 1.46972V3.98924C20.4924 4.33719 20.7743 4.61912 21.1222 4.61912C21.4702 4.61912 21.7521 4.33719 21.7521 3.98924V1.26178C28.335 1.34148 34.4771 4.62559 38.2116 10.0834C38.3174 10.238 38.4865 10.3375 38.6731 10.3548C38.8595 10.3719 39.0443 10.3055 39.1768 10.1731L41.3819 7.96799C41.468 7.88165 41.5621 7.90239 41.6107 7.92247C41.6591 7.94246 41.7403 7.99427 41.7403 8.11647V20.1982C41.7403 20.314 41.6462 20.4081 41.5304 20.4081H29.4487C29.3266 20.4081 29.2747 20.3269 29.2547 20.2785C29.2346 20.2301 29.2138 20.136 29.3002 20.0497L31.2095 18.1404C31.3893 17.9605 31.4433 17.6902 31.3465 17.455C29.7266 13.5232 25.9788 10.9573 21.7521 10.8588V6.92868C21.7521 6.58074 21.4702 6.2988 21.1222 6.2988C20.7743 6.2988 20.4924 6.58074 20.4924 6.92868V13.5514C20.4924 13.6734 20.4111 13.7253 20.3628 13.7454C20.3143 13.7654 20.2202 13.7864 20.1339 13.6999L18.1999 11.7659C18.021 11.5872 17.7529 11.5324 17.5183 11.6275C16.1679 12.1738 14.9613 12.9788 13.9318 14.02C13.6872 14.2674 13.6895 14.6662 13.937 14.9108C14.0598 15.0321 14.2198 15.0927 14.3797 15.0927C14.5422 15.0927 14.7045 15.0303 14.8277 14.9056C15.6382 14.0856 16.5729 13.432 17.611 12.9585L19.2432 14.5907C19.6649 15.0124 20.2934 15.1376 20.8449 14.9093C21.396 14.681 21.7522 14.148 21.7522 13.5514V12.1184C25.3282 12.2129 28.5113 14.3114 30.0149 17.5535L28.4094 19.1589C27.9877 19.5807 27.8625 20.2094 28.0909 20.7606C28.3191 21.3118 28.852 21.6679 29.4487 21.6679H41.5304C42.3407 21.6679 43.0001 21.0085 43.0001 20.1982V8.11647C43.0001 7.51985 42.644 6.9868 42.0928 6.75862Z" fill="#2D6AFF"/>
<path d="M37.2793 33.83L36.0646 32.8146C35.7975 32.5915 35.4004 32.627 35.1774 32.8938C34.9542 33.1608 34.9898 33.558 35.2566 33.781L36.4713 34.7964C36.5315 34.8469 36.5444 34.9109 36.5467 34.9446C36.5489 34.9775 36.5451 35.041 36.494 35.0972C32.6674 39.3136 27.1525 41.7676 21.487 41.7401C17.5455 41.7401 13.7322 40.6099 10.4589 38.4713C10.1677 38.281 9.77726 38.3629 9.58703 38.654C9.39672 38.9453 9.47861 39.3356 9.76978 39.5259C13.2488 41.7989 17.3 43 21.4849 43C27.4805 43.0262 33.3462 40.4432 37.4261 35.9449C37.6972 35.6469 37.8311 35.2612 37.8037 34.8587C37.7764 34.4608 37.5853 34.0858 37.2793 33.83Z" fill="#2D6AFF"/>
</g>
<defs>
<clipPath id="clip0_216_405">
<rect width="43" height="43" fill="white"/>
</clipPath>
</defs>
</svg>
