<svg width="42" height="42" viewBox="0 0 42 42" fill="none" xmlns="http://www.w3.org/2000/svg">
<g clip-path="url(#clip0_216_392)">
<path d="M40.3735 28.9799C40.3858 28.9548 40.3967 28.9292 40.4054 28.903C42.8938 23.1597 42.4492 16.1187 39.2172 10.7371C40.9426 8.67445 38.7014 5.72062 36.2505 6.86351C35.8198 6.42338 35.3676 6.00154 34.899 5.60269C35.8188 3.10221 32.749 1.05098 30.8371 2.9192C25.2801 0.113181 18.3685 0.148717 12.8422 3.01415C10.8764 0.930834 7.5748 3.16459 8.76505 5.77848C8.08338 6.37455 7.43816 7.01846 6.84324 7.69939C6.32957 8.28733 7.26015 9.09316 7.77029 8.50932C8.32376 7.87592 8.92344 7.27673 9.55685 6.72145C10.7817 7.60493 12.5578 7.15486 13.2298 5.8063C15.4473 6.44463 17.5651 7.36077 19.5384 8.53657C19.3732 9.13231 19.4407 9.79764 19.7241 10.3476C18.1 11.7506 16.6373 13.3376 15.3672 15.0769C14.1947 14.7226 12.9023 15.3156 12.3924 16.426C9.80666 16.4399 7.21288 16.718 4.66628 17.2563C4.44141 16.8373 4.10049 16.49 3.6872 16.2575C4.16566 14.3916 4.92348 12.6167 5.94426 10.9756C6.35099 10.3215 5.32431 9.64155 4.89894 10.3253C3.81366 12.0701 3.00758 13.957 2.49777 15.9404C-0.450965 15.9905 -0.946005 20.0698 1.86116 20.8545C1.8198 26.6603 4.32996 32.3048 8.68273 36.1499C7.77472 38.6027 10.7226 40.6258 12.6679 38.8958C18.3453 41.9147 25.5205 41.9151 31.1982 38.8968C33.1768 40.8537 36.3458 38.6675 35.2313 36.1093C37.4746 34.1157 39.2174 31.6771 40.3735 28.9799ZM39.5979 27.6032C37.8941 25.9105 36.0295 24.3749 34.0387 23.0269C34.3215 22.1413 34.0758 21.1449 33.4155 20.4911C35.0896 17.7078 36.4037 14.7233 37.3288 11.6055C37.6371 11.6066 37.9334 11.5497 38.2065 11.4468C41.041 16.2341 41.5595 22.4065 39.5979 27.6032ZM11.2738 34.5614C10.7558 29.4875 11.6648 24.4255 13.9145 19.8511C15.3122 20.2872 16.8228 19.3681 17.0942 17.9335C21.3384 18.4567 25.426 19.7027 29.2621 21.6432C29.0776 22.3603 29.2303 23.1511 29.6698 23.7476C25.3458 29.2257 19.6382 33.3477 13.1058 35.7102C12.71 35.0835 12.0444 34.645 11.2738 34.5614ZM30.4145 22.2669C30.4145 21.5694 30.9778 21.002 31.6702 21.002C33.3361 21.0714 33.3356 23.4628 31.6702 23.5319C30.9778 23.5319 30.4145 22.9645 30.4145 22.2669ZM38.59 9.10966C38.59 9.80716 38.0266 10.3746 37.3342 10.3746C35.6683 10.3052 35.6687 7.91383 37.3342 7.84473C38.0266 7.84473 38.59 8.41216 38.59 9.10966ZM35.3099 7.66262C34.4592 8.85795 34.854 10.5859 36.1366 11.2964C35.2405 14.3037 33.9701 17.1825 32.3539 19.8677C32.016 19.7706 31.6409 19.7464 31.2935 19.7996C29.6042 16.1923 27.1462 12.9431 24.1434 10.3478C24.4272 9.79748 24.4948 9.13329 24.3293 8.53674C26.23 7.40435 28.2659 6.51193 30.3948 5.87754C31.1024 7.24366 33.0006 7.62938 34.179 6.60672C34.5696 6.94271 34.9477 7.29569 35.3099 7.66262ZM20.6781 9.20494C20.6781 8.50744 21.2414 7.94001 21.9338 7.94001C23.5997 8.00936 23.5993 10.4007 21.9338 10.4698C21.2414 10.4698 20.6781 9.90236 20.6781 9.20494ZM32.5837 3.42901C33.2762 3.42901 33.8395 3.99644 33.8395 4.69394C33.7704 6.372 31.3968 6.37159 31.3279 4.69394C31.3279 3.99644 31.8912 3.42901 32.5837 3.42901ZM11.0045 5.95879C10.312 5.95879 9.74872 5.39136 9.74872 4.69386C9.81783 3.01571 12.1914 3.01629 12.2603 4.69386C12.2603 5.39136 11.6969 5.95879 11.0045 5.95879ZM13.4889 4.59948C13.4825 4.42861 13.4591 4.26226 13.42 4.10173C18.5725 1.4372 25.0094 1.39075 30.2017 3.97781C30.135 4.20095 30.0985 4.4369 30.0972 4.68122C27.8579 5.34368 25.7166 6.27943 23.7176 7.46836C22.7567 6.47443 21.1113 6.4741 20.1501 7.46828C18.067 6.2292 15.8309 5.26604 13.4889 4.59948ZM20.5391 11.2702C21.3714 11.8383 22.496 11.8384 23.3284 11.2703C26.1953 13.7456 28.5437 16.8441 30.1614 20.2848C30.0518 20.3691 29.9493 20.4624 29.8551 20.5634C25.8108 18.5121 21.495 17.2079 17.0121 16.6831C16.891 16.3168 16.6878 15.9879 16.424 15.7186C17.6272 14.0842 19.0079 12.5914 20.5391 11.2702ZM14.6516 16.2021C15.344 16.2021 15.9073 16.7696 15.9073 17.4671C15.8382 19.1452 13.4646 19.1447 13.3958 17.4671C13.3959 16.7696 13.9592 16.2021 14.6516 16.2021ZM1.21955 18.4359C1.21955 17.7384 1.78287 17.171 2.47528 17.171C4.14112 17.2403 4.14063 19.6316 2.47528 19.7007C1.78295 19.7008 1.21955 19.1334 1.21955 18.4359ZM3.09211 20.854C3.09211 20.854 4.96173 20.4463 4.96173 18.4521C4.96173 18.4521 9.75915 17.6853 12.1729 17.6584C12.2182 18.2547 12.4728 18.7928 12.8634 19.1989C10.4647 24.0246 9.49718 29.3749 10.0541 34.7363C9.8143 34.8362 9.59353 34.9729 9.39837 35.139C5.38266 31.5416 3.09211 25.5141 3.09211 20.854ZM11.0045 38.3072C10.312 38.3072 9.74872 37.7398 9.74872 37.0423C9.74872 36.3448 10.312 35.7774 11.0045 35.7774C11.6876 35.7774 12.2603 36.3691 12.2603 37.0423C12.2603 37.7398 11.6969 38.3072 11.0045 38.3072ZM21.9338 39.9385C18.9464 39.9385 15.9923 39.223 13.352 37.8647C13.4591 37.5575 13.5064 37.2076 13.4856 36.8816C20.243 34.4459 26.1479 30.1892 30.6212 24.5292C30.9887 24.7015 31.3965 24.7806 31.8016 24.7594C32.0751 25.7743 32.2912 26.8098 32.4443 27.8452C32.5616 28.6378 33.7797 28.4607 33.6621 27.6651C33.4996 26.5657 33.2694 25.4662 32.9771 24.3892C33.1243 24.2977 33.261 24.1909 33.3856 24.0715C35.4396 25.4659 37.3546 27.0667 39.0894 28.8383C38.0135 31.2167 36.4475 33.3703 34.458 35.1498C34.2612 35.0021 34.0419 34.8832 33.8064 34.7987C33.9274 33.6544 33.9801 32.4991 33.9623 31.3563C33.9499 30.5522 32.7189 30.5711 32.7315 31.3754C32.7485 32.4738 32.6977 33.5844 32.5808 34.6844C31.1291 34.9152 30.1796 36.4206 30.5796 37.8313C27.9227 39.2112 24.9457 39.9385 21.9338 39.9385ZM32.9713 38.4143C32.2789 38.4143 31.7155 37.8468 31.7155 37.1493C31.7846 35.4712 34.1582 35.4718 34.2271 37.1493C34.2271 37.8468 33.6638 38.4143 32.9713 38.4143Z" fill="#2D6AFF"/>
</g>
<defs>
<clipPath id="clip0_216_392">
<rect width="42" height="42" fill="white"/>
</clipPath>
</defs>
</svg>
