<svg width="52" height="52" viewBox="0 0 52 52" fill="none" xmlns="http://www.w3.org/2000/svg">
<path d="M26.0365 50.2667H25.9633C25.8738 50.2667 25.7865 50.2565 25.7029 50.2372C25.6703 50.2298 25.6366 50.2206 25.6017 50.2092C21.9938 49.1176 18.6074 47.1986 15.5366 44.5053C12.6642 41.986 10.187 38.852 8.3729 35.442C4.86671 28.8516 3.28568 20.6734 4.03494 13.0042C4.08856 12.4551 4.52293 12.0205 5.07205 11.9666C5.09944 11.9638 7.96949 11.6649 11.8757 10.2912C15.4555 9.03232 20.6701 6.58439 25.1828 2.07183C25.6341 1.62059 26.3657 1.62059 26.8171 2.07183C31.3297 6.58451 36.5443 9.03232 40.1241 10.2912C44.0305 11.6649 46.9004 11.9638 46.9289 11.9667C47.477 12.0217 47.9114 12.456 47.9649 13.0043C48.7143 20.6735 47.1332 28.8517 43.6271 35.4421C41.8129 38.8521 39.3358 41.9861 36.4633 44.5055C33.3925 47.1988 30.0061 49.1177 26.3982 50.2093C26.3633 50.2208 26.3295 50.23 26.297 50.2374C26.2133 50.2565 26.1262 50.2667 26.0365 50.2667ZM6.25835 14.1343C5.7558 21.0957 7.25259 28.4155 10.4133 34.3566C13.8752 40.8639 19.6851 45.9105 26 47.9131C32.3149 45.9105 38.1248 40.8639 41.5868 34.3567C44.7475 28.4156 46.2443 21.0959 45.7417 14.1344C44.5231 13.9375 42.2414 13.4798 39.429 12.4967C35.816 11.2337 30.642 8.83565 26 4.49619C21.358 8.83576 16.184 11.2337 12.5709 12.4967C9.75853 13.4797 7.47688 13.9374 6.25835 14.1343Z" fill="#2D6AFF"/>
<path d="M23.0799 32.2814C22.7842 32.2814 22.4884 32.1685 22.2628 31.9429L17.8511 27.5312C17.3999 27.08 17.3999 26.3483 17.8511 25.8969C18.3024 25.4457 19.0341 25.4457 19.4854 25.8969L23.0799 29.4914L32.5144 20.0569C32.9658 19.6057 33.6973 19.6057 34.1487 20.0569C34.6 20.5081 34.6 21.2398 34.1487 21.6912L23.8971 31.9428C23.6714 32.1686 23.3756 32.2814 23.0799 32.2814Z" fill="#2D6AFF"/>
</svg>
