<svg width="40" height="40" viewBox="0 0 40 40" fill="none" xmlns="http://www.w3.org/2000/svg">
<g clip-path="url(#clip0_216_347)">
<path d="M12.5254 30.2031C12.3115 29.9608 11.9418 29.9377 11.6993 30.1516C11.4571 30.3655 11.4341 30.7353 11.6479 30.9776L13.5378 33.1185V39.2679C13.5378 39.5911 13.7997 39.8531 14.123 39.8531C14.4462 39.8531 14.7082 39.5911 14.7082 39.2679V32.8971C14.7082 32.7545 14.656 32.6168 14.5617 32.5099L12.5254 30.2031Z" fill="#2D6AFF"/>
<path d="M8.39448 25.5238C6.76269 23.6752 6.40027 21.0456 7.47114 18.8247L8.26176 17.1849C8.40212 16.8938 8.27986 16.544 7.98875 16.4037C7.6978 16.2633 7.34787 16.3855 7.2075 16.6767L6.41689 18.3164C5.14097 20.9627 5.57283 24.0959 7.51702 26.2984L9.96213 29.0684C10.0778 29.1994 10.239 29.2663 10.4011 29.2663C10.5387 29.2663 10.6768 29.218 10.7881 29.1199C11.0303 28.906 11.0534 28.5363 10.8396 28.2939L8.39448 25.5238Z" fill="#2D6AFF"/>
<path d="M27.9639 9.37833C27.211 9.37833 26.5271 9.67732 26.023 10.162C25.5579 9.25654 24.6145 8.63547 23.5285 8.63547C22.76 8.63547 22.0636 8.94709 21.5568 9.44972C21.082 8.57539 20.1558 7.98038 19.0928 7.98038C18.3273 7.98038 17.6328 8.28912 17.1264 8.78832C16.6527 7.90938 15.7237 7.31055 14.6572 7.31055C13.1116 7.31055 11.8542 8.56798 11.8542 10.1135V12.5664C10.5133 12.5112 9.19036 13.1369 8.39124 14.3203C8.21046 14.5882 8.28092 14.952 8.54877 15.1328C8.81663 15.3135 9.1803 15.2431 9.36123 14.9753C10.1729 13.7731 11.7508 13.3848 13.0308 14.0722L20.0537 17.8423C20.4097 18.0334 20.6357 18.4032 20.6435 18.8073C20.6516 19.2291 20.4258 19.6152 20.0541 19.8149L19.1329 20.3102C17.8245 21.0136 16.2498 21.0378 14.9204 20.3751L12.7914 19.3136C12.502 19.1694 12.1508 19.2871 12.0065 19.5763C11.8623 19.8655 11.9799 20.2168 12.2691 20.361L14.3981 21.4225C15.2056 21.8251 16.0848 22.0257 16.9637 22.0257C17.9016 22.0257 18.839 21.797 19.687 21.3412L19.7573 21.3034L20.9244 22.7084C21.4579 23.3505 21.7516 24.1638 21.7516 24.9987V28.3684C21.7516 28.6916 22.0136 28.9536 22.3368 28.9536C22.6601 28.9536 22.922 28.6916 22.922 28.3684V24.9987C22.922 23.8913 22.5323 22.8123 21.8247 21.9606L20.8011 20.7284C21.4451 20.2968 21.8287 19.5718 21.8136 18.7852C21.8073 18.4559 21.7291 18.1383 21.5925 17.8499C22.0959 18.332 22.7779 18.629 23.5284 18.629C24.307 18.629 25.0115 18.3091 25.5198 17.7947C26.0006 18.6492 26.9157 19.228 27.9639 19.228C28.4102 19.228 28.832 19.1226 29.2069 18.9364V20.3316C29.2069 20.6548 29.4688 20.9168 29.792 20.9168C30.1153 20.9168 30.3772 20.6548 30.3772 20.3316V17.8484C30.6244 17.4309 30.7669 16.9444 30.7669 16.425V12.1815C30.7669 10.6358 29.5094 9.37833 27.9639 9.37833ZM13.0246 12.7934V10.1135C13.0246 9.21331 13.757 8.4809 14.6572 8.4809C15.5574 8.4809 16.2898 9.21331 16.2898 10.1135V14.4932L13.5845 13.0409C13.4017 12.9428 13.2144 12.861 13.0246 12.7934ZM17.4602 15.1216V10.7835C17.4602 9.88322 18.1926 9.15081 19.0928 9.15081C19.993 9.15081 20.7255 9.88322 20.7255 10.7835V15.8258C20.7255 16.1493 20.6286 16.4627 20.4526 16.728L17.4602 15.1216ZM23.5284 17.4585C22.6281 17.4585 21.8957 16.7261 21.8957 15.8258V11.4385C21.8957 10.5382 22.6281 9.8059 23.5284 9.8059C24.4285 9.8059 25.1609 10.5383 25.1609 11.4385V15.8258C25.1609 16.7261 24.4285 17.4585 23.5284 17.4585ZM27.9639 18.0574C27.0637 18.0574 26.3313 17.325 26.3313 16.4248V12.1813C26.3313 11.2811 27.0637 10.5488 27.9639 10.5488C28.8642 10.5488 29.5966 11.2812 29.5966 12.1813V16.4248C29.5966 17.325 28.8642 18.0574 27.9639 18.0574Z" fill="#2D6AFF"/>
<path d="M29.792 22.24C29.4687 22.24 29.2068 22.502 29.2068 22.8252V28.1285C29.2068 29.0064 28.9723 29.8709 28.5287 30.6285L27.6418 32.1435C27.5123 32.3646 27.4438 32.6169 27.4438 32.8733V39.268C27.4438 39.5912 27.7058 39.8532 28.029 39.8532C28.3523 39.8532 28.6142 39.5912 28.6142 39.268V32.8733C28.6142 32.8247 28.6272 32.7769 28.6517 32.7349L29.5386 31.22C30.0872 30.2831 30.3771 29.2141 30.3771 28.1286V22.8252C30.3771 22.502 30.1152 22.24 29.792 22.24Z" fill="#2D6AFF"/>
<path d="M26.5576 5.75788C26.6556 5.82092 26.7653 5.85104 26.8738 5.85104C27.0661 5.85104 27.2546 5.75624 27.3664 5.58248L30.284 1.04868C30.4589 0.776924 30.3803 0.414816 30.1086 0.239887C29.8369 0.0650359 29.4747 0.14345 29.2999 0.415362L26.3822 4.94916C26.2073 5.22092 26.2859 5.58295 26.5576 5.75788Z" fill="#2D6AFF"/>
<path d="M32.5668 9.68097C32.6739 9.765 32.8012 9.80581 32.9276 9.80581C33.1012 9.80581 33.273 9.72888 33.3884 9.58173L39.8753 1.31208C40.0748 1.0578 40.0302 0.689915 39.776 0.490487C39.5218 0.291058 39.1539 0.335454 38.9545 0.589733L32.4676 8.85938C32.2681 9.11374 32.3125 9.48154 32.5668 9.68097Z" fill="#2D6AFF"/>
<path d="M39.1303 15.5226L36.5274 16.9701C36.245 17.1272 36.1434 17.4835 36.3004 17.766C36.4074 17.9584 36.6068 18.0668 36.8124 18.0668C36.9086 18.0668 37.0062 18.043 37.0963 17.9929L39.6993 16.5454C39.9817 16.3884 40.0833 16.0321 39.9263 15.7496C39.7691 15.4672 39.4128 15.3655 39.1303 15.5226Z" fill="#2D6AFF"/>
<path d="M39.638 26.3245L37.1142 24.8015C36.8377 24.6346 36.4778 24.7234 36.3108 25.0002C36.1438 25.2768 36.2328 25.6365 36.5095 25.8035L39.0334 27.3265C39.1279 27.3835 39.2322 27.4108 39.3352 27.4108C39.5334 27.4108 39.7268 27.31 39.8368 27.1279C40.0037 26.8512 39.9148 26.4915 39.638 26.3245Z" fill="#2D6AFF"/>
<path d="M32.6443 30.1875C32.4345 29.9418 32.0652 29.9127 31.8193 30.1227C31.5736 30.3327 31.5446 30.702 31.7546 30.9477L32.6926 32.0456C32.8083 32.181 32.9726 32.2506 33.1378 32.2506C33.2723 32.2506 33.4074 32.2045 33.5177 32.1103C33.7634 31.9004 33.7924 31.531 33.5824 31.2853L32.6443 30.1875Z" fill="#2D6AFF"/>
<path d="M35.2518 33.2395C35.042 32.9938 34.6726 32.9647 34.4267 33.1747C34.181 33.3847 34.152 33.754 34.362 33.9997L37.6287 37.823C37.7444 37.9584 37.9086 38.028 38.0739 38.028C38.2083 38.028 38.3434 37.9819 38.4537 37.8877C38.6994 37.6778 38.7284 37.3084 38.5185 37.0627L35.2518 33.2395Z" fill="#2D6AFF"/>
<path d="M22.0521 4.19372C22.1133 4.21409 22.1756 4.22376 22.2368 4.22376C22.482 4.22376 22.7104 4.06842 22.792 3.82303L23.4379 1.87978C23.5399 1.57306 23.374 1.24185 23.0672 1.13988C22.7604 1.03798 22.4292 1.20393 22.3273 1.51057L21.6814 3.45382C21.5795 3.76054 21.7454 4.09175 22.0521 4.19372Z" fill="#2D6AFF"/>
<path d="M12.6338 5.58241C12.7456 5.75624 12.934 5.85096 13.1263 5.85096C13.2348 5.85096 13.3445 5.82085 13.4425 5.7578C13.7142 5.58287 13.7928 5.22084 13.6179 4.94901L10.7003 0.415289C10.5255 0.143532 10.1634 0.0650405 9.89162 0.239813C9.61986 0.414743 9.54129 0.776772 9.71622 1.04861L12.6338 5.58241Z" fill="#2D6AFF"/>
<path d="M6.77031 9.58485C6.88578 9.73005 7.05634 9.80573 7.22854 9.80573C7.35627 9.80573 7.48485 9.76407 7.59252 9.6784C7.8454 9.47718 7.8873 9.10898 7.68599 8.85611L1.04314 0.508434C0.841914 0.255559 0.473799 0.213661 0.220846 0.414884C-0.0321068 0.616107 -0.0739275 0.9843 0.127374 1.23717L6.77031 9.58485Z" fill="#2D6AFF"/>
<path d="M3.07241 17.9997C3.15917 18.0452 3.25218 18.0668 3.34378 18.0668C3.55436 18.0668 3.75793 17.9528 3.86248 17.7534C4.01259 17.4672 3.90235 17.1134 3.61616 16.9633L0.857161 15.5158C0.571049 15.3657 0.217289 15.476 0.0670938 15.7621C-0.0830238 16.0483 0.0272237 16.4021 0.313414 16.5522L3.07241 17.9997Z" fill="#2D6AFF"/>
<path d="M3.84556 25.0002C3.67851 24.7235 3.3189 24.6346 3.04215 24.8015L0.518315 26.3245C0.241565 26.4915 0.152618 26.8512 0.319589 27.1279C0.429524 27.31 0.622945 27.4108 0.821203 27.4108C0.924116 27.4108 1.02843 27.3836 1.123 27.3265L3.64683 25.8035C3.92358 25.6365 4.01245 25.2768 3.84556 25.0002Z" fill="#2D6AFF"/>
<path d="M8.33696 30.1227C8.09126 29.9128 7.72182 29.9418 7.51194 30.1875L6.57386 31.2854C6.36398 31.531 6.39292 31.9004 6.63862 32.1104C6.74887 32.2045 6.884 32.2507 7.01844 32.2507C7.18369 32.2507 7.34793 32.1811 7.46364 32.0456L8.40172 30.9477C8.61168 30.702 8.58266 30.3327 8.33696 30.1227Z" fill="#2D6AFF"/>
<path d="M5.72905 33.1747C5.48328 32.9647 5.11384 32.9939 4.90403 33.2395L1.63734 37.0627C1.42745 37.3084 1.4564 37.6778 1.7021 37.8877C1.81234 37.982 1.94748 38.028 2.08192 38.028C2.24717 38.028 2.41141 37.9584 2.52712 37.823L5.79381 33.9998C6.00378 33.754 5.97483 33.3847 5.72905 33.1747Z" fill="#2D6AFF"/>
<path d="M17.2077 3.82304C17.2894 4.0685 17.5178 4.22377 17.763 4.22377C17.8241 4.22377 17.8864 4.2141 17.9476 4.19373C18.2544 4.09175 18.4203 3.76054 18.3183 3.45383L17.6724 1.51058C17.5703 1.20386 17.2391 1.03799 16.9325 1.13988C16.6258 1.24186 16.4598 1.57307 16.5618 1.87978L17.2077 3.82304Z" fill="#2D6AFF"/>
</g>
<defs>
<clipPath id="clip0_216_347">
<rect width="40" height="40" fill="white"/>
</clipPath>
</defs>
</svg>
