<svg width="72" height="72" fill="none" xmlns="http://www.w3.org/2000/svg"><path d="M36.222 16.386c.33 0 .65-.034.96-.1v3.77c-.64-.039-1.28-.039-1.918 0v-3.77c.31.066.63.1.958.1zM52.26 35.109c.038.637.038 1.276 0 1.915h4.153a4.614 4.614 0 010-1.915H52.26zm-35.464 0a4.604 4.604 0 010 1.915h3.38a15.891 15.891 0 010-1.915h-3.38zm30.792-10.392c.229.229.448.461.657.699l3.923-3.917a10.908 10.908 0 01-1.364-1.346l-3.915 3.909c.24.21.472.428.7.655zM37.181 55.848V52.09a16.007 16.007 0 01-1.917 0v3.758a4.708 4.708 0 011.917 0zm13.743-3.744a10.496 10.496 0 011.356-1.354l-4.037-4.03a14.807 14.807 0 01-1.355 1.353l4.035 4.031zm-26.728-5.386L20.27 50.64a10.49 10.49 0 011.357 1.355l3.925-3.923a15.72 15.72 0 01-1.356-1.354zM21.038 20.81h-.002c-.245.245-.5.475-.761.69l3.92 3.915a15.666 15.666 0 011.357-1.354l-3.912-3.906c-.189.224-.39.443-.603.655zm15.184-6.064a3.036 3.036 0 003.034-3.033c0-1.673-1.36-3.03-3.034-3.03a3.038 3.038 0 00-3.037 3.03 3.04 3.04 0 003.037 3.033zm0 26.102a9.329 9.329 0 00-8.921 6.548 14.33 14.33 0 008.92 3.083c3.278 0 6.385-1.083 8.919-3.081a9.325 9.325 0 00-8.918-6.55zm10.205-14.97a14.409 14.409 0 00-10.206-4.213 14.406 14.406 0 00-10.208 4.212 14.309 14.309 0 00-4.225 10.189c0 3.848 1.486 7.433 4.187 10.149a10.952 10.952 0 016.697-6.421 6.487 6.487 0 01-2.951-5.434c0-3.579 2.917-6.49 6.501-6.49 3.585 0 6.498 2.911 6.498 6.49a6.486 6.486 0 01-2.95 5.434 10.949 10.949 0 016.696 6.422c5.588-5.62 5.574-14.735-.039-20.339zm15.476-13.79a2.885 2.885 0 00-2.884-2.878 2.885 2.885 0 00-2.883 2.879 2.885 2.885 0 002.883 2.879 2.885 2.885 0 002.884-2.88zm-5.787 3.464a4.505 4.505 0 01-1.622-3.463A4.527 4.527 0 0159.02 7.57a4.527 4.527 0 014.526 4.519 4.51 4.51 0 01-1.623 3.464 7.437 7.437 0 013.876 3.758c3.226-3.573 3.12-9.108-.325-12.55a9.109 9.109 0 00-6.452-2.663 9.109 9.109 0 00-6.452 2.663 9.048 9.048 0 00-2.674 6.444c0 2.278.831 4.428 2.35 6.106a7.424 7.424 0 013.87-3.76zm2.903 1.055a5.792 5.792 0 00-5.48 3.884 9.161 9.161 0 0010.966 0 5.805 5.805 0 00-5.486-3.884zm-1.065 19.459a3.035 3.035 0 006.071 0c0-1.673-1.36-3.03-3.033-3.03a3.038 3.038 0 00-3.038 3.03zm4.01 21.76a2.85 2.85 0 00-2.847-2.843 2.85 2.85 0 00-2.848 2.843 2.848 2.848 0 005.695 0zm-2.847 4.483a5.726 5.726 0 00-5.418 3.833 9.056 9.056 0 0010.836 0 5.728 5.728 0 00-5.418-3.833zm6.385-9.753a8.976 8.976 0 00-6.385-2.642 8.97 8.97 0 00-6.384 2.642 8.939 8.939 0 00-2.646 6.373c0 2.249.819 4.373 2.317 6.032a7.357 7.357 0 013.823-3.707 4.472 4.472 0 01-1.6-3.428 4.491 4.491 0 014.49-4.483 4.491 4.491 0 014.49 4.483 4.472 4.472 0 01-1.6 3.428 7.347 7.347 0 013.82 3.708 8.94 8.94 0 002.32-6.033c0-2.408-.94-4.671-2.645-6.373zm-29.28 4.834a3.038 3.038 0 00-3.037 3.03 3.036 3.036 0 006.072 0 3.035 3.035 0 00-3.035-3.03zm-22.898 4.959a5.834 5.834 0 00-5.518 3.908 9.124 9.124 0 005.52 1.84 9.108 9.108 0 005.517-1.84 5.837 5.837 0 00-5.519-3.909zm2.902-4.538c0-1.6-1.301-2.902-2.902-2.902a2.905 2.905 0 00-2.902 2.902 2.902 2.902 0 005.804 0zm-2.9-8.043a9.166 9.166 0 00-6.495 2.68c-3.47 3.465-3.576 9.033-.318 12.626a7.47 7.47 0 013.902-3.781A4.524 4.524 0 018.78 57.81a4.549 4.549 0 014.544-4.542 4.549 4.549 0 014.544 4.542 4.52 4.52 0 01-1.635 3.482 7.473 7.473 0 013.903 3.784 9.096 9.096 0 002.37-6.148 9.1 9.1 0 00-2.689-6.482 9.16 9.16 0 00-6.492-2.68zM9.18 36.066a3.038 3.038 0 003.035 3.033 3.04 3.04 0 003.037-3.033 3.036 3.036 0 00-3.037-3.03 3.035 3.035 0 00-3.035 3.03zm4.241-19.459a5.806 5.806 0 00-5.485 3.883 9.165 9.165 0 0010.966.003 5.792 5.792 0 00-5.48-3.886zm2.883-4.518a2.885 2.885 0 00-2.883-2.879 2.885 2.885 0 00-2.883 2.879 2.885 2.885 0 002.883 2.879 2.885 2.885 0 002.883-2.88zm-5.785 3.464a4.509 4.509 0 01-1.623-3.464 4.527 4.527 0 014.525-4.519 4.527 4.527 0 014.525 4.519c0 1.39-.63 2.633-1.621 3.463a7.422 7.422 0 013.872 3.762c3.23-3.574 3.124-9.111-.322-12.553a9.105 9.105 0 00-6.454-2.663A9.108 9.108 0 006.968 6.76c-3.445 3.442-3.552 8.977-.324 12.55a7.43 7.43 0 013.875-3.758zM41.078 34.36a4.858 4.858 0 00-4.856-4.85c-2.677 0-4.859 2.175-4.859 4.85s2.18 4.849 4.86 4.849a4.856 4.856 0 004.855-4.849z" fill="#fff"/></svg>