<svg width="72" height="72" fill="none" xmlns="http://www.w3.org/2000/svg"><path fill-rule="evenodd" clip-rule="evenodd" d="M54.321 57.522a12.917 12.917 0 01-8.42 3.106c-7.162 0-12.967-5.805-12.967-12.968 0-7.162 5.805-12.966 12.967-12.966 7.162 0 12.967 5.804 12.967 12.966 0 2.769-.867 5.334-2.345 7.44l4.053 3.957.162-.166a1.185 1.185 0 011.667-.026l7.121 6.911a1.18 1.18 0 01.022 1.667l-2.57 2.648a1.184 1.184 0 01-1.667.026l-7.118-6.911a1.178 1.178 0 01-.026-1.667l.13-.135-3.976-3.882zm-8.42-.527c5.14 0 9.334-4.194 9.334-9.334 0-5.141-4.193-9.335-9.334-9.335s-9.334 4.194-9.334 9.334c0 5.142 4.193 9.335 9.334 9.335zM37.34 12.17v6.13h6.372c.39 0 .706.315.706.705v13.5c-7.714.746-13.743 7.246-13.743 15.155 0 .788.06 1.562.175 2.318h-1.837V19.005c0-.39.316-.706.706-.706h5.362V2.682a1.13 1.13 0 012.259 0v.886h10.942a.173.173 0 01.134.284l-3.519 4.286a.174.174 0 00.01.232l3.451 3.505a.174.174 0 01-.123.295H37.34zm-4.5 43.324H2.117v-3.258h29.258a15.15 15.15 0 001.466 3.258zm18.24-22.156v-3.556a.705.705 0 01.706-.706H65.78a.706.706 0 01.706.706v20.196h-5.533c.115-.756.175-1.53.175-2.318 0-6.591-4.188-12.203-10.048-14.322zm9.348 18.898h9.455v3.258H58.96a15.15 15.15 0 001.467-3.258zm-53.48-2.258V35.399c0-.39.315-.706.705-.706h13.993c.39 0 .706.316.706.706v14.579H6.946z" fill="#fff"/></svg>