<svg width="72" height="72" fill="none" xmlns="http://www.w3.org/2000/svg"><path fill-rule="evenodd" clip-rule="evenodd" d="M52.47 66.912h16.471A2.059 2.059 0 0071 64.853v-35a2.059 2.059 0 00-2.059-2.059h-16.47v39.118zm4.118-27.794a5.15 5.15 0 005.147 5.147 5.15 5.15 0 005.147-5.147 5.15 5.15 0 00-5.147-5.147 5.15 5.15 0 00-5.147 5.147zm-1.03 13.372c0 .574.47 1.04 1.033 1.04H66.88a1.03 1.03 0 001.032-1.04v-2.04a1.04 1.04 0 00-1.032-1.038H56.59a1.03 1.03 0 00-1.031 1.039v2.04zm2.06 7.206c0 .574.466 1.04 1.026 1.04h6.183c.566 0 1.026-.457 1.026-1.04v-2.04c0-.573-.466-1.038-1.026-1.038h-6.183c-.567 0-1.026.456-1.026 1.039v2.04zm-31.912-34.99a2.059 2.059 0 00-2.059 2.059V67.94a2.06 2.06 0 002.059 2.059h20.588a2.059 2.059 0 002.059-2.059V26.765a2.059 2.059 0 00-2.059-2.06H25.706zm4.117 12.353A6.18 6.18 0 0036 43.235a6.18 6.18 0 006.176-6.176A6.18 6.18 0 0036 30.882a6.18 6.18 0 00-6.177 6.177zM28.794 52.49c0 .574.463 1.04 1.037 1.04h12.338c.573 0 1.037-.457 1.037-1.04v-2.04c0-.573-.463-1.038-1.037-1.038H29.831c-.573 0-1.037.456-1.037 1.039v2.04zm3.088 7.206c0 .574.467 1.04 1.027 1.04h6.182c.567 0 1.027-.457 1.027-1.04v-2.04c0-.573-.467-1.038-1.027-1.038H32.91c-.567 0-1.027.456-1.027 1.039v2.04zM3.06 27.794A2.059 2.059 0 001 29.853v35a2.06 2.06 0 002.059 2.059h16.47V27.794H3.06zm2.059 11.324a5.15 5.15 0 005.147 5.147 5.15 5.15 0 005.147-5.147 5.15 5.15 0 00-5.147-5.147 5.15 5.15 0 00-5.147 5.147zM4.088 52.49c0 .574.47 1.04 1.032 1.04h10.29a1.03 1.03 0 001.031-1.04v-2.04a1.04 1.04 0 00-1.032-1.038H5.12a1.03 1.03 0 00-1.032 1.039v2.04zm2.059 7.206c0 .574.466 1.04 1.026 1.04h6.183c.567 0 1.026-.457 1.026-1.04v-2.04c0-.573-.466-1.038-1.026-1.038H7.173c-.566 0-1.026.456-1.026 1.039v2.04zM17.471 5.137c0 .574.468 1.04 1.03 1.04h34.998c.57 0 1.03-.457 1.03-1.04v-2.04A1.04 1.04 0 0053.5 2.06h-35a1.03 1.03 0 00-1.03 1.039v2.04zm9.264 8.236c0 .574.458 1.039 1.023 1.039h16.484c.565 0 1.023-.457 1.023-1.04v-2.039c0-.574-.458-1.039-1.023-1.039H27.758c-.565 0-1.023.457-1.023 1.04v2.039z" fill="#fff"/></svg>