<svg width="72" height="72" fill="none" xmlns="http://www.w3.org/2000/svg"><path d="M30.43 31.928c0 .968.76 1.728 1.728 1.728s1.729-.76 1.729-1.728c0-.969-.76-1.729-1.729-1.729-.968 0-1.728.76-1.728 1.729z" fill="#fff"/><path d="M42.53 50.941c10.578 0 19.497-7.398 21.848-17.285h-6.603a5.178 5.178 0 01-10.06-1.729c0-.794.173-1.555.518-2.212l-3.491-3.491c-.657.345-1.418.518-2.213.518-.795 0-1.555-.173-2.212-.518l-3.492 3.491c.346.657.519 1.418.519 2.213a5.178 5.178 0 01-5.186 5.185 5.178 5.178 0 01-5.185-5.185c0-.795.172-1.556.518-2.213l-6.741-6.74a22.183 22.183 0 00-.691 5.496c0 12.376 10.094 22.47 22.47 22.47zM40.8 21.557c0 .968.761 1.728 1.73 1.728a1.71 1.71 0 001.728-1.728c0-.969-.76-1.729-1.729-1.729-.968 0-1.728.76-1.728 1.729z" fill="#fff"/><path d="M51.172 31.928c0 .968.76 1.728 1.728 1.728.969 0 1.729-.76 1.729-1.728 0-.969-.76-1.729-1.729-1.729-.968 0-1.728.76-1.728 1.729zM42.53 6c-9.127 0-17.009 5.497-20.5 13.344l7.916 7.917c.657-.346 1.417-.519 2.212-.519.795 0 1.556.173 2.213.519l3.491-3.492c-.345-.657-.518-1.417-.518-2.212a5.178 5.178 0 015.185-5.186 5.178 5.178 0 015.186 5.186c0 .795-.173 1.555-.519 2.212l3.492 3.492c.657-.346 1.417-.519 2.212-.519a5.17 5.17 0 014.875 3.457h7.156c.034-.553.07-1.14.07-1.728C65 16.094 54.905 6 42.528 6z" fill="#fff"/><path d="M20.059 14.643a5.178 5.178 0 00-10.06-1.729H6v3.457h3.999a5.17 5.17 0 004.874 3.457c.795 0 1.556-.173 2.213-.518l3.664 3.664a19.69 19.69 0 011.28-3.63l-2.49-2.489c.346-.657.519-1.418.519-2.212zM14.85 63.484l13.395-13.396a26.138 26.138 0 01-7.333-7.333L7.517 56.151a5.19 5.19 0 000 7.333 5.191 5.191 0 007.332 0z" fill="#fff"/></svg>