<svg width="72" height="72" fill="none" xmlns="http://www.w3.org/2000/svg"><path fill-rule="evenodd" clip-rule="evenodd" d="M11.291 47.896a.857.857 0 01.001.643.84.84 0 01-.445.459.823.823 0 01-.635.007.84.84 0 01-.456-.447 30.295 30.295 0 01-2.365-11.751c0-16.527 13.208-29.924 29.5-29.924s29.5 13.397 29.5 29.924a30.296 30.296 0 01-2.365 11.751.84.84 0 01-.456.447.823.823 0 01-.635-.008.84.84 0 01-.445-.458.858.858 0 010-.643 28.443 28.443 0 002.229-11.09c0-15.59-12.46-28.227-27.828-28.227-15.37 0-27.828 12.638-27.828 28.228a28.444 28.444 0 002.228 11.089zm45.726 5.296c0 .542.158 1.071.455 1.521.296.45.718.802 1.21 1.01a2.665 2.665 0 002.943-.594 2.75 2.75 0 00.739-1.401 2.775 2.775 0 00-.154-1.583 2.73 2.73 0 00-.994-1.229 2.672 2.672 0 00-3.408.34 2.742 2.742 0 00-.79 1.936zm-2.875.617a5.965 5.965 0 00-1.72-4.171 5.797 5.797 0 00-4.119-1.725 5.8 5.8 0 00-4.12 1.725 5.966 5.966 0 00-1.719 4.17c0 3.272 11.678 3.272 11.678 0zm-8.537-10.237c0 .541.158 1.07.454 1.521.297.45.718.801 1.211 1.009a2.665 2.665 0 002.942-.593c.378-.383.635-.87.74-1.402a2.775 2.775 0 00-.154-1.582 2.73 2.73 0 00-.994-1.229 2.672 2.672 0 00-3.408.34 2.758 2.758 0 00-.791 1.936zM31.317 53.809a5.965 5.965 0 00-1.72-4.171 5.797 5.797 0 00-4.119-1.725 5.8 5.8 0 00-4.12 1.725 5.966 5.966 0 00-1.719 4.17c0 3.272 11.678 3.272 11.678 0zM22.78 43.572c0 .541.157 1.07.454 1.521.296.45.718.801 1.211 1.009a2.665 2.665 0 002.942-.593 2.774 2.774 0 00.585-2.984 2.73 2.73 0 00-.994-1.229 2.672 2.672 0 00-3.408.34 2.757 2.757 0 00-.79 1.936zm-11.413 9.62c0 .542.158 1.071.454 1.521.297.45.718.802 1.212 1.01a2.665 2.665 0 002.942-.594 2.75 2.75 0 00.739-1.401 2.775 2.775 0 00-.154-1.583 2.73 2.73 0 00-.994-1.229 2.672 2.672 0 00-3.408.34 2.758 2.758 0 00-.791 1.936zm54.188 10.237c0 3.272-11.678 3.272-11.678 0a5.966 5.966 0 011.72-4.17 5.797 5.797 0 014.119-1.726c1.544 0 3.025.62 4.12 1.726a5.966 5.966 0 011.719 4.17zM34.192 53.192c0 .542.158 1.071.455 1.522.296.45.718.801 1.211 1.008a2.664 2.664 0 001.56.156 2.688 2.688 0 001.382-.749 2.75 2.75 0 00.739-1.402 2.775 2.775 0 00-.154-1.582 2.73 2.73 0 00-.994-1.229 2.672 2.672 0 00-3.409.34 2.758 2.758 0 00-.79 1.936zM42.73 63.43c0 3.272-11.678 3.272-11.678 0 0-1.57.615-3.077 1.71-4.188a5.797 5.797 0 014.129-1.734c1.548 0 3.033.624 4.128 1.735a5.966 5.966 0 011.71 4.188zm-22.825 0c0 3.272-11.678 3.272-11.678 0a5.966 5.966 0 011.72-4.17 5.798 5.798 0 014.119-1.726c1.544 0 3.025.62 4.119 1.726a5.966 5.966 0 011.72 4.17zm28.772-41.042c1.338 3.923 2.147 8.575 2.23 13.572H62.21a25.798 25.798 0 00-6.198-16.009 37.873 37.873 0 01-7.335 2.437zm-10.95-10.309v9.883a52.443 52.443 0 008.694-.838c-1.53-3.716-4.457-8.459-8.694-9.045zm0 11.58v12.3h11.507c-.084-4.902-.884-9.44-2.202-13.226-3.07.577-6.183.887-9.305.925zm-1.672 12.3v-12.3a53.88 53.88 0 01-9.306-.927c-1.319 3.787-2.119 8.325-2.202 13.228h11.508zm0-13.997v-9.883c-4.239.586-7.165 5.328-8.695 9.045 2.87.52 5.779.8 8.695.838zM22.875 35.96c.082-4.997.891-9.65 2.23-13.572a37.87 37.87 0 01-7.336-2.437 25.798 25.798 0 00-6.197 16.009h11.303zm2.821-15.174c1.423-3.564 3.74-7.439 7.112-9.343a25.17 25.17 0 00-13.836 7.2 37.12 37.12 0 006.724 2.143zm15.277-9.343c3.373 1.904 5.69 5.779 7.112 9.343a37.12 37.12 0 006.724-2.143 25.172 25.172 0 00-13.836-7.2z" fill="#fff"/></svg>