<svg width="61" height="61" fill="none" xmlns="http://www.w3.org/2000/svg"><path d="M18.11 31.453h13.343a.953.953 0 000-1.906H18.11a.953.953 0 000 1.906zm13.343 1.907h-5.719a.953.953 0 000 1.906h5.72a.953.953 0 000-1.907zm0 3.812h-3.812a.953.953 0 100 1.906h3.812a.953.953 0 000-1.906zm-1.906-30.5h1.906a.953.953 0 000-1.906h-1.906a.953.953 0 000 1.906z" fill="#000"/><path d="M55.281 40.031a3.759 3.759 0 00-1.944.553 3.813 3.813 0 00-3.775-3.412 3.722 3.722 0 00-1.906.534V6.672a4.765 4.765 0 00-4.765-4.766H18.109a4.766 4.766 0 00-4.765 4.766v18.69l-5.748 6.234a14.27 14.27 0 00-3.783 9.693v16.852a.953.953 0 001.906 0V41.289a12.328 12.328 0 013.279-8.397l4.346-4.718v13.764a.953.953 0 001.782.476l3.327-5.833a1.854 1.854 0 012.592-.648 1.906 1.906 0 01.715 2.63c-1.41 2.421-3.336 5.757-3.336 5.757a.962.962 0 00.038 1.02l1.201 1.735a8.634 8.634 0 01.372 9.112l-.849 1.477a.955.955 0 001.079 1.4.956.956 0 00.58-.447l.848-1.487c.327-.588.595-1.208.8-1.849h9.16l1.82 3.317a.974.974 0 00.84.496c.159 0 .316-.04.457-.115a.959.959 0 00.381-1.296l-7.844-14.24.848-.486a2.854 2.854 0 013.899 1.049l2.382 4.127a.974.974 0 001.077.448.953.953 0 00.706-.925V31.453a1.906 1.906 0 013.812 0v13.344a.953.953 0 101.907 0v-3.813a1.906 1.906 0 113.812 0v3.813a.953.953 0 101.906 0v-3.813a1.906 1.906 0 113.813 0v3.813a.953.953 0 101.906 0v-.953a1.906 1.906 0 013.813 0V58.14a.953.953 0 101.906 0V43.844a3.812 3.812 0 00-3.813-3.813zM30.605 53.375h-7.663a10.69 10.69 0 00-.172-3.813h5.728l2.107 3.813zm15.145-15.67a3.67 3.67 0 00-3.813 0v-6.252a3.813 3.813 0 00-7.624 0v12.648l-.601-1.048a4.765 4.765 0 00-6.51-1.745l-1.658.954a.953.953 0 00-.353 1.286l2.259 4.108h-5.318a9.686 9.686 0 00-.906-1.658l-.848-1.249c.59-1.03 1.963-3.393 3.03-5.232a3.756 3.756 0 00.391-2.898 3.887 3.887 0 00-1.858-2.373 3.753 3.753 0 00-5.137 1.391l-1.554 2.707V9.531h30.5v28.175zm0-30.08h-30.5v-.953a2.868 2.868 0 012.86-2.86h24.78a2.868 2.868 0 012.86 2.86v.953z" fill="#000"/><path d="M43.844 24.781V14.297a2.86 2.86 0 00-2.86-2.86H20.016a2.86 2.86 0 00-2.86 2.86V24.78a2.86 2.86 0 002.86 2.86h20.968a2.86 2.86 0 002.86-2.86zm-23.828.953a.953.953 0 01-.953-.953V14.297a.953.953 0 01.953-.953h20.968a.953.953 0 01.953.953V24.78a.953.953 0 01-.953.953H20.016z" fill="#000"/><path d="M23.828 15.25h-1.906a.953.953 0 00-.953.953v6.672a.953.953 0 001.906 0v-1.906h.953a2.86 2.86 0 000-5.719zm0 3.813h-.953v-1.907h.953a.954.954 0 010 1.907zm7.547-3.235a.953.953 0 00-1.751 0l-2.86 6.672a.953.953 0 101.752.75l.572-1.328h2.829l.572 1.328a.951.951 0 001.566.3.952.952 0 00.185-1.05l-2.865-6.672zm-1.472 4.188l.597-1.393.596 1.393h-1.193zm9.366-4.385l-2.097 2.796-2.097-2.796a.953.953 0 10-1.525 1.144l2.669 3.558v2.542a.954.954 0 001.906 0v-2.542l2.669-3.558a.953.953 0 10-1.525-1.144z" fill="#000"/></svg>