<svg width="59" height="59" fill="none" xmlns="http://www.w3.org/2000/svg"><g clip-path="url(#clip0_912_1055)" fill="#000"><path d="M12.017 6.485a5.537 5.537 0 00-5.532 5.532c0 3.05 2.481 5.53 5.532 5.53 3.05 0 5.53-2.48 5.53-5.53 0-3.05-2.48-5.532-5.53-5.532zm0 9.22a3.691 3.691 0 01-3.688-3.688 3.691 3.691 0 013.688-3.688 3.691 3.691 0 013.687 3.688 3.691 3.691 0 01-3.687 3.687zm41.182 29.197l-1.303-1.304-6.724 6.724-1.192-1.193-1.303 1.304 2.495 2.496 8.027-8.027zM32.266 11.063h1.843v1.843h-1.843v-1.844zm11.062 0h1.844v1.843h-1.844v-1.844zm-3.688 0h1.844v1.843h-1.843v-1.844zm-3.687 0h1.844v1.843h-1.844v-1.844z"/><path d="M22.125 34.11h14.75a2.769 2.769 0 002.766-2.766v-.922h11.984a6.46 6.46 0 006.453-6.453v-6.453a6.46 6.46 0 00-6.453-6.453h-2.766v-.922a2.769 2.769 0 00-2.765-2.766h-14.75a2.769 2.769 0 00-2.766 2.766v.921H23.08V9.47l-2.42-.661a9.38 9.38 0 00-.263-.632l1.245-2.181-3.603-3.603-2.18 1.245a9.556 9.556 0 00-.631-.264l-.662-2.42H9.47l-.662 2.42c-.212.08-.423.167-.631.264L5.996 2.393 2.393 5.996l1.245 2.181a9.33 9.33 0 00-.264.632l-2.42.66v5.095l2.42.662c.08.212.168.423.264.631l-1.246 2.181 3.603 3.602 2.181-1.244c.208.095.419.184.63.263l.663 2.42h5.095l.662-2.42c.21-.079.422-.168.631-.263l2.18 1.243 3.603-3.602-1.245-2.18c.096-.21.184-.42.263-.632l2.42-.662v-1.657h5.5v.922a2.77 2.77 0 002.766 2.766h14.75a2.77 2.77 0 002.765-2.766v-.922h2.766a4.615 4.615 0 014.61 4.61v6.453a4.615 4.615 0 01-4.61 4.61H39.641v-.923a2.769 2.769 0 00-2.766-2.765h-14.75a2.769 2.769 0 00-2.766 2.765v.922H7.375a6.461 6.461 0 00-6.453 6.453v7.375a6.461 6.461 0 006.453 6.453h2.766v.922a2.769 2.769 0 002.765 2.766h14.75a2.769 2.769 0 002.766-2.766v-.922h7.422c.467 5.161 4.813 9.22 10.093 9.22 5.592 0 10.141-4.55 10.141-10.142 0-5.59-4.55-10.14-10.14-10.14-5.281 0-9.627 4.058-10.094 9.219h-7.422v-.922a2.77 2.77 0 00-2.766-2.766h-14.75a2.77 2.77 0 00-2.765 2.766v.922H7.375a4.615 4.615 0 01-4.61-4.61v-7.375a4.615 4.615 0 014.61-4.61h11.984v.923a2.769 2.769 0 002.766 2.765zm-.89-20.953l-2.021.553-.149.484a7.43 7.43 0 01-.527 1.263l-.238.448 1.042 1.825-1.612 1.612-1.825-1.04-.447.236c-.41.218-.835.395-1.263.526l-.483.15-.554 2.021h-2.28l-.554-2.021-.483-.15a7.327 7.327 0 01-1.263-.526l-.448-.237-1.824 1.04-1.614-1.611 1.042-1.825-.238-.448a7.347 7.347 0 01-.527-1.263l-.149-.484-2.021-.553v-2.28l2.021-.553.15-.484c.132-.427.309-.852.526-1.262l.238-.449-1.042-1.824 1.612-1.613 1.824 1.041.448-.237A7.384 7.384 0 019.84 4.97l.483-.15.554-2.021h2.28l.554 2.022.483.149a7.38 7.38 0 011.263.527l.447.237 1.826-1.04 1.611 1.612-1.042 1.824.238.448c.218.41.396.835.526 1.262l.15.484 2.021.552v2.282h.002zm25.78.671a.923.923 0 01-.921.922h-14.75a.923.923 0 01-.922-.922v-3.687c0-.508.413-.922.922-.922h14.75c.509 0 .922.414.922.922v3.687zm.922 25.813c4.576 0 8.297 3.721 8.297 8.297 0 4.575-3.721 8.296-8.297 8.296-4.575 0-8.296-3.721-8.296-8.297 0-4.575 3.721-8.296 8.297-8.296zm-35.953 6.453c0-.51.413-.922.922-.922h14.75c.51 0 .922.413.922.922v3.687a.922.922 0 01-.922.922h-14.75a.922.922 0 01-.922-.922v-3.687zm9.22-18.438c0-.508.412-.922.921-.922h14.75c.509 0 .922.414.922.922v3.688a.922.922 0 01-.922.922h-14.75a.922.922 0 01-.922-.922v-3.688z"/><path d="M30.422 28.578h1.844v1.844h-1.844v-1.844zm-3.688 0h1.844v1.844h-1.844v-1.844zm-3.687 0h1.844v1.844h-1.844v-1.844zm11.063 0h1.843v1.844H34.11v-1.844zM17.516 47.016h1.843v1.843h-1.843v-1.843zm7.374 0h1.844v1.843h-1.843v-1.843zm-3.687 0h1.844v1.843h-1.844v-1.843zm-7.375 0h1.844v1.843h-1.844v-1.843z"/></g><defs><clipPath id="clip0_912_1055"><path fill="#fff" d="M0 0h59v59H0z"/></clipPath></defs></svg>