<svg width="46" height="46" fill="none" xmlns="http://www.w3.org/2000/svg"><path d="M1.768 14.261L17.97 24.653v6.253a.719.719 0 00.719.719h8.625a.719.719 0 00.719-.719v-6.253l16.2-10.392a.718.718 0 00-.388-1.323H2.157a.719.719 0 00-.389 1.323zm39.624.114l-14.467 9.278a.72.72 0 00-.33.605v5.93h-7.188v-5.93a.718.718 0 00-.331-.605L4.609 14.375h36.783zM23 33.063a5.75 5.75 0 100 11.498 5.75 5.75 0 000-11.498zm0 10.062a4.312 4.312 0 110-8.625 4.312 4.312 0 010 8.625z" fill="#000"/><path d="M22.772 39.234l-1.529-1.02-.798 1.197 2.157 1.437a.724.724 0 00.82-.015.72.72 0 00.194-.213l2.157-3.594-1.232-.74-1.77 2.948zM38.813 28.75a5.75 5.75 0 100 11.499 5.75 5.75 0 000-11.499zm0 10.063a4.312 4.312 0 110-8.625 4.312 4.312 0 010 8.625z" fill="#000"/><path d="M38.584 34.921l-1.528-1.019-.798 1.196 2.156 1.438a.724.724 0 00.82-.016.72.72 0 00.195-.212l2.156-3.594-1.232-.74-1.769 2.947zM7.188 28.75a5.75 5.75 0 100 11.499 5.75 5.75 0 000-11.499zm0 10.063a4.312 4.312 0 110-8.625 4.312 4.312 0 010 8.625z" fill="#000"/><path d="M6.96 34.921l-1.53-1.019-.797 1.196 2.156 1.438a.724.724 0 00.82-.016.72.72 0 00.195-.212l2.156-3.594-1.232-.74L6.96 34.92zM23.719 11.5a2.875 2.875 0 100-5.75 2.875 2.875 0 000 5.75zm0-4.313a1.437 1.437 0 110 2.875 1.437 1.437 0 010-2.874zm17.969 2.157a2.875 2.875 0 100-5.75 2.875 2.875 0 000 5.75zm0-4.313a1.437 1.437 0 110 2.875 1.437 1.437 0 010-2.875zM16.531 8.625a3.594 3.594 0 100-7.188 3.594 3.594 0 000 7.188zm0-5.75a2.156 2.156 0 110 4.313 2.156 2.156 0 010-4.313zm15.813 7.188a4.312 4.312 0 100-8.625 4.312 4.312 0 000 8.624zm0-7.188a2.875 2.875 0 110 5.75 2.875 2.875 0 010-5.75zM6.469 11.5a4.312 4.312 0 100-8.624 4.312 4.312 0 000 8.624zm0-7.188a2.875 2.875 0 110 5.75 2.875 2.875 0 010-5.75zM23 23.719a.723.723 0 00.509-.21l2.156-2.157-1.017-1.016-.929.929v-5.453h-1.437v5.453l-.93-.93-1.016 1.017 2.156 2.156c.135.135.318.21.508.21z" fill="#000"/></svg>