<svg width="49" height="49" fill="none" xmlns="http://www.w3.org/2000/svg"><path d="M48.56 11.178l-5.072-8.785a2.512 2.512 0 00-2.182-1.264c-.91 0-1.723.47-2.182 1.264l-5.072 8.785a2.47 2.47 0 000 2.517 2.512 2.512 0 002.182 1.263h10.144c.91 0 1.723-.469 2.182-1.263a2.47 2.47 0 000-2.517zm-1.35 1.742a.94.94 0 01-.832.478H36.234a.954.954 0 01-.833-.478.934.934 0 010-.957l5.072-8.786a.942.942 0 01.833-.478.95.95 0 01.833.478l5.072 8.786a.934.934 0 010 .957zm-4.966-7.494c.2.23.306.565.268.89l-.354 3.11c-.058.48-.412.824-.852.824s-.794-.345-.842-.823l-.354-3.11a1.17 1.17 0 01.268-.89.896.896 0 01.66-.307h.555a.84.84 0 01.65.306zm.048 6.269a.98.98 0 01-.976.976.98.98 0 01-.977-.976c0-.546.44-.976.977-.976a.98.98 0 01.976.976zm-1.704 16.26h-4.383c.02-.67 0-1.34-.076-2.01 0 0 4.364-1.78 4.373-1.78a1.614 1.614 0 00.89-2.105l-1.656-4.058a1.602 1.602 0 00-2.095-.88l-4.374 1.789a13.538 13.538 0 00-2.297-2.326l1.828-4.354c.172-.402.172-.842.01-1.244a1.6 1.6 0 00-.862-.871l-4.038-1.704a1.643 1.643 0 00-1.225-.01 1.546 1.546 0 00-.88.872l-1.838 4.354a13.788 13.788 0 00-3.264-.01l-1.78-4.373a1.621 1.621 0 00-.88-.88 1.574 1.574 0 00-1.216 0l-4.067 1.646a1.628 1.628 0 00-.871 2.115l1.828 4.507c.105.249.325.43.603.479l2.077.344c-.02.335-.048.68-.067 1.015a.768.768 0 00.698.823l2.575.277c-.067.44-.134.88-.192 1.33a.79.79 0 00.268.709c.201.172.488.23.737.143 1.962-.631 4.192-.191 5.761 1.149 1.436 1.225 2.259 3.148 2.106 5.034v.028H13.275c0-.028-.01-.057-.01-.086-.096-2.325 1.13-4.641 3.225-5.723a.784.784 0 00.393-.928c-.134-.412-.268-.823-.402-1.244l-.077-.23a.786.786 0 00-.66-.536l-2.489-.268.144-1.292a.772.772 0 00-.526-.823 81.841 81.841 0 00-1.407-.478.787.787 0 00-.728.114c-.87.67-1.655 1.446-2.354 2.317L4.03 16.939a1.603 1.603 0 00-1.244 0 1.6 1.6 0 00-.871.862L.22 21.839a1.623 1.623 0 00-.01 1.235c.163.402.469.718.871.88l4.345 1.819c-.096.718-.124 1.445-.096 2.172H3.896c-.421 0-.823.173-1.11.488a1.532 1.532 0 00-.393 1.13 20.007 20.007 0 005.015 11.695l.46.468c.018.03.047.048.066.077 3.78 3.905 8.862 6.058 14.298 6.058 3.398 0 6.652-.842 9.542-2.421a19.703 19.703 0 004.756-3.637l.527-.545-.01-.01a19.859 19.859 0 005.034-11.695 1.496 1.496 0 00-.392-1.12 1.499 1.499 0 00-1.1-.478zm-12.594-5.426c-1.627-1.924-4.393-3.006-6.9-2.546.076-.02.105-.613.114-.69.039-.315.096-.621-.114-.899a.763.763 0 00-.536-.297l-2.642-.287c.02-.325.048-.64.067-.966a.785.785 0 00-.65-.833l-.115-.019-2.24-.373-1.445-3.58-.22-.516c-.02-.039.01-.077.029-.086L17.399 9.8c.01 0 .067.029.067.029l2 4.938a.78.78 0 00.843.479c1.33-.211 2.67-.211 3.99.019a.791.791 0 00.852-.47l2.077-4.918c.01-.03.048-.02.067-.02l4.03 1.694s.018.067.028.067l-2.067 4.92a.791.791 0 00.258.937 12.07 12.07 0 012.795 2.833c.21.297.603.412.938.278l4.938-2.02c.038-.019.057.01.067.03l1.646 4.047c.019.048-.029.067-.038.077l-4.92 2.01a.785.785 0 00-.478.851c.124.795.182 1.599.153 2.383h-4.804c.124 0-.125-1.875-.144-2a7.756 7.756 0 00-1.703-3.435zm.938 6.986h1.464a34.941 34.941 0 01-.842 6.527 19.74 19.74 0 00-7.312-1.388c-2.536 0-4.986.469-7.312 1.388a35.469 35.469 0 01-.842-6.537h14.844v.01zM1.685 22.509c-.02-.01-.029-.047-.02-.067l1.695-4.029.067-.029 4.9 2.068a.788.788 0 00.938-.259 11.862 11.862 0 012.086-2.23l.411.144c-.057.479-.105.957-.172 1.436a.793.793 0 00.163.583.788.788 0 00.526.287c.575.058 1.158.125 1.732.182l1.044.115c.038.124.086.249.124.383.01.02-1.397 1.168-1.522 1.302-1.387 1.483-2.048 3.55-1.962 5.56H6.891a11.73 11.73 0 01.163-2.527.768.768 0 00-.47-.852l-4.9-2.067zm2.278 7.006h8.575c.095 2.517.402 4.928.938 7.178a19.408 19.408 0 00-4.939 3.445 18.249 18.249 0 01-4.574-10.623zm13.857 16.25a18.233 18.233 0 01-8.182-4.488l-.02-.02a18.063 18.063 0 014.26-3.005c.028.096.057.201.086.297.803 2.651 1.904 4.89 3.196 6.47.22.268.44.517.66.746zm4.441.527h-.029c-1.674-.01-3.024-1.235-3.857-2.269-1.157-1.426-2.172-3.474-2.909-5.933-.048-.163-.095-.345-.143-.517a18.208 18.208 0 016.928-1.359c2.412 0 4.738.46 6.939 1.359-.067.23-.134.469-.22.727-.747 2.393-1.752 4.393-2.9 5.79-.832 1.005-2.172 2.202-3.809 2.202zm12.537-4.967a18.387 18.387 0 01-8.144 4.44c.21-.21.411-.43.612-.67 1.273-1.55 2.374-3.732 3.187-6.316.058-.182.105-.354.153-.517 1.56.804 2.996 1.8 4.26 3.005a.282.282 0 00-.068.058zm1.158-1.187a19.702 19.702 0 00-4.948-3.445c.536-2.24.843-4.652.938-7.178h3.426a.28.28 0 00.087-.02h5.072a18.303 18.303 0 01-4.575 10.643zM6.068 13.35a.774.774 0 01-.249-.67l.23-1.953a.793.793 0 01.402-.593.744.744 0 01.708-.02l2.728 1.283c.306.144.478.46.44.795a.784.784 0 01-.603.679l-2.967.66a.765.765 0 01-.69-.182zm3.656-6.393a.78.78 0 01.555-.9l.823-.23a.78.78 0 01.775.21.773.773 0 01.173.786l-.546 1.636a.782.782 0 01-.737.536h-.048a.774.774 0 01-.717-.632l-.278-1.406zm.383 8.25a.787.787 0 01-.24.966l-.89.66a.746.746 0 01-.468.153.772.772 0 01-.355-.086.775.775 0 01-.43-.698v-.431c0-.354.239-.67.584-.756l.89-.23a.782.782 0 01.909.421zm-7.838-3.111a.787.787 0 01-.24-.967.781.781 0 01.9-.42l.89.229a.779.779 0 01.584.756v.43a.775.775 0 01-.43.7.784.784 0 01-.823-.067l-.881-.661z" fill="#000"/></svg>