<svg width="61" height="61" fill="none" xmlns="http://www.w3.org/2000/svg"><g clip-path="url(#clip0_912_1072)" stroke="#333" stroke-width="2" stroke-miterlimit="10" stroke-linecap="round" stroke-linejoin="round"><path d="M16.215 6.837a22.74 22.74 0 0111.29-4.49M7.23 27.054a23.189 23.189 0 01-.085-1.985c0-4.143 1.102-8.028 3.029-11.379m.176 23.056a22.716 22.716 0 01-2.616-6.501m7.588 12.344a22.963 22.963 0 01-2.2-2.111m23.264 6.545c-1.294.375-2.634.64-4.011.781m20.272-25.858c.14 1.02.212 2.063.212 3.123 0 4.242-1.156 8.215-3.17 11.62m.031-23.187a22.72 22.72 0 012.42 5.857M44.324 7.255a22.926 22.926 0 012.578 2.426M32.338 2.33a22.706 22.706 0 017.618 2.158m-9.953-.064a2.212 2.212 0 100-4.424 2.212 2.212 0 000 4.424zm0 45.714a2.212 2.212 0 100-4.424 2.212 2.212 0 000 4.424zm18.395-9.253a2.212 2.212 0 100-4.424 2.212 2.212 0 000 4.424zm0-27.208a2.212 2.212 0 100-4.424 2.212 2.212 0 000 4.424zm0 13.493a2.212 2.212 0 100-4.423 2.212 2.212 0 000 4.424zm-18.395 0a2.212 2.212 0 100-4.423 2.212 2.212 0 000 4.424z"/><path d="M11.607 40.885a2.212 2.212 0 100-4.424 2.212 2.212 0 000 4.424zM30.002 4.631v14.65m0 11.457v14.87m4.15-23.538l12.484-9.177M13.37 37.347l12.006-8.813m8.814-.44l12.44 9.253m1.768-6.94v5.948M35.18 25.12h11.015M13.37 7.165h4.405m-7.599 3.415h6.83m-9.806 0h.44m31.286-5.949h6.389m-8.483 2.974h4.186m8.701 11.897h5.728m-.109 2.864h1.046M49.17 45.718h.66m-8.703 0h5.067m-34.477-21.92h2.809m-3.471 21.37h10.464m-14.319 0h.55m13.99 2.754h3.415M4.557 27.213h7.05"/></g><defs><clipPath id="clip0_912_1072"><path fill="#fff" d="M0 0h61v61H0z"/></clipPath></defs></svg>