<svg width="74" height="74" fill="none" xmlns="http://www.w3.org/2000/svg"><mask id="a" style="mask-type:alpha" maskUnits="userSpaceOnUse" x="4" y="4" width="66" height="66"><path d="M43.938 50.875c0-1.44.044-2.882.126-4.303-5.825.575-9.767 1.824-11.62 2.957-.033.446-.069.892-.069 1.346 0 .454.036.9.068 1.346 1.854 1.133 5.796 2.382 11.621 2.957a74.354 74.354 0 01-.127-4.303zm25.369-1.345c-1.854-1.134-5.796-2.383-11.622-2.958a73.92 73.92 0 01.127 4.303c0 1.44-.044 2.882-.127 4.303 5.826-.575 9.768-1.824 11.622-2.957.032-.446.068-.892.068-1.346 0-.454-.036-.9-.068-1.346zm-22.923-3.146a73.242 73.242 0 00-.134 4.491c0 1.588.048 3.086.134 4.49a72.73 72.73 0 004.491.135c1.588 0 3.086-.048 4.49-.134a72.73 72.73 0 00.135-4.491c0-1.588-.048-3.086-.134-4.49a73.242 73.242 0 00-4.491-.135c-1.588 0-3.086.048-4.49.134zm4.491 11.429c-1.44 0-2.882-.045-4.302-.127.574 5.825 1.823 9.767 2.957 11.62.446.033.891.069 1.345.069.454 0 .9-.036 1.346-.068 1.133-1.854 2.383-5.796 2.957-11.621a74.26 74.26 0 01-4.303.127zm-18.017-2.8a18.54 18.54 0 0013.879 13.878c-1.247-2.825-2.082-6.907-2.495-11.383-4.476-.413-8.558-1.248-11.384-2.495zm22.156 13.878a18.54 18.54 0 0013.878-13.878c-2.825 1.247-6.907 2.082-11.384 2.495-.413 4.476-1.248 8.558-2.494 11.383zm13.878-22.155a18.54 18.54 0 00-13.878-13.878c1.246 2.826 2.081 6.908 2.494 11.384 4.477.413 8.559 1.248 11.384 2.495zM16.188 23.125c0-1.44.044-2.882.126-4.302-5.825.574-9.767 1.823-11.62 2.956-.033.447-.069.892-.069 1.346 0 .454.036.9.068 1.346 1.854 1.133 5.796 2.382 11.621 2.956a74.354 74.354 0 01-.127-4.302zm6.937-6.937c1.441 0 2.883.044 4.303.126-.574-5.825-1.824-9.767-2.957-11.62-.446-.033-.892-.069-1.346-.069-.454 0-.9.036-1.345.068-1.134 1.854-2.383 5.796-2.957 11.621a74.348 74.348 0 014.302-.127zm6.937 6.937c0 1.44-.044 2.882-.127 4.302 5.826-.574 9.768-1.823 11.622-2.956.032-.447.068-.892.068-1.346 0-.454-.036-.9-.068-1.346-1.854-1.133-5.796-2.382-11.622-2.956.083 1.42.127 2.861.127 4.302zm-11.428-4.491a73.242 73.242 0 00-.134 4.491c0 1.588.048 3.085.134 4.49a72.73 72.73 0 004.491.135c1.588 0 3.085-.048 4.49-.134a72.73 72.73 0 00.135-4.491c0-1.588-.048-3.085-.134-4.49a73.242 73.242 0 00-4.491-.135c-1.588 0-3.085.048-4.49.134zM5.108 27.263a18.54 18.54 0 0013.878 13.878c-1.246-2.825-2.081-6.907-2.494-11.383-4.476-.413-8.558-1.248-11.384-2.495zM18.986 5.108A18.54 18.54 0 005.108 18.986c2.826-1.246 6.908-2.081 11.384-2.494.413-4.476 1.248-8.558 2.494-11.384zm22.156 13.878A18.54 18.54 0 0027.264 5.108c1.247 2.826 2.081 6.908 2.494 11.384 4.477.413 8.559 1.248 11.384 2.494zm12.046 20.327v-4.626a4.625 4.625 0 00-4.626-4.624H25.439a4.625 4.625 0 00-4.625 4.625v4.624a4.625 4.625 0 004.625 4.626h23.125a4.625 4.625 0 004.624-4.626zm-27.745 0A2.319 2.319 0 0123.125 37a2.3 2.3 0 012.296-2.313h.08c1.275 0 2.249 1.035 2.249 2.313a2.308 2.308 0 01-2.307 2.313zm6.938 0A2.319 2.319 0 0130.062 37a2.3 2.3 0 012.296-2.313h.08c1.275 0 2.25 1.035 2.25 2.313a2.308 2.308 0 01-2.307 2.313zM37 37a2.312 2.312 0 012.313-2.313h9.25a2.312 2.312 0 110 4.626h-9.25A2.312 2.312 0 0137 37z" fill="#000"/></mask><g mask="url(#a)"><path fill="url(#paint0_linear_72_68)" d="M-11-10h95v95h-95z"/></g><defs><linearGradient id="paint0_linear_72_68" x1="-44.671" y1="166.976" x2="96.359" y2="159.093" gradientUnits="userSpaceOnUse"><stop stop-color="#2780E6"/><stop offset="1" stop-color="#781896"/></linearGradient></defs></svg>