<svg width="76" height="76" fill="none" xmlns="http://www.w3.org/2000/svg"><path d="M74.778 40.767A10.605 10.605 0 0161.94 51.575a28.56 28.56 0 01-19.306 12.652 6.174 6.174 0 11-.198-4.484 23.977 23.977 0 0019.617-23.645c0-13.263-10.79-24.054-24.054-24.054s-24.054 10.79-24.054 24.054a24.04 24.04 0 003.045 11.717c.067.118.118.245.15.378a2.22 2.22 0 01-1.235 2.801 10.486 10.486 0 01-4.563.81 10.604 10.604 0 01-10.12-11.038c.047-1.119.02-2.117-.006-3.082-.024-.908-.049-1.848-.008-2.828a10.613 10.613 0 0110.656-10.137C16.267 14.649 26.324 7.591 38 7.591c11.676 0 21.733 7.057 26.135 17.129A10.605 10.605 0 0174.79 34.854c.041.982.017 1.922-.008 2.83-.025.965-.052 1.964-.004 3.083zm-18.104-4.669a18.682 18.682 0 01-23.47 18.05l-7.56 4.365a2.227 2.227 0 01-3.263-2.504l1.931-7.207a18.747 18.747 0 01-4.986-12.704c0-10.3 8.377-18.678 18.674-18.678 10.297 0 18.674 8.378 18.674 18.678zm-23.866 0a2.227 2.227 0 00-2.226-2.226h-.004a2.227 2.227 0 102.23 2.226zm7.419 0a2.122 2.122 0 00-.044-.435 2.527 2.527 0 00-.126-.417 2.139 2.139 0 00-.482-.721 2.878 2.878 0 00-.163-.149 2.567 2.567 0 00-.364-.24 2.407 2.407 0 00-.402-.166 1.947 1.947 0 00-.427-.086 2.091 2.091 0 00-.865.086 1.939 1.939 0 00-.403.166 2.414 2.414 0 00-.362.24 2.248 2.248 0 00-.772 1.287 2.114 2.114 0 00-.033.655 2.172 2.172 0 00.16.632 2.022 2.022 0 00.206.385 2.145 2.145 0 00.614.614c.061.04.123.079.187.113.13.067.264.123.402.166a2.124 2.124 0 00.647.097 2.24 2.24 0 001.852-.99 2.36 2.36 0 00.204-.385c.029-.067.052-.136.073-.205a2.114 2.114 0 00.097-.647zm7.422 0a2.227 2.227 0 00-2.227-2.226h-.004a2.226 2.226 0 102.23 2.226z" fill="url(#paint0_linear_72_106)"/><defs><linearGradient id="paint0_linear_72_106" x1="-24.907" y1="120.894" x2="84.233" y2="113.509" gradientUnits="userSpaceOnUse"><stop stop-color="#2780E6"/><stop offset="1" stop-color="#781896"/></linearGradient></defs></svg>