<svg width="66" height="66" fill="none" xmlns="http://www.w3.org/2000/svg"><path d="M28.875 20.624v-4.125H4.125A4.132 4.132 0 000 20.624v8.25h29.745c-.573-2.52-.87-5.235-.87-8.25z" fill="url(#paint0_linear_72_43)"/><path d="M65.83 37.124c-2.812 4.335-7.102 8.023-13.249 11.554a6.21 6.21 0 01-3.081.821 6.209 6.209 0 01-3.069-.813c-6.146-3.539-10.436-7.23-13.254-11.562H0v20.625a4.13 4.13 0 004.125 4.125h57.75A4.127 4.127 0 0066 57.749V37.124h-.17zM18.564 49.499h-8.25a2.063 2.063 0 010-4.125h8.25a2.063 2.063 0 010 4.125z" fill="url(#paint1_linear_72_43)"/><path d="M64.75 10.48L50.313 4.293a2.07 2.07 0 00-1.63 0L34.246 10.48A2.058 2.058 0 0033 12.374v8.25c0 11.348 4.195 17.98 15.473 24.478a2.07 2.07 0 002.054 0C61.805 38.622 66 31.988 66 20.624v-8.25c0-.825-.49-1.572-1.25-1.894zm-7.45 9.372l-8.25 10.313c-.396.487-.99.771-1.612.771h-.087a2.07 2.07 0 01-1.63-.915l-4.124-6.188a2.06 2.06 0 113.431-2.285l2.562 3.84 6.485-8.11a2.072 2.072 0 012.9-.321 2.063 2.063 0 01.325 2.895z" fill="url(#paint2_linear_72_43)"/><defs><linearGradient id="paint0_linear_72_43" x1="-10.543" y1="39.553" x2="32.968" y2="33.706" gradientUnits="userSpaceOnUse"><stop stop-color="#2780E6"/><stop offset="1" stop-color="#781896"/></linearGradient><linearGradient id="paint1_linear_72_43" x1="-23.392" y1="83.231" x2="72.756" y2="68.899" gradientUnits="userSpaceOnUse"><stop stop-color="#2780E6"/><stop offset="1" stop-color="#781896"/></linearGradient><linearGradient id="paint2_linear_72_43" x1="21.304" y1="80.967" x2="70.348" y2="78.774" gradientUnits="userSpaceOnUse"><stop stop-color="#2780E6"/><stop offset="1" stop-color="#781896"/></linearGradient></defs></svg>