<svg width="34" height="34" viewBox="0 0 34 34" fill="none" xmlns="http://www.w3.org/2000/svg">
<g clip-path="url(#clip0_107_5188)">
<path d="M17 34C26.3888 34 34 26.3888 34 17C34 7.61116 26.3888 0 17 0C7.61116 0 0 7.61116 0 17C0 26.3888 7.61116 34 17 34Z" fill="#F7931A"/>
<path d="M24.6382 14.8963C24.9719 12.6693 23.2751 11.4718 20.9567 10.6728L21.7089 7.65531L19.8729 7.19844L19.1398 10.1362C18.6574 10.0151 18.1623 9.9025 17.6682 9.78987L18.4067 6.83294L16.5707 6.375L15.8184 9.39144C15.4189 9.30006 15.0258 9.21081 14.6454 9.11519L14.6476 9.10562L12.1146 8.47344L11.6258 10.4348C11.6258 10.4348 12.989 10.7472 12.9603 10.7663C13.7041 10.9523 13.8379 11.4442 13.8156 11.8352L12.9592 15.2724C13.0102 15.2851 13.0761 15.3042 13.1505 15.3329L12.9561 15.2851L11.7554 20.1004C11.6641 20.3256 11.4335 20.6646 10.9129 20.536C10.932 20.5626 9.57837 20.2034 9.57837 20.2034L8.66675 22.3051L11.0574 22.9011C11.5015 23.0127 11.9371 23.1296 12.3653 23.239L11.6056 26.2905L13.4406 26.7474L14.1928 23.7299C14.6943 23.8648 15.1809 23.9902 15.6569 24.1092L14.9068 27.1139L16.7428 27.5708L17.5025 24.5257C20.6347 25.1186 22.9892 24.8795 23.9806 22.0469C24.7796 19.7668 23.9413 18.4503 22.2933 17.5929C23.4939 17.3166 24.3971 16.5272 24.6382 14.8963V14.8963ZM20.4414 20.7804C19.8751 23.0616 16.0341 21.828 14.7889 21.5188L15.7982 17.476C17.0435 17.7873 21.0353 18.4025 20.4414 20.7804ZM21.0098 14.8633C20.4924 16.9384 17.2964 15.8833 16.2604 15.6251L17.1742 11.9595C18.2101 12.2177 21.5496 12.699 21.0098 14.8633Z" fill="white"/>
</g>
<defs>
<clipPath id="clip0_107_5188">
<rect width="34" height="34" fill="white"/>
</clipPath>
</defs>
</svg>
