<svg width="34" height="34" viewBox="0 0 34 34" fill="none" xmlns="http://www.w3.org/2000/svg">
<g clip-path="url(#clip0_107_5177)">
<path d="M17 34C26.3888 34 34 26.3888 34 17C34 7.61116 26.3888 0 17 0C7.61116 0 0 7.61116 0 17C0 26.3888 7.61116 34 17 34Z" fill="#26A17B"/>
<path fill-rule="evenodd" clip-rule="evenodd" d="M19.0422 18.4697V18.4676C18.9253 18.4761 18.3229 18.5122 16.9788 18.5122C15.9057 18.5122 15.1503 18.4804 14.8847 18.4676V18.4708C10.7537 18.2891 7.67028 17.5698 7.67028 16.7092C7.67028 15.8496 10.7537 15.1303 14.8847 14.9454V17.7547C15.1545 17.7738 15.928 17.8195 16.9969 17.8195C18.2793 17.8195 18.9222 17.7664 19.0422 17.7557V14.9475C23.1647 15.1314 26.2407 15.8507 26.2407 16.7092C26.2407 17.5698 23.1647 18.287 19.0422 18.4697ZM19.0422 14.6554V12.1415H24.7946V8.30798H9.13228V12.1415H14.8847V14.6543C10.2097 14.8689 6.69385 15.7954 6.69385 16.9047C6.69385 18.0139 10.2097 18.9394 14.8847 19.155V27.2109H19.0422V19.1529C23.7098 18.9383 27.2171 18.0129 27.2171 16.9047C27.2171 15.7965 23.7098 14.871 19.0422 14.6554Z" fill="white"/>
</g>
<defs>
<clipPath id="clip0_107_5177">
<rect width="34" height="34" fill="white"/>
</clipPath>
</defs>
</svg>
