<svg width="543" height="300" fill="none" xmlns="http://www.w3.org/2000/svg"><circle cx="365.5" cy="168.5" r="90.5" fill="#D9D9D9" fill-opacity=".2"/><circle cx="212.5" cy="109.5" r="109.5" fill="#D9D9D9" fill-opacity=".2"/><path d="M386.801 156.625c-6.055 0-10.41-3.594-10.586-8.691h5.449c.332 2.382 2.441 4.023 5.176 4.023 3.086 0 5.215-2.148 5.215-5.215 0-3.125-2.129-5.312-5.176-5.312-2.129 0-3.965.976-4.941 2.597h-5.274l1.387-16.211h17.929v4.688h-13.3l-.645 7.715h.117c1.153-1.895 3.399-3.086 6.27-3.086 5.39 0 9.258 3.965 9.258 9.453 0 5.976-4.414 10.039-10.879 10.039zm-23.34-.625v-5.02h-14.023v-5.019c2.46-4.688 5.527-9.629 11.308-18.145h8.32v18.438h3.672v4.726h-3.672V156h-5.605zm-8.848-9.727v.157h8.965v-14.434h-.117c-4.102 6.016-6.563 9.863-8.848 14.277zM337.855 156v-22.773h-.117l-7.187 4.961v-5.313l7.285-5.059h5.859V156h-5.84zm-12.539.234a3.13 3.13 0 01-3.144-3.144 3.118 3.118 0 013.144-3.145 3.13 3.13 0 013.145 3.145 3.142 3.142 0 01-3.145 3.144zM309.242 156v-5.02h-14.023v-5.019c2.461-4.688 5.527-9.629 11.308-18.145h8.321v18.438h3.672v4.726h-3.672V156h-5.606zm-8.847-9.727v.157h8.964v-14.434h-.117c-4.101 6.016-6.562 9.863-8.847 14.277zm-18.75 10.352c-6.055 0-10.411-3.594-10.586-8.691h5.449c.332 2.382 2.441 4.023 5.176 4.023 3.086 0 5.214-2.148 5.214-5.215 0-3.125-2.128-5.312-5.175-5.312-2.129 0-3.965.976-4.942 2.597h-5.273l1.387-16.211h17.929v4.688h-13.301l-.644 7.715h.117c1.152-1.895 3.399-3.086 6.27-3.086 5.39 0 9.257 3.965 9.257 9.453 0 5.976-4.414 10.039-10.878 10.039zm-18.243-.391a3.13 3.13 0 01-3.144-3.144 3.118 3.118 0 013.144-3.145 3.13 3.13 0 013.145 3.145 3.142 3.142 0 01-3.145 3.144zm-18.3.391c-6.836 0-11.426-3.379-11.426-8.262 0-3.711 2.695-6.582 6.621-7.226v-.117c-3.281-.762-5.488-3.282-5.488-6.387 0-4.297 4.257-7.442 10.293-7.442 6.054 0 10.273 3.125 10.273 7.461 0 3.067-2.187 5.586-5.469 6.368v.117c3.946.664 6.621 3.535 6.621 7.246 0 4.883-4.648 8.242-11.425 8.242zm0-4.297c3.105 0 5.253-1.855 5.253-4.394s-2.148-4.395-5.253-4.395c-3.106 0-5.274 1.856-5.274 4.395 0 2.539 2.168 4.394 5.274 4.394zm0-13.086c2.597 0 4.453-1.64 4.453-3.887 0-2.265-1.856-3.906-4.453-3.906-2.618 0-4.454 1.66-4.454 3.906 0 2.247 1.836 3.887 4.454 3.887zm-25.43 17.403c-4.043 0-7.383-1.836-9.356-5.196-1.562-2.383-2.363-5.566-2.363-9.316 0-9.336 4.531-14.961 11.817-14.961 5.371 0 9.57 3.183 10.351 7.793h-5.801c-.566-1.875-2.382-3.125-4.59-3.125-3.925 0-6.308 3.769-6.171 10.137h.117c1.133-2.754 3.906-4.59 7.5-4.59 5.351 0 9.316 3.945 9.316 9.297 0 5.8-4.512 9.961-10.82 9.961zm-.059-4.707c2.871 0 5.137-2.247 5.137-5.079 0-2.91-2.168-5.039-5.117-5.039-2.93 0-5.156 2.129-5.156 4.981 0 2.871 2.246 5.137 5.136 5.137zm-18.281 4.296a3.13 3.13 0 01-3.144-3.144 3.118 3.118 0 013.144-3.145 3.13 3.13 0 013.145 3.145 3.143 3.143 0 01-3.145 3.144zm-28.047-19.941c0-5.332 4.258-9.102 10.41-9.102 5.938 0 10.02 3.438 10.02 8.145 0 3.516-2.344 6.152-5.449 9.238l-6.875 6.621v.117h12.714V156h-20.488v-3.965l10.625-10.234c2.852-2.852 3.731-4.278 3.731-6.231 0-2.109-1.856-3.789-4.473-3.789-2.734 0-4.746 1.914-4.746 4.512v.098h-5.469v-.098zm-14.961 20.332c-5.39 0-9.629-3.203-10.41-7.813h5.82c.567 1.895 2.422 3.145 4.688 3.145 3.887 0 6.25-3.691 6.094-10.156h-.118c-1.015 2.754-3.789 4.609-7.5 4.609-5.312 0-9.355-3.945-9.355-9.297 0-5.801 4.57-9.941 10.859-9.941 4.063 0 7.442 1.816 9.395 5.156 1.562 2.402 2.363 5.567 2.363 9.336 0 9.336-4.414 14.961-11.836 14.961zm.117-14.648c2.93 0 5.157-2.149 5.157-5 0-2.872-2.246-5.098-5.118-5.098-2.89 0-5.175 2.226-5.175 5.059 0 2.89 2.207 5.039 5.136 5.039z" fill="#741F9B"/><path d="M430.48 246.375c-3.632 0-6.246-2.156-6.351-5.215h3.269c.2 1.43 1.465 2.414 3.106 2.414 1.851 0 3.129-1.289 3.129-3.129 0-1.875-1.278-3.187-3.106-3.187-1.277 0-2.379.586-2.965 1.558h-3.164l.832-9.726h10.758v2.812h-7.98l-.387 4.629h.07c.692-1.136 2.039-1.851 3.762-1.851 3.235 0 5.555 2.379 5.555 5.672 0 3.586-2.649 6.023-6.528 6.023zM416.477 246v-3.012h-8.415v-3.011c1.477-2.813 3.317-5.778 6.786-10.887h4.992v11.062h2.203v2.836h-2.203V246h-3.363zm-5.309-5.836v.094h5.379v-8.66h-.07c-2.461 3.609-3.938 5.918-5.309 8.566zM401.113 246v-13.664h-.07l-4.313 2.976v-3.187l4.372-3.035h3.515V246h-3.504zm-7.523.141a1.878 1.878 0 01-1.887-1.887 1.87 1.87 0 011.887-1.887c1.043 0 1.887.832 1.887 1.887a1.886 1.886 0 01-1.887 1.887zm-9.645-.141v-3.012h-8.414v-3.011c1.477-2.813 3.317-5.778 6.785-10.887h4.993v11.062h2.203v2.836h-2.203V246h-3.364zm-5.308-5.836v.094h5.379v-8.66h-.071c-2.461 3.609-3.937 5.918-5.308 8.566zm-11.25 6.211c-3.633 0-6.246-2.156-6.352-5.215h3.27c.199 1.43 1.465 2.414 3.105 2.414 1.852 0 3.129-1.289 3.129-3.129 0-1.875-1.277-3.187-3.105-3.187-1.278 0-2.379.586-2.965 1.558h-3.164l.832-9.726h10.758v2.812h-7.981l-.387 4.629h.071c.691-1.136 2.039-1.851 3.761-1.851 3.235 0 5.555 2.379 5.555 5.672 0 3.586-2.648 6.023-6.527 6.023zm-10.946-.234a1.878 1.878 0 01-1.886-1.887 1.87 1.87 0 011.886-1.887c1.043 0 1.887.832 1.887 1.887a1.886 1.886 0 01-1.887 1.887zm-10.98.234c-4.102 0-6.856-2.027-6.856-4.957 0-2.227 1.618-3.949 3.973-4.336v-.07c-1.969-.457-3.293-1.969-3.293-3.832 0-2.578 2.555-4.465 6.176-4.465 3.633 0 6.164 1.875 6.164 4.476 0 1.84-1.313 3.352-3.281 3.821v.07c2.367.398 3.972 2.121 3.972 4.348 0 2.929-2.789 4.945-6.855 4.945zm0-2.578c1.863 0 3.152-1.113 3.152-2.637 0-1.523-1.289-2.637-3.152-2.637-1.863 0-3.164 1.114-3.164 2.637 0 1.524 1.301 2.637 3.164 2.637zm0-7.852c1.559 0 2.672-.984 2.672-2.332 0-1.359-1.113-2.343-2.672-2.343-1.57 0-2.672.996-2.672 2.343 0 1.348 1.102 2.332 2.672 2.332zm-15.258 10.442c-2.426 0-4.43-1.102-5.613-3.117-.938-1.43-1.418-3.34-1.418-5.59 0-5.602 2.719-8.977 7.09-8.977 3.222 0 5.742 1.91 6.211 4.676h-3.481c-.34-1.125-1.43-1.875-2.754-1.875-2.355 0-3.785 2.262-3.703 6.082h.07c.68-1.652 2.344-2.754 4.5-2.754 3.211 0 5.59 2.367 5.59 5.578 0 3.481-2.707 5.977-6.492 5.977zm-.035-2.825c1.723 0 3.082-1.347 3.082-3.046 0-1.746-1.301-3.024-3.07-3.024-1.758 0-3.094 1.278-3.094 2.988a3.049 3.049 0 003.082 3.082zm-10.969 2.579a1.879 1.879 0 01-1.887-1.887c0-1.055.833-1.887 1.887-1.887 1.043 0 1.887.832 1.887 1.887a1.886 1.886 0 01-1.887 1.887zm-16.828-11.965c0-3.199 2.555-5.461 6.246-5.461 3.563 0 6.012 2.062 6.012 4.887 0 2.109-1.406 3.691-3.27 5.543l-4.125 3.972v.071h7.629V246H302.57v-2.379l6.375-6.141c1.711-1.71 2.239-2.566 2.239-3.738 0-1.265-1.114-2.273-2.684-2.273-1.641 0-2.848 1.148-2.848 2.707v.058h-3.281v-.058zm-8.976 12.199c-3.235 0-5.778-1.922-6.247-4.687h3.493c.339 1.136 1.453 1.886 2.812 1.886 2.332 0 3.75-2.215 3.656-6.094h-.07c-.609 1.653-2.273 2.766-4.5 2.766-3.187 0-5.613-2.367-5.613-5.578 0-3.48 2.742-5.965 6.515-5.965 2.438 0 4.465 1.09 5.637 3.094.938 1.441 1.418 3.34 1.418 5.601 0 5.602-2.648 8.977-7.101 8.977zm.07-8.789c1.758 0 3.094-1.289 3.094-3 0-1.723-1.348-3.059-3.071-3.059-1.734 0-3.105 1.336-3.105 3.035 0 1.735 1.324 3.024 3.082 3.024zM196.48 87.375c-3.632 0-6.246-2.156-6.351-5.215h3.269c.2 1.43 1.465 2.414 3.106 2.414 1.851 0 3.129-1.289 3.129-3.129 0-1.875-1.278-3.187-3.106-3.187-1.277 0-2.379.586-2.965 1.558h-3.164l.832-9.726h10.758v2.812h-7.98l-.387 4.63h.07c.692-1.138 2.039-1.852 3.762-1.852 3.235 0 5.555 2.379 5.555 5.672 0 3.585-2.649 6.023-6.528 6.023zM182.477 87v-3.012h-8.415v-3.011c1.477-2.813 3.317-5.778 6.786-10.887h4.992v11.062h2.203v2.836h-2.203V87h-3.363zm-5.309-5.836v.094h5.379v-8.66h-.07c-2.461 3.609-3.938 5.918-5.309 8.566zM167.113 87V73.336h-.07l-4.313 2.977v-3.188l4.372-3.035h3.515V87h-3.504zm-7.523.14a1.878 1.878 0 01-1.887-1.886 1.87 1.87 0 011.887-1.887c1.043 0 1.887.832 1.887 1.887a1.886 1.886 0 01-1.887 1.887zm-9.645-.14v-3.012h-8.414v-3.011c1.477-2.813 3.317-5.778 6.785-10.887h4.993v11.062h2.203v2.836h-2.203V87h-3.364zm-5.308-5.836v.094h5.379v-8.66h-.071c-2.461 3.609-3.937 5.918-5.308 8.566zm-11.25 6.211c-3.633 0-6.246-2.156-6.352-5.215h3.27c.199 1.43 1.465 2.414 3.105 2.414 1.852 0 3.129-1.289 3.129-3.129 0-1.875-1.277-3.187-3.105-3.187-1.278 0-2.379.586-2.965 1.558h-3.164l.832-9.726h10.758v2.812h-7.981l-.387 4.63h.071c.691-1.138 2.039-1.852 3.761-1.852 3.235 0 5.555 2.379 5.555 5.672 0 3.585-2.648 6.023-6.527 6.023zm-10.946-.235a1.878 1.878 0 01-1.886-1.886 1.87 1.87 0 011.886-1.887c1.043 0 1.887.832 1.887 1.887a1.886 1.886 0 01-1.887 1.887zm-10.98.235c-4.102 0-6.856-2.027-6.856-4.957 0-2.227 1.618-3.95 3.973-4.336v-.07c-1.969-.457-3.293-1.969-3.293-3.832 0-2.578 2.555-4.465 6.176-4.465 3.633 0 6.164 1.875 6.164 4.476 0 1.84-1.313 3.352-3.281 3.82v.071c2.367.399 3.972 2.121 3.972 4.348 0 2.93-2.789 4.945-6.855 4.945zm0-2.578c1.863 0 3.152-1.113 3.152-2.637 0-1.523-1.289-2.637-3.152-2.637-1.863 0-3.164 1.114-3.164 2.637 0 1.524 1.301 2.637 3.164 2.637zm0-7.852c1.559 0 2.672-.984 2.672-2.332 0-1.36-1.113-2.344-2.672-2.344-1.57 0-2.672.997-2.672 2.344 0 1.348 1.102 2.332 2.672 2.332zM96.203 87.387c-2.426 0-4.43-1.102-5.613-3.118-.938-1.43-1.418-3.34-1.418-5.59 0-5.6 2.719-8.976 7.09-8.976 3.222 0 5.742 1.91 6.211 4.676h-3.48c-.34-1.125-1.43-1.875-2.755-1.875-2.355 0-3.785 2.262-3.703 6.082h.07c.68-1.652 2.344-2.754 4.5-2.754 3.211 0 5.59 2.367 5.59 5.578 0 3.48-2.707 5.977-6.492 5.977zm-.035-2.825c1.723 0 3.082-1.347 3.082-3.046 0-1.747-1.3-3.024-3.07-3.024-1.758 0-3.094 1.277-3.094 2.989a3.049 3.049 0 003.082 3.082zM85.2 87.14a1.878 1.878 0 01-1.888-1.886 1.87 1.87 0 011.887-1.887c1.043 0 1.887.832 1.887 1.887a1.885 1.885 0 01-1.887 1.887zM68.371 75.176c0-3.2 2.555-5.461 6.246-5.461 3.563 0 6.012 2.062 6.012 4.887 0 2.109-1.406 3.691-3.27 5.542l-4.125 3.973v.07h7.63V87H68.57v-2.379l6.375-6.14c1.711-1.712 2.239-2.567 2.239-3.739 0-1.265-1.114-2.273-2.684-2.273-1.64 0-2.848 1.148-2.848 2.707v.058h-3.28v-.058zm-8.976 12.199c-3.235 0-5.778-1.922-6.247-4.688h3.493c.34 1.137 1.453 1.887 2.812 1.887 2.332 0 3.75-2.215 3.656-6.093h-.07c-.61 1.652-2.273 2.765-4.5 2.765-3.187 0-5.613-2.367-5.613-5.578 0-3.48 2.742-5.965 6.515-5.965 2.438 0 4.465 1.09 5.637 3.094.938 1.441 1.418 3.34 1.418 5.601 0 5.602-2.648 8.977-7.101 8.977zm.07-8.79c1.758 0 3.094-1.288 3.094-3 0-1.722-1.348-3.058-3.07-3.058-1.735 0-3.106 1.336-3.106 3.035 0 1.735 1.324 3.024 3.082 3.024zM168.28 232.219c-2.119 0-3.643-1.258-3.705-3.042h1.907c.117.834.855 1.408 1.812 1.408 1.08 0 1.825-.752 1.825-1.825 0-1.094-.745-1.86-1.811-1.86-.746 0-1.388.342-1.73.91h-1.846l.486-5.674h6.275v1.64h-4.655l-.226 2.701h.041c.404-.664 1.19-1.081 2.195-1.081 1.886 0 3.24 1.388 3.24 3.309 0 2.092-1.545 3.514-3.808 3.514zm-8.169-.219v-1.757h-4.908v-1.757c.861-1.64 1.935-3.37 3.958-6.35h2.912v6.453h1.285v1.654h-1.285V232h-1.962zm-3.096-3.404v.054h3.137v-5.051h-.041c-1.435 2.105-2.297 3.452-3.096 4.997zM151.149 232v-7.971h-.041l-2.515 1.737v-1.86l2.55-1.77h2.05V232h-2.044zm-4.388.082a1.096 1.096 0 01-1.101-1.101c0-.615.486-1.1 1.101-1.1.608 0 1.1.485 1.1 1.1a1.1 1.1 0 01-1.1 1.101zm-5.626-.082v-1.757h-4.908v-1.757c.861-1.64 1.934-3.37 3.958-6.35h2.912v6.453h1.285v1.654h-1.285V232h-1.962zm-3.097-3.404v.054h3.138v-5.051h-.041c-1.436 2.105-2.297 3.452-3.097 4.997zm-6.562 3.623c-2.12 0-3.644-1.258-3.705-3.042h1.907c.116.834.854 1.408 1.811 1.408 1.08 0 1.825-.752 1.825-1.825 0-1.094-.745-1.86-1.811-1.86-.745 0-1.388.342-1.73.91h-1.845l.485-5.674h6.275v1.64h-4.655l-.225 2.701h.041c.403-.664 1.189-1.081 2.194-1.081 1.887 0 3.24 1.388 3.24 3.309 0 2.092-1.545 3.514-3.807 3.514zm-6.385-.137a1.096 1.096 0 01-1.101-1.101c0-.615.486-1.1 1.101-1.1.608 0 1.1.485 1.1 1.1a1.1 1.1 0 01-1.1 1.101zm-6.405.137c-2.393 0-3.999-1.183-3.999-2.892 0-1.299.943-2.304 2.317-2.529v-.041c-1.149-.267-1.921-1.149-1.921-2.236 0-1.503 1.49-2.604 3.603-2.604 2.119 0 3.595 1.094 3.595 2.611 0 1.074-.765 1.955-1.914 2.229v.041c1.381.232 2.318 1.237 2.318 2.536 0 1.709-1.627 2.885-3.999 2.885zm0-1.504c1.086 0 1.838-.65 1.838-1.538 0-.889-.752-1.538-1.838-1.538-1.087 0-1.846.649-1.846 1.538 0 .888.759 1.538 1.846 1.538zm0-4.58c.909 0 1.558-.574 1.558-1.361 0-.793-.649-1.367-1.558-1.367-.916 0-1.559.581-1.559 1.367 0 .787.643 1.361 1.559 1.361zm-8.901 6.091c-1.415 0-2.584-.643-3.274-1.819-.547-.834-.827-1.948-.827-3.261 0-3.267 1.586-5.236 4.135-5.236 1.88 0 3.35 1.114 3.623 2.728h-2.03c-.198-.657-.834-1.094-1.606-1.094-1.374 0-2.208 1.319-2.16 3.548h.041c.396-.964 1.367-1.607 2.625-1.607 1.873 0 3.26 1.381 3.26 3.254 0 2.031-1.579 3.487-3.787 3.487zm-.02-1.648a1.773 1.773 0 001.797-1.777c0-1.019-.758-1.764-1.791-1.764-1.025 0-1.804.745-1.804 1.743 0 1.005.786 1.798 1.798 1.798zm-6.399 1.504c-.615 0-1.1-.492-1.1-1.101 0-.615.485-1.1 1.1-1.1.609 0 1.101.485 1.101 1.1a1.1 1.1 0 01-1.101 1.101zm-9.816-6.979c0-1.867 1.49-3.186 3.643-3.186 2.079 0 3.507 1.203 3.507 2.851 0 1.23-.82 2.153-1.907 3.233l-2.406 2.317v.041h4.45V232h-7.171v-1.388l3.719-3.582c.998-.998 1.305-1.497 1.305-2.18 0-.739-.649-1.327-1.565-1.327-.957 0-1.661.67-1.661 1.58v.034H93.55v-.034zm-5.236 7.116c-1.887 0-3.37-1.121-3.644-2.735h2.037c.198.663.848 1.101 1.64 1.101 1.361 0 2.188-1.292 2.134-3.555h-.042c-.355.964-1.326 1.614-2.624 1.614-1.86 0-3.275-1.381-3.275-3.254 0-2.031 1.6-3.48 3.8-3.48 1.423 0 2.605.636 3.289 1.805.547.841.827 1.948.827 3.267 0 3.268-1.545 5.237-4.142 5.237zm.04-5.127c1.026 0 1.805-.752 1.805-1.75a1.765 1.765 0 00-1.79-1.784c-1.013 0-1.812.779-1.812 1.77 0 1.012.772 1.764 1.797 1.764zM441.28 56.219c-2.119 0-3.643-1.258-3.705-3.042h1.907c.117.834.855 1.408 1.812 1.408 1.08 0 1.825-.752 1.825-1.825 0-1.094-.745-1.86-1.811-1.86-.746 0-1.388.342-1.73.91h-1.846l.486-5.674h6.275v1.64h-4.655l-.226 2.7h.041c.404-.663 1.19-1.08 2.195-1.08 1.886 0 3.24 1.388 3.24 3.31 0 2.09-1.545 3.513-3.808 3.513zM433.111 56v-1.757h-4.908v-1.757c.861-1.64 1.935-3.37 3.958-6.35h2.912v6.453h1.285v1.654h-1.285V56h-1.962zm-3.096-3.404v.054h3.137V47.6h-.041c-1.435 2.105-2.297 3.452-3.096 4.997zM424.149 56v-7.97h-.041l-2.515 1.736v-1.86l2.55-1.77h2.05V56h-2.044zm-4.388.082a1.096 1.096 0 01-1.101-1.1c0-.616.486-1.101 1.101-1.101.608 0 1.1.485 1.1 1.1a1.1 1.1 0 01-1.1 1.101zM414.135 56v-1.757h-4.908v-1.757c.861-1.64 1.934-3.37 3.958-6.35h2.912v6.453h1.285v1.654h-1.285V56h-1.962zm-3.097-3.404v.054h3.138V47.6h-.041c-1.436 2.105-2.297 3.452-3.097 4.997zm-6.562 3.623c-2.12 0-3.644-1.258-3.705-3.042h1.907c.116.834.854 1.408 1.811 1.408 1.08 0 1.825-.752 1.825-1.825 0-1.094-.745-1.86-1.811-1.86-.745 0-1.388.342-1.73.91h-1.845l.485-5.674h6.275v1.64h-4.655l-.225 2.7h.041c.403-.663 1.189-1.08 2.194-1.08 1.887 0 3.24 1.388 3.24 3.31 0 2.09-1.545 3.513-3.807 3.513zm-6.385-.137a1.096 1.096 0 01-1.101-1.1c0-.616.486-1.101 1.101-1.101.608 0 1.1.485 1.1 1.1a1.1 1.1 0 01-1.1 1.101zm-6.405.137c-2.393 0-3.999-1.183-3.999-2.892 0-1.299.943-2.304 2.317-2.53v-.04c-1.149-.267-1.921-1.149-1.921-2.235 0-1.504 1.49-2.605 3.603-2.605 2.119 0 3.595 1.094 3.595 2.611 0 1.074-.765 1.955-1.914 2.229v.04c1.381.233 2.318 1.238 2.318 2.537 0 1.709-1.627 2.885-3.999 2.885zm0-1.504c1.086 0 1.838-.65 1.838-1.538 0-.889-.752-1.538-1.838-1.538-1.087 0-1.846.65-1.846 1.538s.759 1.538 1.846 1.538zm0-4.58c.909 0 1.558-.575 1.558-1.36 0-.794-.649-1.368-1.558-1.368-.916 0-1.559.581-1.559 1.367s.643 1.36 1.559 1.36zm-8.901 6.091c-1.415 0-2.584-.643-3.274-1.819-.547-.834-.827-1.948-.827-3.26 0-3.268 1.586-5.237 4.135-5.237 1.88 0 3.35 1.114 3.623 2.728h-2.03c-.198-.657-.834-1.094-1.606-1.094-1.374 0-2.208 1.32-2.16 3.548h.041c.396-.964 1.367-1.607 2.625-1.607 1.873 0 3.26 1.381 3.26 3.254 0 2.03-1.579 3.487-3.787 3.487zm-.02-1.648a1.773 1.773 0 001.797-1.777c0-1.019-.758-1.764-1.791-1.764-1.025 0-1.804.745-1.804 1.743 0 1.005.786 1.798 1.798 1.798zm-6.399 1.504c-.615 0-1.1-.492-1.1-1.1a1.09 1.09 0 011.1-1.101c.609 0 1.101.485 1.101 1.1a1.1 1.1 0 01-1.101 1.101zm-9.816-6.98c0-1.866 1.49-3.185 3.643-3.185 2.078 0 3.507 1.203 3.507 2.85 0 1.231-.82 2.154-1.907 3.234l-2.406 2.317v.041h4.45V56h-7.171v-1.388l3.719-3.582c.998-.998 1.305-1.497 1.305-2.18 0-.739-.649-1.327-1.565-1.327-.957 0-1.661.67-1.661 1.58v.034h-1.914v-.035zm-5.237 7.117c-1.886 0-3.37-1.121-3.643-2.735h2.037c.198.663.848 1.101 1.641 1.101 1.36 0 2.187-1.292 2.132-3.555h-.041c-.355.964-1.326 1.614-2.625 1.614-1.859 0-3.274-1.381-3.274-3.254 0-2.03 1.6-3.48 3.801-3.48 1.422 0 2.604.636 3.288 1.805.547.84.827 1.948.827 3.267 0 3.268-1.545 5.237-4.143 5.237zm.041-5.127c1.026 0 1.805-.752 1.805-1.75a1.765 1.765 0 00-1.791-1.784c-1.012 0-1.811.779-1.811 1.77 0 1.012.772 1.764 1.797 1.764zm177.886 98.096c-1.816 0-3.123-1.079-3.176-2.608h1.635c.1.715.733 1.207 1.553 1.207.926 0 1.564-.644 1.564-1.564 0-.938-.638-1.594-1.552-1.594-.639 0-1.19.293-1.483.779h-1.582l.416-4.863h5.379v1.406h-3.99l-.193 2.315h.035c.345-.569 1.019-.926 1.881-.926 1.617 0 2.777 1.189 2.777 2.836 0 1.793-1.324 3.012-3.264 3.012zm-7.002-.188v-1.506h-4.207v-1.506c.739-1.406 1.658-2.888 3.393-5.443h2.496v5.531h1.101v1.418h-1.101V149h-1.682zm-2.654-2.918v.047h2.689v-4.33h-.035c-1.23 1.805-1.968 2.959-2.654 4.283zM524.557 149v-6.832h-.036l-2.156 1.488v-1.594l2.186-1.517h1.758V149h-1.752zm-3.762.07a.939.939 0 01-.943-.943c0-.527.416-.943.943-.943a.943.943 0 110 1.886zm-4.822-.07v-1.506h-4.207v-1.506c.738-1.406 1.658-2.888 3.392-5.443h2.496v5.531h1.102v1.418h-1.102V149h-1.681zm-2.655-2.918v.047h2.69v-4.33h-.035c-1.231 1.805-1.969 2.959-2.655 4.283zm-5.625 3.106c-1.816 0-3.123-1.079-3.175-2.608h1.634c.1.715.733 1.207 1.553 1.207.926 0 1.565-.644 1.565-1.564 0-.938-.639-1.594-1.553-1.594-.639 0-1.19.293-1.483.779h-1.582l.416-4.863h5.379v1.406h-3.99l-.193 2.315h.035c.346-.569 1.019-.926 1.881-.926 1.617 0 2.777 1.189 2.777 2.836 0 1.793-1.324 3.012-3.264 3.012zm-5.472-.118a.94.94 0 01-.944-.943c0-.527.416-.943.944-.943a.943.943 0 110 1.886zm-5.491.118c-2.05 0-3.427-1.014-3.427-2.479 0-1.113.808-1.975 1.986-2.168v-.035c-.984-.229-1.646-.985-1.646-1.916 0-1.289 1.277-2.233 3.087-2.233 1.817 0 3.082.938 3.082 2.239 0 .92-.656 1.675-1.64 1.91v.035c1.183.199 1.986 1.061 1.986 2.174 0 1.465-1.394 2.473-3.428 2.473zm0-1.29c.932 0 1.577-.556 1.577-1.318s-.645-1.318-1.577-1.318c-.931 0-1.582.556-1.582 1.318s.651 1.318 1.582 1.318zm0-3.925c.78 0 1.336-.493 1.336-1.166 0-.68-.556-1.172-1.336-1.172-.785 0-1.335.498-1.335 1.172 0 .673.55 1.166 1.335 1.166zm-7.628 5.22c-1.213 0-2.215-.55-2.807-1.558-.469-.715-.709-1.67-.709-2.795 0-2.801 1.359-4.488 3.545-4.488 1.611 0 2.871.955 3.105 2.337h-1.74c-.17-.562-.715-.937-1.377-.937-1.178 0-1.892 1.131-1.851 3.041h.035c.34-.826 1.172-1.377 2.25-1.377 1.605 0 2.795 1.184 2.795 2.789 0 1.74-1.354 2.988-3.246 2.988zm-.018-1.412a1.52 1.52 0 001.541-1.523c0-.873-.65-1.512-1.535-1.512-.879 0-1.547.639-1.547 1.494 0 .862.674 1.541 1.541 1.541zm-5.484 1.289a.94.94 0 01-.944-.943c0-.527.416-.943.944-.943a.943.943 0 110 1.886zm-8.414-5.982c0-1.6 1.277-2.731 3.123-2.731 1.781 0 3.005 1.032 3.005 2.444 0 1.054-.703 1.845-1.634 2.771l-2.063 1.987v.035h3.815V149h-6.147v-1.189l3.188-3.071c.855-.855 1.119-1.283 1.119-1.869 0-.633-.557-1.137-1.342-1.137-.82 0-1.424.575-1.424 1.354v.029h-1.64v-.029zm-4.489 6.1c-1.617 0-2.888-.961-3.123-2.344h1.746c.17.568.727.943 1.407.943 1.166 0 1.875-1.107 1.828-3.047h-.035c-.305.826-1.137 1.383-2.25 1.383-1.594 0-2.807-1.184-2.807-2.789 0-1.74 1.371-2.982 3.258-2.982 1.218 0 2.232.544 2.818 1.546.469.721.709 1.67.709 2.801 0 2.801-1.324 4.489-3.551 4.489zm.035-4.395c.879 0 1.547-.645 1.547-1.5 0-.861-.674-1.529-1.535-1.529-.867 0-1.553.668-1.553 1.517 0 .867.663 1.512 1.541 1.512zM72.24 172.188c-1.816 0-3.123-1.079-3.175-2.608h1.634c.1.715.733 1.207 1.553 1.207.926 0 1.564-.644 1.564-1.564 0-.938-.638-1.594-1.552-1.594-.639 0-1.19.293-1.483.779H69.2l.416-4.863h5.38v1.406h-3.991l-.194 2.315h.036c.345-.569 1.02-.926 1.88-.926 1.618 0 2.778 1.189 2.778 2.836 0 1.793-1.324 3.012-3.264 3.012zM65.238 172v-1.506h-4.207v-1.506c.739-1.406 1.659-2.888 3.393-5.443h2.496v5.531h1.102v1.418H66.92V172h-1.682zm-2.654-2.918v.047h2.69v-4.33h-.036c-1.23 1.805-1.968 2.959-2.654 4.283zM57.557 172v-6.832h-.035l-2.157 1.488v-1.594l2.186-1.517h1.758V172h-1.752zm-3.762.07a.939.939 0 01-.943-.943c0-.527.416-.943.943-.943a.943.943 0 110 1.886zm-4.822-.07v-1.506h-4.207v-1.506c.738-1.406 1.658-2.888 3.392-5.443h2.496v5.531h1.102v1.418h-1.102V172h-1.681zm-2.655-2.918v.047h2.69v-4.33h-.035c-1.23 1.805-1.97 2.959-2.655 4.283zm-5.625 3.106c-1.816 0-3.123-1.079-3.175-2.608h1.634c.1.715.733 1.207 1.553 1.207.926 0 1.565-.644 1.565-1.564 0-.938-.64-1.594-1.553-1.594-.639 0-1.19.293-1.483.779h-1.582l.416-4.863h5.38v1.406h-3.991l-.193 2.315h.035c.346-.569 1.02-.926 1.88-.926 1.618 0 2.778 1.189 2.778 2.836 0 1.793-1.324 3.012-3.264 3.012zm-5.473-.118a.94.94 0 01-.943-.943c0-.527.416-.943.944-.943a.943.943 0 110 1.886zm-5.49.118c-2.05 0-3.427-1.014-3.427-2.479 0-1.113.808-1.975 1.986-2.168v-.035c-.984-.229-1.646-.985-1.646-1.916 0-1.289 1.277-2.233 3.087-2.233 1.817 0 3.082.938 3.082 2.239 0 .92-.656 1.675-1.64 1.91v.035c1.183.199 1.986 1.061 1.986 2.174 0 1.465-1.394 2.473-3.428 2.473zm0-1.29c.932 0 1.577-.556 1.577-1.318s-.645-1.318-1.576-1.318c-.932 0-1.583.556-1.583 1.318s.65 1.318 1.582 1.318zm0-3.925c.78 0 1.336-.493 1.336-1.166 0-.68-.556-1.172-1.335-1.172-.786 0-1.337.498-1.337 1.172 0 .673.551 1.166 1.337 1.166zm-7.628 5.22c-1.213 0-2.215-.55-2.807-1.558-.469-.715-.71-1.67-.71-2.795 0-2.801 1.36-4.488 3.546-4.488 1.611 0 2.871.955 3.105 2.337h-1.74c-.17-.562-.715-.937-1.377-.937-1.178 0-1.892 1.131-1.851 3.041h.035c.34-.826 1.172-1.377 2.25-1.377 1.605 0 2.795 1.184 2.795 2.789 0 1.74-1.354 2.988-3.246 2.988zm-.018-1.412a1.52 1.52 0 001.541-1.523c0-.873-.65-1.512-1.535-1.512-.88 0-1.547.639-1.547 1.494 0 .862.674 1.541 1.541 1.541zM16.6 172.07a.94.94 0 01-.944-.943c0-.527.416-.943.944-.943a.943.943 0 110 1.886zm-8.414-5.982c0-1.6 1.277-2.731 3.123-2.731 1.78 0 3.006 1.032 3.006 2.444 0 1.054-.704 1.845-1.635 2.771l-2.063 1.987v.035h3.815V172H8.285v-1.189l3.188-3.071c.855-.855 1.119-1.283 1.119-1.869 0-.633-.557-1.137-1.342-1.137-.82 0-1.424.575-1.424 1.354v.029h-1.64v-.029zm-4.489 6.1c-1.617 0-2.888-.961-3.123-2.344H2.32c.17.568.727.943 1.407.943 1.166 0 1.875-1.107 1.828-3.047H5.52c-.305.826-1.137 1.383-2.25 1.383-1.594 0-2.807-1.184-2.807-2.789 0-1.74 1.371-2.982 3.258-2.982 1.218 0 2.232.544 2.818 1.546.469.721.71 1.67.71 2.801 0 2.801-1.325 4.489-3.552 4.489zm.035-4.395c.88 0 1.547-.645 1.547-1.5 0-.861-.674-1.529-1.535-1.529-.867 0-1.553.668-1.553 1.517 0 .867.663 1.512 1.541 1.512z" fill="#CFCFCF"/><circle cx="113" cy="207" r="93" fill="#D9D9D9" fill-opacity=".2"/><circle cx="426.5" cy="71.5" r="57.5" fill="#D9D9D9" fill-opacity=".2"/></svg>