<svg width="46" height="46" viewBox="0 0 46 46" fill="none" xmlns="http://www.w3.org/2000/svg">
<path d="M1.7685 14.2614L17.9691 24.6531V30.9062C17.9691 31.0969 18.0448 31.2797 18.1796 31.4145C18.3144 31.5493 18.4973 31.625 18.6879 31.625H27.3129C27.5035 31.625 27.6863 31.5493 27.8211 31.4145C27.9559 31.2797 28.0316 31.0969 28.0316 30.9062V24.6531L44.2323 14.2614C44.3631 14.1776 44.4633 14.0536 44.5177 13.908C44.5722 13.7625 44.5779 13.6032 44.5342 13.4541C44.4905 13.3049 44.3996 13.174 44.2752 13.0808C44.1508 12.9877 43.9995 12.9374 43.8441 12.9375H2.15663C2.00121 12.9374 1.84996 12.9877 1.72555 13.0808C1.60113 13.174 1.51025 13.3049 1.46653 13.4541C1.42281 13.6032 1.4286 13.7625 1.48305 13.908C1.53749 14.0536 1.63764 14.1776 1.7685 14.2614ZM41.3918 14.375L26.9247 23.6526C26.8233 23.7177 26.7399 23.8072 26.6821 23.913C26.6243 24.0187 26.5941 24.1373 26.5941 24.2578V30.1875H19.4066V24.2578C19.4067 24.1373 19.3764 24.0187 19.3186 23.913C19.2609 23.8072 19.1774 23.7177 19.076 23.6526L4.609 14.375H41.3918Z" fill="black"/>
<path d="M23 33.0625C21.8628 33.0625 20.7511 33.3997 19.8055 34.0316C18.8599 34.6634 18.1229 35.5614 17.6877 36.6121C17.2525 37.6627 17.1386 38.8189 17.3605 39.9343C17.5824 41.0497 18.13 42.0742 18.9341 42.8784C19.7383 43.6825 20.7628 44.2302 21.8782 44.452C22.9936 44.6739 24.1498 44.56 25.2004 44.1248C26.2511 43.6896 27.1491 42.9526 27.781 42.007C28.4128 41.0614 28.75 39.9497 28.75 38.8125C28.7483 37.288 28.1419 35.8265 27.064 34.7485C25.986 33.6706 24.5245 33.0642 23 33.0625ZM23 43.125C22.1471 43.125 21.3133 42.8721 20.6041 42.3982C19.8949 41.9243 19.3422 41.2508 19.0158 40.4628C18.6894 39.6748 18.604 38.8077 18.7704 37.9712C18.9368 37.1346 19.3475 36.3662 19.9506 35.7631C20.5537 35.16 21.3221 34.7493 22.1587 34.5829C22.9952 34.4165 23.8623 34.5019 24.6503 34.8283C25.4383 35.1547 26.1119 35.7074 26.5857 36.4166C27.0596 37.1258 27.3125 37.9596 27.3125 38.8125C27.3114 39.9559 26.8566 41.0521 26.0481 41.8606C25.2396 42.6691 24.1434 43.1239 23 43.125Z" fill="black"/>
<path d="M22.7719 39.2337L21.2431 38.2145L20.4453 39.4105L22.6016 40.848C22.7198 40.9265 22.8585 40.9685 23.0005 40.9688C23.0536 40.9687 23.1067 40.9629 23.1586 40.9515C23.2533 40.9301 23.3428 40.8897 23.4215 40.8328C23.5001 40.7758 23.5665 40.7035 23.6164 40.6202L25.7727 37.0264L24.5408 36.2861L22.7719 39.2337Z" fill="black"/>
<path d="M38.8125 28.75C37.6753 28.75 36.5636 29.0872 35.618 29.7191C34.6724 30.3509 33.9354 31.2489 33.5002 32.2996C33.065 33.3502 32.9511 34.5064 33.173 35.6218C33.3949 36.7372 33.9425 37.7617 34.7466 38.5659C35.5508 39.37 36.5753 39.9177 37.6907 40.1395C38.8061 40.3614 39.9623 40.2475 41.0129 39.8123C42.0636 39.3771 42.9616 38.6401 43.5935 37.6945C44.2253 36.7489 44.5625 35.6372 44.5625 34.5C44.5608 32.9755 43.9544 31.514 42.8765 30.436C41.7985 29.3581 40.337 28.7517 38.8125 28.75ZM38.8125 38.8125C37.9596 38.8125 37.1258 38.5596 36.4166 38.0857C35.7074 37.6118 35.1547 36.9383 34.8283 36.1503C34.5019 35.3623 34.4165 34.4952 34.5829 33.6587C34.7493 32.8221 35.16 32.0537 35.7631 31.4506C36.3662 30.8475 37.1346 30.4368 37.9712 30.2704C38.8077 30.104 39.6748 30.1894 40.4628 30.5158C41.2508 30.8422 41.9244 31.3949 42.3982 32.1041C42.8721 32.8133 43.125 33.6471 43.125 34.5C43.1239 35.6434 42.6691 36.7396 41.8606 37.5481C41.0521 38.3566 39.9559 38.8114 38.8125 38.8125Z" fill="black"/>
<path d="M38.5844 34.9212L37.0556 33.902L36.2578 35.098L38.4141 36.5355C38.5323 36.614 38.671 36.656 38.813 36.6563C38.8661 36.6562 38.9192 36.6504 38.9711 36.639C39.0658 36.6176 39.1553 36.5772 39.234 36.5203C39.3126 36.4633 39.379 36.391 39.4289 36.3077L41.5852 32.7139L40.3533 31.9736L38.5844 34.9212Z" fill="black"/>
<path d="M7.1875 28.75C6.05026 28.75 4.93856 29.0872 3.99297 29.7191C3.04739 30.3509 2.3104 31.2489 1.8752 32.2996C1.43999 33.3502 1.32612 34.5064 1.54799 35.6218C1.76985 36.7372 2.31749 37.7617 3.12164 38.5659C3.92579 39.37 4.95034 39.9177 6.06573 40.1395C7.18112 40.3614 8.33726 40.2475 9.38793 39.8123C10.4386 39.3771 11.3366 38.6401 11.9685 37.6945C12.6003 36.7489 12.9375 35.6372 12.9375 34.5C12.9358 32.9755 12.3294 31.514 11.2515 30.436C10.1735 29.3581 8.71197 28.7517 7.1875 28.75ZM7.1875 38.8125C6.33457 38.8125 5.50079 38.5596 4.79161 38.0857C4.08242 37.6118 3.52968 36.9383 3.20327 36.1503C2.87687 35.3623 2.79147 34.4952 2.95787 33.6587C3.12426 32.8221 3.53499 32.0537 4.1381 31.4506C4.74122 30.8475 5.50963 30.4368 6.34618 30.2704C7.18272 30.104 8.04982 30.1894 8.83782 30.5158C9.62583 30.8422 10.2994 31.3949 10.7732 32.1041C11.2471 32.8133 11.5 33.6471 11.5 34.5C11.4989 35.6434 11.0441 36.7396 10.2356 37.5481C9.42714 38.3566 8.3309 38.8114 7.1875 38.8125Z" fill="black"/>
<path d="M6.95941 34.9212L5.43062 33.902L4.63281 35.098L6.78906 36.5355C6.90732 36.614 7.04604 36.656 7.18797 36.6563C7.24114 36.6562 7.29415 36.6504 7.34609 36.639C7.44084 36.6176 7.53026 36.5772 7.60895 36.5203C7.68764 36.4633 7.75397 36.391 7.80394 36.3077L9.96019 32.7139L8.72825 31.9736L6.95941 34.9212Z" fill="black"/>
<path d="M23.7188 11.5C24.2874 11.5 24.8432 11.3314 25.316 11.0155C25.7888 10.6996 26.1573 10.2506 26.3749 9.72522C26.5925 9.19988 26.6494 8.62181 26.5385 8.06412C26.4276 7.50642 26.1538 6.99415 25.7517 6.59207C25.3496 6.18999 24.8373 5.91618 24.2796 5.80524C23.7219 5.69431 23.1439 5.75125 22.6185 5.96885C22.0932 6.18645 21.6442 6.55495 21.3283 7.02774C21.0124 7.50053 20.8438 8.05638 20.8438 8.625C20.8438 9.3875 21.1467 10.1188 21.6858 10.6579C22.225 11.1971 22.9563 11.5 23.7188 11.5ZM23.7188 7.1875C24.0031 7.1875 24.281 7.27181 24.5174 7.42976C24.7538 7.58772 24.938 7.81223 25.0468 8.07489C25.1556 8.33756 25.1841 8.6266 25.1286 8.90544C25.0732 9.18429 24.9363 9.44043 24.7352 9.64147C24.5342 9.84251 24.278 9.97941 23.9992 10.0349C23.7203 10.0903 23.4313 10.0619 23.1686 9.95308C22.906 9.84428 22.6815 9.66003 22.5235 9.42363C22.3656 9.18724 22.2812 8.90931 22.2812 8.625C22.2812 8.24375 22.4327 7.87812 22.7023 7.60854C22.9719 7.33895 23.3375 7.1875 23.7188 7.1875Z" fill="black"/>
<path d="M41.6875 9.34375C42.2561 9.34375 42.812 9.17514 43.2848 8.85923C43.7576 8.54332 44.1261 8.0943 44.3437 7.56897C44.5613 7.04363 44.6182 6.46556 44.5073 5.90787C44.3963 5.35017 44.1225 4.8379 43.7204 4.43582C43.3184 4.03374 42.8061 3.75993 42.2484 3.64899C41.6907 3.53806 41.1126 3.595 40.5873 3.8126C40.0619 4.0302 39.6129 4.3987 39.297 4.87149C38.9811 5.34428 38.8125 5.90013 38.8125 6.46875C38.8125 7.23125 39.1154 7.96252 39.6546 8.50168C40.1937 9.04085 40.925 9.34375 41.6875 9.34375ZM41.6875 5.03125C41.9718 5.03125 42.2497 5.11556 42.4861 5.27351C42.7225 5.43147 42.9068 5.65598 43.0156 5.91864C43.1244 6.18131 43.1528 6.47035 43.0974 6.74919C43.0419 7.02804 42.905 7.28418 42.704 7.48522C42.5029 7.68625 42.2468 7.82316 41.9679 7.87863C41.6891 7.9341 41.4001 7.90563 41.1374 7.79683C40.8747 7.68803 40.6502 7.50378 40.4923 7.26738C40.3343 7.03099 40.25 6.75306 40.25 6.46875C40.25 6.0875 40.4014 5.72187 40.671 5.45229C40.9406 5.1827 41.3063 5.03125 41.6875 5.03125Z" fill="black"/>
<path d="M16.5312 8.625C17.242 8.625 17.9368 8.41423 18.5278 8.01935C19.1188 7.62446 19.5794 7.06319 19.8514 6.40652C20.1234 5.74985 20.1946 5.02727 20.0559 4.33015C19.9173 3.63303 19.575 2.99268 19.0724 2.49009C18.5698 1.98749 17.9295 1.64522 17.2324 1.50655C16.5352 1.36789 15.8127 1.43906 15.156 1.71106C14.4993 1.98306 13.938 2.44368 13.5432 3.03467C13.1483 3.62566 12.9375 4.32048 12.9375 5.03125C12.9386 5.98402 13.3176 6.89744 13.9913 7.57116C14.6651 8.24487 15.5785 8.62386 16.5312 8.625ZM16.5312 2.875C16.9577 2.875 17.3746 3.00146 17.7292 3.2384C18.0838 3.47533 18.3602 3.81209 18.5234 4.20609C18.6866 4.60009 18.7293 5.03364 18.6461 5.45192C18.5629 5.87019 18.3575 6.25439 18.0559 6.55595C17.7544 6.85751 17.3702 7.06287 16.9519 7.14607C16.5336 7.22927 16.1001 7.18657 15.7061 7.02337C15.3121 6.86017 14.9753 6.58379 14.7384 6.2292C14.5015 5.87461 14.375 5.45772 14.375 5.03125C14.375 4.45938 14.6022 3.91093 15.0066 3.50655C15.4109 3.10218 15.9594 2.875 16.5312 2.875Z" fill="black"/>
<path d="M32.3438 10.0625C33.1967 10.0625 34.0305 9.80958 34.7396 9.33571C35.4488 8.86185 36.0016 8.18833 36.328 7.40032C36.6544 6.61232 36.7398 5.74522 36.5734 4.90868C36.407 4.07213 35.9963 3.30372 35.3931 2.7006C34.79 2.09749 34.0216 1.68676 33.1851 1.52037C32.3485 1.35397 31.4814 1.43937 30.6934 1.76577C29.9054 2.09217 29.2319 2.64492 28.758 3.35411C28.2842 4.06329 28.0312 4.89707 28.0312 5.75C28.0324 6.8934 28.4871 7.98964 29.2956 8.79814C30.1041 9.60664 31.2004 10.0614 32.3438 10.0625ZM32.3438 2.875C32.9124 2.875 33.4682 3.04362 33.941 3.35953C34.4138 3.67544 34.7823 4.12445 34.9999 4.64979C35.2175 5.17512 35.2744 5.75319 35.1635 6.31089C35.0526 6.86858 34.7788 7.38086 34.3767 7.78293C33.9746 8.18501 33.4623 8.45883 32.9046 8.56976C32.3469 8.68069 31.7689 8.62376 31.2435 8.40616C30.7182 8.18855 30.2692 7.82006 29.9533 7.34727C29.6374 6.87448 29.4688 6.31862 29.4688 5.75C29.4688 4.9875 29.7717 4.25624 30.3108 3.71707C30.85 3.1779 31.5813 2.875 32.3438 2.875Z" fill="black"/>
<path d="M6.46875 11.5C7.32168 11.5 8.15546 11.2471 8.86465 10.7732C9.57383 10.2994 10.1266 9.62583 10.453 8.83782C10.7794 8.04982 10.8648 7.18272 10.6984 6.34618C10.532 5.50963 10.1213 4.74122 9.51815 4.1381C8.91503 3.53499 8.14662 3.12426 7.31008 2.95787C6.47353 2.79147 5.60643 2.87687 4.81843 3.20327C4.03042 3.52967 3.3569 4.08242 2.88304 4.79161C2.40917 5.50079 2.15625 6.33457 2.15625 7.1875C2.15739 8.3309 2.61211 9.42714 3.42061 10.2356C4.22912 11.0441 5.32535 11.4989 6.46875 11.5ZM6.46875 4.3125C7.03737 4.3125 7.59322 4.48112 8.06601 4.79703C8.53881 5.11294 8.9073 5.56195 9.1249 6.08729C9.34251 6.61262 9.39944 7.19069 9.28851 7.74839C9.17758 8.30608 8.90376 8.81836 8.50168 9.22043C8.09961 9.62251 7.58733 9.89633 7.02963 10.0073C6.47194 10.1182 5.89387 10.0613 5.36854 9.84366C4.8432 9.62605 4.39418 9.25756 4.07827 8.78477C3.76237 8.31198 3.59375 7.75612 3.59375 7.1875C3.59375 6.425 3.89665 5.69374 4.43582 5.15457C4.97499 4.6154 5.70625 4.3125 6.46875 4.3125Z" fill="black"/>
<path d="M23.0003 23.7188C23.191 23.7187 23.3737 23.643 23.5085 23.5082L25.6648 21.3519L24.6484 20.3356L23.7191 21.2649V15.8125H22.2816V21.2649L21.3523 20.3356L20.3359 21.3519L22.4922 23.5082C22.6269 23.643 22.8097 23.7187 23.0003 23.7188Z" fill="black"/>
</svg>
