<svg width="61" height="61" viewBox="0 0 61 61" fill="none" xmlns="http://www.w3.org/2000/svg">
<path d="M18.1094 31.4531H31.4531C31.7059 31.4531 31.9483 31.3527 32.1271 31.174C32.3058 30.9952 32.4062 30.7528 32.4062 30.5C32.4062 30.2472 32.3058 30.0048 32.1271 29.826C31.9483 29.6473 31.7059 29.5469 31.4531 29.5469H18.1094C17.8566 29.5469 17.6142 29.6473 17.4354 29.826C17.2567 30.0048 17.1562 30.2472 17.1562 30.5C17.1562 30.7528 17.2567 30.9952 17.4354 31.174C17.6142 31.3527 17.8566 31.4531 18.1094 31.4531Z" fill="black"/>
<path d="M31.4531 33.3594H25.7344C25.4816 33.3594 25.2392 33.4598 25.0604 33.6385C24.8817 33.8173 24.7812 34.0597 24.7812 34.3125C24.7812 34.5653 24.8817 34.8077 25.0604 34.9865C25.2392 35.1652 25.4816 35.2656 25.7344 35.2656H31.4531C31.7059 35.2656 31.9483 35.1652 32.1271 34.9865C32.3058 34.8077 32.4062 34.5653 32.4062 34.3125C32.4062 34.0597 32.3058 33.8173 32.1271 33.6385C31.9483 33.4598 31.7059 33.3594 31.4531 33.3594Z" fill="black"/>
<path d="M31.4531 37.1719H27.6406C27.3878 37.1719 27.1454 37.2723 26.9667 37.451C26.7879 37.6298 26.6875 37.8722 26.6875 38.125C26.6875 38.3778 26.7879 38.6202 26.9667 38.799C27.1454 38.9777 27.3878 39.0781 27.6406 39.0781H31.4531C31.7059 39.0781 31.9483 38.9777 32.1271 38.799C32.3058 38.6202 32.4062 38.3778 32.4062 38.125C32.4062 37.8722 32.3058 37.6298 32.1271 37.451C31.9483 37.2723 31.7059 37.1719 31.4531 37.1719Z" fill="black"/>
<path d="M29.5469 6.67188H31.4531C31.7059 6.67188 31.9483 6.57146 32.1271 6.39271C32.3058 6.21397 32.4062 5.97153 32.4062 5.71875C32.4062 5.46597 32.3058 5.22353 32.1271 5.04479C31.9483 4.86604 31.7059 4.76562 31.4531 4.76562H29.5469C29.2941 4.76562 29.0517 4.86604 28.8729 5.04479C28.6942 5.22353 28.5938 5.46597 28.5938 5.71875C28.5938 5.97153 28.6942 6.21397 28.8729 6.39271C29.0517 6.57146 29.2941 6.67188 29.5469 6.67188Z" fill="black"/>
<path d="M55.2813 40.0312C54.5948 40.0345 53.9224 40.2257 53.3369 40.5841C53.2383 39.6504 52.7987 38.7859 52.1022 38.1562C51.4057 37.5266 50.5014 37.1761 49.5625 37.1719C48.8906 37.1745 48.2319 37.3589 47.6563 37.7056V6.67187C47.6563 5.40795 47.1542 4.1958 46.2604 3.30207C45.3667 2.40834 44.1546 1.90625 42.8906 1.90625H18.1094C16.8455 1.90625 15.6333 2.40834 14.7396 3.30207C13.8458 4.1958 13.3438 5.40795 13.3438 6.67187V25.3627L7.59641 31.5961C5.15996 34.2357 3.80873 37.6972 3.81251 41.2894V58.1406C3.81251 58.3934 3.91293 58.6358 4.09167 58.8146C4.27042 58.9933 4.51285 59.0937 4.76563 59.0937C5.01842 59.0937 5.26085 58.9933 5.43959 58.8146C5.61834 58.6358 5.71876 58.3934 5.71876 58.1406V41.2894C5.71242 38.1768 6.88372 35.1771 8.99751 32.8923L13.3438 28.1744V41.9375C13.3423 42.1485 13.4109 42.3541 13.5388 42.5219C13.6668 42.6898 13.8468 42.8104 14.0507 42.8649C14.2545 42.9195 14.4708 42.9048 14.6654 42.8232C14.86 42.7416 15.0221 42.5977 15.1261 42.4141L18.4525 36.5809C18.5766 36.3644 18.7432 36.1752 18.9422 36.0246C19.1412 35.874 19.3686 35.7652 19.6107 35.7047C19.8528 35.6442 20.1047 35.6332 20.3511 35.6724C20.5976 35.7116 20.8336 35.8002 21.045 35.9328C21.2668 36.0565 21.4616 36.2233 21.618 36.4233C21.7745 36.6234 21.8894 36.8527 21.9559 37.0977C22.0225 37.3428 22.0395 37.5987 22.0058 37.8504C21.9721 38.1021 21.8885 38.3445 21.7599 38.5634C20.3492 40.9844 18.4239 44.3203 18.4239 44.3203C18.3339 44.4768 18.2898 44.6554 18.2965 44.8357C18.3033 45.0161 18.3606 45.1909 18.462 45.3402L19.663 47.0748C20.5692 48.4076 21.0842 49.9674 21.1499 51.5777C21.2156 53.188 20.8293 54.7846 20.0347 56.1867L19.1864 57.6641C19.1238 57.773 19.0833 57.8931 19.0672 58.0177C19.051 58.1422 19.0596 58.2687 19.0923 58.39C19.1584 58.6349 19.3191 58.8434 19.5391 58.9698C19.759 59.0962 20.0201 59.1301 20.265 59.0639C20.5099 58.9978 20.7185 58.8371 20.8449 58.6172L21.6931 57.1303C22.0202 56.5418 22.2884 55.9225 22.4938 55.2812H31.6533L33.4738 58.5981C33.5577 58.7472 33.6794 58.8714 33.8266 58.9585C33.9739 59.0455 34.1415 59.0921 34.3125 59.0937C34.472 59.0932 34.629 59.054 34.77 58.9794C34.9918 58.8574 35.1563 58.6526 35.2277 58.4098C35.2992 58.167 35.2717 57.9058 35.1513 57.6831L27.307 43.4434L28.1553 42.9573C28.4801 42.77 28.8386 42.6485 29.2103 42.5998C29.582 42.5511 29.9597 42.5761 30.3218 42.6735C30.6838 42.7709 31.0231 42.9387 31.3203 43.1673C31.6175 43.3959 31.8666 43.6808 32.0536 44.0058L34.4364 48.1328C34.5436 48.3137 34.7063 48.4551 34.9005 48.5358C35.0946 48.6166 35.3096 48.6323 35.5134 48.5808C35.7165 48.5261 35.8959 48.4058 36.0234 48.2385C36.151 48.0713 36.2197 47.8666 36.2188 47.6562V31.4531C36.2188 30.9476 36.4196 30.4627 36.7771 30.1052C37.1346 29.7477 37.6194 29.5469 38.125 29.5469C38.6306 29.5469 39.1154 29.7477 39.4729 30.1052C39.8304 30.4627 40.0313 30.9476 40.0313 31.4531V44.7969C40.0313 45.0497 40.1317 45.2921 40.3104 45.4708C40.4892 45.6496 40.7316 45.75 40.9844 45.75C41.2372 45.75 41.4796 45.6496 41.6583 45.4708C41.8371 45.2921 41.9375 45.0497 41.9375 44.7969V40.9844C41.9375 40.4788 42.1383 39.9939 42.4958 39.6364C42.8533 39.279 43.3382 39.0781 43.8438 39.0781C44.3493 39.0781 44.8342 39.279 45.1917 39.6364C45.5492 39.9939 45.75 40.4788 45.75 40.9844V44.7969C45.75 45.0497 45.8504 45.2921 46.0292 45.4708C46.2079 45.6496 46.4503 45.75 46.7031 45.75C46.9559 45.75 47.1983 45.6496 47.3771 45.4708C47.5558 45.2921 47.6563 45.0497 47.6563 44.7969V40.9844C47.6563 40.4788 47.8571 39.9939 48.2146 39.6364C48.5721 39.279 49.0569 39.0781 49.5625 39.0781C50.0681 39.0781 50.5529 39.279 50.9104 39.6364C51.2679 39.9939 51.4688 40.4788 51.4688 40.9844V44.7969C51.4688 45.0497 51.5692 45.2921 51.7479 45.4708C51.9267 45.6496 52.1691 45.75 52.4219 45.75C52.6747 45.75 52.9171 45.6496 53.0958 45.4708C53.2746 45.2921 53.375 45.0497 53.375 44.7969V43.8437C53.375 43.3382 53.5758 42.8533 53.9333 42.4958C54.2908 42.1383 54.7757 41.9375 55.2813 41.9375C55.7868 41.9375 56.2717 42.1383 56.6292 42.4958C56.9867 42.8533 57.1875 43.3382 57.1875 43.8437V58.1406C57.1875 58.3934 57.2879 58.6358 57.4667 58.8146C57.6454 58.9933 57.8878 59.0937 58.1406 59.0937C58.3934 59.0937 58.6358 58.9933 58.8146 58.8146C58.9933 58.6358 59.0938 58.3934 59.0938 58.1406V43.8437C59.0938 42.8326 58.6921 41.8629 57.9771 41.1479C57.2621 40.4329 56.2924 40.0312 55.2813 40.0312ZM30.6049 53.375H22.9417C23.1137 52.1042 23.0556 50.8127 22.7702 49.5625H28.4984L30.6049 53.375ZM45.75 37.7056C45.1755 37.3565 44.5161 37.1718 43.8438 37.1718C43.1714 37.1718 42.512 37.3565 41.9375 37.7056V31.4531C41.9375 30.442 41.5358 29.4723 40.8209 28.7573C40.1059 28.0423 39.1361 27.6406 38.125 27.6406C37.1139 27.6406 36.1441 28.0423 35.4292 28.7573C34.7142 29.4723 34.3125 30.442 34.3125 31.4531V44.1011L33.712 43.0527C33.0801 41.9581 32.0392 41.1595 30.8183 40.8324C29.5975 40.5052 28.2968 40.6765 27.2022 41.3084L25.5438 42.2616C25.3283 42.3872 25.1707 42.5924 25.1048 42.8329C25.0388 43.0735 25.0698 43.3303 25.1911 43.5483L27.45 47.6562H22.1316C21.8845 47.0752 21.5813 46.5198 21.2261 45.9978L20.3778 44.7492C20.9688 43.7198 22.3413 41.3561 23.4088 39.5166C23.6643 39.0843 23.8306 38.6051 23.8977 38.1074C23.9648 37.6097 23.9314 37.1036 23.7995 36.6191C23.6634 36.1196 23.4288 35.6525 23.1097 35.2449C22.7905 34.8374 22.3932 34.4977 21.9409 34.2458C21.5126 33.9985 21.0396 33.8383 20.5491 33.7744C20.0586 33.7105 19.5604 33.7442 19.083 33.8735C18.6056 34.0028 18.1584 34.2252 17.7672 34.5279C17.3761 34.8306 17.0486 35.2077 16.8036 35.6373L15.25 38.3442V9.53125H45.75V37.7056ZM45.75 7.625H15.25V6.67187C15.2523 5.91422 15.5543 5.18824 16.09 4.65249C16.6257 4.11674 17.3517 3.81476 18.1094 3.8125H42.8906C43.6483 3.81476 44.3743 4.11674 44.91 4.65249C45.4458 5.18824 45.7477 5.91422 45.75 6.67187V7.625Z" fill="black"/>
<path d="M43.8438 24.7812V14.2969C43.8438 13.5385 43.5425 12.8112 43.0063 12.275C42.47 11.7388 41.7427 11.4375 40.9844 11.4375H20.0156C19.2573 11.4375 18.53 11.7388 17.9937 12.275C17.4575 12.8112 17.1563 13.5385 17.1562 14.2969V24.7812C17.1563 25.5396 17.4575 26.2669 17.9937 26.8031C18.53 27.3394 19.2573 27.6406 20.0156 27.6406H40.9844C41.7427 27.6406 42.47 27.3394 43.0063 26.8031C43.5425 26.2669 43.8438 25.5396 43.8438 24.7812ZM20.0156 25.7344C19.7628 25.7344 19.5204 25.634 19.3417 25.4552C19.1629 25.2765 19.0625 25.034 19.0625 24.7812V14.2969C19.0625 14.0441 19.1629 13.8017 19.3417 13.6229C19.5204 13.4442 19.7628 13.3438 20.0156 13.3438H40.9844C41.2372 13.3438 41.4796 13.4442 41.6583 13.6229C41.8371 13.8017 41.9375 14.0441 41.9375 14.2969V24.7812C41.9375 25.034 41.8371 25.2765 41.6583 25.4552C41.4796 25.634 41.2372 25.7344 40.9844 25.7344H20.0156Z" fill="black"/>
<path d="M23.8281 15.25H21.9219C21.6691 15.25 21.4267 15.3504 21.2479 15.5292C21.0692 15.7079 20.9688 15.9503 20.9688 16.2031V22.875C20.9688 23.1278 21.0692 23.3702 21.2479 23.549C21.4267 23.7277 21.6691 23.8281 21.9219 23.8281C22.1747 23.8281 22.4171 23.7277 22.5958 23.549C22.7746 23.3702 22.875 23.1278 22.875 22.875V20.9688H23.8281C24.5865 20.9688 25.3138 20.6675 25.85 20.1313C26.3862 19.595 26.6875 18.8677 26.6875 18.1094C26.6875 17.351 26.3862 16.6237 25.85 16.0875C25.3138 15.5513 24.5865 15.25 23.8281 15.25ZM23.8281 19.0625H22.875V17.1562H23.8281C24.0809 17.1562 24.3233 17.2567 24.5021 17.4354C24.6808 17.6142 24.7812 17.8566 24.7812 18.1094C24.7812 18.3622 24.6808 18.6046 24.5021 18.7833C24.3233 18.9621 24.0809 19.0625 23.8281 19.0625Z" fill="black"/>
<path d="M31.3754 15.8276C31.3019 15.6562 31.1797 15.5102 31.024 15.4076C30.8683 15.3049 30.686 15.2502 30.4995 15.2502C30.313 15.2502 30.1306 15.3049 29.975 15.4076C29.8193 15.5102 29.6971 15.6562 29.6236 15.8276L26.7642 22.4995C26.7128 22.6148 26.6848 22.7393 26.6819 22.8656C26.679 22.9918 26.7012 23.1174 26.7473 23.235C26.7933 23.3526 26.8623 23.4599 26.9502 23.5506C27.0381 23.6414 27.1431 23.7137 27.2592 23.7635C27.3753 23.8133 27.5001 23.8395 27.6264 23.8406C27.7527 23.8417 27.878 23.8177 27.9949 23.7699C28.1119 23.7222 28.2182 23.6517 28.3076 23.5625C28.3971 23.4734 28.4679 23.3673 28.516 23.2505L29.0879 21.9219H31.9168L32.4887 23.2505C32.5368 23.3673 32.6076 23.4734 32.6971 23.5625C32.7865 23.6517 32.8928 23.7222 33.0098 23.7699C33.1267 23.8177 33.252 23.8417 33.3783 23.8406C33.5046 23.8395 33.6294 23.8133 33.7455 23.7635C33.8616 23.7137 33.9666 23.6414 34.0545 23.5506C34.1424 23.4599 34.2114 23.3526 34.2574 23.235C34.3035 23.1174 34.3257 22.9918 34.3228 22.8656C34.3199 22.7393 34.2919 22.6148 34.2405 22.4995L31.3754 15.8276ZM29.9028 20.0156L30.4995 18.6231L31.0961 20.0156H29.9028Z" fill="black"/>
<path d="M39.2687 15.6313L37.1719 18.4268L35.075 15.6313C34.9999 15.5311 34.9058 15.4468 34.7981 15.383C34.6904 15.3192 34.5712 15.2773 34.4473 15.2596C34.3234 15.2419 34.1972 15.2488 34.076 15.2798C33.9547 15.3109 33.8408 15.3655 33.7406 15.4406C33.6405 15.5157 33.5561 15.6098 33.4924 15.7175C33.4286 15.8252 33.3867 15.9444 33.369 16.0683C33.3513 16.1922 33.3581 16.3184 33.3892 16.4397C33.4203 16.5609 33.4749 16.6749 33.55 16.775L36.2187 20.333V22.875C36.2187 23.1278 36.3192 23.3702 36.4979 23.549C36.6767 23.7277 36.9191 23.8281 37.1719 23.8281C37.4247 23.8281 37.6671 23.7277 37.8458 23.549C38.0246 23.3702 38.125 23.1278 38.125 22.875V20.333L40.7937 16.775C40.9454 16.5728 41.0105 16.3186 40.9748 16.0683C40.939 15.8181 40.8053 15.5923 40.6031 15.4406C40.4009 15.289 40.1467 15.2238 39.8965 15.2596C39.6462 15.2953 39.4204 15.429 39.2687 15.6313Z" fill="black"/>
</svg>
