<svg width="59" height="59" viewBox="0 0 59 59" fill="none" xmlns="http://www.w3.org/2000/svg">
<g clip-path="url(#clip0_912_1055)">
<path d="M12.0166 6.48541C8.96612 6.48541 6.48535 8.96618 6.48535 12.0167C6.48535 15.0671 8.96612 17.5479 12.0166 17.5479C15.0671 17.5479 17.5479 15.0671 17.5479 12.0167C17.5479 8.96618 15.0671 6.48541 12.0166 6.48541ZM12.0166 15.7042C9.98295 15.7042 8.3291 14.0503 8.3291 12.0167C8.3291 9.98301 9.98295 8.32916 12.0166 8.32916C14.0503 8.32916 15.7041 9.98301 15.7041 12.0167C15.7041 14.0503 14.0503 15.7042 12.0166 15.7042Z" fill="black"/>
<path d="M53.199 44.9018L51.8955 43.5983L45.1723 50.3215L43.9803 49.1295L42.6768 50.433L45.1723 52.9286L53.199 44.9018Z" fill="black"/>
<path d="M32.2656 11.0625H34.1094V12.9062H32.2656V11.0625Z" fill="black"/>
<path d="M43.3281 11.0625H45.1719V12.9062H43.3281V11.0625Z" fill="black"/>
<path d="M39.6406 11.0625H41.4844V12.9062H39.6406V11.0625Z" fill="black"/>
<path d="M35.9531 11.0625H37.7969V12.9062H35.9531V11.0625Z" fill="black"/>
<path d="M22.125 34.1094H36.875C38.3998 34.1094 39.6406 32.8686 39.6406 31.3438V30.4219H51.625C55.1825 30.4219 58.0781 27.5272 58.0781 23.9688V17.5156C58.0781 13.9572 55.1825 11.0625 51.625 11.0625H48.8594V10.1406C48.8594 8.61587 47.6185 7.37502 46.0938 7.37502H31.3438C29.819 7.37502 28.5781 8.61587 28.5781 10.1406V11.0625H23.0791V9.46952L20.6592 8.80854C20.5799 8.59651 20.4914 8.3854 20.3956 8.17705L21.641 5.9959L18.0383 2.39321L15.8581 3.63774C15.6488 3.54187 15.4386 3.45337 15.2266 3.37408L14.5647 0.954163H9.4695L8.80759 3.37408C8.59556 3.45337 8.38538 3.54094 8.17703 3.63774L5.99588 2.39321L2.39319 5.9959L3.63772 8.17705C3.54184 8.3854 3.45334 8.59651 3.37406 8.80854L0.954141 9.46952V14.5638L3.37406 15.2257C3.45334 15.4377 3.54184 15.6489 3.63772 15.8572L2.39227 18.0383L5.99495 21.6401L8.17611 20.3956C8.38445 20.4915 8.59464 20.58 8.80667 20.6592L9.46858 23.0792H14.5638L15.2257 20.6592C15.4368 20.58 15.6479 20.4915 15.8572 20.3956L18.0374 21.6392L21.6401 18.0374L20.3946 15.8563C20.4905 15.6479 20.579 15.4368 20.6583 15.2248L23.0782 14.5629V12.9063H28.5781V13.8281C28.5781 15.3529 29.819 16.5938 31.3438 16.5938H46.0938C47.6185 16.5938 48.8594 15.3529 48.8594 13.8281V12.9063H51.625C54.1666 12.9063 56.2344 14.974 56.2344 17.5156V23.9688C56.2344 26.5104 54.1666 28.5781 51.625 28.5781H39.6406V27.6563C39.6406 26.1315 38.3998 24.8906 36.875 24.8906H22.125C20.6002 24.8906 19.3594 26.1315 19.3594 27.6563V28.5781H7.375C3.81748 28.5781 0.921875 31.4738 0.921875 35.0313V42.4063C0.921875 45.9638 3.81748 48.8594 7.375 48.8594H10.1406V49.7813C10.1406 51.3061 11.3815 52.5469 12.9062 52.5469H27.6562C29.181 52.5469 30.4219 51.3061 30.4219 49.7813V48.8594H37.8439C38.3113 54.0201 42.657 58.0781 47.9375 58.0781C53.5287 58.0781 58.0781 53.5287 58.0781 47.9375C58.0781 42.3464 53.5287 37.7969 47.9375 37.7969C42.657 37.7969 38.3113 41.855 37.8439 47.0156H30.4219V46.0938C30.4219 44.569 29.181 43.3281 27.6562 43.3281H12.9062C11.3815 43.3281 10.1406 44.569 10.1406 46.0938V47.0156H7.375C4.83339 47.0156 2.76562 44.9479 2.76562 42.4063V35.0313C2.76562 32.4897 4.83339 30.4219 7.375 30.4219H19.3594V31.3438C19.3594 32.8686 20.6002 34.1094 22.125 34.1094ZM21.2354 13.157L19.2137 13.7101L19.0653 14.1941C18.9325 14.621 18.7555 15.0459 18.538 15.4571L18.3001 15.9051L19.3419 17.7295L17.7304 19.3419L15.9051 18.3011L15.458 18.538C15.0478 18.7556 14.6228 18.9326 14.195 19.0644L13.712 19.2137L13.1579 21.2354H10.8781L10.3241 19.2137L9.84102 19.0644C9.41511 18.9326 8.99013 18.7565 8.57805 18.538L8.13002 18.3011L6.30562 19.3419L4.69234 17.7295L5.73406 15.9051L5.49622 15.4571C5.27866 15.0459 5.10073 14.621 4.96891 14.1941L4.82048 13.7101L2.79881 13.157V10.8763L4.82048 10.3241L4.96983 9.84012C5.10166 9.41329 5.27866 8.9883 5.49622 8.57807L5.73406 8.12912L4.69234 6.30473L6.30378 4.69237L8.12817 5.73316L8.5762 5.49624C8.99013 5.27776 9.41511 5.09983 9.83917 4.96893L10.3222 4.81958L10.8763 2.79791H13.1561L13.7101 4.81958L14.1932 4.96893C14.6191 5.10076 15.0441 5.27776 15.4562 5.49624L15.9033 5.73316L17.7286 4.69237L19.34 6.30473L18.2983 8.12912L18.5361 8.57715C18.7537 8.98738 18.9316 9.41237 19.0625 9.83919L19.2119 10.3232L21.2335 10.8754V13.157H21.2354ZM47.0156 13.8281C47.0156 14.3361 46.6026 14.75 46.0938 14.75H31.3438C30.8349 14.75 30.4219 14.3361 30.4219 13.8281V10.1406C30.4219 9.63269 30.8349 9.21877 31.3438 9.21877H46.0938C46.6026 9.21877 47.0156 9.63269 47.0156 10.1406V13.8281ZM47.9375 39.6406C52.5128 39.6406 56.2344 43.3623 56.2344 47.9375C56.2344 52.5128 52.5128 56.2344 47.9375 56.2344C43.3622 56.2344 39.6406 52.5128 39.6406 47.9375C39.6406 43.3623 43.3622 39.6406 47.9375 39.6406ZM11.9844 46.0938C11.9844 45.5849 12.3974 45.1719 12.9062 45.1719H27.6562C28.1651 45.1719 28.5781 45.5849 28.5781 46.0938V49.7813C28.5781 50.2901 28.1651 50.7031 27.6562 50.7031H12.9062C12.3974 50.7031 11.9844 50.2901 11.9844 49.7813V46.0938ZM21.2031 27.6563C21.2031 27.1483 21.6161 26.7344 22.125 26.7344H36.875C37.3839 26.7344 37.7969 27.1483 37.7969 27.6563V31.3438C37.7969 31.8526 37.3839 32.2656 36.875 32.2656H22.125C21.6161 32.2656 21.2031 31.8526 21.2031 31.3438V27.6563Z" fill="black"/>
<path d="M30.4219 28.5781H32.2656V30.4219H30.4219V28.5781Z" fill="black"/>
<path d="M26.7344 28.5781H28.5781V30.4219H26.7344V28.5781Z" fill="black"/>
<path d="M23.0469 28.5781H24.8906V30.4219H23.0469V28.5781Z" fill="black"/>
<path d="M34.1094 28.5781H35.9531V30.4219H34.1094V28.5781Z" fill="black"/>
<path d="M17.5156 47.0156H19.3594V48.8594H17.5156V47.0156Z" fill="black"/>
<path d="M24.8906 47.0156H26.7344V48.8594H24.8906V47.0156Z" fill="black"/>
<path d="M21.2031 47.0156H23.0469V48.8594H21.2031V47.0156Z" fill="black"/>
<path d="M13.8281 47.0156H15.6719V48.8594H13.8281V47.0156Z" fill="black"/>
</g>
<defs>
<clipPath id="clip0_912_1055">
<rect width="59" height="59" fill="white"/>
</clipPath>
</defs>
</svg>
