<svg width="61" height="61" viewBox="0 0 61 61" fill="none" xmlns="http://www.w3.org/2000/svg">
<g clip-path="url(#clip0_912_1072)">
<path d="M16.2148 6.8367C19.4228 4.40714 23.2917 2.80473 27.5042 2.34692" stroke="#333333" stroke-width="2" stroke-miterlimit="10" stroke-linecap="round" stroke-linejoin="round"/>
<path d="M7.22946 27.0537C7.17328 26.3996 7.14453 25.7377 7.14453 25.0689C7.14453 20.9262 8.24663 17.0411 10.1736 13.6904" stroke="#333333" stroke-width="2" stroke-miterlimit="10" stroke-linecap="round" stroke-linejoin="round"/>
<path d="M10.3498 36.7463C9.16385 34.7547 8.27215 32.5675 7.73438 30.2446" stroke="#333333" stroke-width="2" stroke-miterlimit="10" stroke-linecap="round" stroke-linejoin="round"/>
<path d="M15.3223 42.5886C14.5425 41.9345 13.807 41.2293 13.1211 40.478" stroke="#333333" stroke-width="2" stroke-miterlimit="10" stroke-linecap="round" stroke-linejoin="round"/>
<path d="M36.3856 47.0228C35.0924 47.3982 33.7518 47.6624 32.375 47.8045" stroke="#333333" stroke-width="2" stroke-miterlimit="10" stroke-linecap="round" stroke-linejoin="round"/>
<path d="M52.6472 21.9456C52.7868 22.9668 52.8588 24.0095 52.8588 25.0691C52.8588 29.3114 51.7031 33.2836 49.6895 36.6883" stroke="#333333" stroke-width="2" stroke-miterlimit="10" stroke-linecap="round" stroke-linejoin="round"/>
<path d="M49.7207 13.5024C50.7835 15.3104 51.6047 17.2773 52.1401 19.3591" stroke="#333333" stroke-width="2" stroke-miterlimit="10" stroke-linecap="round" stroke-linejoin="round"/>
<path d="M44.3242 7.25513C45.245 7.99636 46.1071 8.80753 46.9024 9.6805" stroke="#333333" stroke-width="2" stroke-miterlimit="10" stroke-linecap="round" stroke-linejoin="round"/>
<path d="M32.3379 2.33008C35.0446 2.60491 37.6117 3.35209 39.9556 4.48789" stroke="#333333" stroke-width="2" stroke-miterlimit="10" stroke-linecap="round" stroke-linejoin="round"/>
<path d="M30.003 4.42402C31.2247 4.42402 32.215 3.43367 32.215 2.21201C32.215 0.99035 31.2247 0 30.003 0C28.7814 0 27.791 0.99035 27.791 2.21201C27.791 3.43367 28.7814 4.42402 30.003 4.42402Z" stroke="#333333" stroke-width="2" stroke-miterlimit="10" stroke-linecap="round" stroke-linejoin="round"/>
<path d="M30.003 50.1381C31.2247 50.1381 32.215 49.1478 32.215 47.9261C32.215 46.7045 31.2247 45.7141 30.003 45.7141C28.7814 45.7141 27.791 46.7045 27.791 47.9261C27.791 49.1478 28.7814 50.1381 30.003 50.1381Z" stroke="#333333" stroke-width="2" stroke-miterlimit="10" stroke-linecap="round" stroke-linejoin="round"/>
<path d="M48.3976 40.8851C49.6192 40.8851 50.6096 39.8947 50.6096 38.6731C50.6096 37.4514 49.6192 36.4611 48.3976 36.4611C47.1759 36.4611 46.1855 37.4514 46.1855 38.6731C46.1855 39.8947 47.1759 40.8851 48.3976 40.8851Z" stroke="#333333" stroke-width="2" stroke-miterlimit="10" stroke-linecap="round" stroke-linejoin="round"/>
<path d="M48.3976 13.6771C49.6192 13.6771 50.6096 12.6867 50.6096 11.4651C50.6096 10.2434 49.6192 9.25305 48.3976 9.25305C47.1759 9.25305 46.1855 10.2434 46.1855 11.4651C46.1855 12.6867 47.1759 13.6771 48.3976 13.6771Z" stroke="#333333" stroke-width="2" stroke-miterlimit="10" stroke-linecap="round" stroke-linejoin="round"/>
<path d="M48.3976 27.1708C49.6192 27.1708 50.6096 26.1805 50.6096 24.9588C50.6096 23.7372 49.6192 22.7468 48.3976 22.7468C47.1759 22.7468 46.1855 23.7372 46.1855 24.9588C46.1855 26.1805 47.1759 27.1708 48.3976 27.1708Z" stroke="#333333" stroke-width="2" stroke-miterlimit="10" stroke-linecap="round" stroke-linejoin="round"/>
<path d="M30.003 27.1708C31.2247 27.1708 32.215 26.1805 32.215 24.9588C32.215 23.7372 31.2247 22.7468 30.003 22.7468C28.7814 22.7468 27.791 23.7372 27.791 24.9588C27.791 26.1805 28.7814 27.1708 30.003 27.1708Z" stroke="#333333" stroke-width="2" stroke-miterlimit="10" stroke-linecap="round" stroke-linejoin="round"/>
<path d="M11.6065 40.8851C12.8282 40.8851 13.8185 39.8947 13.8185 38.6731C13.8185 37.4514 12.8282 36.4611 11.6065 36.4611C10.3849 36.4611 9.39453 37.4514 9.39453 38.6731C9.39453 39.8947 10.3849 40.8851 11.6065 40.8851Z" stroke="#333333" stroke-width="2" stroke-miterlimit="10" stroke-linecap="round" stroke-linejoin="round"/>
<path d="M30.002 4.63098V19.2815" stroke="#333333" stroke-width="2" stroke-miterlimit="10" stroke-linecap="round" stroke-linejoin="round"/>
<path d="M30.002 30.7375V45.6084" stroke="#333333" stroke-width="2" stroke-miterlimit="10" stroke-linecap="round" stroke-linejoin="round"/>
<path d="M34.1523 22.0694L46.6361 12.8926" stroke="#333333" stroke-width="2" stroke-miterlimit="10" stroke-linecap="round" stroke-linejoin="round"/>
<path d="M13.3691 37.3469L25.376 28.5345" stroke="#333333" stroke-width="2" stroke-miterlimit="10" stroke-linecap="round" stroke-linejoin="round"/>
<path d="M34.1895 28.0939L46.6291 37.3468" stroke="#333333" stroke-width="2" stroke-miterlimit="10" stroke-linecap="round" stroke-linejoin="round"/>
<path d="M48.3984 30.4071V36.3554" stroke="#333333" stroke-width="2" stroke-miterlimit="10" stroke-linecap="round" stroke-linejoin="round"/>
<path d="M35.1797 25.1198H46.1951" stroke="#333333" stroke-width="2" stroke-miterlimit="10" stroke-linecap="round" stroke-linejoin="round"/>
<path d="M13.3691 7.16455H17.7753" stroke="#333333" stroke-width="2" stroke-miterlimit="10" stroke-linecap="round" stroke-linejoin="round"/>
<path d="M10.1758 10.5793H17.0053" stroke="#333333" stroke-width="2" stroke-miterlimit="10" stroke-linecap="round" stroke-linejoin="round"/>
<path d="M7.19922 10.5793H7.63984" stroke="#333333" stroke-width="2" stroke-miterlimit="10" stroke-linecap="round" stroke-linejoin="round"/>
<path d="M38.9258 4.63098H45.3147" stroke="#333333" stroke-width="2" stroke-miterlimit="10" stroke-linecap="round" stroke-linejoin="round"/>
<path d="M36.832 7.6051H41.0179" stroke="#333333" stroke-width="2" stroke-miterlimit="10" stroke-linecap="round" stroke-linejoin="round"/>
<path d="M49.7188 19.5018H55.4468" stroke="#333333" stroke-width="2" stroke-miterlimit="10" stroke-linecap="round" stroke-linejoin="round"/>
<path d="M55.3379 22.3658H56.3844" stroke="#333333" stroke-width="2" stroke-miterlimit="10" stroke-linecap="round" stroke-linejoin="round"/>
<path d="M49.1699 45.7185H49.8308" stroke="#333333" stroke-width="2" stroke-miterlimit="10" stroke-linecap="round" stroke-linejoin="round"/>
<path d="M41.127 45.7185H46.1941" stroke="#333333" stroke-width="2" stroke-miterlimit="10" stroke-linecap="round" stroke-linejoin="round"/>
<path d="M11.7168 23.7979H14.5257" stroke="#333333" stroke-width="2" stroke-miterlimit="10" stroke-linecap="round" stroke-linejoin="round"/>
<path d="M11.0547 45.1678H21.5193" stroke="#333333" stroke-width="2" stroke-miterlimit="10" stroke-linecap="round" stroke-linejoin="round"/>
<path d="M7.19922 45.1678H7.74999" stroke="#333333" stroke-width="2" stroke-miterlimit="10" stroke-linecap="round" stroke-linejoin="round"/>
<path d="M21.7402 47.9216H25.155" stroke="#333333" stroke-width="2" stroke-miterlimit="10" stroke-linecap="round" stroke-linejoin="round"/>
<path d="M4.55664 27.2126H11.6065" stroke="#333333" stroke-width="2" stroke-miterlimit="10" stroke-linecap="round" stroke-linejoin="round"/>
</g>
<defs>
<clipPath id="clip0_912_1072">
<rect width="61" height="61" fill="white"/>
</clipPath>
</defs>
</svg>
