<svg width="52" height="52" viewBox="0 0 52 52" fill="none" xmlns="http://www.w3.org/2000/svg">
<path d="M45.0101 25.091L45.1273 24.9473C46.7681 22.9363 47.3209 22.2588 47.6851 19.2964C47.7781 18.5414 47.6012 17.9742 47.1597 17.6104C46.4398 17.0175 45.4972 17.3248 44.5858 17.622C43.5414 17.9624 42.7133 18.1885 42.3477 17.7563L42.263 17.6559C42.7714 16.5284 43.1523 15.2605 43.1523 13.9919C43.1523 12.1147 42.3741 10.2628 41.0173 8.91118C39.6724 7.57136 37.9151 6.83457 36.0739 6.83457C36.056 6.83457 36.0384 6.83457 36.0207 6.83457C35.9552 6.83457 35.89 6.83762 35.8247 6.83945C35.8803 6.08499 35.8268 5.22614 35.2092 4.35936C34.7633 3.73307 34.0779 3.80791 32.7127 3.957C31.6844 4.06932 30.1303 4.23892 29.3839 3.957C29.0878 3.84529 28.3579 3.61303 27.66 3.46557C26.74 3.27109 25.7255 3.16395 25.1761 3.84254C24.748 4.37145 24.7615 4.92472 24.8559 5.34181C24.747 5.29093 24.6072 5.217 24.4233 5.11382C24.0892 4.92645 23.7104 4.71399 23.2776 4.61487C22.7836 4.50184 22.0422 3.95872 21.9426 3.69884L21.9067 3.53717C21.646 2.35882 21.44 1.42806 19.8827 0.581798C18.5088 -0.164736 16.6589 -0.195406 15.2796 0.50553C15.1243 0.584439 14.9713 0.687823 14.7942 0.807658C14.4525 1.0388 14.0272 1.32661 13.5743 1.43913C13.4065 1.48077 13.1113 1.45457 12.8257 1.42908C12.3571 1.38724 11.7742 1.33534 11.1763 1.50687C9.48907 1.99098 7.68585 3.12292 7.68585 4.84774C7.68585 5.25742 7.6306 5.55518 7.53423 5.66486C7.43856 5.77383 7.1735 5.87955 6.8665 6.00212C6.07487 6.31806 4.87835 6.79558 3.74783 8.40899C3.661 8.53299 3.58036 8.64277 3.50592 8.74422C2.77259 9.74404 2.51606 10.2953 2.51606 12.5523C2.51606 13.2053 2.33621 13.7567 2.12792 14.3951C1.62623 15.9329 1.05762 17.676 2.80915 20.9474C3.22858 21.7308 4.76582 23.0319 5.60802 23.6772C7.97528 25.4909 8.89609 25.4876 9.48419 25.2448C10.425 24.8567 10.9863 24.893 11.6362 24.9347C12.5333 24.9925 13.5491 25.058 15.1116 24.0528C15.3647 23.9957 16.1516 24.1978 16.6258 24.3198C17.2903 24.4907 17.9766 24.6672 18.6276 24.6807C18.6108 24.8731 18.5225 25.2658 18.2001 26.1097C18.1533 26.2321 18.1112 26.3427 18.0776 26.4369C17.4686 28.1499 18.45 28.8945 19.0994 29.3872C19.4002 29.6155 19.6843 29.8311 19.9346 30.1635C20.1341 30.4287 20.4386 30.5684 20.7468 30.5684C20.9594 30.5684 21.1738 30.5019 21.3568 30.3642C21.8049 30.0269 21.8947 29.3902 21.5574 28.9421C21.1373 28.3839 20.669 28.0285 20.3271 27.7691C20.1773 27.6555 19.9752 27.5021 19.9184 27.426C19.9186 27.3942 19.9261 27.3011 19.9914 27.1175C20.0204 27.0361 20.0569 26.9406 20.0974 26.8349C20.464 25.8754 21.0182 24.4255 20.3237 23.4169C20.083 23.0673 19.6073 22.6506 18.7067 22.6506C18.2893 22.6506 17.7009 22.4993 17.1317 22.3529C16.0292 22.0693 14.8892 21.7761 14.0344 22.3307C13.0204 22.9886 12.5215 22.9563 11.7667 22.908C11.0454 22.8615 10.1544 22.8041 8.86024 23.307C8.55527 23.2183 7.75938 22.7925 6.60824 21.8822C5.43436 20.9539 4.70895 20.1771 4.59968 19.9889C3.25742 17.4818 3.62881 16.3434 4.05879 15.0251C4.2877 14.3235 4.54707 13.5283 4.54707 12.5524C4.54707 10.759 4.67351 10.5867 5.14371 9.94563C5.22607 9.83341 5.31504 9.71195 5.41111 9.57485C6.1941 8.45743 6.9187 8.1682 7.61943 7.88852C8.55395 7.51561 9.71696 7.0514 9.71696 4.84774C9.71696 4.46508 10.5464 3.8007 11.7368 3.45917C11.9709 3.39194 12.2986 3.42109 12.6455 3.45216C13.0768 3.49065 13.5658 3.53422 14.0646 3.41022C14.867 3.21077 15.5082 2.77702 15.9325 2.48993C16.0266 2.42625 16.1557 2.33891 16.1997 2.31627C16.9719 1.92396 18.1384 1.94549 18.913 2.36643C19.657 2.77073 19.6925 2.93129 19.9236 3.97589L19.9622 4.14985C20.2337 5.36456 21.8271 6.3665 22.8244 6.5947C22.972 6.62852 23.2047 6.75902 23.4297 6.88515C24.1018 7.26212 25.2264 7.89329 26.4474 7.06622C27.178 6.57144 27.1184 5.85233 27.0009 5.40447C27.5324 5.50084 28.2491 5.69959 28.6666 5.8571C29.8677 6.31055 31.5674 6.12501 32.9331 5.97602C33.1868 5.9484 33.4978 5.91438 33.7375 5.896C33.8501 6.24322 33.8132 6.63766 33.7464 7.20048C33.7455 7.20779 33.7447 7.21551 33.7439 7.22282C32.7566 7.56882 31.8443 8.13926 31.0694 8.91118C29.7126 10.2628 28.9345 12.1147 28.9345 13.9919C28.9345 16.6717 30.6332 19.3485 31.6458 20.7054C32.0833 21.2917 34.3513 24.2165 36.0435 24.2165C37.7356 24.2165 40.0037 21.2917 40.4412 20.7054C40.6862 20.3769 40.9716 19.9706 41.2633 19.5062C42.516 20.4317 44.1754 19.8921 45.2151 19.5531C45.3357 19.5138 45.4802 19.4667 45.6207 19.424C45.3419 21.4714 45.013 21.8744 43.5535 23.6632L43.4359 23.8075C42.1948 25.3295 41.2903 26.06 40.5634 26.6468C39.7324 27.3179 39.0761 27.8479 38.6829 29.0026C38.3483 29.9854 38.2238 31.3684 38.2238 34.1053C38.2238 34.9638 38.3102 35.5286 38.3796 35.9823C38.4572 36.489 38.5085 36.8238 38.4328 37.438C38.366 37.9809 38.0614 38.1746 37.208 38.5896C36.1577 39.1003 34.4028 39.9535 35.0815 42.7682C35.107 43.0575 35.0388 44.0565 34.8812 44.4491C34.4557 45.5099 33.6104 46.0458 33.602 46.0509C32.9895 46.4229 32.3232 46.9674 31.6178 47.5439C30.1278 48.7615 28.2728 50.2766 27.0917 49.9159C26.2658 49.6636 26.1486 49.4928 26.1475 49.4911C26.1254 49.4539 26.1 49.2763 26.0831 49.1588C26.0207 48.7229 25.9264 48.0644 25.3988 47.2709C24.8369 46.4262 24.7903 46.0507 24.72 45.4823C24.6256 44.7206 24.5082 43.7726 23.351 41.9302C22.8282 41.098 22.3938 39.7801 22.602 38.7123C22.7094 38.1617 22.3501 37.6285 21.7995 37.5211C21.2486 37.4135 20.7157 37.7731 20.6084 38.3236C20.2728 40.045 20.9167 41.8735 21.6312 43.0107C22.5481 44.4706 22.6241 45.0832 22.7044 45.7319C22.7869 46.3974 22.8802 47.1516 23.7077 48.3958C23.981 48.8068 24.0235 49.1033 24.0727 49.4467C24.2386 50.6055 24.6593 51.2967 26.4985 51.8584C26.8171 51.9557 27.1376 52 27.4586 52C29.3749 51.9999 31.3064 50.4216 32.9031 49.1166C33.5522 48.5863 34.1651 48.0853 34.6566 47.7869C34.802 47.6985 36.0962 46.8759 36.7663 45.2055C37.0886 44.4025 37.1864 42.8194 37.0627 42.3195C36.9139 41.7182 36.9262 41.2934 37.0992 41.0567C37.2759 40.8152 37.6744 40.6213 38.0962 40.4163C38.9503 40.001 40.2411 39.3734 40.4486 37.6861C40.5585 36.7937 40.4714 36.2251 40.3872 35.6751C40.322 35.2495 40.2547 34.8094 40.2547 34.1053C40.2547 31.6774 40.3563 30.3888 40.6054 29.6574C40.7993 29.0879 41.0738 28.8452 41.8392 28.2271C42.5974 27.615 43.6354 26.7768 45.0101 25.091ZM36.0435 22.1738C35.6326 22.0251 34.4209 21.0771 33.139 19.3077C31.7578 17.401 30.9656 15.4634 30.9656 13.9919C30.9656 12.6508 31.526 11.3234 32.503 10.3501C33.4645 9.39235 34.7131 8.86558 36.0287 8.86558H36.0662C37.3739 8.86558 38.6226 9.39235 39.584 10.35C40.561 11.3233 41.1214 12.6507 41.1214 13.9918C41.1214 15.4633 40.3292 17.4009 38.948 19.3076C37.6661 21.0771 36.4544 22.0251 36.0435 22.1738Z" fill="black"/>
<path d="M49.7029 35.0348C49.331 34.5146 48.8196 34.197 48.224 34.1163C48.2239 34.1163 48.2239 34.1163 48.2239 34.1163C46.8679 33.9328 46.0846 35.183 45.5673 36.0106L45.4779 36.1531C45.2318 36.5436 45.1246 36.5794 44.5291 36.7781C44.4413 36.8075 44.3489 36.8383 44.2513 36.8721C43.1972 37.2368 43.0296 38.3673 42.8677 39.4604C42.7744 40.0892 42.6688 40.8019 42.4107 41.3366C41.7946 42.6127 41.3735 44.4096 42.0392 45.6261C42.3814 46.2515 42.9713 46.6441 43.6998 46.7318C43.8626 46.7513 44.0185 46.7606 44.1682 46.7606C46.2795 46.7606 47.1311 44.9019 47.7072 43.6439C47.9345 43.1477 48.1695 42.6346 48.4034 42.3823C49.3396 41.3721 49.9776 40.0329 50.2995 38.402C50.457 37.6043 50.4281 36.0494 49.7029 35.0348ZM48.3069 38.0086C48.059 39.2646 47.5901 40.2716 46.9136 41.0015C46.4584 41.4927 46.1544 42.1563 45.8605 42.798C45.1497 44.3501 44.7924 44.8169 43.9421 44.715C43.85 44.7039 43.8415 44.6884 43.821 44.651C43.6281 44.2985 43.7334 43.2686 44.2399 42.2197C44.6326 41.4061 44.7681 40.4924 44.8768 39.7582C44.9255 39.4298 44.9957 38.9564 45.0732 38.7378C45.1069 38.7266 45.1399 38.7155 45.1723 38.7047C45.8876 38.466 46.5633 38.2405 47.1965 37.236L47.2897 37.0872C47.4691 36.8002 47.7923 36.2831 47.9874 36.1453C48.0029 36.1572 48.0235 36.1783 48.0506 36.216C48.338 36.6182 48.3951 37.5612 48.3069 38.0086Z" fill="black"/>
<path d="M22.9689 33.9612C22.9689 33.4003 22.5143 32.9456 21.9534 32.9456H21.9526C21.3918 32.9456 20.9375 33.4003 20.9375 33.9612C20.9375 34.5221 21.3925 34.9767 21.9534 34.9767C22.5143 34.9767 22.9689 34.522 22.9689 33.9612Z" fill="black"/>
<path d="M36.0429 10.8969C34.3628 10.8969 32.9961 12.2636 32.9961 13.9436C32.9961 15.6235 34.3628 16.9902 36.0429 16.9902C37.7228 16.9902 39.0895 15.6235 39.0895 13.9436C39.0895 12.2636 37.7228 10.8969 36.0429 10.8969ZM36.0429 14.9591C35.4828 14.9591 35.0272 14.5036 35.0272 13.9436C35.0272 13.3836 35.4828 12.928 36.0429 12.928C36.6028 12.928 37.0584 13.3836 37.0584 13.9436C37.0584 14.5036 36.6028 14.9591 36.0429 14.9591Z" fill="black"/>
</svg>
