<svg width="49" height="49" viewBox="0 0 49 49" fill="none" xmlns="http://www.w3.org/2000/svg">
<path d="M48.5603 11.1781L43.488 2.39255C43.0287 1.60779 42.2152 1.12927 41.306 1.12927C40.3968 1.12927 39.5834 1.59822 39.124 2.39255L34.0517 11.1781C33.5923 11.9629 33.5923 12.9103 34.0517 13.6951C34.5111 14.4799 35.3246 14.9584 36.2337 14.9584H46.3783C47.2875 14.9584 48.1009 14.4894 48.5603 13.6951C49.0197 12.9008 49.0197 11.9724 48.5603 11.1781ZM47.2109 12.9199C47.1248 13.0635 46.8855 13.3984 46.3783 13.3984H36.2337C35.7361 13.3984 35.4873 13.0635 35.4011 12.9199C35.315 12.7763 35.1523 12.3935 35.4011 11.9629L40.4734 3.17732C40.7222 2.74666 41.1337 2.6988 41.306 2.6988C41.4687 2.6988 41.8898 2.74666 42.1386 3.17732L47.2109 11.9629C47.4597 12.3935 47.297 12.7763 47.2109 12.9199ZM42.2439 5.42634C42.4449 5.65603 42.5502 5.99099 42.5119 6.31638L42.1578 9.42673C42.1003 9.90525 41.7462 10.2498 41.306 10.2498C40.8658 10.2498 40.5117 9.90525 40.4638 9.42673L40.1097 6.31638C40.0714 5.99099 40.1767 5.65603 40.3777 5.42634C40.55 5.23494 40.7892 5.12009 41.038 5.12009H41.5931C41.8419 5.12009 42.0716 5.22537 42.2439 5.42634ZM42.2918 11.6949C42.2918 12.2308 41.8515 12.6711 41.3156 12.6711C40.7796 12.6711 40.3394 12.2308 40.3394 11.6949C40.3394 11.1494 40.7796 10.7187 41.3156 10.7187C41.8515 10.7187 42.2918 11.159 42.2918 11.6949ZM40.5882 27.9549H36.205C36.2242 27.2849 36.205 26.615 36.1285 25.9451C36.1285 25.9451 40.4925 24.165 40.5021 24.165C41.3347 23.8205 41.7271 22.8922 41.3921 22.0595L39.7365 18.0017C39.392 17.1691 38.4636 16.7863 37.6406 17.1213L33.267 18.9109C32.6066 18.0592 31.841 17.2744 30.9701 16.5853L32.798 12.2308C32.9703 11.8289 32.9703 11.3886 32.8076 10.9867C32.6449 10.5847 32.3291 10.2785 31.9462 10.1158L27.9076 8.41228C27.5152 8.24958 27.075 8.24959 26.6826 8.40271C26.2711 8.56541 25.9552 8.88123 25.8021 9.27361L23.9646 13.6281C22.8832 13.4941 21.7826 13.4941 20.7011 13.6185L18.9211 9.2449C18.7488 8.84294 18.4425 8.52712 18.0406 8.36443C17.6386 8.20173 17.208 8.20173 16.8252 8.36443L12.7578 10.0105C11.9443 10.3551 11.5519 11.2834 11.8869 12.1256L13.7148 16.6332C13.8201 16.882 14.0402 17.0638 14.3177 17.1117C15.0068 17.2265 15.7054 17.3414 16.3945 17.4562C16.3754 17.7912 16.3466 18.1357 16.3275 18.4707C16.2988 18.8918 16.605 19.2554 17.0261 19.2937L19.6005 19.5713C19.5336 20.0115 19.4666 20.4517 19.4091 20.9015C19.3709 21.1695 19.4761 21.4375 19.6771 21.6097C19.8781 21.782 20.1652 21.8394 20.414 21.7533C22.3759 21.1217 24.6058 21.5619 26.1753 22.9017C27.6109 24.1267 28.4339 26.0504 28.2808 27.9357V27.9644H13.2746C13.2746 27.9357 13.265 27.907 13.265 27.8783C13.1693 25.5527 14.3943 23.2367 16.4902 22.1552C16.8252 21.983 16.9974 21.5906 16.8826 21.2269C16.7486 20.8154 16.6146 20.4039 16.4806 19.9828L16.4041 19.7531C16.3084 19.4564 16.05 19.2554 15.7437 19.2172C15.5619 19.198 13.2554 18.9492 13.2554 18.9492C13.3033 18.5185 13.3511 18.0879 13.399 17.6572C13.4373 17.2935 13.2267 16.949 12.8726 16.8342C12.4037 16.6715 11.9347 16.5088 11.4658 16.3556C11.217 16.2695 10.9394 16.3174 10.7384 16.4705C9.86754 17.1404 9.08277 17.9156 8.38414 18.7865L4.02965 16.9394C3.62769 16.7767 3.18746 16.7672 2.78551 16.9394C2.39312 17.1021 2.0773 17.4084 1.91461 17.8008L0.220662 21.8394C0.0579668 22.2414 0.0483965 22.672 0.211092 23.074C0.373787 23.476 0.680037 23.7918 1.08199 23.9545L5.42691 25.7728C5.33121 26.4906 5.3025 27.2179 5.33121 27.9453H3.89566C3.47457 27.9453 3.07262 28.1176 2.78551 28.4334C2.50797 28.7396 2.36441 29.1511 2.39312 29.5627C2.73765 33.898 4.51773 38.0133 7.40797 41.2576L7.86734 41.7265C7.88648 41.7552 7.91519 41.7744 7.93433 41.8031C11.7146 45.7078 16.7964 47.8611 22.2324 47.8611C25.6298 47.8611 28.8837 47.0189 31.774 45.4398C33.5062 44.4924 35.114 43.2769 36.5304 41.8031L37.0568 41.2576L37.0472 41.248C39.9566 38.0133 41.7367 33.898 42.0812 29.5531C42.1099 29.1416 41.9664 28.7301 41.6888 28.4334C41.4113 28.1271 40.9998 27.9549 40.5882 27.9549ZM27.9937 22.5285C26.3668 20.6049 23.6009 19.5234 21.0935 19.9828C21.1701 19.9636 21.1988 19.3703 21.2084 19.2937C21.2466 18.9779 21.3041 18.6717 21.0935 18.3941C20.9595 18.2218 20.7681 18.1166 20.5576 18.0974L17.9162 17.8103C17.9353 17.4849 17.964 17.1691 17.9832 16.8437C18.0119 16.4418 17.7343 16.0781 17.3324 16.0111L17.2175 15.992C16.4711 15.8676 15.7246 15.7431 14.9781 15.6187L13.533 12.0394L13.3129 11.5226C13.2937 11.4844 13.3224 11.4461 13.3416 11.4365L17.3994 9.79998C17.4089 9.79998 17.4664 9.82869 17.4664 9.82869L19.4666 14.767C19.6005 15.1019 19.9546 15.3029 20.3087 15.2455C21.639 15.0349 22.9789 15.0349 24.2996 15.2646C24.6537 15.322 25.0078 15.1306 25.1513 14.7957L27.2281 9.87654C27.2377 9.84783 27.2759 9.8574 27.2951 9.8574L31.3242 11.5513C31.3242 11.5513 31.3433 11.6183 31.3529 11.6183L29.2857 16.5375C29.1421 16.8724 29.257 17.2552 29.5441 17.4754C30.6447 18.2793 31.5826 19.2267 32.3386 20.3082C32.5492 20.6049 32.9416 20.7197 33.2765 20.5857L38.2148 18.5664C38.2531 18.5472 38.2722 18.576 38.2818 18.5951L39.9279 22.6433C39.947 22.6912 39.8992 22.7103 39.8896 22.7199L34.9705 24.7297C34.6355 24.8636 34.4345 25.2177 34.492 25.5814C34.6164 26.3758 34.6738 27.1797 34.6451 27.9644H29.8408C29.9652 27.9644 29.7164 26.0886 29.6972 25.9642C29.4197 24.6722 28.8359 23.5142 27.9937 22.5285ZM28.9316 29.5148H28.9507H30.3959C30.3097 31.8213 30.0226 34.0033 29.5537 36.0418C27.2377 35.123 24.7781 34.6541 22.242 34.6541C19.7058 34.6541 17.2558 35.123 14.9302 36.0418C14.4613 33.9842 14.1742 31.7926 14.088 29.5052H28.9316V29.5148ZM1.68492 22.5093C1.66578 22.4998 1.65621 22.4615 1.66578 22.4424L3.35972 18.4133L3.42672 18.3845L8.32672 20.4517C8.66168 20.5953 9.05406 20.4804 9.26461 20.1933C9.86754 19.3511 10.5757 18.6047 11.3509 17.9635C11.4849 18.0113 11.6285 18.0592 11.7625 18.107C11.705 18.5855 11.6572 19.064 11.5902 19.5426C11.5615 19.7531 11.6285 19.9636 11.7529 20.1263C11.8869 20.289 12.0783 20.3943 12.2793 20.4135C12.8535 20.4709 13.4373 20.5379 14.0115 20.5953L15.0546 20.7101C15.0929 20.8345 15.1408 20.959 15.1791 21.0929C15.1886 21.1121 13.7818 22.2605 13.6574 22.3945C12.2697 23.8779 11.6093 25.9451 11.6955 27.9549H6.89117C6.85289 27.1031 6.91031 26.2609 7.05386 25.4283C7.12086 25.0646 6.91988 24.7105 6.58492 24.5765L1.68492 22.5093ZM3.96265 29.5148H6.14469H6.16383H12.5377C12.6334 32.0318 12.9396 34.4435 13.4755 36.6926C11.6572 37.5826 10.0015 38.731 8.53726 40.1379C5.90543 37.1902 4.28805 33.4482 3.96265 29.5148ZM17.8205 45.7652C14.758 45.0092 11.9156 43.4492 9.63785 41.2767C9.62828 41.2672 9.62828 41.2672 9.61871 41.2576C10.8916 40.0422 12.3271 39.0469 13.8775 38.2525C13.9062 38.3482 13.9349 38.4535 13.9636 38.5492C14.7675 41.2002 15.8681 43.4396 17.1601 45.0187C17.3802 45.2867 17.6003 45.5355 17.8205 45.7652ZM22.2611 46.2916H22.2515C22.242 46.2916 22.242 46.2916 22.2324 46.2916C20.5576 46.282 19.2082 45.057 18.3755 44.0234C17.2175 42.5974 16.2031 40.5494 15.4662 38.0898C15.4183 37.9271 15.3705 37.7453 15.3226 37.573C17.5238 36.6734 19.8494 36.214 22.2515 36.214C24.6632 36.214 26.9888 36.6734 29.19 37.573C29.123 37.8027 29.056 38.042 28.9699 38.3004C28.2234 40.6929 27.2185 42.6931 26.0701 44.0904C25.2375 45.0953 23.8976 46.2916 22.2611 46.2916ZM34.7982 41.3246C32.5396 43.4492 29.6972 45.0187 26.6539 45.7652C26.8644 45.5547 27.0654 45.3345 27.2664 45.0953C28.5392 43.5449 29.6398 41.3629 30.4533 38.7789C30.5107 38.597 30.5585 38.4248 30.6064 38.2621C32.1664 39.066 33.6019 40.0613 34.8652 41.2672C34.8461 41.2767 34.8269 41.2959 34.7982 41.3246ZM35.9562 40.1379C34.492 38.7406 32.8267 37.5826 31.0084 36.6926C31.5443 34.4531 31.8505 32.0414 31.9462 29.5148H35.3724C35.4011 29.5148 35.4298 29.5053 35.4586 29.4957H40.5308C40.2054 33.4386 38.588 37.1806 35.9562 40.1379ZM6.06812 13.3506C5.87672 13.1783 5.79058 12.9295 5.81929 12.6806L6.04898 10.7283C6.07769 10.4795 6.23082 10.2594 6.45094 10.1349C6.67105 10.0105 6.93902 10.001 7.15914 10.1158L9.88668 11.3982C10.1929 11.5418 10.3652 11.8576 10.3269 12.1926C10.2886 12.5275 10.0494 12.7955 9.72398 12.872L6.75718 13.5324C6.69976 13.542 6.64234 13.5515 6.58492 13.5515C6.40308 13.5515 6.21168 13.4845 6.06812 13.3506ZM9.72398 6.95759C9.64742 6.55564 9.88668 6.17283 10.2791 6.05798L11.1021 5.8283C11.3796 5.75173 11.6763 5.8283 11.8773 6.03884C12.0783 6.24939 12.1453 6.55564 12.0496 6.82361L11.5041 8.46013C11.3988 8.77595 11.1021 8.99607 10.7671 8.99607C10.748 8.99607 10.7289 8.99607 10.7193 8.99607C10.3652 8.97693 10.0685 8.71853 10.0015 8.36443L9.72398 6.95759ZM10.1068 15.2072C10.2695 15.5422 10.1642 15.9537 9.86754 16.1738L8.9775 16.8342C8.84351 16.9394 8.68082 16.9873 8.50855 16.9873C8.38414 16.9873 8.26929 16.9586 8.15445 16.9011C7.88648 16.7672 7.72379 16.4992 7.72379 16.2025V15.7719C7.72379 15.4177 7.96305 15.1019 8.30758 15.0158L9.19761 14.7861C9.56129 14.6904 9.9441 14.8627 10.1068 15.2072ZM2.26871 12.0969C1.97203 11.8767 1.86676 11.4652 2.02945 11.1302C2.19215 10.7953 2.56539 10.6135 2.92906 10.7092L3.8191 10.9388C4.16363 11.025 4.40289 11.3408 4.40289 11.6949V12.1256C4.40289 12.4222 4.24019 12.6902 3.97222 12.8242C3.85738 12.8816 3.74254 12.9103 3.61812 12.9103C3.45543 12.9103 3.29273 12.8625 3.14918 12.7572L2.26871 12.0969Z" fill="black"/>
</svg>
