<svg width="33" height="33" fill="none" xmlns="http://www.w3.org/2000/svg"><g clip-path="url(#clip0_4_1297)" fill="#D09FFF"><path d="M19.5 0h-6l-1.036 6.213h8.074L19.5 0zm11.38.661A.967.967 0 0029.961 0h-8.5l1.035 6.213H32.73L30.88.661zM20.711 8.147H12.29v6.213h8.422V8.147z"/><path d="M22.645 8.147v6.213h6.35v6.35H4.005v-6.35h6.35V8.147H0v5.246c0 .534.433.967.967.967H2.07v17.673c0 .534.433.967.967.967h26.924a.967.967 0 00.967-.967V14.36h1.104a.967.967 0 00.967-.967V8.147H22.645zM3.038 0a.967.967 0 00-.917.661L.27 6.213h10.233L11.54 0H3.038z"/></g><defs><clipPath id="clip0_4_1297"><path fill="#fff" d="M0 0h33v33H0z"/></clipPath></defs></svg>