<svg width="41" height="41" fill="none" xmlns="http://www.w3.org/2000/svg"><path fill-rule="evenodd" clip-rule="evenodd" d="M10.25 16.738V12.3a8.2 8.2 0 0116.4 0 2.05 2.05 0 01-4.1 0 4.1 4.1 0 00-4.1-4.1 4.099 4.099 0 00-4.1 4.1v4.1h10.287a6.113 6.113 0 016.113 6.113v8.274a6.115 6.115 0 01-1.79 4.323 6.115 6.115 0 01-4.323 1.79H14.35a2.05 2.05 0 01-2.05-2.05c0-2.263-1.837-4.1-4.1-4.1a2.05 2.05 0 01-2.05-2.05v-6.187a6.115 6.115 0 014.1-5.775zm0 18.112a2.05 2.05 0 11-4.102-.002 2.05 2.05 0 014.102.002zM16.4 24.6v4.1a2.05 2.05 0 004.1 0v-4.1a2.05 2.05 0 00-4.1 0zm14.35-8.2h2.05a2.05 2.05 0 000-4.1h-2.05a2.05 2.05 0 000 4.1zm1.45-6.75l2.05-2.05c.799-.8.799-2.1 0-2.9-.8-.799-2.1-.799-2.9 0L29.3 6.75c-.799.8-.799 2.1 0 2.9.8.799 2.1.799 2.9 0z" fill="#D09FFF"/></svg>