<svg width="32" height="32" fill="none" xmlns="http://www.w3.org/2000/svg"><g clip-path="url(#clip0_4_1327)" fill="#D09FFF"><path d="M31.063 1.938h-6.625v3.75h3.437a.937.937 0 110 1.875h-3.438v1.875h3.438a.937.937 0 110 1.874h-3.438v1.876h3.438a.938.938 0 010 1.874h-3.438v1.876h3.438a.938.938 0 010 1.875h-3.438v3.75h6.625c.518 0 .938-.42.938-.938V2.875a.938.938 0 00-.938-.938zM.938 22.563h6.625v-3.75H4.124a.938.938 0 010-1.875h3.438v-1.875H4.124a.938.938 0 010-1.876h3.438v-1.874H4.124a.938.938 0 010-1.876h3.438V7.563H4.124a.938.938 0 010-1.875h3.438v-3.75H.938A.938.938 0 000 2.875v18.75c0 .518.42.938.938.938z"/><path d="M31.063 28.25H28.1a2.856 2.856 0 00-1.788-1.789v-2.023h-1.875v2.045a2.858 2.858 0 00-1.727 1.767h-3.985a2.856 2.856 0 00-1.788-1.789v-2.086h4.687c.518 0 .938-.42.938-.938V.938A.938.938 0 0021.625 0h-11.25a.938.938 0 00-.938.938v22.5c0 .517.42.937.938.937h4.688v2.108a2.858 2.858 0 00-1.727 1.767H9.29a2.857 2.857 0 00-1.726-1.767v-2.046H5.688v2.024a2.856 2.856 0 00-1.79 1.789H.939a.938.938 0 000 1.875H3.92A2.848 2.848 0 006.594 32a2.848 2.848 0 002.673-1.875h4.09A2.849 2.849 0 0016.032 32a2.849 2.849 0 002.674-1.875h4.028A2.849 2.849 0 0025.406 32a2.849 2.849 0 002.674-1.875h2.983a.938.938 0 000-1.875zM16 20.687a.938.938 0 110-1.875.938.938 0 010 1.875zM12.875 3.813h6.313a.938.938 0 010 1.876h-6.313a.938.938 0 010-1.875zm0 3.75h6.313a.938.938 0 010 1.875h-6.313a.938.938 0 010-1.874zm0 3.75h6.25a.938.938 0 010 1.876h-6.25a.938.938 0 010-1.876zM11.937 16c0-.518.42-.938.938-.938h6.25a.938.938 0 010 1.876h-6.25a.938.938 0 01-.938-.938z"/></g><defs><clipPath id="clip0_4_1327"><path fill="#fff" d="M0 0h32v32H0z"/></clipPath></defs></svg>