<svg width="44" height="44" fill="none" xmlns="http://www.w3.org/2000/svg"><path fill-rule="evenodd" clip-rule="evenodd" d="M12.98 7.872v11.386h3.327V7.872c0-.367.145-.715.408-.979a1.38 1.38 0 01.979-.408h8.613c.367 0 .714.145.978.408.263.264.409.612.409.979v11.386h3.327V7.872a4.68 4.68 0 00-1.384-3.33 4.681 4.681 0 00-3.33-1.384h-8.613a4.682 4.682 0 00-3.33 1.383 4.68 4.68 0 00-1.385 3.33zm9.953 20.093v2.085h1.445c.987 0 1.43-.524 1.43-1.043 0-.519-.443-1.042-1.43-1.042h-1.445z" fill="#D09FFF"/><path fill-rule="evenodd" clip-rule="evenodd" d="M19.672 23.86a1.818 1.818 0 01-2.245 1.296l-2.33 4.034a1.81 1.81 0 010 2.591l2.346 4.063a1.818 1.818 0 012.22 1.268h4.675a1.818 1.818 0 012.22-1.268l2.345-4.063a1.81 1.81 0 010-2.59l-2.33-4.035a1.818 1.818 0 01-2.245-1.296h-4.656zm2.809 3.2h1.897c1.532 0 2.334.98 2.334 1.947 0 .968-.802 1.947-2.334 1.947h-1.445v2.538a.452.452 0 01-.904 0v-5.98c0-.249.202-.451.452-.451zm-3.097 5.98h.74a.452.452 0 110 .903H17.74a.452.452 0 110-.904h.74v-5.074h-.74a.452.452 0 110-.904h2.383a.452.452 0 010 .904h-.74v5.074zm6.703-10.543a.912.912 0 00-.911.91.912.912 0 001.821 0 .912.912 0 00-.91-.91z" fill="#D09FFF"/><path fill-rule="evenodd" clip-rule="evenodd" d="M26.087 21.593c1 0 1.815.814 1.815 1.815 0 .507-.21.966-.546 1.295l2.33 4.034a1.817 1.817 0 012.302 1.748 1.817 1.817 0 01-2.302 1.75l-2.342 4.054c.344.33.558.794.558 1.308 0 1-.815 1.815-1.815 1.814a1.818 1.818 0 01-1.767-1.395h-4.64a1.816 1.816 0 01-3.582-.419c0-.513.214-.977.557-1.308l-2.34-4.055a1.817 1.817 0 01-2.302-1.749 1.817 1.817 0 012.302-1.748l2.329-4.034a1.81 1.81 0 01-.546-1.295c0-1.001.815-1.815 1.816-1.815.844 0 1.556.58 1.758 1.362h4.657a1.818 1.818 0 011.758-1.362zm5.665-1.43H12.248A2.801 2.801 0 009.45 22.96v15.082a2.801 2.801 0 002.798 2.799h19.504a2.801 2.801 0 002.798-2.799V22.961a2.801 2.801 0 00-2.798-2.799z" fill="#D09FFF"/><path fill-rule="evenodd" clip-rule="evenodd" d="M29.718 29.698a.912.912 0 101.366.788.912.912 0 00-1.364-.79l-.002.002zm-3.631 6.988a.911.911 0 000 1.821.912.912 0 000-1.821zm-8.173 0a.912.912 0 00-.911.91c0 .502.409.911.91.911a.912.912 0 000-1.821zm-4.087-7.111a.912.912 0 10.91.91.912.912 0 00-.454-.787l-.003-.002a.904.904 0 00-.453-.121zm4.087-7.078a.912.912 0 00-.911.91.912.912 0 001.821 0 .912.912 0 00-.91-.91z" fill="#D09FFF"/></svg>