<svg width="54" height="63" viewBox="0 0 54 63" fill="none" xmlns="http://www.w3.org/2000/svg">
<path fill-rule="evenodd" clip-rule="evenodd" d="M48.3654 42.1819C48.2093 42.8254 47.9296 43.6047 47.5643 44.4653C47.2975 44.4099 47.04 44.458 46.8985 44.4844L46.898 44.4845C46.8533 44.4929 46.8202 44.4991 46.8021 44.4991C46.7201 44.4991 46.4286 44.9546 46.1504 45.3893L46.1503 45.3895C45.9735 45.6657 45.8021 45.9335 45.6932 46.0708C45.4006 46.4364 44.6087 47.07 44.0482 47.4234C43.4875 47.7768 43.049 47.9717 41.8548 47.8864C40.7807 47.7988 40.3966 47.4647 40.0554 47.1678L40.0549 47.1674C40.0358 47.1508 40.0169 47.1343 39.9979 47.118C39.9792 47.1018 39.9604 47.0858 39.9416 47.07C39.9138 47.0459 39.8861 47.0221 39.8586 46.9985L39.8583 46.9983L39.8581 46.9981C39.5106 46.7003 39.1915 46.4268 39.2592 45.6931C39.2687 45.6051 39.2783 45.5201 39.2876 45.4379C39.362 44.7803 39.4149 44.3133 39.1984 44.0966C39.0377 43.9359 38.8385 43.857 38.5194 43.8205C38.5743 43.6749 38.66 43.5157 38.7965 43.2929C39.0922 42.8442 39.0807 42.0286 39.0691 41.2032C39.0668 41.0423 39.0646 40.881 39.0646 40.7219C39.0646 38.1872 38.7719 35.6041 38.187 33.7031C37.8353 32.5359 37.3472 31.5995 36.8466 30.6392C36.5842 30.1358 36.3183 29.6259 36.067 29.0727C35.4076 27.6278 35.0604 26.542 34.7585 25.5977C34.3907 24.4475 34.09 23.5071 33.374 22.3829C32.8106 21.487 32.5657 20.7049 32.3714 20.0843C32.2287 19.6285 32.1133 19.2598 31.919 18.9972C32.1527 18.5637 32.2732 18.0064 32.3196 17.2755C32.3636 16.6231 31.9517 16.2173 31.34 15.9194C31.8327 15.5588 32.1004 15.0493 32.277 14.3889C32.5696 13.2923 32.5818 12.0737 31.7653 10.648C30.9977 9.28343 30.559 9.06392 29.4499 8.97862C27.7442 8.8324 26.9398 10.0266 26.5622 10.8795C26.229 11.6469 26.2304 11.6864 26.2545 12.3429C26.2595 12.4787 26.2654 12.6409 26.2696 12.8414C26.2792 13.3246 26.392 13.671 26.5513 13.96C25.9784 13.8008 25.2879 13.7388 24.7284 13.8078C24.564 13.8267 24.4151 13.836 24.2742 13.8448C24.0107 13.8612 23.7749 13.8758 23.5168 13.9489C23.6548 13.5984 23.7412 13.1962 23.735 12.5611C23.735 11.4371 23.4136 10.9974 22.9142 10.3142C22.8722 10.2568 22.8289 10.1977 22.7845 10.1362C22.2362 9.38074 21.3588 9.34418 20.8105 9.44167C20.4937 9.49041 20.0795 9.89253 19.7991 10.4896C19.6163 10.8917 19.4701 11.4035 19.4577 11.9397C19.4212 13.3776 19.5432 13.9259 19.8721 14.9007C20.0348 15.3788 20.2952 15.7613 20.5947 16.0245C20.5753 16.0406 20.556 16.0565 20.5369 16.0723C19.7925 16.6883 19.3092 17.0882 19.331 17.9782C19.3354 18.4472 19.5178 18.8616 19.8011 19.2434C19.7501 19.3129 19.7199 19.4338 19.7138 19.6165C19.6859 20.5087 19.7019 20.8826 19.7207 21.322C19.7347 21.6508 19.7504 22.0162 19.7504 22.6628C19.7504 23.3341 19.5464 23.5921 19.117 24.135C18.8995 24.4101 18.6241 24.7583 18.2881 25.2705C17.7763 26.0747 17.3742 26.9399 17.0574 27.8173C16.8624 28.3412 16.6796 28.8896 16.5334 29.4257C16.503 29.5598 16.4603 29.6969 16.4177 29.8339C16.375 29.971 16.3324 30.1081 16.3019 30.2421C16.0619 31.1261 15.5265 32.1086 14.9891 33.0949C14.4079 34.1615 13.8242 35.2326 13.6089 36.1886C13.5194 36.5834 13.4266 36.9475 13.3365 37.3004C13.0097 38.5814 12.7204 39.7153 12.7681 41.6357C12.8151 43.5228 12.8403 43.5363 13.1894 43.7218C13.2934 43.7771 13.4262 43.8476 13.5967 43.9875C13.824 44.1769 14.0537 44.3628 14.297 44.5598L14.2973 44.5599L14.2974 44.5601C14.8368 44.9966 15.4434 45.4877 16.241 46.193C16.6722 46.5682 17.2682 47.0425 17.8735 47.5242C18.9787 48.4038 20.1149 49.308 20.3353 49.678C20.7008 50.2629 20.6886 51.579 20.4693 52.0054C20.2634 52.3944 18.5646 52.6223 18.3676 52.6487C18.3548 52.6504 18.3483 52.6513 18.349 52.6513C18.337 52.6513 20.0184 54.9665 20.3476 55.2953C20.3541 55.3018 20.3611 55.3089 20.3685 55.3164L20.3692 55.3171C20.7243 55.6758 22.1471 57.1135 27.5858 56.0996C30.7174 55.5148 33.1423 53.7601 34.897 52.0662C35.2794 51.6941 35.5647 51.3668 35.7761 51.0743C35.7626 51.2938 35.7459 51.5072 35.7256 51.7125C35.5908 53.0904 35.3854 54.1947 35.2032 55.1746C35.0067 56.2312 34.8371 57.1432 34.8118 58.0978C34.7861 58.8812 34.8824 59.5557 35.0445 60.1101C31.6652 59.2302 30.3881 59.3093 27.164 59.5088C26.8467 59.5285 26.5105 59.5493 26.1516 59.5705C25.1719 59.6286 24.4766 59.652 23.9508 59.6697H23.9506C23.2088 59.6947 22.8044 59.7084 22.415 59.7919C21.9483 59.8921 21.5032 60.0926 20.5246 60.5336L20.3635 60.6062C20.2604 60.6529 20.1474 60.673 20.0256 60.6684C20.1049 60.6063 20.1792 60.55 20.2489 60.4973C20.9258 59.9848 21.1562 59.8103 21.1273 57.9881C21.1031 56.4692 20.4466 55.6575 19.5204 54.512C19.0497 53.9299 18.5094 53.2617 17.9469 52.3708C17.0354 50.927 16.5416 50.1263 16.1007 49.4111L16.1006 49.4109C15.734 48.8164 15.4039 48.281 14.9006 47.4845C13.7917 45.7542 11.5983 42.6103 10.3432 42.5736C9.4966 42.553 8.96491 42.9347 8.44425 43.4373C8.37762 43.1722 8.31534 42.9375 8.25928 42.7263C7.78626 40.9437 7.75594 40.8294 9.28696 38.1973C10.0866 36.8228 10.5785 35.4557 11.0912 34.0307C11.7194 32.2848 12.3788 30.452 13.6737 28.4124C14.4533 27.1805 15.273 26.1493 16.0135 25.2179C17.507 23.3393 18.6782 21.866 18.5479 19.9679C18.5145 19.5092 18.4814 19.0604 18.449 18.6215C17.7373 8.97468 17.3746 4.05737 21.8503 1.72636C26.3101 -0.588865 30.0389 0.788086 31.5133 1.58014C31.545 1.59722 31.5784 1.61511 31.6133 1.6338C32.2755 1.98849 33.4868 2.63733 34.4013 3.73695C35.3639 4.8702 36.2291 6.58834 36.7165 8.75734C37.2 10.8622 37.1186 11.612 37.0341 12.3898C36.944 13.2195 36.8505 14.0811 37.4354 16.6535C38.3712 20.8034 40.1136 23.1874 42.28 26.1513L42.2802 26.1516L42.281 26.1526C42.7095 26.7389 43.1546 27.348 43.6134 27.9979C46.3914 31.934 49.2915 38.4288 48.3654 42.1819ZM30.2962 3.50501C30.1205 3.85026 29.9443 4.83694 30.2912 4.6462C30.407 4.58227 30.5586 4.52353 30.7119 4.46414C30.9996 4.35264 31.2933 4.23886 31.3666 4.08415C31.4313 3.71588 30.4921 3.10052 30.2962 3.50501ZM22.5664 8.89552C22.4881 8.96944 22.6015 9.05211 22.7741 9.17789C22.8378 9.22433 22.9096 9.27665 22.9827 9.33657C23.1016 9.43435 23.1771 9.54467 23.2373 9.63271C23.3209 9.7548 23.3751 9.83406 23.4752 9.77761C23.6416 9.68554 23.3952 9.38768 23.2391 9.20337C23.0326 8.95239 22.6769 8.80075 22.5664 8.89552ZM30.5285 8.40895C30.5204 8.4763 30.6631 8.53092 30.7994 8.58311C30.8395 8.59846 30.8791 8.61361 30.9141 8.6288C31.0686 8.6899 31.3658 8.92176 31.5028 9.08778C31.5124 9.09969 31.5229 9.11313 31.5344 9.12779L31.5596 9.15997L31.5597 9.16009C31.7134 9.357 31.981 9.69985 32.0432 9.60465C32.1086 9.50242 31.9591 9.19914 31.7892 9.02872C31.6298 8.85863 31.4509 8.67162 31.1495 8.50881C30.9085 8.37714 30.5382 8.33923 30.5285 8.40895ZM12.2349 42.0711C11.4795 40.9257 11.513 39.3355 11.5892 38.3422C11.6288 38.1291 11.2907 38.2207 11.2387 38.3454C11.181 38.5861 11.0256 39.628 11.1351 40.1976C11.3027 41.0719 11.5159 41.7909 12.0003 42.3636C12.4755 42.9422 12.9903 43.2135 12.2349 42.0711ZM12.3503 35.6985C12.9653 33.9088 13.252 33.3548 13.6619 32.5729C14.0698 31.7931 14.1034 31.2171 13.8054 31.5959C13.443 32.0588 12.8545 33.3488 12.627 33.8475L12.5887 33.9313C12.5887 33.9313 12.1619 34.8447 12.1028 35.4724C12.0886 35.6922 12.2799 35.894 12.3503 35.6985ZM38.1414 29.7798C37.9409 29.4628 39.5251 29.947 40.5445 31.1904C40.7002 31.3808 40.4296 31.6051 40.2556 31.4235C39.3266 30.4688 38.3143 29.8804 38.1603 29.7908C38.1538 29.7871 38.1489 29.7842 38.1455 29.7823L38.1427 29.7806L38.1414 29.7798ZM42.4479 33.8514C42.957 34.7574 43.09 36.6495 42.8402 37.3347C42.783 37.4898 42.4706 37.1822 42.4725 36.967C42.5604 35.1715 41.8508 33.8022 41.6295 33.3751L41.6294 33.3749L41.6293 33.3747C41.5887 33.2963 41.5646 33.2497 41.565 33.2382C41.555 33.2015 41.765 32.9275 41.9084 32.9603C42.009 32.9856 42.1196 33.2083 42.2504 33.4718C42.3115 33.5947 42.377 33.7266 42.4479 33.8514ZM43.472 42.6049C43.1524 42.56 42.9078 42.5257 42.8874 42.4039C42.862 42.2851 43.1218 42.2372 43.5424 42.2766C43.982 42.3247 44.3369 42.4562 44.8056 42.6299L44.806 42.63L44.8061 42.6301L44.8073 42.6305C44.8704 42.6539 44.9355 42.678 45.0031 42.7027C45.7567 42.9776 46.1077 43.2628 46.1502 43.605C46.1859 43.8885 46.0356 44.0494 45.8075 44.0357C45.6902 44.017 45.6902 43.9785 45.6902 43.9041C45.6902 43.812 45.6902 43.665 45.467 43.4328C45.0165 42.9892 44.7915 42.9226 44.175 42.7401L44.1604 42.7357C43.9269 42.6687 43.6831 42.6345 43.472 42.6049ZM41.4526 42.6469C40.7215 42.6469 40.313 42.9979 40.0512 43.2228L40.0511 43.2228C40.0231 43.2469 39.9968 43.2695 39.9719 43.29C39.9602 43.3043 39.9486 43.3184 39.9371 43.332L39.937 43.3322C39.9289 43.3424 39.9208 43.3526 39.9127 43.3626C39.8997 43.3787 39.8869 43.3946 39.8741 43.4098C39.8562 43.4327 39.8384 43.4551 39.8209 43.4762C39.8018 43.501 39.7829 43.525 39.7641 43.5475C39.7468 43.5702 39.7295 43.5922 39.7123 43.6127C39.6955 43.635 39.6786 43.6565 39.6619 43.6766C39.6454 43.6986 39.6289 43.7197 39.6125 43.7395C39.4856 43.9097 39.3594 44.0266 39.2227 43.89C39.0764 43.7436 39.3934 43.2805 39.6734 42.9514C39.966 42.6103 40.4534 42.2324 41.1845 42.1349C41.2965 42.1182 41.397 42.1034 41.487 42.0915C41.4773 41.9049 41.5905 41.5982 41.7437 41.1827L41.7438 41.1825C41.8592 40.8695 41.9974 40.4949 42.123 40.0634C42.2157 39.7352 42.2959 39.127 42.3562 38.6695C42.3989 38.3458 42.4316 38.0976 42.4518 38.0774C42.6102 37.9189 43.0001 38.3698 43.0001 38.6255C43.0197 39.4787 42.3766 41.3967 41.9278 42.0629C42.0983 42.0772 42.1708 42.1465 42.1836 42.3055C42.1859 42.3261 42.1884 42.3453 42.1907 42.3635L42.1908 42.364C42.2243 42.6256 42.227 42.6469 41.4526 42.6469ZM25.0017 12.663C25.1815 12.629 25.393 12.6507 25.7276 12.807C25.9575 12.9198 25.8593 12.9844 25.5193 12.9128C25.3084 12.8687 25.2912 12.8659 25.2409 12.8579C25.2141 12.8536 25.178 12.8478 25.098 12.8334C24.7132 12.7696 24.6458 12.7275 25.0017 12.663Z" fill="#9B9B9B"/>
<path d="M23.5894 28.8716C23.6583 28.8793 23.8706 28.8453 24.1017 28.8082C24.4426 28.7536 24.8246 28.6924 24.8472 28.7488C24.8645 28.7832 24.7299 28.8454 24.5569 28.9252C24.3512 29.0202 24.0912 29.1403 23.9679 29.2687C23.8922 29.3443 23.6935 29.5241 23.5707 29.5051C23.5161 29.4996 23.4742 29.4316 23.4214 29.346C23.3825 29.2828 23.3377 29.21 23.2775 29.1458C23.1155 28.9838 22.9813 28.9053 22.8923 28.8532C22.7944 28.796 22.7512 28.7707 22.7859 28.7014C22.8181 28.6422 22.9792 28.6964 23.166 28.7593C23.3073 28.8069 23.4633 28.8594 23.5894 28.8716Z" fill="#9B9B9B"/>
<path d="M22.5154 38.8408C22.6083 37.3503 22.6752 36.277 22.3702 36.2617C21.8828 36.2374 21.4563 39.4421 21.4565 42.257C21.4565 45.0718 22.0659 46.3389 22.4191 45.9855C22.618 45.7866 22.5852 45.3869 22.5186 44.5736C22.4669 43.9419 22.3948 43.0607 22.3948 41.8303C22.3948 40.7759 22.4597 39.7336 22.5154 38.8408Z" fill="#9B9B9B"/>
<path d="M31.1319 29.1671C31.2236 28.8505 33.5573 28.7755 34.1241 28.8671C34.6909 28.9588 36.8412 31.6342 36.3994 31.8093C36.1902 31.8922 35.9231 31.6238 35.5503 31.2492C35.1358 30.8326 34.5905 30.2846 33.8489 29.9423C33.0884 29.5913 32.3304 29.4857 31.8082 29.413C31.3633 29.351 31.0897 29.3129 31.1319 29.1671Z" fill="#9B9B9B"/>
<path d="M45.7613 51.058C45.362 51.2815 44.828 51.5326 44.1582 51.7001C43.2655 51.9233 42.3933 51.9353 41.5688 51.8764L41.5486 51.8749L41.5284 51.8733C40.9066 51.8225 40.3151 51.714 39.7532 51.5327C39.7396 51.7269 39.7237 51.9181 39.7053 52.1046C39.7052 52.1055 39.7051 52.1064 39.705 52.1073L35.7245 51.7126C35.5897 53.0905 35.3844 54.1948 35.2022 55.1747C35.0057 56.2313 34.8361 57.1433 34.8108 58.0979L45.7613 51.058ZM45.7613 51.058C46.309 51.8 46.9323 52.4582 47.4914 52.9884M45.7613 51.058L47.4914 52.9884M47.4914 52.9884C46.6777 53.4595 45.7578 54.0068 44.9619 54.5495L44.9619 54.5495L44.9536 54.5552C42.4664 56.2604 41.4378 57.1343 40.4392 58.1327L40.4387 58.1332C40.1584 58.4135 40.0384 58.4572 40.0144 58.4659C40.0135 58.4663 40.0128 58.4665 40.0121 58.4668C39.9612 58.4861 39.7488 58.5578 39.1243 58.5578C39.0071 58.5578 38.9037 58.5555 38.8129 58.5518L47.4914 52.9884ZM49.8955 51.5692C49.8956 51.5692 49.8944 51.5701 49.892 51.5719C49.8923 51.5716 49.8926 51.5713 49.8929 51.5709C49.8945 51.5698 49.8954 51.5692 49.8955 51.5692ZM50.4097 55.2049C50.4183 55.2102 50.417 55.2097 50.4077 55.2036C50.4084 55.2041 50.4091 55.2045 50.4097 55.2049Z" stroke="#9B9B9B" stroke-width="8"/>
<path d="M8.01701 49.996L8.01692 49.996C7.15342 50.6198 6.21554 50.915 5.67241 51.0668C5.45356 51.1279 5.22535 51.1844 5.006 51.2352C5.06272 51.7978 5.10823 52.4591 5.10519 53.1607M8.01701 49.996L5.10514 53.1705C5.10516 53.1673 5.10518 53.164 5.10519 53.1607M8.01701 49.996C9.01692 49.2737 9.74888 48.3414 10.2012 47.7128C10.6853 48.3582 11.1542 49.0547 11.5246 49.6323C12.0118 50.4034 12.3303 50.9199 12.6946 51.5107C12.7317 51.5709 12.7693 51.6318 12.8075 51.6939C13.227 52.3739 13.719 53.1692 14.5631 54.5062C15.0836 55.3307 15.5826 55.991 16.006 56.5255C16.2069 56.7792 16.3578 56.9653 16.483 57.1196C16.6616 57.3398 16.7876 57.4951 16.9309 57.6891C17.0052 57.7897 17.0532 57.8612 17.0834 57.9094C17.0411 57.9461 16.9979 57.9842 16.9538 58.0236C16.7871 58.1716 16.6354 58.3108 16.5155 58.4208L16.4985 58.4364C16.4443 58.4862 16.3981 58.5285 16.3574 58.5656C16.0573 58.5262 15.4332 58.3288 13.9769 57.777C13.9207 57.7557 13.8636 57.734 13.8055 57.712C12.5362 57.2303 10.8224 56.58 9.01153 56.2045C7.06892 55.7986 5.79556 55.5247 4.93053 55.3123M8.01701 49.996L4.93053 55.3123M5.10519 53.1607C5.10452 53.9909 5.02166 54.7283 4.93053 55.3123M5.10519 53.1607C5.10519 53.1574 5.10519 53.154 5.10519 53.1507L4.93053 55.3123M8.87606 46.1942C8.8719 46.1913 8.86981 46.1897 8.8698 46.1896C8.86979 46.1895 8.87187 46.191 8.87606 46.1942ZM3.30783 51.6256C3.31363 51.6235 3.3199 51.6213 3.32666 51.6191C3.26801 51.6452 3.25484 51.6447 3.30783 51.6256Z" stroke="#9B9B9B" stroke-width="8"/>
<g clip-path="url(#clip0_923_1838)">
<path fill-rule="evenodd" clip-rule="evenodd" d="M37.7037 16.7175C35.9537 14.0905 32.2564 12.1445 29.3375 12.1445C26.224 12.1445 23.9862 13.4094 22.2348 16.1337C20.1249 19.2174 20.2485 22.6395 20.3477 25.384C20.3674 25.9301 20.3862 26.4493 20.3862 26.9337C20.3862 31.604 23.597 37.2472 24.6672 38.4148C25.5897 39.3661 26.2645 40.2235 26.8435 40.9591C28.2185 42.7061 29.0528 43.7662 31.3808 43.7662C32.8402 43.7662 35.37 43.1824 36.5375 42.5013C40.2335 40.3607 40.9145 33.4526 40.9145 27.2256C40.9145 23.0418 39.5524 19.3445 37.7037 16.7175ZM35.5175 20.8662C34.2783 18.1553 30.8702 17.5364 30.0189 18.8526C29.2387 20.06 30.0836 21.2675 31.7195 23.6053C31.8688 23.8186 32.0246 24.0413 32.1864 24.2743C32.9617 25.452 33.3148 26.6797 33.6036 27.684C34.0363 29.1883 34.3247 30.1911 35.6716 29.7729C36.5229 29.4634 36.7567 23.577 35.5175 20.8662Z" fill="#9B9B9B"/>
</g>
<g clip-path="url(#clip1_923_1838)">
<path fill-rule="evenodd" clip-rule="evenodd" d="M54.4939 26.6419C53.0344 18.2743 48.7533 11.7554 41.456 11.7554C38.3425 11.7554 34.6452 12.2405 32.6033 14.4797C29.879 17.4959 28.3223 21.2905 28.3223 26.6419C28.3223 31.4094 28.8088 38.1229 30.9493 41.1392C32.7845 43.6434 36.0531 43.5695 39.218 43.4979C39.7422 43.4861 40.2635 43.4743 40.775 43.4743C44.5696 43.4743 49.2398 41.3337 51.8669 37.831C54.202 34.8148 55.0777 30.4365 54.4939 26.6419ZM47.2644 18.3594C45.482 16.3432 43.7752 15.5675 43.0009 16.3432C41.7036 17.5739 42.5213 18.3736 43.822 19.6457C44.0767 19.8948 44.3498 20.162 44.6293 20.454C44.9409 20.8138 45.2155 21.3594 45.4899 21.9046C46.1019 23.1207 46.7127 24.3345 47.7306 23.477C49.2806 22.2365 49.2036 20.531 47.2644 18.3594Z" fill="#9B9B9B"/>
</g>
<path d="M25.1861 17.7816L25.1988 17.7802C25.2063 17.78 25.2235 17.7798 25.2502 17.781C25.2794 17.7824 25.3104 17.7851 25.3413 17.7888C25.5131 17.9084 25.6876 18.023 25.868 18.1322C25.5695 18.3171 25.3604 18.4326 25.2119 18.5021C25.211 18.5021 25.21 18.5021 25.2091 18.5021C25.1152 18.5031 25.0286 18.504 24.9437 18.5043C24.9112 18.5044 24.8798 18.5044 24.8496 18.5044C24.8292 18.485 24.808 18.4648 24.786 18.4438L24.7801 18.4381C24.6851 18.3475 24.5748 18.2423 24.46 18.1346C24.436 18.112 24.4113 18.089 24.3862 18.0655C24.4033 18.0521 24.4205 18.0388 24.4376 18.0255C24.535 17.9501 24.6247 17.883 24.705 17.8253C24.8361 17.8162 25.0031 17.8027 25.1861 17.7816ZM29.6073 19.525C29.6068 19.5251 29.5977 19.5212 29.5813 19.5126C29.5995 19.5205 29.6077 19.5248 29.6073 19.525ZM29.1454 16.3524C29.1454 16.3524 29.1449 16.3527 29.1438 16.3531L29.1454 16.3524ZM25.0848 18.5549C25.0849 18.5546 25.0913 18.5523 25.1036 18.5486C25.0909 18.5534 25.0847 18.5552 25.0848 18.5549Z" stroke="#9B9B9B" stroke-width="8"/>
<path fill-rule="evenodd" clip-rule="evenodd" d="M25.5818 15.5278C25.6877 15.7468 25.9595 15.7771 26.141 15.8753C26.3148 15.9736 26.4128 15.9961 26.481 15.9584C26.6321 15.8753 26.5189 15.6033 26.3678 15.5051C26.2239 15.407 25.5214 15.3841 25.5818 15.5278Z" fill="#9B9B9B"/>
<path fill-rule="evenodd" clip-rule="evenodd" d="M22.814 15.9003C22.7783 15.99 23.0298 16.1609 23.1557 16.0442C23.2906 15.9274 23.4524 15.8194 23.5064 15.7835C23.749 15.6216 23.659 15.5049 23.2547 15.5769C22.8504 15.6488 22.85 15.8104 22.814 15.9003Z" fill="#9B9B9B"/>
<path fill-rule="evenodd" clip-rule="evenodd" d="M20.0039 18.8994C20.227 18.9292 20.6435 19.2509 21.138 19.5832C21.8713 20.1456 22.948 20.3639 23.7247 20.4153C25.5791 20.6309 28.7689 18.9094 29.3706 18.4296C30.0743 17.9168 30.8789 17.2686 31.1996 17.2097C31.3509 17.4284 30.941 17.4587 30.3705 17.9347C29.75 18.346 29.4298 18.6063 28.5829 19.0849C27.6149 19.5915 25.862 20.5759 23.7772 20.5577C22.6278 20.4268 22.0414 20.2821 21.6501 20.0501C21.0942 19.7064 20.3668 19.3163 20.0039 18.8994H20.0039Z" fill="#9B9B9B"/>
<defs>
<clipPath id="clip0_923_1838">
<rect width="2.63002" height="4.13288" fill="white" transform="translate(20.0762 11.2979)"/>
</clipPath>
<clipPath id="clip1_923_1838">
<rect width="3.50669" height="4.13288" fill="white" transform="translate(27.5898 11.2979)"/>
</clipPath>
</defs>
</svg>
