<svg width="70" height="82" viewBox="0 0 70 82" fill="none" xmlns="http://www.w3.org/2000/svg">
<path fill-rule="evenodd" clip-rule="evenodd" d="M20.4694 0.0932423C20.5807 0.0321955 20.6935 0.00126139 20.8146 3.52077e-05C21.0739 -0.00242697 21.3197 0.125807 21.458 0.372868L25.1141 6.89745C28.105 5.58406 31.4597 4.84687 34.9998 4.84687C38.5399 4.84687 41.8946 5.58406 44.8855 6.89745L48.5416 0.372868C48.68 0.125807 48.9257 -0.00244168 49.185 3.52077e-05C49.3061 0.00117801 49.4189 0.0321955 49.5302 0.0932423C49.8955 0.293726 50.0157 0.709338 49.8126 1.07193L46.2036 7.52661C53.1472 11.1035 57.8373 17.901 57.8467 25.7022H12.1529C12.1623 17.901 16.8524 11.1035 23.796 7.52661L20.187 1.07193C19.984 0.709338 20.1041 0.293726 20.4694 0.0932423ZM22.5485 15.5348C22.5485 14.5021 23.4119 13.6473 24.455 13.6473C25.4981 13.6473 26.3615 14.5021 26.3615 15.5348C26.3615 16.5674 25.4981 17.4222 24.455 17.4222C23.4119 17.4222 22.5485 16.5674 22.5485 15.5348ZM43.6379 15.5348C43.6379 14.5021 44.5014 13.6473 45.5445 13.6473C46.5876 13.6473 47.451 14.5021 47.451 15.5348C47.451 16.5674 46.5876 17.4222 45.5445 17.4222C44.5014 17.4222 43.6379 16.5674 43.6379 15.5348Z" fill="#9B9B9B"/>
<path d="M21.3403 76.9279V65.743H17.6763C14.6164 65.743 12.1529 63.3042 12.1529 60.2748V27.4887H57.8467V60.2748C57.8467 63.3042 55.3833 65.743 52.3233 65.743H48.6593V76.9279C48.6593 79.7525 46.3891 82 43.536 82C40.6829 82 38.4127 79.7525 38.4127 76.9279V65.743H31.5869V76.9279C31.5869 79.7525 29.3167 82 26.4636 82C23.6105 82 21.3403 79.7525 21.3403 76.9279Z" fill="#9B9B9B"/>
<path d="M0 31.6909C0 28.8663 2.27022 26.6188 5.12329 26.6188C7.97636 26.6188 10.2466 28.8663 10.2466 31.6909V52.8181C10.2466 55.6427 7.97636 57.8902 5.12329 57.8902C2.27022 57.8902 0 55.6427 0 52.8181V31.6909Z" fill="#9B9B9B"/>
<path d="M59.7534 31.6909C59.7534 28.8663 62.0236 26.6188 64.8767 26.6188C67.7298 26.6188 70 28.8663 70 31.6909V52.8181C70 55.6427 67.7298 57.8902 64.8767 57.8902C62.0236 57.8902 59.7534 55.6427 59.7534 52.8181V31.6909Z" fill="#9B9B9B"/>
</svg>
