<svg width="145" height="73" viewBox="0 0 145 73" fill="none" xmlns="http://www.w3.org/2000/svg">
<path d="M1.29381 71.1658H13.1908V20.5204H1.29381V71.1658ZM7.21847 13.8787C10.9453 13.8787 13.8598 11.0119 13.8598 7.4286C13.8598 3.79734 10.9453 0.930664 7.21847 0.930664C3.5395 0.930664 0.625 3.79746 0.625 7.4286C0.625 11.012 3.5395 13.8787 7.21847 13.8787ZM52.8013 1.07365C32.6867 1.07365 20.0725 14.7863 20.0725 36.7172C20.0725 58.6482 32.6855 72.3131 52.8013 72.3131C72.8682 72.3131 85.4824 58.6482 85.4824 36.7172C85.4824 14.7863 72.8694 1.07365 52.8013 1.07365ZM52.8013 11.5851C65.0804 11.5851 72.9159 21.3321 72.9159 36.717C72.9159 52.054 65.0802 61.8012 52.8013 61.8012C40.4745 61.8012 32.6867 52.0542 32.6867 36.717C32.6867 21.3323 40.4747 11.5851 52.8013 11.5851ZM90.501 51.7677C91.0265 64.4774 101.442 72.3129 117.305 72.3129C133.98 72.3129 144.492 64.0948 144.492 51.0033C144.492 40.7308 138.567 34.9495 124.568 31.7486L116.637 29.9329C108.18 27.9263 104.692 25.2506 104.692 20.6639C104.692 14.9304 109.948 11.1081 117.735 11.1081C125.619 11.1081 131.018 14.9782 131.591 21.4283H143.345C143.058 9.29243 133.025 1.07402 117.831 1.07402C102.828 1.07402 92.1735 9.33976 92.1735 21.5714C92.1735 31.4139 98.1937 37.5298 110.902 40.4445L119.837 42.5468C128.533 44.6014 132.068 47.468 132.068 52.437C132.068 58.1705 126.287 62.2795 117.974 62.2795C109.565 62.2795 103.211 58.1228 102.446 51.7681H90.5016L90.501 51.7677Z" fill="#9B9B9B"/>
</svg>
