<svg width="43" height="43" fill="none" xmlns="http://www.w3.org/2000/svg"><g clip-path="url(#clip0_216_405)" fill="#2D6AFF"><path d="M42.093 6.759a1.465 1.465 0 00-1.602.318l-1.678 1.678a21.696 21.696 0 00-7.082-6.175A21.482 21.482 0 0021.514 0H8.202c-.597 0-1.13.356-1.358.907A1.465 1.465 0 007.16 2.51l1.642 1.642A21.477 21.477 0 000 21.5v13.383c0 .597.356 1.13.908 1.358.55.229 1.18.103 1.601-.318l1.678-1.678a21.708 21.708 0 003.131 3.416.627.627 0 00.889-.057.63.63 0 00-.057-.89 20.445 20.445 0 01-3.361-3.797.63.63 0 00-.966-.09l-2.205 2.205a.2.2 0 01-.228.045.2.2 0 01-.13-.194V22.802a.21.21 0 01.21-.21h12.082a.2.2 0 01.194.13.2.2 0 01-.046.228l-1.91 1.91a.63.63 0 00-.136.685 10.62 10.62 0 009.846 6.6c2.9 0 5.611-1.148 7.636-3.234a.208.208 0 01.281-.011l3.562 2.977a.63.63 0 10.808-.966l-3.562-2.978a1.472 1.472 0 00-1.993.1 9.31 9.31 0 01-6.732 2.853 9.361 9.361 0 01-8.515-5.44l1.606-1.605c.422-.422.547-1.05.319-1.602a1.465 1.465 0 00-1.358-.907h-1.435a9.252 9.252 0 011.052-4.152.63.63 0 10-1.117-.582 10.653 10.653 0 00-1.195 4.734c-.467.017-9.088-.033-9.596.017a20.223 20.223 0 018.87-16.594.63.63 0 00.092-.966l-2.17-2.17a.2.2 0 01-.046-.23.2.2 0 01.194-.13h12.081a.21.21 0 01.21.21v2.52a.63.63 0 101.26 0V1.262a20.242 20.242 0 0116.46 8.821.63.63 0 00.965.09l2.205-2.205a.2.2 0 01.229-.046.2.2 0 01.13.194v12.082a.21.21 0 01-.21.21H29.448a.2.2 0 01-.194-.13.2.2 0 01.045-.228l1.91-1.91a.63.63 0 00.136-.685 10.617 10.617 0 00-9.594-6.596v-3.93a.63.63 0 10-1.26 0v6.622a.2.2 0 01-.13.194.2.2 0 01-.228-.045L18.2 11.766a.63.63 0 00-.682-.139 10.616 10.616 0 00-3.586 2.393.63.63 0 10.896.886 9.359 9.359 0 012.783-1.947l1.632 1.632c.422.421 1.05.547 1.602.318.551-.228.907-.761.907-1.358v-1.433a9.358 9.358 0 018.263 5.435l-1.606 1.606a1.465 1.465 0 00-.318 1.602c.228.55.761.907 1.358.907H41.53c.81 0 1.47-.66 1.47-1.47V8.116c0-.596-.356-1.13-.907-1.357zM37.28 33.83l-1.215-1.015a.63.63 0 00-.808.966l1.214 1.015a.211.211 0 01.023.301c-3.827 4.217-9.341 6.67-15.007 6.643-3.941 0-7.755-1.13-11.028-3.269a.63.63 0 00-.69 1.055A21.36 21.36 0 0021.486 43c5.995.026 11.861-2.557 15.941-7.055.271-.298.405-.684.378-1.086a1.48 1.48 0 00-.525-1.029z"/></g><defs><clipPath id="clip0_216_405"><path fill="#fff" d="M0 0h43v43H0z"/></clipPath></defs></svg>