<svg width="52" height="52" fill="none" xmlns="http://www.w3.org/2000/svg"><path d="M26.037 50.267h-.074a1.157 1.157 0 01-.361-.058c-3.608-1.091-6.995-3.01-10.065-5.704a32.436 32.436 0 01-7.164-9.063c-3.506-6.59-5.087-14.769-4.338-22.438a1.155 1.155 0 011.037-1.037c.027-.003 2.897-.302 6.804-1.676 3.58-1.259 8.794-3.707 13.307-8.22a1.156 1.156 0 011.634 0c4.513 4.514 9.727 6.961 13.307 8.22 3.907 1.374 6.776 1.673 6.805 1.676.548.055.982.489 1.036 1.037.75 7.67-.832 15.848-4.338 22.438a32.438 32.438 0 01-7.164 9.063c-3.07 2.694-6.457 4.613-10.065 5.704a1.111 1.111 0 01-.361.058zM6.258 14.134c-.502 6.962.995 14.282 4.155 20.223C13.875 40.864 19.685 45.91 26 47.913c6.315-2.002 12.125-7.05 15.587-13.556 3.16-5.941 4.657-13.261 4.155-20.223-1.219-.197-3.5-.654-6.313-1.637-3.613-1.263-8.787-3.661-13.429-8-4.642 4.339-9.816 6.737-13.43 8-2.811.983-5.093 1.44-6.312 1.637z" fill="#2D6AFF"/><path d="M23.08 32.281c-.296 0-.592-.112-.817-.338L17.85 27.53a1.156 1.156 0 011.634-1.634l3.595 3.594 9.434-9.434a1.156 1.156 0 011.635 1.634L23.897 31.943a1.152 1.152 0 01-.817.338z" fill="#2D6AFF"/></svg>