<svg width="42" height="42" fill="none" xmlns="http://www.w3.org/2000/svg"><g clip-path="url(#clip0_216_392)"><path d="M40.373 28.98a.617.617 0 00.032-.077c2.489-5.743 2.044-12.784-1.188-18.166 1.726-2.063-.516-5.016-2.966-3.873-.431-.44-.883-.862-1.352-1.261.92-2.5-2.15-4.552-4.062-2.684C25.28.113 18.37.15 12.842 3.014c-1.966-2.083-5.267.15-4.077 2.764A20.304 20.304 0 006.843 7.7c-.513.588.417 1.394.927.81a19.074 19.074 0 011.787-1.788c1.225.884 3 .434 3.673-.915a26.796 26.796 0 016.308 2.73 2.535 2.535 0 00.186 1.812 28.323 28.323 0 00-4.357 4.729c-1.172-.354-2.465.239-2.975 1.349-2.585.014-5.18.292-7.726.83a2.51 2.51 0 00-.979-.998 18.844 18.844 0 012.257-5.282c.407-.655-.62-1.334-1.045-.65a20.073 20.073 0 00-2.401 5.614c-2.949.05-3.444 4.13-.637 4.915C1.82 26.66 4.33 32.305 8.683 36.15c-.908 2.453 2.04 4.476 3.985 2.746 5.677 3.019 12.852 3.02 18.53 0 1.979 1.958 5.148-.229 4.033-2.787a20.157 20.157 0 005.142-7.13zm-.775-1.377a38.615 38.615 0 00-5.56-4.576 2.522 2.522 0 00-.622-2.536 38.46 38.46 0 003.913-8.886c.308.002.604-.055.877-.158 2.835 4.787 3.353 10.96 1.392 16.156zm-28.324 6.958a27.001 27.001 0 012.64-14.71c1.398.436 2.909-.483 3.18-1.918a36.853 36.853 0 0112.168 3.71 2.529 2.529 0 00.408 2.105A37.156 37.156 0 0113.106 35.71a2.488 2.488 0 00-1.832-1.149zm19.14-12.294c0-.698.564-1.265 1.256-1.265 1.666.07 1.666 2.46 0 2.53a1.262 1.262 0 01-1.256-1.265zM38.59 9.11c0 .697-.563 1.265-1.256 1.265-1.666-.07-1.665-2.461 0-2.53.693 0 1.256.567 1.256 1.265zm-3.28-1.447c-.85 1.195-.456 2.923.827 3.633a37.238 37.238 0 01-3.783 8.572 2.527 2.527 0 00-1.06-.068 28.549 28.549 0 00-7.15-9.452 2.53 2.53 0 00.185-1.811 26.796 26.796 0 016.066-2.66c.707 1.367 2.606 1.752 3.784.73.39.336.769.689 1.13 1.056zM20.678 9.205c0-.698.563-1.265 1.256-1.265 1.666.07 1.665 2.46 0 2.53a1.262 1.262 0 01-1.256-1.265zm11.906-5.776c.692 0 1.255.567 1.255 1.265-.069 1.678-2.442 1.678-2.511 0 0-.698.563-1.265 1.256-1.265zm-21.58 2.53A1.262 1.262 0 019.75 4.694c.069-1.678 2.442-1.678 2.511 0 0 .697-.563 1.265-1.255 1.265zm2.485-1.36a2.496 2.496 0 00-.069-.497c5.153-2.665 11.59-2.711 16.782-.124a2.475 2.475 0 00-.105.703 28.029 28.029 0 00-6.38 2.787c-.96-.994-2.606-.994-3.567 0A28.027 28.027 0 0013.49 4.6zm7.05 6.671a2.496 2.496 0 002.79 0 27.312 27.312 0 016.832 9.015 2.52 2.52 0 00-.306.278 38.078 38.078 0 00-12.843-3.88 2.5 2.5 0 00-.588-.964 27.08 27.08 0 014.115-4.449zm-5.887 4.932c.692 0 1.255.568 1.255 1.265-.069 1.678-2.442 1.678-2.511 0 0-.697.563-1.265 1.256-1.265zM1.22 18.436c0-.698.563-1.265 1.255-1.265 1.666.07 1.666 2.46 0 2.53a1.262 1.262 0 01-1.255-1.265zm1.872 2.418s1.87-.408 1.87-2.402c0 0 4.797-.767 7.21-.794.046.597.3 1.135.691 1.54a28.229 28.229 0 00-2.809 15.538c-.24.1-.46.237-.656.403-4.015-3.597-6.306-9.625-6.306-14.285zm7.912 17.453a1.262 1.262 0 01-1.255-1.265c0-.697.563-1.265 1.255-1.265.684 0 1.256.592 1.256 1.265 0 .698-.563 1.265-1.255 1.265zm10.93 1.631c-2.988 0-5.942-.715-8.582-2.073.107-.308.154-.657.134-.983A38.384 38.384 0 0030.62 24.529c.368.172.776.252 1.18.23.274 1.015.49 2.05.643 3.086.118.793 1.336.616 1.218-.18a28.387 28.387 0 00-.685-3.276c.147-.091.284-.198.409-.317a37.368 37.368 0 015.703 4.766 18.93 18.93 0 01-4.631 6.312 2.482 2.482 0 00-.652-.351c.121-1.145.174-2.3.156-3.443-.012-.804-1.243-.785-1.23.02a27.383 27.383 0 01-.151 3.308c-1.452.231-2.401 1.737-2.001 3.147a18.795 18.795 0 01-8.646 2.107zm11.037-1.524a1.262 1.262 0 01-1.255-1.265c.069-1.678 2.442-1.677 2.511 0 0 .698-.563 1.265-1.256 1.265z" fill="#2D6AFF"/></g><defs><clipPath id="clip0_216_392"><path fill="#fff" d="M0 0h42v42H0z"/></clipPath></defs></svg>