<svg width="40" height="40" fill="none" xmlns="http://www.w3.org/2000/svg"><g clip-path="url(#clip0_216_347)" fill="#2D6AFF"><path d="M12.525 30.203a.585.585 0 00-.877.775l1.89 2.14v6.15a.585.585 0 101.17 0v-6.37a.585.585 0 00-.146-.388l-2.037-2.307zm-4.131-4.679a6.099 6.099 0 01-.923-6.7l.79-1.64a.585.585 0 10-1.053-.507l-.791 1.64a7.267 7.267 0 001.1 7.981l2.445 2.77a.584.584 0 00.826.052.585.585 0 00.052-.826l-2.446-2.77zm19.57-16.146c-.753 0-1.437.3-1.941.784a2.805 2.805 0 00-2.494-1.527c-.769 0-1.465.312-1.972.815a2.804 2.804 0 00-2.464-1.47 2.8 2.8 0 00-1.967.808 2.805 2.805 0 00-2.469-1.477 2.806 2.806 0 00-2.803 2.803v2.452a3.974 3.974 0 00-3.463 1.754.585.585 0 00.97.655 2.81 2.81 0 013.67-.903l7.023 3.77a1.121 1.121 0 010 1.973l-.921.495a4.587 4.587 0 01-4.213.065l-2.129-1.061a.585.585 0 00-.522 1.047l2.13 1.061a5.752 5.752 0 005.289-.081l.07-.038 1.166 1.405a3.59 3.59 0 01.828 2.29v3.37a.585.585 0 101.17 0v-3.37c0-1.107-.39-2.186-1.097-3.037L20.8 20.728a2.278 2.278 0 00.792-2.878 2.791 2.791 0 003.927-.055 2.804 2.804 0 003.687 1.141v1.396a.585.585 0 101.17 0v-2.484c.247-.417.39-.904.39-1.423v-4.244a2.806 2.806 0 00-2.803-2.803zm-14.94 3.415v-2.68c0-.9.733-1.632 1.633-1.632s1.633.732 1.633 1.633v4.38l-2.705-1.453a4.071 4.071 0 00-.56-.248zm4.436 2.329v-4.338c0-.9.733-1.633 1.633-1.633s1.633.732 1.633 1.633v5.042c0 .323-.097.637-.273.902l-2.993-1.606zm6.068 2.337c-.9 0-1.632-.733-1.632-1.633v-4.388a1.634 1.634 0 013.265.001v4.387c0 .9-.733 1.633-1.633 1.633zm4.436.598c-.9 0-1.633-.732-1.633-1.632V12.18c0-.9.733-1.632 1.633-1.632s1.633.732 1.633 1.632v4.244c0 .9-.733 1.632-1.633 1.632zm1.828 4.183a.585.585 0 00-.585.585v5.303c0 .878-.235 1.743-.678 2.5l-.887 1.516c-.13.22-.198.473-.198.73v6.394a.585.585 0 101.17 0v-6.395a.27.27 0 01.038-.138l.887-1.515a6.124 6.124 0 00.838-3.091v-5.304a.585.585 0 00-.585-.585zM26.558 5.758a.583.583 0 00.808-.176l2.918-4.533A.585.585 0 0029.3.415L26.382 4.95a.585.585 0 00.176.809zm6.009 3.923a.583.583 0 00.821-.1l6.487-8.269a.585.585 0 00-.92-.722l-6.487 8.27a.585.585 0 00.099.821zm6.563 5.842l-2.603 1.447a.585.585 0 00.57 1.023l2.602-1.448a.585.585 0 10-.569-1.022zm.508 10.802l-2.524-1.523a.585.585 0 00-.604 1.002l2.523 1.523a.583.583 0 00.804-.2.585.585 0 00-.199-.802zm-6.994 3.863a.585.585 0 10-.89.76l.939 1.098a.584.584 0 10.89-.76l-.939-1.099zm2.608 3.052a.585.585 0 10-.89.76l3.267 3.823a.584.584 0 00.825.065.585.585 0 00.065-.825l-3.267-3.824zm-13.2-29.046a.584.584 0 00.74-.371l.646-1.943a.585.585 0 10-1.11-.37l-.647 1.944a.585.585 0 00.371.74zm-9.418 1.388a.584.584 0 10.984-.633L10.7.415a.585.585 0 10-.984.634l2.918 4.533zM6.77 9.585a.584.584 0 10.916-.729L1.043.508a.585.585 0 00-.916.73L6.77 9.584zM3.072 18a.583.583 0 00.79-.247.585.585 0 00-.246-.79L.857 15.516a.585.585 0 00-.544 1.036L3.073 18zm.774 7a.585.585 0 00-.804-.198L.518 26.325a.585.585 0 10.605 1.002l2.524-1.524A.585.585 0 003.846 25zm4.491 5.123a.585.585 0 00-.825.064l-.938 1.098a.585.585 0 00.89.76l.938-1.097a.585.585 0 00-.065-.825zm-2.608 3.052a.585.585 0 00-.825.065l-3.267 3.823a.585.585 0 00.89.76L5.794 34a.585.585 0 00-.065-.825zM17.208 3.823a.586.586 0 001.11-.37l-.646-1.942a.585.585 0 00-1.11.369l.646 1.943z"/></g><defs><clipPath id="clip0_216_347"><path fill="#fff" d="M0 0h40v40H0z"/></clipPath></defs></svg>