<svg width="33" height="33" fill="none" xmlns="http://www.w3.org/2000/svg"><g clip-path="url(#clip0_5_1409)" fill="#D09FFF"><path d="M11.062 14.55a.976.976 0 00-.975.976v.978h1.95v-.978a.976.976 0 00-.975-.975zm7.378 0h-.973v1.954h.973a.978.978 0 000-1.953z"/><path d="M23.578 6.061l1.25-2.186h2.52a2.913 2.913 0 002.744 1.942A2.912 2.912 0 0033 2.908 2.912 2.912 0 0030.092 0a2.913 2.913 0 00-2.743 1.942h-3.643L21.9 5.099a12.516 12.516 0 00-2.493-.877V0h-1.933v3.92a12.747 12.747 0 00-1.95 0V0h-1.933v4.222a12.53 12.53 0 00-2.493.877L9.294 1.942H5.651A2.913 2.913 0 002.908 0 2.912 2.912 0 000 2.908a2.912 2.912 0 002.908 2.909 2.913 2.913 0 002.743-1.942h2.521l1.25 2.186a12.718 12.718 0 00-3.55 3.647H0v1.934h4.857a12.522 12.522 0 00-.937 3.891H0v1.934h3.92c.104 1.37.428 2.678.937 3.891H0v1.934h5.871a12.719 12.719 0 003.55 3.647l-1.249 2.186h-2.52a2.913 2.913 0 00-2.744-1.942A2.912 2.912 0 000 30.092 2.912 2.912 0 002.908 33a2.913 2.913 0 002.743-1.942h3.643l1.805-3.157c.79.375 1.624.67 2.493.877V33h1.933v-3.92a12.737 12.737 0 001.95 0V33h1.933v-4.222a12.51 12.51 0 002.493-.877l1.805 3.157h3.643A2.913 2.913 0 0030.092 33 2.912 2.912 0 0033 30.092a2.912 2.912 0 00-2.908-2.909 2.913 2.913 0 00-2.743 1.942h-2.521l-1.25-2.186a12.718 12.718 0 003.55-3.647H33v-1.934h-4.857c.508-1.213.833-2.522.937-3.891H33v-1.934h-3.92a12.524 12.524 0 00-.937-3.891H33V9.708h-5.872a12.72 12.72 0 00-3.55-3.647zM13.97 20.383h-1.933v-1.946h-1.95v1.946H8.153v-4.857a2.912 2.912 0 012.909-2.909 2.912 2.912 0 012.908 2.909v4.857zm4.47-1.946h-.973v1.946h-1.934v-7.766h2.907a2.913 2.913 0 012.91 2.91 2.913 2.913 0 01-2.91 2.91zm6.108 1.946h-1.934v-7.766h1.934v7.766z"/></g><defs><clipPath id="clip0_5_1409"><path fill="#fff" d="M0 0h33v33H0z"/></clipPath></defs></svg>