<svg width="36" height="36" fill="none" xmlns="http://www.w3.org/2000/svg"><path d="M7.162 20.174H27.7c8.018-.328 8.031-11.76 0-12.093a5.907 5.907 0 00-.95.073c-1.14-6.602-9.964-8.091-13.2-2.187a6.02 6.02 0 00-5.662 4.464 4.9 4.9 0 10-.725 9.743zm16.187-8.529a.562.562 0 011.124 0v5.46a.562.562 0 01-1.124 0v-5.46zm-5.904-.061a.564.564 0 01.563-.563h2.046a1.929 1.929 0 010 3.857H18.57v2.165a.563.563 0 01-1.125 0v-5.46zm-5.903 1.366a1.931 1.931 0 011.928-1.929h.68a1.932 1.932 0 011.929 1.929v4.093a.562.562 0 01-1.125 0v-2.165h-2.288v2.165a.562.562 0 11-1.124 0V12.95z" fill="#D09FFF"/><path d="M14.954 12.95a.806.806 0 00-.804-.804h-.68a.804.804 0 00-.804.804v.804h2.288v-.804zm5.904 0a.804.804 0 00-.804-.804H18.57v1.608h1.484a.807.807 0 00.804-.804zm6.842 8.349h-1.332a8.99 8.99 0 01-16.721 0H7.162a6.003 6.003 0 01-4.897-2.525 1.795 1.795 0 001.574 2.114.577.577 0 01.517.433c.337 1.4.89 2.737 1.642 3.964a.578.578 0 01-.062.67 1.71 1.71 0 00.101 2.321l1.682 1.681a1.71 1.71 0 002.322.101.578.578 0 01.669-.061 13.753 13.753 0 003.963 1.641.578.578 0 01.433.523 1.71 1.71 0 001.71 1.569h2.383a1.71 1.71 0 001.71-1.574.577.577 0 01.433-.518 13.75 13.75 0 003.963-1.641.58.58 0 01.67.061 1.71 1.71 0 002.321-.1l1.681-1.682a1.71 1.71 0 00.102-2.322.578.578 0 01-.062-.669 13.752 13.752 0 001.642-3.964.579.579 0 01.522-.433 1.71 1.71 0 001.569-1.709v-1.203A7.174 7.174 0 0127.7 21.3z" fill="#D09FFF"/></svg>