<svg width="40" height="40" viewBox="0 0 40 40" fill="none" xmlns="http://www.w3.org/2000/svg">
<path d="M40 20C40 8.95431 31.0457 0 20 0C8.95431 0 0 8.95431 0 20C0 31.0457 8.95431 40 20 40C31.0457 40 40 31.0457 40 20Z" fill="#9146FF"/>
<path d="M15.0026 11.7852L11.4312 15.3566V28.2137H15.7169V31.7852L19.2883 28.2137H22.1454L28.574 21.7852V11.7852H15.0026ZM27.1454 21.0709L24.2883 23.928H21.4312L18.9312 26.428V23.928H15.7169V13.2137H27.1454V21.0709Z" fill="white"/>
<path d="M25.0026 15.7137H23.574V19.9994H25.0026V15.7137Z" fill="white"/>
<path d="M21.074 15.7137H19.6454V19.9994H21.074V15.7137Z" fill="white"/>
</svg>
