<svg width="58" height="58" fill="none" xmlns="http://www.w3.org/2000/svg"><g clip-path="url(#clip0_933_829)" fill="#2D6AFF"><path d="M27.3 3.982a28.801 28.801 0 00-17.595 7.291l7.583 7.583a18.172 18.172 0 0110.013-4.15V3.983zM14.885 21.258l-7.583-7.582a28.799 28.799 0 00-7.3 17.596h10.725a18.176 18.176 0 014.158-10.014zm32.388 10.014h10.725a28.798 28.798 0 00-7.3-17.596l-7.583 7.582a18.176 18.176 0 014.158 10.014zm-.001 3.398a18.097 18.097 0 01-1.868 6.551c.861 1.33 1.58 2.452 2.054 3.198a5.067 5.067 0 01-.696 6.341 5.102 5.102 0 01-1.397.993l1.766 1.766a1.7 1.7 0 002.407 0c5.09-5.088 8.057-11.728 8.463-18.849H47.272zm-36.543 0H0c.406 7.12 3.374 13.76 8.462 18.85a1.703 1.703 0 002.408-.001l5.155-5.156a1.703 1.703 0 000-2.407c-1.345-1.346-4.734-5.112-5.296-11.286zm37.566-23.397a28.8 28.8 0 00-17.596-7.29v10.724a18.173 18.173 0 0110.013 4.149l7.583-7.583zM32.776 29.224a5.346 5.346 0 00-7.55 0 5.345 5.345 0 000 7.55c2.63 2.63 15.554 10.883 17.02 11.816a1.7 1.7 0 002.345-2.346c-.932-1.465-9.185-14.39-11.815-17.02z"/></g><defs><clipPath id="clip0_933_829"><path fill="#fff" d="M0 0h58v58H0z"/></clipPath></defs></svg>