<svg width="67" height="67" fill="none" xmlns="http://www.w3.org/2000/svg"><g clip-path="url(#clip0_933_839)"><path d="M50.177 16.792a16.714 16.714 0 00-12.814 5.852l-2.481 2.858 5.538 6.396 3.266-3.768a8.48 8.48 0 016.49-2.963 8.331 8.331 0 018.467 8.333 8.334 8.334 0 01-8.466 8.333 8.443 8.443 0 01-6.47-2.952c-12.129-14.005-6.366-7.328-14.07-16.248a16.739 16.739 0 00-12.814-5.841 16.708 16.708 0 100 33.416 16.713 16.713 0 0012.814-5.852l2.481-2.858-5.538-6.396-3.266 3.769a8.48 8.48 0 01-6.49 2.962 8.334 8.334 0 110-16.666 8.442 8.442 0 016.469 2.952c12.13 14.005 6.366 7.328 14.07 16.248a16.785 16.785 0 0028.075-3.719 16.783 16.783 0 00-15.261-23.856z" fill="#2D6AFF"/></g><defs><clipPath id="clip0_933_839"><path fill="#fff" d="M0 0h67v67H0z"/></clipPath></defs></svg>