<svg width="76" height="76" viewBox="0 0 76 76" fill="none" xmlns="http://www.w3.org/2000/svg">
<path d="M74.7775 40.7669C74.8949 43.5728 73.8946 46.3107 71.9959 48.38C70.0972 50.4493 67.4552 51.6809 64.6496 51.8047C64.4855 51.8123 64.3218 51.8161 64.1583 51.8161C63.4128 51.8156 62.6696 51.735 61.9414 51.5755C59.7807 54.9116 56.9475 57.76 53.6229 59.9385C50.2984 62.1169 46.5558 63.5776 42.6345 64.2269C42.1707 65.5894 41.2454 66.7471 40.0186 67.4998C38.7918 68.2525 37.3405 68.5529 35.9157 68.3491C34.4908 68.1453 33.182 67.4501 32.2154 66.3836C31.2488 65.3172 30.6851 63.9465 30.6219 62.5085C30.5587 61.0706 30.9999 59.6557 31.8692 58.5086C32.7385 57.3614 33.9813 56.554 35.3827 56.2259C36.7842 55.8979 38.2562 56.0698 39.5444 56.7119C40.8325 57.3541 41.8558 58.4261 42.4374 59.7427C47.9581 58.7217 52.9454 55.7958 56.5302 51.475C60.1149 47.1542 62.0698 41.7125 62.0542 36.0982C62.0542 22.8346 51.2635 12.0439 37.9999 12.0439C24.7363 12.0439 13.9456 22.8346 13.9456 36.0982C13.9449 40.1996 14.993 44.233 16.9905 47.815C17.0582 47.9332 17.109 48.0603 17.1414 48.1926C17.3344 48.7289 17.3138 49.3188 17.0838 49.8403C16.8539 50.3617 16.4323 50.7748 15.9063 50.9941C14.6182 51.5362 13.2348 51.8153 11.8373 51.8151C11.6729 51.8151 11.508 51.8113 11.3429 51.8037C8.53843 51.6783 5.89814 50.4459 4.00094 48.3768C2.10374 46.3077 1.10448 43.5706 1.22227 40.7659C1.26962 39.6474 1.2432 38.6494 1.21737 37.6844C1.19332 36.7759 1.16824 35.8363 1.2095 34.8558C1.33266 32.1172 2.5107 29.5325 4.49688 27.643C6.48306 25.7536 9.12332 24.7059 11.8646 24.7195C16.2667 14.6477 26.3238 7.59082 37.9999 7.59082C49.676 7.59082 59.7332 14.6477 64.1353 24.7196C66.8769 24.704 69.518 25.7507 71.5045 27.6403C73.491 29.5298 74.6686 32.1152 74.7901 34.8542C74.8315 35.8361 74.8066 36.7756 74.7823 37.6842C74.7567 38.6493 74.7302 39.6477 74.7775 40.7669ZM56.6741 36.0982C56.673 38.9592 56.0148 41.7816 54.7504 44.3479C53.4859 46.9142 51.649 49.1558 49.3811 50.8999C47.1133 52.6439 44.4752 53.8438 41.6703 54.407C38.8654 54.9702 35.9686 54.8817 33.2033 54.1482L25.6447 58.5134C25.2633 58.7336 24.8252 58.8358 24.3857 58.807C23.9462 58.7782 23.5252 58.6198 23.1758 58.3517C22.8264 58.0836 22.5643 57.7179 22.4228 57.3008C22.2812 56.8838 22.2665 56.4342 22.3806 56.0088L24.3123 48.8024C21.1132 45.3445 19.3332 40.809 19.3264 36.0982C19.3264 25.7985 27.7029 17.4198 37.9999 17.4198C48.2968 17.4198 56.6741 25.7985 56.6741 36.0982ZM32.8083 36.0982C32.8083 35.5077 32.5737 34.9414 32.1561 34.5238C31.7386 34.1063 31.1722 33.8717 30.5817 33.8717H30.578C30.1378 33.8725 29.7077 34.0038 29.3421 34.2489C28.9765 34.4941 28.6918 34.8421 28.5239 35.2491C28.356 35.656 28.3125 36.1035 28.3989 36.5352C28.4853 36.9668 28.6977 37.3632 29.0092 37.6741C29.3208 37.9851 29.7175 38.1967 30.1493 38.2823C30.5811 38.3679 31.0286 38.3236 31.4352 38.1549C31.8418 37.9863 32.1893 37.7009 32.4338 37.3348C32.6782 36.9688 32.8087 36.5384 32.8087 36.0982H32.8083ZM40.2269 36.0982C40.2267 36.0254 40.2227 35.9525 40.215 35.88C40.208 35.8073 40.1972 35.7349 40.1825 35.6633C40.1692 35.592 40.1513 35.5216 40.1289 35.4525C40.1083 35.3828 40.0831 35.3145 40.0563 35.2462C40.0296 35.1779 39.997 35.1141 39.9628 35.0503C39.9289 34.9861 39.8918 34.9237 39.8515 34.8632C39.8109 34.8022 39.7673 34.7432 39.7207 34.6866C39.675 34.6299 39.626 34.5758 39.5739 34.5248C39.5234 34.4729 39.4685 34.4239 39.4121 34.3764C39.3556 34.3318 39.2962 34.2873 39.2353 34.2472C39.175 34.207 39.1126 34.1698 39.0484 34.1359C38.9845 34.1018 38.9178 34.0706 38.8509 34.0424C38.784 34.0144 38.7157 33.9901 38.6462 33.9697C38.5074 33.9251 38.364 33.8962 38.2187 33.8836C38.0006 33.8626 37.7806 33.8731 37.5656 33.9147C37.4939 33.9293 37.4231 33.9477 37.3534 33.9697C37.2839 33.9901 37.2155 34.0143 37.1486 34.0424C37.0818 34.0706 37.015 34.1018 36.9512 34.1359C36.8873 34.17 36.825 34.2072 36.764 34.2472C36.703 34.2873 36.6438 34.3318 36.589 34.3764C36.5311 34.4239 36.4777 34.4729 36.4257 34.5248C36.3736 34.5759 36.3245 34.6299 36.2786 34.6866C36.2326 34.7433 36.1896 34.8022 36.1496 34.8632C36.1088 34.9236 36.0712 34.986 36.0368 35.0503C36.0025 35.1139 35.9718 35.1793 35.9446 35.2462C35.9164 35.3137 35.8917 35.3826 35.8704 35.4525C35.8498 35.5208 35.832 35.5921 35.8171 35.6633C35.8024 35.7349 35.7915 35.8073 35.7843 35.88C35.777 35.9528 35.7739 36.0255 35.7739 36.0982C35.7739 36.171 35.777 36.2452 35.7843 36.3179C35.7916 36.3902 35.8026 36.462 35.8171 36.5332C35.832 36.6044 35.8498 36.6757 35.8704 36.7454C35.8917 36.8149 35.9164 36.8833 35.9446 36.9503C35.9718 37.0177 36.0025 37.0836 36.0368 37.1477C36.0708 37.2115 36.1095 37.2739 36.1496 37.3347C36.1896 37.3953 36.2327 37.4537 36.2786 37.5099C36.3249 37.5668 36.374 37.6212 36.4257 37.6732C36.4777 37.7236 36.5311 37.7741 36.589 37.8201C36.6448 37.8665 36.7032 37.9096 36.764 37.9493C36.825 37.9893 36.8872 38.0279 36.9512 38.0621C37.0801 38.1293 37.2147 38.1849 37.3534 38.2283C37.4231 38.2491 37.4943 38.2669 37.5656 38.2818C37.7087 38.311 37.8544 38.3255 38.0005 38.3248C38.5903 38.3232 39.1557 38.0891 39.5739 37.6732C39.6765 37.569 39.7694 37.4557 39.8515 37.3347C39.8916 37.2739 39.9287 37.2115 39.9628 37.1477C39.997 37.0839 40.0281 37.0171 40.0563 36.9503C40.0845 36.8835 40.1083 36.8137 40.1289 36.7454C40.1511 36.6758 40.169 36.605 40.1825 36.5332C40.197 36.462 40.2079 36.3902 40.215 36.3179C40.2226 36.2449 40.2264 36.1714 40.2264 36.0979L40.2269 36.0982ZM47.6488 36.0982C47.6488 35.5077 47.4142 34.9414 46.9966 34.5238C46.5791 34.1063 46.0127 33.8717 45.4222 33.8717H45.4179C44.9777 33.8725 44.5477 34.0038 44.1821 34.249C43.8165 34.4942 43.5318 34.8422 43.3639 35.2492C43.196 35.6561 43.1526 36.1036 43.239 36.5353C43.3254 36.9669 43.5378 37.3632 43.8493 37.6742C44.1609 37.9851 44.5576 38.1968 44.9894 38.2823C45.4212 38.3679 45.8687 38.3236 46.2753 38.1549C46.6819 37.9863 47.0294 37.7009 47.2738 37.3348C47.5183 36.9687 47.6488 36.5384 47.6488 36.0982Z" fill="url(#paint0_linear_72_106)"/>
<defs>
<linearGradient id="paint0_linear_72_106" x1="-24.9071" y1="120.894" x2="84.2325" y2="113.509" gradientUnits="userSpaceOnUse">
<stop stop-color="#2780E6"/>
<stop offset="1" stop-color="#781896"/>
</linearGradient>
</defs>
</svg>
