<svg width="66" height="66" viewBox="0 0 66 66" fill="none" xmlns="http://www.w3.org/2000/svg">
<path d="M28.875 20.624V16.499H4.125C1.85213 16.499 0 18.3511 0 20.624V28.874H29.7454C29.172 26.3536 28.875 23.6394 28.875 20.624Z" fill="url(#paint0_linear_72_43)"/>
<path d="M65.8309 37.124C63.0176 41.4594 58.7276 45.1471 52.5814 48.6781C51.6367 49.2185 50.5725 49.499 49.5 49.499C48.4275 49.499 47.3632 49.2185 46.431 48.6864C40.2847 45.1471 35.9948 41.4553 33.1774 37.124H0V57.749C0 60.026 1.85213 61.874 4.125 61.874H61.875C64.152 61.874 66 60.026 66 57.749V37.124H65.8309ZM18.5625 49.499H10.3125C9.174 49.499 8.25 48.575 8.25 47.4365C8.25 46.298 9.174 45.374 10.3125 45.374H18.5625C19.701 45.374 20.625 46.298 20.625 47.4365C20.625 48.575 19.701 49.499 18.5625 49.499Z" fill="url(#paint1_linear_72_43)"/>
<path d="M64.7501 10.4805L50.3126 4.29304C49.7887 4.07029 49.2071 4.07029 48.6833 4.29304L34.2458 10.4805C33.4909 10.8023 33 11.5489 33 12.3739V20.6239C33 31.9718 37.1951 38.6048 48.4729 45.1017C48.7905 45.2832 49.1453 45.3739 49.5 45.3739C49.8547 45.3739 50.2095 45.2832 50.5271 45.1017C61.8049 38.6213 66 31.9883 66 20.6239V12.3739C66 11.5489 65.5091 10.8023 64.7501 10.4805ZM57.3004 19.8525L49.0504 30.165C48.6544 30.6518 48.0604 30.9364 47.4375 30.9364C47.4086 30.9364 47.3756 30.9364 47.3509 30.9364C46.695 30.9075 46.0886 30.5693 45.7215 30.0207L41.5965 23.8332C40.9654 22.8844 41.2211 21.6057 42.1699 20.9745C43.1104 20.3475 44.3933 20.595 45.0285 21.5479L47.5901 25.3883L54.0746 17.2785C54.7882 16.3917 56.0876 16.2514 56.9745 16.9568C57.8655 17.6622 58.0057 18.9615 57.3004 19.8525Z" fill="url(#paint2_linear_72_43)"/>
<defs>
<linearGradient id="paint0_linear_72_43" x1="-10.5426" y1="39.5525" x2="32.9677" y2="33.7065" gradientUnits="userSpaceOnUse">
<stop stop-color="#2780E6"/>
<stop offset="1" stop-color="#781896"/>
</linearGradient>
<linearGradient id="paint1_linear_72_43" x1="-23.3922" y1="83.2309" x2="72.7563" y2="68.8991" gradientUnits="userSpaceOnUse">
<stop stop-color="#2780E6"/>
<stop offset="1" stop-color="#781896"/>
</linearGradient>
<linearGradient id="paint2_linear_72_43" x1="21.3039" y1="80.9669" x2="70.3482" y2="78.7736" gradientUnits="userSpaceOnUse">
<stop stop-color="#2780E6"/>
<stop offset="1" stop-color="#781896"/>
</linearGradient>
</defs>
</svg>
