<svg width="74" height="74" viewBox="0 0 74 74" fill="none" xmlns="http://www.w3.org/2000/svg">
<mask id="mask0_72_68" style="mask-type:alpha" maskUnits="userSpaceOnUse" x="4" y="4" width="66" height="66">
<path d="M43.9375 50.875C43.9375 49.4341 43.9817 47.9926 44.0642 46.5725C38.239 47.1467 34.2967 48.3959 32.4432 49.5293C32.4109 49.9755 32.375 50.4208 32.375 50.875C32.375 51.3292 32.4109 51.7745 32.4432 52.2207C34.2967 53.354 38.239 54.6033 44.0642 55.1775C43.9817 53.7574 43.9375 52.3159 43.9375 50.875Z" fill="black"/>
<path d="M69.3066 49.5293C67.4531 48.3959 63.5108 47.1467 57.6855 46.5725C57.7681 47.9926 57.8123 49.4341 57.8123 50.875C57.8123 52.3159 57.7681 53.7574 57.6855 55.1775C63.5108 54.6033 67.4531 53.354 69.3066 52.2207C69.3389 51.7745 69.3748 51.3292 69.3748 50.875C69.3748 50.4208 69.3389 49.9755 69.3066 49.5293Z" fill="black"/>
<path d="M46.3841 46.3841C46.2977 47.7895 46.25 49.2871 46.25 50.875C46.25 52.4629 46.2977 53.9605 46.3841 55.3659C47.7895 55.4523 49.2871 55.5 50.875 55.5C52.4629 55.5 53.9605 55.4523 55.3659 55.3659C55.4523 53.9605 55.5 52.4629 55.5 50.875C55.5 49.2871 55.4523 47.7895 55.3659 46.3841C53.9605 46.2977 52.4629 46.25 50.875 46.25C49.2871 46.25 47.7895 46.2977 46.3841 46.3841Z" fill="black"/>
<path d="M50.8752 57.8125C49.4343 57.8125 47.9928 57.7684 46.5728 57.6858C47.1469 63.5111 48.3962 67.4534 49.5296 69.3069C49.9757 69.3392 50.421 69.375 50.8752 69.375C51.3294 69.375 51.7747 69.3392 52.2209 69.3069C53.3543 67.4534 54.6036 63.5111 55.1777 57.6858C53.7577 57.7684 52.3162 57.8125 50.8752 57.8125Z" fill="black"/>
<path d="M32.8584 55.0134C34.4391 61.8926 39.8573 67.3109 46.7365 68.8915C45.4896 66.0664 44.6549 61.9844 44.2421 57.5079C39.7656 57.095 35.6835 56.2603 32.8584 55.0134Z" fill="black"/>
<path d="M55.0137 68.8915C61.8929 67.3109 67.3111 61.8926 68.8918 55.0134C66.0666 56.2603 61.9846 57.095 57.5081 57.5079C57.0953 61.9844 56.2605 66.0664 55.0137 68.8915Z" fill="black"/>
<path d="M68.8918 46.7365C67.3111 39.8573 61.8929 34.4391 55.0137 32.8584C56.2605 35.6835 57.0953 39.7656 57.5081 44.2421C61.9846 44.6549 66.0666 45.4896 68.8918 46.7365Z" fill="black"/>
<path d="M16.1875 23.125C16.1875 21.6841 16.2317 20.2426 16.3142 18.8225C10.489 19.3967 6.54667 20.6459 4.69317 21.7793C4.66085 22.2255 4.625 22.6708 4.625 23.125C4.625 23.5792 4.66085 24.0245 4.69317 24.4707C6.54667 25.604 10.489 26.8533 16.3142 27.4275C16.2317 26.0074 16.1875 24.5659 16.1875 23.125Z" fill="black"/>
<path d="M23.1252 16.1875C24.5662 16.1875 26.0077 16.2317 27.4277 16.3142C26.8536 10.489 25.6043 6.54667 24.4709 4.69317C24.0247 4.66085 23.5794 4.625 23.1252 4.625C22.671 4.625 22.2257 4.66085 21.7796 4.69317C20.6462 6.54667 19.3969 10.489 18.8228 16.3142C20.2428 16.2317 21.6843 16.1875 23.1252 16.1875Z" fill="black"/>
<path d="M30.0623 23.125C30.0623 24.5659 30.0181 26.0074 29.9355 27.4275C35.7608 26.8533 39.7031 25.604 41.5566 24.4707C41.5889 24.0245 41.6248 23.5792 41.6248 23.125C41.6248 22.6708 41.5889 22.2255 41.5566 21.7793C39.7031 20.6459 35.7608 19.3967 29.9355 18.8225C30.0181 20.2426 30.0623 21.6841 30.0623 23.125Z" fill="black"/>
<path d="M18.6341 18.6341C18.5477 20.0395 18.5 21.5371 18.5 23.125C18.5 24.7129 18.5477 26.2105 18.6341 27.6159C20.0395 27.7023 21.5371 27.75 23.125 27.75C24.7129 27.75 26.2105 27.7023 27.6159 27.6159C27.7023 26.2105 27.75 24.7129 27.75 23.125C27.75 21.5371 27.7023 20.0395 27.6159 18.6341C26.2105 18.5477 24.7129 18.5 23.125 18.5C21.5371 18.5 20.0395 18.5477 18.6341 18.6341Z" fill="black"/>
<path d="M5.1084 27.2634C6.68907 34.1426 12.1073 39.5609 18.9865 41.1415C17.7396 38.3164 16.9049 34.2344 16.4921 29.7579C12.0156 29.345 7.93353 28.5103 5.1084 27.2634Z" fill="black"/>
<path d="M18.9865 5.1084C12.1073 6.68907 6.68907 12.1073 5.1084 18.9865C7.93353 17.7396 12.0156 16.9049 16.4921 16.4921C16.9049 12.0156 17.7396 7.93353 18.9865 5.1084Z" fill="black"/>
<path d="M41.1418 18.9865C39.5611 12.1073 34.1429 6.68907 27.2637 5.1084C28.5105 7.93353 29.3453 12.0156 29.7581 16.4921C34.2346 16.9049 38.3166 17.7396 41.1418 18.9865Z" fill="black"/>
<path d="M53.1875 39.3125V34.6875C53.1875 32.1331 51.1168 30.0625 48.5625 30.0625H25.4375C22.8832 30.0625 20.8125 32.1331 20.8125 34.6875V39.3125C20.8125 41.8668 22.8832 43.9375 25.4375 43.9375H48.5625C51.1168 43.9375 53.1875 41.8668 53.1875 39.3125ZM25.4431 39.3125C24.1692 39.3125 23.125 38.2782 23.125 37C23.125 35.7218 24.1466 34.6875 25.4206 34.6875H25.5006C26.7757 34.6875 27.75 35.7218 27.75 37C27.75 38.2782 26.7182 39.3125 25.4431 39.3125ZM32.3806 39.3125C31.1067 39.3125 30.0625 38.2782 30.0625 37C30.0625 35.7218 31.0841 34.6875 32.3581 34.6875H32.4381C33.7132 34.6875 34.6875 35.7218 34.6875 37C34.6875 38.2782 33.6557 39.3125 32.3806 39.3125ZM37 37C37 35.7218 38.0354 34.6875 39.3125 34.6875H48.5625C49.8396 34.6875 50.875 35.7218 50.875 37C50.875 38.2782 49.8396 39.3125 48.5625 39.3125H39.3125C38.0354 39.3125 37 38.2782 37 37Z" fill="black"/>
</mask>
<g mask="url(#mask0_72_68)">
<rect x="-11" y="-10" width="95" height="95" fill="url(#paint0_linear_72_68)"/>
</g>
<defs>
<linearGradient id="paint0_linear_72_68" x1="-44.6706" y1="166.976" x2="96.3593" y2="159.093" gradientUnits="userSpaceOnUse">
<stop stop-color="#2780E6"/>
<stop offset="1" stop-color="#781896"/>
</linearGradient>
</defs>
</svg>
