<svg width="57" height="57" viewBox="0 0 57 57" fill="none" xmlns="http://www.w3.org/2000/svg">
<g clip-path="url(#clip0_37_2471)">
<path d="M47.4257 22.2586H33.5509L44.4321 2.47471C45.0441 1.36177 44.2388 0 42.9687 0H22.9311C22.2254 0 21.5958 0.443643 21.3585 1.10827L10.2281 32.2731C9.83968 33.3607 10.6459 34.5047 11.8007 34.5047H27.5801L23.5219 54.9987C23.1721 56.7651 25.4805 57.7579 26.5222 56.2891L48.7878 24.8945C49.5721 23.7887 48.7814 22.2586 47.4257 22.2586Z" fill="url(#paint0_linear_37_2471)"/>
<path d="M18.689 53.4051C19.5934 53.586 20.4731 52.9994 20.654 52.0951L23.103 39.8489C23.2839 38.9445 22.6973 38.0647 21.793 37.8839C20.8887 37.7031 20.0089 38.2896 19.828 39.1939L17.379 51.4401C17.198 52.3444 17.7845 53.2242 18.689 53.4051Z" fill="#5546BA"/>
<path d="M4.55988 33.2569C5.42846 33.5671 6.38399 33.1145 6.69415 32.2459L13.8509 12.2069C14.161 11.3383 13.7085 10.3827 12.8399 10.0726C11.9713 9.76243 11.0158 10.215 10.7056 11.0836L3.54891 31.1226C3.23875 31.9912 3.69129 32.9467 4.55988 33.2569Z" fill="#4759C8"/>
<path d="M49.1326 0.865464L43.0095 11.9983C42.5651 12.8064 42.8599 13.8217 43.6679 14.2663C44.476 14.7107 45.4914 14.416 45.9359 13.6079L52.059 2.47505C52.5034 1.66691 52.2086 0.651602 51.4006 0.207069C50.5925 -0.237464 49.5771 0.0573327 49.1326 0.865464Z" fill="#6F25A0"/>
<path d="M32.4107 56.6977C33.1662 57.2269 34.2075 57.0433 34.7365 56.2878L42.6887 44.9323C43.2177 44.1768 43.0342 43.1355 42.2788 42.6065L42.2787 42.6064C41.5232 42.0774 40.482 42.2609 39.9529 43.0163L32.0008 54.3719C31.4716 55.1275 31.6552 56.1687 32.4107 56.6977Z" fill="#6236AD"/>
<path d="M50.5199 28.2227L46.5439 33.7892C46.0078 34.5396 46.1816 35.5826 46.9321 36.1186H46.9322C47.6826 36.6546 48.7255 36.4809 49.2616 35.7304L53.2377 30.1639C53.7737 29.4134 53.5999 28.3705 52.8495 27.8345C52.099 27.2983 51.056 27.4721 50.5199 28.2227Z" fill="#6236AD"/>
</g>
<defs>
<linearGradient id="paint0_linear_37_2471" x1="-3.68233" y1="106.185" x2="54.2645" y2="103.971" gradientUnits="userSpaceOnUse">
<stop stop-color="#2780E6"/>
<stop offset="1" stop-color="#781896"/>
</linearGradient>
<clipPath id="clip0_37_2471">
<rect width="57" height="57" fill="white"/>
</clipPath>
</defs>
</svg>
