<svg width="58" height="58" viewBox="0 0 58 58" fill="none" xmlns="http://www.w3.org/2000/svg">
<g clip-path="url(#clip0_37_2469)">
<path fill-rule="evenodd" clip-rule="evenodd" d="M7.83085 10.2326C7.49851 10.2294 7.18086 10.0952 6.94697 9.85908C6.71308 9.62297 6.58187 9.30406 6.58187 8.97171C6.58187 8.63935 6.71308 8.32044 6.94697 8.08433C7.18086 7.84821 7.49851 7.71398 7.83085 7.71083H7.90199C8.06858 7.70925 8.23383 7.7407 8.38819 7.80335C8.54255 7.86601 8.68296 7.95863 8.80132 8.07588C8.91968 8.19312 9.01363 8.33265 9.07775 8.48641C9.14186 8.64017 9.17488 8.80511 9.17488 8.97171C9.17488 9.1383 9.14186 9.30324 9.07775 9.457C9.01363 9.61076 8.91968 9.7503 8.80132 9.86754C8.68296 9.98478 8.54255 10.0774 8.38819 10.1401C8.23383 10.2027 8.06858 10.2342 7.90199 10.2326H7.83085ZM15.0016 10.2326C14.835 10.2342 14.6697 10.2027 14.5154 10.1401C14.361 10.0774 14.2206 9.98478 14.1022 9.86754C13.9839 9.7503 13.8899 9.61076 13.8258 9.457C13.7617 9.30324 13.7287 9.1383 13.7287 8.97171C13.7287 8.80511 13.7617 8.64017 13.8258 8.48641C13.8899 8.33265 13.9839 8.19312 14.1022 8.07588C14.2206 7.95863 14.361 7.86601 14.5154 7.80335C14.6697 7.7407 14.835 7.70925 15.0016 7.71083H15.0727C15.2393 7.70925 15.4045 7.7407 15.5589 7.80335C15.7133 7.86601 15.8537 7.95863 15.972 8.07588C16.0904 8.19312 16.1843 8.33265 16.2484 8.48641C16.3126 8.64017 16.3456 8.80511 16.3456 8.97171C16.3456 9.1383 16.3126 9.30324 16.2484 9.457C16.1843 9.61076 16.0904 9.7503 15.972 9.86754C15.8537 9.98478 15.7133 10.0774 15.5589 10.1401C15.4045 10.2027 15.2393 10.2342 15.0727 10.2326H15.0016ZM22.1723 10.2326C22.0057 10.2342 21.8404 10.2027 21.6861 10.1401C21.5317 10.0774 21.3913 9.98478 21.2729 9.86754C21.1546 9.7503 21.0606 9.61076 20.9965 9.457C20.9324 9.30324 20.8994 9.1383 20.8994 8.97171C20.8994 8.80511 20.9324 8.64017 20.9965 8.48641C21.0606 8.33265 21.1546 8.19312 21.2729 8.07588C21.3913 7.95863 21.5317 7.86601 21.6861 7.80335C21.8404 7.7407 22.0057 7.70925 22.1723 7.71083H22.2434C22.41 7.70925 22.5752 7.7407 22.7296 7.80335C22.884 7.86601 23.0244 7.95863 23.1427 8.07588C23.2611 8.19312 23.355 8.33265 23.4192 8.48641C23.4833 8.64017 23.5163 8.80511 23.5163 8.97171C23.5163 9.1383 23.4833 9.30324 23.4192 9.457C23.355 9.61076 23.2611 9.7503 23.1427 9.86754C23.0244 9.98478 22.884 10.0774 22.7296 10.1401C22.5752 10.2027 22.41 10.2342 22.2434 10.2326H22.1723ZM35.7716 9.94134C35.4392 9.93819 35.1216 9.80396 34.8877 9.56784C34.6538 9.33172 34.5226 9.01281 34.5226 8.68046C34.5226 8.34811 34.6538 8.0292 34.8877 7.79308C35.1216 7.55696 35.4392 7.42273 35.7716 7.41958H50.1696C50.5019 7.42273 50.8196 7.55696 51.0535 7.79308C51.2874 8.0292 51.4186 8.34811 51.4186 8.68046C51.4186 9.01281 51.2874 9.33172 51.0535 9.56784C50.8196 9.80396 50.5019 9.93819 50.1696 9.94134H35.7716ZM7.83085 50.5801C7.49851 50.5769 7.18086 50.4427 6.94697 50.2066C6.71308 49.9705 6.58187 49.6516 6.58187 49.3192C6.58187 48.9869 6.71308 48.6679 6.94697 48.4318C7.18086 48.1957 7.49851 48.0615 7.83085 48.0583H7.90199C8.06858 48.0567 8.23383 48.0882 8.38819 48.1509C8.54255 48.2135 8.68296 48.3061 8.80132 48.4234C8.91968 48.5406 9.01363 48.6801 9.07775 48.8339C9.14186 48.9877 9.17488 49.1526 9.17488 49.3192C9.17488 49.4858 9.14186 49.6507 9.07775 49.8045C9.01363 49.9583 8.91968 50.0978 8.80132 50.215C8.68296 50.3323 8.54255 50.4249 8.38819 50.4876C8.23383 50.5502 8.06858 50.5817 7.90199 50.5801H7.83085ZM15.0016 50.5801C14.835 50.5817 14.6697 50.5502 14.5154 50.4876C14.361 50.4249 14.2206 50.3323 14.1022 50.215C13.9839 50.0978 13.8899 49.9583 13.8258 49.8045C13.7617 49.6507 13.7287 49.4858 13.7287 49.3192C13.7287 49.1526 13.7617 48.9877 13.8258 48.8339C13.8899 48.6801 13.9839 48.5406 14.1022 48.4234C14.2206 48.3061 14.361 48.2135 14.5154 48.1509C14.6697 48.0882 14.835 48.0567 15.0016 48.0583H15.0727C15.2393 48.0567 15.4045 48.0882 15.5589 48.1509C15.7133 48.2135 15.8537 48.3061 15.972 48.4234C16.0904 48.5406 16.1843 48.6801 16.2484 48.8339C16.3126 48.9877 16.3456 49.1526 16.3456 49.3192C16.3456 49.4858 16.3126 49.6507 16.2484 49.8045C16.1843 49.9583 16.0904 50.0978 15.972 50.215C15.8537 50.3323 15.7133 50.4249 15.5589 50.4876C15.4045 50.5502 15.2393 50.5817 15.0727 50.5801H15.0016ZM22.1723 50.5801C22.0057 50.5817 21.8404 50.5502 21.6861 50.4876C21.5317 50.4249 21.3913 50.3323 21.2729 50.215C21.1546 50.0978 21.0606 49.9583 20.9965 49.8045C20.9324 49.6507 20.8994 49.4858 20.8994 49.3192C20.8994 49.1526 20.9324 48.9877 20.9965 48.8339C21.0606 48.6801 21.1546 48.5406 21.2729 48.4234C21.3913 48.3061 21.5317 48.2135 21.6861 48.1509C21.8404 48.0882 22.0057 48.0567 22.1723 48.0583H22.2434C22.41 48.0567 22.5752 48.0882 22.7296 48.1509C22.884 48.2135 23.0244 48.3061 23.1427 48.4234C23.2611 48.5406 23.355 48.6801 23.4192 48.8339C23.4833 48.9877 23.5163 49.1526 23.5163 49.3192C23.5163 49.4858 23.4833 49.6507 23.4192 49.8045C23.355 49.9583 23.2611 50.0978 23.1427 50.215C23.0244 50.3323 22.884 50.4249 22.7296 50.4876C22.5752 50.5502 22.41 50.5817 22.2434 50.5801H22.1723ZM35.7716 50.2888C35.4392 50.2857 35.1216 50.1515 34.8877 49.9153C34.6538 49.6792 34.5226 49.3603 34.5226 49.028C34.5226 48.6956 34.6538 48.3767 34.8877 48.1406C35.1216 47.9045 35.4392 47.7702 35.7716 47.7671H50.1696C50.5019 47.7702 50.8196 47.9045 51.0535 48.1406C51.2874 48.3767 51.4186 48.6956 51.4186 49.028C51.4186 49.3603 51.2874 49.6792 51.0535 49.9153C50.8196 50.1515 50.5019 50.2857 50.1696 50.2888H35.7716ZM7.83085 30.1153C7.49851 30.1121 7.18086 29.9779 6.94697 29.7418C6.71308 29.5056 6.58187 29.1867 6.58187 28.8544C6.58187 28.522 6.71308 28.2031 6.94697 27.967C7.18086 27.7309 7.49851 27.5966 7.83085 27.5935H7.90199C8.06858 27.5919 8.23383 27.6234 8.38819 27.686C8.54255 27.7487 8.68296 27.8413 8.80132 27.9585C8.91968 28.0758 9.01363 28.2153 9.07775 28.3691C9.14186 28.5228 9.17488 28.6878 9.17488 28.8544C9.17488 29.021 9.14186 29.1859 9.07775 29.3397C9.01363 29.4934 8.91968 29.633 8.80132 29.7502C8.68296 29.8674 8.54255 29.9601 8.38819 30.0227C8.23383 30.0854 8.06858 30.1168 7.90199 30.1153H7.83085ZM15.0016 30.1153C14.835 30.1168 14.6697 30.0854 14.5154 30.0227C14.361 29.9601 14.2206 29.8674 14.1022 29.7502C13.9839 29.633 13.8899 29.4934 13.8258 29.3397C13.7617 29.1859 13.7287 29.021 13.7287 28.8544C13.7287 28.6878 13.7617 28.5228 13.8258 28.3691C13.8899 28.2153 13.9839 28.0758 14.1022 27.9585C14.2206 27.8413 14.361 27.7487 14.5154 27.686C14.6697 27.6234 14.835 27.5919 15.0016 27.5935H15.0727C15.2393 27.5919 15.4045 27.6234 15.5589 27.686C15.7133 27.7487 15.8537 27.8413 15.972 27.9585C16.0904 28.0758 16.1843 28.2153 16.2484 28.3691C16.3126 28.5228 16.3456 28.6878 16.3456 28.8544C16.3456 29.021 16.3126 29.1859 16.2484 29.3397C16.1843 29.4934 16.0904 29.633 15.972 29.7502C15.8537 29.8674 15.7133 29.9601 15.5589 30.0227C15.4045 30.0854 15.2393 30.1168 15.0727 30.1153H15.0016ZM22.1723 30.1153C22.0057 30.1168 21.8404 30.0854 21.6861 30.0227C21.5317 29.9601 21.3913 29.8674 21.2729 29.7502C21.1546 29.633 21.0606 29.4934 20.9965 29.3397C20.9324 29.1859 20.8994 29.021 20.8994 28.8544C20.8994 28.6878 20.9324 28.5228 20.9965 28.3691C21.0606 28.2153 21.1546 28.0758 21.2729 27.9585C21.3913 27.8413 21.5317 27.7487 21.6861 27.686C21.8404 27.6234 22.0057 27.5919 22.1723 27.5935H22.2434C22.41 27.5919 22.5752 27.6234 22.7296 27.686C22.884 27.7487 23.0244 27.8413 23.1427 27.9585C23.2611 28.0758 23.355 28.2153 23.4192 28.3691C23.4833 28.5228 23.5163 28.6878 23.5163 28.8544C23.5163 29.021 23.4833 29.1859 23.4192 29.3397C23.355 29.4934 23.2611 29.633 23.1427 29.7502C23.0244 29.8674 22.884 29.9601 22.7296 30.0227C22.5752 30.0854 22.41 30.1168 22.2434 30.1153H22.1723ZM35.7716 30.4065C35.4392 30.4033 35.1216 30.2691 34.8877 30.033C34.6538 29.7969 34.5226 29.478 34.5226 29.1456C34.5226 28.8133 34.6538 28.4944 34.8877 28.2582C35.1216 28.0221 35.4392 27.8879 35.7716 27.8847H50.1696C50.5019 27.8879 50.8196 28.0221 51.0535 28.2582C51.2874 28.4944 51.4186 28.8133 51.4186 29.1456C51.4186 29.478 51.2874 29.7969 51.0535 30.033C50.8196 30.2691 50.5019 30.4033 50.1696 30.4065H35.7716ZM53.472 20.1739H4.52813C3.71688 20.1772 2.9398 20.5009 2.36616 21.0746C1.79253 21.6482 1.46883 22.4253 1.46558 23.2366V34.7634C1.46883 35.5747 1.79253 36.3518 2.36616 36.9254C2.9398 37.4991 3.71688 37.8228 4.52813 37.8261H53.472C54.2832 37.8228 55.0603 37.4991 55.6339 36.9254C56.2076 36.3518 56.5313 35.5747 56.5345 34.7634V23.2366C56.5313 22.4253 56.2076 21.6482 55.6339 21.0746C55.0603 20.5009 54.2832 20.1772 53.472 20.1739ZM4.53131 40.3478H4.5287C3.71735 40.351 2.94012 40.6746 2.36636 41.2483C1.79261 41.822 1.46883 42.5992 1.46558 43.4105V54.9374C1.46883 55.7487 1.79255 56.5258 2.36621 57.0994C2.93987 57.6731 3.71699 57.9968 4.52825 58H53.4719C54.2831 57.9968 55.0602 57.6731 55.6339 57.0994C56.2076 56.5258 56.5313 55.7487 56.5345 54.9374V43.4105C56.5313 42.5992 56.2076 41.8221 55.6339 41.2485C55.0602 40.6748 54.2831 40.3511 53.4719 40.3478H4.53131ZM53.4719 17.6522C54.2831 17.6489 55.0603 17.3252 55.6339 16.7516C56.2076 16.1779 56.5313 15.4008 56.5345 14.5895V3.06267C56.5313 2.2514 56.2076 1.47429 55.6339 0.900628C55.0602 0.326969 54.2831 0.00325114 53.4719 0L4.52825 0C3.71698 0.00325114 2.93986 0.326969 2.3662 0.900628C1.79254 1.47429 1.46883 2.2514 1.46558 3.06267V14.5895C1.4688 15.4008 1.79251 16.1779 2.36617 16.7516C2.93984 17.3252 3.71697 17.6489 4.52825 17.6522H53.4719Z" fill="url(#paint0_linear_37_2469)"/>
</g>
<defs>
<linearGradient id="paint0_linear_37_2469" x1="-18.0524" y1="108.048" x2="63.724" y2="103.708" gradientUnits="userSpaceOnUse">
<stop stop-color="#2780E6"/>
<stop offset="1" stop-color="#781896"/>
</linearGradient>
<clipPath id="clip0_37_2469">
<rect width="58" height="58" fill="white"/>
</clipPath>
</defs>
</svg>
