<svg width="58" height="58" viewBox="0 0 58 58" fill="none" xmlns="http://www.w3.org/2000/svg">
<g clip-path="url(#clip0_37_2481)">
<path fill-rule="evenodd" clip-rule="evenodd" d="M28.9829 58C28.7451 58 28.5072 57.8301 28.3713 57.6262C27.8616 56.5729 26.9103 54.908 25.823 53.0052C21.9835 46.2097 18.7556 40.3655 18.7556 37.9871C18.7556 32.3468 23.3426 27.7598 28.9829 27.7598C34.6232 27.7598 39.2102 32.3468 39.2102 37.9871C39.2102 40.3995 35.9484 46.3456 32.0069 53.277C30.9876 55.0779 30.1042 56.6069 29.5945 57.6262C29.4926 57.8301 29.2547 58 28.9829 58ZM28.9829 41.8605C26.2307 41.8605 23.9542 39.584 23.9542 36.8318C23.9542 34.0456 26.2307 31.8031 28.9829 31.8031C31.7691 31.8031 34.0116 34.0456 34.0116 36.8318C34.0116 39.584 31.7691 41.8605 28.9829 41.8605Z" fill="url(#paint0_linear_37_2481)"/>
<path fill-rule="evenodd" clip-rule="evenodd" d="M42.4381 45.6661H35.8125C35.4387 45.6661 35.1329 45.3603 35.1329 44.9865C35.1329 44.6128 35.4387 44.307 35.8125 44.307H42.4381C46.8552 44.307 50.4569 40.7053 50.4569 36.2882V11.6544H31.7691V6.14997C31.7691 5.77622 31.4633 5.47042 31.0896 5.47042H27.8617V0H42.4381C47.6028 0 51.816 4.21324 51.816 9.37786V36.2882C51.816 41.4529 47.6028 45.6661 42.4381 45.6661ZM43.2536 8.93615C41.5207 8.93615 40.1276 7.54306 40.1276 5.81019C40.1276 4.07733 41.5207 2.68424 43.2536 2.68424C44.9865 2.68424 46.3796 4.07733 46.3796 5.81019C46.3796 7.54306 44.9865 8.93615 43.2536 8.93615ZM43.2536 4.04335C42.3022 4.04335 41.4868 4.82484 41.4868 5.81019C41.4868 6.79555 42.3022 7.57704 43.2536 7.57704C44.239 7.57704 45.0204 6.79555 45.0204 5.81019C45.0204 4.82484 44.239 4.04335 43.2536 4.04335ZM30.41 11.6544H7.50901V36.2882C7.50901 40.7053 11.1107 44.307 15.5278 44.307H22.1874C22.5612 44.307 22.867 44.6128 22.867 44.9865C22.867 45.3603 22.5612 45.6661 22.1874 45.6661H15.5278C10.3631 45.6661 6.1499 41.4529 6.1499 36.2882V9.37786C6.18388 4.21324 10.3631 0 15.5278 0H26.5026V6.14997C26.5026 6.52373 26.8084 6.82953 27.1821 6.82953H30.41V11.6544Z" fill="#6A2BA5"/>
<path fill-rule="evenodd" clip-rule="evenodd" d="M51.1365 18.8576C51.0006 18.8576 50.8647 18.8236 50.7628 18.7557C48.5542 18.28 23.4447 18.5518 6.86353 18.8576C6.48978 18.8576 6.18398 18.5518 6.18398 18.178C6.15 17.8043 6.4558 17.4985 6.82956 17.4985C6.93149 17.4985 17.8383 17.2946 28.6772 17.1927C50.8987 16.9888 51.2724 17.3626 51.6122 17.6684C51.7481 17.8043 51.8161 18.0082 51.8161 18.178C51.8161 18.5518 51.5103 18.8576 51.1365 18.8576Z" fill="#5E3BB1"/>
</g>
<defs>
<linearGradient id="paint0_linear_37_2481" x1="11.506" y1="84.0943" x2="41.9227" y2="82.9443" gradientUnits="userSpaceOnUse">
<stop stop-color="#2780E6"/>
<stop offset="1" stop-color="#781896"/>
</linearGradient>
<clipPath id="clip0_37_2481">
<rect width="58" height="58" fill="white"/>
</clipPath>
</defs>
</svg>
