<svg width="124" height="80" viewBox="0 0 124 80" fill="none" xmlns="http://www.w3.org/2000/svg">
<path d="M51.2092 38.1492C50.9832 39.8435 49.6278 39.8435 48.3853 39.8435H47.7076L48.2724 36.5678C48.2724 36.3419 48.4983 36.229 48.7242 36.229H49.063C49.9667 36.229 50.7573 36.229 51.2092 36.6808C51.2092 37.1326 51.2092 37.5844 51.2092 38.1492ZM50.6444 33.6311H45.7874C45.4485 33.6311 45.2226 33.857 45.1097 34.1958L43.1895 46.6207C43.1895 46.8466 43.3024 47.0725 43.6413 47.0725H45.9003C46.2392 47.0725 46.4651 46.8466 46.5781 46.5077L47.1428 43.1191C47.1428 42.7803 47.4817 42.5544 47.8205 42.5544H49.4019C52.5646 42.5544 54.3718 40.973 54.9366 37.9233C55.1625 36.5678 54.9366 35.5513 54.3718 34.7606C53.4682 34.0829 52.2257 33.6311 50.6444 33.6311Z" fill="#263577"/>
<path d="M61.8257 42.6674C61.5998 44.0228 60.5832 44.9265 59.2278 44.9265C58.5501 44.9265 57.9853 44.7005 57.6464 44.2487C57.3076 43.7969 57.1946 43.2322 57.3076 42.6674C57.5335 41.3119 58.5501 40.4083 59.9055 40.4083C60.5832 40.4083 61.148 40.6342 61.4868 41.086C61.7128 41.4249 61.9386 41.9897 61.8257 42.6674ZM64.9884 38.1492H62.7293C62.5034 38.1492 62.3905 38.2622 62.2775 38.4881L62.1646 39.1658L62.0516 38.9399C61.5998 38.2622 60.4703 37.9233 59.3407 37.9233C56.7428 37.9233 54.5967 39.8436 54.1449 42.5544C53.919 43.9099 54.2578 45.1524 55.0485 46.056C55.7262 46.8467 56.7428 47.1855 57.9853 47.1855C60.0184 47.1855 61.148 45.8301 61.148 45.8301L61.035 46.5078C61.035 46.7337 61.148 46.9596 61.4868 46.9596H63.52C63.8589 46.9596 64.0848 46.7337 64.1977 46.3948L65.4402 38.4881C65.4402 38.3752 65.3273 38.1492 64.9884 38.1492Z" fill="#263577"/>
<path d="M77.2997 38.1492H74.9277C74.7017 38.1492 74.4758 38.2622 74.3629 38.4881L71.2002 43.2321L69.8447 38.714C69.7318 38.3751 69.5059 38.2622 69.167 38.2622H66.908C66.682 38.2622 66.4562 38.4881 66.5691 38.8269L69.167 46.2818L66.795 49.6704C66.5691 49.8963 66.795 50.3482 67.1339 50.3482H69.5059C69.7318 50.3482 69.9577 50.2352 70.0707 50.0093L77.7515 38.8269C77.8644 38.4881 77.6385 38.1492 77.2997 38.1492Z" fill="#263577"/>
<path d="M85.547 38.1492C85.3211 39.8435 83.9657 39.8435 82.7232 39.8435H82.0455L82.6102 36.5678C82.6102 36.3419 82.8362 36.229 83.0621 36.229H83.4009C84.3046 36.229 85.0952 36.229 85.547 36.6808C85.66 37.1326 85.66 37.5844 85.547 38.1492ZM84.9823 33.6311H80.1253C79.7864 33.6311 79.5605 33.857 79.4476 34.1958L77.5273 46.6207C77.5273 46.8466 77.6403 47.0725 77.9792 47.0725H80.4641C80.69 47.0725 80.9159 46.9596 80.9159 46.6207L81.4807 43.1191C81.4807 42.7803 81.8196 42.5544 82.1584 42.5544H83.7398C86.9025 42.5544 88.7098 40.973 89.2745 37.9233C89.5004 36.5678 89.2745 35.5513 88.7098 34.7606C87.9191 34.0829 86.6766 33.6311 84.9823 33.6311Z" fill="#2199D6"/>
<path d="M96.2769 42.6674C96.051 44.0228 95.0344 44.9265 93.679 44.9265C93.0012 44.9265 92.4365 44.7005 92.0976 44.2487C91.7588 43.7969 91.6458 43.2322 91.7587 42.6674C91.9846 41.3119 93.0012 40.4083 94.3567 40.4083C95.0344 40.4083 95.5992 40.6342 95.938 41.086C96.1639 41.4249 96.3898 41.9897 96.2769 42.6674ZM99.4396 38.1492H97.1805C96.9546 38.1492 96.8416 38.2622 96.7287 38.4881L96.6157 39.1658L96.5028 38.9399C96.051 38.2622 94.9214 37.9233 93.7919 37.9233C91.194 37.9233 89.0479 39.8436 88.596 42.5544C88.3701 43.9099 88.709 45.1524 89.4997 46.056C90.1774 46.8467 91.194 47.1855 92.4365 47.1855C94.4696 47.1855 95.5991 45.8301 95.5991 45.8301L95.4862 46.5078C95.4862 46.7337 95.5992 46.9596 95.938 46.9596H97.9712C98.31 46.9596 98.5359 46.7337 98.6489 46.3948L99.8914 38.4881C99.8914 38.3752 99.6655 38.1492 99.4396 38.1492Z" fill="#2199D6"/>
<path d="M102.15 33.9699L100.117 46.6207C100.117 46.8466 100.23 47.0725 100.569 47.0725H102.602C102.941 47.0725 103.167 46.8466 103.28 46.5077L105.2 34.0829C105.2 33.857 105.087 33.6311 104.748 33.6311H102.489C102.376 33.6311 102.263 33.857 102.15 33.9699Z" fill="#2199D6"/>
<path d="M23.0829 49.4445L23.4218 47.0725H22.6311H18.6777L21.3886 29.7906C21.3886 29.7906 21.3886 29.6777 21.5016 29.6777H21.6145H28.2788C30.4249 29.6777 32.0062 30.1295 32.7969 31.0331C33.1358 31.4849 33.3617 31.9368 33.4746 32.3886C33.5876 32.9533 33.5876 33.5181 33.4746 34.3088V34.7606L33.8135 34.9865C34.1524 35.0995 34.3783 35.3254 34.6042 35.5513C34.943 35.8901 35.1689 36.3419 35.1689 36.9067C35.2819 37.4715 35.2819 38.1492 35.056 38.9399C34.8301 39.8435 34.6042 40.5212 34.2653 41.1989C33.9264 41.7637 33.4746 42.2155 33.0228 42.6673C32.571 43.0062 31.8933 43.2321 31.3285 43.458C30.6508 43.571 29.9731 43.6839 29.1824 43.6839H28.6176C28.2788 43.6839 27.9399 43.7969 27.6011 44.0228C27.3752 44.2487 27.1492 44.5875 27.0363 44.9264V45.1523L26.3586 49.3316V49.4445V49.5575C26.3586 49.5575 26.3586 49.5575 26.2456 49.5575H23.0829V49.4445Z" fill="#263577"/>
<path d="M34.2644 34.3088C34.2644 34.4217 34.2644 34.5347 34.1514 34.6476C33.2478 39.1658 30.311 40.6342 26.4706 40.6342H24.5504C24.0986 40.6342 23.6468 40.973 23.6468 41.4248L22.6302 47.7502L22.4043 49.5575C22.4043 49.8963 22.6302 50.1222 22.8561 50.1222H26.3577C26.8095 50.1222 27.1483 49.7834 27.1483 49.4445V49.2186L27.8261 45.1523V44.9264C27.939 44.4746 28.2779 44.2487 28.6167 44.2487H29.1815C32.5701 44.2487 35.168 42.8932 35.8457 38.9399C36.1846 37.2456 35.9587 35.8901 35.168 34.9865C34.9421 34.7606 34.6033 34.5347 34.2644 34.3088Z" fill="#2199D6"/>
<path d="M33.3624 33.9699C33.2495 33.9699 33.1365 33.857 32.9106 33.857C32.7977 33.857 32.5717 33.744 32.4588 33.744C31.894 33.6311 31.3293 33.6311 30.7645 33.6311H25.5686C25.4557 33.6311 25.3427 33.6311 25.2298 33.744C25.0039 33.857 24.778 34.0829 24.778 34.3088L23.6484 41.3119V41.5378C23.7614 41.086 24.1002 40.7471 24.5521 40.7471H26.4723C30.3127 40.7471 33.2495 39.1658 34.1531 34.7606C34.1531 34.6476 34.1531 34.5347 34.266 34.4217C34.0401 34.3088 33.8142 34.1958 33.5883 34.0829C33.4754 33.9699 33.3624 33.9699 33.3624 33.9699Z" fill="#252C5E"/>
<path d="M24.7772 34.3088C24.7772 34.0829 25.0031 33.857 25.229 33.744C25.342 33.744 25.4549 33.6311 25.5679 33.6311H30.7637C31.3285 33.6311 32.0062 33.6311 32.458 33.744C32.571 33.744 32.7969 33.744 32.9098 33.857C33.0228 33.857 33.1357 33.9699 33.3617 33.9699C33.4746 33.9699 33.4746 33.9699 33.5876 34.0829C33.8135 34.1959 34.0394 34.3088 34.2653 34.4218C34.4912 32.7275 34.2653 31.5979 33.3617 30.5813C32.3451 29.4518 30.5378 29 28.2787 29H21.6145C21.1627 29 20.7109 29.3389 20.7109 29.7907L18 47.1855C18 47.5244 18.2259 47.8632 18.5648 47.8632H22.6311L23.6477 41.3119L24.7772 34.3088Z" fill="#263577"/>
</svg>
