<svg width="135" height="48" fill="none" xmlns="http://www.w3.org/2000/svg"><path d="M0 2h29.143v14.571H14.57L0 2zm0 14.571h14.571l14.572 14.572H0V16.57zm0 14.572h14.571v14.571L0 31.143zm45.586-17.648h11.78v3.744h-7.321v5.202h7.32v3.66h-7.32v6.661h-4.46V13.495zm14.202 6h4.211v2.78c.22-.955.67-1.688 1.349-2.202a3.718 3.718 0 012.312-.798c.44 0 .808.038 1.1.11v3.909c-.42-.05-.842-.078-1.265-.083-1.156 0-2.027.376-2.615 1.128-.586.734-.88 1.835-.88 3.304v5.119h-4.21V19.495h-.002zm15.62 13.625c-1.283 0-2.403-.303-3.357-.909a5.88 5.88 0 01-2.147-2.477c-.495-1.063-.745-2.267-.745-3.605 0-1.322.259-2.515.772-3.578a5.972 5.972 0 012.202-2.505c.972-.605 2.082-.909 3.33-.909.936 0 1.772.203 2.506.606.733.405 1.284.956 1.65 1.652v-1.9h4.184v13.267H79.62V30.89c-.367.66-.936 1.201-1.707 1.624a5.21 5.21 0 01-2.504.606zm1.212-3.496c1.009 0 1.789-.33 2.34-.99.55-.661.825-1.497.825-2.505 0-.991-.275-1.817-.826-2.478-.55-.66-1.33-.99-2.34-.99-.954 0-1.724.32-2.311.963-.569.643-.853 1.477-.853 2.505 0 1.028.284 1.871.853 2.532.587.642 1.358.963 2.312.963zm10.129-10.129h4.21v1.927c.296-.68.772-1.23 1.432-1.651.68-.421 1.468-.634 2.367-.634 2.092 0 3.478.816 4.156 2.45a4.189 4.189 0 011.679-1.761 4.819 4.819 0 012.56-.689c3.138 0 4.706 1.798 4.706 5.395v8.23h-4.238v-7.46c0-.897-.166-1.558-.496-1.98-.33-.422-.826-.634-1.486-.634-.716 0-1.266.248-1.652.743-.385.478-.578 1.312-.578 2.505v6.826h-4.238v-7.487c0-.898-.165-1.55-.496-1.954-.31-.421-.798-.633-1.457-.633-.735 0-1.295.248-1.68.743-.385.478-.578 1.312-.578 2.505v6.826h-4.21V19.495h-.001zm36.93 5.946c0 .568-.037 1.183-.112 1.844h-9.796c.037.862.33 1.522.88 1.982.551.458 1.296.688 2.23.688 1.303 0 2.129-.396 2.477-1.184h4.129c-.203 1.303-.918 2.357-2.148 3.165-1.21.789-2.697 1.184-4.458 1.184-2.275 0-4.064-.615-5.368-1.845-1.284-1.23-1.926-2.944-1.926-5.146 0-1.432.293-2.67.88-3.716a5.812 5.812 0 012.505-2.422c1.083-.568 2.34-.854 3.773-.854 1.356 0 2.558.266 3.604.799 1.064.533 1.881 1.275 2.449 2.23.588.955.881 2.046.881 3.275zm-4.158-.771c-.018-.88-.265-1.551-.743-2.01-.476-.457-1.165-.687-2.064-.687s-1.614.247-2.147.743c-.513.477-.779 1.128-.798 1.954h5.752zm6.015-5.175h4.211v2.78c.22-.955.67-1.688 1.349-2.202a3.723 3.723 0 012.312-.798c.44 0 .808.038 1.101.11v3.909c-.42-.05-.843-.078-1.266-.083-1.156 0-2.027.376-2.615 1.128-.588.734-.881 1.835-.881 3.304v5.119h-4.211V19.495z" fill="#000"/></svg>