<svg width="128" height="48" fill="none" xmlns="http://www.w3.org/2000/svg"><path fill-rule="evenodd" clip-rule="evenodd" d="M99.592 31.617c3.299 0 5.982-2.63 5.982-5.862 0-3.233-2.683-5.863-5.982-5.863-3.299 0-5.983 2.63-5.983 5.863 0 3.233 2.684 5.863 5.983 5.863zm5.982-20.432h2.834v23.23h-2.834v-2.32a8.844 8.844 0 01-5.982 2.3c-4.861 0-8.816-3.876-8.816-8.64 0-4.764 3.955-8.64 8.816-8.64 2.237 0 4.346.814 5.982 2.3v-8.23zm-64.758 20.33c3.299 0 5.983-2.63 5.983-5.862 0-3.233-2.684-5.863-5.983-5.863-3.298 0-5.982 2.63-5.982 5.863 0 3.232 2.684 5.862 5.982 5.862zm-5.982-12.203a8.844 8.844 0 015.982-2.3c4.862 0 8.817 3.877 8.817 8.64 0 4.765-3.955 8.64-8.817 8.64a8.843 8.843 0 01-5.982-2.3v8.23H32v-23.23h2.834v2.32zm20.206 4.992c.638-2.626 3.015-4.511 5.726-4.511 2.675 0 4.916 1.845 5.514 4.51H55.04zm5.726-7.311c-4.789 0-8.684 3.908-8.684 8.71 0 4.804 3.895 8.712 8.684 8.712 2.681 0 5.142-1.007 6.753-2.763l.837-.913.107-.118-.117-.108-1.82-1.679-.117-.108-.108.117-.837.913c-1.067 1.164-2.823 1.859-4.698 1.859-2.711 0-5.088-1.886-5.726-4.511h14.184v-1.4c0-4.885-3.715-8.711-8.458-8.711zm64.4 8.71c0 3.26-2.684 5.912-5.983 5.912-3.298 0-5.982-2.652-5.982-5.911 0-3.26 2.684-5.911 5.982-5.911 3.299 0 5.983 2.651 5.983 5.91zm-5.983-8.71c-4.861 0-8.816 3.907-8.816 8.71 0 4.804 3.955 8.712 8.816 8.712 4.862 0 8.817-3.908 8.817-8.711 0-4.804-3.955-8.711-8.817-8.711zm-39.428 0c-1.97 0-3.846.75-5.322 2.12v-2.12h-2.76v17.422h2.76v-8.891c0-3.172 2.387-5.753 5.322-5.753s5.323 2.58 5.323 5.753v8.89h2.758v-8.89c0-4.704-3.625-8.531-8.081-8.531z" fill="#1A2022"/><path fill-rule="evenodd" clip-rule="evenodd" d="M0 27.778h13.333v13.037l13.334-13.037V14.74H13.333L0 27.778z" fill="#FF4876"/></svg>