<svg width="162" height="48" fill="none" xmlns="http://www.w3.org/2000/svg"><path fill-rule="evenodd" clip-rule="evenodd" d="M26.52 11H2.48A2.48 2.48 0 000 13.48v24.04A2.48 2.48 0 002.48 40h24.04A2.48 2.48 0 0029 37.52V13.48A2.48 2.48 0 0026.52 11zM15.237 26.979c-2.168 0-3.153-2.095-3.153-4.037 0-3.058 1.656-4.147 3.206-4.147 1.902 0 3.18 1.654 3.18 4.118 0 2.81-1.626 4.066-3.233 4.066zm7.318-4.12c0-4.582-2.614-7.661-6.501-7.661-2.261 0-3.57 1.026-4.202 1.733-.076-.61-.474-1.402-2.03-1.402H6.444v3.57H7.83c.235 0 .31.074.31.311v16.297h4.027V29.59c0-.165-.003-.32-.007-.458.628.582 1.83 1.386 3.707 1.386 3.936 0 6.69-3.15 6.69-7.66zM39.64 18.81c.713-.8 2.192-1.957 4.747-1.957 4.39 0 7.343 3.474 7.343 8.646 0 5.09-3.11 8.645-7.557 8.645-2.12 0-3.477-.907-4.187-1.564.005.156.008.33.008.516v6.903h-4.548V21.607c0-.267-.086-.352-.35-.352H33.53v-4.028h3.816c1.758 0 2.207.894 2.293 1.582zm3.884 2.103c-1.75 0-3.622 1.229-3.622 4.68 0 2.19 1.113 4.555 3.562 4.555 1.816 0 3.652-1.416 3.652-4.588 0-2.78-1.444-4.647-3.592-4.647z" fill="#192435"/><path d="M57.838 29.422v-9.746c0-1.646-.787-2.448-2.4-2.448h-4.065v4.027h1.566c.263 0 .349.087.349.352v9.713c0 1.672.762 2.448 2.395 2.448h4.07v-3.992h-1.566c-.252 0-.35-.101-.35-.354z" fill="#192435"/><path fill-rule="evenodd" clip-rule="evenodd" d="M64.971 18.81c.717-.8 2.192-1.957 4.75-1.957 4.39 0 7.34 3.474 7.34 8.646 0 5.09-3.107 8.645-7.555 8.645-2.118 0-3.48-.907-4.187-1.564.005.156.01.33.01.516v6.903h-4.552V21.607c0-.267-.085-.352-.349-.352h-1.564v-4.028h3.818c1.757 0 2.206.894 2.29 1.582zm.262 6.782c0 2.192 1.118 4.556 3.56 4.556 1.821 0 3.656-1.416 3.656-4.588 0-2.78-1.444-4.647-3.592-4.647-1.752 0-3.624 1.229-3.624 4.68zm12.06-.092c0-5.09 3.427-8.646 8.328-8.646 4.37 0 7.308 3.161 7.308 7.866 0 .477-.09 1.454-.098 1.494l-.025.301H82.02c.395 2.2 2.063 3.603 4.342 3.603 2.294 0 4.05-1.558 4.185-1.678l.008-.007.294-.281 1.982 3.315-.183.183c-.108.105-2.556 2.494-6.56 2.494-5.097 0-8.794-3.636-8.794-8.644zm8.328-4.931c-1.705 0-2.939.92-3.432 2.543h6.042c-.186-1.492-1.24-2.543-2.61-2.543zm23.853-7.12v15.973c0 .252.097.354.349.354h1.532v3.992h-3.941c-1.701 0-2.16-.903-2.252-1.618-.707.82-2.153 1.994-4.662 1.994-4.391 0-7.342-3.473-7.342-8.644 0-5.09 3.08-8.646 7.494-8.646 2.258 0 3.569.803 4.24 1.414v-2.887c0-.267-.086-.352-.349-.352h-1.566V11h4.065c1.635 0 2.432.803 2.432 2.45zm-11.675 12.05c0 2.823 1.4 4.65 3.563 4.65 1.751 0 3.624-1.227 3.624-4.68 0-2.27-1.103-4.556-3.562-4.556-2.168 0-3.625 1.842-3.625 4.587z" fill="#192435"/><path d="M121.477 17.01c-1.893 0-3.635 1.1-4.669 2.856v-.378c0-1.5-.821-2.26-2.432-2.26h-3.911v4.027h1.565c.263 0 .35.085.35.352v12.161h4.549V27.15c0-.871.111-1.71.325-2.487.685-2.283 2.505-3.095 3.977-3.095.521 0 .901.055.907.057l.38.058v-4.56l-.277-.047a5.178 5.178 0 00-.764-.066zm7.515 12.412v-9.746c0-1.646-.783-2.448-2.397-2.448h-3.677v4.027h1.175c.266 0 .349.087.349.352v9.713c0 1.672.764 2.448 2.401 2.448h4.066v-3.992h-1.568c-.251 0-.349-.101-.349-.354z" fill="#192435"/><path d="M146.165 17.228h-2.427c-1.418 0-2.179.495-2.629 1.712l-2.965 8.352c-.103.31-.199.656-.281.99a11.017 11.017 0 00-.3-.995l-2.966-8.348c-.455-1.23-1.19-1.711-2.626-1.711h-2.582v4.027h.669c.357 0 .471.122.555.346l4.59 12.167h5.116l4.59-12.167c.084-.224.202-.346.557-.346h.699v-4.027z" fill="#192435"/><path fill-rule="evenodd" clip-rule="evenodd" d="M145.672 25.5c0-5.09 3.427-8.646 8.326-8.646 4.373 0 7.312 3.161 7.312 7.866 0 .477-.092 1.454-.097 1.494l-.025.301h-10.791c.395 2.2 2.063 3.603 4.344 3.603 2.366 0 4.174-1.67 4.19-1.685l.301-.281 1.978 3.315-.185.183c-.103.101-2.553 2.494-6.562 2.494-5.096 0-8.791-3.636-8.791-8.644zm8.326-4.931c-1.704 0-2.933.92-3.431 2.543h6.042c-.186-1.492-1.238-2.543-2.611-2.543z" fill="#192435"/><path d="M57.527 11.001h-4.055v4.307h4.055V11zm71.157 0h-4.057v4.307h4.057V11z" fill="#192435"/></svg>