<svg width="162" height="48" fill="none" xmlns="http://www.w3.org/2000/svg"><path d="M63.335 14.363v3.78H53.19v4.13h9.34v3.807h-9.34v7.944h-4.878V14.363h15.023zm3.986-.027h4.214v3.335h-4.214v-3.335zm0 5.12h4.214v14.561h-4.214v-14.56zm7.233.028h4.496c1.778 6.461 2.08 7.782 2.55 10.558.584-3.227.67-3.585 1.53-7.014l.885-3.558h4.382L83.7 34.004h-4.455l-4.69-14.52zm30.014 10.828a11.6 11.6 0 01-1.751 2.176 7.98 7.98 0 01-5.462 2.062c-4.301 0-7.32-2.783-7.32-7.52 0-3.51 1.717-8.025 7.427-8.025a7.01 7.01 0 012.823.5c.897.36 1.711.9 2.391 1.589 1.892 2.021 2.013 4.878 2.053 6.516H94.396c0 1.812.993 3.618 3.314 3.618 2.322 0 3.134-1.536 3.664-2.56l3.194 1.644zm-4.247-5.39a3.45 3.45 0 00-.805-2.063 2.972 2.972 0 00-2.08-.801 2.902 2.902 0 00-2.161.943 3.793 3.793 0 00-.859 1.92h5.905zm8.635-9.642h4.248v4.54h2.798v2.615h-2.825v6.576c0 .89 0 1.664 1.107 1.664l1.53-.053v3.335c-.742.134-1.494.209-2.248.222-1.476 0-3.08-.08-4.026-1.422-.584-.862-.61-1.893-.61-3.28v-7.069h-2.107v-2.621h2.107l.026-4.508zm14.722 5.706a6.693 6.693 0 014.187-1.664v3.8l-1.409.223c-2.053.357-2.684.673-2.684 2.506v8.166h-4.247v-14.56h4.16l-.007 1.53zm7.274 2.634a4.053 4.053 0 011.53-3.227c1.342-1.05 3.046-1.273 4.744-1.273 1.697 0 6.085.41 6.085 4.17v8.416c0 1.564.081 1.786.416 2.285h-4.16v-1.348c-1.107.809-2.301 1.732-4.428 1.732-3.315 0-4.738-2.4-4.738-4.448 0-2.338 1.859-3.672 3.047-4.17a36.731 36.731 0 015.71-1.348v-.781c-.054-.674-.107-1.786-1.657-1.786-1.886 0-2.141 1.172-2.248 1.705l-4.301.074zM136.36 28c-.718.277-1.832.674-1.832 1.806.023.411.206.797.51 1.073.304.277.704.421 1.114.403a2.794 2.794 0 001.469-.472c1.41-.89 1.47-2.223 1.503-3.733L136.36 28zm16.104-7.21a4.193 4.193 0 011.449-1.138 7.052 7.052 0 012.631-.553 5.456 5.456 0 012.583.58c1.523.809 1.912 2.116 1.912 4.373v9.965h-4.24v-8.186a5.78 5.78 0 00-.195-2.17 1.942 1.942 0 00-1.912-1.112c-2.248 0-2.248 1.813-2.248 3.619v7.85h-4.254V19.51h4.301l-.027 1.28zM22.27 24.038h4.503a.67.67 0 00.67-.673.718.718 0 00-.053-.27L19.647 1.931a.673.673 0 00-.61-.431H14.52a.67.67 0 00-.67.674c0 .078.013.155.04.229l7.75 21.218a.673.673 0 00.63.418zm-.798 22.492h4.502a.67.67 0 00.671-.674.675.675 0 00-.04-.229L10.642 1.945a.673.673 0 00-.617-.432H5.528a.67.67 0 00-.671.674c0 .078.014.156.04.23L20.86 46.105a.673.673 0 00.61.425zm-8.871 0h4.496a.67.67 0 00.671-.62.894.894 0 00-.04-.263l-7.77-21.184a.673.673 0 00-.611-.431H4.824a.67.67 0 00-.59.89l7.737 21.19a.673.673 0 00.63.418zM22.814 2.423l3.63 9.912a.673.673 0 00.61.43h4.483a.67.67 0 00.67-.673.675.675 0 00-.04-.229l-3.63-9.918a.673.673 0 00-.61-.432h-4.503a.67.67 0 00-.67.674.677.677 0 00.06.236zM4.301 46.53h4.496a.67.67 0 00.67-.674.677.677 0 00-.04-.229l-3.65-9.939a.673.673 0 00-.617-.43H.671A.67.67 0 000 35.93c0 .08.014.16.04.236l3.63 9.938a.673.673 0 00.631.425z" fill="#0073FF"/></svg>