<svg width="154" height="48" fill="none" xmlns="http://www.w3.org/2000/svg"><g clip-path="url(#clip0_7_4104)"><path d="M61.71 25.662l-2.678-7.006c-.11-.287-.527-.287-.636 0l-2.677 7.007a.32.32 0 00.04.302.338.338 0 00.279.142h5.353a.348.348 0 00.279-.142.325.325 0 00.039-.302zm1.236 3.939h-8.463c-.07 0-.137.02-.194.059a.33.33 0 00-.124.155l-1.666 4.36a.33.33 0 01-.125.156.346.346 0 01-.193.059h-3.668a.347.347 0 01-.281-.145.323.323 0 01-.034-.307l8.445-20.426a.331.331 0 01.125-.15.347.347 0 01.19-.057h3.512a.34.34 0 01.315.207l8.445 20.426a.32.32 0 01-.034.307.336.336 0 01-.28.145h-3.668a.346.346 0 01-.194-.06.33.33 0 01-.124-.155l-1.667-4.36a.33.33 0 00-.124-.155.346.346 0 00-.194-.06zm8.003-9.127h3.137c.09 0 .176.035.24.096.064.062.1.146.1.233V34.06a.324.324 0 01-.1.233.344.344 0 01-.24.097H70.95a.344.344 0 01-.24-.097.324.324 0 01-.1-.233V20.803c0-.087.036-.171.1-.233a.344.344 0 01.24-.096zm14.918 3.225a.325.325 0 01-.099.233.345.345 0 01-.24.096h-.095c-1.551 0-2.689.362-3.413 1.084-.724.723-1.085 1.918-1.085 3.585v5.363a.325.325 0 01-.1.233.344.344 0 01-.24.097H77.49a.345.345 0 01-.24-.097.324.324 0 01-.1-.233V20.803c0-.087.036-.171.1-.233a.345.345 0 01.24-.096h3.075c.09 0 .177.034.24.096.064.062.1.146.1.233v2.622h.062c.372-1.084.961-1.917 1.768-2.5.807-.582 1.8-.873 2.978-.873h.155v3.646zm8.579-.123a.345.345 0 00-.24.097.325.325 0 00-.1.233v5.514c0 .562.114.964.342 1.204.227.241.62.362 1.178.362h.313c.09 0 .176.035.24.096a.328.328 0 01.099.233v2.775a.325.325 0 01-.1.233.344.344 0 01-.24.097h-1.335c-1.386 0-2.451-.347-3.196-1.04-.745-.692-1.117-1.721-1.117-3.087v-6.387a.325.325 0 00-.1-.233.344.344 0 00-.239-.097h-1.958a.345.345 0 01-.24-.096.325.325 0 01-.1-.233v-2.444c0-.087.036-.171.1-.233a.344.344 0 01.24-.096h1.958c.09 0 .177-.035.24-.097a.324.324 0 00.1-.233v-4.913c0-.088.035-.171.099-.233a.345.345 0 01.24-.097h3.137c.09 0 .176.035.24.097s.1.145.1.233v4.913c0 .088.035.171.099.233.063.062.15.097.24.097h2.268c.09 0 .177.034.24.096.064.062.1.146.1.233v2.444a.324.324 0 01-.1.233.345.345 0 01-.24.096h-2.268zm14.366 6.687c.714-.723 1.07-1.667 1.07-2.831 0-1.165-.356-2.109-1.07-2.832-.714-.723-1.65-1.084-2.808-1.084s-2.094.361-2.807 1.084c-.714.723-1.071 1.667-1.071 2.832 0 1.164.357 2.108 1.071 2.831.713.723 1.649 1.084 2.807 1.084s2.094-.361 2.808-1.084zm-7.244 3.705c-1.055-.582-1.888-1.43-2.497-2.545-.61-1.115-.916-2.445-.916-3.991 0-1.546.305-2.877.916-3.991.61-1.115 1.442-1.963 2.497-2.546 1.055-.582 2.213-.873 3.475-.873 1.116 0 2.073.21 2.87.632a4.934 4.934 0 011.907 1.778h.062v-1.629c0-.087.036-.171.1-.233a.343.343 0 01.239-.096h3.107c.09 0 .176.034.24.096a.327.327 0 01.099.233V34.06a.327.327 0 01-.099.233.345.345 0 01-.24.096h-3.107a.343.343 0 01-.239-.096.324.324 0 01-.1-.233v-1.628h-.062a4.927 4.927 0 01-1.908 1.777c-.796.421-1.752.632-2.869.632-1.262 0-2.42-.291-3.475-.873zm25.018-3.705c.714-.723 1.07-1.667 1.07-2.831 0-1.165-.356-2.109-1.07-2.832-.713-.723-1.649-1.084-2.807-1.084-1.159 0-2.094.361-2.808 1.084-.713.723-1.07 1.667-1.07 2.832 0 1.164.357 2.108 1.07 2.831.714.723 1.649 1.084 2.808 1.084 1.158 0 2.094-.361 2.807-1.084zm-4.715 3.946a4.913 4.913 0 01-1.908-1.777h-.062v1.628a.324.324 0 01-.1.233.343.343 0 01-.24.096h-3.137a.345.345 0 01-.24-.096.327.327 0 01-.099-.233V13.634c0-.087.036-.171.099-.233a.345.345 0 01.24-.096h3.137c.09 0 .177.034.24.096.064.062.1.146.1.233v8.797h.062a4.916 4.916 0 011.908-1.777c.796-.421 1.753-.632 2.87-.632 1.261 0 2.419.29 3.474.873 1.055.583 1.887 1.431 2.497 2.545.61 1.115.916 2.446.916 3.992 0 1.546-.306 2.876-.915 3.99-.611 1.115-1.443 1.964-2.498 2.546-1.054.582-2.213.874-3.474.874-1.117 0-2.074-.211-2.87-.633zm15.043.18h-3.138a.343.343 0 01-.239-.096.324.324 0 01-.1-.233V13.635c0-.088.036-.171.1-.233a.343.343 0 01.239-.097h3.138c.09 0 .176.035.24.097a.327.327 0 01.099.233V34.06a.327.327 0 01-.099.233.345.345 0 01-.24.097zm7.4-10.692c-.52.394-.871.963-1.053 1.707-.05.205.115.401.332.401h5.971c.207 0 .37-.18.336-.378-.119-.704-.43-1.265-.932-1.685-.589-.492-1.36-.738-2.311-.738-.952 0-1.733.231-2.343.693zm7.648-1.732c1.22 1.295 1.83 3.128 1.83 5.497v.393a.327.327 0 01-.099.233.346.346 0 01-.24.097h-9.975a.35.35 0 00-.261.118.328.328 0 00-.075.27c.16.88.561 1.579 1.203 2.097.734.593 1.66.888 2.777.888 1.442 0 2.776-.546 4.004-1.639a.343.343 0 01.503.057l1.526 2.126a.319.319 0 01.059.227.328.328 0 01-.111.208 11.285 11.285 0 01-2.475 1.597c-.993.471-2.162.708-3.506.708-1.551 0-2.906-.307-4.064-.92a6.602 6.602 0 01-2.699-2.59c-.641-1.114-.962-2.404-.962-3.87 0-1.466.31-2.76.931-3.886a6.581 6.581 0 012.606-2.62c1.117-.622 2.42-.934 3.909-.934 2.191 0 3.898.648 5.119 1.943zm-77.127-6.392c0 1.242-1.037 2.25-2.317 2.25-1.28 0-2.318-1.008-2.318-2.25 0-1.243 1.038-2.25 2.318-2.25s2.317 1.007 2.317 2.25" fill="#333"/><path d="M17.867 7.364L2.95 13.357a.96.96 0 00.014 1.8l14.98 5.767a5.713 5.713 0 004.098 0l14.98-5.768a.96.96 0 00.014-1.798L22.118 7.364a5.713 5.713 0 00-4.251 0" fill="#FCB400"/><path d="M21.321 24.073v14.408c0 .685.712 1.155 1.368.902l16.693-6.29a.996.996 0 00.458-.357.95.95 0 00.172-.545V17.783c0-.686-.711-1.155-1.367-.902l-16.693 6.29a.995.995 0 00-.458.357.95.95 0 00-.173.545" fill="#18BFFF"/><path d="M17.423 24.817l-4.954 2.322-.503.236L1.51 32.24c-.664.31-1.51-.16-1.51-.874V17.843c0-.259.137-.482.32-.65.075-.073.16-.135.253-.184.25-.146.606-.185.91-.069l15.857 6.101c.806.31.87 1.407.083 1.776" fill="#F82B60"/><path d="M17.423 24.817l-4.954 2.322L.32 17.193a1.12 1.12 0 01.254-.184c.25-.146.606-.185.91-.069l15.857 6.101c.806.31.87 1.407.083 1.776" fill="#000" fill-opacity=".25"/></g><defs><clipPath id="clip0_7_4104"><path fill="#fff" d="M0 0h154v48H0z"/></clipPath></defs></svg>