<svg width="43" height="43" fill="none" xmlns="http://www.w3.org/2000/svg"><path d="M33.747 10.82a3.822 3.822 0 003.817-3.818v-1.63a3.822 3.822 0 00-3.817-3.818H9.254A3.822 3.822 0 005.436 5.37v1.631a3.822 3.822 0 003.818 3.818H20.45v1.775H9.254a3.822 3.822 0 00-3.818 3.818v1.63a3.822 3.822 0 003.818 3.818H20.45v1.775H9.254a3.822 3.822 0 00-3.818 3.818v1.63a3.822 3.822 0 003.818 3.818H20.45v1.811a3.464 3.464 0 00-2.235 2.235h-6.264a1.05 1.05 0 000 2.1h6.264a3.454 3.454 0 003.285 2.398 3.454 3.454 0 003.285-2.398h6.264a1.05 1.05 0 000-2.1h-6.264a3.464 3.464 0 00-2.235-2.235v-1.81h11.197a3.822 3.822 0 003.817-3.819v-1.63a3.822 3.822 0 00-3.817-3.818H22.55V21.86h11.197a3.822 3.822 0 003.817-3.818v-1.63a3.822 3.822 0 00-3.817-3.818H22.55V10.82h11.197zM21.5 39.347a1.35 1.35 0 01-1.349-1.35 1.35 1.35 0 011.35-1.348 1.35 1.35 0 011.348 1.349 1.35 1.35 0 01-1.349 1.349zm13.965-11.893v1.63a1.72 1.72 0 01-1.718 1.718H9.254a1.72 1.72 0 01-1.718-1.718v-1.63c0-.948.77-1.718 1.718-1.718h24.493c.947 0 1.718.77 1.718 1.718zm0-11.041v1.63a1.72 1.72 0 01-1.718 1.718H9.254a1.72 1.72 0 01-1.718-1.718v-1.63c0-.948.77-1.719 1.718-1.719h24.493a1.72 1.72 0 011.718 1.719zm-27.93-9.41V5.37a1.72 1.72 0 011.719-1.718h24.493a1.72 1.72 0 011.718 1.718v1.631a1.72 1.72 0 01-1.718 1.718H9.254a1.72 1.72 0 01-1.718-1.718zm6.55-.816c0 .58-.47 1.05-1.05 1.05h-2.168a1.05 1.05 0 010-2.1h2.168c.58 0 1.05.47 1.05 1.05zm8.499 1.05h-2.168a1.05 1.05 0 010-2.1h2.168a1.05 1.05 0 010 2.1zm6.331-1.05c0-.58.47-1.05 1.05-1.05h2.168a1.05 1.05 0 010 2.1h-2.168c-.58 0-1.05-.47-1.05-1.05zm-14.83 11.04c0 .58-.47 1.05-1.05 1.05h-2.168a1.05 1.05 0 010-2.099h2.168c.58 0 1.05.47 1.05 1.05zm6.331-1.049h2.168a1.05 1.05 0 110 2.1h-2.168a1.05 1.05 0 010-2.1zm8.499 1.05c0-.58.47-1.05 1.05-1.05h2.168a1.05 1.05 0 110 2.1h-2.168c-.58 0-1.05-.47-1.05-1.05zm-14.83 11.041c0 .58-.47 1.05-1.05 1.05h-2.168a1.05 1.05 0 110-2.1h2.168c.58 0 1.05.47 1.05 1.05zm6.331-1.05h2.168a1.05 1.05 0 010 2.1h-2.168a1.05 1.05 0 110-2.1zm8.499 1.05c0-.58.47-1.05 1.05-1.05h2.168a1.05 1.05 0 010 2.1h-2.168c-.58 0-1.05-.47-1.05-1.05z" fill="#2D6AFF"/></svg>