<svg width="44" height="44" fill="none" xmlns="http://www.w3.org/2000/svg"><path fill-rule="evenodd" clip-rule="evenodd" d="M23.977 5.764a5.958 5.958 0 00-3.954 0L8.123 9.95a.413.413 0 00-.285.405c.08 1.786.293 5.171.823 8.727.536 3.6 1.375 7.2 2.632 9.523 1.095 2.023 3.096 4.104 5.205 5.916a53.831 53.831 0 005.323 3.993.314.314 0 00.358 0 53.82 53.82 0 005.324-3.993c2.108-1.813 4.11-3.893 5.205-5.916 1.257-2.322 2.095-5.922 2.631-9.523.53-3.556.742-6.94.823-8.727a.413.413 0 00-.285-.405l-11.9-4.186zM19.11 3.17a8.708 8.708 0 015.78 0l11.9 4.186a3.163 3.163 0 012.12 3.124c-.084 1.833-.302 5.322-.85 9.007-.543 3.642-1.433 7.653-2.934 10.427-1.337 2.47-3.646 4.815-5.83 6.692a56.518 56.518 0 01-5.606 4.205 3.063 3.063 0 01-3.38 0 56.527 56.527 0 01-5.605-4.205c-2.184-1.877-4.494-4.222-5.83-6.692C7.372 27.14 6.483 23.13 5.94 19.487c-.55-3.685-.767-7.173-.85-9.007a3.163 3.163 0 012.12-3.124l11.9-4.186z" fill="#2D6AFF"/><path d="M19.25 18.333a2.75 2.75 0 114.125 2.382v4.493a1.375 1.375 0 11-2.75 0v-4.493a2.749 2.749 0 01-1.375-2.382z" fill="#2D6AFF"/></svg>